<svg width="218" height="150" viewBox="0 0 218 150" fill="none" xmlns="http://www.w3.org/2000/svg">
<path d="M13.8225 76.1699V100.489" stroke="#851EB6" stroke-width="3"/>
<path d="M97.9009 63.1621L118.448 76.1698" stroke="#851EB6" stroke-width="3"/>
<path d="M135.671 103.552L156.675 115.809" stroke="#851EB6" stroke-width="3"/>
<path d="M37.4802 19.9175L67.2433 2.73372L97.0064 19.9175V54.285L67.2433 71.4687L37.4802 54.285V19.9175Z" stroke="#851EB6" stroke-width="4"/>
<path d="M36.945 54.6421V19.9585L7.44385 2.81592" stroke="#851EB6" stroke-width="4"/>
<path d="M216.081 123.648L185.901 106.556L156.446 123.778" stroke="#851EB6" stroke-width="4"/>
<path d="M67.4802 71.9175L97.2433 54.7337L127.006 71.9175V106.285L97.2433 123.469L67.4802 106.285V71.9175Z" stroke="#851EB6" stroke-width="4"/>
<path d="M127.48 71.9175L157.243 54.7337L187.006 71.9175V106.285L157.243 123.469L127.48 106.285V71.9175Z" stroke="#851EB6" stroke-width="4"/>
<path d="M7.48018 71.9175L37.2433 54.7337L67.0064 71.9175V106.285L37.2433 123.469L7.48018 106.285V71.9175Z" stroke="#851EB6" stroke-width="4"/>
</svg>
