<svg width="165" height="157" viewBox="0 0 165 157" fill="none" xmlns="http://www.w3.org/2000/svg">
<circle cx="81.7577" cy="78.079" r="11.6281" fill="#851EB6"/>
<path d="M97.1917 96.3879C85.4933 106.249 73.1291 112.923 62.6627 115.796C52.0159 118.719 44.1204 117.542 40.3083 113.019C36.4962 108.497 36.6713 100.516 41.3535 90.5175C45.9564 80.6881 54.6253 69.6312 66.3237 59.7698C78.0221 49.9084 90.3862 43.2351 100.853 40.3615C111.499 37.4384 119.395 38.616 123.207 43.1383C127.019 47.6605 126.844 55.6415 122.162 65.6402C117.559 75.4696 108.89 86.5266 97.1917 96.3879Z" stroke="#851EB6" stroke-width="4"/>
<path d="M78.0513 101.737C62.9354 99.3685 49.7903 94.4074 40.7585 88.3882C31.5711 82.2653 27.2839 75.5314 28.1994 69.688C29.1149 63.8446 35.2561 58.7444 45.8758 55.7247C56.3157 52.7561 70.3482 52.0528 85.4641 54.421C100.58 56.7892 113.725 61.7502 122.757 67.7694C131.944 73.8924 136.231 80.6263 135.316 86.4697C134.401 92.3131 128.259 97.4132 117.64 100.433C107.2 103.402 93.1672 104.105 78.0513 101.737Z" stroke="#851EB6" stroke-width="4"/>
<path d="M106.374 106.771C90.8877 119.826 74.1429 128.259 59.661 131.407C45.0794 134.577 33.3557 132.307 27.079 124.861C20.8023 117.415 20.5493 105.477 26.1403 91.6418C31.693 77.9013 42.8371 62.8245 58.3236 49.7699C73.81 36.7153 90.5548 28.2825 105.037 25.1344C119.618 21.9647 131.342 24.2339 137.619 31.6798C143.895 39.1257 144.148 51.0644 138.557 64.8994C133.005 78.64 121.861 93.7168 106.374 106.771Z" stroke="#851EB6" stroke-width="4"/>
<path d="M77.6617 115.251C57.5678 112.704 40.0209 106.101 27.8942 97.5814C15.6841 89.0035 9.41057 78.8429 10.6351 69.1816C11.8595 59.5204 20.4695 51.2461 34.4336 45.9856C48.3022 40.761 66.9417 38.7438 87.0356 41.2905C107.13 43.8372 124.676 50.4408 136.803 58.9601C149.013 67.538 155.287 77.6986 154.062 87.3599C152.838 97.0211 144.228 105.295 130.264 110.556C116.395 115.781 97.7557 117.798 77.6617 115.251Z" stroke="#851EB6" stroke-width="4"/>
</svg>
