<svg width="786" height="422" viewBox="0 0 786 422" fill="none" xmlns="http://www.w3.org/2000/svg">
<circle cx="166.194" cy="164.614" r="28.7037" fill="#851EB6"/>
<circle cx="166.194" cy="62.3672" r="15.4834" fill="#851EB6"/>
<circle cx="166.194" cy="15.7168" r="15.4834" fill="#851EB6"/>
<circle cx="166.194" cy="266.861" r="15.4834" fill="#851EB6"/>
<circle cx="166.194" cy="313.512" r="15.4834" fill="#851EB6"/>
<circle cx="316.091" cy="164.614" r="15.4834" fill="#851EB6"/>
<circle cx="16.2962" cy="164.614" r="15.4834" fill="#851EB6"/>
<circle cx="166.194" cy="164.614" r="103.247" stroke="#851EB6" stroke-width="4"/>
<circle cx="166.194" cy="164.614" r="147.897" stroke="#851EB6" stroke-width="4"/>
<circle cx="548.117" cy="153.573" r="11.0412" fill="#851EB6"/>
<circle cx="736.286" cy="152.455" r="11.0412" fill="#851EB6"/>
<circle cx="654.295" cy="253.578" r="11.0412" transform="rotate(90 654.295 253.578)" fill="#851EB6"/>
<circle cx="654.295" cy="66.6051" r="11.0412" transform="rotate(90 654.295 66.6051)" fill="#851EB6"/>
<circle cx="548.117" cy="177.891" r="11.0412" fill="#851EB6"/>
<circle cx="736.286" cy="176.774" r="11.0412" fill="#851EB6"/>
<circle cx="629.982" cy="254.096" r="11.0412" transform="rotate(90 629.982 254.096)" fill="#851EB6"/>
<circle cx="629.982" cy="67.1227" r="11.0412" transform="rotate(90 629.982 67.1227)" fill="#851EB6"/>
<path d="M736.553 160.134C736.553 212.14 694.287 254.307 642.139 254.307C589.991 254.307 547.725 212.14 547.725 160.134C547.725 108.129 589.991 65.9619 642.139 65.9619C694.287 65.9619 736.553 108.129 736.553 160.134Z" stroke="#851EB6" stroke-width="4"/>
<path d="M644.63 176.498C642.902 176.498 641.291 176.221 639.798 175.666C638.326 175.09 637.046 174.28 635.958 173.234C634.87 172.189 634.017 170.962 633.398 169.554C632.801 168.146 632.502 166.6 632.502 164.914C632.502 163.229 632.801 161.682 633.398 160.274C634.017 158.866 634.87 157.64 635.958 156.594C637.067 155.549 638.358 154.749 639.83 154.194C641.302 153.618 642.913 153.33 644.662 153.33C646.603 153.33 648.353 153.672 649.91 154.354C651.489 155.016 652.811 155.997 653.878 157.298L650.55 160.37C649.782 159.496 648.929 158.845 647.99 158.418C647.051 157.97 646.027 157.746 644.918 157.746C643.873 157.746 642.913 157.917 642.038 158.258C641.163 158.6 640.406 159.09 639.766 159.73C639.126 160.37 638.625 161.128 638.262 162.002C637.921 162.877 637.75 163.848 637.75 164.914C637.75 165.981 637.921 166.952 638.262 167.826C638.625 168.701 639.126 169.458 639.766 170.098C640.406 170.738 641.163 171.229 642.038 171.57C642.913 171.912 643.873 172.082 644.918 172.082C646.027 172.082 647.051 171.869 647.99 171.442C648.929 170.994 649.782 170.322 650.55 169.426L653.878 172.498C652.811 173.8 651.489 174.792 649.91 175.474C648.353 176.157 646.593 176.498 644.63 176.498Z" fill="black"/>
<path d="M777.203 153.714H782.387V176.114H777.203V153.714ZM767.027 176.114H761.843V153.714H767.027V176.114ZM777.587 166.93H766.643V162.546H777.587V166.93Z" fill="black"/>
<path d="M508.457 153.714H513.641V176.114H508.457V153.714ZM498.281 176.114H493.097V153.714H498.281V176.114ZM508.841 166.93H497.897V162.546H508.841V166.93Z" fill="black"/>
<path d="M646.04 20.3002H651.224V42.7002H646.04V20.3002ZM635.864 42.7002H630.68V20.3002H635.864V42.7002ZM646.424 33.5162H635.48V29.1322H646.424V33.5162Z" fill="black"/>
<path d="M649.27 275.629H654.454V298.029H649.27V275.629ZM639.094 298.029H633.91V275.629H639.094V298.029ZM649.654 288.845H638.71V284.461H649.654V288.845Z" fill="black"/>
<path d="M365.58 409.14H372.04V412.2H365.58V409.14ZM365.86 417H361.9V403H372.88V406.06H365.86V417ZM374.552 417V406.16H378.352V417H374.552ZM376.452 404.96C375.759 404.96 375.199 404.767 374.772 404.38C374.345 403.993 374.132 403.513 374.132 402.94C374.132 402.367 374.345 401.887 374.772 401.5C375.199 401.113 375.759 400.92 376.452 400.92C377.145 400.92 377.705 401.107 378.132 401.48C378.559 401.84 378.772 402.307 378.772 402.88C378.772 403.48 378.559 403.98 378.132 404.38C377.719 404.767 377.159 404.96 376.452 404.96ZM386.122 421.06C385.082 421.06 384.088 420.94 383.142 420.7C382.208 420.46 381.408 420.107 380.742 419.64L382.122 416.98C382.575 417.34 383.135 417.62 383.802 417.82C384.482 418.033 385.142 418.14 385.782 418.14C386.808 418.14 387.548 417.913 388.002 417.46C388.455 417.02 388.682 416.373 388.682 415.52V414.24L388.882 411.2L388.862 408.14V406.16H392.482V415.02C392.482 417.073 391.928 418.593 390.822 419.58C389.715 420.567 388.148 421.06 386.122 421.06ZM385.462 416.44C384.502 416.44 383.615 416.227 382.802 415.8C382.002 415.36 381.355 414.753 380.862 413.98C380.382 413.193 380.142 412.267 380.142 411.2C380.142 410.133 380.382 409.213 380.862 408.44C381.355 407.653 382.002 407.047 382.802 406.62C383.615 406.193 384.502 405.98 385.462 405.98C386.382 405.98 387.168 406.167 387.822 406.54C388.475 406.9 388.968 407.467 389.302 408.24C389.648 409.013 389.822 410 389.822 411.2C389.822 412.4 389.648 413.387 389.302 414.16C388.968 414.933 388.475 415.507 387.822 415.88C387.168 416.253 386.382 416.44 385.462 416.44ZM386.362 413.42C386.815 413.42 387.215 413.327 387.562 413.14C387.922 412.953 388.202 412.693 388.402 412.36C388.615 412.027 388.722 411.64 388.722 411.2C388.722 410.76 388.615 410.373 388.402 410.04C388.202 409.707 387.922 409.453 387.562 409.28C387.215 409.093 386.815 409 386.362 409C385.908 409 385.502 409.093 385.142 409.28C384.782 409.453 384.495 409.707 384.282 410.04C384.082 410.373 383.982 410.76 383.982 411.2C383.982 411.64 384.082 412.027 384.282 412.36C384.495 412.693 384.782 412.953 385.142 413.14C385.502 413.327 385.908 413.42 386.362 413.42ZM400.123 417V414.52L405.363 409.62C405.737 409.273 406.01 408.967 406.183 408.7C406.37 408.433 406.49 408.193 406.543 407.98C406.61 407.753 406.643 407.547 406.643 407.36C406.643 406.907 406.49 406.553 406.183 406.3C405.89 406.047 405.443 405.92 404.843 405.92C404.337 405.92 403.863 406.033 403.423 406.26C402.983 406.487 402.623 406.827 402.343 407.28L399.403 405.64C399.923 404.76 400.677 404.053 401.663 403.52C402.65 402.987 403.83 402.72 405.203 402.72C406.283 402.72 407.23 402.893 408.043 403.24C408.857 403.587 409.49 404.08 409.943 404.72C410.41 405.36 410.643 406.113 410.643 406.98C410.643 407.433 410.583 407.887 410.463 408.34C410.343 408.78 410.11 409.253 409.763 409.76C409.43 410.253 408.93 410.807 408.263 411.42L404.103 415.26L403.443 413.86H411.023V417H400.123ZM414.511 417.18C413.871 417.18 413.331 416.967 412.891 416.54C412.451 416.113 412.231 415.573 412.231 414.92C412.231 414.24 412.451 413.7 412.891 413.3C413.331 412.887 413.871 412.68 414.511 412.68C415.151 412.68 415.691 412.887 416.131 413.3C416.571 413.7 416.791 414.24 416.791 414.92C416.791 415.573 416.571 416.113 416.131 416.54C415.691 416.967 415.151 417.18 414.511 417.18ZM419.724 417V404.42L421.424 406.06H417.124V403H423.684V417H419.724Z" fill="black"/>
</svg>
