<svg width="442" height="512" viewBox="0 0 442 512" fill="none" xmlns="http://www.w3.org/2000/svg">
<circle cx="221" cy="220.539" r="218.062" stroke="#851EB6" stroke-width="4"/>
<circle cx="190.69" cy="71.4747" r="25.6095" stroke="#851EB6" stroke-width="3"/>
<path d="M185.664 73.992V69.992H194.72V73.992H185.664Z" fill="black"/>
<circle cx="310.69" cy="161.475" r="25.6095" stroke="#851EB6" stroke-width="3"/>
<path d="M305.664 163.992V159.992H314.72V163.992H305.664Z" fill="black"/>
<circle cx="72.8551" cy="161.475" r="25.6095" stroke="#851EB6" stroke-width="3"/>
<path d="M67.829 163.992V159.992H76.885V163.992H67.829Z" fill="black"/>
<circle cx="163.581" cy="269.911" r="25.6095" stroke="#851EB6" stroke-width="3"/>
<path d="M158.555 272.429V268.429H167.611V272.429H158.555Z" fill="black"/>
<circle cx="156.891" cy="387.916" r="25.6095" stroke="#851EB6" stroke-width="3"/>
<path d="M151.865 390.433V386.433H160.921V390.433H151.865Z" fill="black"/>
<circle cx="360.109" cy="297.021" r="25.6095" stroke="#851EB6" stroke-width="3"/>
<path d="M355.083 299.538V295.538H364.139V299.538H355.083Z" fill="black"/>
<path d="M143.991 147.692V132.908H148.119V147.692H143.991ZM138.455 142.252V138.348H153.687V142.252H138.455Z" fill="black"/>
<path d="M218.52 324.213V309.429H222.648V324.213H218.52ZM212.984 318.773V314.869H228.216V318.773H212.984Z" fill="black"/>
<path d="M271.101 108.692V93.908H275.229V108.692H271.101ZM265.565 103.252V99.348H280.797V103.252H265.565Z" fill="black"/>
<path d="M70.375 269.994V255.21H74.503V269.994H70.375ZM64.839 264.554V260.65H80.071V264.554H64.839Z" fill="black"/>
<path d="M384.739 228.231V213.447H388.867V228.231H384.739ZM379.203 222.791V218.887H394.435V222.791H379.203Z" fill="black"/>
<path d="M254.454 228.231V213.447H258.582V228.231H254.454ZM248.918 222.791V218.887H264.15V222.791H248.918Z" fill="black"/>
<path d="M143.991 208.731V193.947H148.119V208.731H143.991ZM138.455 203.291V199.387H153.687V203.291H138.455Z" fill="black"/>
<path d="M281.101 376.108V361.324H285.229V376.108H281.101ZM275.565 370.668V366.764H290.797V370.668H275.565Z" fill="black"/>
<path d="M193.58 498.91H200.04V501.97H193.58V498.91ZM193.86 506.77H189.9V492.77H200.88V495.83H193.86V506.77ZM202.552 506.77V495.93H206.352V506.77H202.552ZM204.452 494.73C203.759 494.73 203.199 494.536 202.772 494.15C202.345 493.763 202.132 493.283 202.132 492.71C202.132 492.136 202.345 491.656 202.772 491.27C203.199 490.883 203.759 490.69 204.452 490.69C205.145 490.69 205.705 490.876 206.132 491.25C206.559 491.61 206.772 492.076 206.772 492.65C206.772 493.25 206.559 493.75 206.132 494.15C205.719 494.536 205.159 494.73 204.452 494.73ZM214.122 510.83C213.082 510.83 212.088 510.71 211.142 510.47C210.208 510.23 209.408 509.876 208.742 509.41L210.122 506.75C210.575 507.11 211.135 507.39 211.802 507.59C212.482 507.803 213.142 507.91 213.782 507.91C214.808 507.91 215.548 507.683 216.002 507.23C216.455 506.79 216.682 506.143 216.682 505.29V504.01L216.882 500.97L216.862 497.91V495.93H220.482V504.79C220.482 506.843 219.928 508.363 218.822 509.35C217.715 510.336 216.148 510.83 214.122 510.83ZM213.462 506.21C212.502 506.21 211.615 505.996 210.802 505.57C210.002 505.13 209.355 504.523 208.862 503.75C208.382 502.963 208.142 502.036 208.142 500.97C208.142 499.903 208.382 498.983 208.862 498.21C209.355 497.423 210.002 496.816 210.802 496.39C211.615 495.963 212.502 495.75 213.462 495.75C214.382 495.75 215.168 495.936 215.822 496.31C216.475 496.67 216.968 497.236 217.302 498.01C217.648 498.783 217.822 499.77 217.822 500.97C217.822 502.17 217.648 503.156 217.302 503.93C216.968 504.703 216.475 505.276 215.822 505.65C215.168 506.023 214.382 506.21 213.462 506.21ZM214.362 503.19C214.815 503.19 215.215 503.096 215.562 502.91C215.922 502.723 216.202 502.463 216.402 502.13C216.615 501.796 216.722 501.41 216.722 500.97C216.722 500.53 216.615 500.143 216.402 499.81C216.202 499.476 215.922 499.223 215.562 499.05C215.215 498.863 214.815 498.77 214.362 498.77C213.908 498.77 213.502 498.863 213.142 499.05C212.782 499.223 212.495 499.476 212.282 499.81C212.082 500.143 211.982 500.53 211.982 500.97C211.982 501.41 212.082 501.796 212.282 502.13C212.495 502.463 212.782 502.723 213.142 502.91C213.502 503.096 213.908 503.19 214.362 503.19ZM230.243 506.77V494.19L231.943 495.83H227.643V492.77H234.203V506.77H230.243ZM238.449 506.95C237.809 506.95 237.269 506.736 236.829 506.31C236.389 505.883 236.169 505.343 236.169 504.69C236.169 504.01 236.389 503.47 236.829 503.07C237.269 502.656 237.809 502.45 238.449 502.45C239.089 502.45 239.629 502.656 240.069 503.07C240.509 503.47 240.729 504.01 240.729 504.69C240.729 505.343 240.509 505.883 240.069 506.31C239.629 506.736 239.089 506.95 238.449 506.95ZM242.088 506.77V504.29L247.328 499.39C247.702 499.043 247.975 498.736 248.148 498.47C248.335 498.203 248.455 497.963 248.508 497.75C248.575 497.523 248.608 497.316 248.608 497.13C248.608 496.676 248.455 496.323 248.148 496.07C247.855 495.816 247.408 495.69 246.808 495.69C246.302 495.69 245.828 495.803 245.388 496.03C244.948 496.256 244.588 496.596 244.308 497.05L241.368 495.41C241.888 494.53 242.642 493.823 243.628 493.29C244.615 492.756 245.795 492.49 247.168 492.49C248.248 492.49 249.195 492.663 250.008 493.01C250.822 493.356 251.455 493.85 251.908 494.49C252.375 495.13 252.608 495.883 252.608 496.75C252.608 497.203 252.548 497.656 252.428 498.11C252.308 498.55 252.075 499.023 251.728 499.53C251.395 500.023 250.895 500.576 250.228 501.19L246.068 505.03L245.408 503.63H252.988V506.77H242.088Z" fill="black"/>
</svg>
