<svg width="347" height="400" viewBox="0 0 347 400" fill="none" xmlns="http://www.w3.org/2000/svg">
<circle cx="189" cy="158.897" r="20.8251" fill="white" stroke="#851EB6" stroke-width="3"/>
<circle cx="152" cy="158.897" r="20.8251" fill="white" stroke="#851EB6" stroke-width="3"/>
<circle cx="171" cy="134.897" r="20.8251" fill="white" stroke="#FCFF6A" stroke-width="3"/>
<circle cx="156" cy="183.897" r="20.8251" fill="white" stroke="#FCFF6A" stroke-width="3"/>
<circle cx="186" cy="182.897" r="20.8251" fill="white" stroke="#FCFF6A" stroke-width="3"/>
<circle cx="173" cy="165.897" r="20.8251" fill="white" stroke="#851EB6" stroke-width="3"/>
<path d="M235.903 161.897C235.903 206.404 228.702 246.605 217.131 275.606C211.343 290.112 204.502 301.717 197.007 309.663C189.516 317.604 181.512 321.754 173.325 321.754C165.138 321.754 157.134 317.604 149.643 309.663C142.149 301.717 135.307 290.112 129.519 275.606C117.949 246.605 110.747 206.404 110.747 161.897C110.747 117.39 117.949 77.1889 129.519 48.1881C135.307 33.682 142.149 22.0773 149.643 14.1319C157.134 6.19061 165.138 2.04004 173.325 2.04004C181.512 2.04004 189.516 6.19061 197.007 14.1319C204.502 22.0773 211.343 33.682 217.131 48.1881C228.702 77.1889 235.903 117.39 235.903 161.897Z" stroke="#851EB6" stroke-width="4"/>
<path d="M203.327 216.814C164.269 238.152 125.536 251.107 94.5381 254.856C79.0331 256.732 65.569 256.291 55.0031 253.523C44.4426 250.757 36.963 245.723 33.0378 238.538C29.1125 231.353 28.9179 222.34 32.2956 211.958C35.675 201.572 42.579 190.004 52.5345 177.97C72.4377 153.912 104.265 128.319 143.323 106.981C182.382 85.6426 221.114 72.6884 252.112 68.9387C267.617 67.0631 281.081 67.5035 291.647 70.2715C302.208 73.0382 309.687 78.0719 313.612 85.2568C317.538 92.4418 317.732 101.455 314.355 111.837C310.975 122.223 304.071 133.791 294.116 145.825C274.213 169.883 242.385 195.476 203.327 216.814Z" stroke="#851EB6" stroke-width="4"/>
<path d="M203.327 106.981C164.269 85.6426 125.536 72.6884 94.5381 68.9387C79.0331 67.0631 65.569 67.5035 55.0031 70.2715C44.4426 73.0382 36.963 78.0719 33.0378 85.2568C29.1125 92.4418 28.9179 101.455 32.2956 111.837C35.675 122.223 42.579 133.791 52.5345 145.825C72.4377 169.883 104.265 195.476 143.323 216.814C182.382 238.152 221.114 251.107 252.112 254.856C267.617 256.732 281.081 256.291 291.647 253.523C302.208 250.757 309.687 245.723 313.612 238.538C317.538 231.353 317.732 222.34 314.355 211.958C310.975 201.572 304.071 190.004 294.116 177.97C274.213 153.912 242.385 128.319 203.327 106.981Z" stroke="#851EB6" stroke-width="4"/>
<circle cx="37.8643" cy="124.436" r="19.1357" fill="#851EB6"/>
<path d="M33.456 126.868V123.368H41.38V126.868H33.456Z" fill="white"/>
<circle cx="195.325" cy="311.01" r="19.1357" fill="#851EB6"/>
<path d="M190.917 313.442V309.942H198.841V313.442H190.917Z" fill="white"/>
<circle cx="300.162" cy="134.897" r="19.1357" fill="#851EB6"/>
<path d="M295.754 137.329V133.829H303.678V137.329H295.754Z" fill="white"/>
<path d="M145.08 386.91H151.54V389.97H145.08V386.91ZM145.36 394.77H141.4V380.77H152.38V383.83H145.36V394.77ZM154.052 394.77V383.93H157.852V394.77H154.052ZM155.952 382.73C155.259 382.73 154.699 382.536 154.272 382.15C153.845 381.763 153.632 381.283 153.632 380.71C153.632 380.136 153.845 379.656 154.272 379.27C154.699 378.883 155.259 378.69 155.952 378.69C156.645 378.69 157.205 378.876 157.632 379.25C158.059 379.61 158.272 380.076 158.272 380.65C158.272 381.25 158.059 381.75 157.632 382.15C157.219 382.536 156.659 382.73 155.952 382.73ZM165.622 398.83C164.582 398.83 163.588 398.71 162.642 398.47C161.708 398.23 160.908 397.876 160.242 397.41L161.622 394.75C162.075 395.11 162.635 395.39 163.302 395.59C163.982 395.803 164.642 395.91 165.282 395.91C166.308 395.91 167.048 395.683 167.502 395.23C167.955 394.79 168.182 394.143 168.182 393.29V392.01L168.382 388.97L168.362 385.91V383.93H171.982V392.79C171.982 394.843 171.428 396.363 170.322 397.35C169.215 398.336 167.648 398.83 165.622 398.83ZM164.962 394.21C164.002 394.21 163.115 393.996 162.302 393.57C161.502 393.13 160.855 392.523 160.362 391.75C159.882 390.963 159.642 390.036 159.642 388.97C159.642 387.903 159.882 386.983 160.362 386.21C160.855 385.423 161.502 384.816 162.302 384.39C163.115 383.963 164.002 383.75 164.962 383.75C165.882 383.75 166.668 383.936 167.322 384.31C167.975 384.67 168.468 385.236 168.802 386.01C169.148 386.783 169.322 387.77 169.322 388.97C169.322 390.17 169.148 391.156 168.802 391.93C168.468 392.703 167.975 393.276 167.322 393.65C166.668 394.023 165.882 394.21 164.962 394.21ZM165.862 391.19C166.315 391.19 166.715 391.096 167.062 390.91C167.422 390.723 167.702 390.463 167.902 390.13C168.115 389.796 168.222 389.41 168.222 388.97C168.222 388.53 168.115 388.143 167.902 387.81C167.702 387.476 167.422 387.223 167.062 387.05C166.715 386.863 166.315 386.77 165.862 386.77C165.408 386.77 165.002 386.863 164.642 387.05C164.282 387.223 163.995 387.476 163.782 387.81C163.582 388.143 163.482 388.53 163.482 388.97C163.482 389.41 163.582 389.796 163.782 390.13C163.995 390.463 164.282 390.723 164.642 390.91C165.002 391.096 165.408 391.19 165.862 391.19ZM181.743 394.77V382.19L183.443 383.83H179.143V380.77H185.703V394.77H181.743ZM189.949 394.95C189.309 394.95 188.769 394.736 188.329 394.31C187.889 393.883 187.669 393.343 187.669 392.69C187.669 392.01 187.889 391.47 188.329 391.07C188.769 390.656 189.309 390.45 189.949 390.45C190.589 390.45 191.129 390.656 191.569 391.07C192.009 391.47 192.229 392.01 192.229 392.69C192.229 393.343 192.009 393.883 191.569 394.31C191.129 394.736 190.589 394.95 189.949 394.95ZM198.348 395.05C197.375 395.05 196.402 394.93 195.428 394.69C194.468 394.45 193.628 394.11 192.908 393.67L194.348 390.69C194.908 391.063 195.528 391.35 196.208 391.55C196.902 391.75 197.575 391.85 198.228 391.85C198.908 391.85 199.448 391.723 199.848 391.47C200.248 391.216 200.448 390.856 200.448 390.39C200.448 389.976 200.282 389.65 199.948 389.41C199.615 389.156 199.068 389.03 198.308 389.03H196.648V386.53L200.408 382.47L200.788 383.83H193.628V380.77H203.748V383.25L199.988 387.31L198.048 386.21H199.128C200.875 386.21 202.195 386.603 203.088 387.39C203.995 388.163 204.448 389.163 204.448 390.39C204.448 391.19 204.228 391.943 203.788 392.65C203.362 393.356 202.702 393.936 201.808 394.39C200.915 394.83 199.762 395.05 198.348 395.05Z" fill="black"/>
</svg>
