<svg width="986" height="502" viewBox="0 0 986 502" fill="none" xmlns="http://www.w3.org/2000/svg">
<path d="M463.196 124.897H77.1963V271.606H463.196L768.196 341.77V49.9487L463.196 124.897Z" stroke="#851EB6" stroke-width="4"/>
<path d="M182.689 178.817H77.4421V217.089H182.689C196.207 201.106 196.84 192.674 182.689 178.817Z" stroke="#851EB6" stroke-width="4"/>
<path d="M77.4421 187.953H146.81V207.886H77.4421" stroke="#851EB6" stroke-width="3"/>
<path d="M148.404 195.926H156.378" stroke="#851EB6" stroke-width="3"/>
<path d="M173.404 195.926H181.378" stroke="#851EB6" stroke-width="3"/>
<path d="M198.404 195.926H206.378" stroke="#851EB6" stroke-width="3"/>
<path d="M223.404 195.926H231.378" stroke="#851EB6" stroke-width="3"/>
<path d="M248.404 195.926H256.378" stroke="#851EB6" stroke-width="3"/>
<path d="M273.404 195.926H281.378" stroke="#851EB6" stroke-width="3"/>
<path d="M298.404 195.926H306.378" stroke="#851EB6" stroke-width="3"/>
<path d="M323.404 195.926H331.378" stroke="#851EB6" stroke-width="3"/>
<path d="M348.404 195.926H356.378" stroke="#851EB6" stroke-width="3"/>
<path d="M373.404 195.926H381.378" stroke="#851EB6" stroke-width="3"/>
<path d="M398.404 195.926H406.378" stroke="#851EB6" stroke-width="3"/>
<path d="M423.404 195.926H431.378" stroke="#851EB6" stroke-width="3"/>
<path d="M447.825 195.833L455.486 193.622" stroke="#851EB6" stroke-width="3"/>
<path d="M472.247 188.74L479.907 186.529" stroke="#851EB6" stroke-width="3"/>
<path d="M496.668 181.646L504.328 179.435" stroke="#851EB6" stroke-width="3"/>
<path d="M521.089 174.553L528.75 172.342" stroke="#851EB6" stroke-width="3"/>
<path d="M545.51 167.46L553.171 165.249" stroke="#851EB6" stroke-width="3"/>
<path d="M569.931 160.367L577.592 158.156" stroke="#851EB6" stroke-width="3"/>
<path d="M594.352 153.273L602.013 151.062" stroke="#851EB6" stroke-width="3"/>
<path d="M618.773 146.18L626.434 143.969" stroke="#851EB6" stroke-width="3"/>
<path d="M643.195 139.087L650.855 136.876" stroke="#851EB6" stroke-width="3"/>
<path d="M667.616 131.994L675.276 129.782" stroke="#851EB6" stroke-width="3"/>
<path d="M692.037 124.9L699.698 122.689" stroke="#851EB6" stroke-width="3"/>
<path d="M716.458 117.807L724.119 115.596" stroke="#851EB6" stroke-width="3"/>
<path d="M148.404 202.926H156.378" stroke="#851EB6" stroke-width="3"/>
<path d="M173.404 202.926H181.378" stroke="#851EB6" stroke-width="3"/>
<path d="M198.404 202.926H206.378" stroke="#851EB6" stroke-width="3"/>
<path d="M223.404 202.926H231.378" stroke="#851EB6" stroke-width="3"/>
<path d="M248.404 202.926H256.378" stroke="#851EB6" stroke-width="3"/>
<path d="M273.404 202.926H281.378" stroke="#851EB6" stroke-width="3"/>
<path d="M298.404 202.926H306.378" stroke="#851EB6" stroke-width="3"/>
<path d="M323.404 202.926H331.378" stroke="#851EB6" stroke-width="3"/>
<path d="M348.404 202.926H356.378" stroke="#851EB6" stroke-width="3"/>
<path d="M373.404 202.926H381.378" stroke="#851EB6" stroke-width="3"/>
<path d="M398.404 202.926H406.378" stroke="#851EB6" stroke-width="3"/>
<path d="M423.404 202.926H431.378" stroke="#851EB6" stroke-width="3"/>
<path d="M449.767 202.559L457.427 200.347" stroke="#851EB6" stroke-width="3"/>
<path d="M474.188 195.465L481.848 193.254" stroke="#851EB6" stroke-width="3"/>
<path d="M498.609 188.372L506.27 186.161" stroke="#851EB6" stroke-width="3"/>
<path d="M523.03 181.279L530.691 179.068" stroke="#851EB6" stroke-width="3"/>
<path d="M547.451 174.186L555.112 171.974" stroke="#851EB6" stroke-width="3"/>
<path d="M571.872 167.092L579.533 164.881" stroke="#851EB6" stroke-width="3"/>
<path d="M596.293 159.999L603.954 157.788" stroke="#851EB6" stroke-width="3"/>
<path d="M620.715 152.906L628.375 150.695" stroke="#851EB6" stroke-width="3"/>
<path d="M645.136 145.812L652.796 143.601" stroke="#851EB6" stroke-width="3"/>
<path d="M669.557 138.719L677.218 136.508" stroke="#851EB6" stroke-width="3"/>
<path d="M693.978 131.626L701.639 129.415" stroke="#851EB6" stroke-width="3"/>
<path d="M718.399 124.533L726.06 122.322" stroke="#851EB6" stroke-width="3"/>
<path d="M160.404 195.926H168.378" stroke="#851EB6" stroke-width="3"/>
<path d="M185.404 195.926H193.378" stroke="#851EB6" stroke-width="3"/>
<path d="M210.404 195.926H218.378" stroke="#851EB6" stroke-width="3"/>
<path d="M235.404 195.926H243.378" stroke="#851EB6" stroke-width="3"/>
<path d="M260.404 195.926H268.378" stroke="#851EB6" stroke-width="3"/>
<path d="M285.404 195.926H293.378" stroke="#851EB6" stroke-width="3"/>
<path d="M310.404 195.926H318.378" stroke="#851EB6" stroke-width="3"/>
<path d="M335.404 195.926H343.378" stroke="#851EB6" stroke-width="3"/>
<path d="M360.404 195.926H368.378" stroke="#851EB6" stroke-width="3"/>
<path d="M385.404 195.926H393.378" stroke="#851EB6" stroke-width="3"/>
<path d="M410.404 195.926H418.378" stroke="#851EB6" stroke-width="3"/>
<path d="M435.404 195.926H443.378" stroke="#851EB6" stroke-width="3"/>
<path d="M459.355 192.505L467.015 190.294" stroke="#851EB6" stroke-width="3"/>
<path d="M483.776 185.412L491.437 183.201" stroke="#851EB6" stroke-width="3"/>
<path d="M508.197 178.319L515.858 176.108" stroke="#851EB6" stroke-width="3"/>
<path d="M532.618 171.226L540.279 169.014" stroke="#851EB6" stroke-width="3"/>
<path d="M557.039 164.132L564.7 161.921" stroke="#851EB6" stroke-width="3"/>
<path d="M581.46 157.039L589.121 154.828" stroke="#851EB6" stroke-width="3"/>
<path d="M605.882 149.946L613.542 147.735" stroke="#851EB6" stroke-width="3"/>
<path d="M630.303 142.853L637.963 140.641" stroke="#851EB6" stroke-width="3"/>
<path d="M654.724 135.759L662.385 133.548" stroke="#851EB6" stroke-width="3"/>
<path d="M679.145 128.666L686.806 126.455" stroke="#851EB6" stroke-width="3"/>
<path d="M703.566 121.573L711.227 119.362" stroke="#851EB6" stroke-width="3"/>
<path d="M727.987 114.479L735.648 112.268" stroke="#851EB6" stroke-width="3"/>
<path d="M739.987 110.479L747.648 108.268" stroke="#851EB6" stroke-width="3"/>
<path d="M749.987 106.479L757.648 104.268" stroke="#851EB6" stroke-width="3"/>
<path d="M759.987 103.479L767.648 101.268" stroke="#851EB6" stroke-width="3"/>
<path d="M160.404 202.926H168.378" stroke="#851EB6" stroke-width="3"/>
<path d="M185.404 202.926H193.378" stroke="#851EB6" stroke-width="3"/>
<path d="M210.404 202.926H218.378" stroke="#851EB6" stroke-width="3"/>
<path d="M235.404 202.926H243.378" stroke="#851EB6" stroke-width="3"/>
<path d="M260.404 202.926H268.378" stroke="#851EB6" stroke-width="3"/>
<path d="M285.404 202.926H293.378" stroke="#851EB6" stroke-width="3"/>
<path d="M310.404 202.926H318.378" stroke="#851EB6" stroke-width="3"/>
<path d="M335.404 202.926H343.378" stroke="#851EB6" stroke-width="3"/>
<path d="M360.404 202.926H368.378" stroke="#851EB6" stroke-width="3"/>
<path d="M385.404 202.926H393.378" stroke="#851EB6" stroke-width="3"/>
<path d="M410.404 202.926H418.378" stroke="#851EB6" stroke-width="3"/>
<path d="M435.404 202.926H443.378" stroke="#851EB6" stroke-width="3"/>
<path d="M461.296 199.23L468.957 197.019" stroke="#851EB6" stroke-width="3"/>
<path d="M485.717 192.137L493.378 189.926" stroke="#851EB6" stroke-width="3"/>
<path d="M510.138 185.044L517.799 182.833" stroke="#851EB6" stroke-width="3"/>
<path d="M534.559 177.951L542.22 175.74" stroke="#851EB6" stroke-width="3"/>
<path d="M558.98 170.857L566.641 168.646" stroke="#851EB6" stroke-width="3"/>
<path d="M583.402 163.764L591.062 161.553" stroke="#851EB6" stroke-width="3"/>
<path d="M607.823 156.671L615.483 154.46" stroke="#851EB6" stroke-width="3"/>
<path d="M632.244 149.578L639.905 147.366" stroke="#851EB6" stroke-width="3"/>
<path d="M656.665 142.484L664.326 140.273" stroke="#851EB6" stroke-width="3"/>
<path d="M681.086 135.391L688.747 133.18" stroke="#851EB6" stroke-width="3"/>
<path d="M705.507 128.298L713.168 126.087" stroke="#851EB6" stroke-width="3"/>
<path d="M729.928 119.205L737.589 116.993" stroke="#851EB6" stroke-width="3"/>
<path d="M741.928 114.205L749.589 111.993" stroke="#851EB6" stroke-width="3"/>
<path d="M751.928 110.205L759.589 107.993" stroke="#851EB6" stroke-width="3"/>
<path d="M761.928 107.205L769.589 104.993" stroke="#851EB6" stroke-width="3"/>
<rect x="332.479" y="81.625" width="123.317" height="31.8687" stroke="#851EB6" stroke-width="3"/>
<rect x="332.479" y="282.625" width="123.317" height="31.8687" stroke="#851EB6" stroke-width="3"/>
<rect x="257.878" y="293.625" width="32.9182" height="31.8687" stroke="#851EB6" stroke-width="3"/>
<rect x="249.277" y="78.625" width="32.9182" height="31.8687" stroke="#851EB6" stroke-width="3"/>
<path d="M248.07 165.628H257.638V191.94" stroke="#851EB6" stroke-width="2"/>
<path d="M248.07 233.94H257.638V207.628" stroke="#851EB6" stroke-width="2"/>
<path d="M308.07 165.628H317.638V191.94" stroke="#851EB6" stroke-width="2"/>
<path d="M308.07 233.94H317.638V207.628" stroke="#851EB6" stroke-width="2"/>
<path d="M77.0435 198.116H127.696" stroke="#851EB6" stroke-width="2"/>
<path d="M77.8408 201.108C78.673 202.338 79.149 203.024 81.8276 203.501C85.6903 198.387 88.0043 196.124 92.5914 193.933C94.146 192.434 95.0235 192.504 96.5781 193.933C98.9649 197.699 100.542 199.799 104.153 203.501C105.674 204.588 106.44 204.545 107.696 203.501C109.162 199.164 110.648 197.109 114.119 193.933C115.228 192.829 115.933 192.908 117.309 193.933C121.349 197.632 122.908 199.731 125.282 203.501" stroke="#851EB6" stroke-width="2"/>
<path d="M774.882 244.386C774.343 244.508 774.006 245.043 774.128 245.582L776.117 254.359C776.239 254.898 776.775 255.236 777.314 255.113C777.852 254.991 778.19 254.456 778.068 253.917L776.299 246.115L784.101 244.347C784.64 244.225 784.978 243.689 784.856 243.15C784.734 242.612 784.198 242.274 783.659 242.396L774.882 244.386ZM811.78 268.483L812.768 268.33L812.698 267.88L812.313 267.637L811.78 268.483ZM774.57 246.207L811.247 269.329L812.313 267.637L775.636 244.515L774.57 246.207ZM810.792 268.637L818.708 319.665L820.684 319.359L812.768 268.33L810.792 268.637Z" fill="black"/>
<path d="M402.595 300.186C402.049 300.273 401.677 300.785 401.764 301.331L403.176 310.219C403.263 310.765 403.775 311.136 404.321 311.05C404.866 310.963 405.238 310.451 405.151 309.905L403.896 302.004L411.797 300.749C412.342 300.662 412.714 300.15 412.628 299.605C412.541 299.059 412.029 298.687 411.483 298.774L402.595 300.186ZM452.186 337.053L453.076 336.598L452.967 336.385L452.773 336.244L452.186 337.053ZM470.524 372.933L469.634 373.388L471.174 376.401L471.519 373.035L470.524 372.933ZM498.431 101.044L499.425 101.147L499.53 100.124L498.505 100.047L498.431 101.044ZM422.829 94.7052C422.411 95.0657 422.364 95.6971 422.724 96.1155L428.598 102.935C428.959 103.353 429.59 103.4 430.008 103.04C430.427 102.679 430.474 102.048 430.113 101.629L424.892 95.5679L430.954 90.3468C431.372 89.9864 431.419 89.3549 431.059 88.9365C430.698 88.518 430.067 88.471 429.648 88.8315L422.829 94.7052ZM402.164 301.983L451.598 337.862L452.773 336.244L403.339 300.364L402.164 301.983ZM451.295 337.508L469.634 373.388L471.415 372.478L453.076 336.598L451.295 337.508ZM471.519 373.035L499.425 101.147L497.436 100.942L469.529 372.831L471.519 373.035ZM498.505 100.047L423.556 94.4657L423.408 96.4601L498.356 102.042L498.505 100.047Z" fill="black"/>
<path d="M244.801 180.971C245.348 180.896 245.73 180.391 245.655 179.844L244.432 170.928C244.357 170.38 243.852 169.998 243.305 170.073C242.758 170.148 242.375 170.652 242.45 171.2L243.538 179.125L235.612 180.213C235.065 180.288 234.682 180.792 234.758 181.34C234.833 181.887 235.337 182.269 235.884 182.194L244.801 180.971ZM224.696 164.831L223.78 165.23L223.884 165.47L224.092 165.627L224.696 164.831ZM194.433 95.4634L195.071 94.6935L193.517 95.8633L194.433 95.4634ZM282.936 168.817L282.298 169.587L282.448 169.711L282.633 169.77L282.936 168.817ZM300.937 175.287C301.427 175.033 301.619 174.43 301.366 173.939L297.231 165.945C296.977 165.455 296.374 165.263 295.883 165.516C295.393 165.77 295.201 166.374 295.455 166.864L299.13 173.97L292.024 177.645C291.534 177.899 291.342 178.502 291.595 178.993C291.849 179.483 292.452 179.675 292.943 179.422L300.937 175.287ZM245.269 179.183L225.301 164.034L224.092 165.627L244.06 180.777L245.269 179.183ZM225.613 164.431L195.35 95.0635L193.517 95.8633L223.78 165.23L225.613 164.431ZM193.795 96.2333L282.298 169.587L283.574 168.047L195.071 94.6935L193.795 96.2333ZM282.633 169.77L300.174 175.352L300.781 173.446L283.24 167.864L282.633 169.77Z" fill="black"/>
<path d="M273.501 86.2189C273.24 86.7052 273.422 87.3117 273.908 87.5735L281.832 91.8403C282.318 92.1021 282.925 91.9202 283.187 91.4339C283.449 90.9476 283.267 90.3412 282.78 90.0793L275.737 86.2866L279.529 79.2428C279.791 78.7565 279.609 78.1501 279.123 77.8883C278.637 77.6264 278.03 77.8084 277.768 78.2946L273.501 86.2189ZM298.302 79.5168L298.589 80.4746L298.984 80.3563L299.18 79.9945L298.302 79.5168ZM323.019 34.0693L324.015 34.162L322.14 33.5916L323.019 34.0693ZM298.302 299.579L298.856 300.411L299.253 300.146L299.297 299.672L298.302 299.579ZM278.185 312.14C278.077 312.682 278.428 313.208 278.97 313.317L287.795 315.082C288.337 315.19 288.863 314.839 288.972 314.297C289.08 313.756 288.729 313.229 288.187 313.121L280.343 311.552L281.912 303.707C282.02 303.166 281.669 302.639 281.127 302.53C280.585 302.422 280.059 302.773 279.95 303.315L278.185 312.14ZM274.669 87.6509L298.589 80.4746L298.014 78.5589L274.095 85.7352L274.669 87.6509ZM299.18 79.9945L323.897 34.5471L322.14 33.5916L297.423 79.039L299.18 79.9945ZM322.023 33.9766L297.306 299.486L299.297 299.672L324.015 34.162L322.023 33.9766ZM297.747 298.747L278.611 311.504L279.721 313.168L298.856 300.411L297.747 298.747Z" fill="black"/>
<path d="M141.052 210.886C140.619 210.544 139.99 210.617 139.647 211.05L134.062 218.108C133.72 218.541 133.793 219.17 134.226 219.512C134.659 219.855 135.288 219.782 135.631 219.349L140.595 213.075L146.868 218.039C147.301 218.382 147.93 218.309 148.273 217.876C148.616 217.443 148.542 216.814 148.109 216.471L141.052 210.886ZM139.438 211.786L149.006 293.911L150.992 293.679L141.424 211.555L139.438 211.786Z" fill="black"/>
<path d="M127.288 178.501C127.792 178.726 128.384 178.5 128.609 177.996L132.285 169.781C132.511 169.277 132.285 168.686 131.781 168.46C131.276 168.234 130.685 168.46 130.459 168.964L127.192 176.267L119.89 172.999C119.386 172.774 118.794 172.999 118.568 173.504C118.343 174.008 118.569 174.599 119.073 174.825L127.288 178.501ZM128.631 177.231L99.1069 99.8904L97.2384 100.604L126.762 177.945L128.631 177.231Z" fill="black"/>
<path d="M115.051 209.118C114.85 208.603 114.27 208.349 113.756 208.549L105.371 211.818C104.856 212.019 104.601 212.598 104.802 213.113C105.003 213.628 105.582 213.882 106.097 213.682L113.551 210.776L116.456 218.23C116.657 218.744 117.237 218.999 117.751 218.798C118.266 218.597 118.52 218.018 118.32 217.503L115.051 209.118ZM113.203 209.079L70.1481 307.15L71.9794 307.954L115.035 209.883L113.203 209.079Z" fill="black"/>
<path d="M422.625 403.54V389.54H428.745C430.265 389.54 431.599 389.833 432.745 390.42C433.892 391.006 434.785 391.82 435.425 392.86C436.065 393.9 436.385 395.126 436.385 396.54C436.385 397.94 436.065 399.166 435.425 400.22C434.785 401.26 433.892 402.073 432.745 402.66C431.599 403.246 430.265 403.54 428.745 403.54H422.625ZM425.225 401.34H428.625C429.679 401.34 430.585 401.14 431.345 400.74C432.119 400.34 432.712 399.78 433.125 399.06C433.552 398.34 433.765 397.5 433.765 396.54C433.765 395.566 433.552 394.726 433.125 394.02C432.712 393.3 432.119 392.74 431.345 392.34C430.585 391.94 429.679 391.74 428.625 391.74H425.225V401.34ZM443.929 403.68C442.742 403.68 441.702 403.446 440.809 402.98C439.929 402.5 439.242 401.846 438.749 401.02C438.269 400.193 438.029 399.253 438.029 398.2C438.029 397.133 438.262 396.193 438.729 395.38C439.209 394.553 439.862 393.906 440.689 393.44C441.529 392.973 442.482 392.74 443.549 392.74C444.589 392.74 445.515 392.966 446.329 393.42C447.142 393.873 447.782 394.513 448.249 395.34C448.715 396.166 448.949 397.14 448.949 398.26C448.949 398.366 448.942 398.486 448.929 398.62C448.929 398.753 448.922 398.88 448.909 399H440.009V397.34H447.589L446.609 397.86C446.622 397.246 446.495 396.706 446.229 396.24C445.962 395.773 445.595 395.406 445.129 395.14C444.675 394.873 444.149 394.74 443.549 394.74C442.935 394.74 442.395 394.873 441.929 395.14C441.475 395.406 441.115 395.78 440.849 396.26C440.595 396.726 440.469 397.28 440.469 397.92V398.32C440.469 398.96 440.615 399.526 440.909 400.02C441.202 400.513 441.615 400.893 442.149 401.16C442.682 401.426 443.295 401.56 443.989 401.56C444.589 401.56 445.129 401.466 445.609 401.28C446.089 401.093 446.515 400.8 446.889 400.4L448.229 401.94C447.749 402.5 447.142 402.933 446.409 403.24C445.689 403.533 444.862 403.68 443.929 403.68ZM451.69 403.54V392.26C451.69 391.14 452.017 390.246 452.67 389.58C453.337 388.9 454.284 388.56 455.51 388.56C455.95 388.56 456.364 388.606 456.75 388.7C457.15 388.793 457.484 388.94 457.75 389.14L457.07 391.02C456.884 390.873 456.67 390.766 456.43 390.7C456.19 390.62 455.944 390.58 455.69 390.58C455.17 390.58 454.777 390.726 454.51 391.02C454.244 391.3 454.11 391.726 454.11 392.3V393.5L454.19 394.62V403.54H451.69ZM449.93 394.94V392.94H457.05V394.94H449.93ZM458.81 403.54V388.7H461.31V403.54H458.81ZM469.612 403.68C468.426 403.68 467.386 403.446 466.492 402.98C465.612 402.5 464.926 401.846 464.432 401.02C463.952 400.193 463.712 399.253 463.712 398.2C463.712 397.133 463.946 396.193 464.412 395.38C464.892 394.553 465.546 393.906 466.372 393.44C467.212 392.973 468.166 392.74 469.232 392.74C470.272 392.74 471.199 392.966 472.012 393.42C472.826 393.873 473.466 394.513 473.932 395.34C474.399 396.166 474.632 397.14 474.632 398.26C474.632 398.366 474.626 398.486 474.612 398.62C474.612 398.753 474.606 398.88 474.592 399H465.692V397.34H473.272L472.292 397.86C472.306 397.246 472.179 396.706 471.912 396.24C471.646 395.773 471.279 395.406 470.812 395.14C470.359 394.873 469.832 394.74 469.232 394.74C468.619 394.74 468.079 394.873 467.612 395.14C467.159 395.406 466.799 395.78 466.532 396.26C466.279 396.726 466.152 397.28 466.152 397.92V398.32C466.152 398.96 466.299 399.526 466.592 400.02C466.886 400.513 467.299 400.893 467.832 401.16C468.366 401.426 468.979 401.56 469.672 401.56C470.272 401.56 470.812 401.466 471.292 401.28C471.772 401.093 472.199 400.8 472.572 400.4L473.912 401.94C473.432 402.5 472.826 402.933 472.092 403.24C471.372 403.533 470.546 403.68 469.612 403.68ZM481.934 403.68C480.814 403.68 479.814 403.446 478.934 402.98C478.067 402.5 477.387 401.846 476.894 401.02C476.4 400.193 476.154 399.253 476.154 398.2C476.154 397.133 476.4 396.193 476.894 395.38C477.387 394.553 478.067 393.906 478.934 393.44C479.814 392.973 480.814 392.74 481.934 392.74C482.974 392.74 483.887 392.953 484.674 393.38C485.474 393.793 486.08 394.406 486.494 395.22L484.574 396.34C484.254 395.833 483.86 395.46 483.394 395.22C482.94 394.98 482.447 394.86 481.914 394.86C481.3 394.86 480.747 394.993 480.254 395.26C479.76 395.526 479.374 395.913 479.094 396.42C478.814 396.913 478.674 397.506 478.674 398.2C478.674 398.893 478.814 399.493 479.094 400C479.374 400.493 479.76 400.873 480.254 401.14C480.747 401.406 481.3 401.54 481.914 401.54C482.447 401.54 482.94 401.42 483.394 401.18C483.86 400.94 484.254 400.566 484.574 400.06L486.494 401.18C486.08 401.98 485.474 402.6 484.674 403.04C483.887 403.466 482.974 403.68 481.934 403.68ZM492.812 403.68C491.638 403.68 490.732 403.38 490.092 402.78C489.452 402.166 489.132 401.266 489.132 400.08V390.5H491.632V400.02C491.632 400.526 491.758 400.92 492.012 401.2C492.278 401.48 492.645 401.62 493.112 401.62C493.672 401.62 494.138 401.473 494.512 401.18L495.212 402.96C494.918 403.2 494.558 403.38 494.132 403.5C493.705 403.62 493.265 403.68 492.812 403.68ZM487.372 394.94V392.94H494.492V394.94H487.372ZM497.268 403.54V392.86H499.768V403.54H497.268ZM498.528 391.1C498.062 391.1 497.675 390.953 497.368 390.66C497.075 390.366 496.928 390.013 496.928 389.6C496.928 389.173 497.075 388.82 497.368 388.54C497.675 388.246 498.062 388.1 498.528 388.1C498.995 388.1 499.375 388.24 499.668 388.52C499.975 388.786 500.128 389.126 500.128 389.54C500.128 389.98 499.982 390.353 499.688 390.66C499.395 390.953 499.008 391.1 498.528 391.1ZM509.109 392.74C509.963 392.74 510.723 392.906 511.389 393.24C512.069 393.573 512.603 394.086 512.989 394.78C513.376 395.46 513.569 396.34 513.569 397.42V403.54H511.069V397.74C511.069 396.793 510.843 396.086 510.389 395.62C509.949 395.153 509.329 394.92 508.529 394.92C507.943 394.92 507.423 395.04 506.969 395.28C506.516 395.52 506.163 395.88 505.909 396.36C505.669 396.826 505.549 397.42 505.549 398.14V403.54H503.049V392.86H505.429V395.74L505.009 394.86C505.383 394.18 505.923 393.66 506.629 393.3C507.349 392.926 508.176 392.74 509.109 392.74ZM521.6 407.56C520.614 407.56 519.647 407.426 518.7 407.16C517.767 406.906 517 406.533 516.4 406.04L517.52 404.16C517.987 404.546 518.574 404.853 519.28 405.08C520 405.32 520.727 405.44 521.46 405.44C522.634 405.44 523.494 405.166 524.04 404.62C524.587 404.086 524.86 403.28 524.86 402.2V400.3L525.06 397.88L524.98 395.46V392.86H527.36V401.92C527.36 403.853 526.867 405.273 525.88 406.18C524.894 407.1 523.467 407.56 521.6 407.56ZM521.28 403.06C520.267 403.06 519.347 402.846 518.52 402.42C517.707 401.98 517.06 401.373 516.58 400.6C516.114 399.826 515.88 398.92 515.88 397.88C515.88 396.853 516.114 395.953 516.58 395.18C517.06 394.406 517.707 393.806 518.52 393.38C519.347 392.953 520.267 392.74 521.28 392.74C522.187 392.74 523 392.92 523.72 393.28C524.44 393.64 525.014 394.2 525.44 394.96C525.88 395.72 526.1 396.693 526.1 397.88C526.1 399.066 525.88 400.046 525.44 400.82C525.014 401.58 524.44 402.146 523.72 402.52C523 402.88 522.187 403.06 521.28 403.06ZM521.66 400.94C522.287 400.94 522.847 400.813 523.34 400.56C523.834 400.293 524.214 399.933 524.48 399.48C524.76 399.013 524.9 398.48 524.9 397.88C524.9 397.28 524.76 396.753 524.48 396.3C524.214 395.833 523.834 395.48 523.34 395.24C522.847 394.986 522.287 394.86 521.66 394.86C521.034 394.86 520.467 394.986 519.96 395.24C519.467 395.48 519.08 395.833 518.8 396.3C518.534 396.753 518.4 397.28 518.4 397.88C518.4 398.48 518.534 399.013 518.8 399.48C519.08 399.933 519.467 400.293 519.96 400.56C520.467 400.813 521.034 400.94 521.66 400.94ZM542.894 403.74C541.828 403.74 540.834 403.566 539.914 403.22C539.008 402.86 538.214 402.36 537.534 401.72C536.868 401.066 536.348 400.3 535.974 399.42C535.601 398.54 535.414 397.58 535.414 396.54C535.414 395.5 535.601 394.54 535.974 393.66C536.348 392.78 536.874 392.02 537.554 391.38C538.234 390.726 539.028 390.226 539.934 389.88C540.841 389.52 541.834 389.34 542.914 389.34C544.061 389.34 545.108 389.54 546.054 389.94C547.001 390.326 547.801 390.906 548.454 391.68L546.774 393.26C546.268 392.713 545.701 392.306 545.074 392.04C544.448 391.76 543.768 391.62 543.034 391.62C542.301 391.62 541.628 391.74 541.014 391.98C540.414 392.22 539.888 392.56 539.434 393C538.994 393.44 538.648 393.96 538.394 394.56C538.154 395.16 538.034 395.82 538.034 396.54C538.034 397.26 538.154 397.92 538.394 398.52C538.648 399.12 538.994 399.64 539.434 400.08C539.888 400.52 540.414 400.86 541.014 401.1C541.628 401.34 542.301 401.46 543.034 401.46C543.768 401.46 544.448 401.326 545.074 401.06C545.701 400.78 546.268 400.36 546.774 399.8L548.454 401.4C547.801 402.16 547.001 402.74 546.054 403.14C545.108 403.54 544.054 403.74 542.894 403.74ZM555.096 403.68C554.002 403.68 553.029 403.446 552.176 402.98C551.322 402.5 550.649 401.846 550.156 401.02C549.662 400.193 549.416 399.253 549.416 398.2C549.416 397.133 549.662 396.193 550.156 395.38C550.649 394.553 551.322 393.906 552.176 393.44C553.029 392.973 554.002 392.74 555.096 392.74C556.202 392.74 557.182 392.973 558.036 393.44C558.902 393.906 559.576 394.546 560.056 395.36C560.549 396.173 560.796 397.12 560.796 398.2C560.796 399.253 560.549 400.193 560.056 401.02C559.576 401.846 558.902 402.5 558.036 402.98C557.182 403.446 556.202 403.68 555.096 403.68ZM555.096 401.54C555.709 401.54 556.256 401.406 556.736 401.14C557.216 400.873 557.589 400.486 557.856 399.98C558.136 399.473 558.276 398.88 558.276 398.2C558.276 397.506 558.136 396.913 557.856 396.42C557.589 395.913 557.216 395.526 556.736 395.26C556.256 394.993 555.716 394.86 555.116 394.86C554.502 394.86 553.956 394.993 553.476 395.26C553.009 395.526 552.636 395.913 552.356 396.42C552.076 396.913 551.936 397.506 551.936 398.2C551.936 398.88 552.076 399.473 552.356 399.98C552.636 400.486 553.009 400.873 553.476 401.14C553.956 401.406 554.496 401.54 555.096 401.54ZM563.186 403.54V392.86H565.686V403.54H563.186ZM564.446 391.1C563.979 391.1 563.593 390.953 563.286 390.66C562.993 390.366 562.846 390.013 562.846 389.6C562.846 389.173 562.993 388.82 563.286 388.54C563.593 388.246 563.979 388.1 564.446 388.1C564.913 388.1 565.293 388.24 565.586 388.52C565.893 388.786 566.046 389.126 566.046 389.54C566.046 389.98 565.899 390.353 565.606 390.66C565.313 390.953 564.926 391.1 564.446 391.1ZM568.967 403.54V388.7H571.467V403.54H568.967ZM578.049 403.68C577.155 403.68 576.295 403.566 575.469 403.34C574.655 403.1 574.009 402.813 573.529 402.48L574.489 400.58C574.969 400.886 575.542 401.14 576.209 401.34C576.875 401.54 577.542 401.64 578.209 401.64C578.995 401.64 579.562 401.533 579.909 401.32C580.269 401.106 580.449 400.82 580.449 400.46C580.449 400.166 580.329 399.946 580.089 399.8C579.849 399.64 579.535 399.52 579.149 399.44C578.762 399.36 578.329 399.286 577.849 399.22C577.382 399.153 576.909 399.066 576.429 398.96C575.962 398.84 575.535 398.673 575.149 398.46C574.762 398.233 574.449 397.933 574.209 397.56C573.969 397.186 573.849 396.693 573.849 396.08C573.849 395.4 574.042 394.813 574.429 394.32C574.815 393.813 575.355 393.426 576.049 393.16C576.755 392.88 577.589 392.74 578.549 392.74C579.269 392.74 579.995 392.82 580.729 392.98C581.462 393.14 582.069 393.366 582.549 393.66L581.589 395.56C581.082 395.253 580.569 395.046 580.049 394.94C579.542 394.82 579.035 394.76 578.529 394.76C577.769 394.76 577.202 394.873 576.829 395.1C576.469 395.326 576.289 395.613 576.289 395.96C576.289 396.28 576.409 396.52 576.649 396.68C576.889 396.84 577.202 396.966 577.589 397.06C577.975 397.153 578.402 397.233 578.869 397.3C579.349 397.353 579.822 397.44 580.289 397.56C580.755 397.68 581.182 397.846 581.569 398.06C581.969 398.26 582.289 398.546 582.529 398.92C582.769 399.293 582.889 399.78 582.889 400.38C582.889 401.046 582.689 401.626 582.289 402.12C581.902 402.613 581.349 403 580.629 403.28C579.909 403.546 579.049 403.68 578.049 403.68Z" fill="black"/>
<path d="M790.978 341.211H797.958V343.411H790.978V341.211ZM791.198 348.771H788.598V334.771H798.818V336.951H791.198V348.771ZM801.093 348.771V333.931H803.593V348.771H801.093ZM811.394 348.911C810.487 348.911 809.687 348.744 808.994 348.411C808.301 348.064 807.761 347.544 807.374 346.851C806.987 346.144 806.794 345.257 806.794 344.191V338.091H809.294V343.851C809.294 344.811 809.507 345.531 809.934 346.011C810.374 346.477 810.994 346.711 811.794 346.711C812.381 346.711 812.887 346.591 813.314 346.351C813.754 346.111 814.094 345.751 814.334 345.271C814.587 344.791 814.714 344.197 814.714 343.491V338.091H817.214V348.771H814.834V345.891L815.254 346.771C814.894 347.464 814.367 347.997 813.674 348.371C812.981 348.731 812.221 348.911 811.394 348.911ZM825.287 348.911C824.194 348.911 823.221 348.677 822.367 348.211C821.514 347.731 820.841 347.077 820.347 346.251C819.854 345.424 819.607 344.484 819.607 343.431C819.607 342.364 819.854 341.424 820.347 340.611C820.841 339.784 821.514 339.137 822.367 338.671C823.221 338.204 824.194 337.971 825.287 337.971C826.394 337.971 827.374 338.204 828.227 338.671C829.094 339.137 829.767 339.777 830.247 340.591C830.741 341.404 830.987 342.351 830.987 343.431C830.987 344.484 830.741 345.424 830.247 346.251C829.767 347.077 829.094 347.731 828.227 348.211C827.374 348.677 826.394 348.911 825.287 348.911ZM825.287 346.771C825.901 346.771 826.447 346.637 826.927 346.371C827.407 346.104 827.781 345.717 828.047 345.211C828.327 344.704 828.467 344.111 828.467 343.431C828.467 342.737 828.327 342.144 828.047 341.651C827.781 341.144 827.407 340.757 826.927 340.491C826.447 340.224 825.907 340.091 825.307 340.091C824.694 340.091 824.147 340.224 823.667 340.491C823.201 340.757 822.827 341.144 822.547 341.651C822.267 342.144 822.127 342.737 822.127 343.431C822.127 344.111 822.267 344.704 822.547 345.211C822.827 345.717 823.201 346.104 823.667 346.371C824.147 346.637 824.687 346.771 825.287 346.771ZM833.378 348.771V338.091H835.758V341.031L835.478 340.171C835.798 339.451 836.298 338.904 836.978 338.531C837.671 338.157 838.531 337.971 839.558 337.971V340.351C839.451 340.324 839.351 340.311 839.258 340.311C839.164 340.297 839.071 340.291 838.978 340.291C838.031 340.291 837.278 340.571 836.718 341.131C836.158 341.677 835.878 342.497 835.878 343.591V348.771H833.378ZM846.601 348.911C845.414 348.911 844.374 348.677 843.481 348.211C842.601 347.731 841.914 347.077 841.421 346.251C840.941 345.424 840.701 344.484 840.701 343.431C840.701 342.364 840.934 341.424 841.401 340.611C841.881 339.784 842.534 339.137 843.361 338.671C844.201 338.204 845.154 337.971 846.221 337.971C847.261 337.971 848.188 338.197 849.001 338.651C849.814 339.104 850.454 339.744 850.921 340.571C851.388 341.397 851.621 342.371 851.621 343.491C851.621 343.597 851.614 343.717 851.601 343.851C851.601 343.984 851.594 344.111 851.581 344.231H842.681V342.571H850.261L849.281 343.091C849.294 342.477 849.168 341.937 848.901 341.471C848.634 341.004 848.268 340.637 847.801 340.371C847.348 340.104 846.821 339.971 846.221 339.971C845.608 339.971 845.068 340.104 844.601 340.371C844.148 340.637 843.788 341.011 843.521 341.491C843.268 341.957 843.141 342.511 843.141 343.151V343.551C843.141 344.191 843.288 344.757 843.581 345.251C843.874 345.744 844.288 346.124 844.821 346.391C845.354 346.657 845.968 346.791 846.661 346.791C847.261 346.791 847.801 346.697 848.281 346.511C848.761 346.324 849.188 346.031 849.561 345.631L850.901 347.171C850.421 347.731 849.814 348.164 849.081 348.471C848.361 348.764 847.534 348.911 846.601 348.911ZM857.322 348.911C856.429 348.911 855.569 348.797 854.742 348.571C853.929 348.331 853.282 348.044 852.802 347.711L853.762 345.811C854.242 346.117 854.816 346.371 855.482 346.571C856.149 346.771 856.816 346.871 857.482 346.871C858.269 346.871 858.836 346.764 859.182 346.551C859.542 346.337 859.722 346.051 859.722 345.691C859.722 345.397 859.602 345.177 859.362 345.031C859.122 344.871 858.809 344.751 858.422 344.671C858.036 344.591 857.602 344.517 857.122 344.451C856.656 344.384 856.182 344.297 855.702 344.191C855.236 344.071 854.809 343.904 854.422 343.691C854.036 343.464 853.722 343.164 853.482 342.791C853.242 342.417 853.122 341.924 853.122 341.311C853.122 340.631 853.316 340.044 853.702 339.551C854.089 339.044 854.629 338.657 855.322 338.391C856.029 338.111 856.862 337.971 857.822 337.971C858.542 337.971 859.269 338.051 860.002 338.211C860.736 338.371 861.342 338.597 861.822 338.891L860.862 340.791C860.356 340.484 859.842 340.277 859.322 340.171C858.816 340.051 858.309 339.991 857.802 339.991C857.042 339.991 856.476 340.104 856.102 340.331C855.742 340.557 855.562 340.844 855.562 341.191C855.562 341.511 855.682 341.751 855.922 341.911C856.162 342.071 856.476 342.197 856.862 342.291C857.249 342.384 857.676 342.464 858.142 342.531C858.622 342.584 859.096 342.671 859.562 342.791C860.029 342.911 860.456 343.077 860.842 343.291C861.242 343.491 861.562 343.777 861.802 344.151C862.042 344.524 862.162 345.011 862.162 345.611C862.162 346.277 861.962 346.857 861.562 347.351C861.176 347.844 860.622 348.231 859.902 348.511C859.182 348.777 858.322 348.911 857.322 348.911ZM869.215 348.911C868.095 348.911 867.095 348.677 866.215 348.211C865.349 347.731 864.669 347.077 864.175 346.251C863.682 345.424 863.435 344.484 863.435 343.431C863.435 342.364 863.682 341.424 864.175 340.611C864.669 339.784 865.349 339.137 866.215 338.671C867.095 338.204 868.095 337.971 869.215 337.971C870.255 337.971 871.169 338.184 871.955 338.611C872.755 339.024 873.362 339.637 873.775 340.451L871.855 341.571C871.535 341.064 871.142 340.691 870.675 340.451C870.222 340.211 869.729 340.091 869.195 340.091C868.582 340.091 868.029 340.224 867.535 340.491C867.042 340.757 866.655 341.144 866.375 341.651C866.095 342.144 865.955 342.737 865.955 343.431C865.955 344.124 866.095 344.724 866.375 345.231C866.655 345.724 867.042 346.104 867.535 346.371C868.029 346.637 868.582 346.771 869.195 346.771C869.729 346.771 870.222 346.651 870.675 346.411C871.142 346.171 871.535 345.797 871.855 345.291L873.775 346.411C873.362 347.211 872.755 347.831 871.955 348.271C871.169 348.697 870.255 348.911 869.215 348.911ZM880.8 348.911C879.613 348.911 878.573 348.677 877.68 348.211C876.8 347.731 876.113 347.077 875.62 346.251C875.14 345.424 874.9 344.484 874.9 343.431C874.9 342.364 875.133 341.424 875.6 340.611C876.08 339.784 876.733 339.137 877.56 338.671C878.4 338.204 879.353 337.971 880.42 337.971C881.46 337.971 882.387 338.197 883.2 338.651C884.013 339.104 884.653 339.744 885.12 340.571C885.587 341.397 885.82 342.371 885.82 343.491C885.82 343.597 885.813 343.717 885.8 343.851C885.8 343.984 885.793 344.111 885.78 344.231H876.88V342.571H884.46L883.48 343.091C883.493 342.477 883.367 341.937 883.1 341.471C882.833 341.004 882.467 340.637 882 340.371C881.547 340.104 881.02 339.971 880.42 339.971C879.807 339.971 879.267 340.104 878.8 340.371C878.347 340.637 877.987 341.011 877.72 341.491C877.467 341.957 877.34 342.511 877.34 343.151V343.551C877.34 344.191 877.487 344.757 877.78 345.251C878.073 345.744 878.487 346.124 879.02 346.391C879.553 346.657 880.167 346.791 880.86 346.791C881.46 346.791 882 346.697 882.48 346.511C882.96 346.324 883.387 346.031 883.76 345.631L885.1 347.171C884.62 347.731 884.013 348.164 883.28 348.471C882.56 348.764 881.733 348.911 880.8 348.911ZM894.282 337.971C895.135 337.971 895.895 338.137 896.562 338.471C897.242 338.804 897.775 339.317 898.162 340.011C898.548 340.691 898.742 341.571 898.742 342.651V348.771H896.242V342.971C896.242 342.024 896.015 341.317 895.562 340.851C895.122 340.384 894.502 340.151 893.702 340.151C893.115 340.151 892.595 340.271 892.142 340.511C891.688 340.751 891.335 341.111 891.082 341.591C890.842 342.057 890.722 342.651 890.722 343.371V348.771H888.222V338.091H890.602V340.971L890.182 340.091C890.555 339.411 891.095 338.891 891.802 338.531C892.522 338.157 893.348 337.971 894.282 337.971ZM905.933 348.911C904.76 348.911 903.853 348.611 903.213 348.011C902.573 347.397 902.253 346.497 902.253 345.311V335.731H904.753V345.251C904.753 345.757 904.88 346.151 905.133 346.431C905.4 346.711 905.766 346.851 906.233 346.851C906.793 346.851 907.26 346.704 907.633 346.411L908.333 348.191C908.04 348.431 907.68 348.611 907.253 348.731C906.826 348.851 906.386 348.911 905.933 348.911ZM900.493 340.171V338.171H907.613V340.171H900.493ZM920.497 348.971C919.404 348.971 918.357 348.817 917.357 348.511C916.357 348.191 915.564 347.784 914.977 347.291L915.877 345.271C916.437 345.711 917.13 346.077 917.957 346.371C918.784 346.664 919.63 346.811 920.497 346.811C921.23 346.811 921.824 346.731 922.277 346.571C922.73 346.411 923.064 346.197 923.277 345.931C923.49 345.651 923.597 345.337 923.597 344.991C923.597 344.564 923.444 344.224 923.137 343.971C922.83 343.704 922.43 343.497 921.937 343.351C921.457 343.191 920.917 343.044 920.317 342.911C919.73 342.777 919.137 342.624 918.537 342.451C917.95 342.264 917.41 342.031 916.917 341.751C916.437 341.457 916.044 341.071 915.737 340.591C915.43 340.111 915.277 339.497 915.277 338.751C915.277 337.991 915.477 337.297 915.877 336.671C916.29 336.031 916.91 335.524 917.737 335.151C918.577 334.764 919.637 334.571 920.917 334.571C921.757 334.571 922.59 334.677 923.417 334.891C924.244 335.104 924.964 335.411 925.577 335.811L924.757 337.831C924.13 337.457 923.484 337.184 922.817 337.011C922.15 336.824 921.51 336.731 920.897 336.731C920.177 336.731 919.59 336.817 919.137 336.991C918.697 337.164 918.37 337.391 918.157 337.671C917.957 337.951 917.857 338.271 917.857 338.631C917.857 339.057 918.004 339.404 918.297 339.671C918.604 339.924 918.997 340.124 919.477 340.271C919.97 340.417 920.517 340.564 921.117 340.711C921.717 340.844 922.31 340.997 922.897 341.171C923.497 341.344 924.037 341.571 924.517 341.851C925.01 342.131 925.404 342.511 925.697 342.991C926.004 343.471 926.157 344.077 926.157 344.811C926.157 345.557 925.95 346.251 925.537 346.891C925.137 347.517 924.517 348.024 923.677 348.411C922.837 348.784 921.777 348.971 920.497 348.971ZM933.395 348.911C932.275 348.911 931.275 348.677 930.395 348.211C929.528 347.731 928.848 347.077 928.355 346.251C927.862 345.424 927.615 344.484 927.615 343.431C927.615 342.364 927.862 341.424 928.355 340.611C928.848 339.784 929.528 339.137 930.395 338.671C931.275 338.204 932.275 337.971 933.395 337.971C934.435 337.971 935.348 338.184 936.135 338.611C936.935 339.024 937.542 339.637 937.955 340.451L936.035 341.571C935.715 341.064 935.322 340.691 934.855 340.451C934.402 340.211 933.908 340.091 933.375 340.091C932.762 340.091 932.208 340.224 931.715 340.491C931.222 340.757 930.835 341.144 930.555 341.651C930.275 342.144 930.135 342.737 930.135 343.431C930.135 344.124 930.275 344.724 930.555 345.231C930.835 345.724 931.222 346.104 931.715 346.371C932.208 346.637 932.762 346.771 933.375 346.771C933.908 346.771 934.402 346.651 934.855 346.411C935.322 346.171 935.715 345.797 936.035 345.291L937.955 346.411C937.542 347.211 936.935 347.831 936.135 348.271C935.348 348.697 934.435 348.911 933.395 348.911ZM940.116 348.771V338.091H942.496V341.031L942.216 340.171C942.536 339.451 943.036 338.904 943.716 338.531C944.409 338.157 945.269 337.971 946.296 337.971V340.351C946.189 340.324 946.089 340.311 945.996 340.311C945.903 340.297 945.809 340.291 945.716 340.291C944.769 340.291 944.016 340.571 943.456 341.131C942.896 341.677 942.616 342.497 942.616 343.591V348.771H940.116ZM953.339 348.911C952.153 348.911 951.113 348.677 950.219 348.211C949.339 347.731 948.653 347.077 948.159 346.251C947.679 345.424 947.439 344.484 947.439 343.431C947.439 342.364 947.673 341.424 948.139 340.611C948.619 339.784 949.273 339.137 950.099 338.671C950.939 338.204 951.893 337.971 952.959 337.971C953.999 337.971 954.926 338.197 955.739 338.651C956.553 339.104 957.193 339.744 957.659 340.571C958.126 341.397 958.359 342.371 958.359 343.491C958.359 343.597 958.353 343.717 958.339 343.851C958.339 343.984 958.333 344.111 958.319 344.231H949.419V342.571H956.999L956.019 343.091C956.033 342.477 955.906 341.937 955.639 341.471C955.373 341.004 955.006 340.637 954.539 340.371C954.086 340.104 953.559 339.971 952.959 339.971C952.346 339.971 951.806 340.104 951.339 340.371C950.886 340.637 950.526 341.011 950.259 341.491C950.006 341.957 949.879 342.511 949.879 343.151V343.551C949.879 344.191 950.026 344.757 950.319 345.251C950.613 345.744 951.026 346.124 951.559 346.391C952.093 346.657 952.706 346.791 953.399 346.791C953.999 346.791 954.539 346.697 955.019 346.511C955.499 346.324 955.926 346.031 956.299 345.631L957.639 347.171C957.159 347.731 956.553 348.164 955.819 348.471C955.099 348.764 954.273 348.911 953.339 348.911ZM965.781 348.911C964.594 348.911 963.554 348.677 962.661 348.211C961.781 347.731 961.094 347.077 960.601 346.251C960.121 345.424 959.881 344.484 959.881 343.431C959.881 342.364 960.114 341.424 960.581 340.611C961.061 339.784 961.714 339.137 962.541 338.671C963.381 338.204 964.334 337.971 965.401 337.971C966.441 337.971 967.367 338.197 968.181 338.651C968.994 339.104 969.634 339.744 970.101 340.571C970.567 341.397 970.801 342.371 970.801 343.491C970.801 343.597 970.794 343.717 970.781 343.851C970.781 343.984 970.774 344.111 970.761 344.231H961.861V342.571H969.441L968.461 343.091C968.474 342.477 968.347 341.937 968.081 341.471C967.814 341.004 967.447 340.637 966.981 340.371C966.527 340.104 966.001 339.971 965.401 339.971C964.787 339.971 964.247 340.104 963.781 340.371C963.327 340.637 962.967 341.011 962.701 341.491C962.447 341.957 962.321 342.511 962.321 343.151V343.551C962.321 344.191 962.467 344.757 962.761 345.251C963.054 345.744 963.467 346.124 964.001 346.391C964.534 346.657 965.147 346.791 965.841 346.791C966.441 346.791 966.981 346.697 967.461 346.511C967.941 346.324 968.367 346.031 968.741 345.631L970.081 347.171C969.601 347.731 968.994 348.164 968.261 348.471C967.541 348.764 966.714 348.911 965.781 348.911ZM979.262 337.971C980.115 337.971 980.875 338.137 981.542 338.471C982.222 338.804 982.755 339.317 983.142 340.011C983.529 340.691 983.722 341.571 983.722 342.651V348.771H981.222V342.971C981.222 342.024 980.995 341.317 980.542 340.851C980.102 340.384 979.482 340.151 978.682 340.151C978.095 340.151 977.575 340.271 977.122 340.511C976.669 340.751 976.315 341.111 976.062 341.591C975.822 342.057 975.702 342.651 975.702 343.371V348.771H973.202V338.091H975.582V340.971L975.162 340.091C975.535 339.411 976.075 338.891 976.782 338.531C977.502 338.157 978.329 337.971 979.262 337.971Z" fill="black"/>
<path d="M259.322 11.9146H266.302V14.1146H259.322V11.9146ZM259.542 19.4746H256.942V5.47461H267.162V7.65461H259.542V19.4746ZM273.943 19.6146C272.85 19.6146 271.877 19.3813 271.023 18.9146C270.17 18.4346 269.497 17.7813 269.003 16.9546C268.51 16.1279 268.263 15.1879 268.263 14.1346C268.263 13.0679 268.51 12.1279 269.003 11.3146C269.497 10.4879 270.17 9.84128 271.023 9.37461C271.877 8.90794 272.85 8.67461 273.943 8.67461C275.05 8.67461 276.03 8.90794 276.883 9.37461C277.75 9.84128 278.423 10.4813 278.903 11.2946C279.397 12.1079 279.643 13.0546 279.643 14.1346C279.643 15.1879 279.397 16.1279 278.903 16.9546C278.423 17.7813 277.75 18.4346 276.883 18.9146C276.03 19.3813 275.05 19.6146 273.943 19.6146ZM273.943 17.4746C274.557 17.4746 275.103 17.3413 275.583 17.0746C276.063 16.8079 276.437 16.4213 276.703 15.9146C276.983 15.4079 277.123 14.8146 277.123 14.1346C277.123 13.4413 276.983 12.8479 276.703 12.3546C276.437 11.8479 276.063 11.4613 275.583 11.1946C275.103 10.9279 274.563 10.7946 273.963 10.7946C273.35 10.7946 272.803 10.9279 272.323 11.1946C271.857 11.4613 271.483 11.8479 271.203 12.3546C270.923 12.8479 270.783 13.4413 270.783 14.1346C270.783 14.8146 270.923 15.4079 271.203 15.9146C271.483 16.4213 271.857 16.8079 272.323 17.0746C272.803 17.3413 273.343 17.4746 273.943 17.4746ZM286.934 19.6146C285.814 19.6146 284.814 19.3813 283.934 18.9146C283.067 18.4346 282.387 17.7813 281.894 16.9546C281.4 16.1279 281.154 15.1879 281.154 14.1346C281.154 13.0679 281.4 12.1279 281.894 11.3146C282.387 10.4879 283.067 9.84128 283.934 9.37461C284.814 8.90794 285.814 8.67461 286.934 8.67461C287.974 8.67461 288.887 8.88794 289.674 9.31461C290.474 9.72794 291.08 10.3413 291.494 11.1546L289.574 12.2746C289.254 11.7679 288.86 11.3946 288.394 11.1546C287.94 10.9146 287.447 10.7946 286.914 10.7946C286.3 10.7946 285.747 10.9279 285.254 11.1946C284.76 11.4613 284.374 11.8479 284.094 12.3546C283.814 12.8479 283.674 13.4413 283.674 14.1346C283.674 14.8279 283.814 15.4279 284.094 15.9346C284.374 16.4279 284.76 16.8079 285.254 17.0746C285.747 17.3413 286.3 17.4746 286.914 17.4746C287.447 17.4746 287.94 17.3546 288.394 17.1146C288.86 16.8746 289.254 16.5013 289.574 15.9946L291.494 17.1146C291.08 17.9146 290.474 18.5346 289.674 18.9746C288.887 19.4013 287.974 19.6146 286.934 19.6146ZM298.175 19.6146C297.268 19.6146 296.468 19.4479 295.775 19.1146C295.082 18.7679 294.542 18.2479 294.155 17.5546C293.768 16.8479 293.575 15.9613 293.575 14.8946V8.79461H296.075V14.5546C296.075 15.5146 296.288 16.2346 296.715 16.7146C297.155 17.1813 297.775 17.4146 298.575 17.4146C299.162 17.4146 299.668 17.2946 300.095 17.0546C300.535 16.8146 300.875 16.4546 301.115 15.9746C301.368 15.4946 301.495 14.9013 301.495 14.1946V8.79461H303.995V19.4746H301.615V16.5946L302.035 17.4746C301.675 18.1679 301.148 18.7013 300.455 19.0746C299.762 19.4346 299.002 19.6146 298.175 19.6146ZM310.568 19.6146C309.675 19.6146 308.815 19.5013 307.988 19.2746C307.175 19.0346 306.528 18.7479 306.048 18.4146L307.008 16.5146C307.488 16.8213 308.062 17.0746 308.728 17.2746C309.395 17.4746 310.062 17.5746 310.728 17.5746C311.515 17.5746 312.082 17.4679 312.428 17.2546C312.788 17.0413 312.968 16.7546 312.968 16.3946C312.968 16.1013 312.848 15.8813 312.608 15.7346C312.368 15.5746 312.055 15.4546 311.668 15.3746C311.282 15.2946 310.848 15.2213 310.368 15.1546C309.902 15.0879 309.428 15.0013 308.948 14.8946C308.482 14.7746 308.055 14.6079 307.668 14.3946C307.282 14.1679 306.968 13.8679 306.728 13.4946C306.488 13.1213 306.368 12.6279 306.368 12.0146C306.368 11.3346 306.562 10.7479 306.948 10.2546C307.335 9.74794 307.875 9.36128 308.568 9.09461C309.275 8.81461 310.108 8.67461 311.068 8.67461C311.788 8.67461 312.515 8.75461 313.248 8.91461C313.982 9.07461 314.588 9.30128 315.068 9.59461L314.108 11.4946C313.602 11.1879 313.088 10.9813 312.568 10.8746C312.062 10.7546 311.555 10.6946 311.048 10.6946C310.288 10.6946 309.722 10.8079 309.348 11.0346C308.988 11.2613 308.808 11.5479 308.808 11.8946C308.808 12.2146 308.928 12.4546 309.168 12.6146C309.408 12.7746 309.722 12.9013 310.108 12.9946C310.495 13.0879 310.922 13.1679 311.388 13.2346C311.868 13.2879 312.342 13.3746 312.808 13.4946C313.275 13.6146 313.702 13.7813 314.088 13.9946C314.488 14.1946 314.808 14.4813 315.048 14.8546C315.288 15.2279 315.408 15.7146 315.408 16.3146C315.408 16.9813 315.208 17.5613 314.808 18.0546C314.422 18.5479 313.868 18.9346 313.148 19.2146C312.428 19.4813 311.568 19.6146 310.568 19.6146ZM317.561 19.4746V8.79461H320.061V19.4746H317.561ZM318.821 7.03461C318.354 7.03461 317.968 6.88794 317.661 6.59461C317.368 6.30128 317.221 5.94794 317.221 5.53461C317.221 5.10794 317.368 4.75461 317.661 4.47461C317.968 4.18128 318.354 4.03461 318.821 4.03461C319.288 4.03461 319.668 4.17461 319.961 4.45461C320.268 4.72128 320.421 5.06128 320.421 5.47461C320.421 5.91461 320.274 6.28794 319.981 6.59461C319.688 6.88794 319.301 7.03461 318.821 7.03461ZM329.402 8.67461C330.256 8.67461 331.016 8.84128 331.682 9.17461C332.362 9.50794 332.896 10.0213 333.282 10.7146C333.669 11.3946 333.862 12.2746 333.862 13.3546V19.4746H331.362V13.6746C331.362 12.7279 331.136 12.0213 330.682 11.5546C330.242 11.0879 329.622 10.8546 328.822 10.8546C328.236 10.8546 327.716 10.9746 327.262 11.2146C326.809 11.4546 326.456 11.8146 326.202 12.2946C325.962 12.7613 325.842 13.3546 325.842 14.0746V19.4746H323.342V8.79461H325.722V11.6746L325.302 10.7946C325.676 10.1146 326.216 9.59461 326.922 9.23461C327.642 8.86128 328.469 8.67461 329.402 8.67461ZM341.893 23.4946C340.907 23.4946 339.94 23.3613 338.993 23.0946C338.06 22.8413 337.293 22.4679 336.693 21.9746L337.813 20.0946C338.28 20.4813 338.867 20.7879 339.573 21.0146C340.293 21.2546 341.02 21.3746 341.753 21.3746C342.927 21.3746 343.787 21.1013 344.333 20.5546C344.88 20.0213 345.153 19.2146 345.153 18.1346V16.2346L345.353 13.8146L345.273 11.3946V8.79461H347.653V17.8546C347.653 19.7879 347.16 21.2079 346.173 22.1146C345.187 23.0346 343.76 23.4946 341.893 23.4946ZM341.573 18.9946C340.56 18.9946 339.64 18.7813 338.813 18.3546C338 17.9146 337.353 17.3079 336.873 16.5346C336.407 15.7613 336.173 14.8546 336.173 13.8146C336.173 12.7879 336.407 11.8879 336.873 11.1146C337.353 10.3413 338 9.74128 338.813 9.31461C339.64 8.88794 340.56 8.67461 341.573 8.67461C342.48 8.67461 343.293 8.85461 344.013 9.21461C344.733 9.57461 345.307 10.1346 345.733 10.8946C346.173 11.6546 346.393 12.6279 346.393 13.8146C346.393 15.0013 346.173 15.9813 345.733 16.7546C345.307 17.5146 344.733 18.0813 344.013 18.4546C343.293 18.8146 342.48 18.9946 341.573 18.9946ZM341.953 16.8746C342.58 16.8746 343.14 16.7479 343.633 16.4946C344.127 16.2279 344.507 15.8679 344.773 15.4146C345.053 14.9479 345.193 14.4146 345.193 13.8146C345.193 13.2146 345.053 12.6879 344.773 12.2346C344.507 11.7679 344.127 11.4146 343.633 11.1746C343.14 10.9213 342.58 10.7946 341.953 10.7946C341.327 10.7946 340.76 10.9213 340.253 11.1746C339.76 11.4146 339.373 11.7679 339.093 12.2346C338.827 12.6879 338.693 13.2146 338.693 13.8146C338.693 14.4146 338.827 14.9479 339.093 15.4146C339.373 15.8679 339.76 16.2279 340.253 16.4946C340.76 16.7479 341.327 16.8746 341.953 16.8746ZM363.187 19.6746C362.121 19.6746 361.127 19.5013 360.207 19.1546C359.301 18.7946 358.507 18.2946 357.827 17.6546C357.161 17.0013 356.641 16.2346 356.267 15.3546C355.894 14.4746 355.707 13.5146 355.707 12.4746C355.707 11.4346 355.894 10.4746 356.267 9.59461C356.641 8.71461 357.167 7.95461 357.847 7.31461C358.527 6.66128 359.321 6.16128 360.227 5.81461C361.134 5.45461 362.127 5.27461 363.207 5.27461C364.354 5.27461 365.401 5.47461 366.347 5.87461C367.294 6.26128 368.094 6.84128 368.747 7.61461L367.067 9.19461C366.561 8.64794 365.994 8.24128 365.367 7.97461C364.741 7.69461 364.061 7.55461 363.327 7.55461C362.594 7.55461 361.921 7.67461 361.307 7.91461C360.707 8.15461 360.181 8.49461 359.727 8.93461C359.287 9.37461 358.941 9.89461 358.687 10.4946C358.447 11.0946 358.327 11.7546 358.327 12.4746C358.327 13.1946 358.447 13.8546 358.687 14.4546C358.941 15.0546 359.287 15.5746 359.727 16.0146C360.181 16.4546 360.707 16.7946 361.307 17.0346C361.921 17.2746 362.594 17.3946 363.327 17.3946C364.061 17.3946 364.741 17.2613 365.367 16.9946C365.994 16.7146 366.561 16.2946 367.067 15.7346L368.747 17.3346C368.094 18.0946 367.294 18.6746 366.347 19.0746C365.401 19.4746 364.347 19.6746 363.187 19.6746ZM375.388 19.6146C374.295 19.6146 373.322 19.3813 372.468 18.9146C371.615 18.4346 370.942 17.7813 370.448 16.9546C369.955 16.1279 369.708 15.1879 369.708 14.1346C369.708 13.0679 369.955 12.1279 370.448 11.3146C370.942 10.4879 371.615 9.84128 372.468 9.37461C373.322 8.90794 374.295 8.67461 375.388 8.67461C376.495 8.67461 377.475 8.90794 378.328 9.37461C379.195 9.84128 379.868 10.4813 380.348 11.2946C380.842 12.1079 381.088 13.0546 381.088 14.1346C381.088 15.1879 380.842 16.1279 380.348 16.9546C379.868 17.7813 379.195 18.4346 378.328 18.9146C377.475 19.3813 376.495 19.6146 375.388 19.6146ZM375.388 17.4746C376.002 17.4746 376.548 17.3413 377.028 17.0746C377.508 16.8079 377.882 16.4213 378.148 15.9146C378.428 15.4079 378.568 14.8146 378.568 14.1346C378.568 13.4413 378.428 12.8479 378.148 12.3546C377.882 11.8479 377.508 11.4613 377.028 11.1946C376.548 10.9279 376.008 10.7946 375.408 10.7946C374.795 10.7946 374.248 10.9279 373.768 11.1946C373.302 11.4613 372.928 11.8479 372.648 12.3546C372.368 12.8479 372.228 13.4413 372.228 14.1346C372.228 14.8146 372.368 15.4079 372.648 15.9146C372.928 16.4213 373.302 16.8079 373.768 17.0746C374.248 17.3413 374.788 17.4746 375.388 17.4746ZM383.479 19.4746V8.79461H385.979V19.4746H383.479ZM384.739 7.03461C384.272 7.03461 383.886 6.88794 383.579 6.59461C383.286 6.30128 383.139 5.94794 383.139 5.53461C383.139 5.10794 383.286 4.75461 383.579 4.47461C383.886 4.18128 384.272 4.03461 384.739 4.03461C385.206 4.03461 385.586 4.17461 385.879 4.45461C386.186 4.72128 386.339 5.06128 386.339 5.47461C386.339 5.91461 386.192 6.28794 385.899 6.59461C385.606 6.88794 385.219 7.03461 384.739 7.03461ZM389.26 19.4746V4.63461H391.76V19.4746H389.26Z" fill="black"/>
<path d="M155.291 87.125L161.591 73.125H164.151L170.471 87.125H167.751L162.331 74.505H163.371L157.971 87.125H155.291ZM158.191 83.885L158.891 81.845H166.451L167.151 83.885H158.191ZM178.072 76.325C178.925 76.325 179.685 76.4917 180.352 76.825C181.032 77.1583 181.565 77.6717 181.952 78.365C182.338 79.045 182.532 79.925 182.532 81.005V87.125H180.032V81.325C180.032 80.3783 179.805 79.6717 179.352 79.205C178.912 78.7383 178.292 78.505 177.492 78.505C176.905 78.505 176.385 78.625 175.932 78.865C175.478 79.105 175.125 79.465 174.872 79.945C174.632 80.4117 174.512 81.005 174.512 81.725V87.125H172.012V76.445H174.392V79.325L173.972 78.445C174.345 77.765 174.885 77.245 175.592 76.885C176.312 76.5117 177.138 76.325 178.072 76.325ZM190.523 87.265C189.429 87.265 188.456 87.0317 187.603 86.565C186.749 86.085 186.076 85.4317 185.583 84.605C185.089 83.7783 184.843 82.8383 184.843 81.785C184.843 80.7183 185.089 79.7783 185.583 78.965C186.076 78.1383 186.749 77.4917 187.603 77.025C188.456 76.5583 189.429 76.325 190.523 76.325C191.629 76.325 192.609 76.5583 193.463 77.025C194.329 77.4917 195.003 78.1317 195.483 78.945C195.976 79.7583 196.223 80.705 196.223 81.785C196.223 82.8383 195.976 83.7783 195.483 84.605C195.003 85.4317 194.329 86.085 193.463 86.565C192.609 87.0317 191.629 87.265 190.523 87.265ZM190.523 85.125C191.136 85.125 191.683 84.9917 192.163 84.725C192.643 84.4583 193.016 84.0717 193.283 83.565C193.563 83.0583 193.703 82.465 193.703 81.785C193.703 81.0917 193.563 80.4983 193.283 80.005C193.016 79.4983 192.643 79.1117 192.163 78.845C191.683 78.5783 191.143 78.445 190.543 78.445C189.929 78.445 189.383 78.5783 188.903 78.845C188.436 79.1117 188.063 79.4983 187.783 80.005C187.503 80.4983 187.363 81.0917 187.363 81.785C187.363 82.465 187.503 83.0583 187.783 83.565C188.063 84.0717 188.436 84.4583 188.903 84.725C189.383 84.9917 189.923 85.125 190.523 85.125ZM203.133 87.265C202.106 87.265 201.18 87.0383 200.353 86.585C199.54 86.1183 198.9 85.4783 198.433 84.665C197.966 83.8517 197.733 82.8917 197.733 81.785C197.733 80.6783 197.966 79.7183 198.433 78.905C198.9 78.0917 199.54 77.4583 200.353 77.005C201.18 76.5517 202.106 76.325 203.133 76.325C204.026 76.325 204.826 76.525 205.533 76.925C206.24 77.3117 206.8 77.905 207.213 78.705C207.626 79.505 207.833 80.5317 207.833 81.785C207.833 83.025 207.633 84.0517 207.233 84.865C206.833 85.665 206.28 86.265 205.573 86.665C204.866 87.065 204.053 87.265 203.133 87.265ZM203.433 85.125C204.033 85.125 204.566 84.9917 205.033 84.725C205.513 84.4583 205.893 84.0717 206.173 83.565C206.466 83.0583 206.613 82.465 206.613 81.785C206.613 81.0917 206.466 80.4983 206.173 80.005C205.893 79.4983 205.513 79.1117 205.033 78.845C204.566 78.5783 204.033 78.445 203.433 78.445C202.833 78.445 202.293 78.5783 201.813 78.845C201.346 79.1117 200.966 79.4983 200.673 80.005C200.393 80.4983 200.253 81.0917 200.253 81.785C200.253 82.465 200.393 83.0583 200.673 83.565C200.966 84.0717 201.346 84.4583 201.813 84.725C202.293 84.9917 202.833 85.125 203.433 85.125ZM206.673 87.125V84.605L206.773 81.765L206.573 78.925V72.285H209.053V87.125H206.673ZM217.364 87.265C216.177 87.265 215.137 87.0317 214.244 86.565C213.364 86.085 212.677 85.4317 212.184 84.605C211.704 83.7783 211.464 82.8383 211.464 81.785C211.464 80.7183 211.697 79.7783 212.164 78.965C212.644 78.1383 213.297 77.4917 214.124 77.025C214.964 76.5583 215.917 76.325 216.984 76.325C218.024 76.325 218.95 76.5517 219.764 77.005C220.577 77.4583 221.217 78.0983 221.684 78.925C222.15 79.7517 222.384 80.725 222.384 81.845C222.384 81.9517 222.377 82.0717 222.364 82.205C222.364 82.3383 222.357 82.465 222.344 82.585H213.444V80.925H221.024L220.044 81.445C220.057 80.8317 219.93 80.2917 219.664 79.825C219.397 79.3583 219.03 78.9917 218.564 78.725C218.11 78.4583 217.584 78.325 216.984 78.325C216.37 78.325 215.83 78.4583 215.364 78.725C214.91 78.9917 214.55 79.365 214.284 79.845C214.03 80.3117 213.904 80.865 213.904 81.505V81.905C213.904 82.545 214.05 83.1117 214.344 83.605C214.637 84.0983 215.05 84.4783 215.584 84.745C216.117 85.0117 216.73 85.145 217.424 85.145C218.024 85.145 218.564 85.0517 219.044 84.865C219.524 84.6783 219.95 84.385 220.324 83.985L221.664 85.525C221.184 86.085 220.577 86.5183 219.844 86.825C219.124 87.1183 218.297 87.265 217.364 87.265Z" fill="black"/>
<path d="M8.64174 90.6629C7.57507 90.6629 6.58174 90.4896 5.66174 90.1429C4.75507 89.7829 3.96174 89.2829 3.28174 88.6429C2.61507 87.9896 2.09507 87.2229 1.72174 86.3429C1.34841 85.4629 1.16174 84.5029 1.16174 83.4629C1.16174 82.4229 1.34841 81.4629 1.72174 80.5829C2.09507 79.7029 2.62174 78.9429 3.30174 78.3029C3.98174 77.6496 4.77507 77.1496 5.68174 76.8029C6.58841 76.4429 7.58174 76.2629 8.66174 76.2629C9.80841 76.2629 10.8551 76.4629 11.8017 76.8629C12.7484 77.2496 13.5484 77.8296 14.2017 78.6029L12.5217 80.1829C12.0151 79.6362 11.4484 79.2296 10.8217 78.9629C10.1951 78.6829 9.51507 78.5429 8.78174 78.5429C8.04841 78.5429 7.37507 78.6629 6.76174 78.9029C6.16174 79.1429 5.63507 79.4829 5.18174 79.9229C4.74174 80.3629 4.39507 80.8829 4.14174 81.4829C3.90174 82.0829 3.78174 82.7429 3.78174 83.4629C3.78174 84.1829 3.90174 84.8429 4.14174 85.4429C4.39507 86.0429 4.74174 86.5629 5.18174 87.0029C5.63507 87.4429 6.16174 87.7829 6.76174 88.0229C7.37507 88.2629 8.04841 88.3829 8.78174 88.3829C9.51507 88.3829 10.1951 88.2496 10.8217 87.9829C11.4484 87.7029 12.0151 87.2829 12.5217 86.7229L14.2017 88.3229C13.5484 89.0829 12.7484 89.6629 11.8017 90.0629C10.8551 90.4629 9.80174 90.6629 8.64174 90.6629ZM20.8428 90.6029C19.7495 90.6029 18.7762 90.3696 17.9228 89.9029C17.0695 89.4229 16.3962 88.7696 15.9028 87.9429C15.4095 87.1162 15.1628 86.1762 15.1628 85.1229C15.1628 84.0562 15.4095 83.1162 15.9028 82.3029C16.3962 81.4762 17.0695 80.8296 17.9228 80.3629C18.7762 79.8962 19.7495 79.6629 20.8428 79.6629C21.9495 79.6629 22.9295 79.8962 23.7828 80.3629C24.6495 80.8296 25.3228 81.4696 25.8028 82.2829C26.2962 83.0962 26.5428 84.0429 26.5428 85.1229C26.5428 86.1762 26.2962 87.1162 25.8028 87.9429C25.3228 88.7696 24.6495 89.4229 23.7828 89.9029C22.9295 90.3696 21.9495 90.6029 20.8428 90.6029ZM20.8428 88.4629C21.4562 88.4629 22.0028 88.3296 22.4828 88.0629C22.9628 87.7962 23.3362 87.4096 23.6028 86.9029C23.8828 86.3962 24.0228 85.8029 24.0228 85.1229C24.0228 84.4296 23.8828 83.8362 23.6028 83.3429C23.3362 82.8362 22.9628 82.4496 22.4828 82.1829C22.0028 81.9162 21.4628 81.7829 20.8628 81.7829C20.2495 81.7829 19.7028 81.9162 19.2228 82.1829C18.7562 82.4496 18.3828 82.8362 18.1028 83.3429C17.8228 83.8362 17.6828 84.4296 17.6828 85.1229C17.6828 85.8029 17.8228 86.3962 18.1028 86.9029C18.3828 87.4096 18.7562 87.7962 19.2228 88.0629C19.7028 88.3296 20.2428 88.4629 20.8428 88.4629ZM34.9935 79.6629C35.8468 79.6629 36.6068 79.8296 37.2735 80.1629C37.9535 80.4962 38.4868 81.0096 38.8735 81.7029C39.2601 82.3829 39.4535 83.2629 39.4535 84.3429V90.4629H36.9535V84.6629C36.9535 83.7162 36.7268 83.0096 36.2735 82.5429C35.8335 82.0762 35.2135 81.8429 34.4135 81.8429C33.8268 81.8429 33.3068 81.9629 32.8535 82.2029C32.4001 82.4429 32.0468 82.8029 31.7935 83.2829C31.5535 83.7496 31.4335 84.3429 31.4335 85.0629V90.4629H28.9335V79.7829H31.3135V82.6629L30.8935 81.7829C31.2668 81.1029 31.8068 80.5829 32.5135 80.2229C33.2335 79.8496 34.0601 79.6629 34.9935 79.6629ZM46.6449 90.6029C45.4715 90.6029 44.5649 90.3029 43.9249 89.7029C43.2849 89.0896 42.9649 88.1896 42.9649 87.0029V77.4229H45.4649V86.9429C45.4649 87.4496 45.5915 87.8429 45.8449 88.1229C46.1115 88.4029 46.4782 88.5429 46.9449 88.5429C47.5049 88.5429 47.9715 88.3962 48.3449 88.1029L49.0449 89.8829C48.7515 90.1229 48.3915 90.3029 47.9649 90.4229C47.5382 90.5429 47.0982 90.6029 46.6449 90.6029ZM41.2049 81.8629V79.8629H48.3249V81.8629H41.2049ZM51.1014 90.4629V79.7829H53.4814V82.7229L53.2014 81.8629C53.5214 81.1429 54.0214 80.5962 54.7014 80.2229C55.3948 79.8496 56.2548 79.6629 57.2814 79.6629V82.0429C57.1748 82.0162 57.0748 82.0029 56.9814 82.0029C56.8881 81.9896 56.7948 81.9829 56.7014 81.9829C55.7548 81.9829 55.0014 82.2629 54.4414 82.8229C53.8814 83.3696 53.6014 84.1896 53.6014 85.2829V90.4629H51.1014ZM64.1046 90.6029C63.0112 90.6029 62.0379 90.3696 61.1846 89.9029C60.3312 89.4229 59.6579 88.7696 59.1646 87.9429C58.6712 87.1162 58.4246 86.1762 58.4246 85.1229C58.4246 84.0562 58.6712 83.1162 59.1646 82.3029C59.6579 81.4762 60.3312 80.8296 61.1846 80.3629C62.0379 79.8962 63.0112 79.6629 64.1046 79.6629C65.2112 79.6629 66.1912 79.8962 67.0446 80.3629C67.9112 80.8296 68.5846 81.4696 69.0646 82.2829C69.5579 83.0962 69.8046 84.0429 69.8046 85.1229C69.8046 86.1762 69.5579 87.1162 69.0646 87.9429C68.5846 88.7696 67.9112 89.4229 67.0446 89.9029C66.1912 90.3696 65.2112 90.6029 64.1046 90.6029ZM64.1046 88.4629C64.7179 88.4629 65.2646 88.3296 65.7446 88.0629C66.2246 87.7962 66.5979 87.4096 66.8646 86.9029C67.1446 86.3962 67.2846 85.8029 67.2846 85.1229C67.2846 84.4296 67.1446 83.8362 66.8646 83.3429C66.5979 82.8362 66.2246 82.4496 65.7446 82.1829C65.2646 81.9162 64.7246 81.7829 64.1246 81.7829C63.5112 81.7829 62.9646 81.9162 62.4846 82.1829C62.0179 82.4496 61.6446 82.8362 61.3646 83.3429C61.0846 83.8362 60.9446 84.4296 60.9446 85.1229C60.9446 85.8029 61.0846 86.3962 61.3646 86.9029C61.6446 87.4096 62.0179 87.7962 62.4846 88.0629C62.9646 88.3296 63.5046 88.4629 64.1046 88.4629ZM72.1952 90.4629V75.6229H74.6952V90.4629H72.1952ZM90.2838 90.6629C89.1904 90.6629 88.1838 90.4896 87.2638 90.1429C86.3571 89.7829 85.5638 89.2829 84.8838 88.6429C84.2038 87.9896 83.6771 87.2229 83.3038 86.3429C82.9304 85.4629 82.7438 84.5029 82.7438 83.4629C82.7438 82.4229 82.9304 81.4629 83.3038 80.5829C83.6771 79.7029 84.2038 78.9429 84.8838 78.3029C85.5771 77.6496 86.3838 77.1496 87.3038 76.8029C88.2238 76.4429 89.2304 76.2629 90.3238 76.2629C91.5104 76.2629 92.5771 76.4562 93.5238 76.8429C94.4838 77.2296 95.2904 77.7962 95.9438 78.5429L94.3038 80.1429C93.7571 79.5962 93.1638 79.1962 92.5238 78.9429C91.8971 78.6762 91.2038 78.5429 90.4438 78.5429C89.7104 78.5429 89.0304 78.6629 88.4038 78.9029C87.7771 79.1429 87.2371 79.4829 86.7838 79.9229C86.3304 80.3629 85.9771 80.8829 85.7238 81.4829C85.4838 82.0829 85.3638 82.7429 85.3638 83.4629C85.3638 84.1696 85.4838 84.8229 85.7238 85.4229C85.9771 86.0229 86.3304 86.5496 86.7838 87.0029C87.2371 87.4429 87.7704 87.7829 88.3838 88.0229C88.9971 88.2629 89.6771 88.3829 90.4238 88.3829C91.1171 88.3829 91.7838 88.2762 92.4238 88.0629C93.0771 87.8362 93.6971 87.4629 94.2838 86.9429L95.7638 88.8829C95.0304 89.4696 94.1771 89.9162 93.2038 90.2229C92.2438 90.5162 91.2704 90.6629 90.2838 90.6629ZM93.3038 88.5429V83.3029H95.7638V88.8829L93.3038 88.5429ZM98.953 90.4629V79.7829H101.333V82.7229L101.053 81.8629C101.373 81.1429 101.873 80.5962 102.553 80.2229C103.246 79.8496 104.106 79.6629 105.133 79.6629V82.0429C105.026 82.0162 104.926 82.0029 104.833 82.0029C104.74 81.9896 104.646 81.9829 104.553 81.9829C103.606 81.9829 102.853 82.2629 102.293 82.8229C101.733 83.3696 101.453 84.1896 101.453 85.2829V90.4629H98.953ZM107.254 90.4629V79.7829H109.754V90.4629H107.254ZM108.514 78.0229C108.047 78.0229 107.66 77.8762 107.354 77.5829C107.06 77.2896 106.914 76.9362 106.914 76.5229C106.914 76.0962 107.06 75.7429 107.354 75.4629C107.66 75.1696 108.047 75.0229 108.514 75.0229C108.98 75.0229 109.36 75.1629 109.654 75.4429C109.96 75.7096 110.114 76.0496 110.114 76.4629C110.114 76.9029 109.967 77.2762 109.674 77.5829C109.38 77.8762 108.994 78.0229 108.514 78.0229ZM117.555 90.6029C116.528 90.6029 115.602 90.3762 114.775 89.9229C113.962 89.4562 113.322 88.8162 112.855 88.0029C112.388 87.1896 112.155 86.2296 112.155 85.1229C112.155 84.0162 112.388 83.0562 112.855 82.2429C113.322 81.4296 113.962 80.7962 114.775 80.3429C115.602 79.8896 116.528 79.6629 117.555 79.6629C118.448 79.6629 119.248 79.8629 119.955 80.2629C120.662 80.6496 121.222 81.2429 121.635 82.0429C122.048 82.8429 122.255 83.8696 122.255 85.1229C122.255 86.3629 122.055 87.3896 121.655 88.2029C121.255 89.0029 120.702 89.6029 119.995 90.0029C119.288 90.4029 118.475 90.6029 117.555 90.6029ZM117.855 88.4629C118.455 88.4629 118.988 88.3296 119.455 88.0629C119.935 87.7962 120.315 87.4096 120.595 86.9029C120.888 86.3962 121.035 85.8029 121.035 85.1229C121.035 84.4296 120.888 83.8362 120.595 83.3429C120.315 82.8362 119.935 82.4496 119.455 82.1829C118.988 81.9162 118.455 81.7829 117.855 81.7829C117.255 81.7829 116.715 81.9162 116.235 82.1829C115.768 82.4496 115.388 82.8362 115.095 83.3429C114.815 83.8362 114.675 84.4296 114.675 85.1229C114.675 85.8029 114.815 86.3962 115.095 86.9029C115.388 87.4096 115.768 87.7962 116.235 88.0629C116.715 88.3296 117.255 88.4629 117.855 88.4629ZM121.095 90.4629V87.9429L121.195 85.1029L120.995 82.2629V75.6229H123.475V90.4629H121.095Z" fill="black"/>
<path d="M39.5017 317.336H42.1017V331.336H39.5017V317.336ZM32.2617 331.336H29.6617V317.336H32.2617V331.336ZM39.7017 325.336H32.0417V323.116H39.7017V325.336ZM50.6331 331.476C49.4465 331.476 48.4065 331.243 47.5131 330.776C46.6331 330.296 45.9465 329.643 45.4531 328.816C44.9731 327.989 44.7331 327.049 44.7331 325.996C44.7331 324.929 44.9665 323.989 45.4331 323.176C45.9131 322.349 46.5665 321.703 47.3931 321.236C48.2331 320.769 49.1865 320.536 50.2531 320.536C51.2931 320.536 52.2198 320.763 53.0331 321.216C53.8465 321.669 54.4865 322.309 54.9531 323.136C55.4198 323.963 55.6531 324.936 55.6531 326.056C55.6531 326.163 55.6465 326.283 55.6331 326.416C55.6331 326.549 55.6265 326.676 55.6131 326.796H46.7131V325.136H54.2931L53.3131 325.656C53.3265 325.043 53.1998 324.503 52.9331 324.036C52.6665 323.569 52.2998 323.203 51.8331 322.936C51.3798 322.669 50.8531 322.536 50.2531 322.536C49.6398 322.536 49.0998 322.669 48.6331 322.936C48.1798 323.203 47.8198 323.576 47.5531 324.056C47.2998 324.523 47.1731 325.076 47.1731 325.716V326.116C47.1731 326.756 47.3198 327.323 47.6131 327.816C47.9065 328.309 48.3198 328.689 48.8531 328.956C49.3865 329.223 49.9998 329.356 50.6931 329.356C51.2931 329.356 51.8331 329.263 52.3131 329.076C52.7931 328.889 53.2198 328.596 53.5931 328.196L54.9331 329.736C54.4531 330.296 53.8465 330.729 53.1131 331.036C52.3931 331.329 51.5665 331.476 50.6331 331.476ZM64.3416 331.336V329.176L64.2016 328.716V324.936C64.2016 324.203 63.9816 323.636 63.5416 323.236C63.1016 322.823 62.4349 322.616 61.5416 322.616C60.9416 322.616 60.3482 322.709 59.7616 322.896C59.1882 323.083 58.7016 323.343 58.3016 323.676L57.3216 321.856C57.8949 321.416 58.5749 321.089 59.3616 320.876C60.1616 320.649 60.9882 320.536 61.8416 320.536C63.3882 320.536 64.5816 320.909 65.4216 321.656C66.2749 322.389 66.7016 323.529 66.7016 325.076V331.336H64.3416ZM60.9816 331.476C60.1816 331.476 59.4816 331.343 58.8816 331.076C58.2816 330.796 57.8149 330.416 57.4816 329.936C57.1616 329.443 57.0016 328.889 57.0016 328.276C57.0016 327.676 57.1416 327.136 57.4216 326.656C57.7149 326.176 58.1882 325.796 58.8416 325.516C59.4949 325.236 60.3616 325.096 61.4416 325.096H64.5416V326.756H61.6216C60.7682 326.756 60.1949 326.896 59.9016 327.176C59.6082 327.443 59.4616 327.776 59.4616 328.176C59.4616 328.629 59.6416 328.989 60.0016 329.256C60.3616 329.523 60.8616 329.656 61.5016 329.656C62.1149 329.656 62.6616 329.516 63.1416 329.236C63.6349 328.956 63.9882 328.543 64.2016 327.996L64.6216 329.496C64.3816 330.123 63.9482 330.609 63.3216 330.956C62.7082 331.303 61.9282 331.476 60.9816 331.476ZM73.93 331.476C72.7567 331.476 71.85 331.176 71.21 330.576C70.57 329.963 70.25 329.063 70.25 327.876V318.296H72.75V327.816C72.75 328.323 72.8767 328.716 73.13 328.996C73.3967 329.276 73.7634 329.416 74.23 329.416C74.79 329.416 75.2567 329.269 75.63 328.976L76.33 330.756C76.0367 330.996 75.6767 331.176 75.25 331.296C74.8234 331.416 74.3834 331.476 73.93 331.476ZM68.49 322.736V320.736H75.61V322.736H68.49ZM83.055 331.476C81.8684 331.476 80.8284 331.243 79.935 330.776C79.055 330.296 78.3684 329.643 77.875 328.816C77.395 327.989 77.155 327.049 77.155 325.996C77.155 324.929 77.3884 323.989 77.855 323.176C78.335 322.349 78.9884 321.703 79.815 321.236C80.655 320.769 81.6084 320.536 82.675 320.536C83.715 320.536 84.6417 320.763 85.455 321.216C86.2684 321.669 86.9084 322.309 87.375 323.136C87.8417 323.963 88.075 324.936 88.075 326.056C88.075 326.163 88.0684 326.283 88.055 326.416C88.055 326.549 88.0484 326.676 88.035 326.796H79.135V325.136H86.715L85.735 325.656C85.7484 325.043 85.6217 324.503 85.355 324.036C85.0884 323.569 84.7217 323.203 84.255 322.936C83.8017 322.669 83.275 322.536 82.675 322.536C82.0617 322.536 81.5217 322.669 81.055 322.936C80.6017 323.203 80.2417 323.576 79.975 324.056C79.7217 324.523 79.595 325.076 79.595 325.716V326.116C79.595 326.756 79.7417 327.323 80.035 327.816C80.3284 328.309 80.7417 328.689 81.275 328.956C81.8084 329.223 82.4217 329.356 83.115 329.356C83.715 329.356 84.255 329.263 84.735 329.076C85.215 328.889 85.6417 328.596 86.015 328.196L87.355 329.736C86.875 330.296 86.2684 330.729 85.535 331.036C84.815 331.329 83.9884 331.476 83.055 331.476ZM90.4764 331.336V320.656H92.8564V323.596L92.5764 322.736C92.8964 322.016 93.3964 321.469 94.0764 321.096C94.7698 320.723 95.6298 320.536 96.6564 320.536V322.916C96.5498 322.889 96.4498 322.876 96.3564 322.876C96.2631 322.863 96.1698 322.856 96.0764 322.856C95.1298 322.856 94.3764 323.136 93.8164 323.696C93.2564 324.243 92.9764 325.063 92.9764 326.156V331.336H90.4764Z" fill="black"/>
<path d="M135.056 315.76C133.99 315.76 132.996 315.586 132.076 315.24C131.17 314.88 130.376 314.38 129.696 313.74C129.03 313.086 128.51 312.32 128.136 311.44C127.763 310.56 127.576 309.6 127.576 308.56C127.576 307.52 127.763 306.56 128.136 305.68C128.51 304.8 129.036 304.04 129.716 303.4C130.396 302.746 131.19 302.246 132.096 301.9C133.003 301.54 133.996 301.36 135.076 301.36C136.223 301.36 137.27 301.56 138.216 301.96C139.163 302.346 139.963 302.926 140.616 303.7L138.936 305.28C138.43 304.733 137.863 304.326 137.236 304.06C136.61 303.78 135.93 303.64 135.196 303.64C134.463 303.64 133.79 303.76 133.176 304C132.576 304.24 132.05 304.58 131.596 305.02C131.156 305.46 130.81 305.98 130.556 306.58C130.316 307.18 130.196 307.84 130.196 308.56C130.196 309.28 130.316 309.94 130.556 310.54C130.81 311.14 131.156 311.66 131.596 312.1C132.05 312.54 132.576 312.88 133.176 313.12C133.79 313.36 134.463 313.48 135.196 313.48C135.93 313.48 136.61 313.346 137.236 313.08C137.863 312.8 138.43 312.38 138.936 311.82L140.616 313.42C139.963 314.18 139.163 314.76 138.216 315.16C137.27 315.56 136.216 315.76 135.056 315.76ZM149.35 315.56V313.4L149.21 312.94V309.16C149.21 308.426 148.99 307.86 148.55 307.46C148.11 307.046 147.443 306.84 146.55 306.84C145.95 306.84 145.357 306.933 144.77 307.12C144.197 307.306 143.71 307.566 143.31 307.9L142.33 306.08C142.903 305.64 143.583 305.313 144.37 305.1C145.17 304.873 145.997 304.76 146.85 304.76C148.397 304.76 149.59 305.133 150.43 305.88C151.283 306.613 151.71 307.753 151.71 309.3V315.56H149.35ZM145.99 315.7C145.19 315.7 144.49 315.566 143.89 315.3C143.29 315.02 142.823 314.64 142.49 314.16C142.17 313.666 142.01 313.113 142.01 312.5C142.01 311.9 142.15 311.36 142.43 310.88C142.723 310.4 143.197 310.02 143.85 309.74C144.503 309.46 145.37 309.32 146.45 309.32H149.55V310.98H146.63C145.777 310.98 145.203 311.12 144.91 311.4C144.617 311.666 144.47 312 144.47 312.4C144.47 312.853 144.65 313.213 145.01 313.48C145.37 313.746 145.87 313.88 146.51 313.88C147.123 313.88 147.67 313.74 148.15 313.46C148.643 313.18 148.997 312.766 149.21 312.22L149.63 313.72C149.39 314.346 148.957 314.833 148.33 315.18C147.717 315.526 146.937 315.7 145.99 315.7ZM158.938 315.7C157.765 315.7 156.858 315.4 156.218 314.8C155.578 314.186 155.258 313.286 155.258 312.1V302.52H157.758V312.04C157.758 312.546 157.885 312.94 158.138 313.22C158.405 313.5 158.772 313.64 159.238 313.64C159.798 313.64 160.265 313.493 160.638 313.2L161.338 314.98C161.045 315.22 160.685 315.4 160.258 315.52C159.832 315.64 159.392 315.7 158.938 315.7ZM153.498 306.96V304.96H160.618V306.96H153.498ZM169.455 304.76C170.308 304.76 171.068 304.926 171.735 305.26C172.415 305.593 172.948 306.106 173.335 306.8C173.722 307.48 173.915 308.36 173.915 309.44V315.56H171.415V309.76C171.415 308.813 171.188 308.106 170.735 307.64C170.295 307.173 169.675 306.94 168.875 306.94C168.288 306.94 167.768 307.06 167.315 307.3C166.862 307.54 166.508 307.9 166.255 308.38C166.015 308.846 165.895 309.44 165.895 310.16V315.56H163.395V300.72H165.895V307.76L165.355 306.88C165.728 306.2 166.268 305.68 166.975 305.32C167.695 304.946 168.522 304.76 169.455 304.76ZM181.906 315.7C180.812 315.7 179.839 315.466 178.986 315C178.132 314.52 177.459 313.866 176.966 313.04C176.472 312.213 176.226 311.273 176.226 310.22C176.226 309.153 176.472 308.213 176.966 307.4C177.459 306.573 178.132 305.926 178.986 305.46C179.839 304.993 180.812 304.76 181.906 304.76C183.012 304.76 183.992 304.993 184.846 305.46C185.712 305.926 186.386 306.566 186.866 307.38C187.359 308.193 187.606 309.14 187.606 310.22C187.606 311.273 187.359 312.213 186.866 313.04C186.386 313.866 185.712 314.52 184.846 315C183.992 315.466 183.012 315.7 181.906 315.7ZM181.906 313.56C182.519 313.56 183.066 313.426 183.546 313.16C184.026 312.893 184.399 312.506 184.666 312C184.946 311.493 185.086 310.9 185.086 310.22C185.086 309.526 184.946 308.933 184.666 308.44C184.399 307.933 184.026 307.546 183.546 307.28C183.066 307.013 182.526 306.88 181.926 306.88C181.312 306.88 180.766 307.013 180.286 307.28C179.819 307.546 179.446 307.933 179.166 308.44C178.886 308.933 178.746 309.526 178.746 310.22C178.746 310.9 178.886 311.493 179.166 312C179.446 312.506 179.819 312.893 180.286 313.16C180.766 313.426 181.306 313.56 181.906 313.56ZM194.516 315.7C193.49 315.7 192.563 315.473 191.736 315.02C190.923 314.553 190.283 313.913 189.816 313.1C189.35 312.286 189.116 311.326 189.116 310.22C189.116 309.113 189.35 308.153 189.816 307.34C190.283 306.526 190.923 305.893 191.736 305.44C192.563 304.986 193.49 304.76 194.516 304.76C195.41 304.76 196.21 304.96 196.916 305.36C197.623 305.746 198.183 306.34 198.596 307.14C199.01 307.94 199.216 308.966 199.216 310.22C199.216 311.46 199.016 312.486 198.616 313.3C198.216 314.1 197.663 314.7 196.956 315.1C196.25 315.5 195.436 315.7 194.516 315.7ZM194.816 313.56C195.416 313.56 195.95 313.426 196.416 313.16C196.896 312.893 197.276 312.506 197.556 312C197.85 311.493 197.996 310.9 197.996 310.22C197.996 309.526 197.85 308.933 197.556 308.44C197.276 307.933 196.896 307.546 196.416 307.28C195.95 307.013 195.416 306.88 194.816 306.88C194.216 306.88 193.676 307.013 193.196 307.28C192.73 307.546 192.35 307.933 192.056 308.44C191.776 308.933 191.636 309.526 191.636 310.22C191.636 310.9 191.776 311.493 192.056 312C192.35 312.506 192.73 312.893 193.196 313.16C193.676 313.426 194.216 313.56 194.816 313.56ZM198.056 315.56V313.04L198.156 310.2L197.956 307.36V300.72H200.436V315.56H198.056ZM208.747 315.7C207.56 315.7 206.52 315.466 205.627 315C204.747 314.52 204.06 313.866 203.567 313.04C203.087 312.213 202.847 311.273 202.847 310.22C202.847 309.153 203.08 308.213 203.547 307.4C204.027 306.573 204.68 305.926 205.507 305.46C206.347 304.993 207.3 304.76 208.367 304.76C209.407 304.76 210.334 304.986 211.147 305.44C211.96 305.893 212.6 306.533 213.067 307.36C213.534 308.186 213.767 309.16 213.767 310.28C213.767 310.386 213.76 310.506 213.747 310.64C213.747 310.773 213.74 310.9 213.727 311.02H204.827V309.36H212.407L211.427 309.88C211.44 309.266 211.314 308.726 211.047 308.26C210.78 307.793 210.414 307.426 209.947 307.16C209.494 306.893 208.967 306.76 208.367 306.76C207.754 306.76 207.214 306.893 206.747 307.16C206.294 307.426 205.934 307.8 205.667 308.28C205.414 308.746 205.287 309.3 205.287 309.94V310.34C205.287 310.98 205.434 311.546 205.727 312.04C206.02 312.533 206.434 312.913 206.967 313.18C207.5 313.446 208.114 313.58 208.807 313.58C209.407 313.58 209.947 313.486 210.427 313.3C210.907 313.113 211.334 312.82 211.707 312.42L213.047 313.96C212.567 314.52 211.96 314.953 211.227 315.26C210.507 315.553 209.68 315.7 208.747 315.7Z" fill="black"/>
<path d="M467.58 488.91H474.04V491.97H467.58V488.91ZM467.86 496.77H463.9V482.77H474.88V485.83H467.86V496.77ZM476.552 496.77V485.93H480.352V496.77H476.552ZM478.452 484.73C477.759 484.73 477.199 484.536 476.772 484.15C476.345 483.763 476.132 483.283 476.132 482.71C476.132 482.136 476.345 481.656 476.772 481.27C477.199 480.883 477.759 480.69 478.452 480.69C479.145 480.69 479.705 480.876 480.132 481.25C480.559 481.61 480.772 482.076 480.772 482.65C480.772 483.25 480.559 483.75 480.132 484.15C479.719 484.536 479.159 484.73 478.452 484.73ZM488.122 500.83C487.082 500.83 486.088 500.71 485.142 500.47C484.208 500.23 483.408 499.876 482.742 499.41L484.122 496.75C484.575 497.11 485.135 497.39 485.802 497.59C486.482 497.803 487.142 497.91 487.782 497.91C488.808 497.91 489.548 497.683 490.002 497.23C490.455 496.79 490.682 496.143 490.682 495.29V494.01L490.882 490.97L490.862 487.91V485.93H494.482V494.79C494.482 496.843 493.928 498.363 492.822 499.35C491.715 500.336 490.148 500.83 488.122 500.83ZM487.462 496.21C486.502 496.21 485.615 495.996 484.802 495.57C484.002 495.13 483.355 494.523 482.862 493.75C482.382 492.963 482.142 492.036 482.142 490.97C482.142 489.903 482.382 488.983 482.862 488.21C483.355 487.423 484.002 486.816 484.802 486.39C485.615 485.963 486.502 485.75 487.462 485.75C488.382 485.75 489.168 485.936 489.822 486.31C490.475 486.67 490.968 487.236 491.302 488.01C491.648 488.783 491.822 489.77 491.822 490.97C491.822 492.17 491.648 493.156 491.302 493.93C490.968 494.703 490.475 495.276 489.822 495.65C489.168 496.023 488.382 496.21 487.462 496.21ZM488.362 493.19C488.815 493.19 489.215 493.096 489.562 492.91C489.922 492.723 490.202 492.463 490.402 492.13C490.615 491.796 490.722 491.41 490.722 490.97C490.722 490.53 490.615 490.143 490.402 489.81C490.202 489.476 489.922 489.223 489.562 489.05C489.215 488.863 488.815 488.77 488.362 488.77C487.908 488.77 487.502 488.863 487.142 489.05C486.782 489.223 486.495 489.476 486.282 489.81C486.082 490.143 485.982 490.53 485.982 490.97C485.982 491.41 486.082 491.796 486.282 492.13C486.495 492.463 486.782 492.723 487.142 492.91C487.502 493.096 487.908 493.19 488.362 493.19ZM504.243 496.77V484.19L505.943 485.83H501.643V482.77H508.203V496.77H504.243ZM512.449 496.95C511.809 496.95 511.269 496.736 510.829 496.31C510.389 495.883 510.169 495.343 510.169 494.69C510.169 494.01 510.389 493.47 510.829 493.07C511.269 492.656 511.809 492.45 512.449 492.45C513.089 492.45 513.629 492.656 514.069 493.07C514.509 493.47 514.729 494.01 514.729 494.69C514.729 495.343 514.509 495.883 514.069 496.31C513.629 496.736 513.089 496.95 512.449 496.95ZM517.661 496.77V484.19L519.361 485.83H515.061V482.77H521.621V496.77H517.661Z" fill="black"/>
</svg>
