<svg width="976" height="48" viewBox="0 0 976 48" fill="none" xmlns="http://www.w3.org/2000/svg">
<path d="M31.5329 31.9407C29.7622 31.9407 28.1196 31.6633 26.6049 31.1087C25.1116 30.5327 23.8102 29.722 22.7009 28.6767C21.6129 27.6313 20.7596 26.4047 20.1409 24.9967C19.5222 23.5673 19.2129 21.9993 19.2129 20.2927C19.2129 18.586 19.5222 17.0287 20.1409 15.6207C20.7596 14.1913 21.6129 12.954 22.7009 11.9087C23.8102 10.8633 25.1116 10.0633 26.6049 9.50867C28.1196 8.93267 29.7622 8.64467 31.5329 8.64467C33.6022 8.64467 35.4476 9.00734 37.0689 9.73268C38.7116 10.458 40.0769 11.5033 41.1649 12.8687L37.1329 16.5167C36.4076 15.6633 35.6076 15.0127 34.7329 14.5647C33.8796 14.1167 32.9196 13.8927 31.8529 13.8927C30.9356 13.8927 30.0929 14.042 29.3249 14.3407C28.5569 14.6393 27.8956 15.0767 27.3409 15.6527C26.8076 16.2073 26.3809 16.8793 26.0609 17.6687C25.7622 18.458 25.6129 19.3327 25.6129 20.2927C25.6129 21.2527 25.7622 22.1273 26.0609 22.9167C26.3809 23.706 26.8076 24.3887 27.3409 24.9647C27.8956 25.5193 28.5569 25.946 29.3249 26.2447C30.0929 26.5433 30.9356 26.6927 31.8529 26.6927C32.9196 26.6927 33.8796 26.4687 34.7329 26.0207C35.6076 25.5727 36.4076 24.922 37.1329 24.0687L41.1649 27.7167C40.0769 29.0607 38.7116 30.106 37.0689 30.8527C35.4476 31.578 33.6022 31.9407 31.5329 31.9407ZM52.2274 31.7807C50.1794 31.7807 48.3874 31.3967 46.8514 30.6287C45.3367 29.8393 44.1527 28.7727 43.2994 27.4287C42.4674 26.0633 42.0514 24.5167 42.0514 22.7887C42.0514 21.0607 42.4567 19.5247 43.2674 18.1807C44.0994 16.8153 45.2407 15.7593 46.6914 15.0127C48.1421 14.2447 49.7741 13.8607 51.5874 13.8607C53.2941 13.8607 54.8514 14.2127 56.2594 14.9167C57.6674 15.5993 58.7874 16.6127 59.6194 17.9567C60.4514 19.3007 60.8674 20.9327 60.8674 22.8527C60.8674 23.066 60.8567 23.3113 60.8354 23.5887C60.8141 23.866 60.7927 24.122 60.7714 24.3567H47.0434V21.1567H57.5394L55.2354 22.0527C55.2567 21.2633 55.1074 20.5807 54.7874 20.0047C54.4887 19.4287 54.0621 18.9807 53.5074 18.6607C52.9741 18.3407 52.3447 18.1807 51.6194 18.1807C50.8941 18.1807 50.2541 18.3407 49.6994 18.6607C49.1661 18.9807 48.7501 19.4393 48.4514 20.0367C48.1527 20.6127 48.0034 21.2953 48.0034 22.0847V23.0127C48.0034 23.866 48.1741 24.602 48.5154 25.2207C48.8781 25.8393 49.3901 26.3193 50.0514 26.6607C50.7127 26.9807 51.5021 27.1407 52.4194 27.1407C53.2727 27.1407 53.9981 27.0233 54.5954 26.7887C55.2141 26.5327 55.8221 26.1487 56.4194 25.6367L59.6194 28.9647C58.7874 29.882 57.7634 30.586 56.5474 31.0767C55.3314 31.546 53.8914 31.7807 52.2274 31.7807ZM63.6707 31.4927V7.74867H69.7507V31.4927H63.6707ZM73.7019 31.4927V7.74867H79.7819V31.4927H73.7019ZM90.0372 31.7807C88.5652 31.7807 87.1252 31.61 85.7172 31.2687C84.3305 30.9273 83.2105 30.5007 82.3572 29.9887L84.1812 25.8287C84.9918 26.3193 85.9412 26.714 87.0292 27.0127C88.1172 27.29 89.1838 27.4287 90.2292 27.4287C91.2532 27.4287 91.9572 27.322 92.3412 27.1087C92.7465 26.8953 92.9492 26.6073 92.9492 26.2447C92.9492 25.9033 92.7572 25.658 92.3732 25.5087C92.0105 25.338 91.5198 25.21 90.9012 25.1247C90.3038 25.0393 89.6425 24.9433 88.9172 24.8367C88.1918 24.73 87.4558 24.5913 86.7092 24.4207C85.9838 24.2287 85.3118 23.9513 84.6932 23.5887C84.0958 23.2047 83.6158 22.6927 83.2532 22.0527C82.8905 21.4127 82.7092 20.602 82.7092 19.6207C82.7092 18.5113 83.0292 17.53 83.6692 16.6767C84.3305 15.802 85.2905 15.1193 86.5492 14.6287C87.8078 14.1167 89.3438 13.8607 91.1572 13.8607C92.3732 13.8607 93.5998 13.9887 94.8372 14.2447C96.0958 14.4793 97.1518 14.842 98.0052 15.3327L96.1812 19.4607C95.3278 18.97 94.4745 18.6393 93.6212 18.4687C92.7678 18.2767 91.9572 18.1807 91.1892 18.1807C90.1652 18.1807 89.4398 18.298 89.0132 18.5327C88.6078 18.7673 88.4052 19.0553 88.4052 19.3967C88.4052 19.738 88.5865 20.0047 88.9492 20.1967C89.3118 20.3673 89.7918 20.506 90.3892 20.6127C91.0078 20.698 91.6798 20.794 92.4052 20.9007C93.1305 20.986 93.8558 21.1247 94.5812 21.3167C95.3278 21.5087 95.9998 21.7967 96.5972 22.1807C97.2158 22.5433 97.7065 23.0447 98.0692 23.6847C98.4318 24.3033 98.6132 25.1033 98.6132 26.0847C98.6132 27.1513 98.2825 28.1113 97.6212 28.9647C96.9812 29.818 96.0212 30.5007 94.7412 31.0127C93.4825 31.5247 91.9145 31.7807 90.0372 31.7807ZM110.13 24.7087V20.0367H119.474V24.7087H110.13ZM122.856 28.5807V23.9087L136.872 18.9487V21.6367L122.856 16.6767V12.0047L138.632 17.8287V22.7567L122.856 28.5807ZM156.82 31.4927V14.1167H149.94V9.09267H170.004V14.1167H163.156V31.4927H156.82ZM172.077 31.4927V14.1487H178.157V31.4927H172.077ZM175.117 12.2287C174.008 12.2287 173.112 11.9193 172.429 11.3007C171.746 10.682 171.405 9.91401 171.405 8.99668C171.405 8.07934 171.746 7.31134 172.429 6.69267C173.112 6.07401 174.008 5.76468 175.117 5.76468C176.226 5.76468 177.122 6.06334 177.805 6.66068C178.488 7.23668 178.829 7.98334 178.829 8.90067C178.829 9.86068 178.488 10.6607 177.805 11.3007C177.144 11.9193 176.248 12.2287 175.117 12.2287ZM188.412 31.7807C186.94 31.7807 185.5 31.61 184.092 31.2687C182.705 30.9273 181.585 30.5007 180.732 29.9887L182.556 25.8287C183.367 26.3193 184.316 26.714 185.404 27.0127C186.492 27.29 187.559 27.4287 188.604 27.4287C189.628 27.4287 190.332 27.322 190.716 27.1087C191.121 26.8953 191.324 26.6073 191.324 26.2447C191.324 25.9033 191.132 25.658 190.748 25.5087C190.385 25.338 189.895 25.21 189.276 25.1247C188.679 25.0393 188.017 24.9433 187.292 24.8367C186.567 24.73 185.831 24.5913 185.084 24.4207C184.359 24.2287 183.687 23.9513 183.068 23.5887C182.471 23.2047 181.991 22.6927 181.628 22.0527C181.265 21.4127 181.084 20.602 181.084 19.6207C181.084 18.5113 181.404 17.53 182.044 16.6767C182.705 15.802 183.665 15.1193 184.924 14.6287C186.183 14.1167 187.719 13.8607 189.532 13.8607C190.748 13.8607 191.975 13.9887 193.212 14.2447C194.471 14.4793 195.527 14.842 196.38 15.3327L194.556 19.4607C193.703 18.97 192.849 18.6393 191.996 18.4687C191.143 18.2767 190.332 18.1807 189.564 18.1807C188.54 18.1807 187.815 18.298 187.388 18.5327C186.983 18.7673 186.78 19.0553 186.78 19.3967C186.78 19.738 186.961 20.0047 187.324 20.1967C187.687 20.3673 188.167 20.506 188.764 20.6127C189.383 20.698 190.055 20.794 190.78 20.9007C191.505 20.986 192.231 21.1247 192.956 21.3167C193.703 21.5087 194.375 21.7967 194.972 22.1807C195.591 22.5433 196.081 23.0447 196.444 23.6847C196.807 24.3033 196.988 25.1033 196.988 26.0847C196.988 27.1513 196.657 28.1113 195.996 28.9647C195.356 29.818 194.396 30.5007 193.116 31.0127C191.857 31.5247 190.289 31.7807 188.412 31.7807ZM205.912 31.7807C204.44 31.7807 203 31.61 201.592 31.2687C200.205 30.9273 199.085 30.5007 198.232 29.9887L200.056 25.8287C200.867 26.3193 201.816 26.714 202.904 27.0127C203.992 27.29 205.059 27.4287 206.104 27.4287C207.128 27.4287 207.832 27.322 208.216 27.1087C208.621 26.8953 208.824 26.6073 208.824 26.2447C208.824 25.9033 208.632 25.658 208.248 25.5087C207.885 25.338 207.395 25.21 206.776 25.1247C206.179 25.0393 205.517 24.9433 204.792 24.8367C204.067 24.73 203.331 24.5913 202.584 24.4207C201.859 24.2287 201.187 23.9513 200.568 23.5887C199.971 23.2047 199.491 22.6927 199.128 22.0527C198.765 21.4127 198.584 20.602 198.584 19.6207C198.584 18.5113 198.904 17.53 199.544 16.6767C200.205 15.802 201.165 15.1193 202.424 14.6287C203.683 14.1167 205.219 13.8607 207.032 13.8607C208.248 13.8607 209.475 13.9887 210.712 14.2447C211.971 14.4793 213.027 14.842 213.88 15.3327L212.056 19.4607C211.203 18.97 210.349 18.6393 209.496 18.4687C208.643 18.2767 207.832 18.1807 207.064 18.1807C206.04 18.1807 205.315 18.298 204.888 18.5327C204.483 18.7673 204.28 19.0553 204.28 19.3967C204.28 19.738 204.461 20.0047 204.824 20.1967C205.187 20.3673 205.667 20.506 206.264 20.6127C206.883 20.698 207.555 20.794 208.28 20.9007C209.005 20.986 209.731 21.1247 210.456 21.3167C211.203 21.5087 211.875 21.7967 212.472 22.1807C213.091 22.5433 213.581 23.0447 213.944 23.6847C214.307 24.3033 214.488 25.1033 214.488 26.0847C214.488 27.1513 214.157 28.1113 213.496 28.9647C212.856 29.818 211.896 30.5007 210.616 31.0127C209.357 31.5247 207.789 31.7807 205.912 31.7807ZM224.404 31.7807C222.996 31.7807 221.727 31.5033 220.596 30.9487C219.487 30.394 218.612 29.53 217.972 28.3567C217.353 27.162 217.044 25.658 217.044 23.8447V14.1487H223.124V22.8527C223.124 24.1967 223.369 25.1567 223.86 25.7327C224.372 26.3087 225.087 26.5967 226.004 26.5967C226.601 26.5967 227.145 26.458 227.636 26.1807C228.127 25.9033 228.521 25.466 228.82 24.8687C229.119 24.25 229.268 23.4607 229.268 22.5007V14.1487H235.348V31.4927H229.556V26.5967L230.676 27.9727C230.079 29.2527 229.215 30.2127 228.084 30.8527C226.953 31.4713 225.727 31.7807 224.404 31.7807ZM248.352 31.7807C246.304 31.7807 244.512 31.3967 242.976 30.6287C241.462 29.8393 240.278 28.7727 239.424 27.4287C238.592 26.0633 238.176 24.5167 238.176 22.7887C238.176 21.0607 238.582 19.5247 239.392 18.1807C240.224 16.8153 241.366 15.7593 242.816 15.0127C244.267 14.2447 245.899 13.8607 247.712 13.8607C249.419 13.8607 250.976 14.2127 252.384 14.9167C253.792 15.5993 254.912 16.6127 255.744 17.9567C256.576 19.3007 256.992 20.9327 256.992 22.8527C256.992 23.066 256.982 23.3113 256.96 23.5887C256.939 23.866 256.918 24.122 256.896 24.3567H243.168V21.1567H253.664L251.36 22.0527C251.382 21.2633 251.232 20.5807 250.912 20.0047C250.614 19.4287 250.187 18.9807 249.632 18.6607C249.099 18.3407 248.47 18.1807 247.744 18.1807C247.019 18.1807 246.379 18.3407 245.824 18.6607C245.291 18.9807 244.875 19.4393 244.576 20.0367C244.278 20.6127 244.128 21.2953 244.128 22.0847V23.0127C244.128 23.866 244.299 24.602 244.64 25.2207C245.003 25.8393 245.515 26.3193 246.176 26.6607C246.838 26.9807 247.627 27.1407 248.544 27.1407C249.398 27.1407 250.123 27.0233 250.72 26.7887C251.339 26.5327 251.947 26.1487 252.544 25.6367L255.744 28.9647C254.912 29.882 253.888 30.586 252.672 31.0767C251.456 31.546 250.016 31.7807 248.352 31.7807ZM266.1 31.7807C264.628 31.7807 263.188 31.61 261.78 31.2687C260.393 30.9273 259.273 30.5007 258.42 29.9887L260.244 25.8287C261.054 26.3193 262.004 26.714 263.092 27.0127C264.18 27.29 265.246 27.4287 266.292 27.4287C267.316 27.4287 268.02 27.322 268.404 27.1087C268.809 26.8953 269.012 26.6073 269.012 26.2447C269.012 25.9033 268.82 25.658 268.436 25.5087C268.073 25.338 267.582 25.21 266.964 25.1247C266.366 25.0393 265.705 24.9433 264.98 24.8367C264.254 24.73 263.518 24.5913 262.772 24.4207C262.046 24.2287 261.374 23.9513 260.756 23.5887C260.158 23.2047 259.678 22.6927 259.316 22.0527C258.953 21.4127 258.772 20.602 258.772 19.6207C258.772 18.5113 259.092 17.53 259.732 16.6767C260.393 15.802 261.353 15.1193 262.612 14.6287C263.87 14.1167 265.406 13.8607 267.22 13.8607C268.436 13.8607 269.662 13.9887 270.9 14.2447C272.158 14.4793 273.214 14.842 274.068 15.3327L272.244 19.4607C271.39 18.97 270.537 18.6393 269.684 18.4687C268.83 18.2767 268.02 18.1807 267.252 18.1807C266.228 18.1807 265.502 18.298 265.076 18.5327C264.67 18.7673 264.468 19.0553 264.468 19.3967C264.468 19.738 264.649 20.0047 265.012 20.1967C265.374 20.3673 265.854 20.506 266.452 20.6127C267.07 20.698 267.742 20.794 268.468 20.9007C269.193 20.986 269.918 21.1247 270.644 21.3167C271.39 21.5087 272.062 21.7967 272.66 22.1807C273.278 22.5433 273.769 23.0447 274.132 23.6847C274.494 24.3033 274.676 25.1033 274.676 26.0847C274.676 27.1513 274.345 28.1113 273.684 28.9647C273.044 29.818 272.084 30.5007 270.804 31.0127C269.545 31.5247 267.977 31.7807 266.1 31.7807ZM286.192 24.7087V20.0367H295.536V24.7087H286.192ZM298.918 28.5807V23.9087L312.934 18.9487V21.6367L298.918 16.6767V12.0047L314.694 17.8287V22.7567L298.918 28.5807ZM339.411 31.9407C337.619 31.9407 335.966 31.6527 334.451 31.0767C332.936 30.5007 331.614 29.69 330.483 28.6447C329.374 27.578 328.51 26.3407 327.891 24.9327C327.272 23.5247 326.963 21.978 326.963 20.2927C326.963 18.6073 327.272 17.0607 327.891 15.6527C328.51 14.2447 329.374 13.018 330.483 11.9727C331.614 10.906 332.936 10.0847 334.451 9.50867C335.966 8.93267 337.619 8.64467 339.411 8.64467C341.224 8.64467 342.878 8.93267 344.371 9.50867C345.886 10.0847 347.198 10.906 348.307 11.9727C349.416 13.018 350.28 14.2447 350.899 15.6527C351.539 17.0607 351.859 18.6073 351.859 20.2927C351.859 21.978 351.539 23.5353 350.899 24.9647C350.28 26.3727 349.416 27.5993 348.307 28.6447C347.198 29.69 345.886 30.5007 344.371 31.0767C342.878 31.6527 341.224 31.9407 339.411 31.9407ZM339.411 26.6927C340.264 26.6927 341.054 26.5433 341.779 26.2447C342.526 25.946 343.166 25.5193 343.699 24.9647C344.254 24.3887 344.68 23.706 344.979 22.9167C345.299 22.1273 345.459 21.2527 345.459 20.2927C345.459 19.3113 345.299 18.4367 344.979 17.6687C344.68 16.8793 344.254 16.2073 343.699 15.6527C343.166 15.0767 342.526 14.6393 341.779 14.3407C341.054 14.042 340.264 13.8927 339.411 13.8927C338.558 13.8927 337.758 14.042 337.011 14.3407C336.286 14.6393 335.646 15.0767 335.091 15.6527C334.558 16.2073 334.131 16.8793 333.811 17.6687C333.512 18.4367 333.363 19.3113 333.363 20.2927C333.363 21.2527 333.512 22.1273 333.811 22.9167C334.131 23.706 334.558 24.3887 335.091 24.9647C335.646 25.5193 336.286 25.946 337.011 26.2447C337.758 26.5433 338.558 26.6927 339.411 26.6927ZM354.889 31.4927V14.1487H360.681V19.2047L359.817 17.7647C360.329 16.4633 361.161 15.4927 362.313 14.8527C363.465 14.1913 364.863 13.8607 366.505 13.8607V19.3327C366.228 19.29 365.983 19.2687 365.769 19.2687C365.577 19.2473 365.364 19.2367 365.129 19.2367C363.892 19.2367 362.889 19.578 362.121 20.2607C361.353 20.922 360.969 22.01 360.969 23.5247V31.4927H354.889ZM377.338 37.9887C375.674 37.9887 374.085 37.7967 372.57 37.4127C371.077 37.0287 369.797 36.4633 368.73 35.7167L370.938 31.4607C371.663 32.0367 372.559 32.4847 373.626 32.8047C374.714 33.146 375.77 33.3167 376.794 33.3167C378.437 33.3167 379.621 32.954 380.346 32.2287C381.071 31.5247 381.434 30.49 381.434 29.1247V27.0767L381.754 22.2127L381.722 17.3167V14.1487H387.514V28.3247C387.514 31.61 386.629 34.042 384.858 35.6207C383.087 37.1993 380.581 37.9887 377.338 37.9887ZM376.282 30.5967C374.746 30.5967 373.327 30.2553 372.026 29.5727C370.746 28.8687 369.711 27.898 368.922 26.6607C368.154 25.402 367.77 23.9193 367.77 22.2127C367.77 20.506 368.154 19.034 368.922 17.7967C369.711 16.538 370.746 15.5673 372.026 14.8847C373.327 14.202 374.746 13.8607 376.282 13.8607C377.754 13.8607 379.013 14.1593 380.058 14.7567C381.103 15.3327 381.893 16.2393 382.426 17.4767C382.981 18.714 383.258 20.2927 383.258 22.2127C383.258 24.1327 382.981 25.7113 382.426 26.9487C381.893 28.186 381.103 29.1033 380.058 29.7007C379.013 30.298 377.754 30.5967 376.282 30.5967ZM377.722 25.7647C378.447 25.7647 379.087 25.6153 379.642 25.3167C380.218 25.018 380.666 24.602 380.986 24.0687C381.327 23.5353 381.498 22.9167 381.498 22.2127C381.498 21.5087 381.327 20.89 380.986 20.3567C380.666 19.8233 380.218 19.418 379.642 19.1407C379.087 18.842 378.447 18.6927 377.722 18.6927C376.997 18.6927 376.346 18.842 375.77 19.1407C375.194 19.418 374.735 19.8233 374.394 20.3567C374.074 20.89 373.914 21.5087 373.914 22.2127C373.914 22.9167 374.074 23.5353 374.394 24.0687C374.735 24.602 375.194 25.018 375.77 25.3167C376.346 25.6153 376.997 25.7647 377.722 25.7647ZM402.013 31.4927V28.2607L401.597 27.4607V21.5087C401.597 20.5487 401.298 19.8127 400.701 19.3007C400.125 18.7673 399.197 18.5007 397.917 18.5007C397.085 18.5007 396.242 18.6393 395.389 18.9167C394.535 19.1727 393.81 19.5353 393.213 20.0047L391.165 15.8767C392.146 15.2367 393.319 14.746 394.685 14.4047C396.071 14.042 397.447 13.8607 398.813 13.8607C401.629 13.8607 403.805 14.5113 405.341 15.8127C406.898 17.0927 407.677 19.1087 407.677 21.8607V31.4927H402.013ZM396.893 31.7807C395.506 31.7807 394.333 31.546 393.373 31.0767C392.413 30.6073 391.677 29.9673 391.165 29.1567C390.674 28.346 390.429 27.4393 390.429 26.4367C390.429 25.37 390.695 24.4527 391.229 23.6847C391.783 22.8953 392.626 22.298 393.757 21.8927C394.887 21.466 396.349 21.2527 398.141 21.2527H402.237V24.4207H398.973C397.991 24.4207 397.298 24.5807 396.893 24.9007C396.509 25.2207 396.317 25.6473 396.317 26.1807C396.317 26.714 396.519 27.1407 396.925 27.4607C397.33 27.7807 397.885 27.9407 398.589 27.9407C399.25 27.9407 399.847 27.7807 400.381 27.4607C400.935 27.1193 401.341 26.6073 401.597 25.9247L402.429 28.1647C402.109 29.3593 401.479 30.266 400.541 30.8847C399.623 31.482 398.407 31.7807 396.893 31.7807ZM422.81 13.8607C424.154 13.8607 425.37 14.138 426.458 14.6927C427.546 15.226 428.4 16.058 429.018 17.1887C429.658 18.3193 429.978 19.7807 429.978 21.5727V31.4927H423.898V22.5647C423.898 21.3273 423.642 20.4313 423.13 19.8767C422.64 19.3007 421.946 19.0127 421.05 19.0127C420.41 19.0127 419.824 19.162 419.29 19.4607C418.757 19.738 418.341 20.1753 418.042 20.7727C417.744 21.37 417.594 22.1487 417.594 23.1087V31.4927H411.514V14.1487H417.306V19.0767L416.186 17.6367C416.848 16.378 417.754 15.4393 418.906 14.8207C420.058 14.1807 421.36 13.8607 422.81 13.8607ZM440.1 31.7807C438.628 31.7807 437.188 31.61 435.78 31.2687C434.393 30.9273 433.273 30.5007 432.42 29.9887L434.244 25.8287C435.054 26.3193 436.004 26.714 437.092 27.0127C438.18 27.29 439.246 27.4287 440.292 27.4287C441.316 27.4287 442.02 27.322 442.404 27.1087C442.809 26.8953 443.012 26.6073 443.012 26.2447C443.012 25.9033 442.82 25.658 442.436 25.5087C442.073 25.338 441.582 25.21 440.964 25.1247C440.366 25.0393 439.705 24.9433 438.98 24.8367C438.254 24.73 437.518 24.5913 436.772 24.4207C436.046 24.2287 435.374 23.9513 434.756 23.5887C434.158 23.2047 433.678 22.6927 433.316 22.0527C432.953 21.4127 432.772 20.602 432.772 19.6207C432.772 18.5113 433.092 17.53 433.732 16.6767C434.393 15.802 435.353 15.1193 436.612 14.6287C437.87 14.1167 439.406 13.8607 441.22 13.8607C442.436 13.8607 443.662 13.9887 444.9 14.2447C446.158 14.4793 447.214 14.842 448.068 15.3327L446.244 19.4607C445.39 18.97 444.537 18.6393 443.684 18.4687C442.83 18.2767 442.02 18.1807 441.252 18.1807C440.228 18.1807 439.502 18.298 439.076 18.5327C438.67 18.7673 438.468 19.0553 438.468 19.3967C438.468 19.738 438.649 20.0047 439.012 20.1967C439.374 20.3673 439.854 20.506 440.452 20.6127C441.07 20.698 441.742 20.794 442.468 20.9007C443.193 20.986 443.918 21.1247 444.644 21.3167C445.39 21.5087 446.062 21.7967 446.66 22.1807C447.278 22.5433 447.769 23.0447 448.132 23.6847C448.494 24.3033 448.676 25.1033 448.676 26.0847C448.676 27.1513 448.345 28.1113 447.684 28.9647C447.044 29.818 446.084 30.5007 444.804 31.0127C443.545 31.5247 441.977 31.7807 440.1 31.7807ZM460.192 24.7087V20.0367H469.536V24.7087H460.192ZM472.918 28.5807V23.9087L486.934 18.9487V21.6367L472.918 16.6767V12.0047L488.694 17.8287V22.7567L472.918 28.5807ZM513.411 31.9407C511.619 31.9407 509.966 31.6527 508.451 31.0767C506.936 30.5007 505.614 29.69 504.483 28.6447C503.374 27.578 502.51 26.3407 501.891 24.9327C501.272 23.5247 500.963 21.978 500.963 20.2927C500.963 18.6073 501.272 17.0607 501.891 15.6527C502.51 14.2447 503.374 13.018 504.483 11.9727C505.614 10.906 506.936 10.0847 508.451 9.50867C509.966 8.93267 511.619 8.64467 513.411 8.64467C515.224 8.64467 516.878 8.93267 518.371 9.50867C519.886 10.0847 521.198 10.906 522.307 11.9727C523.416 13.018 524.28 14.2447 524.899 15.6527C525.539 17.0607 525.859 18.6073 525.859 20.2927C525.859 21.978 525.539 23.5353 524.899 24.9647C524.28 26.3727 523.416 27.5993 522.307 28.6447C521.198 29.69 519.886 30.5007 518.371 31.0767C516.878 31.6527 515.224 31.9407 513.411 31.9407ZM513.411 26.6927C514.264 26.6927 515.054 26.5433 515.779 26.2447C516.526 25.946 517.166 25.5193 517.699 24.9647C518.254 24.3887 518.68 23.706 518.979 22.9167C519.299 22.1273 519.459 21.2527 519.459 20.2927C519.459 19.3113 519.299 18.4367 518.979 17.6687C518.68 16.8793 518.254 16.2073 517.699 15.6527C517.166 15.0767 516.526 14.6393 515.779 14.3407C515.054 14.042 514.264 13.8927 513.411 13.8927C512.558 13.8927 511.758 14.042 511.011 14.3407C510.286 14.6393 509.646 15.0767 509.091 15.6527C508.558 16.2073 508.131 16.8793 507.811 17.6687C507.512 18.4367 507.363 19.3113 507.363 20.2927C507.363 21.2527 507.512 22.1273 507.811 22.9167C508.131 23.706 508.558 24.3887 509.091 24.9647C509.646 25.5193 510.286 25.946 511.011 26.2447C511.758 26.5433 512.558 26.6927 513.411 26.6927ZM528.889 31.4927V14.1487H534.681V19.2047L533.817 17.7647C534.329 16.4633 535.161 15.4927 536.313 14.8527C537.465 14.1913 538.863 13.8607 540.505 13.8607V19.3327C540.228 19.29 539.983 19.2687 539.769 19.2687C539.577 19.2473 539.364 19.2367 539.129 19.2367C537.892 19.2367 536.889 19.578 536.121 20.2607C535.353 20.922 534.969 22.01 534.969 23.5247V31.4927H528.889ZM551.338 37.9887C549.674 37.9887 548.085 37.7967 546.57 37.4127C545.077 37.0287 543.797 36.4633 542.73 35.7167L544.938 31.4607C545.663 32.0367 546.559 32.4847 547.626 32.8047C548.714 33.146 549.77 33.3167 550.794 33.3167C552.437 33.3167 553.621 32.954 554.346 32.2287C555.071 31.5247 555.434 30.49 555.434 29.1247V27.0767L555.754 22.2127L555.722 17.3167V14.1487H561.514V28.3247C561.514 31.61 560.629 34.042 558.858 35.6207C557.087 37.1993 554.581 37.9887 551.338 37.9887ZM550.282 30.5967C548.746 30.5967 547.327 30.2553 546.026 29.5727C544.746 28.8687 543.711 27.898 542.922 26.6607C542.154 25.402 541.77 23.9193 541.77 22.2127C541.77 20.506 542.154 19.034 542.922 17.7967C543.711 16.538 544.746 15.5673 546.026 14.8847C547.327 14.202 548.746 13.8607 550.282 13.8607C551.754 13.8607 553.013 14.1593 554.058 14.7567C555.103 15.3327 555.893 16.2393 556.426 17.4767C556.981 18.714 557.258 20.2927 557.258 22.2127C557.258 24.1327 556.981 25.7113 556.426 26.9487C555.893 28.186 555.103 29.1033 554.058 29.7007C553.013 30.298 551.754 30.5967 550.282 30.5967ZM551.722 25.7647C552.447 25.7647 553.087 25.6153 553.642 25.3167C554.218 25.018 554.666 24.602 554.986 24.0687C555.327 23.5353 555.498 22.9167 555.498 22.2127C555.498 21.5087 555.327 20.89 554.986 20.3567C554.666 19.8233 554.218 19.418 553.642 19.1407C553.087 18.842 552.447 18.6927 551.722 18.6927C550.997 18.6927 550.346 18.842 549.77 19.1407C549.194 19.418 548.735 19.8233 548.394 20.3567C548.074 20.89 547.914 21.5087 547.914 22.2127C547.914 22.9167 548.074 23.5353 548.394 24.0687C548.735 24.602 549.194 25.018 549.77 25.3167C550.346 25.6153 550.997 25.7647 551.722 25.7647ZM576.013 31.4927V28.2607L575.597 27.4607V21.5087C575.597 20.5487 575.298 19.8127 574.701 19.3007C574.125 18.7673 573.197 18.5007 571.917 18.5007C571.085 18.5007 570.242 18.6393 569.389 18.9167C568.535 19.1727 567.81 19.5353 567.213 20.0047L565.165 15.8767C566.146 15.2367 567.319 14.746 568.685 14.4047C570.071 14.042 571.447 13.8607 572.813 13.8607C575.629 13.8607 577.805 14.5113 579.341 15.8127C580.898 17.0927 581.677 19.1087 581.677 21.8607V31.4927H576.013ZM570.893 31.7807C569.506 31.7807 568.333 31.546 567.373 31.0767C566.413 30.6073 565.677 29.9673 565.165 29.1567C564.674 28.346 564.429 27.4393 564.429 26.4367C564.429 25.37 564.695 24.4527 565.229 23.6847C565.783 22.8953 566.626 22.298 567.757 21.8927C568.887 21.466 570.349 21.2527 572.141 21.2527H576.237V24.4207H572.973C571.991 24.4207 571.298 24.5807 570.893 24.9007C570.509 25.2207 570.317 25.6473 570.317 26.1807C570.317 26.714 570.519 27.1407 570.925 27.4607C571.33 27.7807 571.885 27.9407 572.589 27.9407C573.25 27.9407 573.847 27.7807 574.381 27.4607C574.935 27.1193 575.341 26.6073 575.597 25.9247L576.429 28.1647C576.109 29.3593 575.479 30.266 574.541 30.8847C573.623 31.482 572.407 31.7807 570.893 31.7807ZM596.81 13.8607C598.154 13.8607 599.37 14.138 600.458 14.6927C601.546 15.226 602.4 16.058 603.018 17.1887C603.658 18.3193 603.978 19.7807 603.978 21.5727V31.4927H597.898V22.5647C597.898 21.3273 597.642 20.4313 597.13 19.8767C596.64 19.3007 595.946 19.0127 595.05 19.0127C594.41 19.0127 593.824 19.162 593.29 19.4607C592.757 19.738 592.341 20.1753 592.042 20.7727C591.744 21.37 591.594 22.1487 591.594 23.1087V31.4927H585.514V14.1487H591.306V19.0767L590.186 17.6367C590.848 16.378 591.754 15.4393 592.906 14.8207C594.058 14.1807 595.36 13.8607 596.81 13.8607ZM625.268 31.9407C623.433 31.9407 621.663 31.7167 619.956 31.2687C618.271 30.7993 616.895 30.202 615.828 29.4767L617.908 24.8047C618.911 25.4447 620.063 25.978 621.364 26.4047C622.687 26.81 623.999 27.0127 625.3 27.0127C626.175 27.0127 626.879 26.938 627.412 26.7887C627.945 26.618 628.329 26.4047 628.564 26.1487C628.82 25.8713 628.948 25.5513 628.948 25.1887C628.948 24.6767 628.713 24.2713 628.244 23.9727C627.775 23.674 627.167 23.4287 626.42 23.2367C625.673 23.0447 624.841 22.8527 623.924 22.6607C623.028 22.4687 622.121 22.2233 621.204 21.9247C620.308 21.626 619.487 21.242 618.74 20.7727C617.993 20.282 617.385 19.6527 616.916 18.8847C616.447 18.0953 616.212 17.1033 616.212 15.9087C616.212 14.5647 616.575 13.3487 617.3 12.2607C618.047 11.1727 619.156 10.298 620.628 9.63667C622.1 8.97534 623.935 8.64467 626.132 8.64467C627.604 8.64467 629.044 8.81534 630.452 9.15668C631.881 9.47668 633.151 9.95667 634.26 10.5967L632.308 15.3007C631.241 14.7247 630.185 14.298 629.14 14.0207C628.095 13.722 627.081 13.5727 626.1 13.5727C625.225 13.5727 624.521 13.6687 623.988 13.8607C623.455 14.0313 623.071 14.266 622.836 14.5647C622.601 14.8633 622.484 15.2047 622.484 15.5887C622.484 16.0793 622.708 16.474 623.156 16.7727C623.625 17.05 624.233 17.2847 624.98 17.4767C625.748 17.6473 626.58 17.8287 627.476 18.0207C628.393 18.2127 629.3 18.458 630.196 18.7567C631.113 19.034 631.945 19.418 632.692 19.9087C633.439 20.378 634.036 21.0073 634.484 21.7967C634.953 22.5647 635.188 23.5353 635.188 24.7087C635.188 26.01 634.815 27.2153 634.068 28.3247C633.343 29.4127 632.244 30.2873 630.772 30.9487C629.321 31.61 627.487 31.9407 625.268 31.9407ZM640.49 37.9887C639.573 37.9887 638.645 37.8393 637.706 37.5407C636.789 37.2633 636.042 36.89 635.466 36.4207L637.578 32.1647C637.941 32.4847 638.357 32.73 638.826 32.9007C639.317 33.0927 639.797 33.1887 640.266 33.1887C640.928 33.1887 641.45 33.0393 641.834 32.7407C642.218 32.442 642.549 31.9727 642.826 31.3327L643.626 29.3167L644.106 28.7087L649.994 14.1487H655.786L648.298 32.1967C647.701 33.69 647.008 34.8527 646.218 35.6847C645.45 36.538 644.586 37.1353 643.626 37.4767C642.688 37.818 641.642 37.9887 640.49 37.9887ZM642.858 32.2287L635.21 14.1487H641.45L647.082 28.1647L642.858 32.2287ZM663.381 31.7807C661.909 31.7807 660.469 31.61 659.061 31.2687C657.674 30.9273 656.554 30.5007 655.701 29.9887L657.525 25.8287C658.336 26.3193 659.285 26.714 660.373 27.0127C661.461 27.29 662.528 27.4287 663.573 27.4287C664.597 27.4287 665.301 27.322 665.685 27.1087C666.09 26.8953 666.293 26.6073 666.293 26.2447C666.293 25.9033 666.101 25.658 665.717 25.5087C665.354 25.338 664.864 25.21 664.245 25.1247C663.648 25.0393 662.986 24.9433 662.261 24.8367C661.536 24.73 660.8 24.5913 660.053 24.4207C659.328 24.2287 658.656 23.9513 658.037 23.5887C657.44 23.2047 656.96 22.6927 656.597 22.0527C656.234 21.4127 656.053 20.602 656.053 19.6207C656.053 18.5113 656.373 17.53 657.013 16.6767C657.674 15.802 658.634 15.1193 659.893 14.6287C661.152 14.1167 662.688 13.8607 664.501 13.8607C665.717 13.8607 666.944 13.9887 668.181 14.2447C669.44 14.4793 670.496 14.842 671.349 15.3327L669.525 19.4607C668.672 18.97 667.818 18.6393 666.965 18.4687C666.112 18.2767 665.301 18.1807 664.533 18.1807C663.509 18.1807 662.784 18.298 662.357 18.5327C661.952 18.7673 661.749 19.0553 661.749 19.3967C661.749 19.738 661.93 20.0047 662.293 20.1967C662.656 20.3673 663.136 20.506 663.733 20.6127C664.352 20.698 665.024 20.794 665.749 20.9007C666.474 20.986 667.2 21.1247 667.925 21.3167C668.672 21.5087 669.344 21.7967 669.941 22.1807C670.56 22.5433 671.05 23.0447 671.413 23.6847C671.776 24.3033 671.957 25.1033 671.957 26.0847C671.957 27.1513 671.626 28.1113 670.965 28.9647C670.325 29.818 669.365 30.5007 668.085 31.0127C666.826 31.5247 665.258 31.7807 663.381 31.7807ZM682.321 31.7807C680.102 31.7807 678.374 31.2367 677.137 30.1487C675.9 29.0393 675.281 27.3753 675.281 25.1567V10.2767H681.361V25.0927C681.361 25.7113 681.532 26.202 681.873 26.5647C682.214 26.906 682.652 27.0767 683.185 27.0767C683.91 27.0767 684.529 26.8953 685.041 26.5327L686.545 30.7887C686.033 31.13 685.404 31.3753 684.657 31.5247C683.91 31.6953 683.132 31.7807 682.321 31.7807ZM672.753 19.3327V14.7887H685.329V19.3327H672.753ZM697.477 31.7807C695.429 31.7807 693.637 31.3967 692.101 30.6287C690.587 29.8393 689.403 28.7727 688.549 27.4287C687.717 26.0633 687.301 24.5167 687.301 22.7887C687.301 21.0607 687.707 19.5247 688.517 18.1807C689.349 16.8153 690.491 15.7593 691.941 15.0127C693.392 14.2447 695.024 13.8607 696.837 13.8607C698.544 13.8607 700.101 14.2127 701.509 14.9167C702.917 15.5993 704.037 16.6127 704.869 17.9567C705.701 19.3007 706.117 20.9327 706.117 22.8527C706.117 23.066 706.107 23.3113 706.085 23.5887C706.064 23.866 706.043 24.122 706.021 24.3567H692.293V21.1567H702.789L700.485 22.0527C700.507 21.2633 700.357 20.5807 700.037 20.0047C699.739 19.4287 699.312 18.9807 698.757 18.6607C698.224 18.3407 697.595 18.1807 696.869 18.1807C696.144 18.1807 695.504 18.3407 694.949 18.6607C694.416 18.9807 694 19.4393 693.701 20.0367C693.403 20.6127 693.253 21.2953 693.253 22.0847V23.0127C693.253 23.866 693.424 24.602 693.765 25.2207C694.128 25.8393 694.64 26.3193 695.301 26.6607C695.963 26.9807 696.752 27.1407 697.669 27.1407C698.523 27.1407 699.248 27.0233 699.845 26.7887C700.464 26.5327 701.072 26.1487 701.669 25.6367L704.869 28.9647C704.037 29.882 703.013 30.586 701.797 31.0767C700.581 31.546 699.141 31.7807 697.477 31.7807ZM731.513 13.8607C732.857 13.8607 734.051 14.138 735.097 14.6927C736.163 15.226 736.995 16.058 737.593 17.1887C738.211 18.3193 738.521 19.7807 738.521 21.5727V31.4927H732.441V22.5647C732.441 21.3273 732.206 20.4313 731.737 19.8767C731.267 19.3007 730.627 19.0127 729.817 19.0127C729.241 19.0127 728.718 19.1513 728.249 19.4287C727.779 19.706 727.417 20.1327 727.161 20.7087C726.905 21.2633 726.777 21.9887 726.777 22.8847V31.4927H720.697V22.5647C720.697 21.3273 720.462 20.4313 719.993 19.8767C719.545 19.3007 718.905 19.0127 718.073 19.0127C717.475 19.0127 716.942 19.1513 716.473 19.4287C716.025 19.706 715.662 20.1327 715.385 20.7087C715.129 21.2633 715.001 21.9887 715.001 22.8847V31.4927H708.921V14.1487H714.713V18.9807L713.561 17.6047C714.201 16.3673 715.075 15.4393 716.185 14.8207C717.294 14.1807 718.531 13.8607 719.897 13.8607C721.454 13.8607 722.819 14.266 723.993 15.0767C725.187 15.866 725.987 17.1033 726.393 18.7887L724.409 18.3727C725.027 16.9647 725.955 15.866 727.193 15.0767C728.451 14.266 729.891 13.8607 731.513 13.8607ZM751.255 24.7087V20.0367H760.599V24.7087H751.255ZM763.981 28.5807V23.9087L777.997 18.9487V21.6367L763.981 16.6767V12.0047L779.757 17.8287V22.7567L763.981 28.5807ZM804.473 31.9407C802.681 31.9407 801.028 31.6527 799.513 31.0767C797.999 30.5007 796.676 29.69 795.545 28.6447C794.436 27.578 793.572 26.3407 792.953 24.9327C792.335 23.5247 792.025 21.978 792.025 20.2927C792.025 18.6073 792.335 17.0607 792.953 15.6527C793.572 14.2447 794.436 13.018 795.545 11.9727C796.676 10.906 797.999 10.0847 799.513 9.50867C801.028 8.93267 802.681 8.64467 804.473 8.64467C806.287 8.64467 807.94 8.93267 809.433 9.50867C810.948 10.0847 812.26 10.906 813.369 11.9727C814.479 13.018 815.343 14.2447 815.961 15.6527C816.601 17.0607 816.921 18.6073 816.921 20.2927C816.921 21.978 816.601 23.5353 815.961 24.9647C815.343 26.3727 814.479 27.5993 813.369 28.6447C812.26 29.69 810.948 30.5007 809.433 31.0767C807.94 31.6527 806.287 31.9407 804.473 31.9407ZM804.473 26.6927C805.327 26.6927 806.116 26.5433 806.841 26.2447C807.588 25.946 808.228 25.5193 808.761 24.9647C809.316 24.3887 809.743 23.706 810.041 22.9167C810.361 22.1273 810.521 21.2527 810.521 20.2927C810.521 19.3113 810.361 18.4367 810.041 17.6687C809.743 16.8793 809.316 16.2073 808.761 15.6527C808.228 15.0767 807.588 14.6393 806.841 14.3407C806.116 14.042 805.327 13.8927 804.473 13.8927C803.62 13.8927 802.82 14.042 802.073 14.3407C801.348 14.6393 800.708 15.0767 800.153 15.6527C799.62 16.2073 799.193 16.8793 798.873 17.6687C798.575 18.4367 798.425 19.3113 798.425 20.2927C798.425 21.2527 798.575 22.1273 798.873 22.9167C799.193 23.706 799.62 24.3887 800.153 24.9647C800.708 25.5193 801.348 25.946 802.073 26.2447C802.82 26.5433 803.62 26.6927 804.473 26.6927ZM819.952 31.4927V14.1487H825.744V19.2047L824.88 17.7647C825.392 16.4633 826.224 15.4927 827.376 14.8527C828.528 14.1913 829.925 13.8607 831.568 13.8607V19.3327C831.291 19.29 831.045 19.2687 830.832 19.2687C830.64 19.2473 830.427 19.2367 830.192 19.2367C828.955 19.2367 827.952 19.578 827.184 20.2607C826.416 20.922 826.032 22.01 826.032 23.5247V31.4927H819.952ZM842.401 37.9887C840.737 37.9887 839.147 37.7967 837.633 37.4127C836.139 37.0287 834.859 36.4633 833.793 35.7167L836.001 31.4607C836.726 32.0367 837.622 32.4847 838.689 32.8047C839.777 33.146 840.833 33.3167 841.857 33.3167C843.499 33.3167 844.683 32.954 845.409 32.2287C846.134 31.5247 846.497 30.49 846.497 29.1247V27.0767L846.817 22.2127L846.785 17.3167V14.1487H852.577V28.3247C852.577 31.61 851.691 34.042 849.921 35.6207C848.15 37.1993 845.643 37.9887 842.401 37.9887ZM841.345 30.5967C839.809 30.5967 838.39 30.2553 837.089 29.5727C835.809 28.8687 834.774 27.898 833.985 26.6607C833.217 25.402 832.833 23.9193 832.833 22.2127C832.833 20.506 833.217 19.034 833.985 17.7967C834.774 16.538 835.809 15.5673 837.089 14.8847C838.39 14.202 839.809 13.8607 841.345 13.8607C842.817 13.8607 844.075 14.1593 845.121 14.7567C846.166 15.3327 846.955 16.2393 847.489 17.4767C848.043 18.714 848.321 20.2927 848.321 22.2127C848.321 24.1327 848.043 25.7113 847.489 26.9487C846.955 28.186 846.166 29.1033 845.121 29.7007C844.075 30.298 842.817 30.5967 841.345 30.5967ZM842.785 25.7647C843.51 25.7647 844.15 25.6153 844.705 25.3167C845.281 25.018 845.729 24.602 846.049 24.0687C846.39 23.5353 846.561 22.9167 846.561 22.2127C846.561 21.5087 846.39 20.89 846.049 20.3567C845.729 19.8233 845.281 19.418 844.705 19.1407C844.15 18.842 843.51 18.6927 842.785 18.6927C842.059 18.6927 841.409 18.842 840.833 19.1407C840.257 19.418 839.798 19.8233 839.457 20.3567C839.137 20.89 838.977 21.5087 838.977 22.2127C838.977 22.9167 839.137 23.5353 839.457 24.0687C839.798 24.602 840.257 25.018 840.833 25.3167C841.409 25.6153 842.059 25.7647 842.785 25.7647ZM867.075 31.4927V28.2607L866.659 27.4607V21.5087C866.659 20.5487 866.36 19.8127 865.763 19.3007C865.187 18.7673 864.259 18.5007 862.979 18.5007C862.147 18.5007 861.304 18.6393 860.451 18.9167C859.598 19.1727 858.872 19.5353 858.275 20.0047L856.227 15.8767C857.208 15.2367 858.382 14.746 859.747 14.4047C861.134 14.042 862.51 13.8607 863.875 13.8607C866.691 13.8607 868.867 14.5113 870.403 15.8127C871.96 17.0927 872.739 19.1087 872.739 21.8607V31.4927H867.075ZM861.955 31.7807C860.568 31.7807 859.395 31.546 858.435 31.0767C857.475 30.6073 856.739 29.9673 856.227 29.1567C855.736 28.346 855.491 27.4393 855.491 26.4367C855.491 25.37 855.758 24.4527 856.291 23.6847C856.846 22.8953 857.688 22.298 858.819 21.8927C859.95 21.466 861.411 21.2527 863.203 21.2527H867.299V24.4207H864.035C863.054 24.4207 862.36 24.5807 861.955 24.9007C861.571 25.2207 861.379 25.6473 861.379 26.1807C861.379 26.714 861.582 27.1407 861.987 27.4607C862.392 27.7807 862.947 27.9407 863.651 27.9407C864.312 27.9407 864.91 27.7807 865.443 27.4607C865.998 27.1193 866.403 26.6073 866.659 25.9247L867.491 28.1647C867.171 29.3593 866.542 30.266 865.603 30.8847C864.686 31.482 863.47 31.7807 861.955 31.7807ZM887.873 13.8607C889.217 13.8607 890.433 14.138 891.521 14.6927C892.609 15.226 893.462 16.058 894.081 17.1887C894.721 18.3193 895.041 19.7807 895.041 21.5727V31.4927H888.961V22.5647C888.961 21.3273 888.705 20.4313 888.193 19.8767C887.702 19.3007 887.009 19.0127 886.113 19.0127C885.473 19.0127 884.886 19.162 884.353 19.4607C883.82 19.738 883.404 20.1753 883.105 20.7727C882.806 21.37 882.657 22.1487 882.657 23.1087V31.4927H876.577V14.1487H882.369V19.0767L881.249 17.6367C881.91 16.378 882.817 15.4393 883.969 14.8207C885.121 14.1807 886.422 13.8607 887.873 13.8607ZM898.858 31.4927V14.1487H904.938V31.4927H898.858ZM901.898 12.2287C900.789 12.2287 899.893 11.9193 899.21 11.3007C898.527 10.682 898.186 9.91401 898.186 8.99668C898.186 8.07934 898.527 7.31134 899.21 6.69267C899.893 6.07401 900.789 5.76468 901.898 5.76468C903.007 5.76468 903.903 6.06334 904.586 6.66068C905.269 7.23668 905.61 7.98334 905.61 8.90067C905.61 9.86068 905.269 10.6607 904.586 11.3007C903.925 11.9193 903.029 12.2287 901.898 12.2287ZM915.193 31.7807C913.721 31.7807 912.281 31.61 910.873 31.2687C909.487 30.9273 908.367 30.5007 907.513 29.9887L909.337 25.8287C910.148 26.3193 911.097 26.714 912.185 27.0127C913.273 27.29 914.34 27.4287 915.385 27.4287C916.409 27.4287 917.113 27.322 917.497 27.1087C917.903 26.8953 918.105 26.6073 918.105 26.2447C918.105 25.9033 917.913 25.658 917.529 25.5087C917.167 25.338 916.676 25.21 916.057 25.1247C915.46 25.0393 914.799 24.9433 914.073 24.8367C913.348 24.73 912.612 24.5913 911.865 24.4207C911.14 24.2287 910.468 23.9513 909.849 23.5887C909.252 23.2047 908.772 22.6927 908.409 22.0527C908.047 21.4127 907.865 20.602 907.865 19.6207C907.865 18.5113 908.185 17.53 908.825 16.6767C909.487 15.802 910.447 15.1193 911.705 14.6287C912.964 14.1167 914.5 13.8607 916.313 13.8607C917.529 13.8607 918.756 13.9887 919.993 14.2447C921.252 14.4793 922.308 14.842 923.161 15.3327L921.337 19.4607C920.484 18.97 919.631 18.6393 918.777 18.4687C917.924 18.2767 917.113 18.1807 916.345 18.1807C915.321 18.1807 914.596 18.298 914.169 18.5327C913.764 18.7673 913.561 19.0553 913.561 19.3967C913.561 19.738 913.743 20.0047 914.105 20.1967C914.468 20.3673 914.948 20.506 915.545 20.6127C916.164 20.698 916.836 20.794 917.561 20.9007C918.287 20.986 919.012 21.1247 919.737 21.3167C920.484 21.5087 921.156 21.7967 921.753 22.1807C922.372 22.5433 922.863 23.0447 923.225 23.6847C923.588 24.3033 923.769 25.1033 923.769 26.0847C923.769 27.1513 923.439 28.1113 922.777 28.9647C922.137 29.818 921.177 30.5007 919.897 31.0127C918.639 31.5247 917.071 31.7807 915.193 31.7807ZM948.981 13.8607C950.325 13.8607 951.52 14.138 952.565 14.6927C953.632 15.226 954.464 16.058 955.061 17.1887C955.68 18.3193 955.989 19.7807 955.989 21.5727V31.4927H949.909V22.5647C949.909 21.3273 949.675 20.4313 949.205 19.8767C948.736 19.3007 948.096 19.0127 947.285 19.0127C946.709 19.0127 946.187 19.1513 945.717 19.4287C945.248 19.706 944.885 20.1327 944.629 20.7087C944.373 21.2633 944.245 21.9887 944.245 22.8847V31.4927H938.165V22.5647C938.165 21.3273 937.931 20.4313 937.461 19.8767C937.013 19.3007 936.373 19.0127 935.541 19.0127C934.944 19.0127 934.411 19.1513 933.941 19.4287C933.493 19.706 933.131 20.1327 932.853 20.7087C932.597 21.2633 932.469 21.9887 932.469 22.8847V31.4927H926.389V14.1487H932.181V18.9807L931.029 17.6047C931.669 16.3673 932.544 15.4393 933.653 14.8207C934.763 14.1807 936 13.8607 937.365 13.8607C938.923 13.8607 940.288 14.266 941.461 15.0767C942.656 15.866 943.456 17.1033 943.861 18.7887L941.877 18.3727C942.496 16.9647 943.424 15.866 944.661 15.0767C945.92 14.266 947.36 13.8607 948.981 13.8607Z" fill="black"/>
</svg>
