<svg width="807" height="622" viewBox="0 0 807 622" fill="none" xmlns="http://www.w3.org/2000/svg">
<path d="M635.309 277.253L635.309 277.263C635.61 336.478 594.183 397.882 539.267 442.812C484.343 487.749 416.62 515.637 365.096 508.547L364.96 508.529H364.823C261.842 508.529 178.359 425.046 178.359 322.065C178.359 296.566 188.682 269.356 205.974 242.795C223.254 216.253 247.406 190.493 274.84 167.939C329.788 122.765 397.467 90.7886 448.845 90.7886C551.826 90.7886 635.309 174.271 635.309 277.253Z" stroke="#17A47C" stroke-width="4"/>
<path d="M505.293 317.021C505.293 382.19 452.463 435.019 387.294 435.019C322.125 435.019 269.295 382.19 269.295 317.021C269.295 251.853 322.125 199.024 387.294 199.024C452.463 199.024 505.293 251.853 505.293 317.021Z" fill="#B9A22B" stroke="#17A47C" stroke-width="3"/>
<path d="M464.717 139.842C464.717 151.665 455.133 161.249 443.31 161.249C431.488 161.249 421.903 151.665 421.903 139.842C421.903 128.02 431.488 118.436 443.31 118.436C455.133 118.436 464.717 128.02 464.717 139.842Z" fill="#B9A22B" stroke="#17A47C" stroke-width="2"/>
<path d="M246.259 290.153C246.259 301.975 236.675 311.56 224.852 311.56C213.03 311.56 203.445 301.975 203.445 290.153C203.445 278.33 213.03 268.746 224.852 268.746C236.675 268.746 246.259 278.33 246.259 290.153Z" fill="#B9A22B" stroke="#17A47C" stroke-width="2"/>
<path d="M450.648 458.926C450.648 470.748 441.064 480.333 429.241 480.333C417.419 480.333 407.834 470.748 407.834 458.926C407.834 447.103 417.419 437.519 429.241 437.519C441.064 437.519 450.648 447.103 450.648 458.926Z" fill="#B9A22B" stroke="#17A47C" stroke-width="2"/>
<path d="M601.019 244.536C601.019 260.482 588.092 273.408 572.146 273.408C556.199 273.408 543.272 260.482 543.272 244.536C543.272 228.589 556.199 215.663 572.146 215.663C588.092 215.663 601.019 228.589 601.019 244.536Z" fill="#B9A22B" stroke="#17A47C" stroke-width="2"/>
<path d="M315.018 170.14C315.018 171.297 315.955 172.234 317.111 172.234C318.267 172.234 319.205 171.297 319.205 170.14C319.205 168.984 318.267 168.047 317.111 168.047C315.955 168.047 315.018 168.984 315.018 170.14Z" stroke="#17A47C"/>
<path d="M321.684 164.843C321.684 165.999 322.621 166.936 323.777 166.936C324.933 166.936 325.871 165.999 325.871 164.843C325.871 163.686 324.933 162.749 323.777 162.749C322.621 162.749 321.684 163.686 321.684 164.843Z" stroke="#17A47C"/>
<path d="M320.501 175.327C320.501 176.484 321.439 177.421 322.595 177.421C323.751 177.421 324.688 176.484 324.688 175.327C324.688 174.171 323.751 173.234 322.595 173.234C321.439 173.234 320.501 174.171 320.501 175.327Z" stroke="#17A47C"/>
<path d="M325.688 170.14C325.688 171.297 326.625 172.234 327.781 172.234C328.938 172.234 329.875 171.297 329.875 170.14C329.875 168.984 328.938 168.047 327.781 168.047C326.625 168.047 325.688 168.984 325.688 170.14Z" stroke="#17A47C"/>
<path d="M330.875 163.597C330.875 164.753 331.812 165.69 332.969 165.69C334.125 165.69 335.062 164.753 335.062 163.597C335.062 162.441 334.125 161.503 332.969 161.503C331.812 161.503 330.875 162.441 330.875 163.597Z" stroke="#17A47C"/>
<path d="M332.419 170.14C332.419 171.297 333.357 172.234 334.513 172.234C335.669 172.234 336.606 171.297 336.606 170.14C336.606 168.984 335.669 168.047 334.513 168.047C333.357 168.047 332.419 168.984 332.419 170.14Z" stroke="#17A47C"/>
<path d="M328.282 176.683C328.282 177.84 329.219 178.777 330.375 178.777C331.531 178.777 332.469 177.84 332.469 176.683C332.469 175.527 331.531 174.59 330.375 174.59C329.219 174.59 328.282 175.527 328.282 176.683Z" stroke="#17A47C"/>
<path d="M315.314 180.514C315.314 181.671 316.252 182.608 317.408 182.608C318.564 182.608 319.501 181.671 319.501 180.514C319.501 179.358 318.564 178.421 317.408 178.421C316.252 178.421 315.314 179.358 315.314 180.514Z" stroke="#17A47C"/>
<path d="M554.32 164.631C555.435 164.323 556.088 163.17 555.78 162.055C555.472 160.941 554.319 160.287 553.205 160.595C552.09 160.903 551.437 162.056 551.745 163.171C552.053 164.285 553.206 164.939 554.32 164.631Z" stroke="#17A47C"/>
<path d="M547.438 159.617C548.552 159.309 549.206 158.156 548.898 157.041C548.59 155.927 547.437 155.273 546.322 155.581C545.208 155.889 544.554 157.042 544.862 158.157C545.17 159.271 546.323 159.925 547.438 159.617Z" stroke="#17A47C"/>
<path d="M557.859 157.963C558.973 157.655 559.627 156.502 559.319 155.388C559.011 154.273 557.858 153.619 556.743 153.927C555.629 154.236 554.975 155.389 555.283 156.503C555.591 157.617 556.744 158.271 557.859 157.963Z" stroke="#17A47C"/>
<path d="M551.477 154.346C552.592 154.038 553.246 152.885 552.938 151.77C552.629 150.656 551.476 150.002 550.362 150.31C549.248 150.618 548.594 151.771 548.902 152.886C549.21 154 550.363 154.654 551.477 154.346Z" stroke="#17A47C"/>
<path d="M543.788 151.09C544.903 150.782 545.557 149.629 545.249 148.514C544.941 147.4 543.787 146.746 542.673 147.054C541.559 147.362 540.905 148.515 541.213 149.63C541.521 150.744 542.674 151.398 543.788 151.09Z" stroke="#17A47C"/>
<path d="M549.684 147.858C550.798 147.55 551.452 146.397 551.144 145.282C550.836 144.168 549.683 143.514 548.569 143.822C547.454 144.13 546.8 145.283 547.108 146.398C547.416 147.512 548.57 148.166 549.684 147.858Z" stroke="#17A47C"/>
<path d="M557.093 150.103C558.208 149.795 558.861 148.642 558.553 147.528C558.245 146.413 557.092 145.759 555.978 146.067C554.863 146.375 554.21 147.529 554.518 148.643C554.826 149.757 555.979 150.411 557.093 150.103Z" stroke="#17A47C"/>
<path d="M564.24 161.581C565.354 161.273 566.008 160.12 565.7 159.006C565.392 157.891 564.239 157.237 563.125 157.545C562.01 157.853 561.357 159.007 561.665 160.121C561.973 161.235 563.126 161.889 564.24 161.581Z" stroke="#17A47C"/>
<path d="M478.005 225.577C479.119 225.269 479.773 224.116 479.465 223.002C479.157 221.887 478.004 221.234 476.889 221.542C475.775 221.85 475.121 223.003 475.429 224.117C475.737 225.231 476.89 225.885 478.005 225.577Z" stroke="#17A47C"/>
<path d="M471.122 220.563C472.237 220.255 472.891 219.102 472.583 217.988C472.275 216.873 471.121 216.22 470.007 216.528C468.893 216.836 468.239 217.989 468.547 219.103C468.855 220.218 470.008 220.871 471.122 220.563Z" stroke="#17A47C"/>
<path d="M481.543 218.909C482.658 218.601 483.311 217.448 483.003 216.334C482.695 215.219 481.542 214.566 480.428 214.874C479.313 215.182 478.66 216.335 478.968 217.449C479.276 218.564 480.429 219.217 481.543 218.909Z" stroke="#17A47C"/>
<path d="M475.162 215.292C476.276 214.984 476.93 213.831 476.622 212.717C476.314 211.602 475.161 210.949 474.047 211.257C472.932 211.565 472.278 212.718 472.586 213.832C472.894 214.947 474.048 215.6 475.162 215.292Z" stroke="#17A47C"/>
<path d="M467.473 212.036C468.587 211.728 469.241 210.575 468.933 209.46C468.625 208.346 467.472 207.692 466.358 208C465.243 208.308 464.589 209.461 464.897 210.576C465.205 211.69 466.359 212.344 467.473 212.036Z" stroke="#17A47C"/>
<path d="M473.368 208.804C474.483 208.496 475.137 207.343 474.829 206.229C474.521 205.114 473.367 204.461 472.253 204.769C471.139 205.077 470.485 206.23 470.793 207.344C471.101 208.459 472.254 209.112 473.368 208.804Z" stroke="#17A47C"/>
<path d="M480.778 211.049C481.892 210.741 482.546 209.588 482.238 208.474C481.93 207.359 480.777 206.706 479.662 207.014C478.548 207.322 477.894 208.475 478.202 209.589C478.51 210.704 479.663 211.357 480.778 211.049Z" stroke="#17A47C"/>
<path d="M487.925 222.527C489.039 222.219 489.693 221.066 489.385 219.952C489.077 218.837 487.924 218.184 486.809 218.492C485.695 218.8 485.041 219.953 485.349 221.067C485.657 222.182 486.81 222.835 487.925 222.527Z" stroke="#17A47C"/>
<path d="M479.653 334.157C479.653 366.604 453.35 392.907 420.903 392.907C388.457 392.907 362.154 366.604 362.154 334.157C362.154 301.711 388.457 275.408 420.903 275.408C453.35 275.408 479.653 301.711 479.653 334.157Z" fill="#87BE91" stroke="#DFA219" stroke-width="2"/>
<path d="M576.856 334.223C576.713 328.099 575.791 321.364 573.903 314.064C538.452 319.488 521.151 357.228 539.226 371.323C554.535 383.261 577.644 368.125 576.856 334.223ZM576.856 334.223L566.645 328.177" stroke="#17A47C" stroke-width="3"/>
<path d="M550.919 322.936L558.581 332.21" stroke="#17A47C" stroke-width="3"/>
<path d="M575.516 350.355L564 344.306" stroke="#17A47C" stroke-width="3"/>
<path d="M539.629 335.032L550.516 340.274" stroke="#17A47C" stroke-width="3"/>
<path d="M569.064 362.855L557.774 353.984" stroke="#17A47C" stroke-width="3"/>
<path d="M533.177 351.564H544" stroke="#17A47C" stroke-width="3"/>
<path d="M555.758 374.548L550.113 366.887" stroke="#17A47C" stroke-width="3"/>
<path d="M232.394 352.494C228.124 349.924 223.093 347.622 217.254 345.74C205.534 372.465 223.931 400.799 241.492 394.519C256.367 389.2 256.035 366.725 232.394 352.494ZM232.394 352.494L223.79 356.877" stroke="#17A47C" stroke-width="3"/>
<path d="M213.336 365.4L223.047 364.176" stroke="#17A47C" stroke-width="3"/>
<path d="M242.896 360.444L233.722 365.722" stroke="#17A47C" stroke-width="3"/>
<path d="M216.729 378.429L225.075 373.232" stroke="#17A47C" stroke-width="3"/>
<path d="M248.675 370.324L237.659 374.218" stroke="#17A47C" stroke-width="3"/>
<path d="M225.279 390.066L229.995 382.629" stroke="#17A47C" stroke-width="3"/>
<path d="M250.912 384.564L243.188 385.105" stroke="#17A47C" stroke-width="3"/>
<path d="M330.838 446.326C328.978 442.531 326.453 438.578 323.159 434.551C302.518 448.2 302.593 476.845 317.992 480.448C331.035 483.5 341.135 467.336 330.838 446.326ZM330.838 446.326L322.693 445.491" stroke="#17A47C" stroke-width="3"/>
<path d="M311.326 446.755L318.807 450.349" stroke="#17A47C" stroke-width="3"/>
<path d="M334.664 456.819L325.7 456.36" stroke="#17A47C" stroke-width="3"/>
<path d="M307.75 457.597L316.087 457.733" stroke="#17A47C" stroke-width="3"/>
<path d="M334.236 466.515L324.598 464.223" stroke="#17A47C" stroke-width="3"/>
<path d="M308.489 469.82L315.269 466.69" stroke="#17A47C" stroke-width="3"/>
<path d="M329.281 477.689L323.53 474.522" stroke="#17A47C" stroke-width="3"/>
<path d="M496.484 254.79C492.317 254.79 484.79 252.855 488.016 245.113C492.048 235.436 493.661 228.984 496.484 235.436C508.177 240.677 506.968 239.468 505.355 242.29C505.355 262.855 508.984 259.226 509.79 261.242C509.79 268.016 509.79 273.473 509.79 275.355C510.059 274.683 509.548 272.694 505.355 270.113C501.161 267.532 497.693 264.468 496.484 263.258C494.871 262.586 492.129 260.597 494.064 258.016M452.532 218.5C437.613 198.742 415.839 178.178 438.823 192.694C461.806 207.21 466.645 198.742 467.048 203.177C481.564 203.177 478.742 203.177 481.161 208.823C483.581 214.468 484.387 215.274 488.016 213.258C496.081 238.258 492.855 228.581 494.064 235.436C495.274 242.29 490.032 239.065 485.597 235.436C481.161 231.806 468.258 234.226 469.064 223.742C469.871 213.258 458.984 204.387 457.774 208.823C450.31 212.371 451.17 216.753 452.532 218.5Z" stroke="#17A47C" stroke-width="3"/>
<path d="M563.01 149.689C563.088 150.236 563.594 150.616 564.141 150.538L573.051 149.27C573.598 149.192 573.978 148.685 573.9 148.139C573.822 147.592 573.316 147.212 572.769 147.29L564.849 148.417L563.721 140.497C563.643 139.95 563.137 139.57 562.59 139.648C562.043 139.726 561.663 140.232 561.741 140.779L563.01 149.689ZM590.032 114.871V113.871H589.533L589.232 114.271L590.032 114.871ZM564.8 150.149L590.832 115.471L589.232 114.271L563.2 148.948L564.8 150.149ZM590.032 115.871H665V113.871H590.032V115.871Z" fill="black"/>
<path d="M485.08 206.392C485.296 206.9 485.883 207.136 486.392 206.92L494.673 203.396C495.181 203.18 495.418 202.593 495.202 202.085C494.985 201.576 494.398 201.34 493.89 201.556L486.529 204.688L483.396 197.327C483.18 196.819 482.593 196.582 482.085 196.798C481.576 197.015 481.34 197.602 481.556 198.11L485.08 206.392ZM564 12.4517V11.4517H563.325L563.072 12.0779L564 12.4517ZM486.928 206.374L564.928 12.8254L563.072 12.0779L485.072 205.626L486.928 206.374ZM564 13.4517H665V11.4517H564V13.4517Z" fill="black"/>
<path d="M519.557 269.567C519.033 269.74 518.748 270.306 518.922 270.83L521.749 279.375C521.923 279.899 522.489 280.183 523.013 280.01C523.537 279.836 523.822 279.271 523.648 278.746L521.135 271.151L528.73 268.638C529.254 268.464 529.538 267.899 529.365 267.374C529.191 266.85 528.626 266.566 528.101 266.739L519.557 269.567ZM645 333.419L644.551 334.313L644.763 334.419H645V333.419ZM519.422 271.41L644.551 334.313L645.449 332.526L520.32 269.623L519.422 271.41ZM645 334.419H686V332.419H645V334.419Z" fill="black"/>
<path d="M215.672 266.663C216.217 266.756 216.733 266.389 216.825 265.844L218.327 256.971C218.419 256.426 218.052 255.91 217.507 255.818C216.963 255.726 216.447 256.092 216.355 256.637L215.02 264.525L207.132 263.19C206.587 263.098 206.071 263.464 205.979 264.009C205.887 264.553 206.254 265.07 206.798 265.162L215.672 266.663ZM194.064 235.032L194.88 234.453L194.581 234.032H194.064V235.032ZM216.654 265.098L194.88 234.453L193.249 235.611L215.024 266.257L216.654 265.098ZM194.064 234.032H137V236.032H194.064V234.032Z" fill="black"/>
<path d="M239.85 402.248C239.56 401.778 238.944 401.633 238.474 401.924L230.82 406.658C230.35 406.949 230.205 407.565 230.495 408.035C230.786 408.504 231.402 408.65 231.872 408.359L238.676 404.151L242.884 410.954C243.175 411.424 243.791 411.569 244.26 411.279C244.73 410.988 244.875 410.372 244.585 409.902L239.85 402.248ZM231.968 432.613V433.613H232.759L232.941 432.842L231.968 432.613ZM238.027 402.545L230.994 432.384L232.941 432.842L239.973 403.004L238.027 402.545ZM231.968 431.613H157V433.613H231.968V431.613Z" fill="black"/>
<path d="M399.311 213.369C399.817 213.589 400.406 213.357 400.627 212.85L404.216 204.597C404.436 204.091 404.204 203.502 403.698 203.281C403.191 203.061 402.602 203.293 402.382 203.8L399.191 211.136L391.855 207.945C391.349 207.725 390.759 207.957 390.539 208.464C390.319 208.97 390.551 209.559 391.057 209.779L399.311 213.369ZM340 60.8386L340.93 60.4722L340.681 59.8386H340V60.8386ZM400.64 212.085L340.93 60.4722L339.07 61.2051L398.779 212.818L400.64 212.085ZM340 59.8386H259V61.8386H340V59.8386Z" fill="black"/>
<path d="M379.481 289.256C380.033 289.293 380.509 288.876 380.546 288.325L381.149 279.345C381.186 278.794 380.77 278.318 380.218 278.281C379.667 278.244 379.191 278.66 379.154 279.211L378.618 287.193L370.636 286.657C370.085 286.62 369.608 287.037 369.571 287.588C369.534 288.139 369.951 288.616 370.502 288.653L379.481 289.256ZM259 150.355L259.753 149.697L259.454 149.355H259V150.355ZM380.301 287.6L259.753 149.697L258.247 151.013L378.796 288.916L380.301 287.6ZM259 149.355H198.903V151.355H259V149.355Z" fill="black"/>
<path d="M421.484 543.903L420.659 544.469L420.957 544.903H421.484V543.903ZM544.707 544.61C545.098 544.22 545.098 543.587 544.707 543.196L538.343 536.832C537.953 536.442 537.319 536.442 536.929 536.832C536.538 537.223 536.538 537.856 536.929 538.246L542.586 543.903L536.929 549.56C536.538 549.951 536.538 550.584 536.929 550.974C537.319 551.365 537.953 551.365 538.343 550.974L544.707 544.61ZM401.304 516.243L420.659 544.469L422.309 543.338L402.954 515.112L401.304 516.243ZM421.484 544.903H544V542.903H421.484V544.903Z" fill="black"/>
<path d="M673.358 19.4517V5.45166H678.818C680.044 5.45166 681.091 5.64499 681.958 6.03166C682.824 6.41833 683.491 6.97833 683.958 7.71166C684.424 8.44499 684.658 9.31833 684.658 10.3317C684.658 11.345 684.424 12.2183 683.958 12.9517C683.491 13.6717 682.824 14.225 681.958 14.6117C681.091 14.9983 680.044 15.1917 678.818 15.1917H674.458L675.358 14.2717V19.4517H673.358ZM682.718 19.4517L679.158 14.3717H681.298L684.898 19.4517H682.718ZM675.358 14.4717L674.458 13.4917H678.758C680.038 13.4917 681.004 13.2183 681.658 12.6717C682.324 12.1117 682.658 11.3317 682.658 10.3317C682.658 9.33166 682.324 8.55833 681.658 8.01166C681.004 7.46499 680.038 7.19166 678.758 7.19166H674.458L675.358 6.19166V14.4717ZM692.149 19.5717C691.082 19.5717 690.136 19.3383 689.309 18.8717C688.482 18.405 687.829 17.765 687.349 16.9517C686.869 16.125 686.629 15.1917 686.629 14.1517C686.629 13.0983 686.869 12.165 687.349 11.3517C687.829 10.5383 688.482 9.90499 689.309 9.45166C690.136 8.98499 691.082 8.75166 692.149 8.75166C693.202 8.75166 694.142 8.98499 694.969 9.45166C695.809 9.90499 696.462 10.5383 696.929 11.3517C697.409 12.1517 697.649 13.085 697.649 14.1517C697.649 15.205 697.409 16.1383 696.929 16.9517C696.462 17.765 695.809 18.405 694.969 18.8717C694.142 19.3383 693.202 19.5717 692.149 19.5717ZM692.149 17.8917C692.829 17.8917 693.436 17.7383 693.969 17.4317C694.516 17.125 694.942 16.6917 695.249 16.1317C695.556 15.5583 695.709 14.8983 695.709 14.1517C695.709 13.3917 695.556 12.7383 695.249 12.1917C694.942 11.6317 694.516 11.1983 693.969 10.8917C693.436 10.585 692.829 10.4317 692.149 10.4317C691.469 10.4317 690.862 10.585 690.329 10.8917C689.796 11.1983 689.369 11.6317 689.049 12.1917C688.729 12.7383 688.569 13.3917 688.569 14.1517C688.569 14.8983 688.729 15.5583 689.049 16.1317C689.369 16.6917 689.796 17.125 690.329 17.4317C690.862 17.7383 691.469 17.8917 692.149 17.8917ZM704.764 19.5717C703.858 19.5717 703.058 19.405 702.364 19.0717C701.684 18.7383 701.151 18.2317 700.764 17.5517C700.391 16.8583 700.204 15.9917 700.204 14.9517V8.85166H702.124V14.7317C702.124 15.7717 702.371 16.5517 702.864 17.0717C703.371 17.5917 704.078 17.8517 704.984 17.8517C705.651 17.8517 706.231 17.7183 706.724 17.4517C707.218 17.1717 707.598 16.7717 707.864 16.2517C708.131 15.7183 708.264 15.0783 708.264 14.3317V8.85166H710.184V19.4517H708.364V16.5917L708.664 17.3517C708.318 18.0583 707.798 18.605 707.104 18.9917C706.411 19.3783 705.631 19.5717 704.764 19.5717ZM718.48 23.4517C717.506 23.4517 716.56 23.3117 715.64 23.0317C714.733 22.765 713.993 22.3783 713.42 21.8717L714.34 20.3917C714.833 20.8183 715.44 21.1517 716.16 21.3917C716.88 21.645 717.633 21.7717 718.42 21.7717C719.673 21.7717 720.593 21.4783 721.18 20.8917C721.766 20.305 722.06 19.4117 722.06 18.2117V15.9717L722.26 13.8717L722.16 11.7517V8.85166H723.98V18.0117C723.98 19.8783 723.513 21.2517 722.58 22.1317C721.646 23.0117 720.28 23.4517 718.48 23.4517ZM718.24 19.0117C717.213 19.0117 716.293 18.7983 715.48 18.3717C714.68 17.9317 714.04 17.325 713.56 16.5517C713.093 15.7783 712.86 14.885 712.86 13.8717C712.86 12.845 713.093 11.9517 713.56 11.1917C714.04 10.4183 714.68 9.81833 715.48 9.39166C716.293 8.96499 717.213 8.75166 718.24 8.75166C719.146 8.75166 719.973 8.93833 720.72 9.31166C721.466 9.67166 722.06 10.2317 722.5 10.9917C722.953 11.7517 723.18 12.7117 723.18 13.8717C723.18 15.0183 722.953 15.9717 722.5 16.7317C722.06 17.4917 721.466 18.065 720.72 18.4517C719.973 18.825 719.146 19.0117 718.24 19.0117ZM718.46 17.3317C719.166 17.3317 719.793 17.185 720.34 16.8917C720.886 16.5983 721.313 16.1917 721.62 15.6717C721.94 15.1517 722.1 14.5517 722.1 13.8717C722.1 13.1917 721.94 12.5917 721.62 12.0717C721.313 11.5517 720.886 11.1517 720.34 10.8717C719.793 10.5783 719.166 10.4317 718.46 10.4317C717.753 10.4317 717.12 10.5783 716.56 10.8717C716.013 11.1517 715.58 11.5517 715.26 12.0717C714.953 12.5917 714.8 13.1917 714.8 13.8717C714.8 14.5517 714.953 15.1517 715.26 15.6717C715.58 16.1917 716.013 16.5983 716.56 16.8917C717.12 17.185 717.753 17.3317 718.46 17.3317ZM733.308 8.75166C734.175 8.75166 734.935 8.91833 735.588 9.25166C736.255 9.58499 736.775 10.0917 737.148 10.7717C737.521 11.4517 737.708 12.3117 737.708 13.3517V19.4517H735.788V13.5717C735.788 12.545 735.535 11.7717 735.028 11.2517C734.535 10.7317 733.835 10.4717 732.928 10.4717C732.248 10.4717 731.655 10.605 731.148 10.8717C730.641 11.1383 730.248 11.5317 729.968 12.0517C729.701 12.5717 729.568 13.2183 729.568 13.9917V19.4517H727.648V4.61166H729.568V11.7117L729.188 10.9517C729.535 10.2583 730.068 9.71833 730.788 9.33166C731.508 8.94499 732.348 8.75166 733.308 8.75166ZM748.733 11.4917H755.933V13.1917H748.733V11.4917ZM748.913 17.7117H757.073V19.4517H746.913V5.45166H756.793V7.19166H748.913V17.7117ZM760.311 19.4517V5.45166H765.771C766.998 5.45166 768.044 5.64499 768.911 6.03166C769.778 6.41833 770.444 6.97833 770.911 7.71166C771.378 8.44499 771.611 9.31833 771.611 10.3317C771.611 11.345 771.378 12.2183 770.911 12.9517C770.444 13.6717 769.778 14.225 768.911 14.6117C768.044 14.9983 766.998 15.1917 765.771 15.1917H761.411L762.311 14.2717V19.4517H760.311ZM769.671 19.4517L766.111 14.3717H768.251L771.851 19.4517H769.671ZM762.311 14.4717L761.411 13.4917H765.711C766.991 13.4917 767.958 13.2183 768.611 12.6717C769.278 12.1117 769.611 11.3317 769.611 10.3317C769.611 9.33166 769.278 8.55833 768.611 8.01166C767.958 7.46499 766.991 7.19166 765.711 7.19166H761.411L762.311 6.19166V14.4717Z" fill="black"/>
<path d="M673.873 121.871V107.871H679.333C680.56 107.871 681.607 108.064 682.473 108.451C683.34 108.838 684.007 109.398 684.473 110.131C684.94 110.864 685.173 111.738 685.173 112.751C685.173 113.764 684.94 114.638 684.473 115.371C684.007 116.091 683.34 116.644 682.473 117.031C681.607 117.418 680.56 117.611 679.333 117.611H674.973L675.873 116.691V121.871H673.873ZM683.233 121.871L679.673 116.791H681.813L685.413 121.871H683.233ZM675.873 116.891L674.973 115.911H679.273C680.553 115.911 681.52 115.638 682.173 115.091C682.84 114.531 683.173 113.751 683.173 112.751C683.173 111.751 682.84 110.978 682.173 110.431C681.52 109.884 680.553 109.611 679.273 109.611H674.973L675.873 108.611V116.891ZM688.125 121.871V111.271H690.045V121.871H688.125ZM689.085 109.231C688.711 109.231 688.398 109.111 688.145 108.871C687.905 108.631 687.785 108.338 687.785 107.991C687.785 107.631 687.905 107.331 688.145 107.091C688.398 106.851 688.711 106.731 689.085 106.731C689.458 106.731 689.765 106.851 690.005 107.091C690.258 107.318 690.385 107.604 690.385 107.951C690.385 108.311 690.265 108.618 690.025 108.871C689.785 109.111 689.471 109.231 689.085 109.231ZM699.331 121.991C698.424 121.991 697.604 121.791 696.871 121.391C696.151 120.978 695.577 120.371 695.151 119.571C694.737 118.771 694.531 117.771 694.531 116.571C694.531 115.371 694.744 114.371 695.171 113.571C695.611 112.771 696.191 112.171 696.911 111.771C697.644 111.371 698.451 111.171 699.331 111.171C700.371 111.171 701.291 111.398 702.091 111.851C702.891 112.304 703.524 112.938 703.991 113.751C704.457 114.551 704.691 115.491 704.691 116.571C704.691 117.651 704.457 118.598 703.991 119.411C703.524 120.224 702.891 120.858 702.091 121.311C701.291 121.764 700.371 121.991 699.331 121.991ZM693.711 121.871V107.031H695.631V114.091L695.431 116.551L695.551 119.011V121.871H693.711ZM699.171 120.311C699.851 120.311 700.457 120.158 700.991 119.851C701.537 119.544 701.964 119.111 702.271 118.551C702.591 117.978 702.751 117.318 702.751 116.571C702.751 115.811 702.591 115.158 702.271 114.611C701.964 114.051 701.537 113.618 700.991 113.311C700.457 113.004 699.851 112.851 699.171 112.851C698.504 112.851 697.897 113.004 697.351 113.311C696.817 113.618 696.391 114.051 696.071 114.611C695.764 115.158 695.611 115.811 695.611 116.571C695.611 117.318 695.764 117.978 696.071 118.551C696.391 119.111 696.817 119.544 697.351 119.851C697.897 120.158 698.504 120.311 699.171 120.311ZM711.883 121.991C710.817 121.991 709.87 121.758 709.043 121.291C708.217 120.824 707.563 120.184 707.083 119.371C706.603 118.544 706.363 117.611 706.363 116.571C706.363 115.518 706.603 114.584 707.083 113.771C707.563 112.958 708.217 112.324 709.043 111.871C709.87 111.404 710.817 111.171 711.883 111.171C712.937 111.171 713.877 111.404 714.703 111.871C715.543 112.324 716.197 112.958 716.663 113.771C717.143 114.571 717.383 115.504 717.383 116.571C717.383 117.624 717.143 118.558 716.663 119.371C716.197 120.184 715.543 120.824 714.703 121.291C713.877 121.758 712.937 121.991 711.883 121.991ZM711.883 120.311C712.563 120.311 713.17 120.158 713.703 119.851C714.25 119.544 714.677 119.111 714.983 118.551C715.29 117.978 715.443 117.318 715.443 116.571C715.443 115.811 715.29 115.158 714.983 114.611C714.677 114.051 714.25 113.618 713.703 113.311C713.17 113.004 712.563 112.851 711.883 112.851C711.203 112.851 710.597 113.004 710.063 113.311C709.53 113.618 709.103 114.051 708.783 114.611C708.463 115.158 708.303 115.811 708.303 116.571C708.303 117.318 708.463 117.978 708.783 118.551C709.103 119.111 709.53 119.544 710.063 119.851C710.597 120.158 711.203 120.311 711.883 120.311ZM723.079 121.991C722.199 121.991 721.359 121.871 720.559 121.631C719.772 121.391 719.152 121.098 718.699 120.751L719.499 119.231C719.952 119.538 720.512 119.798 721.179 120.011C721.845 120.224 722.525 120.331 723.219 120.331C724.112 120.331 724.752 120.204 725.139 119.951C725.539 119.698 725.739 119.344 725.739 118.891C725.739 118.558 725.619 118.298 725.379 118.111C725.139 117.924 724.819 117.784 724.419 117.691C724.032 117.598 723.599 117.518 723.119 117.451C722.639 117.371 722.159 117.278 721.679 117.171C721.199 117.051 720.759 116.891 720.359 116.691C719.959 116.478 719.639 116.191 719.399 115.831C719.159 115.458 719.039 114.964 719.039 114.351C719.039 113.711 719.219 113.151 719.579 112.671C719.939 112.191 720.445 111.824 721.099 111.571C721.765 111.304 722.552 111.171 723.459 111.171C724.152 111.171 724.852 111.258 725.559 111.431C726.279 111.591 726.865 111.824 727.319 112.131L726.499 113.651C726.019 113.331 725.519 113.111 724.999 112.991C724.479 112.871 723.959 112.811 723.439 112.811C722.599 112.811 721.972 112.951 721.559 113.231C721.145 113.498 720.939 113.844 720.939 114.271C720.939 114.631 721.059 114.911 721.299 115.111C721.552 115.298 721.872 115.444 722.259 115.551C722.659 115.658 723.099 115.751 723.579 115.831C724.059 115.898 724.539 115.991 725.019 116.111C725.499 116.218 725.932 116.371 726.319 116.571C726.719 116.771 727.039 117.051 727.279 117.411C727.532 117.771 727.659 118.251 727.659 118.851C727.659 119.491 727.472 120.044 727.099 120.511C726.725 120.978 726.199 121.344 725.519 121.611C724.839 121.864 724.025 121.991 723.079 121.991ZM734.598 121.991C733.532 121.991 732.585 121.758 731.758 121.291C730.932 120.824 730.278 120.184 729.798 119.371C729.318 118.544 729.078 117.611 729.078 116.571C729.078 115.518 729.318 114.584 729.798 113.771C730.278 112.958 730.932 112.324 731.758 111.871C732.585 111.404 733.532 111.171 734.598 111.171C735.652 111.171 736.592 111.404 737.418 111.871C738.258 112.324 738.912 112.958 739.378 113.771C739.858 114.571 740.098 115.504 740.098 116.571C740.098 117.624 739.858 118.558 739.378 119.371C738.912 120.184 738.258 120.824 737.418 121.291C736.592 121.758 735.652 121.991 734.598 121.991ZM734.598 120.311C735.278 120.311 735.885 120.158 736.418 119.851C736.965 119.544 737.392 119.111 737.698 118.551C738.005 117.978 738.158 117.318 738.158 116.571C738.158 115.811 738.005 115.158 737.698 114.611C737.392 114.051 736.965 113.618 736.418 113.311C735.885 113.004 735.278 112.851 734.598 112.851C733.918 112.851 733.312 113.004 732.778 113.311C732.245 113.618 731.818 114.051 731.498 114.611C731.178 115.158 731.018 115.811 731.018 116.571C731.018 117.318 731.178 117.978 731.498 118.551C731.818 119.111 732.245 119.544 732.778 119.851C733.312 120.158 733.918 120.311 734.598 120.311ZM756.014 111.171C756.867 111.171 757.62 111.338 758.274 111.671C758.927 112.004 759.434 112.511 759.794 113.191C760.167 113.871 760.354 114.731 760.354 115.771V121.871H758.434V115.991C758.434 114.964 758.194 114.191 757.714 113.671C757.234 113.151 756.56 112.891 755.694 112.891C755.054 112.891 754.494 113.024 754.014 113.291C753.534 113.558 753.16 113.951 752.894 114.471C752.64 114.991 752.514 115.638 752.514 116.411V121.871H750.594V115.991C750.594 114.964 750.354 114.191 749.874 113.671C749.407 113.151 748.734 112.891 747.854 112.891C747.227 112.891 746.674 113.024 746.194 113.291C745.714 113.558 745.34 113.951 745.074 114.471C744.807 114.991 744.674 115.638 744.674 116.411V121.871H742.754V111.271H744.594V114.091L744.294 113.371C744.627 112.678 745.14 112.138 745.834 111.751C746.527 111.364 747.334 111.171 748.254 111.171C749.267 111.171 750.14 111.424 750.874 111.931C751.607 112.424 752.087 113.178 752.314 114.191L751.534 113.871C751.854 113.058 752.414 112.404 753.214 111.911C754.014 111.418 754.947 111.171 756.014 111.171ZM768.606 121.991C767.473 121.991 766.473 121.758 765.606 121.291C764.753 120.824 764.086 120.184 763.606 119.371C763.14 118.558 762.906 117.624 762.906 116.571C762.906 115.518 763.133 114.584 763.586 113.771C764.053 112.958 764.686 112.324 765.486 111.871C766.3 111.404 767.213 111.171 768.226 111.171C769.253 111.171 770.16 111.398 770.946 111.851C771.733 112.304 772.346 112.944 772.786 113.771C773.24 114.584 773.466 115.538 773.466 116.631C773.466 116.711 773.46 116.804 773.446 116.911C773.446 117.018 773.44 117.118 773.426 117.211H764.406V115.831H772.426L771.646 116.311C771.66 115.631 771.52 115.024 771.226 114.491C770.933 113.958 770.526 113.544 770.006 113.251C769.5 112.944 768.906 112.791 768.226 112.791C767.56 112.791 766.966 112.944 766.446 113.251C765.926 113.544 765.52 113.964 765.226 114.511C764.933 115.044 764.786 115.658 764.786 116.351V116.671C764.786 117.378 764.946 118.011 765.266 118.571C765.6 119.118 766.06 119.544 766.646 119.851C767.233 120.158 767.906 120.311 768.666 120.311C769.293 120.311 769.86 120.204 770.366 119.991C770.886 119.778 771.34 119.458 771.726 119.031L772.786 120.271C772.306 120.831 771.706 121.258 770.986 121.551C770.28 121.844 769.486 121.991 768.606 121.991ZM779.173 121.991C778.293 121.991 777.453 121.871 776.653 121.631C775.866 121.391 775.246 121.098 774.793 120.751L775.593 119.231C776.046 119.538 776.606 119.798 777.273 120.011C777.939 120.224 778.619 120.331 779.312 120.331C780.206 120.331 780.846 120.204 781.233 119.951C781.633 119.698 781.833 119.344 781.833 118.891C781.833 118.558 781.713 118.298 781.473 118.111C781.233 117.924 780.913 117.784 780.513 117.691C780.126 117.598 779.693 117.518 779.213 117.451C778.733 117.371 778.253 117.278 777.773 117.171C777.293 117.051 776.853 116.891 776.453 116.691C776.053 116.478 775.733 116.191 775.493 115.831C775.253 115.458 775.133 114.964 775.133 114.351C775.133 113.711 775.313 113.151 775.673 112.671C776.033 112.191 776.539 111.824 777.193 111.571C777.859 111.304 778.646 111.171 779.553 111.171C780.246 111.171 780.946 111.258 781.653 111.431C782.373 111.591 782.959 111.824 783.413 112.131L782.593 113.651C782.113 113.331 781.613 113.111 781.093 112.991C780.573 112.871 780.053 112.811 779.533 112.811C778.693 112.811 778.066 112.951 777.653 113.231C777.239 113.498 777.033 113.844 777.033 114.271C777.033 114.631 777.153 114.911 777.393 115.111C777.646 115.298 777.966 115.444 778.353 115.551C778.753 115.658 779.193 115.751 779.673 115.831C780.153 115.898 780.633 115.991 781.113 116.111C781.593 116.218 782.026 116.371 782.413 116.571C782.813 116.771 783.133 117.051 783.373 117.411C783.626 117.771 783.753 118.251 783.753 118.851C783.753 119.491 783.566 120.044 783.193 120.511C782.819 120.978 782.293 121.344 781.613 121.611C780.933 121.864 780.119 121.991 779.173 121.991Z" fill="black"/>
<path d="M697.308 338.813C696.242 338.813 695.222 338.653 694.248 338.333C693.275 338 692.508 337.573 691.948 337.053L692.688 335.493C693.222 335.96 693.902 336.347 694.728 336.653C695.555 336.96 696.415 337.113 697.308 337.113C698.122 337.113 698.782 337.02 699.288 336.833C699.795 336.647 700.168 336.393 700.408 336.073C700.648 335.74 700.768 335.367 700.768 334.953C700.768 334.473 700.608 334.087 700.288 333.793C699.982 333.5 699.575 333.267 699.068 333.093C698.575 332.907 698.028 332.747 697.428 332.613C696.828 332.48 696.222 332.327 695.608 332.153C695.008 331.967 694.455 331.733 693.948 331.453C693.455 331.173 693.055 330.8 692.748 330.333C692.442 329.853 692.288 329.24 692.288 328.493C692.288 327.773 692.475 327.113 692.848 326.513C693.235 325.9 693.822 325.413 694.608 325.053C695.408 324.68 696.422 324.493 697.648 324.493C698.462 324.493 699.268 324.6 700.068 324.813C700.868 325.027 701.562 325.333 702.148 325.733L701.488 327.333C700.888 326.933 700.255 326.647 699.588 326.473C698.922 326.287 698.275 326.193 697.648 326.193C696.862 326.193 696.215 326.293 695.708 326.493C695.202 326.693 694.828 326.96 694.588 327.293C694.362 327.627 694.248 328 694.248 328.413C694.248 328.907 694.402 329.3 694.708 329.593C695.028 329.887 695.435 330.12 695.928 330.293C696.435 330.467 696.988 330.627 697.588 330.773C698.188 330.907 698.788 331.06 699.388 331.233C700.002 331.407 700.555 331.633 701.048 331.913C701.555 332.193 701.962 332.567 702.268 333.033C702.575 333.5 702.728 334.1 702.728 334.833C702.728 335.54 702.535 336.2 702.148 336.813C701.762 337.413 701.162 337.9 700.348 338.273C699.548 338.633 698.535 338.813 697.308 338.813ZM718.63 327.953C719.484 327.953 720.237 328.12 720.89 328.453C721.544 328.787 722.05 329.293 722.41 329.973C722.784 330.653 722.97 331.513 722.97 332.553V338.653H721.05V332.773C721.05 331.747 720.81 330.973 720.33 330.453C719.85 329.933 719.177 329.673 718.31 329.673C717.67 329.673 717.11 329.807 716.63 330.073C716.15 330.34 715.777 330.733 715.51 331.253C715.257 331.773 715.13 332.42 715.13 333.193V338.653H713.21V332.773C713.21 331.747 712.97 330.973 712.49 330.453C712.024 329.933 711.35 329.673 710.47 329.673C709.844 329.673 709.29 329.807 708.81 330.073C708.33 330.34 707.957 330.733 707.69 331.253C707.424 331.773 707.29 332.42 707.29 333.193V338.653H705.37V328.053H707.21V330.873L706.91 330.153C707.244 329.46 707.757 328.92 708.45 328.533C709.144 328.147 709.95 327.953 710.87 327.953C711.884 327.953 712.757 328.207 713.49 328.713C714.224 329.207 714.704 329.96 714.93 330.973L714.15 330.653C714.47 329.84 715.03 329.187 715.83 328.693C716.63 328.2 717.564 327.953 718.63 327.953ZM731.043 338.773C729.976 338.773 729.03 338.54 728.203 338.073C727.376 337.607 726.723 336.967 726.243 336.153C725.763 335.327 725.523 334.393 725.523 333.353C725.523 332.3 725.763 331.367 726.243 330.553C726.723 329.74 727.376 329.107 728.203 328.653C729.03 328.187 729.976 327.953 731.043 327.953C732.096 327.953 733.036 328.187 733.863 328.653C734.703 329.107 735.356 329.74 735.823 330.553C736.303 331.353 736.543 332.287 736.543 333.353C736.543 334.407 736.303 335.34 735.823 336.153C735.356 336.967 734.703 337.607 733.863 338.073C733.036 338.54 732.096 338.773 731.043 338.773ZM731.043 337.093C731.723 337.093 732.33 336.94 732.863 336.633C733.41 336.327 733.836 335.893 734.143 335.333C734.45 334.76 734.603 334.1 734.603 333.353C734.603 332.593 734.45 331.94 734.143 331.393C733.836 330.833 733.41 330.4 732.863 330.093C732.33 329.787 731.723 329.633 731.043 329.633C730.363 329.633 729.756 329.787 729.223 330.093C728.69 330.4 728.263 330.833 727.943 331.393C727.623 331.94 727.463 332.593 727.463 333.353C727.463 334.1 727.623 334.76 727.943 335.333C728.263 335.893 728.69 336.327 729.223 336.633C729.756 336.94 730.363 337.093 731.043 337.093ZM743.738 338.773C742.672 338.773 741.725 338.54 740.898 338.073C740.072 337.607 739.418 336.967 738.938 336.153C738.458 335.327 738.218 334.393 738.218 333.353C738.218 332.3 738.458 331.367 738.938 330.553C739.418 329.74 740.072 329.107 740.898 328.653C741.725 328.187 742.672 327.953 743.738 327.953C744.792 327.953 745.732 328.187 746.558 328.653C747.398 329.107 748.052 329.74 748.518 330.553C748.998 331.353 749.238 332.287 749.238 333.353C749.238 334.407 748.998 335.34 748.518 336.153C748.052 336.967 747.398 337.607 746.558 338.073C745.732 338.54 744.792 338.773 743.738 338.773ZM743.738 337.093C744.418 337.093 745.025 336.94 745.558 336.633C746.105 336.327 746.532 335.893 746.838 335.333C747.145 334.76 747.298 334.1 747.298 333.353C747.298 332.593 747.145 331.94 746.838 331.393C746.532 330.833 746.105 330.4 745.558 330.093C745.025 329.787 744.418 329.633 743.738 329.633C743.058 329.633 742.452 329.787 741.918 330.093C741.385 330.4 740.958 330.833 740.638 331.393C740.318 331.94 740.158 332.593 740.158 333.353C740.158 334.1 740.318 334.76 740.638 335.333C740.958 335.893 741.385 336.327 741.918 336.633C742.452 336.94 743.058 337.093 743.738 337.093ZM755.534 338.773C754.467 338.773 753.64 338.487 753.054 337.913C752.467 337.34 752.174 336.52 752.174 335.453V325.733H754.094V335.373C754.094 335.947 754.234 336.387 754.514 336.693C754.807 337 755.22 337.153 755.754 337.153C756.354 337.153 756.854 336.987 757.254 336.653L757.854 338.033C757.56 338.287 757.207 338.473 756.794 338.593C756.394 338.713 755.974 338.773 755.534 338.773ZM750.374 329.633V328.053H757.134V329.633H750.374ZM765.835 327.953C766.702 327.953 767.462 328.12 768.115 328.453C768.782 328.787 769.302 329.293 769.675 329.973C770.048 330.653 770.235 331.513 770.235 332.553V338.653H768.315V332.773C768.315 331.747 768.062 330.973 767.555 330.453C767.062 329.933 766.362 329.673 765.455 329.673C764.775 329.673 764.182 329.807 763.675 330.073C763.168 330.34 762.775 330.733 762.495 331.253C762.228 331.773 762.095 332.42 762.095 333.193V338.653H760.175V323.813H762.095V330.913L761.715 330.153C762.062 329.46 762.595 328.92 763.315 328.533C764.035 328.147 764.875 327.953 765.835 327.953ZM781.259 330.693H788.459V332.393H781.259V330.693ZM781.439 336.913H789.599V338.653H779.439V324.653H789.319V326.393H781.439V336.913ZM792.838 338.653V324.653H798.298C799.524 324.653 800.571 324.847 801.438 325.233C802.304 325.62 802.971 326.18 803.438 326.913C803.904 327.647 804.138 328.52 804.138 329.533C804.138 330.547 803.904 331.42 803.438 332.153C802.971 332.873 802.304 333.427 801.438 333.813C800.571 334.2 799.524 334.393 798.298 334.393H793.938L794.838 333.473V338.653H792.838ZM802.198 338.653L798.638 333.573H800.778L804.378 338.653H802.198ZM794.838 333.673L793.938 332.693H798.238C799.518 332.693 800.484 332.42 801.138 331.873C801.804 331.313 802.138 330.533 802.138 329.533C802.138 328.533 801.804 327.76 801.138 327.213C800.484 326.667 799.518 326.393 798.238 326.393H793.938L794.838 325.393V333.673Z" fill="black"/>
<path d="M563.895 551.063C562.828 551.063 561.842 550.89 560.935 550.543C560.042 550.183 559.262 549.683 558.595 549.043C557.942 548.39 557.428 547.63 557.055 546.763C556.682 545.897 556.495 544.943 556.495 543.903C556.495 542.863 556.682 541.91 557.055 541.043C557.428 540.177 557.948 539.423 558.615 538.783C559.282 538.13 560.062 537.63 560.955 537.283C561.862 536.923 562.848 536.743 563.915 536.743C564.995 536.743 565.988 536.93 566.895 537.303C567.815 537.663 568.595 538.203 569.235 538.923L567.935 540.183C567.402 539.623 566.802 539.21 566.135 538.943C565.468 538.663 564.755 538.523 563.995 538.523C563.208 538.523 562.475 538.657 561.795 538.923C561.128 539.19 560.548 539.563 560.055 540.043C559.562 540.523 559.175 541.097 558.895 541.763C558.628 542.417 558.495 543.13 558.495 543.903C558.495 544.677 558.628 545.397 558.895 546.063C559.175 546.717 559.562 547.283 560.055 547.763C560.548 548.243 561.128 548.617 561.795 548.883C562.475 549.15 563.208 549.283 563.995 549.283C564.755 549.283 565.468 549.15 566.135 548.883C566.802 548.603 567.402 548.177 567.935 547.603L569.235 548.863C568.595 549.583 567.815 550.13 566.895 550.503C565.988 550.877 564.988 551.063 563.895 551.063ZM576.079 551.023C574.946 551.023 573.946 550.79 573.079 550.323C572.226 549.857 571.559 549.217 571.079 548.403C570.612 547.59 570.379 546.657 570.379 545.603C570.379 544.55 570.606 543.617 571.059 542.803C571.526 541.99 572.159 541.357 572.959 540.903C573.772 540.437 574.686 540.203 575.699 540.203C576.726 540.203 577.632 540.43 578.419 540.883C579.206 541.337 579.819 541.977 580.259 542.803C580.712 543.617 580.939 544.57 580.939 545.663C580.939 545.743 580.932 545.837 580.919 545.943C580.919 546.05 580.912 546.15 580.899 546.243H571.879V544.863H579.899L579.119 545.343C579.132 544.663 578.992 544.057 578.699 543.523C578.406 542.99 577.999 542.577 577.479 542.283C576.972 541.977 576.379 541.823 575.699 541.823C575.032 541.823 574.439 541.977 573.919 542.283C573.399 542.577 572.992 542.997 572.699 543.543C572.406 544.077 572.259 544.69 572.259 545.383V545.703C572.259 546.41 572.419 547.043 572.739 547.603C573.072 548.15 573.532 548.577 574.119 548.883C574.706 549.19 575.379 549.343 576.139 549.343C576.766 549.343 577.332 549.237 577.839 549.023C578.359 548.81 578.812 548.49 579.199 548.063L580.259 549.303C579.779 549.863 579.179 550.29 578.459 550.583C577.752 550.877 576.959 551.023 576.079 551.023ZM583.605 550.903V536.063H585.525V550.903H583.605ZM589.191 550.903V536.063H591.111V550.903H589.191ZM600.428 550.903V536.903H602.068L608.348 547.483H607.468L613.668 536.903H615.308L615.328 550.903H613.408L613.388 539.923H613.848L608.328 549.203H607.408L601.848 539.923H602.348V550.903H600.428ZM623.97 551.023C622.836 551.023 621.836 550.79 620.97 550.323C620.116 549.857 619.45 549.217 618.97 548.403C618.503 547.59 618.27 546.657 618.27 545.603C618.27 544.55 618.496 543.617 618.95 542.803C619.416 541.99 620.05 541.357 620.85 540.903C621.663 540.437 622.576 540.203 623.59 540.203C624.616 540.203 625.523 540.43 626.31 540.883C627.096 541.337 627.71 541.977 628.15 542.803C628.603 543.617 628.83 544.57 628.83 545.663C628.83 545.743 628.823 545.837 628.81 545.943C628.81 546.05 628.803 546.15 628.79 546.243H619.77V544.863H627.79L627.01 545.343C627.023 544.663 626.883 544.057 626.59 543.523C626.296 542.99 625.89 542.577 625.37 542.283C624.863 541.977 624.27 541.823 623.59 541.823C622.923 541.823 622.33 541.977 621.81 542.283C621.29 542.577 620.883 542.997 620.59 543.543C620.296 544.077 620.15 544.69 620.15 545.383V545.703C620.15 546.41 620.31 547.043 620.63 547.603C620.963 548.15 621.423 548.577 622.01 548.883C622.596 549.19 623.27 549.343 624.03 549.343C624.656 549.343 625.223 549.237 625.73 549.023C626.25 548.81 626.703 548.49 627.09 548.063L628.15 549.303C627.67 549.863 627.07 550.29 626.35 550.583C625.643 550.877 624.85 551.023 623.97 551.023ZM644.756 540.203C645.609 540.203 646.362 540.37 647.016 540.703C647.669 541.037 648.176 541.543 648.536 542.223C648.909 542.903 649.096 543.763 649.096 544.803V550.903H647.176V545.023C647.176 543.997 646.936 543.223 646.456 542.703C645.976 542.183 645.302 541.923 644.436 541.923C643.796 541.923 643.236 542.057 642.756 542.323C642.276 542.59 641.902 542.983 641.636 543.503C641.382 544.023 641.256 544.67 641.256 545.443V550.903H639.336V545.023C639.336 543.997 639.096 543.223 638.616 542.703C638.149 542.183 637.476 541.923 636.596 541.923C635.969 541.923 635.416 542.057 634.936 542.323C634.456 542.59 634.082 542.983 633.816 543.503C633.549 544.023 633.416 544.67 633.416 545.443V550.903H631.496V540.303H633.336V543.123L633.036 542.403C633.369 541.71 633.882 541.17 634.576 540.783C635.269 540.397 636.076 540.203 636.996 540.203C638.009 540.203 638.882 540.457 639.616 540.963C640.349 541.457 640.829 542.21 641.056 543.223L640.276 542.903C640.596 542.09 641.156 541.437 641.956 540.943C642.756 540.45 643.689 540.203 644.756 540.203ZM658.249 551.023C657.342 551.023 656.522 550.823 655.789 550.423C655.069 550.01 654.495 549.403 654.069 548.603C653.655 547.803 653.449 546.803 653.449 545.603C653.449 544.403 653.662 543.403 654.089 542.603C654.529 541.803 655.109 541.203 655.829 540.803C656.562 540.403 657.369 540.203 658.249 540.203C659.289 540.203 660.209 540.43 661.009 540.883C661.809 541.337 662.442 541.97 662.909 542.783C663.375 543.583 663.609 544.523 663.609 545.603C663.609 546.683 663.375 547.63 662.909 548.443C662.442 549.257 661.809 549.89 661.009 550.343C660.209 550.797 659.289 551.023 658.249 551.023ZM652.629 550.903V536.063H654.549V543.123L654.349 545.583L654.469 548.043V550.903H652.629ZM658.089 549.343C658.769 549.343 659.375 549.19 659.909 548.883C660.455 548.577 660.882 548.143 661.189 547.583C661.509 547.01 661.669 546.35 661.669 545.603C661.669 544.843 661.509 544.19 661.189 543.643C660.882 543.083 660.455 542.65 659.909 542.343C659.375 542.037 658.769 541.883 658.089 541.883C657.422 541.883 656.815 542.037 656.269 542.343C655.735 542.65 655.309 543.083 654.989 543.643C654.682 544.19 654.529 544.843 654.529 545.603C654.529 546.35 654.682 547.01 654.989 547.583C655.309 548.143 655.735 548.577 656.269 548.883C656.815 549.19 657.422 549.343 658.089 549.343ZM666.261 550.903V540.303H668.101V543.183L667.921 542.463C668.215 541.73 668.708 541.17 669.401 540.783C670.095 540.397 670.948 540.203 671.961 540.203V542.063C671.881 542.05 671.801 542.043 671.721 542.043C671.655 542.043 671.588 542.043 671.521 542.043C670.495 542.043 669.681 542.35 669.081 542.963C668.481 543.577 668.181 544.463 668.181 545.623V550.903H666.261ZM680.127 550.903V548.663L680.027 548.243V544.423C680.027 543.61 679.787 542.983 679.307 542.543C678.84 542.09 678.133 541.863 677.187 541.863C676.56 541.863 675.947 541.97 675.347 542.183C674.747 542.383 674.24 542.657 673.827 543.003L673.027 541.563C673.573 541.123 674.227 540.79 674.987 540.563C675.76 540.323 676.567 540.203 677.407 540.203C678.86 540.203 679.98 540.557 680.767 541.263C681.553 541.97 681.947 543.05 681.947 544.503V550.903H680.127ZM676.647 551.023C675.86 551.023 675.167 550.89 674.567 550.623C673.98 550.357 673.527 549.99 673.207 549.523C672.887 549.043 672.727 548.503 672.727 547.903C672.727 547.33 672.86 546.81 673.127 546.343C673.407 545.877 673.853 545.503 674.467 545.223C675.093 544.943 675.933 544.803 676.987 544.803H680.347V546.183H677.067C676.107 546.183 675.46 546.343 675.127 546.663C674.793 546.983 674.627 547.37 674.627 547.823C674.627 548.343 674.833 548.763 675.247 549.083C675.66 549.39 676.233 549.543 676.967 549.543C677.687 549.543 678.313 549.383 678.847 549.063C679.393 548.743 679.787 548.277 680.027 547.663L680.407 548.983C680.153 549.61 679.707 550.11 679.067 550.483C678.427 550.843 677.62 551.023 676.647 551.023ZM691.16 540.203C692.026 540.203 692.786 540.37 693.44 540.703C694.106 541.037 694.626 541.543 695 542.223C695.373 542.903 695.56 543.763 695.56 544.803V550.903H693.64V545.023C693.64 543.997 693.386 543.223 692.88 542.703C692.386 542.183 691.686 541.923 690.78 541.923C690.1 541.923 689.506 542.057 689 542.323C688.493 542.59 688.1 542.983 687.82 543.503C687.553 544.023 687.42 544.67 687.42 545.443V550.903H685.5V540.303H687.34V543.163L687.04 542.403C687.386 541.71 687.92 541.17 688.64 540.783C689.36 540.397 690.2 540.203 691.16 540.203ZM703.833 551.023C702.7 551.023 701.7 550.79 700.833 550.323C699.98 549.857 699.313 549.217 698.833 548.403C698.366 547.59 698.133 546.657 698.133 545.603C698.133 544.55 698.36 543.617 698.813 542.803C699.28 541.99 699.913 541.357 700.713 540.903C701.526 540.437 702.44 540.203 703.453 540.203C704.48 540.203 705.386 540.43 706.173 540.883C706.96 541.337 707.573 541.977 708.013 542.803C708.466 543.617 708.693 544.57 708.693 545.663C708.693 545.743 708.686 545.837 708.673 545.943C708.673 546.05 708.666 546.15 708.653 546.243H699.633V544.863H707.653L706.873 545.343C706.886 544.663 706.746 544.057 706.453 543.523C706.16 542.99 705.753 542.577 705.233 542.283C704.726 541.977 704.133 541.823 703.453 541.823C702.786 541.823 702.193 541.977 701.673 542.283C701.153 542.577 700.746 542.997 700.453 543.543C700.16 544.077 700.013 544.69 700.013 545.383V545.703C700.013 546.41 700.173 547.043 700.493 547.603C700.826 548.15 701.286 548.577 701.873 548.883C702.46 549.19 703.133 549.343 703.893 549.343C704.52 549.343 705.086 549.237 705.593 549.023C706.113 548.81 706.566 548.49 706.953 548.063L708.013 549.303C707.533 549.863 706.933 550.29 706.213 550.583C705.506 550.877 704.713 551.023 703.833 551.023Z" fill="black"/>
<path d="M2.79629 436.694V422.694H4.43629L10.7163 433.274H9.83629L16.0363 422.694H17.6763L17.6963 436.694H15.7763L15.7563 425.714H16.2163L10.6963 434.994H9.77629L4.21629 425.714H4.71629V436.694H2.79629ZM21.6179 436.694V426.094H23.5379V436.694H21.6179ZM22.5779 424.054C22.2045 424.054 21.8912 423.934 21.6379 423.694C21.3979 423.454 21.2779 423.16 21.2779 422.814C21.2779 422.454 21.3979 422.154 21.6379 421.914C21.8912 421.674 22.2045 421.554 22.5779 421.554C22.9512 421.554 23.2579 421.674 23.4979 421.914C23.7512 422.14 23.8779 422.427 23.8779 422.774C23.8779 423.134 23.7579 423.44 23.5179 423.694C23.2779 423.934 22.9645 424.054 22.5779 424.054ZM30.8438 436.814C29.7771 436.814 28.9505 436.527 28.3638 435.954C27.7771 435.38 27.4838 434.56 27.4838 433.494V423.774H29.4038V433.414C29.4038 433.987 29.5438 434.427 29.8238 434.734C30.1171 435.04 30.5305 435.194 31.0638 435.194C31.6638 435.194 32.1638 435.027 32.5638 434.694L33.1638 436.074C32.8705 436.327 32.5171 436.514 32.1038 436.634C31.7038 436.754 31.2838 436.814 30.8438 436.814ZM25.6838 427.674V426.094H32.4438V427.674H25.6838ZM39.6735 436.814C38.6068 436.814 37.6601 436.58 36.8335 436.114C36.0068 435.647 35.3535 435.007 34.8735 434.194C34.3935 433.367 34.1535 432.434 34.1535 431.394C34.1535 430.34 34.3935 429.407 34.8735 428.594C35.3535 427.78 36.0068 427.147 36.8335 426.694C37.6601 426.227 38.6068 425.994 39.6735 425.994C40.7268 425.994 41.6668 426.227 42.4935 426.694C43.3335 427.147 43.9868 427.78 44.4535 428.594C44.9335 429.394 45.1735 430.327 45.1735 431.394C45.1735 432.447 44.9335 433.38 44.4535 434.194C43.9868 435.007 43.3335 435.647 42.4935 436.114C41.6668 436.58 40.7268 436.814 39.6735 436.814ZM39.6735 435.134C40.3535 435.134 40.9601 434.98 41.4935 434.674C42.0401 434.367 42.4668 433.934 42.7735 433.374C43.0801 432.8 43.2335 432.14 43.2335 431.394C43.2335 430.634 43.0801 429.98 42.7735 429.434C42.4668 428.874 42.0401 428.44 41.4935 428.134C40.9601 427.827 40.3535 427.674 39.6735 427.674C38.9935 427.674 38.3868 427.827 37.8535 428.134C37.3201 428.44 36.8935 428.874 36.5735 429.434C36.2535 429.98 36.0935 430.634 36.0935 431.394C36.0935 432.14 36.2535 432.8 36.5735 433.374C36.8935 433.934 37.3201 434.367 37.8535 434.674C38.3868 434.98 38.9935 435.134 39.6735 435.134ZM52.4488 436.814C51.3688 436.814 50.4021 436.58 49.5488 436.114C48.7088 435.647 48.0488 435.007 47.5688 434.194C47.0888 433.38 46.8488 432.447 46.8488 431.394C46.8488 430.34 47.0888 429.407 47.5688 428.594C48.0488 427.78 48.7088 427.147 49.5488 426.694C50.4021 426.227 51.3688 425.994 52.4488 425.994C53.4088 425.994 54.2621 426.187 55.0088 426.574C55.7688 426.947 56.3555 427.507 56.7688 428.254L55.3088 429.194C54.9621 428.674 54.5355 428.294 54.0288 428.054C53.5355 427.8 53.0021 427.674 52.4288 427.674C51.7355 427.674 51.1155 427.827 50.5688 428.134C50.0221 428.44 49.5888 428.874 49.2688 429.434C48.9488 429.98 48.7888 430.634 48.7888 431.394C48.7888 432.154 48.9488 432.814 49.2688 433.374C49.5888 433.934 50.0221 434.367 50.5688 434.674C51.1155 434.98 51.7355 435.134 52.4288 435.134C53.0021 435.134 53.5355 435.014 54.0288 434.774C54.5355 434.52 54.9621 434.134 55.3088 433.614L56.7688 434.534C56.3555 435.267 55.7688 435.834 55.0088 436.234C54.2621 436.62 53.4088 436.814 52.4488 436.814ZM64.7779 425.994C65.6445 425.994 66.4045 426.16 67.0579 426.494C67.7245 426.827 68.2445 427.334 68.6179 428.014C68.9912 428.694 69.1779 429.554 69.1779 430.594V436.694H67.2579V430.814C67.2579 429.787 67.0045 429.014 66.4979 428.494C66.0045 427.974 65.3045 427.714 64.3979 427.714C63.7179 427.714 63.1245 427.847 62.6179 428.114C62.1112 428.38 61.7179 428.774 61.4379 429.294C61.1712 429.814 61.0379 430.46 61.0379 431.234V436.694H59.1179V421.854H61.0379V428.954L60.6579 428.194C61.0045 427.5 61.5379 426.96 62.2579 426.574C62.9779 426.187 63.8179 425.994 64.7779 425.994ZM77.2711 436.814C76.2045 436.814 75.2578 436.58 74.4311 436.114C73.6045 435.647 72.9511 435.007 72.4711 434.194C71.9911 433.367 71.7511 432.434 71.7511 431.394C71.7511 430.34 71.9911 429.407 72.4711 428.594C72.9511 427.78 73.6045 427.147 74.4311 426.694C75.2578 426.227 76.2045 425.994 77.2711 425.994C78.3245 425.994 79.2645 426.227 80.0911 426.694C80.9311 427.147 81.5845 427.78 82.0511 428.594C82.5311 429.394 82.7711 430.327 82.7711 431.394C82.7711 432.447 82.5311 433.38 82.0511 434.194C81.5845 435.007 80.9311 435.647 80.0911 436.114C79.2645 436.58 78.3245 436.814 77.2711 436.814ZM77.2711 435.134C77.9511 435.134 78.5578 434.98 79.0911 434.674C79.6378 434.367 80.0645 433.934 80.3711 433.374C80.6778 432.8 80.8311 432.14 80.8311 431.394C80.8311 430.634 80.6778 429.98 80.3711 429.434C80.0645 428.874 79.6378 428.44 79.0911 428.134C78.5578 427.827 77.9511 427.674 77.2711 427.674C76.5911 427.674 75.9845 427.827 75.4511 428.134C74.9178 428.44 74.4911 428.874 74.1711 429.434C73.8511 429.98 73.6911 430.634 73.6911 431.394C73.6911 432.14 73.8511 432.8 74.1711 433.374C74.4911 433.934 74.9178 434.367 75.4511 434.674C75.9845 434.98 76.5911 435.134 77.2711 435.134ZM91.0864 425.994C91.9531 425.994 92.7131 426.16 93.3664 426.494C94.0331 426.827 94.5531 427.334 94.9264 428.014C95.2998 428.694 95.4864 429.554 95.4864 430.594V436.694H93.5664V430.814C93.5664 429.787 93.3131 429.014 92.8064 428.494C92.3131 427.974 91.6131 427.714 90.7064 427.714C90.0264 427.714 89.4331 427.847 88.9264 428.114C88.4198 428.38 88.0264 428.774 87.7464 429.294C87.4798 429.814 87.3464 430.46 87.3464 431.234V436.694H85.4264V426.094H87.2664V428.954L86.9664 428.194C87.3131 427.5 87.8464 426.96 88.5664 426.574C89.2864 426.187 90.1264 425.994 91.0864 425.994ZM103.42 436.814C102.393 436.814 101.473 436.587 100.66 436.134C99.8597 435.68 99.2264 435.047 98.7597 434.234C98.2931 433.42 98.0597 432.474 98.0597 431.394C98.0597 430.314 98.2931 429.374 98.7597 428.574C99.2264 427.76 99.8597 427.127 100.66 426.674C101.473 426.22 102.393 425.994 103.42 425.994C104.313 425.994 105.12 426.194 105.84 426.594C106.56 426.994 107.133 427.594 107.56 428.394C108 429.194 108.22 430.194 108.22 431.394C108.22 432.594 108.006 433.594 107.58 434.394C107.166 435.194 106.6 435.8 105.88 436.214C105.16 436.614 104.34 436.814 103.42 436.814ZM103.58 435.134C104.246 435.134 104.846 434.98 105.38 434.674C105.926 434.367 106.353 433.934 106.66 433.374C106.98 432.8 107.14 432.14 107.14 431.394C107.14 430.634 106.98 429.98 106.66 429.434C106.353 428.874 105.926 428.44 105.38 428.134C104.846 427.827 104.246 427.674 103.58 427.674C102.9 427.674 102.293 427.827 101.76 428.134C101.226 428.44 100.8 428.874 100.48 429.434C100.16 429.98 99.9997 430.634 99.9997 431.394C99.9997 432.14 100.16 432.8 100.48 433.374C100.8 433.934 101.226 434.367 101.76 434.674C102.293 434.98 102.9 435.134 103.58 435.134ZM107.2 436.694V433.834L107.32 431.374L107.12 428.914V421.854H109.04V436.694H107.2ZM112.673 436.694V426.094H114.513V428.974L114.333 428.254C114.626 427.52 115.119 426.96 115.813 426.574C116.506 426.187 117.359 425.994 118.373 425.994V427.854C118.293 427.84 118.213 427.834 118.133 427.834C118.066 427.834 117.999 427.834 117.933 427.834C116.906 427.834 116.093 428.14 115.493 428.754C114.893 429.367 114.593 430.254 114.593 431.414V436.694H112.673ZM120.739 436.694V426.094H122.659V436.694H120.739ZM121.699 424.054C121.326 424.054 121.012 423.934 120.759 423.694C120.519 423.454 120.399 423.16 120.399 422.814C120.399 422.454 120.519 422.154 120.759 421.914C121.012 421.674 121.326 421.554 121.699 421.554C122.072 421.554 122.379 421.674 122.619 421.914C122.872 422.14 122.999 422.427 122.999 422.774C122.999 423.134 122.879 423.44 122.639 423.694C122.399 423.934 122.086 424.054 121.699 424.054ZM130.865 436.814C129.798 436.814 128.852 436.58 128.025 436.114C127.198 435.647 126.545 435.007 126.065 434.194C125.585 433.367 125.345 432.434 125.345 431.394C125.345 430.34 125.585 429.407 126.065 428.594C126.545 427.78 127.198 427.147 128.025 426.694C128.852 426.227 129.798 425.994 130.865 425.994C131.918 425.994 132.858 426.227 133.685 426.694C134.525 427.147 135.178 427.78 135.645 428.594C136.125 429.394 136.365 430.327 136.365 431.394C136.365 432.447 136.125 433.38 135.645 434.194C135.178 435.007 134.525 435.647 133.685 436.114C132.858 436.58 131.918 436.814 130.865 436.814ZM130.865 435.134C131.545 435.134 132.152 434.98 132.685 434.674C133.232 434.367 133.658 433.934 133.965 433.374C134.272 432.8 134.425 432.14 134.425 431.394C134.425 430.634 134.272 429.98 133.965 429.434C133.658 428.874 133.232 428.44 132.685 428.134C132.152 427.827 131.545 427.674 130.865 427.674C130.185 427.674 129.578 427.827 129.045 428.134C128.512 428.44 128.085 428.874 127.765 429.434C127.445 429.98 127.285 430.634 127.285 431.394C127.285 432.14 127.445 432.8 127.765 433.374C128.085 433.934 128.512 434.367 129.045 434.674C129.578 434.98 130.185 435.134 130.865 435.134ZM144.68 425.994C145.547 425.994 146.307 426.16 146.96 426.494C147.627 426.827 148.147 427.334 148.52 428.014C148.894 428.694 149.08 429.554 149.08 430.594V436.694H147.16V430.814C147.16 429.787 146.907 429.014 146.4 428.494C145.907 427.974 145.207 427.714 144.3 427.714C143.62 427.714 143.027 427.847 142.52 428.114C142.014 428.38 141.62 428.774 141.34 429.294C141.074 429.814 140.94 430.46 140.94 431.234V436.694H139.02V426.094H140.86V428.954L140.56 428.194C140.907 427.5 141.44 426.96 142.16 426.574C142.88 426.187 143.72 425.994 144.68 425.994Z" fill="black"/>
<path d="M27.7963 240.736V226.736H29.7963V238.996H37.3763V240.736H27.7963ZM39.0896 244.736C38.5829 244.736 38.0896 244.649 37.6096 244.476C37.1296 244.316 36.7162 244.076 36.3696 243.756L37.1896 242.316C37.4562 242.569 37.7496 242.763 38.0696 242.896C38.3896 243.029 38.7296 243.096 39.0896 243.096C39.5562 243.096 39.9429 242.976 40.2496 242.736C40.5562 242.496 40.8429 242.069 41.1096 241.456L41.7696 239.996L41.9696 239.756L46.1296 230.136H48.0096L42.8696 241.796C42.5629 242.543 42.2162 243.129 41.8296 243.556C41.4562 243.983 41.0429 244.283 40.5896 244.456C40.1362 244.643 39.6362 244.736 39.0896 244.736ZM41.6096 241.076L36.7696 230.136H38.7696L42.8896 239.576L41.6096 241.076ZM52.7047 240.856C51.8247 240.856 50.9847 240.736 50.1847 240.496C49.3981 240.256 48.7781 239.963 48.3247 239.616L49.1247 238.096C49.5781 238.403 50.1381 238.663 50.8047 238.876C51.4714 239.089 52.1514 239.196 52.8447 239.196C53.7381 239.196 54.3781 239.069 54.7647 238.816C55.1647 238.563 55.3647 238.209 55.3647 237.756C55.3647 237.423 55.2447 237.163 55.0047 236.976C54.7647 236.789 54.4447 236.649 54.0447 236.556C53.6581 236.463 53.2247 236.383 52.7447 236.316C52.2647 236.236 51.7847 236.143 51.3047 236.036C50.8247 235.916 50.3847 235.756 49.9847 235.556C49.5847 235.343 49.2647 235.056 49.0247 234.696C48.7847 234.323 48.6647 233.829 48.6647 233.216C48.6647 232.576 48.8447 232.016 49.2047 231.536C49.5647 231.056 50.0714 230.689 50.7247 230.436C51.3914 230.169 52.1781 230.036 53.0847 230.036C53.7781 230.036 54.4781 230.123 55.1847 230.296C55.9047 230.456 56.4914 230.689 56.9447 230.996L56.1247 232.516C55.6447 232.196 55.1447 231.976 54.6247 231.856C54.1047 231.736 53.5847 231.676 53.0647 231.676C52.2247 231.676 51.5981 231.816 51.1847 232.096C50.7714 232.363 50.5647 232.709 50.5647 233.136C50.5647 233.496 50.6847 233.776 50.9247 233.976C51.1781 234.163 51.4981 234.309 51.8847 234.416C52.2847 234.523 52.7247 234.616 53.2047 234.696C53.6847 234.763 54.1647 234.856 54.6447 234.976C55.1247 235.083 55.5581 235.236 55.9447 235.436C56.3447 235.636 56.6647 235.916 56.9047 236.276C57.1581 236.636 57.2847 237.116 57.2847 237.716C57.2847 238.356 57.0981 238.909 56.7247 239.376C56.3514 239.843 55.8247 240.209 55.1447 240.476C54.4647 240.729 53.6514 240.856 52.7047 240.856ZM64.2243 240.856C63.1576 240.856 62.2109 240.623 61.3843 240.156C60.5576 239.689 59.9043 239.049 59.4243 238.236C58.9443 237.409 58.7043 236.476 58.7043 235.436C58.7043 234.383 58.9443 233.449 59.4243 232.636C59.9043 231.823 60.5576 231.189 61.3843 230.736C62.2109 230.269 63.1576 230.036 64.2243 230.036C65.2776 230.036 66.2176 230.269 67.0443 230.736C67.8843 231.189 68.5376 231.823 69.0043 232.636C69.4843 233.436 69.7243 234.369 69.7243 235.436C69.7243 236.489 69.4843 237.423 69.0043 238.236C68.5376 239.049 67.8843 239.689 67.0443 240.156C66.2176 240.623 65.2776 240.856 64.2243 240.856ZM64.2243 239.176C64.9043 239.176 65.5109 239.023 66.0443 238.716C66.5909 238.409 67.0176 237.976 67.3243 237.416C67.6309 236.843 67.7843 236.183 67.7843 235.436C67.7843 234.676 67.6309 234.023 67.3243 233.476C67.0176 232.916 66.5909 232.483 66.0443 232.176C65.5109 231.869 64.9043 231.716 64.2243 231.716C63.5443 231.716 62.9376 231.869 62.4043 232.176C61.8709 232.483 61.4443 232.916 61.1243 233.476C60.8043 234.023 60.6443 234.676 60.6443 235.436C60.6443 236.183 60.8043 236.843 61.1243 237.416C61.4443 237.976 61.8709 238.409 62.4043 238.716C62.9376 239.023 63.5443 239.176 64.2243 239.176ZM75.4196 240.856C74.5396 240.856 73.6996 240.736 72.8996 240.496C72.1129 240.256 71.4929 239.963 71.0396 239.616L71.8396 238.096C72.2929 238.403 72.8529 238.663 73.5196 238.876C74.1862 239.089 74.8662 239.196 75.5596 239.196C76.4529 239.196 77.0929 239.069 77.4796 238.816C77.8796 238.563 78.0796 238.209 78.0796 237.756C78.0796 237.423 77.9596 237.163 77.7196 236.976C77.4796 236.789 77.1596 236.649 76.7596 236.556C76.3729 236.463 75.9396 236.383 75.4596 236.316C74.9796 236.236 74.4996 236.143 74.0196 236.036C73.5396 235.916 73.0996 235.756 72.6996 235.556C72.2996 235.343 71.9796 235.056 71.7396 234.696C71.4996 234.323 71.3796 233.829 71.3796 233.216C71.3796 232.576 71.5596 232.016 71.9196 231.536C72.2796 231.056 72.7862 230.689 73.4396 230.436C74.1062 230.169 74.8929 230.036 75.7996 230.036C76.4929 230.036 77.1929 230.123 77.8996 230.296C78.6196 230.456 79.2062 230.689 79.6596 230.996L78.8396 232.516C78.3596 232.196 77.8596 231.976 77.3396 231.856C76.8196 231.736 76.2996 231.676 75.7796 231.676C74.9396 231.676 74.3129 231.816 73.8996 232.096C73.4862 232.363 73.2796 232.709 73.2796 233.136C73.2796 233.496 73.3996 233.776 73.6396 233.976C73.8929 234.163 74.2129 234.309 74.5996 234.416C74.9996 234.523 75.4396 234.616 75.9196 234.696C76.3996 234.763 76.8796 234.856 77.3596 234.976C77.8396 235.083 78.2729 235.236 78.6596 235.436C79.0596 235.636 79.3796 235.916 79.6196 236.276C79.8729 236.636 79.9996 237.116 79.9996 237.716C79.9996 238.356 79.8129 238.909 79.4396 239.376C79.0662 239.843 78.5396 240.209 77.8596 240.476C77.1796 240.729 76.3662 240.856 75.4196 240.856ZM86.9391 240.856C85.8724 240.856 84.9258 240.623 84.0991 240.156C83.2724 239.689 82.6191 239.049 82.1391 238.236C81.6591 237.409 81.4191 236.476 81.4191 235.436C81.4191 234.383 81.6591 233.449 82.1391 232.636C82.6191 231.823 83.2724 231.189 84.0991 230.736C84.9258 230.269 85.8724 230.036 86.9391 230.036C87.9924 230.036 88.9324 230.269 89.7591 230.736C90.5991 231.189 91.2524 231.823 91.7191 232.636C92.1991 233.436 92.4391 234.369 92.4391 235.436C92.4391 236.489 92.1991 237.423 91.7191 238.236C91.2524 239.049 90.5991 239.689 89.7591 240.156C88.9324 240.623 87.9924 240.856 86.9391 240.856ZM86.9391 239.176C87.6191 239.176 88.2258 239.023 88.7591 238.716C89.3058 238.409 89.7324 237.976 90.0391 237.416C90.3458 236.843 90.4991 236.183 90.4991 235.436C90.4991 234.676 90.3458 234.023 90.0391 233.476C89.7324 232.916 89.3058 232.483 88.7591 232.176C88.2258 231.869 87.6191 231.716 86.9391 231.716C86.2591 231.716 85.6524 231.869 85.1191 232.176C84.5858 232.483 84.1591 232.916 83.8391 233.476C83.5191 234.023 83.3591 234.676 83.3591 235.436C83.3591 236.183 83.5191 236.843 83.8391 237.416C84.1591 237.976 84.5858 238.409 85.1191 238.716C85.6524 239.023 86.2591 239.176 86.9391 239.176ZM108.354 230.036C109.208 230.036 109.961 230.203 110.614 230.536C111.268 230.869 111.774 231.376 112.134 232.056C112.508 232.736 112.694 233.596 112.694 234.636V240.736H110.774V234.856C110.774 233.829 110.534 233.056 110.054 232.536C109.574 232.016 108.901 231.756 108.034 231.756C107.394 231.756 106.834 231.889 106.354 232.156C105.874 232.423 105.501 232.816 105.234 233.336C104.981 233.856 104.854 234.503 104.854 235.276V240.736H102.934V234.856C102.934 233.829 102.694 233.056 102.214 232.536C101.748 232.016 101.074 231.756 100.194 231.756C99.5677 231.756 99.0144 231.889 98.5344 232.156C98.0544 232.423 97.6811 232.816 97.4144 233.336C97.1477 233.856 97.0144 234.503 97.0144 235.276V240.736H95.0944V230.136H96.9344V232.956L96.6344 232.236C96.9677 231.543 97.4811 231.003 98.1744 230.616C98.8677 230.229 99.6744 230.036 100.594 230.036C101.608 230.036 102.481 230.289 103.214 230.796C103.948 231.289 104.428 232.043 104.654 233.056L103.874 232.736C104.194 231.923 104.754 231.269 105.554 230.776C106.354 230.283 107.288 230.036 108.354 230.036ZM120.947 240.856C119.814 240.856 118.814 240.623 117.947 240.156C117.094 239.689 116.427 239.049 115.947 238.236C115.481 237.423 115.247 236.489 115.247 235.436C115.247 234.383 115.474 233.449 115.927 232.636C116.394 231.823 117.027 231.189 117.827 230.736C118.641 230.269 119.554 230.036 120.567 230.036C121.594 230.036 122.501 230.263 123.287 230.716C124.074 231.169 124.687 231.809 125.127 232.636C125.581 233.449 125.807 234.403 125.807 235.496C125.807 235.576 125.801 235.669 125.787 235.776C125.787 235.883 125.781 235.983 125.767 236.076H116.747V234.696H124.767L123.987 235.176C124.001 234.496 123.861 233.889 123.567 233.356C123.274 232.823 122.867 232.409 122.347 232.116C121.841 231.809 121.247 231.656 120.567 231.656C119.901 231.656 119.307 231.809 118.787 232.116C118.267 232.409 117.861 232.829 117.567 233.376C117.274 233.909 117.127 234.523 117.127 235.216V235.536C117.127 236.243 117.287 236.876 117.607 237.436C117.941 237.983 118.401 238.409 118.987 238.716C119.574 239.023 120.247 239.176 121.007 239.176C121.634 239.176 122.201 239.069 122.707 238.856C123.227 238.643 123.681 238.323 124.067 237.896L125.127 239.136C124.647 239.696 124.047 240.123 123.327 240.416C122.621 240.709 121.827 240.856 120.947 240.856Z" fill="black"/>
<path d="M93.9257 155.79V141.79H95.5657L104.826 153.29H103.966V141.79H105.966V155.79H104.326L95.0657 144.29H95.9257V155.79H93.9257ZM114.336 155.91C113.429 155.91 112.629 155.743 111.936 155.41C111.256 155.076 110.723 154.57 110.336 153.89C109.963 153.196 109.776 152.33 109.776 151.29V145.19H111.696V151.07C111.696 152.11 111.943 152.89 112.436 153.41C112.943 153.93 113.649 154.19 114.556 154.19C115.223 154.19 115.803 154.056 116.296 153.79C116.789 153.51 117.169 153.11 117.436 152.59C117.703 152.056 117.836 151.416 117.836 150.67V145.19H119.756V155.79H117.936V152.93L118.236 153.69C117.889 154.396 117.369 154.943 116.676 155.33C115.983 155.716 115.203 155.91 114.336 155.91ZM128.031 155.91C126.951 155.91 125.985 155.676 125.131 155.21C124.291 154.743 123.631 154.103 123.151 153.29C122.671 152.476 122.431 151.543 122.431 150.49C122.431 149.436 122.671 148.503 123.151 147.69C123.631 146.876 124.291 146.243 125.131 145.79C125.985 145.323 126.951 145.09 128.031 145.09C128.991 145.09 129.845 145.283 130.591 145.67C131.351 146.043 131.938 146.603 132.351 147.35L130.891 148.29C130.545 147.77 130.118 147.39 129.611 147.15C129.118 146.896 128.585 146.77 128.011 146.77C127.318 146.77 126.698 146.923 126.151 147.23C125.605 147.536 125.171 147.97 124.851 148.53C124.531 149.076 124.371 149.73 124.371 150.49C124.371 151.25 124.531 151.91 124.851 152.47C125.171 153.03 125.605 153.463 126.151 153.77C126.698 154.076 127.318 154.23 128.011 154.23C128.585 154.23 129.118 154.11 129.611 153.87C130.118 153.616 130.545 153.23 130.891 152.71L132.351 153.63C131.938 154.363 131.351 154.93 130.591 155.33C129.845 155.716 128.991 155.91 128.031 155.91ZM134.7 155.79V140.95H136.62V155.79H134.7ZM145.006 155.91C143.873 155.91 142.873 155.676 142.006 155.21C141.153 154.743 140.486 154.103 140.006 153.29C139.54 152.476 139.306 151.543 139.306 150.49C139.306 149.436 139.533 148.503 139.986 147.69C140.453 146.876 141.086 146.243 141.886 145.79C142.7 145.323 143.613 145.09 144.626 145.09C145.653 145.09 146.56 145.316 147.346 145.77C148.133 146.223 148.746 146.863 149.186 147.69C149.64 148.503 149.866 149.456 149.866 150.55C149.866 150.63 149.86 150.723 149.846 150.83C149.846 150.936 149.84 151.036 149.826 151.13H140.806V149.75H148.826L148.046 150.23C148.06 149.55 147.92 148.943 147.626 148.41C147.333 147.876 146.926 147.463 146.406 147.17C145.9 146.863 145.306 146.71 144.626 146.71C143.96 146.71 143.366 146.863 142.846 147.17C142.326 147.463 141.92 147.883 141.626 148.43C141.333 148.963 141.186 149.576 141.186 150.27V150.59C141.186 151.296 141.346 151.93 141.666 152.49C142 153.036 142.46 153.463 143.046 153.77C143.633 154.076 144.306 154.23 145.066 154.23C145.693 154.23 146.26 154.123 146.766 153.91C147.286 153.696 147.74 153.376 148.126 152.95L149.186 154.19C148.706 154.75 148.106 155.176 147.386 155.47C146.68 155.763 145.886 155.91 145.006 155.91ZM157.072 155.91C156.006 155.91 155.059 155.676 154.232 155.21C153.406 154.743 152.752 154.103 152.272 153.29C151.792 152.463 151.552 151.53 151.552 150.49C151.552 149.436 151.792 148.503 152.272 147.69C152.752 146.876 153.406 146.243 154.232 145.79C155.059 145.323 156.006 145.09 157.072 145.09C158.126 145.09 159.066 145.323 159.892 145.79C160.732 146.243 161.386 146.876 161.852 147.69C162.332 148.49 162.572 149.423 162.572 150.49C162.572 151.543 162.332 152.476 161.852 153.29C161.386 154.103 160.732 154.743 159.892 155.21C159.066 155.676 158.126 155.91 157.072 155.91ZM157.072 154.23C157.752 154.23 158.359 154.076 158.892 153.77C159.439 153.463 159.866 153.03 160.172 152.47C160.479 151.896 160.632 151.236 160.632 150.49C160.632 149.73 160.479 149.076 160.172 148.53C159.866 147.97 159.439 147.536 158.892 147.23C158.359 146.923 157.752 146.77 157.072 146.77C156.392 146.77 155.786 146.923 155.252 147.23C154.719 147.536 154.292 147.97 153.972 148.53C153.652 149.076 153.492 149.73 153.492 150.49C153.492 151.236 153.652 151.896 153.972 152.47C154.292 153.03 154.719 153.463 155.252 153.77C155.786 154.076 156.392 154.23 157.072 154.23ZM165.228 155.79V140.95H167.148V155.79H165.228ZM175.274 155.91C174.367 155.91 173.567 155.743 172.874 155.41C172.194 155.076 171.66 154.57 171.274 153.89C170.9 153.196 170.714 152.33 170.714 151.29V145.19H172.634V151.07C172.634 152.11 172.88 152.89 173.374 153.41C173.88 153.93 174.587 154.19 175.494 154.19C176.16 154.19 176.74 154.056 177.234 153.79C177.727 153.51 178.107 153.11 178.374 152.59C178.64 152.056 178.774 151.416 178.774 150.67V145.19H180.694V155.79H178.874V152.93L179.174 153.69C178.827 154.396 178.307 154.943 177.614 155.33C176.92 155.716 176.14 155.91 175.274 155.91ZM187.389 155.91C186.509 155.91 185.669 155.79 184.869 155.55C184.082 155.31 183.462 155.016 183.009 154.67L183.809 153.15C184.262 153.456 184.822 153.716 185.489 153.93C186.155 154.143 186.835 154.25 187.529 154.25C188.422 154.25 189.062 154.123 189.449 153.87C189.849 153.616 190.049 153.263 190.049 152.81C190.049 152.476 189.929 152.216 189.689 152.03C189.449 151.843 189.129 151.703 188.729 151.61C188.342 151.516 187.909 151.436 187.429 151.37C186.949 151.29 186.469 151.196 185.989 151.09C185.509 150.97 185.069 150.81 184.669 150.61C184.269 150.396 183.949 150.11 183.709 149.75C183.469 149.376 183.349 148.883 183.349 148.27C183.349 147.63 183.529 147.07 183.889 146.59C184.249 146.11 184.755 145.743 185.409 145.49C186.075 145.223 186.862 145.09 187.769 145.09C188.462 145.09 189.162 145.176 189.869 145.35C190.589 145.51 191.175 145.743 191.629 146.05L190.809 147.57C190.329 147.25 189.829 147.03 189.309 146.91C188.789 146.79 188.269 146.73 187.749 146.73C186.909 146.73 186.282 146.87 185.869 147.15C185.455 147.416 185.249 147.763 185.249 148.19C185.249 148.55 185.369 148.83 185.609 149.03C185.862 149.216 186.182 149.363 186.569 149.47C186.969 149.576 187.409 149.67 187.889 149.75C188.369 149.816 188.849 149.91 189.329 150.03C189.809 150.136 190.242 150.29 190.629 150.49C191.029 150.69 191.349 150.97 191.589 151.33C191.842 151.69 191.969 152.17 191.969 152.77C191.969 153.41 191.782 153.963 191.409 154.43C191.035 154.896 190.509 155.263 189.829 155.53C189.149 155.783 188.335 155.91 187.389 155.91Z" fill="black"/>
<path d="M168.045 65.8386V51.8386H169.685L178.945 63.3386H178.085V51.8386H180.085V65.8386H178.445L169.185 54.3386H170.045V65.8386H168.045ZM188.456 65.9586C187.549 65.9586 186.749 65.792 186.056 65.4586C185.376 65.1253 184.842 64.6186 184.456 63.9386C184.082 63.2453 183.896 62.3786 183.896 61.3386V55.2386H185.816V61.1186C185.816 62.1586 186.062 62.9386 186.556 63.4586C187.062 63.9786 187.769 64.2386 188.676 64.2386C189.342 64.2386 189.922 64.1053 190.416 63.8386C190.909 63.5586 191.289 63.1586 191.556 62.6386C191.822 62.1053 191.956 61.4653 191.956 60.7186V55.2386H193.876V65.8386H192.056V62.9786L192.356 63.7386C192.009 64.4453 191.489 64.992 190.796 65.3786C190.102 65.7653 189.322 65.9586 188.456 65.9586ZM202.151 65.9586C201.071 65.9586 200.104 65.7253 199.251 65.2586C198.411 64.792 197.751 64.152 197.271 63.3386C196.791 62.5253 196.551 61.592 196.551 60.5386C196.551 59.4853 196.791 58.552 197.271 57.7386C197.751 56.9253 198.411 56.292 199.251 55.8386C200.104 55.372 201.071 55.1386 202.151 55.1386C203.111 55.1386 203.964 55.332 204.711 55.7186C205.471 56.092 206.058 56.652 206.471 57.3986L205.011 58.3386C204.664 57.8186 204.238 57.4386 203.731 57.1986C203.238 56.9453 202.704 56.8186 202.131 56.8186C201.438 56.8186 200.818 56.972 200.271 57.2786C199.724 57.5853 199.291 58.0186 198.971 58.5786C198.651 59.1253 198.491 59.7786 198.491 60.5386C198.491 61.2986 198.651 61.9586 198.971 62.5186C199.291 63.0786 199.724 63.512 200.271 63.8186C200.818 64.1253 201.438 64.2786 202.131 64.2786C202.704 64.2786 203.238 64.1586 203.731 63.9186C204.238 63.6653 204.664 63.2786 205.011 62.7586L206.471 63.6786C206.058 64.412 205.471 64.9786 204.711 65.3786C203.964 65.7653 203.111 65.9586 202.151 65.9586ZM208.82 65.8386V50.9986H210.74V65.8386H208.82ZM219.126 65.9586C217.993 65.9586 216.993 65.7253 216.126 65.2586C215.273 64.792 214.606 64.152 214.126 63.3386C213.659 62.5253 213.426 61.592 213.426 60.5386C213.426 59.4853 213.653 58.552 214.106 57.7386C214.573 56.9253 215.206 56.292 216.006 55.8386C216.819 55.372 217.733 55.1386 218.746 55.1386C219.773 55.1386 220.679 55.3653 221.466 55.8186C222.253 56.272 222.866 56.912 223.306 57.7386C223.759 58.552 223.986 59.5053 223.986 60.5986C223.986 60.6786 223.979 60.772 223.966 60.8786C223.966 60.9853 223.959 61.0853 223.946 61.1786H214.926V59.7986H222.946L222.166 60.2786C222.179 59.5986 222.039 58.992 221.746 58.4586C221.453 57.9253 221.046 57.512 220.526 57.2186C220.019 56.912 219.426 56.7586 218.746 56.7586C218.079 56.7586 217.486 56.912 216.966 57.2186C216.446 57.512 216.039 57.932 215.746 58.4786C215.453 59.012 215.306 59.6253 215.306 60.3186V60.6386C215.306 61.3453 215.466 61.9786 215.786 62.5386C216.119 63.0853 216.579 63.512 217.166 63.8186C217.753 64.1253 218.426 64.2786 219.186 64.2786C219.813 64.2786 220.379 64.172 220.886 63.9586C221.406 63.7453 221.859 63.4253 222.246 62.9986L223.306 64.2386C222.826 64.7986 222.226 65.2253 221.506 65.5186C220.799 65.812 220.006 65.9586 219.126 65.9586ZM231.112 65.9586C230.205 65.9586 229.405 65.792 228.712 65.4586C228.032 65.1253 227.499 64.6186 227.112 63.9386C226.739 63.2453 226.552 62.3786 226.552 61.3386V55.2386H228.472V61.1186C228.472 62.1586 228.719 62.9386 229.212 63.4586C229.719 63.9786 230.425 64.2386 231.332 64.2386C231.999 64.2386 232.579 64.1053 233.072 63.8386C233.565 63.5586 233.945 63.1586 234.212 62.6386C234.479 62.1053 234.612 61.4653 234.612 60.7186V55.2386H236.532V65.8386H234.712V62.9786L235.012 63.7386C234.665 64.4453 234.145 64.992 233.452 65.3786C232.759 65.7653 231.979 65.9586 231.112 65.9586ZM243.227 65.9586C242.347 65.9586 241.507 65.8386 240.707 65.5986C239.921 65.3586 239.301 65.0653 238.847 64.7186L239.647 63.1986C240.101 63.5053 240.661 63.7653 241.327 63.9786C241.994 64.192 242.674 64.2986 243.367 64.2986C244.261 64.2986 244.901 64.172 245.287 63.9186C245.687 63.6653 245.887 63.312 245.887 62.8586C245.887 62.5253 245.767 62.2653 245.527 62.0786C245.287 61.892 244.967 61.752 244.567 61.6586C244.181 61.5653 243.747 61.4853 243.267 61.4186C242.787 61.3386 242.307 61.2453 241.827 61.1386C241.347 61.0186 240.907 60.8586 240.507 60.6586C240.107 60.4453 239.787 60.1586 239.547 59.7986C239.307 59.4253 239.187 58.932 239.187 58.3186C239.187 57.6786 239.367 57.1186 239.727 56.6386C240.087 56.1586 240.594 55.792 241.247 55.5386C241.914 55.272 242.701 55.1386 243.607 55.1386C244.301 55.1386 245.001 55.2253 245.707 55.3986C246.427 55.5586 247.014 55.792 247.467 56.0986L246.647 57.6186C246.167 57.2986 245.667 57.0786 245.147 56.9586C244.627 56.8386 244.107 56.7786 243.587 56.7786C242.747 56.7786 242.121 56.9186 241.707 57.1986C241.294 57.4653 241.087 57.812 241.087 58.2386C241.087 58.5986 241.207 58.8786 241.447 59.0786C241.701 59.2653 242.021 59.412 242.407 59.5186C242.807 59.6253 243.247 59.7186 243.727 59.7986C244.207 59.8653 244.687 59.9586 245.167 60.0786C245.647 60.1853 246.081 60.3386 246.467 60.5386C246.867 60.7386 247.187 61.0186 247.427 61.3786C247.681 61.7386 247.807 62.2186 247.807 62.8186C247.807 63.4586 247.621 64.012 247.247 64.4786C246.874 64.9453 246.347 65.312 245.667 65.5786C244.987 65.832 244.174 65.9586 243.227 65.9586Z" fill="black"/>
<path d="M426.58 609.075H433.04V612.135H426.58V609.075ZM426.86 616.935H422.9V602.935H433.88V605.995H426.86V616.935ZM435.552 616.935V606.095H439.352V616.935H435.552ZM437.452 604.895C436.759 604.895 436.199 604.702 435.772 604.315C435.345 603.929 435.132 603.449 435.132 602.875C435.132 602.302 435.345 601.822 435.772 601.435C436.199 601.049 436.759 600.855 437.452 600.855C438.145 600.855 438.705 601.042 439.132 601.415C439.559 601.775 439.772 602.242 439.772 602.815C439.772 603.415 439.559 603.915 439.132 604.315C438.719 604.702 438.159 604.895 437.452 604.895ZM447.122 620.995C446.082 620.995 445.088 620.875 444.142 620.635C443.208 620.395 442.408 620.042 441.742 619.575L443.122 616.915C443.575 617.275 444.135 617.555 444.802 617.755C445.482 617.969 446.142 618.075 446.782 618.075C447.808 618.075 448.548 617.849 449.002 617.395C449.455 616.955 449.682 616.309 449.682 615.455V614.175L449.882 611.135L449.862 608.075V606.095H453.482V614.955C453.482 617.009 452.928 618.529 451.822 619.515C450.715 620.502 449.148 620.995 447.122 620.995ZM446.462 616.375C445.502 616.375 444.615 616.162 443.802 615.735C443.002 615.295 442.355 614.689 441.862 613.915C441.382 613.129 441.142 612.202 441.142 611.135C441.142 610.069 441.382 609.149 441.862 608.375C442.355 607.589 443.002 606.982 443.802 606.555C444.615 606.129 445.502 605.915 446.462 605.915C447.382 605.915 448.168 606.102 448.822 606.475C449.475 606.835 449.968 607.402 450.302 608.175C450.648 608.949 450.822 609.935 450.822 611.135C450.822 612.335 450.648 613.322 450.302 614.095C449.968 614.869 449.475 615.442 448.822 615.815C448.168 616.189 447.382 616.375 446.462 616.375ZM447.362 613.355C447.815 613.355 448.215 613.262 448.562 613.075C448.922 612.889 449.202 612.629 449.402 612.295C449.615 611.962 449.722 611.575 449.722 611.135C449.722 610.695 449.615 610.309 449.402 609.975C449.202 609.642 448.922 609.389 448.562 609.215C448.215 609.029 447.815 608.935 447.362 608.935C446.908 608.935 446.502 609.029 446.142 609.215C445.782 609.389 445.495 609.642 445.282 609.975C445.082 610.309 444.982 610.695 444.982 611.135C444.982 611.575 445.082 611.962 445.282 612.295C445.495 612.629 445.782 612.889 446.142 613.075C446.502 613.262 446.908 613.355 447.362 613.355ZM463.243 616.935V604.355L464.943 605.995H460.643V602.935H467.203V616.935H463.243ZM471.449 617.115C470.809 617.115 470.269 616.902 469.829 616.475C469.389 616.049 469.169 615.509 469.169 614.855C469.169 614.175 469.389 613.635 469.829 613.235C470.269 612.822 470.809 612.615 471.449 612.615C472.089 612.615 472.629 612.822 473.069 613.235C473.509 613.635 473.729 614.175 473.729 614.855C473.729 615.509 473.509 616.049 473.069 616.475C472.629 616.902 472.089 617.115 471.449 617.115ZM476.661 616.935V604.355L478.361 605.995H474.061V602.935H480.621V616.935H476.661Z" fill="black"/>
</svg>
