<svg width="1016" height="645" viewBox="0 0 1016 645" fill="none" xmlns="http://www.w3.org/2000/svg">
<path d="M525.58 631.527H532.04V634.587H525.58V631.527ZM525.86 639.387H521.9V625.387H532.88V628.447H525.86V639.387ZM534.552 639.387V628.547H538.352V639.387H534.552ZM536.452 627.347C535.759 627.347 535.199 627.153 534.772 626.767C534.345 626.38 534.132 625.9 534.132 625.327C534.132 624.753 534.345 624.273 534.772 623.887C535.199 623.5 535.759 623.307 536.452 623.307C537.145 623.307 537.705 623.493 538.132 623.867C538.559 624.227 538.772 624.693 538.772 625.267C538.772 625.867 538.559 626.367 538.132 626.767C537.719 627.153 537.159 627.347 536.452 627.347ZM546.122 643.447C545.082 643.447 544.088 643.327 543.142 643.087C542.208 642.847 541.408 642.493 540.742 642.027L542.122 639.367C542.575 639.727 543.135 640.007 543.802 640.207C544.482 640.42 545.142 640.527 545.782 640.527C546.808 640.527 547.548 640.3 548.002 639.847C548.455 639.407 548.682 638.76 548.682 637.907V636.627L548.882 633.587L548.862 630.527V628.547H552.482V637.407C552.482 639.46 551.928 640.98 550.822 641.967C549.715 642.953 548.148 643.447 546.122 643.447ZM545.462 638.827C544.502 638.827 543.615 638.613 542.802 638.187C542.002 637.747 541.355 637.14 540.862 636.367C540.382 635.58 540.142 634.653 540.142 633.587C540.142 632.52 540.382 631.6 540.862 630.827C541.355 630.04 542.002 629.433 542.802 629.007C543.615 628.58 544.502 628.367 545.462 628.367C546.382 628.367 547.168 628.553 547.822 628.927C548.475 629.287 548.968 629.853 549.302 630.627C549.648 631.4 549.822 632.387 549.822 633.587C549.822 634.787 549.648 635.773 549.302 636.547C548.968 637.32 548.475 637.893 547.822 638.267C547.168 638.64 546.382 638.827 545.462 638.827ZM546.362 635.807C546.815 635.807 547.215 635.713 547.562 635.527C547.922 635.34 548.202 635.08 548.402 634.747C548.615 634.413 548.722 634.027 548.722 633.587C548.722 633.147 548.615 632.76 548.402 632.427C548.202 632.093 547.922 631.84 547.562 631.667C547.215 631.48 546.815 631.387 546.362 631.387C545.908 631.387 545.502 631.48 545.142 631.667C544.782 631.84 544.495 632.093 544.282 632.427C544.082 632.76 543.982 633.147 543.982 633.587C543.982 634.027 544.082 634.413 544.282 634.747C544.495 635.08 544.782 635.34 545.142 635.527C545.502 635.713 545.908 635.807 546.362 635.807ZM562.243 639.387V626.807L563.943 628.447H559.643V625.387H566.203V639.387H562.243ZM570.449 639.567C569.809 639.567 569.269 639.353 568.829 638.927C568.389 638.5 568.169 637.96 568.169 637.307C568.169 636.627 568.389 636.087 568.829 635.687C569.269 635.273 569.809 635.067 570.449 635.067C571.089 635.067 571.629 635.273 572.069 635.687C572.509 636.087 572.729 636.627 572.729 637.307C572.729 637.96 572.509 638.5 572.069 638.927C571.629 639.353 571.089 639.567 570.449 639.567ZM574.088 639.387V636.907L579.328 632.007C579.702 631.66 579.975 631.353 580.148 631.087C580.335 630.82 580.455 630.58 580.508 630.367C580.575 630.14 580.608 629.933 580.608 629.747C580.608 629.293 580.455 628.94 580.148 628.687C579.855 628.433 579.408 628.307 578.808 628.307C578.302 628.307 577.828 628.42 577.388 628.647C576.948 628.873 576.588 629.213 576.308 629.667L573.368 628.027C573.888 627.147 574.642 626.44 575.628 625.907C576.615 625.373 577.795 625.107 579.168 625.107C580.248 625.107 581.195 625.28 582.008 625.627C582.822 625.973 583.455 626.467 583.908 627.107C584.375 627.747 584.608 628.5 584.608 629.367C584.608 629.82 584.548 630.273 584.428 630.727C584.308 631.167 584.075 631.64 583.728 632.147C583.395 632.64 582.895 633.193 582.228 633.807L578.068 637.647L577.408 636.247H584.988V639.387H574.088Z" fill="black"/>
<path d="M371.484 259.528C371.484 293.642 354.493 324.633 328.8 347.142C303.102 369.656 268.828 383.561 234.548 383.561C166.334 383.561 110.636 317.109 110.516 248.461C117.637 217.15 138.029 187.438 163.668 164.84C189.347 142.206 220.064 126.907 247.548 124.206C315.792 124.269 371.484 190.834 371.484 259.528Z" fill="#E1D7A4" stroke="#EAD465" stroke-width="4"/>
<path d="M681.484 259.528C681.484 293.642 664.493 324.633 638.8 347.142C613.102 369.656 578.828 383.561 544.548 383.561C476.334 383.561 420.636 317.109 420.516 248.461C427.637 217.15 448.029 187.438 473.668 164.84C499.347 142.206 530.064 126.907 557.548 124.206C625.792 124.269 681.484 190.834 681.484 259.528Z" fill="#E1D7A4" stroke="#EAD465" stroke-width="4"/>
<path d="M991.484 259.528C991.484 293.642 974.493 324.633 948.8 347.142C923.102 369.656 888.828 383.561 854.548 383.561C786.334 383.561 730.636 317.109 730.516 248.461C737.637 217.15 758.029 187.438 783.668 164.84C809.347 142.206 840.064 126.907 867.548 124.206C935.792 124.269 991.484 190.834 991.484 259.528Z" fill="#E1D7A4" stroke="#EAD465" stroke-width="4"/>
<path d="M319.693 213.465C319.693 227.736 316.303 238.268 309.528 245.238C302.757 252.203 292.434 255.787 278.177 255.787C249.904 255.787 226.984 232.867 226.984 204.594C226.984 190.323 230.374 179.79 237.149 172.82C243.92 165.856 254.243 162.272 268.5 162.272C296.773 162.272 319.693 185.192 319.693 213.465Z" fill="#87BE91" stroke="#DFA219" stroke-width="2"/>
<path d="M644.709 248.949C644.709 263.22 641.319 273.752 634.544 280.722C627.773 287.687 617.45 291.271 603.193 291.271C574.92 291.271 552 268.351 552 240.078C552 225.807 555.39 215.274 562.165 208.304C568.936 201.34 579.259 197.756 593.516 197.756C621.789 197.756 644.709 220.676 644.709 248.949Z" fill="#87BE91" stroke="#DFA219" stroke-width="2"/>
<path d="M969.725 258.319C969.725 272.59 966.335 283.122 959.56 290.092C952.79 297.057 942.467 300.641 928.209 300.641C899.936 300.641 877.016 277.721 877.016 249.448C877.016 235.177 880.406 224.644 887.181 217.674C893.952 210.71 904.275 207.126 918.532 207.126C946.805 207.126 969.725 230.046 969.725 258.319Z" fill="#87BE91" stroke="#DFA219" stroke-width="2"/>
<path d="M272.338 428.29C272.338 433.595 268.778 438.565 262.664 442.261C256.569 445.946 248.085 448.258 238.661 448.258C229.236 448.258 220.752 445.946 214.658 442.261C208.544 438.565 204.983 433.595 204.983 428.29C204.983 422.986 208.544 418.016 214.658 414.32C220.752 410.635 229.236 408.323 238.661 408.323C248.085 408.323 256.569 410.635 262.664 414.32C268.778 418.016 272.338 422.986 272.338 428.29Z" fill="#F08080" stroke="#EB5C5C" stroke-width="2"/>
<path d="M527.294 353.51C530.562 357.688 530.819 363.796 528.281 370.474C525.751 377.132 520.493 384.18 513.069 389.986C505.646 395.792 497.539 399.198 490.468 400.051C483.375 400.905 477.508 399.185 474.24 395.007C470.972 390.828 470.715 384.72 473.253 378.042C475.784 371.384 481.042 364.336 488.465 358.53C495.889 352.724 503.996 349.318 511.067 348.466C518.16 347.611 524.026 349.331 527.294 353.51Z" fill="#F08080" stroke="#EB5C5C" stroke-width="2"/>
<ellipse cx="825.767" cy="331.529" rx="46.4736" ry="28.1002" transform="rotate(-138.674 825.767 331.529)" fill="white"/>
<path d="M840.273 315.032C832.968 308.609 824.746 304.551 817.32 303.219C809.916 301.891 803.119 303.257 798.975 307.97C794.831 312.683 794.345 319.599 796.609 326.772C798.879 333.967 803.956 341.603 811.261 348.026C818.566 354.45 826.788 358.508 834.214 359.84C841.619 361.168 848.416 359.801 852.56 355.089C856.704 350.376 857.189 343.46 854.925 336.286C852.655 329.092 847.578 321.456 840.273 315.032Z" fill="#F08080" stroke="#EB5C5C" stroke-width="2"/>
<path d="M169.218 113.507C167.285 118.447 162.159 121.778 155.119 122.993C148.1 124.205 139.357 123.267 130.58 119.833C121.803 116.4 114.744 111.156 110.411 105.504C106.064 99.8345 104.559 93.9093 106.491 88.9692C108.423 84.0291 113.55 80.6983 120.59 79.4829C127.608 78.2713 136.352 79.209 145.128 82.6424C153.905 86.0757 160.964 91.3194 165.298 96.9716C169.644 102.641 171.15 108.566 169.218 113.507Z" fill="#75CDFF" stroke="#57BEF8" stroke-width="2"/>
<path d="M505.657 183.376C501.413 186.558 495.301 186.691 488.676 184.018C482.071 181.353 475.131 175.953 469.477 168.413C463.822 160.873 460.582 152.699 459.873 145.612C459.163 138.503 461.002 132.673 465.246 129.49C469.49 126.308 475.602 126.175 482.227 128.848C488.832 131.513 495.771 136.913 501.426 144.453C507.08 151.993 510.321 160.167 511.029 167.254C511.74 174.363 509.901 180.193 505.657 183.376Z" fill="#75CDFF" stroke="#57BEF8" stroke-width="2"/>
<ellipse cx="845.063" cy="184.659" rx="40.1816" ry="24.2957" transform="rotate(144.318 845.063 184.659)" fill="white"/>
<path d="M817.707 204.303C814.613 199.994 814.607 193.881 817.417 187.312C820.218 180.764 825.76 173.937 833.416 168.44C841.071 162.943 849.31 159.872 856.411 159.31C863.532 158.747 869.323 160.707 872.417 165.015C875.512 169.324 875.518 175.438 872.708 182.006C869.907 188.554 864.365 195.381 856.709 200.878C849.054 206.375 840.814 209.446 833.714 210.008C826.592 210.571 820.802 208.612 817.707 204.303Z" fill="#75CDFF" stroke="#57BEF8" stroke-width="2"/>
<path d="M163.845 67.7578C163.907 68.3065 164.403 68.7009 164.952 68.6387L173.894 67.6246C174.443 67.5623 174.837 67.067 174.775 66.5183C174.713 65.9695 174.218 65.5751 173.669 65.6373L165.72 66.5388L164.818 58.5897C164.756 58.041 164.261 57.6465 163.712 57.7088C163.163 57.771 162.769 58.2663 162.831 58.8151L163.845 67.7578ZM199.516 24.0967V23.0967H199.034L198.734 23.4738L199.516 24.0967ZM165.621 68.268L200.298 24.7196L198.734 23.4738L164.057 67.0222L165.621 68.268ZM199.516 25.0967H321.29V23.0967H199.516V25.0967Z" fill="black"/>
<path d="M251.755 457.994C251.324 457.649 250.694 457.718 250.349 458.149L244.718 465.169C244.372 465.6 244.441 466.23 244.872 466.575C245.303 466.921 245.932 466.852 246.278 466.421L251.283 460.18L257.524 465.186C257.955 465.531 258.584 465.462 258.93 465.031C259.275 464.6 259.206 463.971 258.775 463.626L251.755 457.994ZM256 503.129V504.129H257.116L256.994 503.02L256 503.129ZM250.135 458.884L255.006 503.238L256.994 503.02L252.123 458.665L250.135 458.884ZM256 502.129H118.064V504.129H256V502.129Z" fill="black"/>
<path d="M819.049 348.924C818.954 348.38 818.435 348.016 817.891 348.112L809.027 349.669C808.483 349.765 808.12 350.283 808.215 350.827C808.311 351.371 808.829 351.734 809.373 351.639L817.253 350.255L818.637 358.134C818.732 358.678 819.251 359.041 819.795 358.946C820.339 358.85 820.702 358.332 820.607 357.788L819.049 348.924ZM768.871 419.258L768.052 418.684L767.152 419.968L768.696 420.243L768.871 419.258ZM817.246 348.523L768.052 418.684L769.69 419.832L818.883 349.671L817.246 348.523ZM768.696 420.243L845.825 433.952L846.175 431.983L769.046 418.273L768.696 420.243Z" fill="black"/>
<path d="M846.264 168.61C846.797 168.464 847.11 167.914 846.965 167.382L844.59 158.7C844.444 158.168 843.894 157.854 843.361 158C842.829 158.145 842.515 158.695 842.661 159.228L844.772 166.945L837.055 169.055C836.522 169.201 836.209 169.751 836.354 170.284C836.5 170.817 837.05 171.13 837.583 170.985L846.264 168.61ZM764 120.871L763.479 120.018L762.033 120.901L763.505 121.74L764 120.871ZM846.495 166.777L764.495 120.003L763.505 121.74L845.505 168.514L846.495 166.777ZM764.521 121.725L822.618 86.2406L821.575 84.5338L763.479 120.018L764.521 121.725Z" fill="black"/>
<path d="M17.9253 498.129L24.2653 484.129H26.2453L32.6053 498.129H30.5053L24.8453 485.249H25.6453L19.9853 498.129H17.9253ZM20.6253 494.629L21.1653 493.029H29.0453L29.6253 494.629H20.6253ZM39.0361 498.249C37.9028 498.249 36.9028 498.016 36.0361 497.549C35.1828 497.083 34.5161 496.443 34.0361 495.629C33.5694 494.816 33.3361 493.883 33.3361 492.829C33.3361 491.776 33.5628 490.843 34.0161 490.029C34.4828 489.216 35.1161 488.583 35.9161 488.129C36.7294 487.663 37.6428 487.429 38.6561 487.429C39.6828 487.429 40.5894 487.656 41.3761 488.109C42.1628 488.563 42.7761 489.203 43.2161 490.029C43.6694 490.843 43.8961 491.796 43.8961 492.889C43.8961 492.969 43.8894 493.063 43.8761 493.169C43.8761 493.276 43.8694 493.376 43.8561 493.469H34.8361V492.089H42.8561L42.0761 492.569C42.0894 491.889 41.9494 491.283 41.6561 490.749C41.3628 490.216 40.9561 489.803 40.4361 489.509C39.9294 489.203 39.3361 489.049 38.6561 489.049C37.9894 489.049 37.3961 489.203 36.8761 489.509C36.3561 489.803 35.9494 490.223 35.6561 490.769C35.3628 491.303 35.2161 491.916 35.2161 492.609V492.929C35.2161 493.636 35.3761 494.269 35.6961 494.829C36.0294 495.376 36.4894 495.803 37.0761 496.109C37.6628 496.416 38.3361 496.569 39.0961 496.569C39.7228 496.569 40.2894 496.463 40.7961 496.249C41.3161 496.036 41.7694 495.716 42.1561 495.289L43.2161 496.529C42.7361 497.089 42.1361 497.516 41.4161 497.809C40.7094 498.103 39.9161 498.249 39.0361 498.249ZM46.5622 498.129V487.529H48.4022V490.409L48.2222 489.689C48.5155 488.956 49.0089 488.396 49.7022 488.009C50.3955 487.623 51.2489 487.429 52.2622 487.429V489.289C52.1822 489.276 52.1022 489.269 52.0222 489.269C51.9555 489.269 51.8889 489.269 51.8222 489.269C50.7955 489.269 49.9822 489.576 49.3822 490.189C48.7822 490.803 48.4822 491.689 48.4822 492.849V498.129H46.5622ZM59.0709 498.249C58.0043 498.249 57.0576 498.016 56.2309 497.549C55.4043 497.083 54.7509 496.443 54.2709 495.629C53.7909 494.803 53.5509 493.869 53.5509 492.829C53.5509 491.776 53.7909 490.843 54.2709 490.029C54.7509 489.216 55.4043 488.583 56.2309 488.129C57.0576 487.663 58.0043 487.429 59.0709 487.429C60.1243 487.429 61.0643 487.663 61.8909 488.129C62.7309 488.583 63.3843 489.216 63.8509 490.029C64.3309 490.829 64.5709 491.763 64.5709 492.829C64.5709 493.883 64.3309 494.816 63.8509 495.629C63.3843 496.443 62.7309 497.083 61.8909 497.549C61.0643 498.016 60.1243 498.249 59.0709 498.249ZM59.0709 496.569C59.7509 496.569 60.3576 496.416 60.8909 496.109C61.4376 495.803 61.8643 495.369 62.1709 494.809C62.4776 494.236 62.6309 493.576 62.6309 492.829C62.6309 492.069 62.4776 491.416 62.1709 490.869C61.8643 490.309 61.4376 489.876 60.8909 489.569C60.3576 489.263 59.7509 489.109 59.0709 489.109C58.3909 489.109 57.7843 489.263 57.2509 489.569C56.7176 489.876 56.2909 490.309 55.9709 490.869C55.6509 491.416 55.4909 492.069 55.4909 492.829C55.4909 493.576 55.6509 494.236 55.9709 494.809C56.2909 495.369 56.7176 495.803 57.2509 496.109C57.7843 496.416 58.3909 496.569 59.0709 496.569ZM72.8463 498.249C71.9396 498.249 71.1196 498.049 70.3863 497.649C69.6663 497.236 69.0929 496.629 68.6663 495.829C68.2529 495.029 68.0462 494.029 68.0462 492.829C68.0462 491.629 68.2596 490.629 68.6863 489.829C69.1263 489.029 69.7063 488.429 70.4263 488.029C71.1596 487.629 71.9663 487.429 72.8463 487.429C73.8863 487.429 74.8063 487.656 75.6063 488.109C76.4063 488.563 77.0396 489.196 77.5063 490.009C77.9729 490.809 78.2063 491.749 78.2063 492.829C78.2063 493.909 77.9729 494.856 77.5063 495.669C77.0396 496.483 76.4063 497.116 75.6063 497.569C74.8063 498.023 73.8863 498.249 72.8463 498.249ZM67.2263 498.129V483.289H69.1463V490.349L68.9463 492.809L69.0663 495.269V498.129H67.2263ZM72.6863 496.569C73.3663 496.569 73.9729 496.416 74.5063 496.109C75.0529 495.803 75.4796 495.369 75.7863 494.809C76.1063 494.236 76.2663 493.576 76.2663 492.829C76.2663 492.069 76.1063 491.416 75.7863 490.869C75.4796 490.309 75.0529 489.876 74.5063 489.569C73.9729 489.263 73.3663 489.109 72.6863 489.109C72.0196 489.109 71.4129 489.263 70.8663 489.569C70.3329 489.876 69.9063 490.309 69.5863 490.869C69.2796 491.416 69.1263 492.069 69.1263 492.829C69.1263 493.576 69.2796 494.236 69.5863 494.809C69.9063 495.369 70.3329 495.803 70.8663 496.109C71.4129 496.416 72.0196 496.569 72.6863 496.569ZM80.8591 498.129V487.529H82.7791V498.129H80.8591ZM81.8191 485.489C81.4457 485.489 81.1324 485.369 80.8791 485.129C80.6391 484.889 80.5191 484.596 80.5191 484.249C80.5191 483.889 80.6391 483.589 80.8791 483.349C81.1324 483.109 81.4457 482.989 81.8191 482.989C82.1924 482.989 82.4991 483.109 82.7391 483.349C82.9924 483.576 83.1191 483.863 83.1191 484.209C83.1191 484.569 82.9991 484.876 82.7591 485.129C82.5191 485.369 82.2057 485.489 81.8191 485.489ZM91.065 498.249C89.985 498.249 89.0183 498.016 88.165 497.549C87.325 497.083 86.665 496.443 86.185 495.629C85.705 494.816 85.465 493.883 85.465 492.829C85.465 491.776 85.705 490.843 86.185 490.029C86.665 489.216 87.325 488.583 88.165 488.129C89.0183 487.663 89.985 487.429 91.065 487.429C92.025 487.429 92.8783 487.623 93.625 488.009C94.385 488.383 94.9717 488.943 95.385 489.689L93.925 490.629C93.5783 490.109 93.1517 489.729 92.645 489.489C92.1517 489.236 91.6183 489.109 91.045 489.109C90.3517 489.109 89.7317 489.263 89.185 489.569C88.6383 489.876 88.205 490.309 87.885 490.869C87.565 491.416 87.405 492.069 87.405 492.829C87.405 493.589 87.565 494.249 87.885 494.809C88.205 495.369 88.6383 495.803 89.185 496.109C89.7317 496.416 90.3517 496.569 91.045 496.569C91.6183 496.569 92.1517 496.449 92.645 496.209C93.1517 495.956 93.5783 495.569 93.925 495.049L95.385 495.969C94.9717 496.703 94.385 497.269 93.625 497.669C92.8783 498.056 92.025 498.249 91.065 498.249ZM3.58047 522.129V508.129H9.04047C10.2671 508.129 11.3138 508.323 12.1805 508.709C13.0471 509.096 13.7138 509.656 14.1805 510.389C14.6471 511.123 14.8805 511.996 14.8805 513.009C14.8805 514.023 14.6471 514.896 14.1805 515.629C13.7138 516.349 13.0471 516.909 12.1805 517.309C11.3138 517.696 10.2671 517.889 9.04047 517.889H4.68047L5.58047 516.949V522.129H3.58047ZM5.58047 517.149L4.68047 516.149H8.98047C10.2605 516.149 11.2271 515.876 11.8805 515.329C12.5471 514.783 12.8805 514.009 12.8805 513.009C12.8805 512.009 12.5471 511.236 11.8805 510.689C11.2271 510.143 10.2605 509.869 8.98047 509.869H4.68047L5.58047 508.869V517.149ZM17.3434 522.129V511.529H19.1834V514.409L19.0034 513.689C19.2968 512.956 19.7901 512.396 20.4834 512.009C21.1768 511.623 22.0301 511.429 23.0434 511.429V513.289C22.9634 513.276 22.8834 513.269 22.8034 513.269C22.7368 513.269 22.6701 513.269 22.6034 513.269C21.5768 513.269 20.7634 513.576 20.1634 514.189C19.5634 514.803 19.2634 515.689 19.2634 516.849V522.129H17.3434ZM29.8522 522.249C28.7855 522.249 27.8389 522.016 27.0122 521.549C26.1855 521.083 25.5322 520.443 25.0522 519.629C24.5722 518.803 24.3322 517.869 24.3322 516.829C24.3322 515.776 24.5722 514.843 25.0522 514.029C25.5322 513.216 26.1855 512.583 27.0122 512.129C27.8389 511.663 28.7855 511.429 29.8522 511.429C30.9055 511.429 31.8455 511.663 32.6722 512.129C33.5122 512.583 34.1655 513.216 34.6322 514.029C35.1122 514.829 35.3522 515.763 35.3522 516.829C35.3522 517.883 35.1122 518.816 34.6322 519.629C34.1655 520.443 33.5122 521.083 32.6722 521.549C31.8455 522.016 30.9055 522.249 29.8522 522.249ZM29.8522 520.569C30.5322 520.569 31.1389 520.416 31.6722 520.109C32.2189 519.803 32.6455 519.369 32.9522 518.809C33.2589 518.236 33.4122 517.576 33.4122 516.829C33.4122 516.069 33.2589 515.416 32.9522 514.869C32.6455 514.309 32.2189 513.876 31.6722 513.569C31.1389 513.263 30.5322 513.109 29.8522 513.109C29.1722 513.109 28.5655 513.263 28.0322 513.569C27.4989 513.876 27.0722 514.309 26.7522 514.869C26.4322 515.416 26.2722 516.069 26.2722 516.829C26.2722 517.576 26.4322 518.236 26.7522 518.809C27.0722 519.369 27.4989 519.803 28.0322 520.109C28.5655 520.416 29.1722 520.569 29.8522 520.569ZM39.5675 519.569L39.6075 517.109L45.7075 511.529H48.0275L43.3475 516.129L42.3075 517.009L39.5675 519.569ZM38.0075 522.129V507.289H39.9275V522.129H38.0075ZM46.1075 522.129L41.9475 516.969L43.1875 515.429L48.4675 522.129H46.1075ZM56.7164 522.129V519.889L56.6164 519.469V515.649C56.6164 514.836 56.3764 514.209 55.8964 513.769C55.4297 513.316 54.7231 513.089 53.7764 513.089C53.1497 513.089 52.5364 513.196 51.9364 513.409C51.3364 513.609 50.8297 513.883 50.4164 514.229L49.6164 512.789C50.1631 512.349 50.8164 512.016 51.5764 511.789C52.3497 511.549 53.1564 511.429 53.9964 511.429C55.4497 511.429 56.5697 511.783 57.3564 512.489C58.1431 513.196 58.5364 514.276 58.5364 515.729V522.129H56.7164ZM53.2364 522.249C52.4497 522.249 51.7564 522.116 51.1564 521.849C50.5697 521.583 50.1164 521.216 49.7964 520.749C49.4764 520.269 49.3164 519.729 49.3164 519.129C49.3164 518.556 49.4497 518.036 49.7164 517.569C49.9964 517.103 50.4431 516.729 51.0564 516.449C51.6831 516.169 52.5231 516.029 53.5764 516.029H56.9364V517.409H53.6564C52.6964 517.409 52.0497 517.569 51.7164 517.889C51.3831 518.209 51.2164 518.596 51.2164 519.049C51.2164 519.569 51.4231 519.989 51.8364 520.309C52.2497 520.616 52.8231 520.769 53.5564 520.769C54.2764 520.769 54.9031 520.609 55.4364 520.289C55.9831 519.969 56.3764 519.503 56.6164 518.889L56.9964 520.209C56.7431 520.836 56.2964 521.336 55.6564 521.709C55.0164 522.069 54.2097 522.249 53.2364 522.249ZM62.0895 522.129V511.529H63.9295V514.409L63.7495 513.689C64.0429 512.956 64.5362 512.396 65.2295 512.009C65.9229 511.623 66.7762 511.429 67.7895 511.429V513.289C67.7095 513.276 67.6295 513.269 67.5495 513.269C67.4829 513.269 67.4162 513.269 67.3495 513.269C66.3229 513.269 65.5095 513.576 64.9095 514.189C64.3095 514.803 64.0095 515.689 64.0095 516.849V522.129H62.0895ZM71.0456 526.129C70.539 526.129 70.0456 526.043 69.5656 525.869C69.0856 525.709 68.6723 525.469 68.3256 525.149L69.1456 523.709C69.4123 523.963 69.7056 524.156 70.0256 524.289C70.3456 524.423 70.6856 524.489 71.0456 524.489C71.5123 524.489 71.899 524.369 72.2056 524.129C72.5123 523.889 72.799 523.463 73.0656 522.849L73.7256 521.389L73.9256 521.149L78.0856 511.529H79.9656L74.8256 523.189C74.519 523.936 74.1723 524.523 73.7856 524.949C73.4123 525.376 72.999 525.676 72.5456 525.849C72.0923 526.036 71.5923 526.129 71.0456 526.129ZM73.5656 522.469L68.7256 511.529H70.7256L74.8456 520.969L73.5656 522.469ZM86.0045 522.249C84.9379 522.249 83.9912 522.016 83.1645 521.549C82.3379 521.083 81.6845 520.443 81.2045 519.629C80.7245 518.803 80.4845 517.869 80.4845 516.829C80.4845 515.776 80.7245 514.843 81.2045 514.029C81.6845 513.216 82.3379 512.583 83.1645 512.129C83.9912 511.663 84.9379 511.429 86.0045 511.429C87.0579 511.429 87.9979 511.663 88.8245 512.129C89.6645 512.583 90.3179 513.216 90.7845 514.029C91.2645 514.829 91.5045 515.763 91.5045 516.829C91.5045 517.883 91.2645 518.816 90.7845 519.629C90.3179 520.443 89.6645 521.083 88.8245 521.549C87.9979 522.016 87.0579 522.249 86.0045 522.249ZM86.0045 520.569C86.6845 520.569 87.2912 520.416 87.8245 520.109C88.3712 519.803 88.7979 519.369 89.1045 518.809C89.4112 518.236 89.5645 517.576 89.5645 516.829C89.5645 516.069 89.4112 515.416 89.1045 514.869C88.7979 514.309 88.3712 513.876 87.8245 513.569C87.2912 513.263 86.6845 513.109 86.0045 513.109C85.3245 513.109 84.7179 513.263 84.1845 513.569C83.6512 513.876 83.2245 514.309 82.9045 514.869C82.5845 515.416 82.4245 516.069 82.4245 516.829C82.4245 517.576 82.5845 518.236 82.9045 518.809C83.2245 519.369 83.6512 519.803 84.1845 520.109C84.7179 520.416 85.3245 520.569 86.0045 520.569ZM97.7998 522.249C96.7332 522.249 95.9065 521.963 95.3198 521.389C94.7332 520.816 94.4398 519.996 94.4398 518.929V509.209H96.3598V518.849C96.3598 519.423 96.4998 519.863 96.7798 520.169C97.0732 520.476 97.4865 520.629 98.0198 520.629C98.6198 520.629 99.1198 520.463 99.5198 520.129L100.12 521.509C99.8265 521.763 99.4732 521.949 99.0598 522.069C98.6598 522.189 98.2398 522.249 97.7998 522.249ZM92.6398 513.109V511.529H99.3998V513.109H92.6398ZM106.81 522.249C105.676 522.249 104.676 522.016 103.81 521.549C102.956 521.083 102.29 520.443 101.81 519.629C101.343 518.816 101.11 517.883 101.11 516.829C101.11 515.776 101.336 514.843 101.79 514.029C102.256 513.216 102.89 512.583 103.69 512.129C104.503 511.663 105.416 511.429 106.43 511.429C107.456 511.429 108.363 511.656 109.15 512.109C109.936 512.563 110.55 513.203 110.99 514.029C111.443 514.843 111.67 515.796 111.67 516.889C111.67 516.969 111.663 517.063 111.65 517.169C111.65 517.276 111.643 517.376 111.63 517.469H102.61V516.089H110.63L109.85 516.569C109.863 515.889 109.723 515.283 109.43 514.749C109.136 514.216 108.73 513.803 108.21 513.509C107.703 513.203 107.11 513.049 106.43 513.049C105.763 513.049 105.17 513.203 104.65 513.509C104.13 513.803 103.723 514.223 103.43 514.769C103.136 515.303 102.99 515.916 102.99 516.609V516.929C102.99 517.636 103.15 518.269 103.47 518.829C103.803 519.376 104.263 519.803 104.85 520.109C105.436 520.416 106.11 520.569 106.87 520.569C107.496 520.569 108.063 520.463 108.57 520.249C109.09 520.036 109.543 519.716 109.93 519.289L110.99 520.529C110.51 521.089 109.91 521.516 109.19 521.809C108.483 522.103 107.69 522.249 106.81 522.249Z" fill="black"/>
<path d="M328.93 19.0967V5.09668H334.39C335.616 5.09668 336.663 5.29001 337.53 5.67668C338.396 6.06335 339.063 6.62335 339.53 7.35668C339.996 8.09001 340.23 8.96335 340.23 9.97668C340.23 10.99 339.996 11.8633 339.53 12.5967C339.063 13.3167 338.396 13.8767 337.53 14.2767C336.663 14.6633 335.616 14.8567 334.39 14.8567H330.03L330.93 13.9167V19.0967H328.93ZM330.93 14.1167L330.03 13.1167H334.33C335.61 13.1167 336.576 12.8433 337.23 12.2967C337.896 11.75 338.23 10.9767 338.23 9.97668C338.23 8.97668 337.896 8.20335 337.23 7.65668C336.576 7.11001 335.61 6.83668 334.33 6.83668H330.03L330.93 5.83668V14.1167ZM348.743 8.39668C349.61 8.39668 350.37 8.56335 351.023 8.89668C351.69 9.23001 352.21 9.73668 352.583 10.4167C352.957 11.0967 353.143 11.9567 353.143 12.9967V19.0967H351.223V13.2167C351.223 12.19 350.97 11.4167 350.463 10.8967C349.97 10.3767 349.27 10.1167 348.363 10.1167C347.683 10.1167 347.09 10.25 346.583 10.5167C346.077 10.7833 345.683 11.1767 345.403 11.6967C345.137 12.2167 345.003 12.8633 345.003 13.6367V19.0967H343.083V4.25668H345.003V11.3567L344.623 10.5967C344.97 9.90335 345.503 9.36335 346.223 8.97668C346.943 8.59001 347.783 8.39668 348.743 8.39668ZM361.236 19.2167C360.17 19.2167 359.223 18.9833 358.396 18.5167C357.57 18.05 356.916 17.41 356.436 16.5967C355.956 15.77 355.716 14.8367 355.716 13.7967C355.716 12.7433 355.956 11.81 356.436 10.9967C356.916 10.1833 357.57 9.55001 358.396 9.09668C359.223 8.63001 360.17 8.39668 361.236 8.39668C362.29 8.39668 363.23 8.63001 364.056 9.09668C364.896 9.55001 365.55 10.1833 366.016 10.9967C366.496 11.7967 366.736 12.73 366.736 13.7967C366.736 14.85 366.496 15.7833 366.016 16.5967C365.55 17.41 364.896 18.05 364.056 18.5167C363.23 18.9833 362.29 19.2167 361.236 19.2167ZM361.236 17.5367C361.916 17.5367 362.523 17.3833 363.056 17.0767C363.603 16.77 364.03 16.3367 364.336 15.7767C364.643 15.2033 364.796 14.5433 364.796 13.7967C364.796 13.0367 364.643 12.3833 364.336 11.8367C364.03 11.2767 363.603 10.8433 363.056 10.5367C362.523 10.23 361.916 10.0767 361.236 10.0767C360.556 10.0767 359.95 10.23 359.416 10.5367C358.883 10.8433 358.456 11.2767 358.136 11.8367C357.816 12.3833 357.656 13.0367 357.656 13.7967C357.656 14.5433 357.816 15.2033 358.136 15.7767C358.456 16.3367 358.883 16.77 359.416 17.0767C359.95 17.3833 360.556 17.5367 361.236 17.5367ZM373.032 19.2167C371.965 19.2167 371.138 18.93 370.552 18.3567C369.965 17.7833 369.672 16.9633 369.672 15.8967V6.17668H371.592V15.8167C371.592 16.39 371.732 16.83 372.012 17.1367C372.305 17.4433 372.718 17.5967 373.252 17.5967C373.852 17.5967 374.352 17.43 374.752 17.0967L375.352 18.4767C375.058 18.73 374.705 18.9167 374.292 19.0367C373.892 19.1567 373.472 19.2167 373.032 19.2167ZM367.872 10.0767V8.49668H374.632V10.0767H367.872ZM381.861 19.2167C380.795 19.2167 379.848 18.9833 379.021 18.5167C378.195 18.05 377.541 17.41 377.061 16.5967C376.581 15.77 376.341 14.8367 376.341 13.7967C376.341 12.7433 376.581 11.81 377.061 10.9967C377.541 10.1833 378.195 9.55001 379.021 9.09668C379.848 8.63001 380.795 8.39668 381.861 8.39668C382.915 8.39668 383.855 8.63001 384.681 9.09668C385.521 9.55001 386.175 10.1833 386.641 10.9967C387.121 11.7967 387.361 12.73 387.361 13.7967C387.361 14.85 387.121 15.7833 386.641 16.5967C386.175 17.41 385.521 18.05 384.681 18.5167C383.855 18.9833 382.915 19.2167 381.861 19.2167ZM381.861 17.5367C382.541 17.5367 383.148 17.3833 383.681 17.0767C384.228 16.77 384.655 16.3367 384.961 15.7767C385.268 15.2033 385.421 14.5433 385.421 13.7967C385.421 13.0367 385.268 12.3833 384.961 11.8367C384.655 11.2767 384.228 10.8433 383.681 10.5367C383.148 10.23 382.541 10.0767 381.861 10.0767C381.181 10.0767 380.575 10.23 380.041 10.5367C379.508 10.8433 379.081 11.2767 378.761 11.8367C378.441 12.3833 378.281 13.0367 378.281 13.7967C378.281 14.5433 378.441 15.2033 378.761 15.7767C379.081 16.3367 379.508 16.77 380.041 17.0767C380.575 17.3833 381.181 17.5367 381.861 17.5367ZM393.057 19.2167C392.177 19.2167 391.337 19.0967 390.537 18.8567C389.75 18.6167 389.13 18.3233 388.677 17.9767L389.477 16.4567C389.93 16.7633 390.49 17.0233 391.157 17.2367C391.823 17.45 392.503 17.5567 393.197 17.5567C394.09 17.5567 394.73 17.43 395.117 17.1767C395.517 16.9233 395.717 16.57 395.717 16.1167C395.717 15.7833 395.597 15.5233 395.357 15.3367C395.117 15.15 394.797 15.01 394.397 14.9167C394.01 14.8233 393.577 14.7433 393.097 14.6767C392.617 14.5967 392.137 14.5033 391.657 14.3967C391.177 14.2767 390.737 14.1167 390.337 13.9167C389.937 13.7033 389.617 13.4167 389.377 13.0567C389.137 12.6833 389.017 12.19 389.017 11.5767C389.017 10.9367 389.197 10.3767 389.557 9.89668C389.917 9.41668 390.423 9.05001 391.077 8.79668C391.743 8.53001 392.53 8.39668 393.437 8.39668C394.13 8.39668 394.83 8.48335 395.537 8.65668C396.257 8.81668 396.843 9.05001 397.297 9.35668L396.477 10.8767C395.997 10.5567 395.497 10.3367 394.977 10.2167C394.457 10.0967 393.937 10.0367 393.417 10.0367C392.577 10.0367 391.95 10.1767 391.537 10.4567C391.123 10.7233 390.917 11.07 390.917 11.4967C390.917 11.8567 391.037 12.1367 391.277 12.3367C391.53 12.5233 391.85 12.67 392.237 12.7767C392.637 12.8833 393.077 12.9767 393.557 13.0567C394.037 13.1233 394.517 13.2167 394.997 13.3367C395.477 13.4433 395.91 13.5967 396.297 13.7967C396.697 13.9967 397.017 14.2767 397.257 14.6367C397.51 14.9967 397.637 15.4767 397.637 16.0767C397.637 16.7167 397.45 17.27 397.077 17.7367C396.703 18.2033 396.177 18.57 395.497 18.8367C394.817 19.09 394.003 19.2167 393.057 19.2167ZM400.301 23.0967C399.794 23.0967 399.301 23.01 398.821 22.8367C398.341 22.6767 397.928 22.4367 397.581 22.1167L398.401 20.6767C398.668 20.93 398.961 21.1233 399.281 21.2567C399.601 21.39 399.941 21.4567 400.301 21.4567C400.768 21.4567 401.154 21.3367 401.461 21.0967C401.768 20.8567 402.054 20.43 402.321 19.8167L402.981 18.3567L403.181 18.1167L407.341 8.49668H409.221L404.081 20.1567C403.774 20.9033 403.428 21.49 403.041 21.9167C402.668 22.3433 402.254 22.6433 401.801 22.8167C401.348 23.0033 400.848 23.0967 400.301 23.0967ZM402.821 19.4367L397.981 8.49668H399.981L404.101 17.9367L402.821 19.4367ZM416.673 8.39668C417.54 8.39668 418.3 8.56335 418.953 8.89668C419.62 9.23001 420.14 9.73668 420.513 10.4167C420.886 11.0967 421.073 11.9567 421.073 12.9967V19.0967H419.153V13.2167C419.153 12.19 418.9 11.4167 418.393 10.8967C417.9 10.3767 417.2 10.1167 416.293 10.1167C415.613 10.1167 415.02 10.25 414.513 10.5167C414.006 10.7833 413.613 11.1767 413.333 11.6967C413.066 12.2167 412.933 12.8633 412.933 13.6367V19.0967H411.013V8.49668H412.853V11.3567L412.553 10.5967C412.9 9.90335 413.433 9.36335 414.153 8.97668C414.873 8.59001 415.713 8.39668 416.673 8.39668ZM428.266 19.2167C427.199 19.2167 426.373 18.93 425.786 18.3567C425.199 17.7833 424.906 16.9633 424.906 15.8967V6.17668H426.826V15.8167C426.826 16.39 426.966 16.83 427.246 17.1367C427.539 17.4433 427.953 17.5967 428.486 17.5967C429.086 17.5967 429.586 17.43 429.986 17.0967L430.586 18.4767C430.293 18.73 429.939 18.9167 429.526 19.0367C429.126 19.1567 428.706 19.2167 428.266 19.2167ZM423.106 10.0767V8.49668H429.866V10.0767H423.106ZM438.567 8.39668C439.434 8.39668 440.194 8.56335 440.847 8.89668C441.514 9.23001 442.034 9.73668 442.407 10.4167C442.781 11.0967 442.967 11.9567 442.967 12.9967V19.0967H441.047V13.2167C441.047 12.19 440.794 11.4167 440.287 10.8967C439.794 10.3767 439.094 10.1167 438.187 10.1167C437.507 10.1167 436.914 10.25 436.407 10.5167C435.901 10.7833 435.507 11.1767 435.227 11.6967C434.961 12.2167 434.827 12.8633 434.827 13.6367V19.0967H432.907V4.25668H434.827V11.3567L434.447 10.5967C434.794 9.90335 435.327 9.36335 436.047 8.97668C436.767 8.59001 437.607 8.39668 438.567 8.39668ZM451.241 19.2167C450.107 19.2167 449.107 18.9833 448.241 18.5167C447.387 18.05 446.721 17.41 446.241 16.5967C445.774 15.7833 445.541 14.85 445.541 13.7967C445.541 12.7433 445.767 11.81 446.221 10.9967C446.687 10.1833 447.321 9.55001 448.121 9.09668C448.934 8.63001 449.847 8.39668 450.861 8.39668C451.887 8.39668 452.794 8.62335 453.581 9.07668C454.367 9.53001 454.981 10.17 455.421 10.9967C455.874 11.81 456.101 12.7633 456.101 13.8567C456.101 13.9367 456.094 14.03 456.081 14.1367C456.081 14.2433 456.074 14.3433 456.061 14.4367H447.041V13.0567H455.061L454.281 13.5367C454.294 12.8567 454.154 12.25 453.861 11.7167C453.567 11.1833 453.161 10.77 452.641 10.4767C452.134 10.17 451.541 10.0167 450.861 10.0167C450.194 10.0167 449.601 10.17 449.081 10.4767C448.561 10.77 448.154 11.19 447.861 11.7367C447.567 12.27 447.421 12.8833 447.421 13.5767V13.8967C447.421 14.6033 447.581 15.2367 447.901 15.7967C448.234 16.3433 448.694 16.77 449.281 17.0767C449.867 17.3833 450.541 17.5367 451.301 17.5367C451.927 17.5367 452.494 17.43 453.001 17.2167C453.521 17.0033 453.974 16.6833 454.361 16.2567L455.421 17.4967C454.941 18.0567 454.341 18.4833 453.621 18.7767C452.914 19.07 452.121 19.2167 451.241 19.2167ZM462.407 19.2167C461.34 19.2167 460.513 18.93 459.927 18.3567C459.34 17.7833 459.047 16.9633 459.047 15.8967V6.17668H460.967V15.8167C460.967 16.39 461.107 16.83 461.387 17.1367C461.68 17.4433 462.093 17.5967 462.627 17.5967C463.227 17.5967 463.727 17.43 464.127 17.0967L464.727 18.4767C464.433 18.73 464.08 18.9167 463.667 19.0367C463.267 19.1567 462.847 19.2167 462.407 19.2167ZM457.247 10.0767V8.49668H464.007V10.0767H457.247ZM467.048 19.0967V8.49668H468.968V19.0967H467.048ZM468.008 6.45668C467.635 6.45668 467.321 6.33668 467.068 6.09668C466.828 5.85668 466.708 5.56335 466.708 5.21668C466.708 4.85668 466.828 4.55668 467.068 4.31668C467.321 4.07668 467.635 3.95668 468.008 3.95668C468.381 3.95668 468.688 4.07668 468.928 4.31668C469.181 4.54335 469.308 4.83001 469.308 5.17668C469.308 5.53668 469.188 5.84335 468.948 6.09668C468.708 6.33668 468.395 6.45668 468.008 6.45668ZM477.254 19.2167C476.174 19.2167 475.207 18.9833 474.354 18.5167C473.514 18.05 472.854 17.41 472.374 16.5967C471.894 15.7833 471.654 14.85 471.654 13.7967C471.654 12.7433 471.894 11.81 472.374 10.9967C472.854 10.1833 473.514 9.55001 474.354 9.09668C475.207 8.63001 476.174 8.39668 477.254 8.39668C478.214 8.39668 479.067 8.59001 479.814 8.97668C480.574 9.35001 481.161 9.91001 481.574 10.6567L480.114 11.5967C479.767 11.0767 479.341 10.6967 478.834 10.4567C478.341 10.2033 477.807 10.0767 477.234 10.0767C476.541 10.0767 475.921 10.23 475.374 10.5367C474.827 10.8433 474.394 11.2767 474.074 11.8367C473.754 12.3833 473.594 13.0367 473.594 13.7967C473.594 14.5567 473.754 15.2167 474.074 15.7767C474.394 16.3367 474.827 16.77 475.374 17.0767C475.921 17.3833 476.541 17.5367 477.234 17.5367C477.807 17.5367 478.341 17.4167 478.834 17.1767C479.341 16.9233 479.767 16.5367 480.114 16.0167L481.574 16.9367C481.161 17.67 480.574 18.2367 479.814 18.6367C479.067 19.0233 478.214 19.2167 477.254 19.2167ZM351.117 43.0967V29.0967H356.577C357.804 29.0967 358.85 29.29 359.717 29.6767C360.584 30.0633 361.25 30.6233 361.717 31.3567C362.184 32.09 362.417 32.9633 362.417 33.9767C362.417 34.99 362.184 35.8633 361.717 36.5967C361.25 37.3167 360.584 37.8767 359.717 38.2767C358.85 38.6633 357.804 38.8567 356.577 38.8567H352.217L353.117 37.9167V43.0967H351.117ZM353.117 38.1167L352.217 37.1167H356.517C357.797 37.1167 358.764 36.8433 359.417 36.2967C360.084 35.75 360.417 34.9767 360.417 33.9767C360.417 32.9767 360.084 32.2033 359.417 31.6567C358.764 31.11 357.797 30.8367 356.517 30.8367H352.217L353.117 29.8367V38.1167ZM364.88 43.0967V32.4967H366.72V35.3767L366.54 34.6567C366.833 33.9233 367.327 33.3633 368.02 32.9767C368.713 32.59 369.567 32.3967 370.58 32.3967V34.2567C370.5 34.2433 370.42 34.2367 370.34 34.2367C370.273 34.2367 370.207 34.2367 370.14 34.2367C369.113 34.2367 368.3 34.5433 367.7 35.1567C367.1 35.77 366.8 36.6567 366.8 37.8167V43.0967H364.88ZM377.389 43.2167C376.322 43.2167 375.375 42.9833 374.549 42.5167C373.722 42.05 373.069 41.41 372.589 40.5967C372.109 39.77 371.869 38.8367 371.869 37.7967C371.869 36.7433 372.109 35.81 372.589 34.9967C373.069 34.1833 373.722 33.55 374.549 33.0967C375.375 32.63 376.322 32.3967 377.389 32.3967C378.442 32.3967 379.382 32.63 380.209 33.0967C381.049 33.55 381.702 34.1833 382.169 34.9967C382.649 35.7967 382.889 36.73 382.889 37.7967C382.889 38.85 382.649 39.7833 382.169 40.5967C381.702 41.41 381.049 42.05 380.209 42.5167C379.382 42.9833 378.442 43.2167 377.389 43.2167ZM377.389 41.5367C378.069 41.5367 378.675 41.3833 379.209 41.0767C379.755 40.77 380.182 40.3367 380.489 39.7767C380.795 39.2033 380.949 38.5433 380.949 37.7967C380.949 37.0367 380.795 36.3833 380.489 35.8367C380.182 35.2767 379.755 34.8433 379.209 34.5367C378.675 34.23 378.069 34.0767 377.389 34.0767C376.709 34.0767 376.102 34.23 375.569 34.5367C375.035 34.8433 374.609 35.2767 374.289 35.8367C373.969 36.3833 373.809 37.0367 373.809 37.7967C373.809 38.5433 373.969 39.2033 374.289 39.7767C374.609 40.3367 375.035 40.77 375.569 41.0767C376.102 41.3833 376.709 41.5367 377.389 41.5367ZM387.104 40.5367L387.144 38.0767L393.244 32.4967H395.564L390.884 37.0967L389.844 37.9767L387.104 40.5367ZM385.544 43.0967V28.2567H387.464V43.0967H385.544ZM393.644 43.0967L389.484 37.9367L390.724 36.3967L396.004 43.0967H393.644ZM404.253 43.0967V40.8567L404.153 40.4367V36.6167C404.153 35.8033 403.913 35.1767 403.433 34.7367C402.966 34.2833 402.26 34.0567 401.313 34.0567C400.686 34.0567 400.073 34.1633 399.473 34.3767C398.873 34.5767 398.366 34.85 397.953 35.1967L397.153 33.7567C397.7 33.3167 398.353 32.9833 399.113 32.7567C399.886 32.5167 400.693 32.3967 401.533 32.3967C402.986 32.3967 404.106 32.75 404.893 33.4567C405.68 34.1633 406.073 35.2433 406.073 36.6967V43.0967H404.253ZM400.773 43.2167C399.986 43.2167 399.293 43.0833 398.693 42.8167C398.106 42.55 397.653 42.1833 397.333 41.7167C397.013 41.2367 396.853 40.6967 396.853 40.0967C396.853 39.5233 396.986 39.0033 397.253 38.5367C397.533 38.07 397.98 37.6967 398.593 37.4167C399.22 37.1367 400.06 36.9967 401.113 36.9967H404.473V38.3767H401.193C400.233 38.3767 399.586 38.5367 399.253 38.8567C398.92 39.1767 398.753 39.5633 398.753 40.0167C398.753 40.5367 398.96 40.9567 399.373 41.2767C399.786 41.5833 400.36 41.7367 401.093 41.7367C401.813 41.7367 402.44 41.5767 402.973 41.2567C403.52 40.9367 403.913 40.47 404.153 39.8567L404.533 41.1767C404.28 41.8033 403.833 42.3033 403.193 42.6767C402.553 43.0367 401.746 43.2167 400.773 43.2167ZM409.626 43.0967V32.4967H411.466V35.3767L411.286 34.6567C411.579 33.9233 412.073 33.3633 412.766 32.9767C413.459 32.59 414.313 32.3967 415.326 32.3967V34.2567C415.246 34.2433 415.166 34.2367 415.086 34.2367C415.019 34.2367 414.953 34.2367 414.886 34.2367C413.859 34.2367 413.046 34.5433 412.446 35.1567C411.846 35.77 411.546 36.6567 411.546 37.8167V43.0967H409.626ZM418.582 47.0967C418.076 47.0967 417.582 47.01 417.102 46.8367C416.622 46.6767 416.209 46.4367 415.862 46.1167L416.682 44.6767C416.949 44.93 417.242 45.1233 417.562 45.2567C417.882 45.39 418.222 45.4567 418.582 45.4567C419.049 45.4567 419.436 45.3367 419.742 45.0967C420.049 44.8567 420.336 44.43 420.602 43.8167L421.262 42.3567L421.462 42.1167L425.622 32.4967H427.502L422.362 44.1567C422.056 44.9033 421.709 45.49 421.322 45.9167C420.949 46.3433 420.536 46.6433 420.082 46.8167C419.629 47.0033 419.129 47.0967 418.582 47.0967ZM421.102 43.4367L416.262 32.4967H418.262L422.382 41.9367L421.102 43.4367ZM433.541 43.2167C432.474 43.2167 431.528 42.9833 430.701 42.5167C429.874 42.05 429.221 41.41 428.741 40.5967C428.261 39.77 428.021 38.8367 428.021 37.7967C428.021 36.7433 428.261 35.81 428.741 34.9967C429.221 34.1833 429.874 33.55 430.701 33.0967C431.528 32.63 432.474 32.3967 433.541 32.3967C434.594 32.3967 435.534 32.63 436.361 33.0967C437.201 33.55 437.854 34.1833 438.321 34.9967C438.801 35.7967 439.041 36.73 439.041 37.7967C439.041 38.85 438.801 39.7833 438.321 40.5967C437.854 41.41 437.201 42.05 436.361 42.5167C435.534 42.9833 434.594 43.2167 433.541 43.2167ZM433.541 41.5367C434.221 41.5367 434.828 41.3833 435.361 41.0767C435.908 40.77 436.334 40.3367 436.641 39.7767C436.948 39.2033 437.101 38.5433 437.101 37.7967C437.101 37.0367 436.948 36.3833 436.641 35.8367C436.334 35.2767 435.908 34.8433 435.361 34.5367C434.828 34.23 434.221 34.0767 433.541 34.0767C432.861 34.0767 432.254 34.23 431.721 34.5367C431.188 34.8433 430.761 35.2767 430.441 35.8367C430.121 36.3833 429.961 37.0367 429.961 37.7967C429.961 38.5433 430.121 39.2033 430.441 39.7767C430.761 40.3367 431.188 40.77 431.721 41.0767C432.254 41.3833 432.861 41.5367 433.541 41.5367ZM445.336 43.2167C444.27 43.2167 443.443 42.93 442.856 42.3567C442.27 41.7833 441.976 40.9633 441.976 39.8967V30.1767H443.896V39.8167C443.896 40.39 444.036 40.83 444.316 41.1367C444.61 41.4433 445.023 41.5967 445.556 41.5967C446.156 41.5967 446.656 41.43 447.056 41.0967L447.656 42.4767C447.363 42.73 447.01 42.9167 446.596 43.0367C446.196 43.1567 445.776 43.2167 445.336 43.2167ZM440.176 34.0767V32.4967H446.936V34.0767H440.176ZM454.346 43.2167C453.213 43.2167 452.213 42.9833 451.346 42.5167C450.493 42.05 449.826 41.41 449.346 40.5967C448.879 39.7833 448.646 38.85 448.646 37.7967C448.646 36.7433 448.873 35.81 449.326 34.9967C449.793 34.1833 450.426 33.55 451.226 33.0967C452.039 32.63 452.953 32.3967 453.966 32.3967C454.993 32.3967 455.899 32.6233 456.686 33.0767C457.473 33.53 458.086 34.17 458.526 34.9967C458.979 35.81 459.206 36.7633 459.206 37.8567C459.206 37.9367 459.199 38.03 459.186 38.1367C459.186 38.2433 459.179 38.3433 459.166 38.4367H450.146V37.0567H458.166L457.386 37.5367C457.399 36.8567 457.259 36.25 456.966 35.7167C456.673 35.1833 456.266 34.77 455.746 34.4767C455.239 34.17 454.646 34.0167 453.966 34.0167C453.299 34.0167 452.706 34.17 452.186 34.4767C451.666 34.77 451.259 35.19 450.966 35.7367C450.673 36.27 450.526 36.8833 450.526 37.5767V37.8967C450.526 38.6033 450.686 39.2367 451.006 39.7967C451.339 40.3433 451.799 40.77 452.386 41.0767C452.973 41.3833 453.646 41.5367 454.406 41.5367C455.033 41.5367 455.599 41.43 456.106 41.2167C456.626 41.0033 457.079 40.6833 457.466 40.2567L458.526 41.4967C458.046 42.0567 457.446 42.4833 456.726 42.7767C456.019 43.07 455.226 43.2167 454.346 43.2167Z" fill="black"/>
<path d="M814.988 74.805C813.922 74.805 812.935 74.6317 812.028 74.285C811.135 73.925 810.355 73.425 809.688 72.785C809.035 72.1317 808.522 71.3717 808.148 70.505C807.775 69.6384 807.588 68.685 807.588 67.645C807.588 66.605 807.775 65.6517 808.148 64.785C808.522 63.9184 809.042 63.165 809.708 62.525C810.375 61.8717 811.155 61.3717 812.048 61.025C812.955 60.665 813.942 60.485 815.008 60.485C816.088 60.485 817.082 60.6717 817.988 61.045C818.908 61.405 819.688 61.945 820.328 62.665L819.028 63.925C818.495 63.365 817.895 62.9517 817.228 62.685C816.562 62.405 815.848 62.265 815.088 62.265C814.302 62.265 813.568 62.3984 812.888 62.665C812.222 62.9317 811.642 63.305 811.148 63.785C810.655 64.265 810.268 64.8384 809.988 65.505C809.722 66.1584 809.588 66.8717 809.588 67.645C809.588 68.4184 809.722 69.1384 809.988 69.805C810.268 70.4584 810.655 71.025 811.148 71.505C811.642 71.985 812.222 72.3584 812.888 72.625C813.568 72.8917 814.302 73.025 815.088 73.025C815.848 73.025 816.562 72.8917 817.228 72.625C817.895 72.345 818.495 71.9184 819.028 71.345L820.328 72.605C819.688 73.325 818.908 73.8717 817.988 74.245C817.082 74.6184 816.082 74.805 814.988 74.805ZM828.562 63.945C829.428 63.945 830.188 64.1117 830.842 64.445C831.508 64.7784 832.028 65.285 832.402 65.965C832.775 66.645 832.962 67.505 832.962 68.545V74.645H831.042V68.765C831.042 67.7384 830.788 66.965 830.282 66.445C829.788 65.925 829.088 65.665 828.182 65.665C827.502 65.665 826.908 65.7984 826.402 66.065C825.895 66.3317 825.502 66.725 825.222 67.245C824.955 67.765 824.822 68.4117 824.822 69.185V74.645H822.902V59.805H824.822V66.905L824.442 66.145C824.788 65.4517 825.322 64.9117 826.042 64.525C826.762 64.1384 827.602 63.945 828.562 63.945ZM836.515 74.645V59.805H838.435V74.645H836.515ZM846.641 74.765C845.574 74.765 844.627 74.5317 843.801 74.065C842.974 73.5984 842.321 72.9584 841.841 72.145C841.361 71.3184 841.121 70.385 841.121 69.345C841.121 68.2917 841.361 67.3584 841.841 66.545C842.321 65.7317 842.974 65.0984 843.801 64.645C844.627 64.1784 845.574 63.945 846.641 63.945C847.694 63.945 848.634 64.1784 849.461 64.645C850.301 65.0984 850.954 65.7317 851.421 66.545C851.901 67.345 852.141 68.2784 852.141 69.345C852.141 70.3984 851.901 71.3317 851.421 72.145C850.954 72.9584 850.301 73.5984 849.461 74.065C848.634 74.5317 847.694 74.765 846.641 74.765ZM846.641 73.085C847.321 73.085 847.927 72.9317 848.461 72.625C849.007 72.3184 849.434 71.885 849.741 71.325C850.047 70.7517 850.201 70.0917 850.201 69.345C850.201 68.585 850.047 67.9317 849.741 67.385C849.434 66.825 849.007 66.3917 848.461 66.085C847.927 65.7784 847.321 65.625 846.641 65.625C845.961 65.625 845.354 65.7784 844.821 66.085C844.287 66.3917 843.861 66.825 843.541 67.385C843.221 67.9317 843.061 68.585 843.061 69.345C843.061 70.0917 843.221 70.7517 843.541 71.325C843.861 71.885 844.287 72.3184 844.821 72.625C845.354 72.9317 845.961 73.085 846.641 73.085ZM854.796 74.645V64.045H856.636V66.925L856.456 66.205C856.749 65.4717 857.243 64.9117 857.936 64.525C858.629 64.1384 859.483 63.945 860.496 63.945V65.805C860.416 65.7917 860.336 65.785 860.256 65.785C860.189 65.785 860.123 65.785 860.056 65.785C859.029 65.785 858.216 66.0917 857.616 66.705C857.016 67.3184 856.716 68.205 856.716 69.365V74.645H854.796ZM867.305 74.765C866.238 74.765 865.291 74.5317 864.465 74.065C863.638 73.5984 862.985 72.9584 862.505 72.145C862.025 71.3184 861.785 70.385 861.785 69.345C861.785 68.2917 862.025 67.3584 862.505 66.545C862.985 65.7317 863.638 65.0984 864.465 64.645C865.291 64.1784 866.238 63.945 867.305 63.945C868.358 63.945 869.298 64.1784 870.125 64.645C870.965 65.0984 871.618 65.7317 872.085 66.545C872.565 67.345 872.805 68.2784 872.805 69.345C872.805 70.3984 872.565 71.3317 872.085 72.145C871.618 72.9584 870.965 73.5984 870.125 74.065C869.298 74.5317 868.358 74.765 867.305 74.765ZM867.305 73.085C867.985 73.085 868.591 72.9317 869.125 72.625C869.671 72.3184 870.098 71.885 870.405 71.325C870.711 70.7517 870.865 70.0917 870.865 69.345C870.865 68.585 870.711 67.9317 870.405 67.385C870.098 66.825 869.671 66.3917 869.125 66.085C868.591 65.7784 867.985 65.625 867.305 65.625C866.625 65.625 866.018 65.7784 865.485 66.085C864.951 66.3917 864.525 66.825 864.205 67.385C863.885 67.9317 863.725 68.585 863.725 69.345C863.725 70.0917 863.885 70.7517 864.205 71.325C864.525 71.885 864.951 72.3184 865.485 72.625C866.018 72.9317 866.625 73.085 867.305 73.085ZM881.08 74.765C880.2 74.765 879.393 74.565 878.66 74.165C877.94 73.7517 877.36 73.145 876.92 72.345C876.493 71.545 876.28 70.545 876.28 69.345C876.28 68.145 876.487 67.145 876.9 66.345C877.327 65.545 877.9 64.945 878.62 64.545C879.353 64.145 880.173 63.945 881.08 63.945C882.12 63.945 883.04 64.1717 883.84 64.625C884.64 65.0784 885.273 65.7117 885.74 66.525C886.207 67.325 886.44 68.265 886.44 69.345C886.44 70.425 886.207 71.3717 885.74 72.185C885.273 72.9984 884.64 73.6317 883.84 74.085C883.04 74.5384 882.12 74.765 881.08 74.765ZM875.46 78.525V64.045H877.3V66.905L877.18 69.365L877.38 71.825V78.525H875.46ZM880.92 73.085C881.6 73.085 882.207 72.9317 882.74 72.625C883.287 72.3184 883.713 71.885 884.02 71.325C884.34 70.7517 884.5 70.0917 884.5 69.345C884.5 68.585 884.34 67.9317 884.02 67.385C883.713 66.825 883.287 66.3917 882.74 66.085C882.207 65.7784 881.6 65.625 880.92 65.625C880.253 65.625 879.647 65.7784 879.1 66.085C878.567 66.3917 878.14 66.825 877.82 67.385C877.513 67.9317 877.36 68.585 877.36 69.345C877.36 70.0917 877.513 70.7517 877.82 71.325C878.14 71.885 878.567 72.3184 879.1 72.625C879.647 72.9317 880.253 73.085 880.92 73.085ZM889.093 74.645V59.805H891.013V74.645H889.093ZM901.259 74.645V72.405L901.159 71.985V68.165C901.159 67.3517 900.919 66.725 900.439 66.285C899.972 65.8317 899.266 65.605 898.319 65.605C897.692 65.605 897.079 65.7117 896.479 65.925C895.879 66.125 895.372 66.3984 894.959 66.745L894.159 65.305C894.706 64.865 895.359 64.5317 896.119 64.305C896.892 64.065 897.699 63.945 898.539 63.945C899.992 63.945 901.112 64.2984 901.899 65.005C902.686 65.7117 903.079 66.7917 903.079 68.245V74.645H901.259ZM897.779 74.765C896.992 74.765 896.299 74.6317 895.699 74.365C895.112 74.0984 894.659 73.7317 894.339 73.265C894.019 72.785 893.859 72.245 893.859 71.645C893.859 71.0717 893.992 70.5517 894.259 70.085C894.539 69.6184 894.986 69.245 895.599 68.965C896.226 68.685 897.066 68.545 898.119 68.545H901.479V69.925H898.199C897.239 69.925 896.592 70.085 896.259 70.405C895.926 70.725 895.759 71.1117 895.759 71.565C895.759 72.085 895.966 72.505 896.379 72.825C896.792 73.1317 897.366 73.285 898.099 73.285C898.819 73.285 899.446 73.125 899.979 72.805C900.526 72.485 900.919 72.0184 901.159 71.405L901.539 72.725C901.286 73.3517 900.839 73.8517 900.199 74.225C899.559 74.585 898.752 74.765 897.779 74.765ZM909.672 74.765C908.792 74.765 907.952 74.645 907.152 74.405C906.365 74.165 905.745 73.8717 905.292 73.525L906.092 72.005C906.545 72.3117 907.105 72.5717 907.772 72.785C908.439 72.9984 909.119 73.105 909.812 73.105C910.705 73.105 911.345 72.9784 911.732 72.725C912.132 72.4717 912.332 72.1184 912.332 71.665C912.332 71.3317 912.212 71.0717 911.972 70.885C911.732 70.6984 911.412 70.5584 911.012 70.465C910.625 70.3717 910.192 70.2917 909.712 70.225C909.232 70.145 908.752 70.0517 908.272 69.945C907.792 69.825 907.352 69.665 906.952 69.465C906.552 69.2517 906.232 68.965 905.992 68.605C905.752 68.2317 905.632 67.7384 905.632 67.125C905.632 66.485 905.812 65.925 906.172 65.445C906.532 64.965 907.039 64.5984 907.692 64.345C908.359 64.0784 909.145 63.945 910.052 63.945C910.745 63.945 911.445 64.0317 912.152 64.205C912.872 64.365 913.459 64.5984 913.912 64.905L913.092 66.425C912.612 66.105 912.112 65.885 911.592 65.765C911.072 65.645 910.552 65.585 910.032 65.585C909.192 65.585 908.565 65.725 908.152 66.005C907.739 66.2717 907.532 66.6184 907.532 67.045C907.532 67.405 907.652 67.685 907.892 67.885C908.145 68.0717 908.465 68.2184 908.852 68.325C909.252 68.4317 909.692 68.525 910.172 68.605C910.652 68.6717 911.132 68.765 911.612 68.885C912.092 68.9917 912.525 69.145 912.912 69.345C913.312 69.545 913.632 69.825 913.872 70.185C914.125 70.545 914.252 71.025 914.252 71.625C914.252 72.265 914.065 72.8184 913.692 73.285C913.319 73.7517 912.792 74.1184 912.112 74.385C911.432 74.6384 910.619 74.765 909.672 74.765ZM920.292 74.765C919.225 74.765 918.398 74.4784 917.812 73.905C917.225 73.3317 916.932 72.5117 916.932 71.445V61.725H918.852V71.365C918.852 71.9384 918.992 72.3784 919.272 72.685C919.565 72.9917 919.978 73.145 920.512 73.145C921.112 73.145 921.612 72.9784 922.012 72.645L922.612 74.025C922.318 74.2784 921.965 74.465 921.552 74.585C921.152 74.705 920.732 74.765 920.292 74.765ZM915.132 65.625V64.045H921.892V65.625H915.132Z" fill="black"/>
<path d="M867.755 447.291V433.291H869.395L875.675 443.871H874.795L880.995 433.291H882.635L882.655 447.291H880.735L880.715 436.311H881.175L875.655 445.591H874.735L869.175 436.311H869.675V447.291H867.755ZM886.576 447.291V436.691H888.496V447.291H886.576ZM887.536 434.651C887.163 434.651 886.85 434.531 886.596 434.291C886.356 434.051 886.236 433.757 886.236 433.411C886.236 433.051 886.356 432.751 886.596 432.511C886.85 432.271 887.163 432.151 887.536 432.151C887.91 432.151 888.216 432.271 888.456 432.511C888.71 432.737 888.836 433.024 888.836 433.371C888.836 433.731 888.716 434.037 888.476 434.291C888.236 434.531 887.923 434.651 887.536 434.651ZM895.802 447.411C894.736 447.411 893.909 447.124 893.322 446.551C892.736 445.977 892.442 445.157 892.442 444.091V434.371H894.362V444.011C894.362 444.584 894.502 445.024 894.782 445.331C895.076 445.637 895.489 445.791 896.022 445.791C896.622 445.791 897.122 445.624 897.522 445.291L898.122 446.671C897.829 446.924 897.476 447.111 897.062 447.231C896.662 447.351 896.242 447.411 895.802 447.411ZM890.642 438.271V436.691H897.402V438.271H890.642ZM904.632 447.411C903.565 447.411 902.619 447.177 901.792 446.711C900.965 446.244 900.312 445.604 899.832 444.791C899.352 443.964 899.112 443.031 899.112 441.991C899.112 440.937 899.352 440.004 899.832 439.191C900.312 438.377 900.965 437.744 901.792 437.291C902.619 436.824 903.565 436.591 904.632 436.591C905.685 436.591 906.625 436.824 907.452 437.291C908.292 437.744 908.945 438.377 909.412 439.191C909.892 439.991 910.132 440.924 910.132 441.991C910.132 443.044 909.892 443.977 909.412 444.791C908.945 445.604 908.292 446.244 907.452 446.711C906.625 447.177 905.685 447.411 904.632 447.411ZM904.632 445.731C905.312 445.731 905.919 445.577 906.452 445.271C906.999 444.964 907.425 444.531 907.732 443.971C908.039 443.397 908.192 442.737 908.192 441.991C908.192 441.231 908.039 440.577 907.732 440.031C907.425 439.471 906.999 439.037 906.452 438.731C905.919 438.424 905.312 438.271 904.632 438.271C903.952 438.271 903.345 438.424 902.812 438.731C902.279 439.037 901.852 439.471 901.532 440.031C901.212 440.577 901.052 441.231 901.052 441.991C901.052 442.737 901.212 443.397 901.532 443.971C901.852 444.531 902.279 444.964 902.812 445.271C903.345 445.577 903.952 445.731 904.632 445.731ZM917.407 447.411C916.327 447.411 915.361 447.177 914.507 446.711C913.667 446.244 913.007 445.604 912.527 444.791C912.047 443.977 911.807 443.044 911.807 441.991C911.807 440.937 912.047 440.004 912.527 439.191C913.007 438.377 913.667 437.744 914.507 437.291C915.361 436.824 916.327 436.591 917.407 436.591C918.367 436.591 919.221 436.784 919.967 437.171C920.727 437.544 921.314 438.104 921.727 438.851L920.267 439.791C919.921 439.271 919.494 438.891 918.987 438.651C918.494 438.397 917.961 438.271 917.387 438.271C916.694 438.271 916.074 438.424 915.527 438.731C914.981 439.037 914.547 439.471 914.227 440.031C913.907 440.577 913.747 441.231 913.747 441.991C913.747 442.751 913.907 443.411 914.227 443.971C914.547 444.531 914.981 444.964 915.527 445.271C916.074 445.577 916.694 445.731 917.387 445.731C917.961 445.731 918.494 445.611 918.987 445.371C919.494 445.117 919.921 444.731 920.267 444.211L921.727 445.131C921.314 445.864 920.727 446.431 919.967 446.831C919.221 447.217 918.367 447.411 917.407 447.411ZM929.736 436.591C930.603 436.591 931.363 436.757 932.016 437.091C932.683 437.424 933.203 437.931 933.576 438.611C933.95 439.291 934.136 440.151 934.136 441.191V447.291H932.216V441.411C932.216 440.384 931.963 439.611 931.456 439.091C930.963 438.571 930.263 438.311 929.356 438.311C928.676 438.311 928.083 438.444 927.576 438.711C927.07 438.977 926.676 439.371 926.396 439.891C926.13 440.411 925.996 441.057 925.996 441.831V447.291H924.076V432.451H925.996V439.551L925.616 438.791C925.963 438.097 926.496 437.557 927.216 437.171C927.936 436.784 928.776 436.591 929.736 436.591ZM942.23 447.411C941.163 447.411 940.216 447.177 939.39 446.711C938.563 446.244 937.91 445.604 937.43 444.791C936.95 443.964 936.71 443.031 936.71 441.991C936.71 440.937 936.95 440.004 937.43 439.191C937.91 438.377 938.563 437.744 939.39 437.291C940.216 436.824 941.163 436.591 942.23 436.591C943.283 436.591 944.223 436.824 945.05 437.291C945.89 437.744 946.543 438.377 947.01 439.191C947.49 439.991 947.73 440.924 947.73 441.991C947.73 443.044 947.49 443.977 947.01 444.791C946.543 445.604 945.89 446.244 945.05 446.711C944.223 447.177 943.283 447.411 942.23 447.411ZM942.23 445.731C942.91 445.731 943.516 445.577 944.05 445.271C944.596 444.964 945.023 444.531 945.33 443.971C945.636 443.397 945.79 442.737 945.79 441.991C945.79 441.231 945.636 440.577 945.33 440.031C945.023 439.471 944.596 439.037 944.05 438.731C943.516 438.424 942.91 438.271 942.23 438.271C941.55 438.271 940.943 438.424 940.41 438.731C939.876 439.037 939.45 439.471 939.13 440.031C938.81 440.577 938.65 441.231 938.65 441.991C938.65 442.737 938.81 443.397 939.13 443.971C939.45 444.531 939.876 444.964 940.41 445.271C940.943 445.577 941.55 445.731 942.23 445.731ZM956.045 436.591C956.912 436.591 957.672 436.757 958.325 437.091C958.992 437.424 959.512 437.931 959.885 438.611C960.258 439.291 960.445 440.151 960.445 441.191V447.291H958.525V441.411C958.525 440.384 958.272 439.611 957.765 439.091C957.272 438.571 956.572 438.311 955.665 438.311C954.985 438.311 954.392 438.444 953.885 438.711C953.378 438.977 952.985 439.371 952.705 439.891C952.438 440.411 952.305 441.057 952.305 441.831V447.291H950.385V436.691H952.225V439.551L951.925 438.791C952.272 438.097 952.805 437.557 953.525 437.171C954.245 436.784 955.085 436.591 956.045 436.591ZM968.378 447.411C967.352 447.411 966.432 447.184 965.618 446.731C964.818 446.277 964.185 445.644 963.718 444.831C963.252 444.017 963.018 443.071 963.018 441.991C963.018 440.911 963.252 439.971 963.718 439.171C964.185 438.357 964.818 437.724 965.618 437.271C966.432 436.817 967.352 436.591 968.378 436.591C969.272 436.591 970.078 436.791 970.798 437.191C971.518 437.591 972.092 438.191 972.518 438.991C972.958 439.791 973.178 440.791 973.178 441.991C973.178 443.191 972.965 444.191 972.538 444.991C972.125 445.791 971.558 446.397 970.838 446.811C970.118 447.211 969.298 447.411 968.378 447.411ZM968.538 445.731C969.205 445.731 969.805 445.577 970.338 445.271C970.885 444.964 971.312 444.531 971.618 443.971C971.938 443.397 972.098 442.737 972.098 441.991C972.098 441.231 971.938 440.577 971.618 440.031C971.312 439.471 970.885 439.037 970.338 438.731C969.805 438.424 969.205 438.271 968.538 438.271C967.858 438.271 967.252 438.424 966.718 438.731C966.185 439.037 965.758 439.471 965.438 440.031C965.118 440.577 964.958 441.231 964.958 441.991C964.958 442.737 965.118 443.397 965.438 443.971C965.758 444.531 966.185 444.964 966.718 445.271C967.252 445.577 967.858 445.731 968.538 445.731ZM972.158 447.291V444.431L972.278 441.971L972.078 439.511V432.451H973.998V447.291H972.158ZM977.631 447.291V436.691H979.471V439.571L979.291 438.851C979.584 438.117 980.078 437.557 980.771 437.171C981.464 436.784 982.318 436.591 983.331 436.591V438.451C983.251 438.437 983.171 438.431 983.091 438.431C983.024 438.431 982.958 438.431 982.891 438.431C981.864 438.431 981.051 438.737 980.451 439.351C979.851 439.964 979.551 440.851 979.551 442.011V447.291H977.631ZM985.697 447.291V436.691H987.617V447.291H985.697ZM986.657 434.651C986.284 434.651 985.971 434.531 985.717 434.291C985.477 434.051 985.357 433.757 985.357 433.411C985.357 433.051 985.477 432.751 985.717 432.511C985.971 432.271 986.284 432.151 986.657 432.151C987.031 432.151 987.337 432.271 987.577 432.511C987.831 432.737 987.957 433.024 987.957 433.371C987.957 433.731 987.837 434.037 987.597 434.291C987.357 434.531 987.044 434.651 986.657 434.651ZM997.863 447.291V445.051L997.763 444.631V440.811C997.763 439.997 997.523 439.371 997.043 438.931C996.577 438.477 995.87 438.251 994.923 438.251C994.297 438.251 993.683 438.357 993.083 438.571C992.483 438.771 991.977 439.044 991.563 439.391L990.763 437.951C991.31 437.511 991.963 437.177 992.723 436.951C993.497 436.711 994.303 436.591 995.143 436.591C996.597 436.591 997.717 436.944 998.503 437.651C999.29 438.357 999.683 439.437 999.683 440.891V447.291H997.863ZM994.383 447.411C993.597 447.411 992.903 447.277 992.303 447.011C991.717 446.744 991.263 446.377 990.943 445.911C990.623 445.431 990.463 444.891 990.463 444.291C990.463 443.717 990.597 443.197 990.863 442.731C991.143 442.264 991.59 441.891 992.203 441.611C992.83 441.331 993.67 441.191 994.723 441.191H998.083V442.571H994.803C993.843 442.571 993.197 442.731 992.863 443.051C992.53 443.371 992.363 443.757 992.363 444.211C992.363 444.731 992.57 445.151 992.983 445.471C993.397 445.777 993.97 445.931 994.703 445.931C995.423 445.931 996.05 445.771 996.583 445.451C997.13 445.131 997.523 444.664 997.763 444.051L998.143 445.371C997.89 445.997 997.443 446.497 996.803 446.871C996.163 447.231 995.357 447.411 994.383 447.411ZM1008.9 436.591C1009.76 436.591 1010.52 436.757 1011.18 437.091C1011.84 437.424 1012.36 437.931 1012.74 438.611C1013.11 439.291 1013.3 440.151 1013.3 441.191V447.291H1011.38V441.411C1011.38 440.384 1011.12 439.611 1010.62 439.091C1010.12 438.571 1009.42 438.311 1008.52 438.311C1007.84 438.311 1007.24 438.444 1006.74 438.711C1006.23 438.977 1005.84 439.371 1005.56 439.891C1005.29 440.411 1005.16 441.057 1005.16 441.831V447.291H1003.24V436.691H1005.08V439.551L1004.78 438.791C1005.12 438.097 1005.66 437.557 1006.38 437.171C1007.1 436.784 1007.94 436.591 1008.9 436.591Z" fill="black"/>
<path d="M244.068 556.807V544.007L245.468 545.407H241.268V542.807H247.308V556.807H244.068ZM251.58 556.967C251.047 556.967 250.587 556.787 250.2 556.427C249.827 556.053 249.64 555.58 249.64 555.007C249.64 554.433 249.827 553.973 250.2 553.627C250.587 553.267 251.047 553.087 251.58 553.087C252.127 553.087 252.587 553.267 252.96 553.627C253.333 553.973 253.52 554.433 253.52 555.007C253.52 555.58 253.333 556.053 252.96 556.427C252.587 556.787 252.127 556.967 251.58 556.967Z" fill="black"/>
<path d="M543.047 556.807V554.707L548.447 549.607C548.873 549.22 549.187 548.873 549.387 548.567C549.587 548.26 549.72 547.98 549.787 547.727C549.867 547.473 549.907 547.24 549.907 547.027C549.907 546.467 549.713 546.04 549.327 545.747C548.953 545.44 548.4 545.287 547.667 545.287C547.08 545.287 546.533 545.4 546.027 545.627C545.533 545.853 545.113 546.207 544.767 546.687L542.407 545.167C542.94 544.367 543.687 543.733 544.647 543.267C545.607 542.8 546.713 542.567 547.967 542.567C549.007 542.567 549.913 542.74 550.687 543.087C551.473 543.42 552.08 543.893 552.507 544.507C552.947 545.12 553.167 545.853 553.167 546.707C553.167 547.16 553.107 547.613 552.987 548.067C552.88 548.507 552.653 548.973 552.307 549.467C551.973 549.96 551.48 550.513 550.827 551.127L546.347 555.347L545.727 554.167H553.627V556.807H543.047ZM556.999 556.967C556.466 556.967 556.006 556.787 555.619 556.427C555.246 556.053 555.059 555.58 555.059 555.007C555.059 554.433 555.246 553.973 555.619 553.627C556.006 553.267 556.466 553.087 556.999 553.087C557.546 553.087 558.006 553.267 558.379 553.627C558.752 553.973 558.939 554.433 558.939 555.007C558.939 555.58 558.752 556.053 558.379 556.427C558.006 556.787 557.546 556.967 556.999 556.967Z" fill="black"/>
<path d="M854.172 557.047C853.198 557.047 852.232 556.92 851.272 556.667C850.312 556.4 849.498 556.027 848.832 555.547L850.092 553.067C850.625 553.453 851.245 553.76 851.952 553.987C852.658 554.213 853.372 554.327 854.092 554.327C854.905 554.327 855.545 554.167 856.012 553.847C856.478 553.527 856.712 553.087 856.712 552.527C856.712 551.993 856.505 551.573 856.092 551.267C855.678 550.96 855.012 550.807 854.092 550.807H852.612V548.667L856.512 544.247L856.872 545.407H849.532V542.807H859.332V544.907L855.452 549.327L853.812 548.387H854.752C856.472 548.387 857.772 548.773 858.652 549.547C859.532 550.32 859.972 551.313 859.972 552.527C859.972 553.313 859.765 554.053 859.352 554.747C858.938 555.427 858.305 555.98 857.452 556.407C856.598 556.833 855.505 557.047 854.172 557.047ZM863.308 556.967C862.774 556.967 862.314 556.787 861.928 556.427C861.554 556.053 861.368 555.58 861.368 555.007C861.368 554.433 861.554 553.973 861.928 553.627C862.314 553.267 862.774 553.087 863.308 553.087C863.854 553.087 864.314 553.267 864.688 553.627C865.061 553.973 865.248 554.433 865.248 555.007C865.248 555.58 865.061 556.053 864.688 556.427C864.314 556.787 863.854 556.967 863.308 556.967Z" fill="black"/>
</svg>
