<svg width="818" height="494" viewBox="0 0 818 494" fill="none" xmlns="http://www.w3.org/2000/svg">
<path d="M612.865 284.363V3L712 34.8878V316.25L612.865 284.363Z" stroke="#FA6C32" stroke-width="4"/>
<path d="M657.573 109.918L658.417 111.731L664.302 108.99L657.895 107.944L657.573 109.918ZM110.121 363.315C109.743 364.353 110.277 365.501 111.315 365.879L128.227 372.044C129.264 372.422 130.412 371.887 130.791 370.85C131.169 369.812 130.634 368.664 129.596 368.286L114.564 362.806L120.044 347.773C120.422 346.736 119.887 345.588 118.85 345.209C117.812 344.831 116.664 345.366 116.286 346.404L110.121 363.315ZM19.6777 7.78734L657.251 111.892L657.895 107.944L20.3223 3.83962L19.6777 7.78734ZM656.729 108.105L111.156 362.187L112.844 365.813L658.417 111.731L656.729 108.105Z" fill="#FA6C32"/>
<path d="M659.517 141.806L660.386 143.607L666.003 140.898L659.858 139.835L659.517 141.806ZM120.112 400.34C119.748 401.383 120.298 402.524 121.34 402.888L138.333 408.824C139.376 409.189 140.517 408.639 140.881 407.596C141.245 406.553 140.695 405.412 139.653 405.048L124.548 399.771L129.824 384.667C130.189 383.624 129.639 382.483 128.596 382.119C127.553 381.755 126.412 382.305 126.048 383.347L120.112 400.34ZM19.659 33.1069L659.176 143.776L659.858 139.835L20.341 29.1655L19.659 33.1069ZM658.648 140.004L121.131 399.199L122.869 402.801L660.386 143.607L658.648 140.004Z" fill="#FA6C32"/>
<path d="M659.517 166.19L660.431 167.969L665.73 165.245L659.861 164.22L659.517 166.19ZM127.096 438.389C126.758 439.441 127.337 440.567 128.389 440.904L145.529 446.403C146.58 446.74 147.707 446.161 148.044 445.109C148.381 444.058 147.802 442.931 146.751 442.594L131.515 437.707L136.403 422.471C136.74 421.42 136.161 420.293 135.109 419.956C134.058 419.619 132.931 420.198 132.594 421.249L127.096 438.389ZM19.6562 56.5535L659.173 168.161L659.861 164.22L20.3438 52.613L19.6562 56.5535ZM658.602 164.412L128.085 437.221L129.915 440.779L660.431 167.969L658.602 164.412Z" fill="#FA6C32"/>
<path d="M217.278 38.481L207.729 22.3451" stroke="#FA6C32" stroke-width="3"/>
<path d="M217.278 38.4809L202.933 51.056" stroke="#FA6C32" stroke-width="3"/>
<path d="M223.278 66.481L213.729 50.3451" stroke="#FA6C32" stroke-width="3"/>
<path d="M223.278 66.4809L208.933 79.056" stroke="#FA6C32" stroke-width="3"/>
<path d="M232.278 91.481L222.729 75.3451" stroke="#FA6C32" stroke-width="3"/>
<path d="M232.278 91.4809L217.933 104.056" stroke="#FA6C32" stroke-width="3"/>
<path d="M711 42.5L731 52.5" stroke="#FA6C32" stroke-width="4"/>
<path d="M711 56.5L731 66.5" stroke="#FA6C32" stroke-width="4"/>
<path d="M711 70.5L731 80.5" stroke="#FA6C32" stroke-width="4"/>
<path d="M711 84.5L731 94.5" stroke="#FA6C32" stroke-width="4"/>
<path d="M711 98.5L731 108.5" stroke="#FA6C32" stroke-width="4"/>
<path d="M711 112.5L731 122.5" stroke="#FA6C32" stroke-width="4"/>
<path d="M711 126.5L731 136.5" stroke="#FA6C32" stroke-width="4"/>
<path d="M711 140.5L731 150.5" stroke="#FA6C32" stroke-width="4"/>
<path d="M711 154.5L731 164.5" stroke="#FA6C32" stroke-width="4"/>
<path d="M711 168.5L731 178.5" stroke="#FA6C32" stroke-width="4"/>
<path d="M711 182.5L731 192.5" stroke="#FA6C32" stroke-width="4"/>
<path d="M711 196.5L731 206.5" stroke="#FA6C32" stroke-width="4"/>
<path d="M711 210.5L731 220.5" stroke="#FA6C32" stroke-width="4"/>
<path d="M711 224.5L731 234.5" stroke="#FA6C32" stroke-width="4"/>
<path d="M711 238.5L731 248.5" stroke="#FA6C32" stroke-width="4"/>
<path d="M711 252.5L731 262.5" stroke="#FA6C32" stroke-width="4"/>
<path d="M711 266.5L731 276.5" stroke="#FA6C32" stroke-width="4"/>
<path d="M711 280.5L731 290.5" stroke="#FA6C32" stroke-width="4"/>
<path d="M711 294.5L731 304.5" stroke="#FA6C32" stroke-width="4"/>
<path d="M711 308.5L731 318.5" stroke="#FA6C32" stroke-width="4"/>
<path d="M391.58 481.14H398.04V484.2H391.58V481.14ZM391.86 489H387.9V475H398.88V478.06H391.86V489ZM400.552 489V478.16H404.352V489H400.552ZM402.452 476.96C401.759 476.96 401.199 476.767 400.772 476.38C400.345 475.993 400.132 475.513 400.132 474.94C400.132 474.367 400.345 473.887 400.772 473.5C401.199 473.113 401.759 472.92 402.452 472.92C403.145 472.92 403.705 473.107 404.132 473.48C404.559 473.84 404.772 474.307 404.772 474.88C404.772 475.48 404.559 475.98 404.132 476.38C403.719 476.767 403.159 476.96 402.452 476.96ZM412.122 493.06C411.082 493.06 410.088 492.94 409.142 492.7C408.208 492.46 407.408 492.107 406.742 491.64L408.122 488.98C408.575 489.34 409.135 489.62 409.802 489.82C410.482 490.033 411.142 490.14 411.782 490.14C412.808 490.14 413.548 489.913 414.002 489.46C414.455 489.02 414.682 488.373 414.682 487.52V486.24L414.882 483.2L414.862 480.14V478.16H418.482V487.02C418.482 489.073 417.928 490.593 416.822 491.58C415.715 492.567 414.148 493.06 412.122 493.06ZM411.462 488.44C410.502 488.44 409.615 488.227 408.802 487.8C408.002 487.36 407.355 486.753 406.862 485.98C406.382 485.193 406.142 484.267 406.142 483.2C406.142 482.133 406.382 481.213 406.862 480.44C407.355 479.653 408.002 479.047 408.802 478.62C409.615 478.193 410.502 477.98 411.462 477.98C412.382 477.98 413.168 478.167 413.822 478.54C414.475 478.9 414.968 479.467 415.302 480.24C415.648 481.013 415.822 482 415.822 483.2C415.822 484.4 415.648 485.387 415.302 486.16C414.968 486.933 414.475 487.507 413.822 487.88C413.168 488.253 412.382 488.44 411.462 488.44ZM412.362 485.42C412.815 485.42 413.215 485.327 413.562 485.14C413.922 484.953 414.202 484.693 414.402 484.36C414.615 484.027 414.722 483.64 414.722 483.2C414.722 482.76 414.615 482.373 414.402 482.04C414.202 481.707 413.922 481.453 413.562 481.28C413.215 481.093 412.815 481 412.362 481C411.908 481 411.502 481.093 411.142 481.28C410.782 481.453 410.495 481.707 410.282 482.04C410.082 482.373 409.982 482.76 409.982 483.2C409.982 483.64 410.082 484.027 410.282 484.36C410.495 484.693 410.782 484.953 411.142 485.14C411.502 485.327 411.908 485.42 412.362 485.42ZM428.243 489V476.42L429.943 478.06H425.643V475H432.203V489H428.243ZM436.449 489.18C435.809 489.18 435.269 488.967 434.829 488.54C434.389 488.113 434.169 487.573 434.169 486.92C434.169 486.24 434.389 485.7 434.829 485.3C435.269 484.887 435.809 484.68 436.449 484.68C437.089 484.68 437.629 484.887 438.069 485.3C438.509 485.7 438.729 486.24 438.729 486.92C438.729 487.573 438.509 488.113 438.069 488.54C437.629 488.967 437.089 489.18 436.449 489.18ZM441.661 489V476.42L443.361 478.06H439.061V475H445.621V489H441.661Z" fill="black"/>
<path d="M692.88 377V363H698.64C699.88 363 700.94 363.2 701.82 363.6C702.713 364 703.4 364.573 703.88 365.32C704.36 366.067 704.6 366.953 704.6 367.98C704.6 369.007 704.36 369.893 703.88 370.64C703.4 371.387 702.713 371.96 701.82 372.36C700.94 372.76 699.88 372.96 698.64 372.96H694.32L695.48 371.74V377H692.88ZM695.48 372.02L694.32 370.76H698.52C699.667 370.76 700.527 370.52 701.1 370.04C701.687 369.547 701.98 368.86 701.98 367.98C701.98 367.087 701.687 366.4 701.1 365.92C700.527 365.44 699.667 365.2 698.52 365.2H694.32L695.48 363.92V372.02ZM707.152 377V362.16H709.652V377H707.152ZM719.513 377V374.84L719.373 374.38V370.6C719.373 369.867 719.153 369.3 718.713 368.9C718.273 368.487 717.606 368.28 716.713 368.28C716.113 368.28 715.52 368.373 714.933 368.56C714.36 368.747 713.873 369.007 713.473 369.34L712.493 367.52C713.066 367.08 713.746 366.753 714.533 366.54C715.333 366.313 716.16 366.2 717.013 366.2C718.56 366.2 719.753 366.573 720.593 367.32C721.446 368.053 721.873 369.193 721.873 370.74V377H719.513ZM716.153 377.14C715.353 377.14 714.653 377.007 714.053 376.74C713.453 376.46 712.986 376.08 712.653 375.6C712.333 375.107 712.173 374.553 712.173 373.94C712.173 373.34 712.313 372.8 712.593 372.32C712.886 371.84 713.36 371.46 714.013 371.18C714.666 370.9 715.533 370.76 716.613 370.76H719.713V372.42H716.793C715.94 372.42 715.366 372.56 715.073 372.84C714.78 373.107 714.633 373.44 714.633 373.84C714.633 374.293 714.813 374.653 715.173 374.92C715.533 375.187 716.033 375.32 716.673 375.32C717.286 375.32 717.833 375.18 718.313 374.9C718.806 374.62 719.16 374.207 719.373 373.66L719.793 375.16C719.553 375.787 719.12 376.273 718.493 376.62C717.88 376.967 717.1 377.14 716.153 377.14ZM731.141 366.2C731.995 366.2 732.755 366.367 733.421 366.7C734.101 367.033 734.635 367.547 735.021 368.24C735.408 368.92 735.601 369.8 735.601 370.88V377H733.101V371.2C733.101 370.253 732.875 369.547 732.421 369.08C731.981 368.613 731.361 368.38 730.561 368.38C729.975 368.38 729.455 368.5 729.001 368.74C728.548 368.98 728.195 369.34 727.941 369.82C727.701 370.287 727.581 370.88 727.581 371.6V377H725.081V366.32H727.461V369.2L727.041 368.32C727.415 367.64 727.955 367.12 728.661 366.76C729.381 366.387 730.208 366.2 731.141 366.2ZM743.812 377.14C742.626 377.14 741.586 376.907 740.692 376.44C739.812 375.96 739.126 375.307 738.632 374.48C738.152 373.653 737.912 372.713 737.912 371.66C737.912 370.593 738.146 369.653 738.612 368.84C739.092 368.013 739.746 367.367 740.572 366.9C741.412 366.433 742.366 366.2 743.432 366.2C744.472 366.2 745.399 366.427 746.212 366.88C747.026 367.333 747.666 367.973 748.132 368.8C748.599 369.627 748.832 370.6 748.832 371.72C748.832 371.827 748.826 371.947 748.812 372.08C748.812 372.213 748.806 372.34 748.792 372.46H739.892V370.8H747.472L746.492 371.32C746.506 370.707 746.379 370.167 746.112 369.7C745.846 369.233 745.479 368.867 745.012 368.6C744.559 368.333 744.032 368.2 743.432 368.2C742.819 368.2 742.279 368.333 741.812 368.6C741.359 368.867 740.999 369.24 740.732 369.72C740.479 370.187 740.352 370.74 740.352 371.38V371.78C740.352 372.42 740.499 372.987 740.792 373.48C741.086 373.973 741.499 374.353 742.032 374.62C742.566 374.887 743.179 375.02 743.872 375.02C744.472 375.02 745.012 374.927 745.492 374.74C745.972 374.553 746.399 374.26 746.772 373.86L748.112 375.4C747.632 375.96 747.026 376.393 746.292 376.7C745.572 376.993 744.746 377.14 743.812 377.14ZM757.001 377V363H759.141L765.261 373.22H764.141L770.161 363H772.301L772.321 377H769.861L769.841 366.86H770.361L765.241 375.4H764.081L758.881 366.86H759.481V377H757.001ZM775.863 377V366.32H778.363V377H775.863ZM777.123 364.56C776.656 364.56 776.269 364.413 775.963 364.12C775.669 363.827 775.523 363.473 775.523 363.06C775.523 362.633 775.669 362.28 775.963 362C776.269 361.707 776.656 361.56 777.123 361.56C777.589 361.56 777.969 361.7 778.263 361.98C778.569 362.247 778.723 362.587 778.723 363C778.723 363.44 778.576 363.813 778.283 364.12C777.989 364.413 777.603 364.56 777.123 364.56ZM781.644 377V366.32H784.024V369.26L783.744 368.4C784.064 367.68 784.564 367.133 785.244 366.76C785.937 366.387 786.797 366.2 787.824 366.2V368.58C787.717 368.553 787.617 368.54 787.524 368.54C787.431 368.527 787.337 368.52 787.244 368.52C786.297 368.52 785.544 368.8 784.984 369.36C784.424 369.907 784.144 370.727 784.144 371.82V377H781.644ZM789.945 377V366.32H792.325V369.26L792.045 368.4C792.365 367.68 792.865 367.133 793.545 366.76C794.238 366.387 795.098 366.2 796.125 366.2V368.58C796.018 368.553 795.918 368.54 795.825 368.54C795.731 368.527 795.638 368.52 795.545 368.52C794.598 368.52 793.845 368.8 793.285 369.36C792.725 369.907 792.445 370.727 792.445 371.82V377H789.945ZM802.948 377.14C801.854 377.14 800.881 376.907 800.028 376.44C799.174 375.96 798.501 375.307 798.008 374.48C797.514 373.653 797.268 372.713 797.268 371.66C797.268 370.593 797.514 369.653 798.008 368.84C798.501 368.013 799.174 367.367 800.028 366.9C800.881 366.433 801.854 366.2 802.948 366.2C804.054 366.2 805.034 366.433 805.888 366.9C806.754 367.367 807.428 368.007 807.908 368.82C808.401 369.633 808.648 370.58 808.648 371.66C808.648 372.713 808.401 373.653 807.908 374.48C807.428 375.307 806.754 375.96 805.888 376.44C805.034 376.907 804.054 377.14 802.948 377.14ZM802.948 375C803.561 375 804.108 374.867 804.588 374.6C805.068 374.333 805.441 373.947 805.708 373.44C805.988 372.933 806.128 372.34 806.128 371.66C806.128 370.967 805.988 370.373 805.708 369.88C805.441 369.373 805.068 368.987 804.588 368.72C804.108 368.453 803.568 368.32 802.968 368.32C802.354 368.32 801.808 368.453 801.328 368.72C800.861 368.987 800.488 369.373 800.208 369.88C799.928 370.373 799.788 370.967 799.788 371.66C799.788 372.34 799.928 372.933 800.208 373.44C800.488 373.947 800.861 374.333 801.328 374.6C801.808 374.867 802.348 375 802.948 375ZM811.038 377V366.32H813.418V369.26L813.138 368.4C813.458 367.68 813.958 367.133 814.638 366.76C815.332 366.387 816.192 366.2 817.218 366.2V368.58C817.112 368.553 817.012 368.54 816.918 368.54C816.825 368.527 816.732 368.52 816.638 368.52C815.692 368.52 814.938 368.8 814.378 369.36C813.818 369.907 813.538 370.727 813.538 371.82V377H811.038Z" fill="black"/>
<path d="M1.88 131.5V117.5H4.48V131.5H1.88ZM14.0867 120.7C14.9401 120.7 15.7001 120.867 16.3667 121.2C17.0467 121.533 17.5801 122.047 17.9667 122.74C18.3534 123.42 18.5467 124.3 18.5467 125.38V131.5H16.0467V125.7C16.0467 124.753 15.8201 124.047 15.3667 123.58C14.9267 123.113 14.3067 122.88 13.5067 122.88C12.9201 122.88 12.4001 123 11.9467 123.24C11.4934 123.48 11.1401 123.84 10.8867 124.32C10.6467 124.787 10.5267 125.38 10.5267 126.1V131.5H8.02672V120.82H10.4067V123.7L9.98672 122.82C10.3601 122.14 10.9001 121.62 11.6067 121.26C12.3267 120.887 13.1534 120.7 14.0867 120.7ZM26.6377 131.64C25.5177 131.64 24.5177 131.407 23.6377 130.94C22.771 130.46 22.091 129.807 21.5977 128.98C21.1043 128.153 20.8577 127.213 20.8577 126.16C20.8577 125.093 21.1043 124.153 21.5977 123.34C22.091 122.513 22.771 121.867 23.6377 121.4C24.5177 120.933 25.5177 120.7 26.6377 120.7C27.6777 120.7 28.591 120.913 29.3777 121.34C30.1777 121.753 30.7843 122.367 31.1977 123.18L29.2777 124.3C28.9577 123.793 28.5643 123.42 28.0977 123.18C27.6443 122.94 27.151 122.82 26.6177 122.82C26.0043 122.82 25.451 122.953 24.9577 123.22C24.4643 123.487 24.0777 123.873 23.7977 124.38C23.5177 124.873 23.3777 125.467 23.3777 126.16C23.3777 126.853 23.5177 127.453 23.7977 127.96C24.0777 128.453 24.4643 128.833 24.9577 129.1C25.451 129.367 26.0043 129.5 26.6177 129.5C27.151 129.5 27.6443 129.38 28.0977 129.14C28.5643 128.9 28.9577 128.527 29.2777 128.02L31.1977 129.14C30.7843 129.94 30.1777 130.56 29.3777 131C28.591 131.427 27.6777 131.64 26.6377 131.64ZM33.2611 131.5V120.82H35.7611V131.5H33.2611ZM34.5211 119.06C34.0544 119.06 33.6678 118.913 33.3611 118.62C33.0678 118.327 32.9211 117.973 32.9211 117.56C32.9211 117.133 33.0678 116.78 33.3611 116.5C33.6678 116.207 34.0544 116.06 34.5211 116.06C34.9878 116.06 35.3678 116.2 35.6611 116.48C35.9678 116.747 36.1211 117.087 36.1211 117.5C36.1211 117.94 35.9744 118.313 35.6811 118.62C35.3878 118.913 35.0011 119.06 34.5211 119.06ZM43.5623 131.64C42.5357 131.64 41.609 131.413 40.7823 130.96C39.969 130.493 39.329 129.853 38.8623 129.04C38.3957 128.227 38.1623 127.267 38.1623 126.16C38.1623 125.053 38.3957 124.093 38.8623 123.28C39.329 122.467 39.969 121.833 40.7823 121.38C41.609 120.927 42.5357 120.7 43.5623 120.7C44.4557 120.7 45.2557 120.9 45.9623 121.3C46.669 121.687 47.229 122.28 47.6423 123.08C48.0557 123.88 48.2623 124.907 48.2623 126.16C48.2623 127.4 48.0623 128.427 47.6623 129.24C47.2623 130.04 46.709 130.64 46.0023 131.04C45.2957 131.44 44.4823 131.64 43.5623 131.64ZM43.8623 129.5C44.4623 129.5 44.9957 129.367 45.4623 129.1C45.9423 128.833 46.3223 128.447 46.6023 127.94C46.8957 127.433 47.0423 126.84 47.0423 126.16C47.0423 125.467 46.8957 124.873 46.6023 124.38C46.3223 123.873 45.9423 123.487 45.4623 123.22C44.9957 122.953 44.4623 122.82 43.8623 122.82C43.2623 122.82 42.7223 122.953 42.2423 123.22C41.7757 123.487 41.3957 123.873 41.1023 124.38C40.8223 124.873 40.6823 125.467 40.6823 126.16C40.6823 126.84 40.8223 127.433 41.1023 127.94C41.3957 128.447 41.7757 128.833 42.2423 129.1C42.7223 129.367 43.2623 129.5 43.8623 129.5ZM47.1023 131.5V128.98L47.2023 126.14L47.0023 123.3V116.66H49.4823V131.5H47.1023ZM57.7928 131.64C56.6061 131.64 55.5661 131.407 54.6728 130.94C53.7928 130.46 53.1061 129.807 52.6128 128.98C52.1328 128.153 51.8928 127.213 51.8928 126.16C51.8928 125.093 52.1261 124.153 52.5928 123.34C53.0728 122.513 53.7261 121.867 54.5528 121.4C55.3928 120.933 56.3461 120.7 57.4128 120.7C58.4528 120.7 59.3795 120.927 60.1928 121.38C61.0061 121.833 61.6461 122.473 62.1128 123.3C62.5795 124.127 62.8128 125.1 62.8128 126.22C62.8128 126.327 62.8061 126.447 62.7928 126.58C62.7928 126.713 62.7861 126.84 62.7728 126.96H53.8728V125.3H61.4528L60.4728 125.82C60.4861 125.207 60.3595 124.667 60.0928 124.2C59.8261 123.733 59.4595 123.367 58.9928 123.1C58.5395 122.833 58.0128 122.7 57.4128 122.7C56.7995 122.7 56.2595 122.833 55.7928 123.1C55.3395 123.367 54.9795 123.74 54.7128 124.22C54.4595 124.687 54.3328 125.24 54.3328 125.88V126.28C54.3328 126.92 54.4795 127.487 54.7728 127.98C55.0661 128.473 55.4795 128.853 56.0128 129.12C56.5461 129.387 57.1595 129.52 57.8528 129.52C58.4528 129.52 58.9928 129.427 59.4728 129.24C59.9528 129.053 60.3795 128.76 60.7528 128.36L62.0928 129.9C61.6128 130.46 61.0061 130.893 60.2728 131.2C59.5528 131.493 58.7261 131.64 57.7928 131.64ZM71.2742 120.7C72.1276 120.7 72.8876 120.867 73.5542 121.2C74.2342 121.533 74.7676 122.047 75.1542 122.74C75.5409 123.42 75.7342 124.3 75.7342 125.38V131.5H73.2342V125.7C73.2342 124.753 73.0076 124.047 72.5542 123.58C72.1142 123.113 71.4942 122.88 70.6942 122.88C70.1076 122.88 69.5876 123 69.1342 123.24C68.6809 123.48 68.3276 123.84 68.0742 124.32C67.8342 124.787 67.7142 125.38 67.7142 126.1V131.5H65.2142V120.82H67.5942V123.7L67.1742 122.82C67.5476 122.14 68.0876 121.62 68.7942 121.26C69.5142 120.887 70.3409 120.7 71.2742 120.7ZM82.9256 131.64C81.7523 131.64 80.8456 131.34 80.2056 130.74C79.5656 130.127 79.2456 129.227 79.2456 128.04V118.46H81.7456V127.98C81.7456 128.487 81.8723 128.88 82.1256 129.16C82.3923 129.44 82.759 129.58 83.2256 129.58C83.7856 129.58 84.2523 129.433 84.6256 129.14L85.3256 130.92C85.0323 131.16 84.6723 131.34 84.2456 131.46C83.819 131.58 83.379 131.64 82.9256 131.64ZM77.4856 122.9V120.9H84.6056V122.9H77.4856ZM93.1495 131.5V117.5H95.7495V129.3H103.07V131.5H93.1495ZM104.882 131.5V120.82H107.382V131.5H104.882ZM106.142 119.06C105.676 119.06 105.289 118.913 104.982 118.62C104.689 118.327 104.542 117.973 104.542 117.56C104.542 117.133 104.689 116.78 104.982 116.5C105.289 116.207 105.676 116.06 106.142 116.06C106.609 116.06 106.989 116.2 107.282 116.48C107.589 116.747 107.742 117.087 107.742 117.5C107.742 117.94 107.596 118.313 107.302 118.62C107.009 118.913 106.622 119.06 106.142 119.06ZM115.503 135.52C114.517 135.52 113.55 135.387 112.603 135.12C111.67 134.867 110.903 134.493 110.303 134L111.423 132.12C111.89 132.507 112.477 132.813 113.183 133.04C113.903 133.28 114.63 133.4 115.363 133.4C116.537 133.4 117.397 133.127 117.943 132.58C118.49 132.047 118.763 131.24 118.763 130.16V128.26L118.963 125.84L118.883 123.42V120.82H121.263V129.88C121.263 131.813 120.77 133.233 119.783 134.14C118.797 135.06 117.37 135.52 115.503 135.52ZM115.183 131.02C114.17 131.02 113.25 130.807 112.423 130.38C111.61 129.94 110.963 129.333 110.483 128.56C110.017 127.787 109.783 126.88 109.783 125.84C109.783 124.813 110.017 123.913 110.483 123.14C110.963 122.367 111.61 121.767 112.423 121.34C113.25 120.913 114.17 120.7 115.183 120.7C116.09 120.7 116.903 120.88 117.623 121.24C118.343 121.6 118.917 122.16 119.343 122.92C119.783 123.68 120.003 124.653 120.003 125.84C120.003 127.027 119.783 128.007 119.343 128.78C118.917 129.54 118.343 130.107 117.623 130.48C116.903 130.84 116.09 131.02 115.183 131.02ZM115.563 128.9C116.19 128.9 116.75 128.773 117.243 128.52C117.737 128.253 118.117 127.893 118.383 127.44C118.663 126.973 118.803 126.44 118.803 125.84C118.803 125.24 118.663 124.713 118.383 124.26C118.117 123.793 117.737 123.44 117.243 123.2C116.75 122.947 116.19 122.82 115.563 122.82C114.937 122.82 114.37 122.947 113.863 123.2C113.37 123.44 112.983 123.793 112.703 124.26C112.437 124.713 112.303 125.24 112.303 125.84C112.303 126.44 112.437 126.973 112.703 127.44C112.983 127.893 113.37 128.253 113.863 128.52C114.37 128.773 114.937 128.9 115.563 128.9ZM130.61 120.7C131.463 120.7 132.223 120.867 132.89 121.2C133.57 121.533 134.103 122.047 134.49 122.74C134.877 123.42 135.07 124.3 135.07 125.38V131.5H132.57V125.7C132.57 124.753 132.343 124.047 131.89 123.58C131.45 123.113 130.83 122.88 130.03 122.88C129.443 122.88 128.923 123 128.47 123.24C128.017 123.48 127.663 123.84 127.41 124.32C127.17 124.787 127.05 125.38 127.05 126.1V131.5H124.55V116.66H127.05V123.7L126.51 122.82C126.883 122.14 127.423 121.62 128.13 121.26C128.85 120.887 129.677 120.7 130.61 120.7ZM142.262 131.64C141.088 131.64 140.182 131.34 139.542 130.74C138.902 130.127 138.582 129.227 138.582 128.04V118.46H141.082V127.98C141.082 128.487 141.208 128.88 141.462 129.16C141.728 129.44 142.095 129.58 142.562 129.58C143.122 129.58 143.588 129.433 143.962 129.14L144.662 130.92C144.368 131.16 144.008 131.34 143.582 131.46C143.155 131.58 142.715 131.64 142.262 131.64ZM136.822 122.9V120.9H143.942V122.9H136.822ZM152.485 131.5V117.5H158.245C159.485 117.5 160.545 117.7 161.425 118.1C162.319 118.5 163.005 119.073 163.485 119.82C163.965 120.567 164.205 121.453 164.205 122.48C164.205 123.507 163.965 124.393 163.485 125.14C163.005 125.873 162.319 126.44 161.425 126.84C160.545 127.227 159.485 127.42 158.245 127.42H153.925L155.085 126.24V131.5H152.485ZM161.645 131.5L158.105 126.42H160.885L164.445 131.5H161.645ZM155.085 126.52L153.925 125.28H158.125C159.272 125.28 160.132 125.033 160.705 124.54C161.292 124.047 161.585 123.36 161.585 122.48C161.585 121.587 161.292 120.9 160.705 120.42C160.132 119.94 159.272 119.7 158.125 119.7H153.925L155.085 118.42V126.52ZM173.357 131.5V129.34L173.217 128.88V125.1C173.217 124.367 172.997 123.8 172.557 123.4C172.117 122.987 171.45 122.78 170.557 122.78C169.957 122.78 169.363 122.873 168.777 123.06C168.203 123.247 167.717 123.507 167.317 123.84L166.337 122.02C166.91 121.58 167.59 121.253 168.377 121.04C169.177 120.813 170.003 120.7 170.857 120.7C172.403 120.7 173.597 121.073 174.437 121.82C175.29 122.553 175.717 123.693 175.717 125.24V131.5H173.357ZM169.997 131.64C169.197 131.64 168.497 131.507 167.897 131.24C167.297 130.96 166.83 130.58 166.497 130.1C166.177 129.607 166.017 129.053 166.017 128.44C166.017 127.84 166.157 127.3 166.437 126.82C166.73 126.34 167.203 125.96 167.857 125.68C168.51 125.4 169.377 125.26 170.457 125.26H173.557V126.92H170.637C169.783 126.92 169.21 127.06 168.917 127.34C168.623 127.607 168.477 127.94 168.477 128.34C168.477 128.793 168.657 129.153 169.017 129.42C169.377 129.687 169.877 129.82 170.517 129.82C171.13 129.82 171.677 129.68 172.157 129.4C172.65 129.12 173.003 128.707 173.217 128.16L173.637 129.66C173.397 130.287 172.963 130.773 172.337 131.12C171.723 131.467 170.943 131.64 169.997 131.64ZM179.61 135.52C179.09 135.52 178.57 135.433 178.05 135.26C177.53 135.087 177.097 134.847 176.75 134.54L177.75 132.7C178.003 132.927 178.29 133.107 178.61 133.24C178.93 133.373 179.257 133.44 179.59 133.44C180.043 133.44 180.41 133.327 180.69 133.1C180.97 132.873 181.23 132.493 181.47 131.96L182.09 130.56L182.29 130.26L186.33 120.82H188.73L183.73 132.36C183.397 133.16 183.023 133.793 182.61 134.26C182.21 134.727 181.757 135.053 181.25 135.24C180.757 135.427 180.21 135.52 179.61 135.52ZM181.81 131.88L176.99 120.82H179.59L183.51 130.04L181.81 131.88ZM193.456 131.64C192.562 131.64 191.702 131.527 190.876 131.3C190.062 131.06 189.416 130.773 188.936 130.44L189.896 128.54C190.376 128.847 190.949 129.1 191.616 129.3C192.282 129.5 192.949 129.6 193.616 129.6C194.402 129.6 194.969 129.493 195.316 129.28C195.676 129.067 195.856 128.78 195.856 128.42C195.856 128.127 195.736 127.907 195.496 127.76C195.256 127.6 194.942 127.48 194.556 127.4C194.169 127.32 193.736 127.247 193.256 127.18C192.789 127.113 192.316 127.027 191.836 126.92C191.369 126.8 190.942 126.633 190.556 126.42C190.169 126.193 189.856 125.893 189.616 125.52C189.376 125.147 189.256 124.653 189.256 124.04C189.256 123.36 189.449 122.773 189.836 122.28C190.222 121.773 190.762 121.387 191.456 121.12C192.162 120.84 192.996 120.7 193.956 120.7C194.676 120.7 195.402 120.78 196.136 120.94C196.869 121.1 197.476 121.327 197.956 121.62L196.996 123.52C196.489 123.213 195.976 123.007 195.456 122.9C194.949 122.78 194.442 122.72 193.936 122.72C193.176 122.72 192.609 122.833 192.236 123.06C191.876 123.287 191.696 123.573 191.696 123.92C191.696 124.24 191.816 124.48 192.056 124.64C192.296 124.8 192.609 124.927 192.996 125.02C193.382 125.113 193.809 125.193 194.276 125.26C194.756 125.313 195.229 125.4 195.696 125.52C196.162 125.64 196.589 125.807 196.976 126.02C197.376 126.22 197.696 126.507 197.936 126.88C198.176 127.253 198.296 127.74 198.296 128.34C198.296 129.007 198.096 129.587 197.696 130.08C197.309 130.573 196.756 130.96 196.036 131.24C195.316 131.507 194.456 131.64 193.456 131.64Z" fill="black"/>
<path d="M209 158L208.621 158.926L209.087 159.116L209.518 158.855L209 158ZM280.971 115.239C281.103 114.702 280.775 114.161 280.239 114.029L271.498 111.882C270.962 111.75 270.42 112.078 270.289 112.615C270.157 113.151 270.485 113.693 271.021 113.824L278.79 115.733L276.882 123.502C276.75 124.038 277.078 124.58 277.615 124.711C278.151 124.843 278.693 124.515 278.824 123.979L280.971 115.239ZM164.621 140.926L208.621 158.926L209.379 157.074L165.379 139.074L164.621 140.926ZM209.518 158.855L280.518 115.855L279.482 114.145L208.482 157.145L209.518 158.855Z" fill="black"/>
<path d="M349.88 364V350H355.64C356.88 350 357.94 350.2 358.82 350.6C359.713 351 360.4 351.573 360.88 352.32C361.36 353.067 361.6 353.953 361.6 354.98C361.6 356.007 361.36 356.893 360.88 357.64C360.4 358.373 359.713 358.94 358.82 359.34C357.94 359.727 356.88 359.92 355.64 359.92H351.32L352.48 358.74V364H349.88ZM359.04 364L355.5 358.92H358.28L361.84 364H359.04ZM352.48 359.02L351.32 357.78H355.52C356.667 357.78 357.527 357.533 358.1 357.04C358.687 356.547 358.98 355.86 358.98 354.98C358.98 354.087 358.687 353.4 358.1 352.92C357.527 352.44 356.667 352.2 355.52 352.2H351.32L352.48 350.92V359.02ZM369.289 364.14C368.102 364.14 367.062 363.907 366.169 363.44C365.289 362.96 364.602 362.307 364.109 361.48C363.629 360.653 363.389 359.713 363.389 358.66C363.389 357.593 363.622 356.653 364.089 355.84C364.569 355.013 365.222 354.367 366.049 353.9C366.889 353.433 367.842 353.2 368.909 353.2C369.949 353.2 370.876 353.427 371.689 353.88C372.502 354.333 373.142 354.973 373.609 355.8C374.076 356.627 374.309 357.6 374.309 358.72C374.309 358.827 374.302 358.947 374.289 359.08C374.289 359.213 374.282 359.34 374.269 359.46H365.369V357.8H372.949L371.969 358.32C371.982 357.707 371.856 357.167 371.589 356.7C371.322 356.233 370.956 355.867 370.489 355.6C370.036 355.333 369.509 355.2 368.909 355.2C368.296 355.2 367.756 355.333 367.289 355.6C366.836 355.867 366.476 356.24 366.209 356.72C365.956 357.187 365.829 357.74 365.829 358.38V358.78C365.829 359.42 365.976 359.987 366.269 360.48C366.562 360.973 366.976 361.353 367.509 361.62C368.042 361.887 368.656 362.02 369.349 362.02C369.949 362.02 370.489 361.927 370.969 361.74C371.449 361.553 371.876 361.26 372.249 360.86L373.589 362.4C373.109 362.96 372.502 363.393 371.769 363.7C371.049 363.993 370.222 364.14 369.289 364.14ZM377.05 364V352.72C377.05 351.6 377.377 350.707 378.03 350.04C378.697 349.36 379.644 349.02 380.87 349.02C381.31 349.02 381.724 349.067 382.11 349.16C382.51 349.253 382.844 349.4 383.11 349.6L382.43 351.48C382.244 351.333 382.03 351.227 381.79 351.16C381.55 351.08 381.304 351.04 381.05 351.04C380.53 351.04 380.137 351.187 379.87 351.48C379.604 351.76 379.47 352.187 379.47 352.76V353.96L379.55 355.08V364H377.05ZM375.29 355.4V353.4H382.41V355.4H375.29ZM384.17 364V349.16H386.67V364H384.17ZM394.973 364.14C393.786 364.14 392.746 363.907 391.853 363.44C390.973 362.96 390.286 362.307 389.793 361.48C389.313 360.653 389.073 359.713 389.073 358.66C389.073 357.593 389.306 356.653 389.773 355.84C390.253 355.013 390.906 354.367 391.733 353.9C392.573 353.433 393.526 353.2 394.593 353.2C395.633 353.2 396.559 353.427 397.373 353.88C398.186 354.333 398.826 354.973 399.293 355.8C399.759 356.627 399.993 357.6 399.993 358.72C399.993 358.827 399.986 358.947 399.973 359.08C399.973 359.213 399.966 359.34 399.953 359.46H391.053V357.8H398.633L397.653 358.32C397.666 357.707 397.539 357.167 397.273 356.7C397.006 356.233 396.639 355.867 396.173 355.6C395.719 355.333 395.193 355.2 394.593 355.2C393.979 355.2 393.439 355.333 392.973 355.6C392.519 355.867 392.159 356.24 391.893 356.72C391.639 357.187 391.513 357.74 391.513 358.38V358.78C391.513 359.42 391.659 359.987 391.953 360.48C392.246 360.973 392.659 361.353 393.193 361.62C393.726 361.887 394.339 362.02 395.033 362.02C395.633 362.02 396.173 361.927 396.653 361.74C397.133 361.553 397.559 361.26 397.933 360.86L399.273 362.4C398.793 362.96 398.186 363.393 397.453 363.7C396.733 363.993 395.906 364.14 394.973 364.14ZM407.294 364.14C406.174 364.14 405.174 363.907 404.294 363.44C403.427 362.96 402.747 362.307 402.254 361.48C401.761 360.653 401.514 359.713 401.514 358.66C401.514 357.593 401.761 356.653 402.254 355.84C402.747 355.013 403.427 354.367 404.294 353.9C405.174 353.433 406.174 353.2 407.294 353.2C408.334 353.2 409.247 353.413 410.034 353.84C410.834 354.253 411.441 354.867 411.854 355.68L409.934 356.8C409.614 356.293 409.221 355.92 408.754 355.68C408.301 355.44 407.807 355.32 407.274 355.32C406.661 355.32 406.107 355.453 405.614 355.72C405.121 355.987 404.734 356.373 404.454 356.88C404.174 357.373 404.034 357.967 404.034 358.66C404.034 359.353 404.174 359.953 404.454 360.46C404.734 360.953 405.121 361.333 405.614 361.6C406.107 361.867 406.661 362 407.274 362C407.807 362 408.301 361.88 408.754 361.64C409.221 361.4 409.614 361.027 409.934 360.52L411.854 361.64C411.441 362.44 410.834 363.06 410.034 363.5C409.247 363.927 408.334 364.14 407.294 364.14ZM418.172 364.14C416.998 364.14 416.092 363.84 415.452 363.24C414.812 362.627 414.492 361.727 414.492 360.54V350.96H416.992V360.48C416.992 360.987 417.118 361.38 417.372 361.66C417.638 361.94 418.005 362.08 418.472 362.08C419.032 362.08 419.498 361.933 419.872 361.64L420.572 363.42C420.278 363.66 419.918 363.84 419.492 363.96C419.065 364.08 418.625 364.14 418.172 364.14ZM412.732 355.4V353.4H419.852V355.4H412.732ZM427.297 364.14C426.11 364.14 425.07 363.907 424.177 363.44C423.297 362.96 422.61 362.307 422.117 361.48C421.637 360.653 421.397 359.713 421.397 358.66C421.397 357.593 421.63 356.653 422.097 355.84C422.577 355.013 423.23 354.367 424.057 353.9C424.897 353.433 425.85 353.2 426.917 353.2C427.957 353.2 428.883 353.427 429.697 353.88C430.51 354.333 431.15 354.973 431.617 355.8C432.083 356.627 432.317 357.6 432.317 358.72C432.317 358.827 432.31 358.947 432.297 359.08C432.297 359.213 432.29 359.34 432.277 359.46H423.377V357.8H430.957L429.977 358.32C429.99 357.707 429.863 357.167 429.597 356.7C429.33 356.233 428.963 355.867 428.497 355.6C428.043 355.333 427.517 355.2 426.917 355.2C426.303 355.2 425.763 355.333 425.297 355.6C424.843 355.867 424.483 356.24 424.217 356.72C423.963 357.187 423.837 357.74 423.837 358.38V358.78C423.837 359.42 423.983 359.987 424.277 360.48C424.57 360.973 424.983 361.353 425.517 361.62C426.05 361.887 426.663 362.02 427.357 362.02C427.957 362.02 428.497 361.927 428.977 361.74C429.457 361.553 429.883 361.26 430.257 360.86L431.597 362.4C431.117 362.96 430.51 363.393 429.777 363.7C429.057 363.993 428.23 364.14 427.297 364.14ZM439.238 364.14C438.211 364.14 437.285 363.913 436.458 363.46C435.645 362.993 435.005 362.353 434.538 361.54C434.071 360.727 433.838 359.767 433.838 358.66C433.838 357.553 434.071 356.593 434.538 355.78C435.005 354.967 435.645 354.333 436.458 353.88C437.285 353.427 438.211 353.2 439.238 353.2C440.131 353.2 440.931 353.4 441.638 353.8C442.345 354.187 442.905 354.78 443.318 355.58C443.731 356.38 443.938 357.407 443.938 358.66C443.938 359.9 443.738 360.927 443.338 361.74C442.938 362.54 442.385 363.14 441.678 363.54C440.971 363.94 440.158 364.14 439.238 364.14ZM439.538 362C440.138 362 440.671 361.867 441.138 361.6C441.618 361.333 441.998 360.947 442.278 360.44C442.571 359.933 442.718 359.34 442.718 358.66C442.718 357.967 442.571 357.373 442.278 356.88C441.998 356.373 441.618 355.987 441.138 355.72C440.671 355.453 440.138 355.32 439.538 355.32C438.938 355.32 438.398 355.453 437.918 355.72C437.451 355.987 437.071 356.373 436.778 356.88C436.498 357.373 436.358 357.967 436.358 358.66C436.358 359.34 436.498 359.933 436.778 360.44C437.071 360.947 437.451 361.333 437.918 361.6C438.398 361.867 438.938 362 439.538 362ZM442.778 364V361.48L442.878 358.64L442.678 355.8V349.16H445.158V364H442.778ZM454.216 364V350H456.816V361.8H464.136V364H454.216ZM465.949 364V353.32H468.449V364H465.949ZM467.209 351.56C466.742 351.56 466.355 351.413 466.049 351.12C465.755 350.827 465.609 350.473 465.609 350.06C465.609 349.633 465.755 349.28 466.049 349C466.355 348.707 466.742 348.56 467.209 348.56C467.675 348.56 468.055 348.7 468.349 348.98C468.655 349.247 468.809 349.587 468.809 350C468.809 350.44 468.662 350.813 468.369 351.12C468.075 351.413 467.689 351.56 467.209 351.56ZM476.57 368.02C475.583 368.02 474.617 367.887 473.67 367.62C472.737 367.367 471.97 366.993 471.37 366.5L472.49 364.62C472.957 365.007 473.543 365.313 474.25 365.54C474.97 365.78 475.697 365.9 476.43 365.9C477.603 365.9 478.463 365.627 479.01 365.08C479.557 364.547 479.83 363.74 479.83 362.66V360.76L480.03 358.34L479.95 355.92V353.32H482.33V362.38C482.33 364.313 481.837 365.733 480.85 366.64C479.863 367.56 478.437 368.02 476.57 368.02ZM476.25 363.52C475.237 363.52 474.317 363.307 473.49 362.88C472.677 362.44 472.03 361.833 471.55 361.06C471.083 360.287 470.85 359.38 470.85 358.34C470.85 357.313 471.083 356.413 471.55 355.64C472.03 354.867 472.677 354.267 473.49 353.84C474.317 353.413 475.237 353.2 476.25 353.2C477.157 353.2 477.97 353.38 478.69 353.74C479.41 354.1 479.983 354.66 480.41 355.42C480.85 356.18 481.07 357.153 481.07 358.34C481.07 359.527 480.85 360.507 480.41 361.28C479.983 362.04 479.41 362.607 478.69 362.98C477.97 363.34 477.157 363.52 476.25 363.52ZM476.63 361.4C477.257 361.4 477.817 361.273 478.31 361.02C478.803 360.753 479.183 360.393 479.45 359.94C479.73 359.473 479.87 358.94 479.87 358.34C479.87 357.74 479.73 357.213 479.45 356.76C479.183 356.293 478.803 355.94 478.31 355.7C477.817 355.447 477.257 355.32 476.63 355.32C476.003 355.32 475.437 355.447 474.93 355.7C474.437 355.94 474.05 356.293 473.77 356.76C473.503 357.213 473.37 357.74 473.37 358.34C473.37 358.94 473.503 359.473 473.77 359.94C474.05 360.393 474.437 360.753 474.93 361.02C475.437 361.273 476.003 361.4 476.63 361.4ZM491.677 353.2C492.53 353.2 493.29 353.367 493.957 353.7C494.637 354.033 495.17 354.547 495.557 355.24C495.943 355.92 496.137 356.8 496.137 357.88V364H493.637V358.2C493.637 357.253 493.41 356.547 492.957 356.08C492.517 355.613 491.897 355.38 491.097 355.38C490.51 355.38 489.99 355.5 489.537 355.74C489.083 355.98 488.73 356.34 488.477 356.82C488.237 357.287 488.117 357.88 488.117 358.6V364H485.617V349.16H488.117V356.2L487.577 355.32C487.95 354.64 488.49 354.12 489.197 353.76C489.917 353.387 490.743 353.2 491.677 353.2ZM503.328 364.14C502.155 364.14 501.248 363.84 500.608 363.24C499.968 362.627 499.648 361.727 499.648 360.54V350.96H502.148V360.48C502.148 360.987 502.275 361.38 502.528 361.66C502.795 361.94 503.161 362.08 503.628 362.08C504.188 362.08 504.655 361.933 505.028 361.64L505.728 363.42C505.435 363.66 505.075 363.84 504.648 363.96C504.221 364.08 503.781 364.14 503.328 364.14ZM497.888 355.4V353.4H505.008V355.4H497.888ZM513.552 364V350H519.312C520.552 350 521.612 350.2 522.492 350.6C523.385 351 524.072 351.573 524.552 352.32C525.032 353.067 525.272 353.953 525.272 354.98C525.272 356.007 525.032 356.893 524.552 357.64C524.072 358.373 523.385 358.94 522.492 359.34C521.612 359.727 520.552 359.92 519.312 359.92H514.992L516.152 358.74V364H513.552ZM522.712 364L519.172 358.92H521.952L525.512 364H522.712ZM516.152 359.02L514.992 357.78H519.192C520.339 357.78 521.199 357.533 521.772 357.04C522.359 356.547 522.652 355.86 522.652 354.98C522.652 354.087 522.359 353.4 521.772 352.92C521.199 352.44 520.339 352.2 519.192 352.2H514.992L516.152 350.92V359.02ZM534.423 364V361.84L534.283 361.38V357.6C534.283 356.867 534.063 356.3 533.623 355.9C533.183 355.487 532.516 355.28 531.623 355.28C531.023 355.28 530.43 355.373 529.843 355.56C529.27 355.747 528.783 356.007 528.383 356.34L527.403 354.52C527.976 354.08 528.656 353.753 529.443 353.54C530.243 353.313 531.07 353.2 531.923 353.2C533.47 353.2 534.663 353.573 535.503 354.32C536.356 355.053 536.783 356.193 536.783 357.74V364H534.423ZM531.063 364.14C530.263 364.14 529.563 364.007 528.963 363.74C528.363 363.46 527.896 363.08 527.563 362.6C527.243 362.107 527.083 361.553 527.083 360.94C527.083 360.34 527.223 359.8 527.503 359.32C527.796 358.84 528.27 358.46 528.923 358.18C529.576 357.9 530.443 357.76 531.523 357.76H534.623V359.42H531.703C530.85 359.42 530.276 359.56 529.983 359.84C529.69 360.107 529.543 360.44 529.543 360.84C529.543 361.293 529.723 361.653 530.083 361.92C530.443 362.187 530.943 362.32 531.583 362.32C532.196 362.32 532.743 362.18 533.223 361.9C533.716 361.62 534.07 361.207 534.283 360.66L534.703 362.16C534.463 362.787 534.03 363.273 533.403 363.62C532.79 363.967 532.01 364.14 531.063 364.14ZM540.676 368.02C540.156 368.02 539.636 367.933 539.116 367.76C538.596 367.587 538.163 367.347 537.816 367.04L538.816 365.2C539.07 365.427 539.356 365.607 539.676 365.74C539.996 365.873 540.323 365.94 540.656 365.94C541.11 365.94 541.476 365.827 541.756 365.6C542.036 365.373 542.296 364.993 542.536 364.46L543.156 363.06L543.356 362.76L547.396 353.32H549.796L544.796 364.86C544.463 365.66 544.09 366.293 543.676 366.76C543.276 367.227 542.823 367.553 542.316 367.74C541.823 367.927 541.276 368.02 540.676 368.02ZM542.876 364.38L538.056 353.32H540.656L544.576 362.54L542.876 364.38ZM554.522 364.14C553.629 364.14 552.769 364.027 551.942 363.8C551.129 363.56 550.482 363.273 550.002 362.94L550.962 361.04C551.442 361.347 552.015 361.6 552.682 361.8C553.349 362 554.015 362.1 554.682 362.1C555.469 362.1 556.035 361.993 556.382 361.78C556.742 361.567 556.922 361.28 556.922 360.92C556.922 360.627 556.802 360.407 556.562 360.26C556.322 360.1 556.009 359.98 555.622 359.9C555.235 359.82 554.802 359.747 554.322 359.68C553.855 359.613 553.382 359.527 552.902 359.42C552.435 359.3 552.009 359.133 551.622 358.92C551.235 358.693 550.922 358.393 550.682 358.02C550.442 357.647 550.322 357.153 550.322 356.54C550.322 355.86 550.515 355.273 550.902 354.78C551.289 354.273 551.829 353.887 552.522 353.62C553.229 353.34 554.062 353.2 555.022 353.2C555.742 353.2 556.469 353.28 557.202 353.44C557.935 353.6 558.542 353.827 559.022 354.12L558.062 356.02C557.555 355.713 557.042 355.507 556.522 355.4C556.015 355.28 555.509 355.22 555.002 355.22C554.242 355.22 553.675 355.333 553.302 355.56C552.942 355.787 552.762 356.073 552.762 356.42C552.762 356.74 552.882 356.98 553.122 357.14C553.362 357.3 553.675 357.427 554.062 357.52C554.449 357.613 554.875 357.693 555.342 357.76C555.822 357.813 556.295 357.9 556.762 358.02C557.229 358.14 557.655 358.307 558.042 358.52C558.442 358.72 558.762 359.007 559.002 359.38C559.242 359.753 559.362 360.24 559.362 360.84C559.362 361.507 559.162 362.087 558.762 362.58C558.375 363.073 557.822 363.46 557.102 363.74C556.382 364.007 555.522 364.14 554.522 364.14Z" fill="black"/>
<path d="M512 311L512.75 311.662L513.426 310.895L512.645 310.236L512 311ZM466.916 272.004C466.366 272.05 465.957 272.534 466.004 273.084L466.76 282.052C466.806 282.603 467.29 283.011 467.84 282.965C468.391 282.918 468.799 282.434 468.753 281.884L468.081 273.912L476.052 273.24C476.603 273.194 477.011 272.71 476.965 272.16C476.918 271.609 476.434 271.201 475.884 271.247L466.916 272.004ZM482.75 345.662L512.75 311.662L511.25 310.338L481.25 344.338L482.75 345.662ZM512.645 310.236L467.645 272.236L466.355 273.764L511.355 311.764L512.645 310.236Z" fill="black"/>
<path d="M645 333L644.033 332.744L643.81 333.586L644.614 333.923L645 333ZM658.865 283.498C658.587 283.02 657.975 282.858 657.498 283.135L649.715 287.654C649.237 287.932 649.075 288.544 649.352 289.021C649.629 289.499 650.241 289.661 650.719 289.384L657.637 285.367L661.654 292.285C661.932 292.763 662.544 292.925 663.021 292.648C663.499 292.371 663.661 291.759 663.384 291.281L658.865 283.498ZM700.386 355.077L645.386 332.077L644.614 333.923L699.614 356.923L700.386 355.077ZM645.967 333.256L658.967 284.256L657.033 283.744L644.033 332.744L645.967 333.256Z" fill="black"/>
</svg>
