<svg width="486" height="280" viewBox="0 0 486 280" fill="none" xmlns="http://www.w3.org/2000/svg">
<path d="M29.3818 57.6108L257.618 228.027L480 57.6108" stroke="#FA6C32" stroke-width="4"/>
<path d="M177.735 169.446L208.167 135.211L257 118L297.94 135.211L331 169.446" stroke="#FA6C32" stroke-width="4"/>
<path d="M257.618 228.027L257.618 3.99951" stroke="#FA6C32" stroke-width="4"/>
<path d="M485.855 231.922H11.123" stroke="#FA6C32" stroke-width="4"/>
<path d="M472.161 232.592L450.098 279" stroke="#FA6C32" stroke-width="4"/>
<path d="M452.684 232.592L430.621 279" stroke="#FA6C32" stroke-width="4"/>
<path d="M433.208 232.592L411.145 279" stroke="#FA6C32" stroke-width="4"/>
<path d="M413.732 232.592L391.669 279" stroke="#FA6C32" stroke-width="4"/>
<path d="M394.256 232.592L372.193 279" stroke="#FA6C32" stroke-width="4"/>
<path d="M374.78 232.592L352.717 279" stroke="#FA6C32" stroke-width="4"/>
<path d="M355.304 232.592L333.241 279" stroke="#FA6C32" stroke-width="4"/>
<path d="M335.827 232.592L313.764 279" stroke="#FA6C32" stroke-width="4"/>
<path d="M316.351 232.592L294.288 279" stroke="#FA6C32" stroke-width="4"/>
<path d="M296.875 232.592L274.812 279" stroke="#FA6C32" stroke-width="4"/>
<path d="M277.399 232.592L255.336 279" stroke="#FA6C32" stroke-width="4"/>
<path d="M257.923 232.592L235.86 279" stroke="#FA6C32" stroke-width="4"/>
<path d="M238.446 232.592L216.384 279" stroke="#FA6C32" stroke-width="4"/>
<path d="M218.97 232.592L196.907 279" stroke="#FA6C32" stroke-width="4"/>
<path d="M199.494 232.592L177.431 279" stroke="#FA6C32" stroke-width="4"/>
<path d="M180.018 232.592L157.955 279" stroke="#FA6C32" stroke-width="4"/>
<path d="M160.542 232.592L138.479 279" stroke="#FA6C32" stroke-width="4"/>
<path d="M141.066 232.592L119.003 279" stroke="#FA6C32" stroke-width="4"/>
<path d="M121.589 232.592L99.5266 279" stroke="#FA6C32" stroke-width="4"/>
<path d="M102.113 232.592L80.0503 279" stroke="#FA6C32" stroke-width="4"/>
<path d="M82.6371 232.592L60.5742 279" stroke="#FA6C32" stroke-width="4"/>
<path d="M63.161 232.592L41.0981 279" stroke="#FA6C32" stroke-width="4"/>
<path d="M43.6847 232.592L21.6218 279" stroke="#FA6C32" stroke-width="4"/>
<path d="M24.2086 232.592L2.14575 279" stroke="#FA6C32" stroke-width="4"/>
<path d="M29.7168 57.1846V93.7024" stroke="#FA6C32" stroke-width="4"/>
<path d="M29.7168 57.1845L66.2346 50.3374" stroke="#FA6C32" stroke-width="4"/>
<path d="M258.156 4.91455L229.357 27.3676" stroke="#FA6C32" stroke-width="4"/>
<path d="M258.156 4.91454L286.009 29.5041" stroke="#FA6C32" stroke-width="4"/>
<path d="M479.185 58.6035L443.615 50.3375" stroke="#FA6C32" stroke-width="4"/>
<path d="M479.185 58.6034L477.588 95.7233" stroke="#FA6C32" stroke-width="4"/>
</svg>
