<svg width="635" height="442" viewBox="0 0 635 442" fill="none" xmlns="http://www.w3.org/2000/svg">
<path d="M135.526 216.485L160.308 227.804" stroke="#FA6C32" stroke-width="4"/>
<path d="M135.526 216.486L142.198 189.582" stroke="#FA6C32" stroke-width="4"/>
<path d="M245.391 336.782L271.604 344.208" stroke="#FA6C32" stroke-width="4"/>
<path d="M245.391 336.782L247.902 309.177" stroke="#FA6C32" stroke-width="4"/>
<path d="M224.906 91.7676L221.48 64.7395" stroke="#FA6C32" stroke-width="4"/>
<path d="M224.906 91.7672L198.52 100.26" stroke="#FA6C32" stroke-width="4"/>
<path d="M287.844 78.7847L281.263 52.3473" stroke="#FA6C32" stroke-width="4"/>
<path d="M287.845 78.7847L262.641 90.3232" stroke="#FA6C32" stroke-width="4"/>
<path d="M405 0V336" stroke="#FA6C32" stroke-width="4"/>
<path d="M98 16L403 118L118 222" stroke="#FA6C32" stroke-width="4"/>
<path d="M98 16L403 196L219 360" stroke="#FA6C32" stroke-width="4"/>
<path d="M405 119H170" stroke="#FA6C32" stroke-width="2"/>
<path d="M405 196H210" stroke="#FA6C32" stroke-width="2"/>
<path d="M405 117.5L425 109.5" stroke="#FA6C32" stroke-width="4"/>
<path d="M438 103.5L458 95.5" stroke="#FA6C32" stroke-width="4"/>
<path d="M471 89.5L491 81.5" stroke="#FA6C32" stroke-width="4"/>
<path d="M504 75.5L524 67.5" stroke="#FA6C32" stroke-width="4"/>
<path d="M537 61.5L557 53.5" stroke="#FA6C32" stroke-width="4"/>
<path d="M570 47.5L590 39.5" stroke="#FA6C32" stroke-width="4"/>
<path d="M405 194.5L420 181" stroke="#FA6C32" stroke-width="4"/>
<path d="M428 173.5L443 160" stroke="#FA6C32" stroke-width="4"/>
<path d="M451 152.5L466 139" stroke="#FA6C32" stroke-width="4"/>
<path d="M474 131.5L489 118" stroke="#FA6C32" stroke-width="4"/>
<path d="M497 110.5L512 97" stroke="#FA6C32" stroke-width="4"/>
<path d="M520 89.5L535 76" stroke="#FA6C32" stroke-width="4"/>
<path d="M543 68.5L558 55" stroke="#FA6C32" stroke-width="4"/>
<path d="M566 47.5L581 34" stroke="#FA6C32" stroke-width="4"/>
<path d="M589 26.5L604 13" stroke="#FA6C32" stroke-width="4"/>
<path d="M405 8.5L421.5 19" stroke="#FA6C32" stroke-width="4"/>
<path d="M405 28.5L421.5 39" stroke="#FA6C32" stroke-width="4"/>
<path d="M405 48.5L421.5 59" stroke="#FA6C32" stroke-width="4"/>
<path d="M405 68.5L421.5 79" stroke="#FA6C32" stroke-width="4"/>
<path d="M405 88.5L421.5 99" stroke="#FA6C32" stroke-width="4"/>
<path d="M405 108.5L421.5 119" stroke="#FA6C32" stroke-width="4"/>
<path d="M405 128.5L421.5 139" stroke="#FA6C32" stroke-width="4"/>
<path d="M405 148.5L421.5 159" stroke="#FA6C32" stroke-width="4"/>
<path d="M405 168.5L421.5 179" stroke="#FA6C32" stroke-width="4"/>
<path d="M405 188.5L421.5 199" stroke="#FA6C32" stroke-width="4"/>
<path d="M405 208.5L421.5 219" stroke="#FA6C32" stroke-width="4"/>
<path d="M405 228.5L421.5 239" stroke="#FA6C32" stroke-width="4"/>
<path d="M405 248.5L421.5 259" stroke="#FA6C32" stroke-width="4"/>
<path d="M405 268.5L421.5 279" stroke="#FA6C32" stroke-width="4"/>
<path d="M405 288.5L421.5 299" stroke="#FA6C32" stroke-width="4"/>
<path d="M405 308.5L421.5 319" stroke="#FA6C32" stroke-width="4"/>
<path d="M405 328.5L421.5 339" stroke="#FA6C32" stroke-width="4"/>
<path d="M360.75 133.75C351.182 130.594 347.866 127.426 346.5 118.75C343.708 110.325 344.426 106.224 352.5 100.75" stroke="#FA6C32" stroke-width="2"/>
<path d="M382 214C372.787 209.615 368.666 206.463 369 195.75C366.11 188.076 366.351 184.284 375 179.75" stroke="#FA6C32" stroke-width="2"/>
<path d="M324.08 113V104.93H326.42V113H324.08ZM325.25 103.805C324.82 103.805 324.47 103.68 324.2 103.43C323.93 103.18 323.795 102.87 323.795 102.5C323.795 102.13 323.93 101.82 324.2 101.57C324.47 101.32 324.82 101.195 325.25 101.195C325.68 101.195 326.03 101.315 326.3 101.555C326.57 101.785 326.705 102.085 326.705 102.455C326.705 102.845 326.57 103.17 326.3 103.43C326.04 103.68 325.69 103.805 325.25 103.805ZM329.673 113V103.4L330.723 104.45H327.573V102.5H332.103V113H329.673Z" fill="black"/>
<path d="M348.307 190.875V182.805H350.647V190.875H348.307ZM349.477 181.68C349.047 181.68 348.697 181.555 348.427 181.305C348.157 181.055 348.022 180.745 348.022 180.375C348.022 180.005 348.157 179.695 348.427 179.445C348.697 179.195 349.047 179.07 349.477 179.07C349.907 179.07 350.257 179.19 350.527 179.43C350.797 179.66 350.932 179.96 350.932 180.33C350.932 180.72 350.797 181.045 350.527 181.305C350.267 181.555 349.917 181.68 349.477 181.68ZM352.234 190.875V189.3L356.284 185.475C356.604 185.185 356.839 184.925 356.989 184.695C357.139 184.465 357.239 184.255 357.289 184.065C357.349 183.875 357.379 183.7 357.379 183.54C357.379 183.12 357.234 182.8 356.944 182.58C356.664 182.35 356.249 182.235 355.699 182.235C355.259 182.235 354.849 182.32 354.469 182.49C354.099 182.66 353.784 182.925 353.524 183.285L351.754 182.145C352.154 181.545 352.714 181.07 353.434 180.72C354.154 180.37 354.984 180.195 355.924 180.195C356.704 180.195 357.384 180.325 357.964 180.585C358.554 180.835 359.009 181.19 359.329 181.65C359.659 182.11 359.824 182.66 359.824 183.3C359.824 183.64 359.779 183.98 359.689 184.32C359.609 184.65 359.439 185 359.179 185.37C358.929 185.74 358.559 186.155 358.069 186.615L354.709 189.78L354.244 188.895H360.169V190.875H352.234Z" fill="black"/>
<path d="M322.738 135V126.93H324.973V129.21L324.658 128.55C324.898 127.98 325.283 127.55 325.813 127.26C326.343 126.96 326.988 126.81 327.748 126.81V128.97C327.648 128.96 327.558 128.955 327.478 128.955C327.398 128.945 327.313 128.94 327.223 128.94C326.583 128.94 326.063 129.125 325.663 129.495C325.273 129.855 325.078 130.42 325.078 131.19V135H322.738ZM330.455 135V125.4L331.505 126.45H328.355V124.5H332.885V135H330.455Z" fill="black"/>
<path d="M346.965 212.875V204.805H349.2V207.085L348.885 206.425C349.125 205.855 349.51 205.425 350.04 205.135C350.57 204.835 351.215 204.685 351.975 204.685V206.845C351.875 206.835 351.785 206.83 351.705 206.83C351.625 206.82 351.54 206.815 351.45 206.815C350.81 206.815 350.29 207 349.89 207.37C349.5 207.73 349.305 208.295 349.305 209.065V212.875H346.965ZM352.899 212.875V211.3L356.949 207.475C357.269 207.185 357.504 206.925 357.654 206.695C357.804 206.465 357.904 206.255 357.954 206.065C358.014 205.875 358.044 205.7 358.044 205.54C358.044 205.12 357.899 204.8 357.609 204.58C357.329 204.35 356.914 204.235 356.364 204.235C355.924 204.235 355.514 204.32 355.134 204.49C354.764 204.66 354.449 204.925 354.189 205.285L352.419 204.145C352.819 203.545 353.379 203.07 354.099 202.72C354.819 202.37 355.649 202.195 356.589 202.195C357.369 202.195 358.049 202.325 358.629 202.585C359.219 202.835 359.674 203.19 359.994 203.65C360.324 204.11 360.489 204.66 360.489 205.3C360.489 205.64 360.444 205.98 360.354 206.32C360.274 206.65 360.104 207 359.844 207.37C359.594 207.74 359.224 208.155 358.734 208.615L355.374 211.78L354.909 210.895H360.834V212.875H352.899Z" fill="black"/>
<path d="M84.345 16.18C83.515 16.18 82.745 16.045 82.035 15.775C81.335 15.505 80.725 15.125 80.205 14.635C79.695 14.145 79.295 13.57 79.005 12.91C78.725 12.25 78.585 11.53 78.585 10.75C78.585 9.97 78.725 9.25 79.005 8.59C79.295 7.93 79.7 7.355 80.22 6.865C80.74 6.375 81.35 5.995 82.05 5.725C82.75 5.455 83.51 5.32 84.33 5.32C85.16 5.32 85.92 5.455 86.61 5.725C87.31 5.995 87.915 6.375 88.425 6.865C88.945 7.355 89.35 7.93 89.64 8.59C89.93 9.24 90.075 9.96 90.075 10.75C90.075 11.53 89.93 12.255 89.64 12.925C89.35 13.585 88.945 14.16 88.425 14.65C87.915 15.13 87.31 15.505 86.61 15.775C85.92 16.045 85.165 16.18 84.345 16.18ZM84.33 14.11C84.8 14.11 85.23 14.03 85.62 13.87C86.02 13.71 86.37 13.48 86.67 13.18C86.97 12.88 87.2 12.525 87.36 12.115C87.53 11.705 87.615 11.25 87.615 10.75C87.615 10.25 87.53 9.795 87.36 9.385C87.2 8.975 86.97 8.62 86.67 8.32C86.38 8.02 86.035 7.79 85.635 7.63C85.235 7.47 84.8 7.39 84.33 7.39C83.86 7.39 83.425 7.47 83.025 7.63C82.635 7.79 82.29 8.02 81.99 8.32C81.69 8.62 81.455 8.975 81.285 9.385C81.125 9.795 81.045 10.25 81.045 10.75C81.045 11.24 81.125 11.695 81.285 12.115C81.455 12.525 81.685 12.88 81.975 13.18C82.275 13.48 82.625 13.71 83.025 13.87C83.425 14.03 83.86 14.11 84.33 14.11Z" fill="black"/>
<path d="M555.745 41.75V31.25H558.175V41.75H555.745Z" fill="black"/>
<path d="M388.865 106.5L393.545 96H395.945L400.64 106.5H398.09L394.25 97.23H395.21L391.355 106.5H388.865ZM391.205 104.25L391.85 102.405H397.25L397.91 104.25H391.205Z" fill="black"/>
<path d="M391.245 181.5V171H396.375C397.695 171 398.685 171.25 399.345 171.75C400.015 172.25 400.35 172.91 400.35 173.73C400.35 174.28 400.215 174.76 399.945 175.17C399.675 175.57 399.305 175.88 398.835 176.1C398.365 176.32 397.825 176.43 397.215 176.43L397.5 175.815C398.16 175.815 398.745 175.925 399.255 176.145C399.765 176.355 400.16 176.67 400.44 177.09C400.73 177.51 400.875 178.025 400.875 178.635C400.875 179.535 400.52 180.24 399.81 180.75C399.1 181.25 398.055 181.5 396.675 181.5H391.245ZM393.66 179.67H396.495C397.125 179.67 397.6 179.57 397.92 179.37C398.25 179.16 398.415 178.83 398.415 178.38C398.415 177.94 398.25 177.615 397.92 177.405C397.6 177.185 397.125 177.075 396.495 177.075H393.48V175.305H396.075C396.665 175.305 397.115 175.205 397.425 175.005C397.745 174.795 397.905 174.48 397.905 174.06C397.905 173.65 397.745 173.345 397.425 173.145C397.115 172.935 396.665 172.83 396.075 172.83H393.66V179.67Z" fill="black"/>
<path d="M569.524 60.1483C569.054 59.8589 568.438 60.0055 568.148 60.4759L563.431 68.1408C563.142 68.6112 563.289 69.2271 563.759 69.5166C564.229 69.806 564.845 69.6594 565.135 69.189L569.328 62.3758L576.141 66.5685C576.611 66.858 577.227 66.7113 577.517 66.241C577.806 65.7706 577.659 65.1547 577.189 64.8652L569.524 60.1483ZM584 124L583.027 124.232L583.097 124.527L583.32 124.733L584 124ZM568.027 61.2316L583.027 124.232L584.973 123.768L569.973 60.7684L568.027 61.2316ZM583.32 124.733L597.32 137.733L598.68 136.267L584.68 123.267L583.32 124.733Z" fill="black"/>
<path d="M72.9519 21.3065C73.1212 20.7808 72.8322 20.2174 72.3065 20.0481L63.7398 17.2894C63.2141 17.1201 62.6507 17.409 62.4814 17.9347C62.3121 18.4604 62.601 19.0238 63.1267 19.1931L70.7416 21.6453L68.2894 29.2602C68.1201 29.7859 68.409 30.3493 68.9347 30.5186C69.4604 30.6879 70.0238 30.399 70.1931 29.8733L72.9519 21.3065ZM33 41L32.5437 40.1102L32 40.389V41H33ZM71.5437 20.1102L32.5437 40.1102L33.4563 41.8898L72.4563 21.8898L71.5437 20.1102ZM32 41V73H34V41H32Z" fill="black"/>
<path d="M432.373 307.221C431.943 307.567 431.875 308.196 432.221 308.627L437.86 315.641C438.206 316.071 438.835 316.14 439.266 315.794C439.696 315.448 439.764 314.818 439.418 314.388L434.406 308.153L440.641 303.14C441.071 302.794 441.14 302.165 440.794 301.734C440.448 301.304 439.818 301.236 439.388 301.582L432.373 307.221ZM479 313L479.956 312.708L479.764 312.077L479.108 312.006L479 313ZM432.892 308.994L478.892 313.994L479.108 312.006L433.108 307.006L432.892 308.994ZM478.044 313.292L489.044 349.292L490.956 348.708L479.956 312.708L478.044 313.292Z" fill="black"/>
<path d="M8.94 96.2137C7.84667 96.2137 6.84 96.0337 5.92 95.6737C5 95.3137 4.2 94.8137 3.52 94.1737C2.84 93.5203 2.31333 92.7603 1.94 91.8937C1.56667 91.0137 1.38 90.0537 1.38 89.0137C1.38 87.9737 1.56667 87.0203 1.94 86.1537C2.31333 85.2737 2.84 84.5137 3.52 83.8737C4.2 83.2203 5 82.7137 5.92 82.3537C6.84 81.9937 7.84 81.8137 8.92 81.8137C10.0133 81.8137 11.0133 81.9937 11.92 82.3537C12.84 82.7137 13.64 83.2203 14.32 83.8737C15 84.5137 15.5267 85.2737 15.9 86.1537C16.2733 87.0203 16.46 87.9737 16.46 89.0137C16.46 90.0537 16.2733 91.0137 15.9 91.8937C15.5267 92.7737 15 93.5337 14.32 94.1737C13.64 94.8137 12.84 95.3137 11.92 95.6737C11.0133 96.0337 10.02 96.2137 8.94 96.2137ZM8.92 93.9337C9.62667 93.9337 10.28 93.8137 10.88 93.5737C11.48 93.3337 12 92.9937 12.44 92.5537C12.88 92.1003 13.22 91.5803 13.46 90.9937C13.7133 90.3937 13.84 89.7337 13.84 89.0137C13.84 88.2937 13.7133 87.6403 13.46 87.0537C13.22 86.4537 12.88 85.9337 12.44 85.4937C12 85.0403 11.48 84.6937 10.88 84.4537C10.28 84.2137 9.62667 84.0937 8.92 84.0937C8.21333 84.0937 7.56 84.2137 6.96 84.4537C6.37333 84.6937 5.85333 85.0403 5.4 85.4937C4.96 85.9337 4.61333 86.4537 4.36 87.0537C4.12 87.6403 4 88.2937 4 89.0137C4 89.7203 4.12 90.3737 4.36 90.9737C4.61333 91.5737 4.96 92.1003 5.4 92.5537C5.84 92.9937 6.36 93.3337 6.96 93.5737C7.56 93.8137 8.21333 93.9337 8.92 93.9337ZM24.8959 96.1537C23.9893 96.1537 23.1826 95.9537 22.4759 95.5537C21.7693 95.1537 21.2093 94.5537 20.7959 93.7537C20.3959 92.9403 20.1959 91.9137 20.1959 90.6737C20.1959 89.4203 20.4026 88.3937 20.8159 87.5937C21.2426 86.7937 21.8093 86.2003 22.5159 85.8137C23.2359 85.4137 24.0293 85.2137 24.8959 85.2137C25.9493 85.2137 26.8759 85.4403 27.6759 85.8937C28.4893 86.347 29.1293 86.9803 29.5959 87.7937C30.0759 88.607 30.3159 89.567 30.3159 90.6737C30.3159 91.7803 30.0759 92.7403 29.5959 93.5537C29.1293 94.367 28.4893 95.007 27.6759 95.4737C26.8759 95.927 25.9493 96.1537 24.8959 96.1537ZM18.9759 96.0137V81.1737H21.4759V87.8137L21.2759 90.6537L21.3559 93.4937V96.0137H18.9759ZM24.6159 94.0137C25.2159 94.0137 25.7493 93.8803 26.2159 93.6137C26.6959 93.347 27.0759 92.9603 27.3559 92.4537C27.6359 91.947 27.7759 91.3537 27.7759 90.6737C27.7759 89.9803 27.6359 89.387 27.3559 88.8937C27.0759 88.387 26.6959 88.0003 26.2159 87.7337C25.7493 87.467 25.2159 87.3337 24.6159 87.3337C24.0159 87.3337 23.4759 87.467 22.9959 87.7337C22.5159 88.0003 22.1359 88.387 21.8559 88.8937C21.5759 89.387 21.4359 89.9803 21.4359 90.6737C21.4359 91.3537 21.5759 91.947 21.8559 92.4537C22.1359 92.9603 22.5159 93.347 22.9959 93.6137C23.4759 93.8803 24.0159 94.0137 24.6159 94.0137ZM31.5869 100.034C31.1202 100.034 30.6802 99.9803 30.2669 99.8737C29.8402 99.7803 29.4802 99.627 29.1869 99.4137L29.9069 97.5537C30.2935 97.8337 30.7802 97.9737 31.3669 97.9737C31.8202 97.9737 32.1735 97.827 32.4269 97.5337C32.6802 97.2537 32.8069 96.8337 32.8069 96.2737V85.3337H35.3069V96.2137C35.3069 97.387 34.9802 98.3137 34.3269 98.9937C33.6869 99.687 32.7735 100.034 31.5869 100.034ZM34.0469 83.5737C33.5802 83.5737 33.1935 83.427 32.8869 83.1337C32.5935 82.8403 32.4469 82.487 32.4469 82.0737C32.4469 81.647 32.5935 81.2937 32.8869 81.0137C33.1935 80.7203 33.5802 80.5737 34.0469 80.5737C34.5135 80.5737 34.8935 80.7137 35.1869 80.9937C35.4935 81.2603 35.6469 81.6003 35.6469 82.0137C35.6469 82.4537 35.5002 82.827 35.2069 83.1337C34.9135 83.427 34.5269 83.5737 34.0469 83.5737ZM43.6053 96.1537C42.4186 96.1537 41.3786 95.9203 40.4853 95.4537C39.6053 94.9737 38.9186 94.3203 38.4253 93.4937C37.9453 92.667 37.7053 91.727 37.7053 90.6737C37.7053 89.607 37.9386 88.667 38.4053 87.8537C38.8853 87.027 39.5386 86.3803 40.3653 85.9137C41.2053 85.447 42.1586 85.2137 43.2253 85.2137C44.2653 85.2137 45.192 85.4403 46.0053 85.8937C46.8186 86.347 47.4586 86.987 47.9253 87.8137C48.392 88.6403 48.6253 89.6137 48.6253 90.7337C48.6253 90.8403 48.6186 90.9603 48.6053 91.0937C48.6053 91.227 48.5986 91.3537 48.5853 91.4737H39.6853V89.8137H47.2653L46.2853 90.3337C46.2986 89.7203 46.172 89.1803 45.9053 88.7137C45.6386 88.247 45.272 87.8803 44.8053 87.6137C44.352 87.347 43.8253 87.2137 43.2253 87.2137C42.612 87.2137 42.072 87.347 41.6053 87.6137C41.152 87.8803 40.792 88.2537 40.5253 88.7337C40.272 89.2003 40.1453 89.7537 40.1453 90.3937V90.7937C40.1453 91.4337 40.292 92.0003 40.5853 92.4937C40.8786 92.987 41.292 93.367 41.8253 93.6337C42.3586 93.9003 42.972 94.0337 43.6653 94.0337C44.2653 94.0337 44.8053 93.9403 45.2853 93.7537C45.7653 93.567 46.192 93.2737 46.5653 92.8737L47.9053 94.4137C47.4253 94.9737 46.8186 95.407 46.0853 95.7137C45.3653 96.007 44.5386 96.1537 43.6053 96.1537ZM55.9267 96.1537C54.8067 96.1537 53.8067 95.9203 52.9267 95.4537C52.0601 94.9737 51.3801 94.3203 50.8867 93.4937C50.3934 92.667 50.1467 91.727 50.1467 90.6737C50.1467 89.607 50.3934 88.667 50.8867 87.8537C51.3801 87.027 52.0601 86.3803 52.9267 85.9137C53.8067 85.447 54.8067 85.2137 55.9267 85.2137C56.9667 85.2137 57.8801 85.427 58.6667 85.8537C59.4667 86.267 60.0734 86.8803 60.4867 87.6937L58.5667 88.8137C58.2467 88.307 57.8534 87.9337 57.3867 87.6937C56.9334 87.4537 56.4401 87.3337 55.9067 87.3337C55.2934 87.3337 54.7401 87.467 54.2467 87.7337C53.7534 88.0003 53.3667 88.387 53.0867 88.8937C52.8067 89.387 52.6667 89.9803 52.6667 90.6737C52.6667 91.367 52.8067 91.967 53.0867 92.4737C53.3667 92.967 53.7534 93.347 54.2467 93.6137C54.7401 93.8803 55.2934 94.0137 55.9067 94.0137C56.4401 94.0137 56.9334 93.8937 57.3867 93.6537C57.8534 93.4137 58.2467 93.0403 58.5667 92.5337L60.4867 93.6537C60.0734 94.4537 59.4667 95.0737 58.6667 95.5137C57.8801 95.9403 56.9667 96.1537 55.9267 96.1537ZM66.8045 96.1537C65.6312 96.1537 64.7245 95.8537 64.0845 95.2537C63.4445 94.6403 63.1245 93.7403 63.1245 92.5537V82.9737H65.6245V92.4937C65.6245 93.0003 65.7512 93.3937 66.0045 93.6737C66.2712 93.9537 66.6379 94.0937 67.1045 94.0937C67.6645 94.0937 68.1312 93.947 68.5045 93.6537L69.2045 95.4337C68.9112 95.6737 68.5512 95.8537 68.1245 95.9737C67.6979 96.0937 67.2579 96.1537 66.8045 96.1537ZM61.3645 87.4137V85.4137H68.4845V87.4137H61.3645Z" fill="black"/>
<path d="M570.88 156V142H573.48V156H570.88ZM590.507 145.2C591.36 145.2 592.113 145.367 592.767 145.7C593.433 146.033 593.953 146.547 594.327 147.24C594.7 147.92 594.887 148.8 594.887 149.88V156H592.387V150.2C592.387 149.253 592.18 148.547 591.767 148.08C591.353 147.613 590.76 147.38 589.987 147.38C589.44 147.38 588.953 147.5 588.527 147.74C588.113 147.98 587.787 148.333 587.547 148.8C587.32 149.267 587.207 149.86 587.207 150.58V156H584.707V150.2C584.707 149.253 584.5 148.547 584.087 148.08C583.673 147.613 583.08 147.38 582.307 147.38C581.76 147.38 581.273 147.5 580.847 147.74C580.433 147.98 580.107 148.333 579.867 148.8C579.64 149.267 579.527 149.86 579.527 150.58V156H577.027V145.32H579.407V148.16L578.987 147.32C579.347 146.627 579.867 146.1 580.547 145.74C581.24 145.38 582.027 145.2 582.907 145.2C583.907 145.2 584.773 145.447 585.507 145.94C586.253 146.433 586.747 147.18 586.987 148.18L586.007 147.84C586.353 147.04 586.927 146.4 587.727 145.92C588.527 145.44 589.453 145.2 590.507 145.2ZM604.661 156V153.84L604.521 153.38V149.6C604.521 148.867 604.301 148.3 603.861 147.9C603.421 147.487 602.755 147.28 601.861 147.28C601.261 147.28 600.668 147.373 600.081 147.56C599.508 147.747 599.021 148.007 598.621 148.34L597.641 146.52C598.215 146.08 598.895 145.753 599.681 145.54C600.481 145.313 601.308 145.2 602.161 145.2C603.708 145.2 604.901 145.573 605.741 146.32C606.595 147.053 607.021 148.193 607.021 149.74V156H604.661ZM601.301 156.14C600.501 156.14 599.801 156.007 599.201 155.74C598.601 155.46 598.135 155.08 597.801 154.6C597.481 154.107 597.321 153.553 597.321 152.94C597.321 152.34 597.461 151.8 597.741 151.32C598.035 150.84 598.508 150.46 599.161 150.18C599.815 149.9 600.681 149.76 601.761 149.76H604.861V151.42H601.941C601.088 151.42 600.515 151.56 600.221 151.84C599.928 152.107 599.781 152.44 599.781 152.84C599.781 153.293 599.961 153.653 600.321 153.92C600.681 154.187 601.181 154.32 601.821 154.32C602.435 154.32 602.981 154.18 603.461 153.9C603.955 153.62 604.308 153.207 604.521 152.66L604.941 154.16C604.701 154.787 604.268 155.273 603.641 155.62C603.028 155.967 602.248 156.14 601.301 156.14ZM615.089 160.02C614.103 160.02 613.136 159.887 612.189 159.62C611.256 159.367 610.489 158.993 609.889 158.5L611.009 156.62C611.476 157.007 612.063 157.313 612.769 157.54C613.489 157.78 614.216 157.9 614.949 157.9C616.123 157.9 616.983 157.627 617.529 157.08C618.076 156.547 618.349 155.74 618.349 154.66V152.76L618.549 150.34L618.469 147.92V145.32H620.849V154.38C620.849 156.313 620.356 157.733 619.369 158.64C618.383 159.56 616.956 160.02 615.089 160.02ZM614.769 155.52C613.756 155.52 612.836 155.307 612.009 154.88C611.196 154.44 610.549 153.833 610.069 153.06C609.603 152.287 609.369 151.38 609.369 150.34C609.369 149.313 609.603 148.413 610.069 147.64C610.549 146.867 611.196 146.267 612.009 145.84C612.836 145.413 613.756 145.2 614.769 145.2C615.676 145.2 616.489 145.38 617.209 145.74C617.929 146.1 618.503 146.66 618.929 147.42C619.369 148.18 619.589 149.153 619.589 150.34C619.589 151.527 619.369 152.507 618.929 153.28C618.503 154.04 617.929 154.607 617.209 154.98C616.489 155.34 615.676 155.52 614.769 155.52ZM615.149 153.4C615.776 153.4 616.336 153.273 616.829 153.02C617.323 152.753 617.703 152.393 617.969 151.94C618.249 151.473 618.389 150.94 618.389 150.34C618.389 149.74 618.249 149.213 617.969 148.76C617.703 148.293 617.323 147.94 616.829 147.7C616.336 147.447 615.776 147.32 615.149 147.32C614.523 147.32 613.956 147.447 613.449 147.7C612.956 147.94 612.569 148.293 612.289 148.76C612.023 149.213 611.889 149.74 611.889 150.34C611.889 150.94 612.023 151.473 612.289 151.94C612.569 152.393 612.956 152.753 613.449 153.02C613.956 153.273 614.523 153.4 615.149 153.4ZM629.156 156.14C627.969 156.14 626.929 155.907 626.036 155.44C625.156 154.96 624.469 154.307 623.976 153.48C623.496 152.653 623.256 151.713 623.256 150.66C623.256 149.593 623.489 148.653 623.956 147.84C624.436 147.013 625.089 146.367 625.916 145.9C626.756 145.433 627.709 145.2 628.776 145.2C629.816 145.2 630.743 145.427 631.556 145.88C632.369 146.333 633.009 146.973 633.476 147.8C633.943 148.627 634.176 149.6 634.176 150.72C634.176 150.827 634.169 150.947 634.156 151.08C634.156 151.213 634.149 151.34 634.136 151.46H625.236V149.8H632.816L631.836 150.32C631.849 149.707 631.723 149.167 631.456 148.7C631.189 148.233 630.823 147.867 630.356 147.6C629.903 147.333 629.376 147.2 628.776 147.2C628.163 147.2 627.623 147.333 627.156 147.6C626.703 147.867 626.343 148.24 626.076 148.72C625.823 149.187 625.696 149.74 625.696 150.38V150.78C625.696 151.42 625.843 151.987 626.136 152.48C626.429 152.973 626.843 153.353 627.376 153.62C627.909 153.887 628.523 154.02 629.216 154.02C629.816 154.02 630.356 153.927 630.836 153.74C631.316 153.553 631.743 153.26 632.116 152.86L633.456 154.4C632.976 154.96 632.369 155.393 631.636 155.7C630.916 155.993 630.089 156.14 629.156 156.14Z" fill="black"/>
<path d="M443.38 373.5V359.5H449.14C450.38 359.5 451.44 359.7 452.32 360.1C453.213 360.5 453.9 361.073 454.38 361.82C454.86 362.567 455.1 363.453 455.1 364.48C455.1 365.507 454.86 366.393 454.38 367.14C453.9 367.887 453.213 368.46 452.32 368.86C451.44 369.26 450.38 369.46 449.14 369.46H444.82L445.98 368.24V373.5H443.38ZM445.98 368.52L444.82 367.26H449.02C450.167 367.26 451.027 367.02 451.6 366.54C452.187 366.047 452.48 365.36 452.48 364.48C452.48 363.587 452.187 362.9 451.6 362.42C451.027 361.94 450.167 361.7 449.02 361.7H444.82L445.98 360.42V368.52ZM457.652 373.5V358.66H460.152V373.5H457.652ZM470.013 373.5V371.34L469.873 370.88V367.1C469.873 366.367 469.653 365.8 469.213 365.4C468.773 364.987 468.106 364.78 467.213 364.78C466.613 364.78 466.02 364.873 465.433 365.06C464.86 365.247 464.373 365.507 463.973 365.84L462.993 364.02C463.566 363.58 464.246 363.253 465.033 363.04C465.833 362.813 466.66 362.7 467.513 362.7C469.06 362.7 470.253 363.073 471.093 363.82C471.946 364.553 472.373 365.693 472.373 367.24V373.5H470.013ZM466.653 373.64C465.853 373.64 465.153 373.507 464.553 373.24C463.953 372.96 463.486 372.58 463.153 372.1C462.833 371.607 462.673 371.053 462.673 370.44C462.673 369.84 462.813 369.3 463.093 368.82C463.386 368.34 463.86 367.96 464.513 367.68C465.166 367.4 466.033 367.26 467.113 367.26H470.213V368.92H467.293C466.44 368.92 465.866 369.06 465.573 369.34C465.28 369.607 465.133 369.94 465.133 370.34C465.133 370.793 465.313 371.153 465.673 371.42C466.033 371.687 466.533 371.82 467.173 371.82C467.786 371.82 468.333 371.68 468.813 371.4C469.306 371.12 469.66 370.707 469.873 370.16L470.293 371.66C470.053 372.287 469.62 372.773 468.993 373.12C468.38 373.467 467.6 373.64 466.653 373.64ZM481.641 362.7C482.495 362.7 483.255 362.867 483.921 363.2C484.601 363.533 485.135 364.047 485.521 364.74C485.908 365.42 486.101 366.3 486.101 367.38V373.5H483.601V367.7C483.601 366.753 483.375 366.047 482.921 365.58C482.481 365.113 481.861 364.88 481.061 364.88C480.475 364.88 479.955 365 479.501 365.24C479.048 365.48 478.695 365.84 478.441 366.32C478.201 366.787 478.081 367.38 478.081 368.1V373.5H475.581V362.82H477.961V365.7L477.541 364.82C477.915 364.14 478.455 363.62 479.161 363.26C479.881 362.887 480.708 362.7 481.641 362.7ZM494.312 373.64C493.126 373.64 492.086 373.407 491.192 372.94C490.312 372.46 489.626 371.807 489.132 370.98C488.652 370.153 488.412 369.213 488.412 368.16C488.412 367.093 488.646 366.153 489.112 365.34C489.592 364.513 490.246 363.867 491.072 363.4C491.912 362.933 492.866 362.7 493.932 362.7C494.972 362.7 495.899 362.927 496.712 363.38C497.526 363.833 498.166 364.473 498.632 365.3C499.099 366.127 499.332 367.1 499.332 368.22C499.332 368.327 499.326 368.447 499.312 368.58C499.312 368.713 499.306 368.84 499.292 368.96H490.392V367.3H497.972L496.992 367.82C497.006 367.207 496.879 366.667 496.612 366.2C496.346 365.733 495.979 365.367 495.512 365.1C495.059 364.833 494.532 364.7 493.932 364.7C493.319 364.7 492.779 364.833 492.312 365.1C491.859 365.367 491.499 365.74 491.232 366.22C490.979 366.687 490.852 367.24 490.852 367.88V368.28C490.852 368.92 490.999 369.487 491.292 369.98C491.586 370.473 491.999 370.853 492.532 371.12C493.066 371.387 493.679 371.52 494.372 371.52C494.972 371.52 495.512 371.427 495.992 371.24C496.472 371.053 496.899 370.76 497.272 370.36L498.612 371.9C498.132 372.46 497.526 372.893 496.792 373.2C496.072 373.493 495.246 373.64 494.312 373.64ZM507.501 373.5V359.5H509.641L515.761 369.72H514.641L520.661 359.5H522.801L522.821 373.5H520.361L520.341 363.36H520.861L515.741 371.9H514.581L509.381 363.36H509.981V373.5H507.501ZM526.363 373.5V362.82H528.863V373.5H526.363ZM527.623 361.06C527.156 361.06 526.769 360.913 526.463 360.62C526.169 360.327 526.023 359.973 526.023 359.56C526.023 359.133 526.169 358.78 526.463 358.5C526.769 358.207 527.156 358.06 527.623 358.06C528.089 358.06 528.469 358.2 528.763 358.48C529.069 358.747 529.223 359.087 529.223 359.5C529.223 359.94 529.076 360.313 528.783 360.62C528.489 360.913 528.103 361.06 527.623 361.06ZM532.144 373.5V362.82H534.524V365.76L534.244 364.9C534.564 364.18 535.064 363.633 535.744 363.26C536.437 362.887 537.297 362.7 538.324 362.7V365.08C538.217 365.053 538.117 365.04 538.024 365.04C537.931 365.027 537.837 365.02 537.744 365.02C536.797 365.02 536.044 365.3 535.484 365.86C534.924 366.407 534.644 367.227 534.644 368.32V373.5H532.144ZM540.445 373.5V362.82H542.825V365.76L542.545 364.9C542.865 364.18 543.365 363.633 544.045 363.26C544.738 362.887 545.598 362.7 546.625 362.7V365.08C546.518 365.053 546.418 365.04 546.325 365.04C546.231 365.027 546.138 365.02 546.045 365.02C545.098 365.02 544.345 365.3 543.785 365.86C543.225 366.407 542.945 367.227 542.945 368.32V373.5H540.445ZM553.448 373.64C552.354 373.64 551.381 373.407 550.528 372.94C549.674 372.46 549.001 371.807 548.508 370.98C548.014 370.153 547.768 369.213 547.768 368.16C547.768 367.093 548.014 366.153 548.508 365.34C549.001 364.513 549.674 363.867 550.528 363.4C551.381 362.933 552.354 362.7 553.448 362.7C554.554 362.7 555.534 362.933 556.388 363.4C557.254 363.867 557.928 364.507 558.408 365.32C558.901 366.133 559.148 367.08 559.148 368.16C559.148 369.213 558.901 370.153 558.408 370.98C557.928 371.807 557.254 372.46 556.388 372.94C555.534 373.407 554.554 373.64 553.448 373.64ZM553.448 371.5C554.061 371.5 554.608 371.367 555.088 371.1C555.568 370.833 555.941 370.447 556.208 369.94C556.488 369.433 556.628 368.84 556.628 368.16C556.628 367.467 556.488 366.873 556.208 366.38C555.941 365.873 555.568 365.487 555.088 365.22C554.608 364.953 554.068 364.82 553.468 364.82C552.854 364.82 552.308 364.953 551.828 365.22C551.361 365.487 550.988 365.873 550.708 366.38C550.428 366.873 550.288 367.467 550.288 368.16C550.288 368.84 550.428 369.433 550.708 369.94C550.988 370.447 551.361 370.833 551.828 371.1C552.308 371.367 552.848 371.5 553.448 371.5ZM561.538 373.5V362.82H563.918V365.76L563.638 364.9C563.958 364.18 564.458 363.633 565.138 363.26C565.832 362.887 566.692 362.7 567.718 362.7V365.08C567.612 365.053 567.512 365.04 567.418 365.04C567.325 365.027 567.232 365.02 567.138 365.02C566.192 365.02 565.438 365.3 564.878 365.86C564.318 366.407 564.038 367.227 564.038 368.32V373.5H561.538Z" fill="black"/>
<path d="M367.58 429.14H374.04V432.2H367.58V429.14ZM367.86 437H363.9V423H374.88V426.06H367.86V437ZM376.552 437V426.16H380.352V437H376.552ZM378.452 424.96C377.759 424.96 377.199 424.767 376.772 424.38C376.345 423.993 376.132 423.513 376.132 422.94C376.132 422.367 376.345 421.887 376.772 421.5C377.199 421.113 377.759 420.92 378.452 420.92C379.145 420.92 379.705 421.107 380.132 421.48C380.559 421.84 380.772 422.307 380.772 422.88C380.772 423.48 380.559 423.98 380.132 424.38C379.719 424.767 379.159 424.96 378.452 424.96ZM388.122 441.06C387.082 441.06 386.088 440.94 385.142 440.7C384.208 440.46 383.408 440.107 382.742 439.64L384.122 436.98C384.575 437.34 385.135 437.62 385.802 437.82C386.482 438.033 387.142 438.14 387.782 438.14C388.808 438.14 389.548 437.913 390.002 437.46C390.455 437.02 390.682 436.373 390.682 435.52V434.24L390.882 431.2L390.862 428.14V426.16H394.482V435.02C394.482 437.073 393.928 438.593 392.822 439.58C391.715 440.567 390.148 441.06 388.122 441.06ZM387.462 436.44C386.502 436.44 385.615 436.227 384.802 435.8C384.002 435.36 383.355 434.753 382.862 433.98C382.382 433.193 382.142 432.267 382.142 431.2C382.142 430.133 382.382 429.213 382.862 428.44C383.355 427.653 384.002 427.047 384.802 426.62C385.615 426.193 386.502 425.98 387.462 425.98C388.382 425.98 389.168 426.167 389.822 426.54C390.475 426.9 390.968 427.467 391.302 428.24C391.648 429.013 391.822 430 391.822 431.2C391.822 432.4 391.648 433.387 391.302 434.16C390.968 434.933 390.475 435.507 389.822 435.88C389.168 436.253 388.382 436.44 387.462 436.44ZM388.362 433.42C388.815 433.42 389.215 433.327 389.562 433.14C389.922 432.953 390.202 432.693 390.402 432.36C390.615 432.027 390.722 431.64 390.722 431.2C390.722 430.76 390.615 430.373 390.402 430.04C390.202 429.707 389.922 429.453 389.562 429.28C389.215 429.093 388.815 429 388.362 429C387.908 429 387.502 429.093 387.142 429.28C386.782 429.453 386.495 429.707 386.282 430.04C386.082 430.373 385.982 430.76 385.982 431.2C385.982 431.64 386.082 432.027 386.282 432.36C386.495 432.693 386.782 432.953 387.142 433.14C387.502 433.327 387.908 433.42 388.362 433.42ZM404.243 437V424.42L405.943 426.06H401.643V423H408.203V437H404.243ZM412.449 437.18C411.809 437.18 411.269 436.967 410.829 436.54C410.389 436.113 410.169 435.573 410.169 434.92C410.169 434.24 410.389 433.7 410.829 433.3C411.269 432.887 411.809 432.68 412.449 432.68C413.089 432.68 413.629 432.887 414.069 433.3C414.509 433.7 414.729 434.24 414.729 434.92C414.729 435.573 414.509 436.113 414.069 436.54C413.629 436.967 413.089 437.18 412.449 437.18ZM416.088 437V434.52L421.328 429.62C421.702 429.273 421.975 428.967 422.148 428.7C422.335 428.433 422.455 428.193 422.508 427.98C422.575 427.753 422.608 427.547 422.608 427.36C422.608 426.907 422.455 426.553 422.148 426.3C421.855 426.047 421.408 425.92 420.808 425.92C420.302 425.92 419.828 426.033 419.388 426.26C418.948 426.487 418.588 426.827 418.308 427.28L415.368 425.64C415.888 424.76 416.642 424.053 417.628 423.52C418.615 422.987 419.795 422.72 421.168 422.72C422.248 422.72 423.195 422.893 424.008 423.24C424.822 423.587 425.455 424.08 425.908 424.72C426.375 425.36 426.608 426.113 426.608 426.98C426.608 427.433 426.548 427.887 426.428 428.34C426.308 428.78 426.075 429.253 425.728 429.76C425.395 430.253 424.895 430.807 424.228 431.42L420.068 435.26L419.408 433.86H426.988V437H416.088Z" fill="black"/>
</svg>
