<svg width="314" height="127" viewBox="0 0 314 127" fill="none" xmlns="http://www.w3.org/2000/svg">
<path d="M133.922 17.0623H0.421875" stroke="#FA6C32" stroke-width="2"/>
<path d="M133.922 47.0623H0.421875" stroke="#FA6C32" stroke-width="2"/>
<path d="M133.922 77.0623H0.421875" stroke="#FA6C32" stroke-width="2"/>
<path d="M309.755 42.616C310.06 42.1562 309.936 41.5355 309.476 41.2296L301.982 36.2455C301.522 35.9396 300.901 36.0645 300.595 36.5243C300.289 36.9842 300.414 37.6049 300.874 37.9108L307.535 42.3411L303.105 49.0023C302.799 49.4622 302.924 50.0829 303.384 50.3888C303.844 50.6946 304.465 50.5698 304.77 50.1099L309.755 42.616ZM132.619 78.5426L309.119 43.0426L308.725 41.0819L132.225 76.5819L132.619 78.5426Z" fill="#FA6C32"/>
<path d="M277.896 17.2871C278.02 16.749 277.685 16.2121 277.147 16.0879L268.377 14.0641C267.839 13.9399 267.302 14.2755 267.178 14.8137C267.054 15.3518 267.389 15.8887 267.927 16.0129L275.723 17.8118L273.924 25.6069C273.8 26.1451 274.135 26.682 274.673 26.8062C275.211 26.9304 275.748 26.5948 275.873 26.0566L277.896 17.2871ZM133.452 107.91L277.452 17.9103L276.392 16.2143L132.392 106.214L133.452 107.91Z" fill="#FA6C32"/>
<path d="M133.922 107.062H0.421875" stroke="#FA6C32" stroke-width="2"/>
<path d="M288.422 64.156L0.421875 62.0623" stroke="#FA6C32"/>
<path d="M134.922 1.06226C162.97 58.8036 165.815 87.0758 134.922 126.062" stroke="#FA6C32" stroke-width="3"/>
<path d="M133.698 1.06226C105.645 58.8036 102.799 87.0758 133.698 126.062" stroke="#FA6C32" stroke-width="3"/>
<path d="M274.127 110.541C274.667 110.428 275.014 109.898 274.901 109.357L273.056 100.548C272.943 100.008 272.413 99.6614 271.872 99.7745C271.332 99.8877 270.985 100.418 271.098 100.958L272.738 108.788L264.908 110.428C264.367 110.541 264.021 111.071 264.134 111.612C264.247 112.152 264.777 112.499 265.318 112.386L274.127 110.541ZM131.875 17.8993L273.375 110.399L274.469 108.725L132.969 16.2252L131.875 17.8993Z" fill="#FA6C32"/>
<path d="M313.454 88.9091C313.921 88.6153 314.062 87.998 313.769 87.5304L308.982 79.9091C308.688 79.4414 308.071 79.3004 307.603 79.5942C307.135 79.8879 306.994 80.5052 307.288 80.9729L311.543 87.7473L304.769 92.0025C304.301 92.2963 304.16 92.9135 304.454 93.3812C304.748 93.8489 305.365 93.9899 305.832 93.6961L313.454 88.9091ZM133.199 48.0371L312.699 89.0371L313.145 87.0874L133.645 46.0874L133.199 48.0371Z" fill="#FA6C32"/>
</svg>
