<svg width="251" height="144" viewBox="0 0 251 144" fill="none" xmlns="http://www.w3.org/2000/svg">
<path d="M16.3125 28.75L133.5 116.25M133.5 116.25L237.797 28.75M133.5 116.25L128.422 1.40625M92.4844 86.1719L108.109 68.5938L130.766 59.6094L154.203 68.5938L169.438 86.1719M250.688 118.25H6.9375M243.656 118.594L232.328 142.422M233.656 118.594L222.328 142.422M223.656 118.594L212.328 142.422M213.656 118.594L202.328 142.422M203.656 118.594L192.328 142.422M193.656 118.594L182.328 142.422M183.656 118.594L172.328 142.422M173.656 118.594L162.328 142.422M163.656 118.594L152.328 142.422M153.656 118.594L142.328 142.422M143.656 118.594L132.328 142.422M133.656 118.594L122.328 142.422M123.656 118.594L112.328 142.422M113.656 118.594L102.328 142.422M103.656 118.594L92.3281 142.422M93.6562 118.594L82.3281 142.422M83.6562 118.594L72.3281 142.422M73.6562 118.594L62.3281 142.422M63.6562 118.594L52.3281 142.422M53.6562 118.594L42.3281 142.422M43.6562 118.594L32.3281 142.422M33.6562 118.594L22.3281 142.422M23.6562 118.594L12.3281 142.422M13.6562 118.594L2.32812 142.422M16.4844 47.2812V28.5312L35.2344 25.0156M114.914 15.3988L128.289 2.25797L143.937 13.1687M218.109 25.2546L236.372 29.4988L235.553 48.5579" stroke="#FA6C32" stroke-width="3"/>
</svg>
