<svg width="385" height="350" viewBox="0 0 385 350" fill="none" xmlns="http://www.w3.org/2000/svg">
<g clip-path="url(#clip0_102_146)" filter="url(#filter0_iiii_102_146)">
<path d="M158.342 198.134C142.273 185.646 119.129 188.548 106.642 204.617C94.1542 220.685 97.0564 243.829 113.125 256.317C129.194 268.805 152.337 265.902 164.825 249.834C177.313 233.765 174.411 210.621 158.342 198.134ZM226.167 110.859C242.236 123.346 265.38 120.444 277.868 104.376C290.355 88.3071 287.453 65.1632 271.384 52.6755C255.316 40.1879 232.172 43.0901 219.684 59.1587C207.197 75.2272 210.099 98.3711 226.167 110.859ZM296.486 200.503L121.936 64.852C113.904 58.61 102.328 60.0616 96.0861 68.0936L84.7819 82.6394C78.5398 90.6714 79.9914 102.247 88.0235 108.489L262.573 244.14C270.605 250.382 282.181 248.931 288.423 240.899L299.727 226.353C305.97 218.321 304.518 206.745 296.486 200.503Z" fill="url(#paint0_linear_102_146)"/>
</g>
<defs>
<filter id="filter0_iiii_102_146" x="-28" y="-69" width="440.509" height="446.992" filterUnits="userSpaceOnUse" color-interpolation-filters="sRGB">
<feFlood flood-opacity="0" result="BackgroundImageFix"/>
<feBlend mode="normal" in="SourceGraphic" in2="BackgroundImageFix" result="shape"/>
<feColorMatrix in="SourceAlpha" type="matrix" values="0 0 0 0 0 0 0 0 0 0 0 0 0 0 0 0 0 0 127 0" result="hardAlpha"/>
<feOffset dx="6" dy="6"/>
<feGaussianBlur stdDeviation="8"/>
<feComposite in2="hardAlpha" operator="arithmetic" k2="-1" k3="1"/>
<feColorMatrix type="matrix" values="0 0 0 0 1 0 0 0 0 1 0 0 0 0 1 0 0 0 0.29 0"/>
<feBlend mode="normal" in2="shape" result="effect1_innerShadow_102_146"/>
<feColorMatrix in="SourceAlpha" type="matrix" values="0 0 0 0 0 0 0 0 0 0 0 0 0 0 0 0 0 0 127 0" result="hardAlpha"/>
<feOffset dx="28" dy="28"/>
<feGaussianBlur stdDeviation="27"/>
<feComposite in2="hardAlpha" operator="arithmetic" k2="-1" k3="1"/>
<feColorMatrix type="matrix" values="0 0 0 0 1 0 0 0 0 1 0 0 0 0 1 0 0 0 0.29 0"/>
<feBlend mode="normal" in2="effect1_innerShadow_102_146" result="effect2_innerShadow_102_146"/>
<feColorMatrix in="SourceAlpha" type="matrix" values="0 0 0 0 0 0 0 0 0 0 0 0 0 0 0 0 0 0 127 0" result="hardAlpha"/>
<feOffset dx="-28" dy="-28"/>
<feGaussianBlur stdDeviation="27"/>
<feComposite in2="hardAlpha" operator="arithmetic" k2="-1" k3="1"/>
<feColorMatrix type="matrix" values="0 0 0 0 0 0 0 0 0 0 0 0 0 0 0 0 0 0 0.25 0"/>
<feBlend mode="normal" in2="effect2_innerShadow_102_146" result="effect3_innerShadow_102_146"/>
<feColorMatrix in="SourceAlpha" type="matrix" values="0 0 0 0 0 0 0 0 0 0 0 0 0 0 0 0 0 0 127 0" result="hardAlpha"/>
<feOffset dx="-16" dy="-16"/>
<feGaussianBlur stdDeviation="12"/>
<feComposite in2="hardAlpha" operator="arithmetic" k2="-1" k3="1"/>
<feColorMatrix type="matrix" values="0 0 0 0 0 0 0 0 0 0 0 0 0 0 0 0 0 0 0.06 0"/>
<feBlend mode="normal" in2="effect3_innerShadow_102_146" result="effect4_innerShadow_102_146"/>
</filter>
<linearGradient id="paint0_linear_102_146" x1="304.813" y1="268.844" x2="78.25" y2="70.4062" gradientUnits="userSpaceOnUse">
<stop stop-color="#28D0E7"/>
<stop offset="1" stop-color="#9BE8F2"/>
</linearGradient>
<clipPath id="clip0_102_146">
<rect width="257.907" height="294.75" fill="white" transform="translate(180.868 -41) rotate(37.8525)"/>
</clipPath>
</defs>
</svg>
