<svg width="357" height="292" viewBox="0 0 357 292" fill="none" xmlns="http://www.w3.org/2000/svg">
<g clip-path="url(#clip0_102_150)">
<path d="M66.9953 54.9532C66.2222 53.4496 65.9606 51.7295 66.2498 50.0507C66.539 48.3718 67.3634 46.8245 68.5995 45.6405L114.333 1.78429C115.239 0.916797 116.335 0.27402 117.531 -0.091115C118.728 -0.45625 119.99 -0.533299 121.214 -0.315931C122.438 -0.0985624 123.59 0.407006 124.573 1.15917C125.556 1.91133 126.344 2.88857 126.87 4.01044L164.311 83.7912L207.826 42.0621C208.896 41.0347 210.229 40.3245 211.673 40.0121C213.117 39.6997 214.615 39.7979 215.995 40.2953C217.376 40.7927 218.584 41.6695 219.481 42.8257C220.379 43.982 220.93 45.3712 221.072 46.8353L238.405 225.115C238.587 226.947 238.119 228.793 237.083 230.331C236.047 231.869 234.508 233.002 232.734 233.532C230.961 234.061 229.067 233.955 227.381 233.23C225.695 232.505 224.326 231.208 223.512 229.565L180.783 143.79L142.791 180.223C141.902 181.076 140.83 181.713 139.659 182.083C138.488 182.453 137.25 182.546 136.044 182.355C134.839 182.164 133.698 181.694 132.712 180.982C131.727 180.27 130.924 179.336 130.368 178.255L66.9953 54.9532Z" fill="url(#paint0_linear_102_150)"/>
</g>
<defs>
<linearGradient id="paint0_linear_102_150" x1="91.4663" y1="23.7121" x2="264.57" y2="204.224" gradientUnits="userSpaceOnUse">
<stop stop-color="#DB612E"/>
<stop offset="1" stop-color="#FB9E77"/>
</linearGradient>
<clipPath id="clip0_102_150">
<rect width="253.452" height="250.084" fill="white" transform="translate(0 111.425) rotate(-43.7999)"/>
</clipPath>
</defs>
</svg>
