<svg width="687" height="626" viewBox="0 0 687 626" fill="none" xmlns="http://www.w3.org/2000/svg">
<path d="M15.1695 19.7431H21.5055V42.1431H15.1695V19.7431ZM6.52946 42.1431H0.193461V19.7431H6.52946V42.1431ZM15.6175 33.4071H6.08146V28.1591H15.6175V33.4071ZM28.6627 48.6391C27.7454 48.6391 26.8174 48.4897 25.8787 48.1911C24.9614 47.9137 24.2147 47.5404 23.6387 47.0711L25.7507 42.8151C26.1134 43.1351 26.5294 43.3804 26.9987 43.5511C27.4894 43.7431 27.9694 43.8391 28.4387 43.8391C29.1 43.8391 29.6227 43.6897 30.0067 43.3911C30.3907 43.0924 30.7214 42.6231 30.9987 41.9831L31.7987 39.9671L32.2787 39.3591L38.1667 24.7991H43.9587L36.4707 42.8471C35.8734 44.3404 35.18 45.5031 34.3907 46.3351C33.6227 47.1884 32.7587 47.7857 31.7987 48.1271C30.86 48.4684 29.8147 48.6391 28.6627 48.6391ZM31.0307 42.8791L23.3827 24.7991H29.6227L35.2547 38.8151L31.0307 42.8791ZM56.4425 42.4311C54.9705 42.4311 53.7118 42.1111 52.6665 41.4711C51.6211 40.8097 50.8211 39.8284 50.2665 38.5271C49.7331 37.2044 49.4665 35.5191 49.4665 33.4711C49.4665 31.4017 49.7225 29.7164 50.2345 28.4151C50.7465 27.0924 51.5145 26.1111 52.5385 25.4711C53.5838 24.8311 54.8851 24.5111 56.4425 24.5111C58.0211 24.5111 59.4505 24.8844 60.7305 25.6311C62.0318 26.3564 63.0558 27.3911 63.8025 28.7351C64.5705 30.0577 64.9545 31.6364 64.9545 33.4711C64.9545 35.3057 64.5705 36.8951 63.8025 38.2391C63.0558 39.5831 62.0318 40.6177 60.7305 41.3431C59.4505 42.0684 58.0211 42.4311 56.4425 42.4311ZM45.5305 48.3511V24.7991H51.3225V27.7431L51.2905 33.4711L51.6105 39.2311V48.3511H45.5305ZM55.1625 37.5991C55.8451 37.5991 56.4531 37.4391 56.9865 37.1191C57.5411 36.7991 57.9785 36.3297 58.2985 35.7111C58.6398 35.0924 58.8105 34.3457 58.8105 33.4711C58.8105 32.5964 58.6398 31.8497 58.2985 31.2311C57.9785 30.6124 57.5411 30.1431 56.9865 29.8231C56.4531 29.5031 55.8451 29.3431 55.1625 29.3431C54.4798 29.3431 53.8611 29.5031 53.3065 29.8231C52.7731 30.1431 52.3358 30.6124 51.9945 31.2311C51.6745 31.8497 51.5145 32.5964 51.5145 33.4711C51.5145 34.3457 51.6745 35.0924 51.9945 35.7111C52.3358 36.3297 52.7731 36.7991 53.3065 37.1191C53.8611 37.4391 54.4798 37.5991 55.1625 37.5991ZM76.4845 42.4311C74.5858 42.4311 72.9005 42.0471 71.4285 41.2791C69.9565 40.5111 68.7938 39.4551 67.9405 38.1111C67.1085 36.7457 66.6925 35.1884 66.6925 33.4391C66.6925 31.6897 67.1085 30.1431 67.9405 28.7991C68.7938 27.4551 69.9565 26.4097 71.4285 25.6631C72.9005 24.8951 74.5858 24.5111 76.4845 24.5111C78.3831 24.5111 80.0685 24.8951 81.5405 25.6631C83.0338 26.4097 84.1965 27.4551 85.0285 28.7991C85.8605 30.1431 86.2765 31.6897 86.2765 33.4391C86.2765 35.1884 85.8605 36.7457 85.0285 38.1111C84.1965 39.4551 83.0338 40.5111 81.5405 41.2791C80.0685 42.0471 78.3831 42.4311 76.4845 42.4311ZM76.4845 37.5991C77.1885 37.5991 77.8071 37.4391 78.3405 37.1191C78.8951 36.7991 79.3325 36.3297 79.6525 35.7111C79.9725 35.0711 80.1325 34.3137 80.1325 33.4391C80.1325 32.5644 79.9725 31.8284 79.6525 31.2311C79.3325 30.6124 78.8951 30.1431 78.3405 29.8231C77.8071 29.5031 77.1885 29.3431 76.4845 29.3431C75.8018 29.3431 75.1831 29.5031 74.6285 29.8231C74.0951 30.1431 73.6578 30.6124 73.3165 31.2311C72.9965 31.8284 72.8365 32.5644 72.8365 33.4391C72.8365 34.3137 72.9965 35.0711 73.3165 35.7111C73.6578 36.3297 74.0951 36.7991 74.6285 37.1191C75.1831 37.4391 75.8018 37.5991 76.4845 37.5991ZM96.837 42.4311C94.6183 42.4311 92.8903 41.8871 91.653 40.7991C90.4156 39.6897 89.797 38.0257 89.797 35.8071V20.9271H95.877V35.7431C95.877 36.3617 96.0476 36.8524 96.389 37.2151C96.7303 37.5564 97.1676 37.7271 97.701 37.7271C98.4263 37.7271 99.045 37.5457 99.557 37.1831L101.061 41.4391C100.549 41.7804 99.9196 42.0257 99.173 42.1751C98.4263 42.3457 97.6476 42.4311 96.837 42.4311ZM87.269 29.9831V25.4391H99.845V29.9831H87.269ZM111.993 42.4311C109.945 42.4311 108.153 42.0471 106.617 41.2791C105.103 40.4897 103.919 39.4231 103.065 38.0791C102.233 36.7137 101.817 35.1671 101.817 33.4391C101.817 31.7111 102.223 30.1751 103.033 28.8311C103.865 27.4657 105.007 26.4097 106.457 25.6631C107.908 24.8951 109.54 24.5111 111.353 24.5111C113.06 24.5111 114.617 24.8631 116.025 25.5671C117.433 26.2497 118.553 27.2631 119.385 28.6071C120.217 29.9511 120.633 31.5831 120.633 33.5031C120.633 33.7164 120.623 33.9617 120.601 34.2391C120.58 34.5164 120.559 34.7724 120.537 35.0071H106.809V31.8071H117.305L115.001 32.7031C115.023 31.9137 114.873 31.2311 114.553 30.6551C114.255 30.0791 113.828 29.6311 113.273 29.3111C112.74 28.9911 112.111 28.8311 111.385 28.8311C110.66 28.8311 110.02 28.9911 109.465 29.3111C108.932 29.6311 108.516 30.0897 108.217 30.6871C107.919 31.2631 107.769 31.9457 107.769 32.7351V33.6631C107.769 34.5164 107.94 35.2524 108.281 35.8711C108.644 36.4897 109.156 36.9697 109.817 37.3111C110.479 37.6311 111.268 37.7911 112.185 37.7911C113.039 37.7911 113.764 37.6737 114.361 37.4391C114.98 37.1831 115.588 36.7991 116.185 36.2871L119.385 39.6151C118.553 40.5324 117.529 41.2364 116.313 41.7271C115.097 42.1964 113.657 42.4311 111.993 42.4311ZM134.733 24.5111C136.077 24.5111 137.293 24.7884 138.381 25.3431C139.469 25.8764 140.322 26.7084 140.941 27.8391C141.581 28.9697 141.901 30.4311 141.901 32.2231V42.1431H135.821V33.2151C135.821 31.9777 135.565 31.0817 135.053 30.5271C134.562 29.9511 133.869 29.6631 132.973 29.6631C132.333 29.6631 131.746 29.8124 131.213 30.1111C130.679 30.3884 130.263 30.8257 129.965 31.4231C129.666 32.0204 129.517 32.7991 129.517 33.7591V42.1431H123.437V24.7991H129.229V29.7271L128.109 28.2871C128.77 27.0284 129.677 26.0897 130.829 25.4711C131.981 24.8311 133.282 24.5111 134.733 24.5111ZM153.014 42.4311C151.606 42.4311 150.337 42.1537 149.206 41.5991C148.097 41.0444 147.222 40.1804 146.582 39.0071C145.963 37.8124 145.654 36.3084 145.654 34.4951V24.7991H151.734V33.5031C151.734 34.8471 151.979 35.8071 152.47 36.3831C152.982 36.9591 153.697 37.2471 154.614 37.2471C155.211 37.2471 155.755 37.1084 156.246 36.8311C156.737 36.5537 157.131 36.1164 157.43 35.5191C157.729 34.9004 157.878 34.1111 157.878 33.1511V24.7991H163.958V42.1431H158.166V37.2471L159.286 38.6231C158.689 39.9031 157.825 40.8631 156.694 41.5031C155.563 42.1217 154.337 42.4311 153.014 42.4311ZM174.178 42.4311C172.706 42.4311 171.266 42.2604 169.858 41.9191C168.472 41.5777 167.352 41.1511 166.498 40.6391L168.322 36.4791C169.133 36.9697 170.082 37.3644 171.17 37.6631C172.258 37.9404 173.325 38.0791 174.37 38.0791C175.394 38.0791 176.098 37.9724 176.482 37.7591C176.888 37.5457 177.09 37.2577 177.09 36.8951C177.09 36.5537 176.898 36.3084 176.514 36.1591C176.152 35.9884 175.661 35.8604 175.042 35.7751C174.445 35.6897 173.784 35.5937 173.058 35.4871C172.333 35.3804 171.597 35.2417 170.85 35.0711C170.125 34.8791 169.453 34.6017 168.834 34.2391C168.237 33.8551 167.757 33.3431 167.394 32.7031C167.032 32.0631 166.85 31.2524 166.85 30.2711C166.85 29.1617 167.17 28.1804 167.81 27.3271C168.472 26.4524 169.432 25.7697 170.69 25.2791C171.949 24.7671 173.485 24.5111 175.298 24.5111C176.514 24.5111 177.741 24.6391 178.978 24.8951C180.237 25.1297 181.293 25.4924 182.146 25.9831L180.322 30.1111C179.469 29.6204 178.616 29.2897 177.762 29.1191C176.909 28.9271 176.098 28.8311 175.33 28.8311C174.306 28.8311 173.581 28.9484 173.154 29.1831C172.749 29.4177 172.546 29.7057 172.546 30.0471C172.546 30.3884 172.728 30.6551 173.09 30.8471C173.453 31.0177 173.933 31.1564 174.53 31.2631C175.149 31.3484 175.821 31.4444 176.546 31.5511C177.272 31.6364 177.997 31.7751 178.722 31.9671C179.469 32.1591 180.141 32.4471 180.738 32.8311C181.357 33.1937 181.848 33.6951 182.21 34.3351C182.573 34.9537 182.754 35.7537 182.754 36.7351C182.754 37.8017 182.424 38.7617 181.762 39.6151C181.122 40.4684 180.162 41.1511 178.882 41.6631C177.624 42.1751 176.056 42.4311 174.178 42.4311ZM194.462 42.4311C192.414 42.4311 190.622 42.0471 189.086 41.2791C187.572 40.4897 186.388 39.4231 185.534 38.0791C184.702 36.7137 184.286 35.1671 184.286 33.4391C184.286 31.7111 184.692 30.1751 185.502 28.8311C186.334 27.4657 187.476 26.4097 188.926 25.6631C190.377 24.8951 192.009 24.5111 193.822 24.5111C195.529 24.5111 197.086 24.8631 198.494 25.5671C199.902 26.2497 201.022 27.2631 201.854 28.6071C202.686 29.9511 203.102 31.5831 203.102 33.5031C203.102 33.7164 203.092 33.9617 203.07 34.2391C203.049 34.5164 203.028 34.7724 203.006 35.0071H189.278V31.8071H199.774L197.47 32.7031C197.492 31.9137 197.342 31.2311 197.022 30.6551C196.724 30.0791 196.297 29.6311 195.742 29.3111C195.209 28.9911 194.58 28.8311 193.854 28.8311C193.129 28.8311 192.489 28.9911 191.934 29.3111C191.401 29.6311 190.985 30.0897 190.686 30.6871C190.388 31.2631 190.238 31.9457 190.238 32.7351V33.6631C190.238 34.5164 190.409 35.2524 190.75 35.8711C191.113 36.4897 191.625 36.9697 192.286 37.3111C192.948 37.6311 193.737 37.7911 194.654 37.7911C195.508 37.7911 196.233 37.6737 196.83 37.4391C197.449 37.1831 198.057 36.7991 198.654 36.2871L201.854 39.6151C201.022 40.5324 199.998 41.2364 198.782 41.7271C197.566 42.1964 196.126 42.4311 194.462 42.4311ZM243.059 29.2151V24.5751H258.835V29.2151H243.059ZM243.059 37.3111V32.6711H258.835V37.3111H243.059ZM272.256 42.1431V19.7431H282.496C284.544 19.7431 286.304 20.0737 287.776 20.7351C289.269 21.3964 290.421 22.3564 291.232 23.6151C292.043 24.8524 292.448 26.3244 292.448 28.0311C292.448 29.7164 292.043 31.1777 291.232 32.4151C290.421 33.6524 289.269 34.6124 287.776 35.2951C286.304 35.9564 284.544 36.2871 282.496 36.2871H275.776L278.592 33.5351V42.1431H272.256ZM278.592 34.2071L275.776 31.2951H282.112C283.435 31.2951 284.416 31.0071 285.056 30.4311C285.717 29.8551 286.048 29.0551 286.048 28.0311C286.048 26.9857 285.717 26.1751 285.056 25.5991C284.416 25.0231 283.435 24.7351 282.112 24.7351H275.776L278.592 21.8231V34.2071ZM304.306 42.4311C302.258 42.4311 300.466 42.0471 298.93 41.2791C297.415 40.4897 296.231 39.4231 295.378 38.0791C294.546 36.7137 294.13 35.1671 294.13 33.4391C294.13 31.7111 294.535 30.1751 295.346 28.8311C296.178 27.4657 297.319 26.4097 298.77 25.6631C300.221 24.8951 301.853 24.5111 303.666 24.5111C305.373 24.5111 306.93 24.8631 308.338 25.5671C309.746 26.2497 310.866 27.2631 311.698 28.6071C312.53 29.9511 312.946 31.5831 312.946 33.5031C312.946 33.7164 312.935 33.9617 312.914 34.2391C312.893 34.5164 312.871 34.7724 312.85 35.0071H299.122V31.8071H309.618L307.314 32.7031C307.335 31.9137 307.186 31.2311 306.866 30.6551C306.567 30.0791 306.141 29.6311 305.586 29.3111C305.053 28.9911 304.423 28.8311 303.698 28.8311C302.973 28.8311 302.333 28.9911 301.778 29.3111C301.245 29.6311 300.829 30.0897 300.53 30.6871C300.231 31.2631 300.082 31.9457 300.082 32.7351V33.6631C300.082 34.5164 300.253 35.2524 300.594 35.8711C300.957 36.4897 301.469 36.9697 302.13 37.3111C302.791 37.6311 303.581 37.7911 304.498 37.7911C305.351 37.7911 306.077 37.6737 306.674 37.4391C307.293 37.1831 307.901 36.7991 308.498 36.2871L311.698 39.6151C310.866 40.5324 309.842 41.2364 308.626 41.7271C307.41 42.1964 305.97 42.4311 304.306 42.4311ZM315.749 42.1431V24.7991H321.541V29.8551L320.677 28.4151C321.189 27.1137 322.021 26.1431 323.173 25.5031C324.325 24.8417 325.723 24.5111 327.365 24.5111V29.9831C327.088 29.9404 326.843 29.9191 326.629 29.9191C326.437 29.8977 326.224 29.8871 325.989 29.8871C324.752 29.8871 323.749 30.2284 322.981 30.9111C322.213 31.5724 321.829 32.6604 321.829 34.1751V42.1431H315.749ZM340.786 42.4311C339.314 42.4311 338.056 42.1111 337.01 41.4711C335.965 40.8097 335.165 39.8284 334.61 38.5271C334.077 37.2044 333.81 35.5191 333.81 33.4711C333.81 31.4017 334.066 29.7164 334.578 28.4151C335.09 27.0924 335.858 26.1111 336.882 25.4711C337.928 24.8311 339.229 24.5111 340.786 24.5111C342.365 24.5111 343.794 24.8844 345.074 25.6311C346.376 26.3564 347.4 27.3911 348.146 28.7351C348.914 30.0577 349.298 31.6364 349.298 33.4711C349.298 35.3057 348.914 36.8951 348.146 38.2391C347.4 39.5831 346.376 40.6177 345.074 41.3431C343.794 42.0684 342.365 42.4311 340.786 42.4311ZM329.874 48.3511V24.7991H335.666V27.7431L335.634 33.4711L335.954 39.2311V48.3511H329.874ZM339.506 37.5991C340.189 37.5991 340.797 37.4391 341.33 37.1191C341.885 36.7991 342.322 36.3297 342.642 35.7111C342.984 35.0924 343.154 34.3457 343.154 33.4711C343.154 32.5964 342.984 31.8497 342.642 31.2311C342.322 30.6124 341.885 30.1431 341.33 29.8231C340.797 29.5031 340.189 29.3431 339.506 29.3431C338.824 29.3431 338.205 29.5031 337.65 29.8231C337.117 30.1431 336.68 30.6124 336.338 31.2311C336.018 31.8497 335.858 32.5964 335.858 33.4711C335.858 34.3457 336.018 35.0924 336.338 35.7111C336.68 36.3297 337.117 36.7991 337.65 37.1191C338.205 37.4391 338.824 37.5991 339.506 37.5991ZM361.212 42.4311C359.164 42.4311 357.372 42.0471 355.836 41.2791C354.322 40.4897 353.138 39.4231 352.284 38.0791C351.452 36.7137 351.036 35.1671 351.036 33.4391C351.036 31.7111 351.442 30.1751 352.252 28.8311C353.084 27.4657 354.226 26.4097 355.676 25.6631C357.127 24.8951 358.759 24.5111 360.572 24.5111C362.279 24.5111 363.836 24.8631 365.244 25.5671C366.652 26.2497 367.772 27.2631 368.604 28.6071C369.436 29.9511 369.852 31.5831 369.852 33.5031C369.852 33.7164 369.842 33.9617 369.82 34.2391C369.799 34.5164 369.778 34.7724 369.756 35.0071H356.028V31.8071H366.524L364.22 32.7031C364.242 31.9137 364.092 31.2311 363.772 30.6551C363.474 30.0791 363.047 29.6311 362.492 29.3111C361.959 28.9911 361.33 28.8311 360.604 28.8311C359.879 28.8311 359.239 28.9911 358.684 29.3111C358.151 29.6311 357.735 30.0897 357.436 30.6871C357.138 31.2631 356.988 31.9457 356.988 32.7351V33.6631C356.988 34.5164 357.159 35.2524 357.5 35.8711C357.863 36.4897 358.375 36.9697 359.036 37.3111C359.698 37.6311 360.487 37.7911 361.404 37.7911C362.258 37.7911 362.983 37.6737 363.58 37.4391C364.199 37.1831 364.807 36.7991 365.404 36.2871L368.604 39.6151C367.772 40.5324 366.748 41.2364 365.532 41.7271C364.316 42.1964 362.876 42.4311 361.212 42.4311ZM383.951 24.5111C385.295 24.5111 386.511 24.7884 387.599 25.3431C388.687 25.8764 389.541 26.7084 390.159 27.8391C390.799 28.9697 391.119 30.4311 391.119 32.2231V42.1431H385.039V33.2151C385.039 31.9777 384.783 31.0817 384.271 30.5271C383.781 29.9511 383.087 29.6631 382.191 29.6631C381.551 29.6631 380.965 29.8124 380.431 30.1111C379.898 30.3884 379.482 30.8257 379.183 31.4231C378.885 32.0204 378.735 32.7991 378.735 33.7591V42.1431H372.655V24.7991H378.447V29.7271L377.327 28.2871C377.989 27.0284 378.895 26.0897 380.047 25.4711C381.199 24.8311 382.501 24.5111 383.951 24.5111ZM402.707 42.4311C401.129 42.4311 399.689 42.0684 398.387 41.3431C397.107 40.5964 396.083 39.5617 395.315 38.2391C394.547 36.8951 394.163 35.2951 394.163 33.4391C394.163 31.6044 394.547 30.0257 395.315 28.7031C396.083 27.3591 397.107 26.3244 398.387 25.5991C399.689 24.8737 401.129 24.5111 402.707 24.5111C404.201 24.5111 405.459 24.8311 406.483 25.4711C407.529 26.1111 408.318 27.0924 408.851 28.4151C409.385 29.7377 409.651 31.4124 409.651 33.4391C409.651 35.5084 409.395 37.2044 408.883 38.5271C408.371 39.8497 407.603 40.8311 406.579 41.4711C405.555 42.1111 404.265 42.4311 402.707 42.4311ZM403.987 37.5991C404.67 37.5991 405.278 37.4391 405.811 37.1191C406.366 36.7991 406.803 36.3297 407.123 35.7111C407.443 35.0711 407.603 34.3137 407.603 33.4391C407.603 32.5644 407.443 31.8284 407.123 31.2311C406.803 30.6124 406.366 30.1431 405.811 29.8231C405.278 29.5031 404.67 29.3431 403.987 29.3431C403.283 29.3431 402.654 29.5031 402.099 29.8231C401.566 30.1431 401.139 30.6124 400.819 31.2311C400.499 31.8284 400.339 32.5644 400.339 33.4391C400.339 34.3137 400.499 35.0711 400.819 35.7111C401.139 36.3297 401.566 36.7991 402.099 37.1191C402.654 37.4391 403.283 37.5991 403.987 37.5991ZM407.795 42.1431V39.1671L407.827 33.4391L407.507 27.7111V18.3991H413.587V42.1431H407.795ZM417.499 42.1431V24.7991H423.579V42.1431H417.499ZM420.539 22.8791C419.43 22.8791 418.534 22.5697 417.851 21.9511C417.169 21.3324 416.827 20.5644 416.827 19.6471C416.827 18.7297 417.169 17.9617 417.851 17.3431C418.534 16.7244 419.43 16.4151 420.539 16.4151C421.649 16.4151 422.545 16.7137 423.227 17.3111C423.91 17.8871 424.251 18.6337 424.251 19.5511C424.251 20.5111 423.91 21.3111 423.227 21.9511C422.566 22.5697 421.67 22.8791 420.539 22.8791ZM436.394 42.4311C434.474 42.4311 432.757 42.0471 431.242 41.2791C429.749 40.5111 428.576 39.4551 427.722 38.1111C426.869 36.7457 426.442 35.1884 426.442 33.4391C426.442 31.6897 426.869 30.1431 427.722 28.7991C428.576 27.4551 429.749 26.4097 431.242 25.6631C432.757 24.8951 434.474 24.5111 436.394 24.5111C438.357 24.5111 440.053 24.9271 441.482 25.7591C442.912 26.5911 443.925 27.7644 444.522 29.2791L439.818 31.6791C439.413 30.8684 438.912 30.2817 438.314 29.9191C437.717 29.5351 437.066 29.3431 436.362 29.3431C435.658 29.3431 435.018 29.5031 434.442 29.8231C433.866 30.1431 433.408 30.6124 433.066 31.2311C432.746 31.8284 432.586 32.5644 432.586 33.4391C432.586 34.3351 432.746 35.0924 433.066 35.7111C433.408 36.3297 433.866 36.7991 434.442 37.1191C435.018 37.4391 435.658 37.5991 436.362 37.5991C437.066 37.5991 437.717 37.4177 438.314 37.0551C438.912 36.6711 439.413 36.0737 439.818 35.2631L444.522 37.6631C443.925 39.1777 442.912 40.3511 441.482 41.1831C440.053 42.0151 438.357 42.4311 436.394 42.4311ZM454.108 42.4311C452.7 42.4311 451.43 42.1537 450.3 41.5991C449.19 41.0444 448.316 40.1804 447.676 39.0071C447.057 37.8124 446.748 36.3084 446.748 34.4951V24.7991H452.828V33.5031C452.828 34.8471 453.073 35.8071 453.564 36.3831C454.076 36.9591 454.79 37.2471 455.708 37.2471C456.305 37.2471 456.849 37.1084 457.34 36.8311C457.83 36.5537 458.225 36.1164 458.524 35.5191C458.822 34.9004 458.972 34.1111 458.972 33.1511V24.7991H465.052V42.1431H459.26V37.2471L460.38 38.6231C459.782 39.9031 458.918 40.8631 457.788 41.5031C456.657 42.1217 455.43 42.4311 454.108 42.4311ZM468.968 42.1431V18.3991H475.048V42.1431H468.968ZM489.591 42.1431V38.9111L489.175 38.1111V32.1591C489.175 31.1991 488.877 30.4631 488.279 29.9511C487.703 29.4177 486.775 29.1511 485.495 29.1511C484.663 29.1511 483.821 29.2897 482.967 29.5671C482.114 29.8231 481.389 30.1857 480.791 30.6551L478.743 26.5271C479.725 25.8871 480.898 25.3964 482.263 25.0551C483.65 24.6924 485.026 24.5111 486.391 24.5111C489.207 24.5111 491.383 25.1617 492.919 26.4631C494.477 27.7431 495.255 29.7591 495.255 32.5111V42.1431H489.591ZM484.471 42.4311C483.085 42.4311 481.911 42.1964 480.951 41.7271C479.991 41.2577 479.255 40.6177 478.743 39.8071C478.253 38.9964 478.007 38.0897 478.007 37.0871C478.007 36.0204 478.274 35.1031 478.807 34.3351C479.362 33.5457 480.205 32.9484 481.335 32.5431C482.466 32.1164 483.927 31.9031 485.719 31.9031H489.815V35.0711H486.551C485.57 35.0711 484.877 35.2311 484.471 35.5511C484.087 35.8711 483.895 36.2977 483.895 36.8311C483.895 37.3644 484.098 37.7911 484.503 38.1111C484.909 38.4311 485.463 38.5911 486.167 38.5911C486.829 38.5911 487.426 38.4311 487.959 38.1111C488.514 37.7697 488.919 37.2577 489.175 36.5751L490.007 38.8151C489.687 40.0097 489.058 40.9164 488.119 41.5351C487.202 42.1324 485.986 42.4311 484.471 42.4311ZM499.093 42.1431V24.7991H504.885V29.8551L504.021 28.4151C504.533 27.1137 505.365 26.1431 506.517 25.5031C507.669 24.8417 509.066 24.5111 510.709 24.5111V29.9831C510.432 29.9404 510.186 29.9191 509.973 29.9191C509.781 29.8977 509.568 29.8871 509.333 29.8871C508.096 29.8871 507.093 30.2284 506.325 30.9111C505.557 31.5724 505.173 32.6604 505.173 34.1751V42.1431H499.093ZM555.874 38.5591V23.3271H560.802V38.5591H555.874ZM550.434 33.2791V28.6071H566.21V33.2791H550.434ZM579.631 42.1431V19.7431H591.087C594.031 19.7431 596.228 20.2871 597.679 21.3751C599.13 22.4417 599.855 23.8497 599.855 25.5991C599.855 26.7511 599.546 27.7644 598.927 28.6391C598.33 29.4924 597.476 30.1751 596.367 30.6871C595.279 31.1777 593.978 31.4231 592.463 31.4231L593.103 29.8871C594.682 29.8871 596.058 30.1324 597.231 30.6231C598.404 31.0924 599.311 31.7857 599.951 32.7031C600.612 33.5991 600.943 34.6977 600.943 35.9991C600.943 37.9404 600.154 39.4551 598.575 40.5431C597.018 41.6097 594.735 42.1431 591.727 42.1431H579.631ZM585.903 37.5671H591.215C592.303 37.5671 593.124 37.3857 593.679 37.0231C594.255 36.6391 594.543 36.0631 594.543 35.2951C594.543 34.5271 594.255 33.9617 593.679 33.5991C593.124 33.2151 592.303 33.0231 591.215 33.0231H585.455V28.6391H590.255C591.322 28.6391 592.122 28.4577 592.655 28.0951C593.188 27.7324 593.455 27.1884 593.455 26.4631C593.455 25.7377 593.188 25.2044 592.655 24.8631C592.122 24.5004 591.322 24.3191 590.255 24.3191H585.903V37.5671ZM614.529 42.1431V38.9111L614.113 38.1111V32.1591C614.113 31.1991 613.814 30.4631 613.217 29.9511C612.641 29.4177 611.713 29.1511 610.433 29.1511C609.601 29.1511 608.758 29.2897 607.905 29.5671C607.051 29.8231 606.326 30.1857 605.729 30.6551L603.681 26.5271C604.662 25.8871 605.835 25.3964 607.201 25.0551C608.587 24.6924 609.963 24.5111 611.329 24.5111C614.145 24.5111 616.321 25.1617 617.857 26.4631C619.414 27.7431 620.193 29.7591 620.193 32.5111V42.1431H614.529ZM609.409 42.4311C608.022 42.4311 606.849 42.1964 605.889 41.7271C604.929 41.2577 604.193 40.6177 603.681 39.8071C603.19 38.9964 602.945 38.0897 602.945 37.0871C602.945 36.0204 603.211 35.1031 603.745 34.3351C604.299 33.5457 605.142 32.9484 606.273 32.5431C607.403 32.1164 608.865 31.9031 610.657 31.9031H614.753V35.0711H611.489C610.507 35.0711 609.814 35.2311 609.409 35.5511C609.025 35.8711 608.833 36.2977 608.833 36.8311C608.833 37.3644 609.035 37.7911 609.441 38.1111C609.846 38.4311 610.401 38.5911 611.105 38.5911C611.766 38.5911 612.363 38.4311 612.897 38.1111C613.451 37.7697 613.857 37.2577 614.113 36.5751L614.945 38.8151C614.625 40.0097 613.995 40.9164 613.057 41.5351C612.139 42.1324 610.923 42.4311 609.409 42.4311ZM630.334 42.4311C628.862 42.4311 627.422 42.2604 626.014 41.9191C624.628 41.5777 623.508 41.1511 622.654 40.6391L624.478 36.4791C625.289 36.9697 626.238 37.3644 627.326 37.6631C628.414 37.9404 629.481 38.0791 630.526 38.0791C631.55 38.0791 632.254 37.9724 632.638 37.7591C633.044 37.5457 633.246 37.2577 633.246 36.8951C633.246 36.5537 633.054 36.3084 632.67 36.1591C632.308 35.9884 631.817 35.8604 631.198 35.7751C630.601 35.6897 629.94 35.5937 629.214 35.4871C628.489 35.3804 627.753 35.2417 627.006 35.0711C626.281 34.8791 625.609 34.6017 624.99 34.2391C624.393 33.8551 623.913 33.3431 623.55 32.7031C623.188 32.0631 623.006 31.2524 623.006 30.2711C623.006 29.1617 623.326 28.1804 623.966 27.3271C624.628 26.4524 625.588 25.7697 626.846 25.2791C628.105 24.7671 629.641 24.5111 631.454 24.5111C632.67 24.5111 633.897 24.6391 635.134 24.8951C636.393 25.1297 637.449 25.4924 638.302 25.9831L636.478 30.1111C635.625 29.6204 634.772 29.2897 633.918 29.1191C633.065 28.9271 632.254 28.8311 631.486 28.8311C630.462 28.8311 629.737 28.9484 629.31 29.1831C628.905 29.4177 628.702 29.7057 628.702 30.0471C628.702 30.3884 628.884 30.6551 629.246 30.8471C629.609 31.0177 630.089 31.1564 630.686 31.2631C631.305 31.3484 631.977 31.4444 632.702 31.5511C633.428 31.6364 634.153 31.7751 634.878 31.9671C635.625 32.1591 636.297 32.4471 636.894 32.8311C637.513 33.1937 638.004 33.6951 638.366 34.3351C638.729 34.9537 638.91 35.7537 638.91 36.7351C638.91 37.8017 638.58 38.7617 637.918 39.6151C637.278 40.4684 636.318 41.1511 635.038 41.6631C633.78 42.1751 632.212 42.4311 630.334 42.4311ZM650.618 42.4311C648.57 42.4311 646.778 42.0471 645.242 41.2791C643.728 40.4897 642.544 39.4231 641.69 38.0791C640.858 36.7137 640.442 35.1671 640.442 33.4391C640.442 31.7111 640.848 30.1751 641.658 28.8311C642.49 27.4657 643.632 26.4097 645.082 25.6631C646.533 24.8951 648.165 24.5111 649.978 24.5111C651.685 24.5111 653.242 24.8631 654.65 25.5671C656.058 26.2497 657.178 27.2631 658.01 28.6071C658.842 29.9511 659.258 31.5831 659.258 33.5031C659.258 33.7164 659.248 33.9617 659.226 34.2391C659.205 34.5164 659.184 34.7724 659.162 35.0071H645.434V31.8071H655.93L653.626 32.7031C653.648 31.9137 653.498 31.2311 653.178 30.6551C652.88 30.0791 652.453 29.6311 651.898 29.3111C651.365 28.9911 650.736 28.8311 650.01 28.8311C649.285 28.8311 648.645 28.9911 648.09 29.3111C647.557 29.6311 647.141 30.0897 646.842 30.6871C646.544 31.2631 646.394 31.9457 646.394 32.7351V33.6631C646.394 34.5164 646.565 35.2524 646.906 35.8711C647.269 36.4897 647.781 36.9697 648.442 37.3111C649.104 37.6311 649.893 37.7911 650.81 37.7911C651.664 37.7911 652.389 37.6737 652.986 37.4391C653.605 37.1831 654.213 36.7991 654.81 36.2871L658.01 39.6151C657.178 40.5324 656.154 41.2364 654.938 41.7271C653.722 42.1964 652.282 42.4311 650.618 42.4311ZM252.285 120.431C250.365 120.431 248.648 120.047 247.133 119.279C245.64 118.511 244.466 117.455 243.613 116.111C242.76 114.746 242.333 113.188 242.333 111.439C242.333 109.69 242.76 108.143 243.613 106.799C244.466 105.455 245.64 104.41 247.133 103.663C248.648 102.895 250.365 102.511 252.285 102.511C254.248 102.511 255.944 102.927 257.373 103.759C258.802 104.591 259.816 105.764 260.413 107.279L255.709 109.679C255.304 108.868 254.802 108.282 254.205 107.919C253.608 107.535 252.957 107.343 252.253 107.343C251.549 107.343 250.909 107.503 250.333 107.823C249.757 108.143 249.298 108.612 248.957 109.231C248.637 109.828 248.477 110.564 248.477 111.439C248.477 112.335 248.637 113.092 248.957 113.711C249.298 114.33 249.757 114.799 250.333 115.119C250.909 115.439 251.549 115.599 252.253 115.599C252.957 115.599 253.608 115.418 254.205 115.055C254.802 114.671 255.304 114.074 255.709 113.263L260.413 115.663C259.816 117.178 258.802 118.351 257.373 119.183C255.944 120.015 254.248 120.431 252.285 120.431ZM299.856 107.215V102.575H315.632V107.215H299.856ZM299.856 115.311V110.671H315.632V115.311H299.856ZM339.357 120.143V116.911L338.941 116.111V110.159C338.941 109.199 338.642 108.463 338.045 107.951C337.469 107.418 336.541 107.151 335.261 107.151C334.429 107.151 333.586 107.29 332.733 107.567C331.88 107.823 331.154 108.186 330.557 108.655L328.509 104.527C329.49 103.887 330.664 103.396 332.029 103.055C333.416 102.692 334.792 102.511 336.157 102.511C338.973 102.511 341.149 103.162 342.685 104.463C344.242 105.743 345.021 107.759 345.021 110.511V120.143H339.357ZM334.237 120.431C332.85 120.431 331.677 120.196 330.717 119.727C329.757 119.258 329.021 118.618 328.509 117.807C328.018 116.996 327.773 116.09 327.773 115.087C327.773 114.02 328.04 113.103 328.573 112.335C329.128 111.546 329.97 110.948 331.101 110.543C332.232 110.116 333.693 109.903 335.485 109.903H339.581V113.071H336.317C335.336 113.071 334.642 113.231 334.237 113.551C333.853 113.871 333.661 114.298 333.661 114.831C333.661 115.364 333.864 115.791 334.269 116.111C334.674 116.431 335.229 116.591 335.933 116.591C336.594 116.591 337.192 116.431 337.725 116.111C338.28 115.77 338.685 115.258 338.941 114.575L339.773 116.815C339.453 118.01 338.824 118.916 337.885 119.535C336.968 120.132 335.752 120.431 334.237 120.431ZM382.14 116.559V101.327H387.068V116.559H382.14ZM376.7 111.279V106.607H392.476V111.279H376.7ZM435.146 120.431C433.588 120.431 432.287 120.111 431.242 119.471C430.218 118.831 429.45 117.85 428.938 116.527C428.426 115.204 428.17 113.508 428.17 111.439C428.17 109.412 428.436 107.738 428.97 106.415C429.524 105.092 430.324 104.111 431.37 103.471C432.415 102.831 433.674 102.511 435.146 102.511C436.724 102.511 438.154 102.874 439.434 103.599C440.735 104.324 441.759 105.359 442.506 106.703C443.274 108.026 443.658 109.604 443.658 111.439C443.658 113.295 443.274 114.895 442.506 116.239C441.759 117.562 440.735 118.596 439.434 119.343C438.154 120.068 436.724 120.431 435.146 120.431ZM424.234 120.143V96.3991H430.314V105.711L429.994 111.439L430.026 117.167V120.143H424.234ZM433.866 115.599C434.548 115.599 435.156 115.439 435.69 115.119C436.244 114.799 436.682 114.33 437.002 113.711C437.343 113.071 437.514 112.314 437.514 111.439C437.514 110.564 437.343 109.828 437.002 109.231C436.682 108.612 436.244 108.143 435.69 107.823C435.156 107.503 434.548 107.343 433.866 107.343C433.183 107.343 432.564 107.503 432.01 107.823C431.476 108.143 431.039 108.612 430.698 109.231C430.378 109.828 430.218 110.564 430.218 111.439C430.218 112.314 430.378 113.071 430.698 113.711C431.039 114.33 431.476 114.799 432.01 115.119C432.564 115.439 433.183 115.599 433.866 115.599Z" fill="black"/>
<path d="M238.405 374.665V371.433L237.989 370.633V364.681C237.989 363.721 237.691 362.985 237.093 362.473C236.517 361.939 235.589 361.673 234.309 361.673C233.477 361.673 232.635 361.811 231.781 362.089C230.928 362.345 230.203 362.707 229.605 363.177L227.557 359.049C228.539 358.409 229.712 357.918 231.077 357.577C232.464 357.214 233.84 357.033 235.205 357.033C238.021 357.033 240.197 357.683 241.733 358.985C243.291 360.265 244.069 362.281 244.069 365.033V374.665H238.405ZM233.285 374.953C231.899 374.953 230.725 374.718 229.765 374.249C228.805 373.779 228.069 373.139 227.557 372.329C227.067 371.518 226.821 370.611 226.821 369.609C226.821 368.542 227.088 367.625 227.621 366.857C228.176 366.067 229.019 365.47 230.149 365.065C231.28 364.638 232.741 364.425 234.533 364.425H238.629V367.593H235.365C234.384 367.593 233.691 367.753 233.285 368.073C232.901 368.393 232.709 368.819 232.709 369.353C232.709 369.886 232.912 370.313 233.317 370.633C233.723 370.953 234.277 371.113 234.981 371.113C235.643 371.113 236.24 370.953 236.773 370.633C237.328 370.291 237.733 369.779 237.989 369.097L238.821 371.337C238.501 372.531 237.872 373.438 236.933 374.057C236.016 374.654 234.8 374.953 233.285 374.953Z" fill="black"/>
<path d="M360.014 543.986C358.457 543.986 357.156 543.666 356.11 543.026C355.086 542.386 354.318 541.405 353.806 540.082C353.294 538.76 353.038 537.064 353.038 534.994C353.038 532.968 353.305 531.293 353.838 529.97C354.393 528.648 355.193 527.666 356.238 527.026C357.284 526.386 358.542 526.066 360.014 526.066C361.593 526.066 363.022 526.429 364.302 527.154C365.604 527.88 366.628 528.914 367.374 530.258C368.142 531.581 368.526 533.16 368.526 534.994C368.526 536.85 368.142 538.45 367.374 539.794C366.628 541.117 365.604 542.152 364.302 542.898C363.022 543.624 361.593 543.986 360.014 543.986ZM349.102 543.698V519.954H355.182V529.266L354.862 534.994L354.894 540.722V543.698H349.102ZM358.734 539.154C359.417 539.154 360.025 538.994 360.558 538.674C361.113 538.354 361.55 537.885 361.87 537.266C362.212 536.626 362.382 535.869 362.382 534.994C362.382 534.12 362.212 533.384 361.87 532.786C361.55 532.168 361.113 531.698 360.558 531.378C360.025 531.058 359.417 530.898 358.734 530.898C358.052 530.898 357.433 531.058 356.878 531.378C356.345 531.698 355.908 532.168 355.566 532.786C355.246 533.384 355.086 534.12 355.086 534.994C355.086 535.869 355.246 536.626 355.566 537.266C355.908 537.885 356.345 538.354 356.878 538.674C357.433 538.994 358.052 539.154 358.734 539.154Z" fill="black"/>
<path d="M397.344 354.329C395.424 354.329 393.706 353.945 392.192 353.177C390.698 352.409 389.525 351.353 388.672 350.009C387.818 348.644 387.392 347.086 387.392 345.337C387.392 343.588 387.818 342.041 388.672 340.697C389.525 339.353 390.698 338.308 392.192 337.561C393.706 336.793 395.424 336.409 397.344 336.409C399.306 336.409 401.002 336.825 402.432 337.657C403.861 338.489 404.874 339.662 405.472 341.177L400.768 343.577C400.362 342.766 399.861 342.18 399.264 341.817C398.666 341.433 398.016 341.241 397.312 341.241C396.608 341.241 395.968 341.401 395.392 341.721C394.816 342.041 394.357 342.51 394.016 343.129C393.696 343.726 393.536 344.462 393.536 345.337C393.536 346.233 393.696 346.99 394.016 347.609C394.357 348.228 394.816 348.697 395.392 349.017C395.968 349.337 396.608 349.497 397.312 349.497C398.016 349.497 398.666 349.316 399.264 348.953C399.861 348.569 400.362 347.972 400.768 347.161L405.472 349.561C404.874 351.076 403.861 352.249 402.432 353.081C401.002 353.913 399.306 354.329 397.344 354.329Z" fill="black"/>
<path d="M267.844 500.631V227.945L470.844 500.631H267.844Z" stroke="#5FD5E6" stroke-width="4"/>
<path d="M216.353 23.6431V20.6671L222.641 14.7871C223.089 14.3711 223.417 14.0031 223.625 13.6831C223.849 13.3631 223.993 13.0751 224.057 12.8191C224.137 12.5471 224.177 12.2991 224.177 12.0751C224.177 11.5311 223.993 11.1071 223.625 10.8031C223.273 10.4991 222.737 10.3471 222.017 10.3471C221.409 10.3471 220.841 10.4831 220.313 10.7551C219.785 11.0271 219.353 11.4351 219.017 11.9791L215.489 10.0111C216.113 8.95507 217.017 8.10707 218.201 7.46707C219.385 6.82707 220.801 6.50707 222.449 6.50707C223.745 6.50707 224.881 6.71507 225.857 7.13107C226.833 7.54707 227.593 8.13907 228.137 8.90707C228.697 9.67507 228.977 10.5791 228.977 11.6191C228.977 12.1631 228.905 12.7071 228.761 13.2511C228.617 13.7791 228.337 14.3471 227.921 14.9551C227.521 15.5471 226.921 16.2111 226.121 16.9471L221.129 21.5551L220.337 19.8751H229.433V23.6431H216.353Z" fill="black"/>
<path d="M521.353 23.6431V20.6671L527.641 14.7871C528.089 14.3711 528.417 14.0031 528.625 13.6831C528.849 13.3631 528.993 13.0751 529.057 12.8191C529.137 12.5471 529.177 12.2991 529.177 12.0751C529.177 11.5311 528.993 11.1071 528.625 10.8031C528.273 10.4991 527.737 10.3471 527.017 10.3471C526.409 10.3471 525.841 10.4831 525.313 10.7551C524.785 11.0271 524.353 11.4351 524.017 11.9791L520.489 10.0111C521.113 8.95507 522.017 8.10707 523.201 7.46707C524.385 6.82707 525.801 6.50707 527.449 6.50707C528.745 6.50707 529.881 6.71507 530.857 7.13107C531.833 7.54707 532.593 8.13907 533.137 8.90707C533.697 9.67507 533.977 10.5791 533.977 11.6191C533.977 12.1631 533.905 12.7071 533.761 13.2511C533.617 13.7791 533.337 14.3471 532.921 14.9551C532.521 15.5471 531.921 16.2111 531.121 16.9471L526.129 21.5551L525.337 19.8751H534.433V23.6431H521.353Z" fill="black"/>
<path d="M672.353 24.6431V21.6671L678.641 15.7871C679.089 15.3711 679.417 15.0031 679.625 14.6831C679.849 14.3631 679.993 14.0751 680.057 13.8191C680.137 13.5471 680.177 13.2991 680.177 13.0751C680.177 12.5311 679.993 12.1071 679.625 11.8031C679.273 11.4991 678.737 11.3471 678.017 11.3471C677.409 11.3471 676.841 11.4831 676.313 11.7551C675.785 12.0271 675.353 12.4351 675.017 12.9791L671.489 11.0111C672.113 9.95507 673.017 9.10707 674.201 8.46707C675.385 7.82707 676.801 7.50707 678.449 7.50707C679.745 7.50707 680.881 7.71507 681.857 8.13107C682.833 8.54707 683.593 9.13907 684.137 9.90707C684.697 10.6751 684.977 11.5791 684.977 12.6191C684.977 13.1631 684.905 13.7071 684.761 14.2511C684.617 14.7791 684.337 15.3471 683.921 15.9551C683.521 16.5471 682.921 17.2111 682.121 17.9471L677.129 22.5551L676.337 20.8751H685.433V24.6431H672.353Z" fill="black"/>
<path d="M275.28 106.143V103.167L281.568 97.2871C282.016 96.8711 282.344 96.5031 282.552 96.1831C282.776 95.8631 282.92 95.5751 282.984 95.3191C283.064 95.0471 283.104 94.7991 283.104 94.5751C283.104 94.0311 282.92 93.6071 282.552 93.3031C282.2 92.9991 281.664 92.8471 280.944 92.8471C280.336 92.8471 279.768 92.9831 279.24 93.2551C278.712 93.5271 278.28 93.9351 277.944 94.4791L274.416 92.5111C275.04 91.4551 275.944 90.6071 277.128 89.9671C278.312 89.3271 279.728 89.0071 281.376 89.0071C282.672 89.0071 283.808 89.2151 284.784 89.6311C285.76 90.0471 286.52 90.6391 287.064 91.4071C287.624 92.1751 287.904 93.0791 287.904 94.1191C287.904 94.6631 287.832 95.2071 287.688 95.7511C287.544 96.2791 287.264 96.8471 286.848 97.4551C286.448 98.0471 285.848 98.7111 285.048 99.4471L280.056 104.055L279.264 102.375H288.36V106.143H275.28Z" fill="black"/>
<path d="M353.72 106.143V103.167L360.008 97.2871C360.456 96.8711 360.784 96.5031 360.992 96.1831C361.216 95.8631 361.36 95.5751 361.424 95.3191C361.504 95.0471 361.544 94.7991 361.544 94.5751C361.544 94.0311 361.36 93.6071 360.992 93.3031C360.64 92.9991 360.104 92.8471 359.384 92.8471C358.776 92.8471 358.208 92.9831 357.68 93.2551C357.152 93.5271 356.72 93.9351 356.384 94.4791L352.856 92.5111C353.48 91.4551 354.384 90.6071 355.568 89.9671C356.752 89.3271 358.168 89.0071 359.816 89.0071C361.112 89.0071 362.248 89.2151 363.224 89.6311C364.2 90.0471 364.96 90.6391 365.504 91.4071C366.064 92.1751 366.344 93.0791 366.344 94.1191C366.344 94.6631 366.272 95.2071 366.128 95.7511C365.984 96.2791 365.704 96.8471 365.288 97.4551C364.888 98.0471 364.288 98.7111 363.488 99.4471L358.496 104.055L357.704 102.375H366.8V106.143H353.72Z" fill="black"/>
<path d="M451.199 106.143V103.167L457.487 97.2871C457.935 96.8711 458.263 96.5031 458.471 96.1831C458.695 95.8631 458.839 95.5751 458.903 95.3191C458.983 95.0471 459.023 94.7991 459.023 94.5751C459.023 94.0311 458.839 93.6071 458.471 93.3031C458.119 92.9991 457.583 92.8471 456.863 92.8471C456.255 92.8471 455.687 92.9831 455.159 93.2551C454.631 93.5271 454.199 93.9351 453.863 94.4791L450.335 92.5111C450.959 91.4551 451.863 90.6071 453.047 89.9671C454.231 89.3271 455.647 89.0071 457.295 89.0071C458.591 89.0071 459.727 89.2151 460.703 89.6311C461.679 90.0471 462.439 90.6391 462.983 91.4071C463.543 92.1751 463.823 93.0791 463.823 94.1191C463.823 94.6631 463.751 95.2071 463.607 95.7511C463.463 96.2791 463.183 96.8471 462.767 97.4551C462.367 98.0471 461.767 98.7111 460.967 99.4471L455.975 104.055L455.183 102.375H464.279V106.143H451.199Z" fill="black"/>
<path d="M331.624 612.29H338.084V615.35H331.624V612.29ZM331.904 620.15H327.944V606.15H338.924V609.21H331.904V620.15ZM340.596 620.15V609.31H344.396V620.15H340.596ZM342.496 608.11C341.803 608.11 341.243 607.917 340.816 607.53C340.39 607.144 340.176 606.664 340.176 606.09C340.176 605.517 340.39 605.037 340.816 604.65C341.243 604.264 341.803 604.07 342.496 604.07C343.19 604.07 343.75 604.257 344.176 604.63C344.603 604.99 344.816 605.457 344.816 606.03C344.816 606.63 344.603 607.13 344.176 607.53C343.763 607.917 343.203 608.11 342.496 608.11ZM352.166 624.21C351.126 624.21 350.133 624.09 349.186 623.85C348.253 623.61 347.453 623.257 346.786 622.79L348.166 620.13C348.619 620.49 349.179 620.77 349.846 620.97C350.526 621.184 351.186 621.29 351.826 621.29C352.853 621.29 353.593 621.064 354.046 620.61C354.499 620.17 354.726 619.524 354.726 618.67V617.39L354.926 614.35L354.906 611.29V609.31H358.526V618.17C358.526 620.224 357.973 621.744 356.866 622.73C355.759 623.717 354.193 624.21 352.166 624.21ZM351.506 619.59C350.546 619.59 349.659 619.377 348.846 618.95C348.046 618.51 347.399 617.904 346.906 617.13C346.426 616.344 346.186 615.417 346.186 614.35C346.186 613.284 346.426 612.364 346.906 611.59C347.399 610.804 348.046 610.197 348.846 609.77C349.659 609.344 350.546 609.13 351.506 609.13C352.426 609.13 353.213 609.317 353.866 609.69C354.519 610.05 355.013 610.617 355.346 611.39C355.693 612.164 355.866 613.15 355.866 614.35C355.866 615.55 355.693 616.537 355.346 617.31C355.013 618.084 354.519 618.657 353.866 619.03C353.213 619.404 352.426 619.59 351.506 619.59ZM352.406 616.57C352.859 616.57 353.259 616.477 353.606 616.29C353.966 616.104 354.246 615.844 354.446 615.51C354.659 615.177 354.766 614.79 354.766 614.35C354.766 613.91 354.659 613.524 354.446 613.19C354.246 612.857 353.966 612.604 353.606 612.43C353.259 612.244 352.859 612.15 352.406 612.15C351.953 612.15 351.546 612.244 351.186 612.43C350.826 612.604 350.539 612.857 350.326 613.19C350.126 613.524 350.026 613.91 350.026 614.35C350.026 614.79 350.126 615.177 350.326 615.51C350.539 615.844 350.826 616.104 351.186 616.29C351.546 616.477 351.953 616.57 352.406 616.57ZM368.288 620.15V607.57L369.988 609.21H365.688V606.15H372.248V620.15H368.288ZM376.493 620.33C375.853 620.33 375.313 620.117 374.873 619.69C374.433 619.264 374.213 618.724 374.213 618.07C374.213 617.39 374.433 616.85 374.873 616.45C375.313 616.037 375.853 615.83 376.493 615.83C377.133 615.83 377.673 616.037 378.113 616.45C378.553 616.85 378.773 617.39 378.773 618.07C378.773 618.724 378.553 619.264 378.113 619.69C377.673 620.117 377.133 620.33 376.493 620.33ZM381.706 620.15V607.57L383.406 609.21H379.106V606.15H385.666V620.15H381.706Z" fill="black"/>
</svg>
