<svg width="307" height="413" viewBox="0 0 307 413" fill="none" xmlns="http://www.w3.org/2000/svg">
<path d="M272.882 331.665L282.77 309.265H289.01L298.93 331.665H292.338L284.594 312.369H287.09L279.346 331.665H272.882ZM278.29 327.313L279.922 322.641H290.866L292.498 327.313H278.29Z" fill="black"/>
<path d="M200.929 213.665V191.265H211.521C213.996 191.265 216.172 191.723 218.049 192.641C219.927 193.558 221.388 194.849 222.433 196.513C223.5 198.177 224.033 200.161 224.033 202.465C224.033 204.747 223.5 206.731 222.433 208.417C221.388 210.081 219.927 211.371 218.049 212.289C216.172 213.206 213.996 213.665 211.521 213.665H200.929ZM207.265 208.609H211.265C212.545 208.609 213.655 208.374 214.593 207.905C215.553 207.414 216.3 206.71 216.833 205.793C217.367 204.854 217.633 203.745 217.633 202.465C217.633 201.163 217.367 200.054 216.833 199.137C216.3 198.219 215.553 197.526 214.593 197.057C213.655 196.566 212.545 196.321 211.265 196.321H207.265V208.609Z" fill="black"/>
<path d="M13.2185 334.698V312.298H24.6745C27.6185 312.298 29.8158 312.842 31.2665 313.93C32.7172 314.997 33.4425 316.405 33.4425 318.154C33.4425 319.306 33.1332 320.32 32.5145 321.194C31.9172 322.048 31.0639 322.73 29.9545 323.242C28.8665 323.733 27.5652 323.978 26.0505 323.978L26.6905 322.442C28.2692 322.442 29.6452 322.688 30.8185 323.178C31.9918 323.648 32.8985 324.341 33.5385 325.258C34.1999 326.154 34.5305 327.253 34.5305 328.554C34.5305 330.496 33.7412 332.01 32.1625 333.098C30.6052 334.165 28.3225 334.698 25.3145 334.698H13.2185ZM19.4905 330.122H24.8025C25.8905 330.122 26.7118 329.941 27.2665 329.578C27.8425 329.194 28.1305 328.618 28.1305 327.85C28.1305 327.082 27.8425 326.517 27.2665 326.154C26.7118 325.77 25.8905 325.578 24.8025 325.578H19.0425V321.194H23.8425C24.9092 321.194 25.7092 321.013 26.2425 320.65C26.7758 320.288 27.0425 319.744 27.0425 319.018C27.0425 318.293 26.7758 317.76 26.2425 317.418C25.7092 317.056 24.9092 316.874 23.8425 316.874H19.4905V330.122Z" fill="black"/>
<path d="M54.3022 306.45L70.249 295.287" stroke="#5FD5E6" stroke-width="4"/>
<path d="M74.3022 292.45L90.249 281.287" stroke="#5FD5E6" stroke-width="4"/>
<path d="M94.3022 278.45L110.249 267.287" stroke="#5FD5E6" stroke-width="4"/>
<path d="M114.302 264.45L130.249 253.287" stroke="#5FD5E6" stroke-width="4"/>
<path d="M134.302 250.45L150.249 239.287" stroke="#5FD5E6" stroke-width="4"/>
<path d="M154.302 236.45L170.249 225.287" stroke="#5FD5E6" stroke-width="4"/>
<path d="M174.302 222.45L185.463 214.757" stroke="#5FD5E6" stroke-width="4"/>
<path d="M166.726 225.92L154.766 211.568L174.3 197.615" stroke="#5FD5E6" stroke-width="4"/>
<path d="M22.764 31.489C20.9933 31.489 19.3506 31.2117 17.836 30.657C16.3426 30.081 15.0413 29.2703 13.932 28.225C12.844 27.1797 11.9906 25.953 11.372 24.545C10.7533 23.1157 10.444 21.5477 10.444 19.841C10.444 18.1343 10.7533 16.577 11.372 15.169C11.9906 13.7397 12.844 12.5023 13.932 11.457C15.0413 10.4117 16.3426 9.61168 17.836 9.05701C19.3506 8.48101 20.9933 8.19301 22.764 8.19301C24.8333 8.19301 26.6786 8.55568 28.3 9.28102C29.9426 10.0063 31.308 11.0517 32.396 12.417L28.364 16.065C27.6386 15.2117 26.8386 14.561 25.964 14.113C25.1106 13.665 24.1506 13.441 23.084 13.441C22.1666 13.441 21.324 13.5903 20.556 13.889C19.788 14.1877 19.1266 14.625 18.572 15.201C18.0386 15.7557 17.612 16.4277 17.292 17.217C16.9933 18.0063 16.844 18.881 16.844 19.841C16.844 20.801 16.9933 21.6757 17.292 22.465C17.612 23.2543 18.0386 23.937 18.572 24.513C19.1266 25.0677 19.788 25.4943 20.556 25.793C21.324 26.0917 22.1666 26.241 23.084 26.241C24.1506 26.241 25.1106 26.017 25.964 25.569C26.8386 25.121 27.6386 24.4703 28.364 23.617L32.396 27.265C31.308 28.609 29.9426 29.6543 28.3 30.401C26.6786 31.1263 24.8333 31.489 22.764 31.489Z" fill="black"/>
<path d="M52.8442 307.631V34.9453L255.844 307.631H52.8442Z" stroke="#5FD5E6" stroke-width="4"/>
<path d="M116.624 399.29H123.084V402.35H116.624V399.29ZM116.904 407.15H112.944V393.15H123.924V396.21H116.904V407.15ZM125.596 407.15V396.31H129.396V407.15H125.596ZM127.496 395.11C126.803 395.11 126.243 394.917 125.816 394.53C125.39 394.144 125.176 393.664 125.176 393.09C125.176 392.517 125.39 392.037 125.816 391.65C126.243 391.264 126.803 391.07 127.496 391.07C128.19 391.07 128.75 391.257 129.176 391.63C129.603 391.99 129.816 392.457 129.816 393.03C129.816 393.63 129.603 394.13 129.176 394.53C128.763 394.917 128.203 395.11 127.496 395.11ZM137.166 411.21C136.126 411.21 135.133 411.09 134.186 410.85C133.253 410.61 132.453 410.257 131.786 409.79L133.166 407.13C133.619 407.49 134.179 407.77 134.846 407.97C135.526 408.184 136.186 408.29 136.826 408.29C137.853 408.29 138.593 408.064 139.046 407.61C139.499 407.17 139.726 406.524 139.726 405.67V404.39L139.926 401.35L139.906 398.29V396.31H143.526V405.17C143.526 407.224 142.973 408.744 141.866 409.73C140.759 410.717 139.193 411.21 137.166 411.21ZM136.506 406.59C135.546 406.59 134.659 406.377 133.846 405.95C133.046 405.51 132.399 404.904 131.906 404.13C131.426 403.344 131.186 402.417 131.186 401.35C131.186 400.284 131.426 399.364 131.906 398.59C132.399 397.804 133.046 397.197 133.846 396.77C134.659 396.344 135.546 396.13 136.506 396.13C137.426 396.13 138.213 396.317 138.866 396.69C139.519 397.05 140.013 397.617 140.346 398.39C140.693 399.164 140.866 400.15 140.866 401.35C140.866 402.55 140.693 403.537 140.346 404.31C140.013 405.084 139.519 405.657 138.866 406.03C138.213 406.404 137.426 406.59 136.506 406.59ZM137.406 403.57C137.859 403.57 138.259 403.477 138.606 403.29C138.966 403.104 139.246 402.844 139.446 402.51C139.659 402.177 139.766 401.79 139.766 401.35C139.766 400.91 139.659 400.524 139.446 400.19C139.246 399.857 138.966 399.604 138.606 399.43C138.259 399.244 137.859 399.15 137.406 399.15C136.953 399.15 136.546 399.244 136.186 399.43C135.826 399.604 135.539 399.857 135.326 400.19C135.126 400.524 135.026 400.91 135.026 401.35C135.026 401.79 135.126 402.177 135.326 402.51C135.539 402.844 135.826 403.104 136.186 403.29C136.546 403.477 136.953 403.57 137.406 403.57ZM153.288 407.15V394.57L154.988 396.21H150.688V393.15H157.248V407.15H153.288ZM161.493 407.33C160.853 407.33 160.313 407.117 159.873 406.69C159.433 406.264 159.213 405.724 159.213 405.07C159.213 404.39 159.433 403.85 159.873 403.45C160.313 403.037 160.853 402.83 161.493 402.83C162.133 402.83 162.673 403.037 163.113 403.45C163.553 403.85 163.773 404.39 163.773 405.07C163.773 405.724 163.553 406.264 163.113 406.69C162.673 407.117 162.133 407.33 161.493 407.33ZM165.133 407.15V404.67L170.373 399.77C170.746 399.424 171.019 399.117 171.193 398.85C171.379 398.584 171.499 398.344 171.553 398.13C171.619 397.904 171.653 397.697 171.653 397.51C171.653 397.057 171.499 396.704 171.193 396.45C170.899 396.197 170.453 396.07 169.853 396.07C169.346 396.07 168.873 396.184 168.433 396.41C167.993 396.637 167.633 396.977 167.353 397.43L164.413 395.79C164.933 394.91 165.686 394.204 166.673 393.67C167.659 393.137 168.839 392.87 170.213 392.87C171.293 392.87 172.239 393.044 173.053 393.39C173.866 393.737 174.499 394.23 174.953 394.87C175.419 395.51 175.653 396.264 175.653 397.13C175.653 397.584 175.593 398.037 175.473 398.49C175.353 398.93 175.119 399.404 174.773 399.91C174.439 400.404 173.939 400.957 173.273 401.57L169.113 405.41L168.453 404.01H176.033V407.15H165.133Z" fill="black"/>
</svg>
