<svg width="131" height="185" viewBox="0 0 131 185" fill="none" xmlns="http://www.w3.org/2000/svg">
<path d="M28.4126 154.505V7L126.484 154.505H28.4126Z" stroke="#5FD5E6" stroke-width="4"/>
<path d="M8.73307 94.7422V92.7222L8.47307 92.2222V88.5022C8.47307 87.9022 8.2864 87.4422 7.91307 87.1222C7.55307 86.7889 6.97307 86.6222 6.17307 86.6222C5.65307 86.6222 5.1264 86.7089 4.59307 86.8822C4.05973 87.0422 3.6064 87.2689 3.23307 87.5622L1.95307 84.9822C2.5664 84.5822 3.29973 84.2755 4.15307 84.0622C5.01973 83.8355 5.87973 83.7222 6.73307 83.7222C8.49307 83.7222 9.85307 84.1289 10.8131 84.9422C11.7864 85.7422 12.2731 87.0022 12.2731 88.7222V94.7422H8.73307ZM5.53307 94.9222C4.6664 94.9222 3.93307 94.7755 3.33307 94.4822C2.73307 94.1889 2.27307 93.7889 1.95307 93.2822C1.6464 92.7755 1.49307 92.2089 1.49307 91.5822C1.49307 90.9155 1.65973 90.3422 1.99307 89.8622C2.33973 89.3689 2.8664 88.9955 3.57307 88.7422C4.27973 88.4755 5.19307 88.3422 6.31307 88.3422H8.87307V90.3222H6.83307C6.21973 90.3222 5.7864 90.4222 5.53307 90.6222C5.29307 90.8222 5.17307 91.0889 5.17307 91.4222C5.17307 91.7555 5.29973 92.0222 5.55307 92.2222C5.8064 92.4222 6.15307 92.5222 6.59307 92.5222C7.0064 92.5222 7.37973 92.4222 7.71307 92.2222C8.05973 92.0089 8.31307 91.6889 8.47307 91.2622L8.99307 92.6622C8.79307 93.4089 8.39973 93.9755 7.81307 94.3622C7.23973 94.7355 6.47973 94.9222 5.53307 94.9222Z" fill="white"/>
<path d="M72.9296 180.026C71.9563 180.026 71.143 179.826 70.4896 179.426C69.8496 179.026 69.3696 178.413 69.0496 177.586C68.7296 176.76 68.5696 175.7 68.5696 174.406C68.5696 173.14 68.7363 172.093 69.0696 171.266C69.4163 170.44 69.9163 169.826 70.5696 169.426C71.223 169.026 72.0096 168.826 72.9296 168.826C73.9163 168.826 74.8096 169.053 75.6096 169.506C76.423 169.96 77.063 170.606 77.5296 171.446C78.0096 172.273 78.2496 173.26 78.2496 174.406C78.2496 175.566 78.0096 176.566 77.5296 177.406C77.063 178.233 76.423 178.88 75.6096 179.346C74.8096 179.8 73.9163 180.026 72.9296 180.026ZM66.1096 179.846V165.006H69.9096V170.826L69.7096 174.406L69.7296 177.986V179.846H66.1096ZM72.1296 177.006C72.5563 177.006 72.9363 176.906 73.2696 176.706C73.6163 176.506 73.8896 176.213 74.0896 175.826C74.303 175.426 74.4096 174.953 74.4096 174.406C74.4096 173.86 74.303 173.4 74.0896 173.026C73.8896 172.64 73.6163 172.346 73.2696 172.146C72.9363 171.946 72.5563 171.846 72.1296 171.846C71.703 171.846 71.3163 171.946 70.9696 172.146C70.6363 172.346 70.363 172.64 70.1496 173.026C69.9496 173.4 69.8496 173.86 69.8496 174.406C69.8496 174.953 69.9496 175.426 70.1496 175.826C70.363 176.213 70.6363 176.506 70.9696 176.706C71.3163 176.906 71.703 177.006 72.1296 177.006Z" fill="white"/>
<path d="M99.26 81.1175C98.06 81.1175 96.9867 80.8775 96.04 80.3975C95.1067 79.9175 94.3733 79.2575 93.84 78.4175C93.3067 77.5642 93.04 76.5908 93.04 75.4975C93.04 74.4042 93.3067 73.4375 93.84 72.5975C94.3733 71.7575 95.1067 71.1042 96.04 70.6375C96.9867 70.1575 98.06 69.9175 99.26 69.9175C100.487 69.9175 101.547 70.1775 102.44 70.6975C103.333 71.2175 103.967 71.9508 104.34 72.8975L101.4 74.3975C101.147 73.8908 100.833 73.5242 100.46 73.2975C100.087 73.0575 99.68 72.9375 99.24 72.9375C98.8 72.9375 98.4 73.0375 98.04 73.2375C97.68 73.4375 97.3933 73.7308 97.18 74.1175C96.98 74.4908 96.88 74.9508 96.88 75.4975C96.88 76.0575 96.98 76.5308 97.18 76.9175C97.3933 77.3042 97.68 77.5975 98.04 77.7975C98.4 77.9975 98.8 78.0975 99.24 78.0975C99.68 78.0975 100.087 77.9842 100.46 77.7575C100.833 77.5175 101.147 77.1442 101.4 76.6375L104.34 78.1375C103.967 79.0842 103.333 79.8175 102.44 80.3375C101.547 80.8575 100.487 81.1175 99.26 81.1175Z" fill="white"/>
</svg>
