<svg width="153" height="190" viewBox="0 0 153 190" fill="none" xmlns="http://www.w3.org/2000/svg">
<path d="M96.6675 16.721L148.136 154.956L4.76015 50.9404L96.6675 16.721Z" stroke="#5FD5E6" stroke-width="4"/>
<path d="M49.7331 19.9375V17.9175L49.4731 17.4175V13.6975C49.4731 13.0975 49.2864 12.6375 48.9131 12.3175C48.5531 11.9842 47.9731 11.8175 47.1731 11.8175C46.6531 11.8175 46.1264 11.9042 45.5931 12.0775C45.0597 12.2375 44.6064 12.4642 44.2331 12.7575L42.9531 10.1775C43.5664 9.7775 44.2997 9.47083 45.1531 9.2575C46.0197 9.03083 46.8797 8.9175 47.7331 8.9175C49.4931 8.9175 50.8531 9.32417 51.8131 10.1375C52.7864 10.9375 53.2731 12.1975 53.2731 13.9175V19.9375H49.7331ZM46.5331 20.1175C45.6664 20.1175 44.9331 19.9708 44.3331 19.6775C43.7331 19.3842 43.2731 18.9842 42.9531 18.4775C42.6464 17.9708 42.4931 17.4042 42.4931 16.7775C42.4931 16.1108 42.6597 15.5375 42.9931 15.0575C43.3397 14.5642 43.8664 14.1908 44.5731 13.9375C45.2797 13.6708 46.1931 13.5375 47.3131 13.5375H49.8731V15.5175H47.8331C47.2197 15.5175 46.7864 15.6175 46.5331 15.8175C46.2931 16.0175 46.1731 16.2842 46.1731 16.6175C46.1731 16.9508 46.2997 17.2175 46.5531 17.4175C46.8064 17.6175 47.1531 17.7175 47.5931 17.7175C48.0064 17.7175 48.3797 17.6175 48.7131 17.4175C49.0597 17.2042 49.3131 16.8842 49.4731 16.4575L49.9931 17.8575C49.7931 18.6042 49.3997 19.1708 48.8131 19.5575C48.2397 19.9308 47.4797 20.1175 46.5331 20.1175Z" fill="white"/>
<path d="M141.93 84.0262C140.956 84.0262 140.143 83.8262 139.49 83.4262C138.85 83.0262 138.37 82.4129 138.05 81.5862C137.73 80.7595 137.57 79.6995 137.57 78.4062C137.57 77.1395 137.736 76.0929 138.07 75.2662C138.416 74.4395 138.916 73.8262 139.57 73.4262C140.223 73.0262 141.01 72.8262 141.93 72.8262C142.916 72.8262 143.81 73.0529 144.61 73.5062C145.423 73.9595 146.063 74.6062 146.53 75.4462C147.01 76.2729 147.25 77.2595 147.25 78.4062C147.25 79.5662 147.01 80.5662 146.53 81.4062C146.063 82.2329 145.423 82.8795 144.61 83.3462C143.81 83.7995 142.916 84.0262 141.93 84.0262ZM135.11 83.8462V69.0062H138.91V74.8262L138.71 78.4062L138.73 81.9862V83.8462H135.11ZM141.13 81.0062C141.556 81.0062 141.936 80.9062 142.27 80.7062C142.616 80.5062 142.89 80.2129 143.09 79.8262C143.303 79.4262 143.41 78.9529 143.41 78.4062C143.41 77.8595 143.303 77.3995 143.09 77.0262C142.89 76.6395 142.616 76.3462 142.27 76.1462C141.936 75.9462 141.556 75.8462 141.13 75.8462C140.703 75.8462 140.316 75.9462 139.97 76.1462C139.636 76.3462 139.363 76.6395 139.15 77.0262C138.95 77.3995 138.85 77.8595 138.85 78.4062C138.85 78.9529 138.95 79.4262 139.15 79.8262C139.363 80.2129 139.636 80.5062 139.97 80.7062C140.316 80.9062 140.703 81.0062 141.13 81.0062Z" fill="white"/>
<path d="M68.26 125.118C67.06 125.118 65.9867 124.878 65.04 124.397C64.1067 123.917 63.3733 123.257 62.84 122.417C62.3067 121.564 62.04 120.591 62.04 119.497C62.04 118.404 62.3067 117.437 62.84 116.597C63.3733 115.757 64.1067 115.104 65.04 114.637C65.9867 114.157 67.06 113.918 68.26 113.918C69.4867 113.918 70.5467 114.177 71.44 114.697C72.3333 115.217 72.9667 115.951 73.34 116.897L70.4 118.397C70.1467 117.891 69.8333 117.524 69.46 117.297C69.0867 117.057 68.68 116.937 68.24 116.937C67.8 116.937 67.4 117.037 67.04 117.237C66.68 117.437 66.3933 117.731 66.18 118.117C65.98 118.491 65.88 118.951 65.88 119.497C65.88 120.057 65.98 120.531 66.18 120.917C66.3933 121.304 66.68 121.597 67.04 121.797C67.4 121.997 67.8 122.097 68.24 122.097C68.68 122.097 69.0867 121.984 69.46 121.757C69.8333 121.517 70.1467 121.144 70.4 120.637L73.34 122.137C72.9667 123.084 72.3333 123.817 71.44 124.337C70.5467 124.857 69.4867 125.118 68.26 125.118Z" fill="white"/>
<path d="M34.1143 40.5847L20.5596 61.3152" stroke="#5FD5E6" stroke-width="4"/>
<path d="M51.6554 34.2062L31.7223 69.2885" stroke="#5FD5E6" stroke-width="4"/>
<path d="M44.4795 79.6536L72.3857 26.2329" stroke="#5FD5E6" stroke-width="4"/>
<path d="M53.25 88.4243L91.5215 19.0569" stroke="#5FD5E6" stroke-width="4"/>
<path d="M64.4126 94.803L101.887 30.2195" stroke="#5FD5E6" stroke-width="4"/>
<path d="M76.3726 103.573L109.063 50.95" stroke="#5FD5E6" stroke-width="4"/>
<path d="M88.332 113.141L117.036 71.6804" stroke="#5FD5E6" stroke-width="4"/>
<path d="M99.4946 119.52L124.212 90.8162" stroke="#5FD5E6" stroke-width="4"/>
<path d="M112.252 129.885L131.388 109.155" stroke="#5FD5E6" stroke-width="4"/>
<path d="M125.009 139.453L137.767 125.899" stroke="#5FD5E6" stroke-width="4"/>
</svg>
