<svg width="201" height="183" viewBox="0 0 201 183" fill="none" xmlns="http://www.w3.org/2000/svg">
<path d="M198.081 81.5532L198.081 81.5634C198.209 106.64 180.62 132.869 157.016 152.181C133.404 171.5 104.466 183.327 82.6635 180.327L82.5278 180.308H82.3909C38.5394 180.308 2.99072 144.76 2.99072 100.908C2.99072 90.1924 7.3352 78.6555 14.734 67.2905C22.1212 55.9434 32.468 44.9014 44.2476 35.217C67.8874 15.782 96.8677 2.15308 118.681 2.15308C162.533 2.15308 198.081 37.7017 198.081 81.5532Z" stroke="#17A47C" stroke-width="4"/>
<path d="M142.21 98.7298C142.21 126.406 119.773 148.842 92.0965 148.842C64.4198 148.842 41.9834 126.406 41.9834 98.7298C41.9834 71.0534 64.4198 48.6172 92.0965 48.6172C119.773 48.6172 142.21 71.0534 142.21 98.7298Z" fill="#B9A22B" stroke="#17A47C" stroke-width="3"/>
<path d="M124.969 22.2039C124.969 26.9965 121.083 30.8817 116.291 30.8817C111.498 30.8817 107.613 26.9965 107.613 22.2039C107.613 17.4113 111.498 13.5261 116.291 13.5261C121.083 13.5261 124.969 17.4113 124.969 22.2039Z" fill="#B9A22B" stroke="#17A47C" stroke-width="2"/>
<path d="M30.6135 87.125C30.6135 91.9176 26.7283 95.8028 21.9357 95.8028C17.143 95.8028 13.2578 91.9176 13.2578 87.125C13.2578 82.3324 17.143 78.4473 21.9357 78.4473C26.7283 78.4473 30.6135 82.3324 30.6135 87.125Z" fill="#B9A22B" stroke="#17A47C" stroke-width="2"/>
<path d="M118.892 160.02C118.892 164.813 115.007 168.698 110.214 168.698C105.421 168.698 101.536 164.813 101.536 160.02C101.536 155.228 105.421 151.343 110.214 151.343C115.007 151.343 118.892 155.228 118.892 160.02Z" fill="#B9A22B" stroke="#17A47C" stroke-width="2"/>
<path d="M183.839 67.4223C183.839 73.9959 178.51 79.3248 171.936 79.3248C165.363 79.3248 160.034 73.9959 160.034 67.4223C160.034 60.8487 165.363 55.5198 171.936 55.5198C178.51 55.5198 183.839 60.8487 183.839 67.4223Z" fill="#B9A22B" stroke="#17A47C" stroke-width="2"/>
<path d="M131.42 106.131C131.42 119.831 120.313 130.938 106.613 130.938C92.9125 130.938 81.8062 119.831 81.8062 106.131C81.8062 92.4309 92.9125 81.3247 106.613 81.3247C120.313 81.3247 131.42 92.4309 131.42 106.131Z" fill="#87BE91" stroke="#DFA219" stroke-width="2"/>
</svg>
