<svg width="192" height="211" viewBox="0 0 192 211" fill="none" xmlns="http://www.w3.org/2000/svg">
<path d="M31.1128 183.016L29.0967 176.161L34.7419 166.887C50.7841 145.8 56.1566 131.997 61.758 105.194L65.7903 128.984C66.2088 156.942 60.866 172.506 59.3387 203.177H94.4193L96.4354 197.936V203.177H133.532C129.51 173.801 125.836 156.988 127.484 128.984L131.919 105.194C137.404 132.133 141.228 146.788 158.129 166.887L162.161 176.161V183.016L172.645 206C174.696 207.429 176.048 207.827 178.693 208.016C180.243 205.953 180.702 204.891 180.71 203.177V183.016L189.984 189.468V185.839L182.726 178.177L172.645 170.113C164.74 146.565 160.574 133.17 150.468 118.903C149.28 105.25 148.699 97.6839 148.452 85.0324C146.478 76.9575 144.527 72.6727 138.774 65.6776C127.186 63.8978 121.296 61.9474 113.371 54.3872H108.935C106.165 49.0338 106.739 46.031 108.935 40.6774C113.678 17.8189 116.953 4.49422 96.0322 2.77417C79.5631 3.97023 76.6589 12.1095 83.129 40.6774C84.8687 46.9765 84.6444 50.508 83.129 56.8065L80.7096 54.3872C72.1711 61.0827 66.306 63.3677 54.5 65.6776C47.8003 71.4708 46.2437 76.0495 44.8225 85.0324L42.4032 118.903C30.3319 135.03 24.6613 166.282 20.2258 170.113C15.7903 173.944 13.4287 173.784 10.9518 178.177C7.26972 180.385 5.29939 182.022 2.08057 185.839V189.468H4.90329L10.9518 185.839V203.177C11.3801 205.551 12.0778 206.659 14.5808 208.016C17.1362 207.816 18.4084 207.397 20.2258 206L31.1128 183.016Z" stroke="#17A47C" stroke-width="4"/>
</svg>
