<svg width="252" height="250" viewBox="0 0 252 250" fill="none" xmlns="http://www.w3.org/2000/svg">
<path d="M236.941 121.868L220.149 107.796L203.353 127.862L220.119 141.902C221.104 142.716 221.932 143.631 222.627 144.64C223.85 146.486 224.597 148.607 224.799 150.813C224.889 151.935 224.833 153.064 224.63 154.171C224.277 156.332 223.387 158.369 222.042 160.097C220.579 161.949 218.632 163.36 216.417 164.175L160.216 185.74L150.842 161.31L116.043 216.703L178.964 234.599L169.59 210.17L225.791 188.605C229.187 187.302 232.361 185.565 235.187 183.472C240.651 179.441 244.954 174.038 247.661 167.811C248.997 164.79 249.936 161.613 250.452 158.43C252.146 148.434 249.896 138.17 244.174 129.799C242.118 126.853 239.686 124.187 236.941 121.868ZM28.1846 138.854L21.622 206.114C21.2819 209.596 21.3998 213.108 21.9726 216.56C23.0788 223.011 25.7826 229.084 29.8374 234.222C33.8922 239.361 39.169 243.403 45.1865 245.979C48.1763 247.27 51.3073 248.199 54.5776 248.724C61.3766 249.77 68.3309 249.024 74.7533 246.559L96.3005 238.292L86.9265 213.862L65.3793 222.13C63.2428 222.956 60.9291 223.216 58.6625 222.885C56.4879 222.544 54.4388 221.645 52.7148 220.277C50.9806 218.963 49.6012 217.239 48.7013 215.258C48.2575 214.278 47.9453 213.243 47.7728 212.181C47.5849 211.034 47.5483 209.843 47.6601 208.637L54.0693 142.949L77.9272 146.729L47.361 88.9091L0.401806 134.45L28.1846 138.854ZM192.777 102.674L176.815 39.2362L161.236 58.4566L102.526 9.27777C98.3958 5.76229 93.5713 3.1567 88.3668 1.63089C83.1622 0.105075 77.6946 -0.306719 72.3202 0.422369C68.9543 0.892189 65.6574 1.76669 62.5012 3.0269C56.089 5.62624 50.477 9.87281 46.2327 15.3371C41.7068 21.1821 38.9439 28.1978 38.269 35.5593L36.1895 56.8729L62.2369 59.4202L64.3118 38.0944C64.4397 36.7841 64.744 35.5323 65.2052 34.3603C66.0513 32.213 67.4888 30.3495 69.351 28.986C71.2334 27.5797 73.4443 26.6783 75.7734 26.3675C77.5507 26.1245 79.3595 26.264 81.0787 26.7764C82.7978 27.2889 84.3877 28.1625 85.742 29.3389L144.772 78.8017L127.407 100.235L192.777 102.674Z" fill="#169772"/>
</svg>
