<svg width="162" height="269" viewBox="0 0 162 269" fill="none" xmlns="http://www.w3.org/2000/svg">
<path d="M64.284 3.11896C63.2992 2.13953 62.0878 1.41837 60.7574 1.01946C59.427 0.620553 58.0187 0.556239 56.6575 0.83223C55.2963 1.10822 54.0242 1.71598 52.9543 2.60157C51.8843 3.48716 51.0495 4.62319 50.524 5.90884L15.998 90.3917C15.4219 91.805 15.2398 93.3481 15.4712 94.8566C15.7027 96.3652 16.339 97.7827 17.3124 98.9582C18.2857 100.134 19.5597 101.023 20.9987 101.532C22.4376 102.041 23.9876 102.15 25.4835 101.847L27.1043 101.519L4.51113 161.801C3.98259 163.211 3.8412 164.737 4.10164 166.221C4.36207 167.704 5.01484 169.091 5.99218 170.237C6.96951 171.383 8.23578 172.246 9.65952 172.738C11.0833 173.229 12.6126 173.33 14.0887 173.031L17.2475 172.39L1.14265 232.063C0.766518 233.452 0.751789 234.914 1.09986 236.31C1.44793 237.706 2.14724 238.99 3.13132 240.04C4.11541 241.089 5.35157 241.87 6.72234 242.307C8.09311 242.744 9.55294 242.824 10.9631 242.538L85.3863 227.449L93.7693 268.795L126.846 262.088L118.463 220.742L192.886 205.653C194.297 205.367 195.61 204.725 196.702 203.788C197.794 202.852 198.629 201.651 199.127 200.301C199.624 198.951 199.768 197.496 199.545 196.075C199.322 194.653 198.739 193.313 197.851 192.18L159.793 143.489L162.952 142.849C164.428 142.549 165.797 141.86 166.917 140.853C168.037 139.846 168.867 138.558 169.32 137.122C169.774 135.685 169.835 134.154 169.497 132.686C169.159 131.219 168.435 129.868 167.399 128.775L123.094 82.0564L124.714 81.7278C126.21 81.4238 127.595 80.7197 128.722 79.6907C129.849 78.6617 130.676 77.3463 131.115 75.8844C131.554 74.4226 131.588 72.8692 131.213 71.3896C130.839 69.91 130.07 68.5597 128.989 67.4825L64.284 3.11896ZM46.7612 84.757C45.785 83.6104 44.5198 82.7459 43.0968 82.2533C41.6738 81.7606 40.1449 81.6578 38.6688 81.9555L37.5772 82.1768L61.3541 23.9962L105.914 68.3212L104.823 68.5426C103.347 68.8418 101.978 69.5308 100.858 70.5379C99.7376 71.5449 98.9077 72.8334 98.4539 74.2696C98.0001 75.7057 97.939 77.2372 98.2769 78.7049C98.6148 80.1726 99.3395 81.5232 100.376 82.6163L144.664 129.338L143.043 129.667C141.633 129.953 140.32 130.594 139.227 131.531C138.135 132.468 137.301 133.668 136.803 135.018C136.306 136.368 136.162 137.823 136.385 139.245C136.608 140.666 137.191 142.007 138.078 143.139L176.137 191.83L20.9895 223.287L37.0944 163.614C37.4705 162.225 37.4852 160.763 37.1371 159.367C36.7891 157.971 36.0898 156.687 35.1057 155.638C34.1216 154.588 32.8854 153.807 31.5147 153.37C30.1439 152.933 28.6841 152.853 27.2739 153.139L25.6532 153.468L48.2463 93.1856C48.7729 91.7759 48.9128 90.2511 48.6517 88.7691C48.3906 87.2871 47.7379 85.9019 46.7612 84.757Z" fill="#169772"/>
</svg>
