<svg width="223" height="243" viewBox="0 0 223 243" fill="none" xmlns="http://www.w3.org/2000/svg">
<path d="M100.448 111.662C90.9925 132.68 66.9826 157.259 66.9826 157.259L100.448 111.662ZM89.484 116.838C89.484 116.838 115.385 88.0554 101.595 51.526C87.8054 14.9965 44.5237 5.63426 44.5237 5.63426C44.5237 5.63426 29.3953 39.2631 39.5942 74.1771C49.7931 109.091 89.484 116.838 89.484 116.838ZM108.704 100.976C108.704 100.976 108.586 64.7794 145.068 50.8657C181.551 36.9519 217.268 63.1286 217.268 63.1286C217.268 63.1286 206.614 94.4785 173.722 110.008C140.831 125.537 108.704 100.976 108.704 100.976ZM20.3012 136.258L113.664 178.259C113.664 178.259 86.8067 257.155 32.9436 232.923C-20.9195 208.692 20.3012 136.258 20.3012 136.258Z" stroke="#169772" stroke-width="10" stroke-linecap="round" stroke-linejoin="round"/>
</svg>
