<svg width="150" height="149" viewBox="0 0 150 149" fill="none" xmlns="http://www.w3.org/2000/svg">
<path d="M90.3099 148.11L81.5182 139.699L89.9285 130.908L76.7409 118.292C73.3951 121.79 68.7969 123.815 63.9579 123.922C59.1189 124.03 54.4354 122.21 50.9379 118.864L2.58352 72.6075C1.41767 71.4922 0.742603 69.9594 0.706843 68.3464C0.671083 66.7334 1.27756 65.1723 2.39284 64.0064L61.2652 2.46453C62.3805 1.29868 63.9132 0.62362 65.5262 0.587861C67.1392 0.552101 68.7004 1.15857 69.8662 2.27385L118.221 48.5307C121.718 51.8766 123.743 56.4748 123.851 61.3138C123.958 66.1528 122.138 70.8362 118.793 74.3338L131.98 86.9493L140.391 78.1576L149.182 86.5679L90.3099 148.11ZM67.9492 109.882L110.001 65.9234C111.116 64.7576 111.723 63.1964 111.687 61.5834C111.651 59.9704 110.976 58.4377 109.81 57.3224L65.8517 15.2707L15.3897 68.0209L59.3482 110.073C60.5141 111.188 62.0752 111.794 63.6882 111.759C65.3012 111.723 66.834 111.048 67.9492 109.882ZM75.9782 83.8882L67.1865 75.4779L58.7762 84.2696L49.9845 75.8592L58.399 67.0631L49.6031 58.6572L58.0134 49.8655L66.8094 58.2714L75.2155 49.4841L84.0072 57.8945L75.5968 66.6862L84.3885 75.0965L75.9782 83.8882ZM98.3388 122.116L123.57 95.741L110.382 83.1255L85.1513 109.501L98.3388 122.116Z" fill="#8E00D0"/>
</svg>
