<svg width="220" height="273" viewBox="0 0 220 273" fill="none" xmlns="http://www.w3.org/2000/svg">
<path d="M14.2234 54.307L23.84 50.9447L48.6468 121.897C51.628 130.41 52.2952 139.561 50.5803 148.417L33.498 236.302C32.4724 241.581 32.8579 247.037 34.6155 252.119C36.373 257.202 39.4405 261.73 43.508 265.248C47.5756 268.765 52.4993 271.148 57.7819 272.154C63.0646 273.16 68.5191 272.754 73.5949 270.978L198.958 227.147C204.035 225.374 208.554 222.293 212.059 218.214C215.564 214.136 217.93 209.205 218.92 203.919C219.91 198.633 219.487 193.18 217.695 188.11C215.903 183.039 212.805 178.532 208.714 175.042L140.599 116.965C133.735 111.103 128.552 103.522 125.58 94.9985L100.773 24.0467L110.39 20.6844C112.941 19.7927 115.032 17.9243 116.205 15.4903C117.378 13.0563 117.536 10.256 116.645 7.70548C115.753 5.15498 113.884 3.06318 111.45 1.89025C109.016 0.717321 106.216 0.559341 103.666 1.45107L7.49885 35.0736C4.94835 35.9654 2.85655 37.8337 1.68362 40.2678C0.510686 42.7018 0.352703 45.5021 1.24443 48.0526C2.13615 50.6031 4.00454 52.6949 6.43856 53.8678C8.87258 55.0407 11.6729 55.1987 14.2234 54.307ZM67.8801 115.172L43.0734 44.2202L81.5401 30.7712L106.347 101.723C110.515 113.645 117.774 124.246 127.383 132.443L137.216 140.812L68.0915 164.98L70.5678 152.307C72.9761 139.909 72.0486 127.094 67.8801 115.172ZM63.6029 188.133L155.154 156.125L195.466 190.552C196.829 191.714 197.861 193.215 198.458 194.903C199.056 196.591 199.198 198.407 198.87 200.168C198.542 201.928 197.756 203.571 196.591 204.931C195.426 206.291 193.923 207.32 192.233 207.914L66.8511 251.751C65.1592 252.343 63.341 252.478 61.5802 252.143C59.8193 251.808 58.178 251.014 56.8222 249.841C55.4663 248.669 54.4439 247.159 53.858 245.465C53.2722 243.771 53.1437 241.952 53.4855 240.193L63.6029 188.133Z" fill="#8E00D0"/>
</svg>
