<svg width="215" height="239" viewBox="0 0 215 239" fill="none" xmlns="http://www.w3.org/2000/svg">
<path d="M102.676 17.928L112.767 25.6541L10.825 158.79C2.79663 169.275 -0.667034 182.257 1.06999 195.347C2.80702 208.437 9.53664 220.067 20.0232 228.106C30.5177 236.122 43.5 239.586 56.5792 237.85C69.6584 236.115 81.2881 229.385 89.3273 218.899L191.269 85.7631L201.359 93.4892L214.715 76.047L116.032 0.485788L102.676 17.928ZM149.401 104.307L119.758 81.5993L106.403 99.0415L136.046 121.749L122.692 139.202L110.48 129.852L97.1246 147.294L109.337 156.644L95.9717 174.099L66.3283 151.391L52.9606 168.824L82.6039 191.532L71.8742 205.545C62.9471 217.191 45.0326 219.568 33.3771 210.653C27.5534 206.184 23.8159 199.732 22.8505 192.457C21.8852 185.182 23.8106 177.978 28.2672 172.145L130.209 39.0096L173.814 72.3982L149.401 104.307Z" fill="#8E00D0"/>
</svg>
