<svg width="216" height="212" viewBox="0 0 216 212" fill="none" xmlns="http://www.w3.org/2000/svg">
<path d="M89.1119 149.922C72.8501 142.997 54.0578 150.564 47.1325 166.826C40.2072 183.088 47.7742 201.88 64.036 208.805C80.2978 215.731 99.0901 208.164 106.015 191.902C112.941 175.64 105.374 156.848 89.1119 149.922ZM126.726 61.598C142.988 68.5233 161.78 60.9564 168.705 44.6945C175.631 28.4327 168.064 9.64039 151.802 2.71512C135.54 -4.21015 116.748 3.3568 109.822 19.6186C102.897 35.8804 110.464 54.6728 126.726 61.598ZM205.647 121.293L28.998 46.0652C20.8694 42.6035 11.47 46.3883 8.0083 54.5169L1.73932 69.2377C-1.72234 77.3663 2.06246 86.7657 10.1911 90.2274L186.84 165.455C194.968 168.917 204.368 165.132 207.829 157.003L214.098 142.283C217.56 134.154 213.775 124.755 205.647 121.293Z" fill="#28D0E7"/>
</svg>
