<svg width="281" height="281" viewBox="0 0 281 281" fill="none" xmlns="http://www.w3.org/2000/svg">
<path d="M159.585 118.002L151.448 20.1147C151.24 17.3393 150.485 14.6324 149.226 12.1503C147.967 9.66821 146.229 7.45992 144.112 5.65285C141.996 3.84578 139.542 2.47567 136.893 1.62157C134.244 0.767464 131.453 0.446265 128.679 0.676488C125.905 0.906722 123.205 1.68383 120.733 2.96299C118.261 4.24214 116.067 5.99802 114.277 8.12936C112.488 10.2607 111.138 12.7253 110.305 15.381C109.473 18.0368 109.174 20.831 109.427 23.6027L117.564 121.49L19.6819 129.632C16.9225 129.861 14.2353 130.632 11.7737 131.899C9.31208 133.167 7.12432 134.908 5.33531 137.021C3.5463 139.134 2.19108 141.58 1.34701 144.217C0.502944 146.854 0.186569 149.631 0.415947 152.391C0.879199 157.964 3.5373 163.124 7.80551 166.737C12.0737 170.35 17.6024 172.12 23.1753 171.657L121.057 163.515L129.214 261.64C129.72 267.179 132.395 272.293 136.655 275.869C140.915 279.445 146.416 281.192 151.959 280.731C157.501 280.27 162.637 277.637 166.248 273.406C169.858 269.175 171.65 263.689 171.234 258.142L163.078 160.027L260.955 151.891C266.76 151.409 271.818 148.62 275.301 144.505C278.784 140.391 280.699 134.941 280.217 129.137C279.989 126.378 279.219 123.691 277.952 121.229C276.685 118.767 274.945 116.579 272.832 114.791C270.719 113.002 268.274 111.647 265.637 110.804C262.999 109.96 260.222 109.645 257.463 109.876L159.585 118.002Z" fill="#28D0E7"/>
</svg>
