<svg width="410" height="409" viewBox="0 0 410 409" fill="none" xmlns="http://www.w3.org/2000/svg">
<g clip-path="url(#clip0_54_70)">
<path d="M159.92 71.4536C86.2209 96.3659 46.6631 176.323 71.5755 250.022C96.4878 323.721 176.445 363.279 250.144 338.367C323.843 313.454 363.401 233.497 338.489 159.798C313.576 86.0991 233.619 46.5412 159.92 71.4536ZM242.491 315.727C181.304 336.41 114.899 303.557 94.2154 242.369C73.5323 181.182 106.385 114.777 167.573 94.0935C228.76 73.4104 295.166 106.264 315.849 167.451C336.532 228.638 303.679 295.044 242.491 315.727Z" fill="#FA6C32"/>
<path d="M269.822 225.032L216.961 208.678L192.038 134.949C191.595 133.639 190.16 132.929 188.85 133.372L174.521 138.215C173.21 138.658 172.5 140.093 172.943 141.404L200.675 223.444C200.937 224.219 201.536 224.813 202.313 225.048L263.729 244.319C265.063 244.731 266.472 243.989 266.894 242.685L271.486 228.187C271.888 226.823 271.147 225.414 269.822 225.032Z" fill="#FA6C32"/>
</g>
<defs>
<clipPath id="clip0_54_70">
<rect width="322" height="322" fill="white" transform="translate(0.953552 103.945) rotate(-18.6767)"/>
</clipPath>
</defs>
</svg>
