<svg width="226" height="227" viewBox="0 0 226 227" fill="none" xmlns="http://www.w3.org/2000/svg">
<path d="M152.418 82.7574C145.484 73.8633 137.874 65.5166 129.657 57.7913C136.295 54.8157 143.173 52.41 150.218 50.6003C152.082 50.1516 153.815 49.8562 155.547 49.5609C156.701 51.368 158.29 52.8562 160.169 53.8888C162.047 54.9215 164.156 55.4654 166.299 55.4706C168.443 55.4758 170.554 54.9422 172.438 53.9187C174.322 52.8952 175.918 51.4147 177.081 49.6133C181.013 50.4633 184.563 52.5672 187.197 55.6086C193.007 63.0522 191.528 76.4384 183.239 92.3213C185.522 96.2773 187.575 100.262 189.385 104.386C190.606 102.275 191.876 100.226 192.923 98.1503C203.751 77.7183 204.854 60.0455 195.996 48.8908C191.541 43.4939 185.323 39.8444 178.439 38.5867C177.579 36.0325 175.938 33.8133 173.748 32.243C171.558 30.6727 168.93 29.8308 166.235 29.8363C163.54 29.8418 160.915 30.6946 158.731 32.2739C156.547 33.8531 154.915 36.0791 154.066 38.6367C151.93 38.9954 149.794 39.3541 147.519 39.9219C138.19 42.3298 129.124 45.6636 120.457 49.8735C113.062 43.6168 105.068 38.1059 96.5904 33.4211C76.1515 22.6487 58.4856 21.4899 47.3866 30.3553C36.9962 38.5166 33.592 53.7575 37.3714 73.5582C35.7517 75.1838 34.5991 77.2152 34.0343 79.4394C33.4696 81.6635 33.5135 83.9987 34.1614 86.2001C34.8093 88.4015 36.0374 90.3881 37.7171 91.9517C39.3967 93.5153 41.4659 94.5984 43.708 95.0874C45.0716 98.704 46.6022 102.341 48.3624 105.95C42.1996 113.357 36.7995 121.367 32.2442 129.858C21.423 150.234 20.3129 167.962 29.1784 179.061C31.892 182.305 35.2295 184.972 38.9928 186.902C42.7561 188.832 46.8687 189.987 51.0866 190.297C60.0182 191.103 69.022 190.298 77.6686 187.919C87.0125 185.502 96.0958 182.171 104.787 177.974C112.111 184.265 120.045 189.807 128.472 194.517C134.679 197.888 141.307 200.416 148.182 202.034C149.084 204.786 150.886 207.154 153.298 208.757C155.709 210.361 158.59 211.107 161.477 210.875C164.363 210.644 167.088 209.448 169.213 207.48C171.338 205.513 172.739 202.887 173.192 200.027C174.783 199.295 176.295 198.402 177.704 197.36C189.026 188.522 192.224 171.278 186.673 148.884C179.898 124.731 168.239 102.225 152.418 82.7574ZM74.8726 177.115C57.3765 181.461 43.7462 179.669 37.8936 172.107C32.041 164.545 33.5275 151.103 42.0597 135.081C45.505 128.684 49.4897 122.593 53.9704 116.874C59.4942 126.689 65.7456 136.077 72.6721 144.958C74.7718 147.648 76.934 150.289 79.1099 152.818C82.6617 151.522 86.2989 149.992 90.0216 148.227C87.1483 144.933 84.2477 141.862 81.5476 138.08C70.5308 124.22 61.4973 108.893 54.7069 92.5415C56.6711 90.9509 58.1225 88.8162 58.8796 86.4047C59.6367 83.9932 59.6657 81.4121 58.9631 78.9841C58.2606 76.5562 56.8575 74.3894 54.9297 72.7549C53.0018 71.1204 50.6346 70.0908 48.1245 69.7948C45.6631 55.3577 47.7524 44.3646 54.3203 39.2376C56.6034 37.6763 59.1741 36.5844 61.8828 36.0252C64.5916 35.4661 67.3845 35.4508 70.0992 35.9804C77.5832 37.1572 84.7985 39.6542 91.4091 43.3548C97.804 46.8204 103.893 50.8236 109.609 55.3212C99.763 60.8211 90.3551 67.0712 81.4691 74.0161C78.7168 76.1646 76.0065 78.4313 73.3519 80.7049C74.5941 84.4397 76.0292 88.1076 77.6516 91.6937C81.0774 88.6671 84.552 85.703 88.2426 82.8221C97.865 75.3191 108.142 68.6951 118.949 63.03C127.948 71.1619 136.215 80.0692 143.654 89.6491C151.159 99.2703 157.783 109.547 163.446 120.355C155.313 129.45 146.394 137.811 136.793 145.339C118.532 160.037 97.4609 170.85 74.8726 177.115ZM170.833 188.429L169.852 189.044C168.543 187.624 166.927 186.52 165.128 185.817C163.329 185.113 161.394 184.828 159.468 184.983C157.543 185.138 155.678 185.729 154.014 186.711C152.351 187.693 150.933 189.041 149.867 190.652C144.233 189.211 138.799 187.08 133.688 184.305C127.281 180.861 121.19 176.856 115.488 172.339C125.334 166.839 134.742 160.589 143.628 153.644C152.531 146.742 160.876 139.15 168.587 130.939C171.562 137.576 173.968 144.454 175.778 151.499C180.048 169.155 178.388 182.632 170.833 188.429Z" fill="#FA6C32"/>
<path d="M114.033 132.367C124.252 131.975 132.218 123.373 131.826 113.154C131.434 102.935 122.833 94.9691 112.614 95.361C102.395 95.7529 94.4282 104.355 94.8201 114.574C95.2121 124.793 103.814 132.759 114.033 132.367Z" fill="#FA6C32"/>
</svg>
