<svg width="204" height="206" viewBox="0 0 204 206" fill="none" xmlns="http://www.w3.org/2000/svg">
<path d="M182.533 170.765C214.608 131.028 208.519 73.9474 168.782 41.8721L117.839 0.749875L99.4253 2.7142L74.752 33.2805L76.7163 51.6937L127.66 92.8159C138.868 101.863 140.636 118.435 131.589 129.642C122.542 140.85 105.97 142.618 94.7624 133.571L43.8186 92.4488L25.4054 94.4131L0.732048 124.979L2.69636 143.393L53.6402 184.515C93.3764 216.59 150.457 210.501 182.533 170.765ZM84.9408 41.5049L109.614 10.9386L140.18 35.612L115.507 66.1783L84.9408 41.5049ZM10.9208 133.204L35.5941 102.638L66.1604 127.311L41.4871 157.877L10.9208 133.204ZM76.3492 135.535L86.538 143.76C103.859 157.741 127.796 155.188 141.778 137.867C154.937 121.565 152.383 97.6276 137.922 84.272L125.696 74.4027L150.369 43.8364L160.558 52.0608C194.181 79.2015 199.485 128.917 172.344 162.54C145.203 196.163 95.4876 201.467 61.8646 174.326L51.6759 166.102L76.3492 135.535Z" fill="#FA6C32"/>
</svg>
