<svg width="386" height="528" viewBox="0 0 386 528" fill="none" xmlns="http://www.w3.org/2000/svg">
<g clip-path="url(#clip0_276_157)">
<path fill-rule="evenodd" clip-rule="evenodd" d="M159.19 114.786C159.203 115.692 159.294 117.774 159.522 118.651C156.986 114.589 153.187 110.149 152.61 105.174C152.79 105.125 153.589 105.051 153.728 104.946C155.04 105.555 154.792 103.681 154.985 102.814C155.509 100.978 156.609 99.1721 157.087 97.3241C158.343 96.7811 155.82 96.5511 155.454 96.5403C156.978 94.8444 157.678 92.5131 158.763 90.5348C160.358 87.1727 161.785 83.7358 163.06 80.2449C163.339 82.4322 163.389 84.6432 163.219 86.8426C162.695 96.2633 159.154 105.322 159.19 114.786ZM247.185 98.0515C246.396 98.184 245.082 98.3095 244.295 98.3739C245.328 97.7582 248.382 96.5852 246.457 95.531C245.864 95.3144 245.227 95.6234 244.629 95.719C242.144 96.1278 239.075 96.1062 236.561 95.9002C237.478 95.1483 238.684 94.0655 239.579 93.2873C240.054 92.8739 240.515 92.7172 239.98 92.0998C239.038 91.2225 237.352 91.8686 236.263 92.2541C233.257 93.9374 229.863 95.7632 226.637 97.0584C226.604 96.6066 226.624 96.0224 226.189 95.719C224.91 95.1168 223.969 95.2928 222.609 95.1325C221.024 94.895 219.615 94.6248 218.045 94.2057C217.018 93.4229 216.392 91.1143 214.75 91.3723C216.204 87.7141 213.988 83.8975 213.155 80.3947C212.116 76.8099 211.57 73.087 211.555 69.3597C211.545 63.3921 208.087 58.8132 203.091 55.7511C201.121 54.4215 199.798 51.1873 197.36 50.5395C197.049 49.35 197.031 48.8274 196.758 47.6288C196.622 47.2845 196.52 45.4163 196.176 45.4799C195.797 43.6293 193.865 42.8871 192.193 42.4995C190.018 42.0491 186.984 41.5036 185.03 42.7744C184.464 43.2453 184.215 44.0337 184.174 44.738C183.957 45.6759 183.505 46.6474 182.978 47.4612C182.08 47.1577 182.588 46.5921 181.7 46.4605C173.585 45.2581 164.577 51.2092 159.312 57.0147C149.768 66.8115 142.144 80.1857 143.392 94.1485C143.056 94.0989 141.568 93.8658 141.59 94.3358C141.663 96.3791 142.039 98.0834 142.143 100.125C142.039 102.83 144.851 103.156 146.881 103.823C146.756 111.67 149.608 119.52 154.072 125.97C155.157 127.24 156.784 131.645 158.763 129.89C158.997 129.617 157.188 127.728 156.866 127.261C155.767 125.878 152.856 119.03 154.913 117.663C155.37 119.141 159.799 126.249 160.589 122.214C161.637 122.823 163.37 123.238 164.624 123.175C166.98 124.451 169.273 125.829 171.536 127.261C172.59 129.33 174.136 131.318 175.431 133.305C166.467 154.004 157.717 188.073 146.181 207.57C145.175 208.843 150.708 211.007 151.686 211.474C149.817 214.508 149.583 218.023 148.161 221.29C147.89 221.246 147.617 221.304 147.372 221.435C145.618 222.622 144.956 226.873 144.856 228.969C144.937 229.904 144.591 231.318 145.347 232.007C145.241 232.121 145.163 232.261 145.106 232.404C144.574 232.818 144.639 233.734 144.924 234.301C145.926 236.38 153.247 236.187 155.622 236.631C164.038 237.344 171.101 237.456 179.515 236.677C180.548 236.461 179.767 234.85 179.257 234.413C179.493 234.27 179.643 234.008 179.54 233.672C177.627 228.204 170.714 228.574 166.53 225.653C167.63 225.017 166.92 225.22 166.229 225.468C165.496 225.007 164.782 224.488 164.121 223.915C164.629 223.602 164.378 223.395 163.829 223.657C162.964 222.963 162.29 221.891 161.187 221.555C160.107 221.29 160.107 220.828 160.107 220.537C160.75 217.954 161.452 215.305 161.813 212.685C162.197 213.252 165.519 208.705 166.229 207.57C168.99 203.198 168.983 198.891 170.915 194.137C174.883 183.784 183.01 162.087 187.967 152.186C199.564 171.077 193.916 196.628 201.07 216.773C201.388 217.378 201.986 219.648 202.814 218.993C203.136 219.068 203.478 219.109 203.785 219.152C203.696 221.355 203.531 223.551 203.165 225.73C202.824 225.82 202.534 225.999 202.384 226.312C201.81 225.89 200.711 232.109 200.616 232.742C200.615 233.559 199.91 235.379 200.554 235.864C199.627 236.244 199.475 237.645 200.127 238.366C202.064 240.968 211.502 240.253 214.984 240.689C219.387 240.58 237.807 242.228 239.086 238.052C239.34 237.099 238.904 235.896 238.018 235.529C238.372 234.701 237.523 233.902 237.003 233.321C233.939 230.134 229.226 229.632 225.146 228.245C225.298 228.09 219.82 225.283 218.632 224.59C218.711 223.648 216.752 224.592 216.747 224.59C215.813 222.94 215.151 220.373 214.525 218.593C215.681 218.235 218.465 217.917 218.981 216.773C220.639 216.217 218.976 213.812 218.632 212.685C208.91 188.368 218.134 157.696 203.785 134.745C206.415 133.239 209.432 129.943 206.834 127.179C206.314 126.514 205.042 124.445 205.063 124.806C204.58 122.836 203.501 119.443 203.165 117.451C201.931 110.136 202.74 103.287 203.785 95.9002C205.235 101.458 210.235 106.089 215.322 108.628C217.307 109.447 219.928 111.137 222.107 110.604C224.074 110.022 227.647 105.986 228.068 104.047C233.802 104.729 239.755 104.182 245.235 102.38C245.938 102.114 246.771 102.136 246.553 101.138C246.336 100.291 244.79 100.507 244.124 100.665C245.141 100.101 247.78 99.9539 247.761 98.4811C247.726 98.1741 247.499 97.9988 247.185 98.0515Z" fill="white"/>
<path fill-rule="evenodd" clip-rule="evenodd" d="M184.194 43.5651C184.281 43.6004 184.34 43.733 184.376 43.9322C184.473 43.9625 184.556 44.0342 184.581 44.1422C184.655 44.4598 184.569 44.7909 184.502 45.1074L184.495 45.1439C184.432 45.4503 184.355 45.7549 184.262 46.0535L184.248 46.1292C184.02 47.3634 183.58 48.537 183.063 48.3376L183.182 48.555C185.21 52.2338 191.002 62.1117 195.524 60.7038C198.157 59.6486 198.12 56.2186 197.927 53.8315C195.972 55.0305 195.606 45.8525 196.007 44.8382C196.326 44.6036 196.48 46.7149 196.599 47.0059C196.858 48.164 197.175 49.3072 197.474 50.4557C198.104 50.5805 198.7 50.8317 199.228 51.1918C199.253 51.2062 199.279 51.2193 199.303 51.2343C199.62 51.4268 199.867 51.6722 200.087 51.9441C200.335 52.2223 200.548 52.5269 200.749 52.8399C201.191 53.3415 201.612 53.8617 202.047 54.3687C202.253 54.6093 202.464 54.8425 202.68 55.0699L202.847 55.2098C202.875 55.233 202.903 55.2562 202.931 55.2791C207.927 58.3974 211.385 63.0632 211.395 69.1405C211.41 72.9372 211.956 76.7292 212.995 80.3806C213.827 83.9485 216.517 87.5952 215.063 91.3212C216.705 91.0583 216.858 93.1688 217.884 93.9662L218.207 94.0535C219.65 94.4416 220.973 94.7653 222.448 94.9906C223.809 95.1538 225.381 94.9745 226.659 95.5879C227.095 95.897 226.939 96.4548 226.973 96.915C230.199 95.5957 233.096 93.7732 236.102 92.0587L236.202 92.0227C237.315 91.6279 239.299 91.0346 240.214 91.9015C240.748 92.5303 240.208 93.0917 239.733 93.5128C238.839 94.3053 237.89 95.0323 236.974 95.7982C239.443 96.0043 241.92 95.8399 244.361 95.4395L244.495 95.4174C245.093 95.32 245.798 95.0872 246.392 95.3078C248.316 96.3816 246.089 97.635 245.056 98.2622C245.844 98.1966 246.629 98.0988 247.418 97.9637C247.732 97.9101 247.959 98.0887 247.993 98.4014C248.013 99.9016 246.037 99.9824 245.02 100.556L245.102 100.537C245.766 100.383 246.722 100.248 246.93 101.076C247.148 102.093 245.777 102.503 245.073 102.774C239.594 104.61 233.64 105.167 227.907 104.473C227.486 106.447 223.914 110.559 221.947 111.151C219.767 111.694 217.146 109.973 215.161 109.139C210.075 106.552 205.362 102.285 203.912 96.6241C202.693 105.402 203.185 114.252 205.015 122.888C205.312 123.562 205.624 124.224 205.976 124.87C206.082 124.887 206.172 124.958 206.193 125.102C206.204 125.181 206.22 125.257 206.237 125.333C206.588 125.928 206.971 126.499 207.328 127.09C207.401 127.212 207.474 127.339 207.541 127.469C209.913 130.266 207.021 133.87 204.436 135.378C218.784 158.756 209.517 188.217 219.239 212.985L219.26 213.056C219.629 214.234 220.753 216.659 219.128 217.214C218.612 218.379 216.011 218.516 214.856 218.881C215.482 220.694 216.178 222.487 217.112 224.168L217.129 224.175C217.501 223.901 218.298 223.619 218.628 223.917C218.708 223.927 218.788 223.95 218.866 223.988C219.376 224.242 219.787 224.726 220.275 225.031C220.538 225.196 220.813 225.346 221.095 225.477C221.358 225.599 221.638 225.679 221.852 225.88C221.92 225.943 221.937 226.024 221.92 226.098C222.09 226.186 222.259 226.274 222.428 226.363L222.519 226.305C224.01 225.377 225.21 224.874 223.04 226.658C223.818 227.017 224.615 227.331 225.417 227.626C226.026 227.333 226.676 227.119 227.347 227.09C227.468 227.239 226.546 227.815 226.394 227.973C230.474 229.386 234.962 230.492 238.026 233.738L238.095 233.816C238.617 234.4 239.38 235.18 239.04 235.987C239.927 236.361 240.363 237.586 240.108 238.557C238.83 242.81 219.226 241.132 214.823 241.243C211.342 240.799 201.904 241.527 199.967 238.877C199.316 238.143 199.467 236.715 200.394 236.329C199.751 235.834 200.455 233.981 200.457 233.149L200.472 233.053C200.57 232.431 200.997 229.999 201.441 228.3C201.45 228.166 201.468 228.029 201.489 227.891L201.503 227.803C201.591 227.261 201.726 226.71 202.076 226.275C202.328 225.962 202.676 225.769 203.054 225.699C203.155 225.052 203.238 224.403 203.31 223.754C203.36 222.99 203.379 222.225 203.37 221.459C203.366 221.073 203.356 220.686 203.337 220.3C203.323 220.016 203.339 219.679 203.267 219.388C203.219 219.437 203.151 219.464 203.074 219.438C202.911 219.382 202.761 219.279 202.612 219.195C202.606 219.192 202.602 219.188 202.597 219.184C201.798 219.703 201.221 217.485 200.91 216.883C193.756 196.363 199.405 172.748 187.808 153.506C186.207 156.941 184.831 160.093 183.29 163.553C178.477 174.357 172.536 193.388 168.552 204.828C167.468 207.167 166.193 209.427 164.679 211.515C164.195 212.064 163.87 212.872 163.169 213.167L163.107 213.176C162.92 213.526 162.661 213.82 162.274 213.81C162.18 213.808 162.083 213.797 161.985 213.781C161.643 216.161 161.213 218.557 160.641 220.899L160.718 220.867C161.092 220.712 161.486 220.58 161.871 220.615C162.803 220.851 162.458 221.666 161.721 221.935C162.638 222.22 163.259 223.024 163.941 223.694C164.517 223.383 165.162 223.222 165.852 223.29C165.958 223.3 166.038 223.347 166.094 223.41C166.134 223.41 166.172 223.412 166.209 223.419L166.134 223.464C166.256 223.67 166.169 223.984 165.852 223.985C165.604 223.987 165.364 224.009 165.133 224.052C164.972 224.146 164.813 224.241 164.655 224.34C165.187 224.809 165.753 225.243 166.336 225.639C166.644 225.481 166.969 225.349 167.308 225.244C167.745 225.107 167.936 225.802 167.497 225.928C167.404 225.955 167.312 225.985 167.22 226.016L167.13 226.071C167.109 226.084 167.087 226.097 167.064 226.11C171.247 229.085 178.319 228.708 180.231 234.278C180.295 234.488 180.262 234.67 180.173 234.812C180.588 235.193 180.779 235.876 180.686 236.401L180.694 236.445C180.765 236.869 180.662 237.242 180.206 237.339C177.164 237.622 174.129 237.802 171.074 237.858L170.827 237.86C166.449 237.889 145.156 237.73 144.195 234.919C143.939 234.398 143.86 233.591 144.235 233.127C144.279 232.877 144.364 232.65 144.517 232.472C143.9 231.849 144.203 230.278 144.128 229.488C144.263 226.847 144.799 224.016 146.413 221.855C146.439 221.821 146.471 221.8 146.504 221.79C146.786 221.507 147.156 221.328 147.579 221.304C147.592 221.271 147.606 221.238 147.619 221.205C147.948 220.429 148.261 219.638 148.571 218.844C148.802 217.942 149.042 217.042 149.283 216.146C149.524 215.252 149.759 214.356 149.989 213.459C150.173 212.744 150.331 211.938 150.648 211.255C150.64 211.225 150.631 211.196 150.622 211.167L150.291 211.033C148.127 210.154 144.699 208.67 145.452 207.69C153.48 191.008 161.338 167.259 168.705 149.965C168.82 149.626 168.942 149.289 169.075 148.955C169.401 148.142 169.73 147.33 170.065 146.52L170.266 146.035L173.475 138.312C173.811 137.504 174.19 136.7 174.455 135.864C174.71 135.06 174.778 134.259 174.294 133.527C173.86 132.872 173.249 132.33 172.76 131.714C172.39 131.249 172.03 130.752 171.707 130.23C171.413 129.843 171.168 129.4 170.95 129.043C170.599 128.472 170.153 127.839 169.899 127.178C169.571 126.971 169.242 126.765 168.912 126.562C168.342 126.242 167.781 125.908 167.236 125.546C166.546 125.136 165.853 124.733 165.153 124.34C164.901 124.215 164.649 124.09 164.396 123.965C163.638 124.031 161.546 123.097 160.833 122.466C160.751 122.449 160.67 122.431 160.59 122.41C160.557 122.814 160.426 123.179 160.118 123.45C158.076 124.464 155.472 119.873 154.755 118.341C153.329 119.734 156.731 126.625 157.83 128.034L157.889 128.121C158.183 128.562 158.491 129.056 158.908 129.382L158.95 129.414C159.236 129.625 159.289 129.955 159.056 130.233C157.076 132.021 154.998 128.096 153.914 126.803C149.45 120.233 146.598 112.237 146.723 104.244C144.693 103.565 141.882 103.233 141.985 100.478C141.881 98.398 141.505 96.3406 141.432 94.2594C141.411 93.7807 142.898 94.0181 143.234 94.0686C142.739 89.2867 143.487 84.4317 144.819 79.8358C148.318 68.0761 162.726 46.8809 176.907 46.1157C176.895 46.0926 176.901 46.0614 176.932 46.0531C177.574 45.8865 178.284 45.9131 178.943 45.9341C179.63 45.9559 180.327 45.9606 181.01 46.0382C181.718 46.1184 182.468 46.3786 182.943 46.8934L183.108 46.5962C183.299 46.2493 183.483 45.8989 183.622 45.5161C183.693 45.3226 183.748 45.1221 183.798 44.9195C183.855 44.6305 183.869 44.3296 184.006 44.0671C184.01 44.0603 184.014 44.0546 184.018 44.0482C184.067 43.8828 184.124 43.7208 184.194 43.5651ZM201.599 236.319C201.396 236.525 201.045 236.614 200.733 236.516C199.699 239.454 205.31 239.27 207.111 239.435C209.031 239.64 244.007 241.459 238.092 237.151C231.153 239.796 207.942 240.087 201.599 236.319ZM218.632 224.669C218.165 225.15 217.461 225.364 216.96 225.824C215.545 227.021 214.406 228.706 212.449 229.024C209.878 229.503 207.56 228.235 205.261 227.23C204.974 227.216 204.676 227.095 204.382 227.006C204.372 227.027 204.361 227.048 204.35 227.068C204.335 227.062 204.32 227.058 204.303 227.055C204.277 227.051 204.253 227.048 204.228 227.044C204.169 226.997 204.107 226.958 204.043 226.924C204.004 226.918 203.965 226.913 203.926 226.911C203.453 226.882 202.938 226.992 202.634 227.385C202.608 227.418 202.584 227.454 202.562 227.49C202.414 228.012 202.395 228.644 202.466 229.086C202.489 229.23 202.429 229.372 202.327 229.454C202.237 231.64 201.99 233.834 201.819 235.991C202.679 236.3 203.571 236.536 204.464 236.685C210.628 237.442 216.858 237.794 223.07 237.604C226.767 237.47 230.459 237.14 234.119 236.591C235.302 236.479 236.512 236.022 237.694 236.207C237.745 236.112 237.823 236.03 237.932 235.975C234.902 231.826 229.724 230.705 225.209 228.886C224.463 229.362 224.004 230.355 223.173 230.651C222.851 230.699 222.402 230.509 222.45 230.1C222.584 229.263 223.488 228.881 224.097 228.395C223.444 228.089 222.803 227.758 222.177 227.389C221.563 227.943 220.835 228.364 220.26 228.955C220.587 229.753 219.224 229.684 219.209 228.834C219.303 227.894 220.792 227.496 221.457 226.948C220.419 226.316 219.491 225.519 218.632 224.669ZM145.43 232.883C145.394 232.954 145.334 233.019 145.247 233.07C145.095 233.157 145.168 233.621 145.176 233.777L145.176 233.788C145.185 234.069 145.202 234.349 145.226 234.628C145.482 234.859 145.809 235.034 146.172 235.139C157.238 236.905 168.516 237.048 179.689 236.407C179.638 236.11 179.42 235.866 179.228 235.618C172.165 236.218 164.932 235.59 157.857 235.005C153.721 234.462 149.387 234.237 145.43 232.883ZM161.54 222.019C159.717 222.646 158.02 223.517 156.403 224.56C155.802 224.951 155.229 225.399 154.538 225.623C152.147 226.343 148.563 222.887 148.505 222.848C147.675 222.289 146.794 222.81 146.343 223.585C146.301 223.656 145.608 227.618 145.629 229.559C145.505 230.219 145.837 231.297 145.66 232.017C145.799 232.183 145.997 232.262 146.13 232.437C146.178 232.5 146.164 232.571 146.123 232.625C152.579 233.156 158.999 234.165 165.486 234.377C169.926 234.612 174.375 234.558 178.815 234.504C177.805 231.539 174.364 230.755 171.735 229.779C169.749 229.065 167.921 228.003 166.312 226.636C165.614 227.126 165.064 227.812 164.569 228.502C164.345 228.782 163.884 228.994 163.643 228.605C163.395 228.202 163.879 227.693 164.476 227.247C164.79 226.782 165.186 226.386 165.642 226.06C165.138 225.61 164.652 225.142 164.198 224.645C163.255 225.283 162.562 226.202 161.883 227.094C161.557 227.45 160.948 226.98 161.215 226.579C161.429 226.303 161.671 226.048 161.929 225.809C162.318 225.075 162.879 224.397 163.559 223.927L163.507 223.861C162.939 223.132 162.448 222.258 161.54 222.019ZM145.472 232.417C145.456 232.436 145.439 232.455 145.422 232.473C145.438 232.505 145.45 232.538 145.458 232.572L145.624 232.585C145.567 232.538 145.516 232.48 145.472 232.417ZM214.249 219.001C210.866 219.64 207.372 219.885 203.957 219.358C204.353 221.563 204.6 223.781 204.471 226.02C209.576 227.494 211.697 229.95 215.945 225.04C215.74 224.728 215.621 224.344 215.483 223.974C214.896 222.369 214.411 220.708 214.249 219.001ZM152.115 211.77C152.067 211.877 151.98 211.964 151.855 212.003C151.81 212.2 151.764 212.398 151.715 212.594C151.632 213.61 151.248 214.617 150.852 215.554L150.771 215.749C150.509 216.528 150.235 217.306 149.965 218.085C149.76 218.894 149.579 219.709 149.39 220.522C149.354 221.073 149.276 221.62 149.155 222.16C149.15 222.186 149.142 222.209 149.134 222.231C149.323 222.315 149.506 222.413 149.678 222.512C154.857 226.402 153.963 223.801 158.936 221.623C158.907 221.414 159.012 221.225 159.097 221.008L159.108 220.98C159.114 220.966 159.119 220.952 159.124 220.939C159.116 220.856 159.121 220.767 159.142 220.673C159.646 218.613 160.348 216.59 161.004 214.574C161.109 214.271 161.231 213.974 161.355 213.678C158.202 213.638 155.083 212.798 152.115 211.77ZM150.751 212.77C150.69 213.04 150.624 213.305 150.563 213.562L150.474 213.944C150.601 213.557 150.701 213.165 150.751 212.77ZM180.747 46.6182C179.65 46.8852 178.525 46.9942 177.421 47.2156C169.814 48.1224 163.982 53.515 158.958 58.8693C149.442 68.8614 143.905 81.1562 144.314 95.052C147.712 95.6709 151.075 96.5768 154.538 96.7747C154.035 96.0128 154.878 95.0597 155.168 94.3301C160.176 84.6572 164.043 73.9791 167.183 63.7954L167.098 64.2399C166.112 69.351 164.963 74.4403 163.21 79.3498C163.718 78.8508 172.06 72.2187 171.408 74.4116C168.859 76.4029 165.981 77.9809 163.31 79.8083C166.485 90.4113 161.895 101.154 161.023 111.762C160.804 114.12 160.823 116.495 160.528 118.845C160.416 119.111 160.534 119.651 160.369 119.904C160.491 120.527 160.748 121.096 161.278 121.582C161.501 121.787 161.745 121.965 162.001 122.123C162.64 122.22 163.283 122.466 163.803 122.694C164.962 123.201 165.981 123.949 167.017 124.663L167.045 124.682C168.714 125.539 170.382 126.514 172.057 127.53L172.131 127.569C172.754 127.896 173.391 128.19 173.933 128.643C173.958 128.664 173.975 128.688 173.985 128.712L175.002 129.34C183.148 134.365 191.546 139.334 201.096 135.748C203.779 134.667 207.68 132.478 207.179 129.094C207.08 128.769 206.93 128.464 206.76 128.167C206.713 128.104 206.664 128.041 206.615 127.979C206.245 127.512 205.831 127.083 205.51 126.578C205.379 126.372 205.262 126.161 205.159 125.943C205.087 125.921 205.022 125.87 204.982 125.782C204.522 124.78 204.072 123.776 203.652 122.756C198.569 105.04 204.739 86.005 206.485 68.1365C206.606 67.1133 206.784 66.0797 206.784 65.049C206.784 65.0007 206.854 65.0023 206.858 65.049C207.473 69.6097 207.006 74.2127 206.421 78.7527C205.671 84.4323 204.687 90.0883 204.01 95.7782C205.809 101.513 210.846 105.658 216.135 108.143C217.035 108.57 217.955 108.951 218.893 109.286L218.956 109.308C219.987 109.669 221.15 110.226 222.145 109.496C224.053 108.201 225.4 106.225 226.637 104.322C226.137 104.268 225.636 104.221 225.135 104.187C223.903 105.594 222.395 106.789 220.803 107.766C220.154 108.138 219.418 107.98 219.118 107.253C218.835 106.566 219.181 105.765 219.432 105.103L219.468 105.006C220.739 101.582 222.945 98.4433 225.923 96.2988C223.676 95.8497 221.342 95.8634 219.186 94.9758C219.304 95.0993 219.15 95.2374 219.075 95.342C219.102 95.545 218.954 95.6934 218.773 95.7477C217.014 98.0448 215.681 100.765 215.403 103.679C215.477 104.671 214.588 105.817 213.733 104.775C213.064 101.875 215.696 97.3423 218.01 95.5527C215.689 93.9606 216.365 91.6631 214.909 91.6525C214.532 92.3748 214.041 93.0663 213.422 93.6028C213.142 93.8303 212.802 94.0017 212.502 94.2035C212.186 94.4158 211.857 93.9488 212.107 93.6925L212.173 93.6132C213.123 92.4771 214.252 91.3604 214.448 89.8235C214.732 87.9308 213.881 86.0133 213.228 84.2843C211.978 80.9698 211.148 77.521 210.744 74.0017C210.286 70.8484 210.843 67.5777 209.763 64.5263C209.548 63.6766 209.24 62.9026 208.861 62.1843C208.852 62.1768 208.843 62.1692 208.835 62.1598C208.386 61.6404 208.027 61.0626 207.608 60.5186C207.17 59.9495 206.695 59.4079 206.192 58.8954C205.352 58.0391 204.424 57.3246 203.456 56.6366C203.438 56.6302 203.42 56.6218 203.402 56.6111C203.221 56.504 203.047 56.374 202.879 56.2312L202.863 56.2198C202.3 55.829 201.726 55.4048 201.287 54.8742C200.856 54.3532 200.549 53.7456 200.197 53.1718C199.716 52.5852 199.258 51.9568 198.677 51.4681C198.349 51.2808 198.008 51.1044 197.715 50.8702C197.667 50.8502 197.618 50.8311 197.569 50.8132C197.694 51.3218 197.882 51.7898 198.052 52.3064C198.299 52.2024 198.636 52.3177 198.678 52.6972L198.693 52.8388C198.94 55.1628 199.066 57.975 197.698 59.9872C194.688 64.3507 190.19 60.6252 187.916 57.557C185.875 55.1099 184.159 52.388 182.892 49.4627L182.871 49.424C182.635 48.9763 182.123 47.6112 181.979 46.9553C181.614 46.763 181.169 46.6698 180.747 46.6182ZM171.108 127.946C171.099 127.957 171.088 127.967 171.077 127.976C171.504 128.582 171.911 129.209 172.33 129.818C171.986 129.256 171.663 128.69 171.377 128.118C171.288 128.06 171.198 128.003 171.108 127.946ZM147.209 104.395C148.841 113.25 151.174 122.567 157.672 129.188C155.65 126.341 154.077 123.017 153.619 119.535C153.6 118.601 153.941 117.614 154.975 117.476C155.152 117.452 155.286 117.61 155.349 117.751L155.355 117.765C155.762 118.736 156.291 119.659 156.917 120.505L156.979 120.585C157.452 121.196 159.458 123.687 159.738 122.496C159.533 116.477 153.31 113.996 152.291 105.707C150.547 105.522 148.892 104.86 147.209 104.395ZM160.589 121.96C160.595 122.055 160.599 122.148 160.597 122.24C160.69 122.202 160.785 122.171 160.882 122.148C160.783 122.087 160.686 122.024 160.589 121.96ZM160.496 121.312C160.531 121.485 160.56 121.659 160.577 121.832C160.755 121.888 160.931 121.95 161.105 122.014C160.999 121.919 160.899 121.818 160.804 121.711C160.694 121.586 160.591 121.452 160.496 121.312ZM162.902 80.2281C161.627 83.7837 160.199 87.2846 158.605 90.7092C157.535 92.7132 156.82 95.0483 155.339 96.7873C155.325 96.8013 155.31 96.8142 155.295 96.8262L155.32 96.8272C155.761 96.8467 158.159 97.0826 156.928 97.6246C156.45 99.5069 155.824 101.346 155.301 103.216L155.289 103.27C155.097 104.175 154.855 105.996 153.57 105.388C153.43 105.495 153.263 105.57 153.083 105.62C153.661 110.688 156.868 113.987 159.403 118.125C158.836 115.941 159.002 113.661 159.199 111.431L159.248 110.883C160.296 100.659 164.14 90.6064 162.902 80.2281ZM173.549 112.724C171.482 110.15 161.319 84.6635 168.501 100.104C171.054 105.479 173.155 111.234 177.367 115.589C177.658 115.902 177.274 116.452 176.896 116.199C175.536 115.292 174.436 114.089 173.549 112.724ZM166.193 81.9201C166.184 81.8788 166.237 81.856 166.261 81.8915C169.022 87.3397 170.994 93.1945 174.114 98.4778C175.997 101.749 178.257 104.799 180.845 107.549C181.04 107.755 180.747 108.04 180.537 107.857C173.149 101.046 169.557 91.1444 166.193 81.9201ZM220.645 104.35L220.64 104.351L220.572 104.527C220.549 104.586 220.526 104.646 220.502 104.706C220.513 104.701 220.525 104.696 220.536 104.692C220.56 104.667 220.584 104.642 220.609 104.617C220.603 104.527 220.614 104.437 220.645 104.35ZM143.263 94.2825C142.888 94.4297 142.427 94.4574 142.013 94.4933C142.477 96.679 142.878 98.8813 143.298 101.073C143.492 101.745 143.949 101.982 144.581 102.195L145.089 102.357C147.461 103.117 149.846 103.897 152.292 104.363C152.464 104.251 152.708 104.256 152.822 104.435C152.941 104.446 153.063 104.453 153.184 104.464C153.837 102.053 154.955 99.7163 156.452 97.7161C152.269 97.8508 148.057 96.7486 144.078 95.5163C143.917 95.5945 143.705 95.5456 143.637 95.3606L143.576 95.3431C142.908 95.145 142.022 94.6586 143.426 94.9057C143.341 94.7082 143.294 94.4958 143.263 94.2825ZM239.429 92.4981C236.656 92.0403 234.538 94.2848 232.172 95.3151C230.755 95.9223 226.981 97.8056 225.608 97.1791C223.727 98.9889 222.138 101.103 221.028 103.476C221.33 103.458 221.633 103.444 221.936 103.435C222.485 103.259 223.07 103.25 223.64 103.419C229.345 103.482 235.053 104.59 240.735 103.186L240.866 103.161C242.033 102.94 246.018 102.098 246.245 101.274C246.185 100.915 245.114 101.294 244.908 101.334C243.27 101.657 241.606 101.811 239.947 101.972C239.485 102.017 239.491 101.299 239.947 101.254C241.944 101.055 243.837 100.306 245.67 99.5262C245.864 99.4398 246.381 99.261 246.738 99.029C245.044 99.3167 243.299 99.3667 241.586 99.3056C240.996 99.2293 240.954 98.3339 241.586 98.3516C242.743 98.4794 243.848 97.9088 244.792 97.3064L244.998 97.1731C246.572 96.1478 246.462 96.1033 244.472 96.4844C241.549 97.0163 238.591 96.9966 235.639 96.7936C235.218 96.7866 234.927 96.22 235.275 95.9166C236.635 94.7438 238.092 93.6978 239.429 92.4981ZM226.029 96.7698L225.997 96.8002C225.929 96.8653 225.873 96.9228 225.842 96.9534L225.83 96.9656C225.788 97.0048 225.747 97.0454 225.706 97.085C225.887 97.1458 226.087 97.1492 226.293 97.1173C226.169 97.0395 226.076 96.9124 226.029 96.7698ZM173.941 87.3816L173.956 87.3983C175.74 89.3266 177.547 92.4537 179.024 94.9197C179.219 96.941 174.851 88.5547 173.948 87.39L173.941 87.3816ZM218.821 94.842C218.838 94.8634 218.854 94.8855 218.871 94.908L218.894 94.942L218.933 94.9184C218.947 94.9099 218.962 94.9047 218.977 94.9009C218.925 94.8817 218.873 94.8616 218.821 94.842ZM210.662 88.2594C212.266 88.5111 208.985 90.5031 208.552 90.7885C208.275 90.8938 205.638 93.069 205.798 92.363L205.873 92.2676C207.101 90.706 208.774 88.9203 210.662 88.2594ZM147.897 84.0848C148.49 83.1298 151.72 84.3871 152.741 84.5377C153.315 84.6891 153.882 84.8682 154.462 84.9953C154.916 85.1596 157.029 85.0004 156.253 85.8957C155.444 86.3304 154.387 85.9944 153.559 85.7636C151.909 85.3135 150.255 84.7883 148.566 84.5385C148.515 84.5132 148.512 84.5303 148.557 84.59C148.92 85.3966 149.684 86.1534 150.544 86.4133C150.604 86.4305 150.579 86.5213 150.519 86.506C149.579 86.3197 147.392 85.2784 147.897 84.0848Z" fill="black"/>
</g>
<path fill-rule="evenodd" clip-rule="evenodd" d="M204.829 12.0092C204.798 10.9271 203.206 10.4778 202.746 11.5495C202.718 11.5782 202.687 11.6058 202.658 11.6305C202.802 11.5084 202.501 11.7104 202.452 11.7354C202.41 11.7567 202.367 11.776 202.324 11.7959C202.028 9.05442 201.024 6.09899 198.43 4.7229C194.811 2.98754 190.63 2.64881 186.66 2.82121C184.649 2.93922 182.327 3.25722 180.54 2.25108C179.983 1.9376 179.537 1.44413 178.908 1.25037C176.922 0.719068 176.021 2.73587 176.291 4.3944C175.444 4.40101 174.604 4.8648 174.238 5.62841C174.024 6.08035 174.027 6.56803 173.842 7.0216C173.274 8.17181 172.462 8.99859 172.921 10.3931C172.113 11.3025 172.574 12.6793 173.226 13.5499C173.548 14.0028 173.931 14.4375 174.167 14.9444C174.396 15.4297 174.051 16.0053 173.858 16.4654C172.436 19.8001 172.517 23.4725 173.283 26.9508C171.747 27.6097 171.286 29.6694 172.288 30.9663C172.632 31.4248 173.052 31.5949 173.529 31.877C174.132 32.2053 173.64 33.5204 173.833 34.1555C174.095 35.706 175.523 36.6608 176.934 35.6539C177.83 35.5199 178.552 38.0972 179.203 38.744C179.604 39.2653 180.049 39.7333 180.532 40.1653C181.974 43.8326 189.359 45.6924 193.01 45.48C196.834 45.0841 199.414 41.8728 201.561 39.0227C202.664 37.5041 203.382 35.8043 203.643 33.9505C203.905 32.0874 203.79 30.2209 203.613 28.3555C203.241 24.3921 202.654 18.6822 202.275 14.676C203.645 14.5644 204.87 13.4108 204.829 12.0092Z" fill="white"/>
<path fill-rule="evenodd" clip-rule="evenodd" d="M174.961 9.62635C174.96 9.63218 174.962 9.6366 174.963 9.64281C174.963 9.64102 174.964 9.64008 174.964 9.63792C174.963 9.63322 174.962 9.63011 174.961 9.62635Z" fill="#4F66AF"/>
<path fill-rule="evenodd" clip-rule="evenodd" d="M174.962 9.68453C174.956 9.67908 174.949 9.67503 174.941 9.66958C174.941 9.66977 174.941 9.66996 174.941 9.67014C174.948 9.67466 174.955 9.67983 174.962 9.68453Z" fill="#4F66AF"/>
<path fill-rule="evenodd" clip-rule="evenodd" d="M204.611 12.5213C205.061 12.1516 205.77 12.492 205.617 13.1008C205.451 13.7638 204.733 14.2168 204.139 14.4892C203.529 14.7695 202.934 14.8235 202.268 14.7929L202.26 14.7911C202.445 15.5244 202.55 16.2866 202.691 17.0244C202.871 17.9603 203.047 18.8966 203.221 19.8334C203.39 20.739 203.602 21.6456 203.732 22.5557C203.862 23.4743 203.987 24.3936 204.115 25.3125C204.329 26.8472 204.502 28.389 204.684 29.9281L204.77 30.6566C204.953 32.1987 205.099 33.7426 204.754 35.2771C204.43 36.7153 203.701 38.0568 202.855 39.2573C202.027 40.4329 201.102 41.5632 200.086 42.5857C198.127 44.5577 195.711 46.1371 192.879 46.4301C191.659 46.5562 190.356 46.4159 189.209 45.9774L189.133 45.948C187.973 45.4948 186.551 44.7188 186.249 43.4453C186.063 42.6642 186.877 42.0543 187.591 42.425C187.922 42.5968 188.17 42.793 188.442 43.0391L188.49 43.0831C188.712 43.2868 188.797 43.3494 189.053 43.5088C189.578 43.8354 189.972 43.9899 190.568 44.1383C191.667 44.4118 192.854 44.3686 193.97 44.0451C196.339 43.3584 198.178 41.5666 199.752 39.77C200.607 38.7943 201.419 37.7709 202.045 36.6338C202.702 35.4408 203.005 34.1883 202.987 32.8308C202.966 31.2992 202.752 29.7615 202.612 28.2371C202.468 26.683 202.336 25.1295 202.22 23.5732C202.11 22.1138 202.1 20.6478 202.062 19.1838L202.054 18.9093C202.032 18.1321 202.016 17.3547 201.998 16.5773C201.981 15.8022 201.919 15.0172 201.999 14.2454C202.005 14.1892 202.082 14.175 202.1 14.2318C202.148 14.3764 202.19 14.5233 202.229 14.671C202.235 14.6665 202.242 14.6624 202.25 14.6596C202.772 14.4822 203.253 14.1281 203.644 13.7462C204.018 13.3818 204.213 12.8479 204.611 12.5213ZM176.053 1.662C176.381 0.330251 177.856 0.0327888 178.947 0.674137C179.472 0.982549 179.892 1.42734 180.382 1.78082C180.87 2.13231 181.408 2.41456 181.977 2.61393C183.106 3.00994 184.297 3.15392 185.49 3.15908C188.395 3.17166 191.24 2.36443 194.149 2.45447C196.399 2.52416 198.788 3.18197 200.421 4.791C201.301 5.65777 201.867 6.77215 202.171 7.95521C202.313 8.50813 202.419 9.07446 202.503 9.63948L202.523 9.7807C202.57 10.1109 202.645 10.4605 202.652 10.7943C202.658 11.094 202.582 11.4076 202.54 11.7043C202.452 12.3296 201.473 12.2584 201.332 11.7043C201.012 10.4427 201.146 9.14062 200.754 7.88335C200.407 6.76844 199.734 5.79361 198.759 5.12692C194.645 2.31429 189.369 4.66964 184.836 4.45082C183.728 4.39734 182.604 4.22802 181.559 3.85074C181.02 3.65617 180.489 3.41889 180.001 3.12044C179.553 2.84716 179.165 2.50382 178.751 2.18786L178.568 2.05046C178.284 1.8391 177.8 1.50865 177.514 1.78824C177.389 1.90994 177.381 2.18512 177.384 2.39525L177.385 2.49022C177.398 3.38233 177.582 4.27282 177.244 5.1347C177.09 5.52783 176.662 5.77569 176.255 5.55306L176.234 5.54112C175.373 5.03457 174.242 6.05243 174.903 6.89482L174.924 6.92029C175.296 7.36754 175.098 8.15514 174.432 8.15317L174.408 8.15276C173.221 8.11612 172.694 9.58278 173.717 10.2236L173.749 10.2428C174.579 10.7343 173.851 11.9159 173 11.5102C173.072 11.5446 172.946 11.5441 172.875 11.6393C172.806 11.7307 172.801 11.8098 172.817 11.9253C172.867 12.2751 173.178 12.57 173.43 12.7913C174.002 13.2942 174.712 13.6415 175.443 13.8529C178.372 14.6997 181.378 13.6638 184.232 13.0382C187.207 12.386 190.568 12.1233 193.162 13.974C193.193 13.9959 193.166 14.0449 193.132 14.0253C191.27 12.9559 188.989 13.0508 186.954 13.4892C184.284 14.0643 181.638 15.1346 178.904 15.4165C179.672 16.7564 179.993 18.3389 179.788 19.8715C179.647 20.9265 179.222 21.8416 178.721 22.7689L178.625 22.9457C178.178 23.778 177.832 24.5644 177.826 25.5287C177.821 26.4868 176.381 26.6888 176.137 25.7549C175.582 23.6342 177.602 21.9637 178.425 20.2148C179.13 18.7198 179.151 16.9768 178.581 15.446C177.938 15.4972 177.29 15.5025 176.636 15.4448C176.074 15.3951 175.496 15.2949 174.932 15.1364L174.706 16.0739C174.408 17.3227 174.131 18.5706 174.047 19.8677C173.985 20.8208 173.988 21.7786 174.082 22.7294C174.164 23.5505 174.335 24.3425 174.51 25.1442C174.659 25.3395 174.736 25.6384 174.694 25.8765C175.666 26.1532 176.43 26.9116 176.709 27.916C176.726 27.9772 176.64 28.0116 176.607 27.9585C175.945 26.8713 174.238 26.4712 173.159 27.1895C172.128 27.8753 171.722 29.2599 172.305 30.356C172.612 30.9323 173.067 31.3373 173.654 31.6162L173.772 31.671C174.079 31.8149 174.361 31.9717 174.559 32.2606C174.816 32.6355 174.824 33.0317 174.8 33.46L174.79 33.6336C174.773 33.9207 174.77 34.2163 174.856 34.4925L174.876 34.5538C174.899 34.6228 174.923 34.6835 174.964 34.7493C174.977 34.7688 175.094 34.8821 175.132 34.9231L175.18 34.9374L175.233 34.9396C175.293 34.9405 175.371 34.915 175.345 34.9327L175.352 34.9287C175.375 34.9148 175.395 34.9001 175.413 34.8871L175.446 34.8614C175.524 34.7504 175.621 34.6586 175.741 34.5887L175.855 34.5384C176.151 34.2289 176.659 34.3916 176.872 34.6999C177.024 34.9216 177.107 35.147 177.113 35.3694C177.137 35.3315 177.19 35.3107 177.224 35.3532L177.426 35.6071C178.197 36.581 178.954 37.5611 179.83 38.449C180.312 38.9382 180.832 39.3979 181.374 39.8213C181.837 40.1829 182.716 40.5307 182.729 41.1893C182.734 41.403 182.58 41.5544 182.392 41.627C181.781 41.8631 181.026 41.06 180.585 40.6693L180.549 40.6377C180.008 40.1698 179.515 39.6561 179.06 39.1068C178.177 38.0397 177.438 36.8116 177.112 35.4606C177.097 35.6963 176.994 35.9274 176.795 36.1454C176.53 36.4355 176.167 36.639 175.78 36.7228C174.902 36.9125 174.044 36.6 173.522 35.8765C173.08 35.2648 172.95 34.4572 173.007 33.7182L173.014 33.6295C173.022 33.511 173.033 33.2935 173.064 33.201L172.787 33.0509C172.448 32.8725 172.134 32.6386 171.852 32.3816C170.719 31.3485 170.15 29.6695 170.669 28.2003C170.993 27.2813 171.673 26.4815 172.545 26.0659C172.4 25.7328 172.351 25.3373 172.296 24.9873L172.287 24.9294C172.193 24.3553 172.115 23.774 172.086 23.193C172.03 22.1079 172.098 21.0128 172.27 19.9403C172.55 18.1983 173.13 16.3509 174.192 14.8896C173.382 14.5712 172.636 14.1103 172.06 13.4703C171.458 12.8016 171.074 11.8441 171.539 10.9948C171.658 10.7783 171.813 10.5963 171.99 10.4518C171.682 9.87663 171.583 9.19682 171.773 8.54705C172 7.77023 172.616 7.16436 173.361 6.88147C173.18 6.14546 173.328 5.3538 173.881 4.74041C174.429 4.13191 175.281 3.91029 176.069 4.04938C176.112 3.26659 175.863 2.43402 176.053 1.662ZM173.842 29.1457C174.565 28.7961 175.421 28.8516 176.143 29.183L176.192 29.206C176.98 29.5839 178.023 30.4667 177.773 31.4057C177.626 31.9548 177.009 32.1423 176.531 31.9053C176.131 31.7072 176.04 31.3531 175.84 30.9974C175.698 30.7458 175.523 30.5492 175.317 30.3469C174.883 29.9208 174.396 29.6042 173.842 29.3509C173.763 29.3143 173.765 29.1831 173.842 29.1457ZM192.048 10.166C191.981 10.1354 192.03 10.0305 192.098 10.0497C193.914 10.5625 195.607 11.7134 196.618 13.3109C196.68 13.4084 196.689 13.5688 196.618 13.6653L196.585 13.7091C196.539 13.769 196.493 13.8132 196.406 13.8266C196.242 13.8517 196.099 13.8095 196.005 13.6653C195.009 12.1426 193.732 10.9274 192.048 10.166ZM204.203 10.4675C204.357 10.2099 204.765 10.2617 204.846 10.5506L204.858 10.5757C204.902 10.6742 204.882 10.6944 204.8 10.6386C205.002 10.8035 205.094 11.0491 205.032 11.3132C204.698 12.7394 203.064 13.7579 201.64 13.6177C201.516 13.6055 201.499 13.4544 201.612 13.4094C202.16 13.19 202.646 12.8337 203.037 12.3965C203.417 11.9716 203.577 11.4853 203.781 10.9721C203.858 10.7794 203.977 10.6407 204.145 10.565C204.168 10.5346 204.187 10.5022 204.203 10.4675ZM196.105 9.55097L196.115 9.55158C196.846 9.64506 197.479 10.0022 197.993 10.5254C198.488 11.0293 199.113 11.8608 199.059 12.6002C199.024 13.0904 198.319 13.3707 198.056 12.869C197.899 12.5696 197.863 12.2415 197.753 11.9249C197.653 11.6348 197.513 11.3593 197.347 11.101C197.003 10.5687 196.531 10.1177 196.048 9.71086C195.991 9.66324 196.031 9.55122 196.105 9.55097ZM177.338 9.33373C177.176 9.18097 177.344 8.92052 177.551 8.97211C178.639 9.24459 179.717 9.57599 180.848 9.60893C181.413 9.62531 181.975 9.58124 182.535 9.50893L182.819 9.47171C183.255 9.41536 183.699 9.37111 184.131 9.45979C184.419 9.51889 184.475 9.8854 184.295 10.0766C183.449 10.9797 181.816 10.8933 180.693 10.7411C179.474 10.5757 178.244 10.1875 177.338 9.33373ZM196.991 6.5189C196.916 6.41673 197.042 6.25547 197.16 6.30081C198.242 6.71419 199.375 7.79047 199.673 8.91651C199.752 9.21398 199.373 9.43859 199.15 9.21778C198.735 8.80629 198.442 8.32023 198.091 7.85771C197.741 7.39663 197.332 6.98713 196.991 6.5189ZM179.27 7.02179C179.183 6.93609 179.27 6.76541 179.395 6.80903C180.099 7.05564 180.809 7.26903 181.548 7.38097C182.306 7.49554 183.071 7.40848 183.832 7.45491C184.141 7.47364 184.35 7.94766 184.008 8.09517C182.486 8.75045 180.419 8.15625 179.27 7.02179ZM181.214 5.55198C181.093 5.46348 181.162 5.22059 181.326 5.28837C181.997 5.56447 182.675 5.63235 183.395 5.60393C183.661 5.59334 183.717 6.00646 183.458 6.0622C182.662 6.23333 181.864 6.02727 181.214 5.55198Z" fill="black"/>
<path fill-rule="evenodd" clip-rule="evenodd" d="M186.3 29.3599C187.912 29.167 189.475 29.6536 191.051 29.8989C191.883 30.0283 192.716 30.1249 193.558 30.1609C193.728 30.1682 193.897 30.1724 194.066 30.1758C194.082 30.0288 194.166 29.8937 194.347 29.8128C194.718 29.6471 195.014 29.5723 195.422 29.5883C195.794 29.6028 196.168 29.6406 196.535 29.7068C197.202 29.8273 197.871 30.1006 198.359 30.5756C199.487 31.6745 199.315 33.4397 198.443 34.6366C196.642 37.11 193.355 37.2248 190.54 37.1925L190.28 37.1892C187.716 37.153 184.049 37.5298 182.884 34.6545C182.456 33.5971 182.515 32.3715 183.04 31.3574C183.665 30.1477 184.982 29.5177 186.3 29.3599ZM194.308 33.4781L194.285 33.479C193.103 33.5239 191.921 33.5555 190.739 33.5761C190.774 33.8755 190.81 34.175 190.851 34.4738C190.884 34.7089 190.918 34.9437 190.955 35.1782C190.97 35.2776 191.026 35.4317 191.01 35.5301L191.004 35.569C191.065 35.5961 191.12 35.6397 191.161 35.703C191.176 35.7249 191.186 35.7469 191.196 35.7689C192.114 35.776 193.102 35.7585 194.038 35.594L194.04 35.5739C194.057 35.456 194.107 35.3767 194.173 35.3223C194.239 34.9464 194.233 34.5458 194.258 34.1729C194.274 33.9412 194.291 33.7097 194.308 33.4781ZM189.835 33.592C188.983 33.6063 188.131 33.6173 187.28 33.607L186.893 33.6012C186.974 34.033 187.063 34.4634 187.137 34.8982C187.214 35.3513 186.81 35.6393 186.46 35.6277C186.499 35.634 186.538 35.6406 186.577 35.6461C187.671 35.7986 188.807 35.7581 189.917 35.7569C189.858 35.4132 189.882 35.0255 189.873 34.7386L189.871 34.6942C189.854 34.3266 189.842 33.9593 189.835 33.592ZM184.049 33.5127C184.078 33.7373 184.136 33.9571 184.222 34.1617C184.586 35.0262 185.419 35.4296 186.301 35.5995C186.148 35.5474 186.027 35.4222 185.996 35.2078C185.92 34.6747 185.892 34.1327 185.89 33.5914C185.275 33.5857 184.656 33.5728 184.049 33.5127ZM197.514 33.3282C197.076 33.43 196.567 33.3833 196.138 33.4025C195.736 33.4205 195.333 33.4363 194.931 33.4523C194.95 33.7231 194.968 33.9938 194.988 34.2643C195.014 34.6141 195.017 34.9837 195.085 35.332C195.894 35.0595 196.62 34.6227 197.164 33.9241C197.3 33.7501 197.421 33.5458 197.514 33.3282ZM186.115 30.7783C185.387 30.9484 184.697 31.3077 184.327 31.9649C184.107 32.355 184.01 32.8172 184.028 33.2727C184.644 33.2021 185.271 33.1753 185.894 33.1531C185.896 33.0424 185.899 32.9319 185.902 32.8216L185.912 32.5388C185.929 31.9996 185.937 31.3224 186.115 30.7783ZM189.886 30.8441L189.566 30.8086C188.675 30.7085 187.784 30.6035 186.894 30.6637C186.765 30.6725 186.634 30.6863 186.502 30.7053C186.66 31.2654 186.647 31.9234 186.712 32.4779C186.738 32.6923 186.77 32.905 186.806 33.1168L186.96 33.1097C187.916 33.0586 188.873 33.0272 189.83 32.9898C189.83 32.8127 189.831 32.6355 189.833 32.4582L189.837 32.281C189.848 31.8282 189.818 31.3182 189.886 30.8441ZM194.36 30.7722C193.427 30.9207 192.463 30.9523 191.546 30.9534C191.18 30.9538 190.814 30.9317 190.448 30.8997C190.472 31.0917 190.485 31.2859 190.503 31.4751C190.539 31.8577 190.58 32.2396 190.625 32.6212L190.665 32.9551C191.841 32.9025 193.016 32.8457 194.192 32.7868L194.358 32.7781L194.405 32.1364C194.436 31.7085 194.471 31.2807 194.52 30.8548L194.483 30.8417C194.44 30.8241 194.399 30.7999 194.36 30.7722ZM194.765 30.9315C194.817 31.5365 194.845 32.144 194.883 32.75L195.658 32.7092C195.787 32.7022 195.916 32.6951 196.045 32.6878C196.548 32.6593 197.193 32.5093 197.689 32.6492C197.727 32.2042 197.598 31.7707 197.191 31.4717C196.476 30.9466 195.565 31.1336 194.765 30.9315ZM192.117 25.5232C193.271 24.8716 196.167 24.2057 196.35 26.2532C196.435 27.1955 195.724 27.9762 194.894 28.3246L194.863 28.3374C194.085 28.6528 192.706 29.009 192.032 28.3251C191.472 27.7558 192.215 26.7352 192.912 27.2015C193.27 27.4411 194.023 27.2646 194.422 27.1506L194.447 27.1434C194.878 27.0185 195.453 26.6188 195.275 26.0956C195.117 25.6328 194.446 25.5482 194.026 25.5332C193.398 25.5111 192.788 25.6547 192.166 25.7014C192.068 25.7088 192.037 25.5683 192.117 25.5232ZM196.898 22.2307C198.464 22.1584 199.439 23.8445 199.078 25.226C199.016 25.4644 198.746 25.6984 198.485 25.6716L198.419 25.6656C198.385 25.6624 198.352 25.6583 198.321 25.6499C198.073 25.5822 197.851 25.328 197.869 25.0645L197.874 24.9877C197.91 24.3351 197.838 23.5832 197.052 23.4251C196.385 23.2911 196.012 23.9242 196.004 24.507C196.003 24.6105 195.885 24.6827 195.792 24.6271C195.31 24.3377 195.226 23.7621 195.41 23.2663C195.644 22.6382 196.228 22.2616 196.898 22.2307ZM185.274 22.5923C186.414 22.2174 187.644 22.8164 188.196 23.8099C188.389 23.8652 188.582 24.0123 188.556 24.2376C188.517 24.5618 188.458 24.7661 188.23 25.0119C187.874 25.3964 187.206 25.1998 187.058 24.7265L187.051 24.7051C186.883 24.0933 186.2 23.6896 185.578 23.9038C184.851 24.1539 184.872 24.9108 184.362 25.3518C184.302 25.4036 184.23 25.4118 184.158 25.3776C183.617 25.1196 183.714 24.343 183.907 23.8986C184.16 23.3153 184.653 22.7966 185.274 22.5923ZM183.721 19.1798C184.645 18.2507 187.054 17.3515 187.686 19.0674C187.806 19.3942 187.55 19.8348 187.205 19.9026C186.639 20.0135 186.138 19.7716 185.577 19.815C185.122 19.8503 184.648 20.0001 184.285 20.2776C183.278 21.0464 183.057 22.3467 182.356 23.3252C182.321 23.3729 182.255 23.3528 182.249 23.2967C182.089 21.8721 182.71 20.1974 183.721 19.1798ZM195.768 18.2651C196.381 18.0517 197.075 18.07 197.691 18.2593C198.312 18.4501 198.882 18.8124 199.321 19.2858C199.52 19.5007 199.704 19.7379 199.852 19.9903C199.93 20.1241 200.013 20.4005 200.102 20.5651C200.585 20.8399 200.792 21.4662 200.359 21.9117L200.34 21.9313L200.282 21.9878C200.05 22.2146 199.699 22.3129 199.382 22.2223C198.672 22.0198 198.586 21.4686 198.34 20.8836C198.178 20.4972 197.9 20.1553 197.563 19.9041C196.766 19.3108 195.459 19.1217 194.5 19.4013C194.449 19.4163 194.389 19.3521 194.425 19.3056C194.607 19.0734 194.712 18.8829 194.955 18.6956C195.202 18.5055 195.472 18.3682 195.768 18.2651Z" fill="black"/>
<path d="M2.71661 450.221V299.353H126.295V239.359H256.935V336.409H383.408V450.221" stroke="black" stroke-width="5"/>
<path d="M179.337 281.165L189.561 287.06L199.784 283.523L203.181 269.768L195.459 261.122H186.022L179.337 269.768V281.165Z" fill="#E0BA31"/>
<path d="M185.235 280.379L180.91 278.021V270.947L185.235 264.266H193.1L195.852 268.589" stroke="#4F4F4F" stroke-width="1.5"/>
<path d="M194.574 262.006L199.293 270.456L197.326 281.263L186.612 284.997" stroke="#4F4F4F" stroke-width="1.5"/>
<path d="M199.047 270.406H202.88" stroke="#4F4F4F"/>
<path d="M197.326 266.329H199.587" stroke="#4F4F4F"/>
<path d="M197.326 281.263L199.391 283.228" stroke="#4F4F4F"/>
<path d="M199.587 273.501L202.045 274.091" stroke="#4F4F4F"/>
<path d="M198.211 277.604L200.767 279.2" stroke="#4F4F4F"/>
<path d="M193.198 283.621L193.886 285.488" stroke="#4F4F4F"/>
<path d="M194.457 311.067V336.267H187.329V316.575H182.649V311.067H194.457Z" fill="black"/>
<path d="M311.339 375.745L321.562 381.64L331.785 378.103L335.183 364.348L327.46 355.702H318.023L311.339 364.348V375.745Z" fill="#CD7F32"/>
<path d="M317.237 374.959L312.911 372.601V365.527L317.237 358.846H325.101L327.853 363.169" stroke="#4F4F4F" stroke-width="1.5"/>
<path d="M326.575 356.586L331.294 365.036L329.328 375.843L318.613 379.577" stroke="#4F4F4F" stroke-width="1.5"/>
<path d="M331.048 364.987H334.882" stroke="#4F4F4F"/>
<path d="M329.328 360.909H331.589" stroke="#4F4F4F"/>
<path d="M329.328 375.844L331.392 377.809" stroke="#4F4F4F"/>
<path d="M331.589 368.082L334.046 368.671" stroke="#4F4F4F"/>
<path d="M330.212 372.185L332.768 373.78" stroke="#4F4F4F"/>
<path d="M325.199 378.202L325.887 380.068" stroke="#4F4F4F"/>
<path d="M326.49 410.768C328.578 411.2 330.174 412.064 331.278 413.36C332.406 414.632 332.97 416.18 332.97 418.004C332.97 419.492 332.562 420.872 331.746 422.144C330.954 423.416 329.73 424.448 328.074 425.24C326.442 426.008 324.414 426.392 321.99 426.392C320.214 426.392 318.45 426.176 316.698 425.744C314.97 425.312 313.47 424.7 312.198 423.908L314.79 418.544C315.774 419.216 316.878 419.732 318.102 420.092C319.35 420.452 320.574 420.632 321.774 420.632C322.998 420.632 323.97 420.404 324.69 419.948C325.41 419.492 325.77 418.844 325.77 418.004C325.77 416.372 324.486 415.556 321.918 415.556H318.93V411.056L323.43 406.196H313.494V400.688H331.71V405.152L326.49 410.768Z" fill="black"/>
<path d="M54.9041 338.366L65.1273 344.261L75.3506 340.724L78.7479 326.968L71.0254 318.322H61.5885L54.9041 326.968V338.366Z" fill="#CFCECE"/>
<path d="M60.8021 337.58L56.4769 335.222V328.147L60.8021 321.466H68.6662L71.4186 325.789" stroke="#4F4F4F" stroke-width="1.5"/>
<path d="M70.1407 319.206L74.8592 327.656L72.8931 338.464L62.1783 342.197" stroke="#4F4F4F" stroke-width="1.5"/>
<path d="M74.6134 327.607H78.4471" stroke="#4F4F4F"/>
<path d="M72.8931 323.529H75.154" stroke="#4F4F4F"/>
<path d="M72.8931 338.464L74.9574 340.429" stroke="#4F4F4F"/>
<path d="M75.154 330.702L77.6115 331.291" stroke="#4F4F4F"/>
<path d="M73.7778 334.805L76.3337 336.401" stroke="#4F4F4F"/>
<path d="M68.7645 340.822L69.4526 342.689" stroke="#4F4F4F"/>
<path d="M74.6923 382.228V387.88H55.0723V383.416L64.5043 374.596C65.4163 373.732 66.0283 373 66.3403 372.4C66.6523 371.776 66.8083 371.152 66.8083 370.528C66.8083 369.712 66.5323 369.076 65.9803 368.62C65.4283 368.164 64.6243 367.936 63.5683 367.936C62.6323 367.936 61.7683 368.152 60.9763 368.584C60.2083 368.992 59.5723 369.592 59.0683 370.384L53.7763 367.432C54.7603 365.8 56.1403 364.516 57.9163 363.58C59.6923 362.644 61.7923 362.176 64.2163 362.176C66.1363 362.176 67.8283 362.488 69.2923 363.112C70.7803 363.736 71.9323 364.636 72.7483 365.812C73.5883 366.964 74.0083 368.308 74.0083 369.844C74.0083 371.212 73.7083 372.508 73.1083 373.732C72.5323 374.932 71.4043 376.3 69.7243 377.836L64.9723 382.228H74.6923Z" fill="black"/>
<defs>
<clipPath id="clip0_276_157">
<rect width="129.852" height="197.197" fill="white" transform="translate(131.17 43.4863)"/>
</clipPath>
</defs>
</svg>
