<svg width="734" height="528" viewBox="0 0 734 528" fill="none" xmlns="http://www.w3.org/2000/svg">
<g clip-path="url(#clip0_87_457)">
<path fill-rule="evenodd" clip-rule="evenodd" d="M375.19 114.786C375.203 115.692 375.294 117.774 375.522 118.651C372.986 114.589 369.187 110.149 368.61 105.174C368.79 105.125 369.589 105.051 369.728 104.946C371.04 105.555 370.792 103.681 370.985 102.814C371.509 100.978 372.609 99.1721 373.087 97.3241C374.343 96.7811 371.82 96.5511 371.454 96.5403C372.978 94.8444 373.678 92.5131 374.763 90.5348C376.358 87.1727 377.785 83.7358 379.06 80.2449C379.339 82.4322 379.389 84.6432 379.219 86.8426C378.695 96.2633 375.154 105.322 375.19 114.786ZM463.185 98.0515C462.396 98.184 461.082 98.3095 460.295 98.3739C461.328 97.7582 464.382 96.5852 462.457 95.531C461.864 95.3144 461.227 95.6234 460.629 95.719C458.144 96.1278 455.075 96.1062 452.561 95.9002C453.478 95.1483 454.684 94.0655 455.579 93.2873C456.054 92.8739 456.515 92.7172 455.98 92.0998C455.038 91.2225 453.352 91.8686 452.263 92.2541C449.257 93.9374 445.863 95.7632 442.637 97.0584C442.604 96.6066 442.624 96.0224 442.189 95.719C440.91 95.1168 439.969 95.2928 438.609 95.1325C437.024 94.895 435.615 94.6248 434.045 94.2057C433.018 93.4229 432.392 91.1143 430.75 91.3723C432.204 87.7141 429.988 83.8975 429.155 80.3947C428.116 76.8099 427.57 73.087 427.555 69.3597C427.545 63.3921 424.087 58.8132 419.091 55.7511C417.121 54.4215 415.798 51.1873 413.36 50.5395C413.049 49.35 413.031 48.8274 412.758 47.6288C412.622 47.2845 412.52 45.4163 412.176 45.4799C411.797 43.6293 409.865 42.8871 408.193 42.4995C406.018 42.0491 402.984 41.5036 401.03 42.7744C400.464 43.2453 400.215 44.0337 400.174 44.738C399.957 45.6759 399.505 46.6474 398.978 47.4612C398.08 47.1577 398.588 46.5921 397.7 46.4605C389.585 45.2581 380.577 51.2092 375.312 57.0147C365.768 66.8115 358.144 80.1857 359.392 94.1485C359.056 94.0989 357.568 93.8658 357.59 94.3358C357.663 96.3791 358.039 98.0834 358.143 100.125C358.039 102.83 360.851 103.156 362.881 103.823C362.756 111.67 365.608 119.52 370.072 125.97C371.157 127.24 372.784 131.645 374.763 129.89C374.997 129.617 373.188 127.728 372.866 127.261C371.767 125.878 368.856 119.03 370.913 117.663C371.37 119.141 375.799 126.249 376.589 122.214C377.637 122.823 379.37 123.238 380.624 123.175C382.98 124.451 385.273 125.829 387.536 127.261C388.59 129.33 390.136 131.318 391.431 133.305C382.467 154.004 373.717 188.073 362.181 207.57C361.175 208.843 366.708 211.007 367.686 211.474C365.817 214.508 365.583 218.023 364.161 221.29C363.89 221.246 363.617 221.304 363.372 221.435C361.618 222.622 360.956 226.873 360.856 228.969C360.937 229.904 360.591 231.318 361.347 232.007C361.241 232.121 361.163 232.261 361.106 232.404C360.574 232.818 360.639 233.734 360.924 234.301C361.926 236.38 369.247 236.187 371.622 236.631C380.038 237.344 387.101 237.456 395.515 236.677C396.548 236.461 395.767 234.85 395.257 234.413C395.493 234.27 395.643 234.008 395.54 233.672C393.627 228.204 386.714 228.574 382.53 225.653C383.63 225.017 382.92 225.22 382.229 225.468C381.496 225.007 380.782 224.488 380.121 223.915C380.629 223.602 380.378 223.395 379.829 223.657C378.964 222.963 378.29 221.891 377.187 221.555C376.107 221.29 376.107 220.828 376.107 220.537C376.75 217.954 377.452 215.305 377.813 212.685C378.197 213.252 381.519 208.705 382.229 207.57C384.99 203.198 384.983 198.891 386.915 194.137C390.883 183.784 399.01 162.087 403.967 152.186C415.564 171.077 409.916 196.628 417.07 216.773C417.388 217.378 417.986 219.648 418.814 218.993C419.136 219.068 419.478 219.109 419.785 219.152C419.696 221.355 419.531 223.551 419.165 225.73C418.824 225.82 418.534 225.999 418.384 226.312C417.81 225.89 416.711 232.109 416.616 232.742C416.615 233.559 415.91 235.379 416.554 235.864C415.627 236.244 415.475 237.645 416.127 238.366C418.064 240.968 427.502 240.253 430.984 240.689C435.387 240.58 453.807 242.228 455.086 238.052C455.34 237.099 454.904 235.896 454.018 235.529C454.372 234.701 453.523 233.902 453.003 233.321C449.939 230.134 445.226 229.632 441.146 228.245C441.298 228.09 435.82 225.283 434.632 224.59C434.711 223.648 432.752 224.592 432.747 224.59C431.813 222.94 431.151 220.373 430.525 218.593C431.681 218.235 434.465 217.917 434.981 216.773C436.639 216.217 434.976 213.812 434.632 212.685C424.91 188.368 434.134 157.696 419.785 134.745C422.415 133.239 425.432 129.943 422.834 127.179C422.314 126.514 421.042 124.445 421.063 124.806C420.58 122.836 419.501 119.443 419.165 117.451C417.931 110.136 418.74 103.287 419.785 95.9002C421.235 101.458 426.235 106.089 431.322 108.628C433.307 109.447 435.928 111.137 438.107 110.604C440.074 110.022 443.647 105.986 444.068 104.047C449.802 104.729 455.755 104.182 461.235 102.38C461.938 102.114 462.771 102.136 462.553 101.138C462.336 100.291 460.79 100.507 460.124 100.665C461.141 100.101 463.78 99.9539 463.761 98.4811C463.726 98.1741 463.499 97.9988 463.185 98.0515Z" fill="white"/>
<path fill-rule="evenodd" clip-rule="evenodd" d="M400.194 43.5651C400.281 43.6004 400.34 43.733 400.376 43.9322C400.473 43.9625 400.556 44.0342 400.581 44.1422C400.655 44.4598 400.569 44.7909 400.502 45.1074L400.495 45.1439C400.432 45.4503 400.355 45.7549 400.262 46.0535L400.248 46.1292C400.02 47.3634 399.58 48.537 399.063 48.3376L399.182 48.555C401.21 52.2338 407.002 62.1117 411.524 60.7038C414.157 59.6486 414.12 56.2186 413.927 53.8315C411.972 55.0305 411.606 45.8525 412.007 44.8382C412.326 44.6036 412.48 46.7149 412.599 47.0059C412.858 48.164 413.175 49.3072 413.474 50.4557C414.104 50.5805 414.7 50.8317 415.228 51.1918C415.253 51.2062 415.279 51.2193 415.303 51.2343C415.62 51.4268 415.867 51.6722 416.087 51.9441C416.335 52.2223 416.548 52.5269 416.749 52.8399C417.191 53.3415 417.612 53.8617 418.047 54.3687C418.253 54.6093 418.464 54.8425 418.68 55.0699L418.847 55.2098C418.875 55.233 418.903 55.2562 418.931 55.2791C423.927 58.3974 427.385 63.0632 427.395 69.1405C427.41 72.9372 427.956 76.7292 428.995 80.3806C429.827 83.9485 432.517 87.5952 431.063 91.3212C432.705 91.0583 432.858 93.1688 433.884 93.9662L434.207 94.0535C435.65 94.4416 436.973 94.7653 438.448 94.9906C439.809 95.1538 441.381 94.9745 442.659 95.5879C443.095 95.897 442.939 96.4548 442.973 96.915C446.199 95.5957 449.096 93.7732 452.102 92.0587L452.202 92.0227C453.315 91.6279 455.299 91.0346 456.214 91.9015C456.748 92.5303 456.208 93.0917 455.733 93.5128C454.839 94.3053 453.89 95.0323 452.974 95.7982C455.443 96.0043 457.92 95.8399 460.361 95.4395L460.495 95.4174C461.093 95.32 461.798 95.0872 462.392 95.3078C464.316 96.3816 462.089 97.635 461.056 98.2622C461.844 98.1966 462.629 98.0988 463.418 97.9637C463.732 97.9101 463.959 98.0887 463.993 98.4014C464.013 99.9016 462.037 99.9824 461.02 100.556L461.102 100.537C461.766 100.383 462.722 100.248 462.93 101.076C463.148 102.093 461.777 102.503 461.073 102.774C455.594 104.61 449.64 105.167 443.907 104.473C443.486 106.447 439.914 110.559 437.947 111.151C435.767 111.694 433.146 109.973 431.161 109.139C426.075 106.552 421.362 102.285 419.912 96.6241C418.693 105.402 419.185 114.252 421.015 122.888C421.312 123.562 421.624 124.224 421.976 124.87C422.082 124.887 422.172 124.958 422.193 125.102C422.204 125.181 422.22 125.257 422.237 125.333C422.588 125.928 422.971 126.499 423.328 127.09C423.401 127.212 423.474 127.339 423.541 127.469C425.913 130.266 423.021 133.87 420.436 135.378C434.784 158.756 425.517 188.217 435.239 212.985L435.26 213.056C435.629 214.234 436.753 216.659 435.128 217.214C434.612 218.379 432.011 218.516 430.856 218.881C431.482 220.694 432.178 222.487 433.112 224.168L433.129 224.175C433.501 223.901 434.298 223.619 434.628 223.917C434.708 223.927 434.788 223.95 434.866 223.988C435.376 224.242 435.787 224.726 436.275 225.031C436.538 225.196 436.813 225.346 437.095 225.477C437.358 225.599 437.638 225.679 437.852 225.88C437.92 225.943 437.937 226.024 437.92 226.098C438.09 226.186 438.259 226.274 438.428 226.363L438.519 226.305C440.01 225.377 441.21 224.874 439.04 226.658C439.818 227.017 440.615 227.331 441.417 227.626C442.026 227.333 442.676 227.119 443.347 227.09C443.468 227.239 442.546 227.815 442.394 227.973C446.474 229.386 450.962 230.492 454.026 233.738L454.095 233.816C454.617 234.4 455.38 235.18 455.04 235.987C455.927 236.361 456.363 237.586 456.108 238.557C454.83 242.81 435.226 241.132 430.823 241.243C427.342 240.799 417.904 241.527 415.967 238.877C415.316 238.143 415.467 236.715 416.394 236.329C415.751 235.834 416.455 233.981 416.457 233.149L416.472 233.053C416.57 232.431 416.997 229.999 417.441 228.3C417.45 228.166 417.468 228.029 417.489 227.891L417.503 227.803C417.591 227.261 417.726 226.71 418.076 226.275C418.328 225.962 418.676 225.769 419.054 225.699C419.155 225.052 419.238 224.403 419.31 223.754C419.36 222.99 419.379 222.225 419.37 221.459C419.366 221.073 419.356 220.686 419.337 220.3C419.323 220.016 419.339 219.679 419.267 219.388C419.219 219.437 419.151 219.464 419.074 219.438C418.911 219.382 418.761 219.279 418.612 219.195C418.606 219.192 418.602 219.188 418.597 219.184C417.798 219.703 417.221 217.485 416.91 216.883C409.756 196.363 415.405 172.748 403.808 153.506C402.207 156.941 400.831 160.093 399.29 163.553C394.477 174.357 388.536 193.388 384.552 204.828C383.468 207.167 382.193 209.427 380.679 211.515C380.195 212.064 379.87 212.872 379.169 213.167L379.107 213.176C378.92 213.526 378.661 213.82 378.274 213.81C378.18 213.808 378.083 213.797 377.985 213.781C377.643 216.161 377.213 218.557 376.641 220.899L376.718 220.867C377.092 220.712 377.486 220.58 377.871 220.615C378.803 220.851 378.458 221.666 377.721 221.935C378.638 222.22 379.259 223.024 379.941 223.694C380.517 223.383 381.162 223.222 381.852 223.29C381.958 223.3 382.038 223.347 382.094 223.41C382.134 223.41 382.172 223.412 382.209 223.419L382.134 223.464C382.256 223.67 382.169 223.984 381.852 223.985C381.604 223.987 381.364 224.009 381.133 224.052C380.972 224.146 380.813 224.241 380.655 224.34C381.187 224.809 381.753 225.243 382.336 225.639C382.644 225.481 382.969 225.349 383.308 225.244C383.745 225.107 383.936 225.802 383.497 225.928C383.404 225.955 383.312 225.985 383.22 226.016L383.13 226.071C383.109 226.084 383.087 226.097 383.064 226.11C387.247 229.085 394.319 228.708 396.231 234.278C396.295 234.488 396.262 234.67 396.173 234.812C396.588 235.193 396.779 235.876 396.686 236.401L396.694 236.445C396.765 236.869 396.662 237.242 396.206 237.339C393.164 237.622 390.129 237.802 387.074 237.858L386.827 237.86C382.449 237.889 361.156 237.73 360.195 234.919C359.939 234.398 359.86 233.591 360.235 233.127C360.279 232.877 360.364 232.65 360.517 232.472C359.9 231.849 360.203 230.278 360.128 229.488C360.263 226.847 360.799 224.016 362.413 221.855C362.439 221.821 362.471 221.8 362.504 221.79C362.786 221.507 363.156 221.328 363.579 221.304C363.592 221.271 363.606 221.238 363.619 221.205C363.948 220.429 364.261 219.638 364.571 218.844C364.802 217.942 365.042 217.042 365.283 216.146C365.524 215.252 365.759 214.356 365.989 213.459C366.173 212.744 366.331 211.938 366.648 211.255C366.64 211.225 366.631 211.196 366.622 211.167L366.291 211.033C364.127 210.154 360.699 208.67 361.452 207.69C369.48 191.008 377.338 167.259 384.705 149.965C384.82 149.626 384.942 149.289 385.075 148.955C385.401 148.142 385.73 147.33 386.065 146.52L386.266 146.035L389.475 138.312C389.811 137.504 390.19 136.7 390.455 135.864C390.71 135.06 390.778 134.259 390.294 133.527C389.86 132.872 389.249 132.33 388.76 131.714C388.39 131.249 388.03 130.752 387.707 130.23C387.413 129.843 387.168 129.4 386.95 129.043C386.599 128.472 386.153 127.839 385.899 127.178C385.571 126.971 385.242 126.765 384.912 126.562C384.342 126.242 383.781 125.908 383.236 125.546C382.546 125.136 381.853 124.733 381.153 124.34C380.901 124.215 380.649 124.09 380.396 123.965C379.638 124.031 377.546 123.097 376.833 122.466C376.751 122.449 376.67 122.431 376.59 122.41C376.557 122.814 376.426 123.179 376.118 123.45C374.076 124.464 371.472 119.873 370.755 118.341C369.329 119.734 372.731 126.625 373.83 128.034L373.889 128.121C374.183 128.562 374.491 129.056 374.908 129.382L374.95 129.414C375.236 129.625 375.289 129.955 375.056 130.233C373.076 132.021 370.998 128.096 369.914 126.803C365.45 120.233 362.598 112.237 362.723 104.244C360.693 103.565 357.882 103.233 357.985 100.478C357.881 98.398 357.505 96.3406 357.432 94.2594C357.411 93.7807 358.898 94.0181 359.234 94.0686C358.739 89.2867 359.487 84.4317 360.819 79.8358C364.318 68.0761 378.726 46.8809 392.907 46.1157C392.895 46.0926 392.901 46.0614 392.932 46.0531C393.574 45.8865 394.284 45.9131 394.943 45.9341C395.63 45.9559 396.327 45.9606 397.01 46.0382C397.718 46.1184 398.468 46.3786 398.943 46.8934L399.108 46.5962C399.299 46.2493 399.483 45.8989 399.622 45.5161C399.693 45.3226 399.748 45.1221 399.798 44.9195C399.855 44.6305 399.869 44.3296 400.006 44.0671C400.01 44.0603 400.014 44.0546 400.018 44.0482C400.067 43.8828 400.124 43.7208 400.194 43.5651ZM417.599 236.319C417.396 236.525 417.045 236.614 416.733 236.516C415.699 239.454 421.31 239.27 423.111 239.435C425.031 239.64 460.007 241.459 454.092 237.151C447.153 239.796 423.942 240.087 417.599 236.319ZM434.632 224.669C434.165 225.15 433.461 225.364 432.96 225.824C431.545 227.021 430.406 228.706 428.449 229.024C425.878 229.503 423.56 228.235 421.261 227.23C420.974 227.216 420.676 227.095 420.382 227.006C420.372 227.027 420.361 227.048 420.35 227.068C420.335 227.062 420.32 227.058 420.303 227.055C420.277 227.051 420.253 227.048 420.228 227.044C420.169 226.997 420.107 226.958 420.043 226.924C420.004 226.918 419.965 226.913 419.926 226.911C419.453 226.882 418.938 226.992 418.634 227.385C418.608 227.418 418.584 227.454 418.562 227.49C418.414 228.012 418.395 228.644 418.466 229.086C418.489 229.23 418.429 229.372 418.327 229.454C418.237 231.64 417.99 233.834 417.819 235.991C418.679 236.3 419.571 236.536 420.464 236.685C426.628 237.442 432.858 237.794 439.07 237.604C442.767 237.47 446.459 237.14 450.119 236.591C451.302 236.479 452.512 236.022 453.694 236.207C453.745 236.112 453.823 236.03 453.932 235.975C450.902 231.826 445.724 230.705 441.209 228.886C440.463 229.362 440.004 230.355 439.173 230.651C438.851 230.699 438.402 230.509 438.45 230.1C438.584 229.263 439.488 228.881 440.097 228.395C439.444 228.089 438.803 227.758 438.177 227.389C437.563 227.943 436.835 228.364 436.26 228.955C436.587 229.753 435.224 229.684 435.209 228.834C435.303 227.894 436.792 227.496 437.457 226.948C436.419 226.316 435.491 225.519 434.632 224.669ZM361.43 232.883C361.394 232.954 361.334 233.019 361.247 233.07C361.095 233.157 361.168 233.621 361.176 233.777L361.176 233.788C361.185 234.069 361.202 234.349 361.226 234.628C361.482 234.859 361.809 235.034 362.172 235.139C373.238 236.905 384.516 237.048 395.689 236.407C395.638 236.11 395.42 235.866 395.228 235.618C388.165 236.218 380.932 235.59 373.857 235.005C369.721 234.462 365.387 234.237 361.43 232.883ZM377.54 222.019C375.717 222.646 374.02 223.517 372.403 224.56C371.802 224.951 371.229 225.399 370.538 225.623C368.147 226.343 364.563 222.887 364.505 222.848C363.675 222.289 362.794 222.81 362.343 223.585C362.301 223.656 361.608 227.618 361.629 229.559C361.505 230.219 361.837 231.297 361.66 232.017C361.799 232.183 361.997 232.262 362.13 232.437C362.178 232.5 362.164 232.571 362.123 232.625C368.579 233.156 374.999 234.165 381.486 234.377C385.926 234.612 390.375 234.558 394.815 234.504C393.805 231.539 390.364 230.755 387.735 229.779C385.749 229.065 383.921 228.003 382.312 226.636C381.614 227.126 381.064 227.812 380.569 228.502C380.345 228.782 379.884 228.994 379.643 228.605C379.395 228.202 379.879 227.693 380.476 227.247C380.79 226.782 381.186 226.386 381.642 226.06C381.138 225.61 380.652 225.142 380.198 224.645C379.255 225.283 378.562 226.202 377.883 227.094C377.557 227.45 376.948 226.98 377.215 226.579C377.429 226.303 377.671 226.048 377.929 225.809C378.318 225.075 378.879 224.397 379.559 223.927L379.507 223.861C378.939 223.132 378.448 222.258 377.54 222.019ZM361.472 232.417C361.456 232.436 361.439 232.455 361.422 232.473C361.438 232.505 361.45 232.538 361.458 232.572L361.624 232.585C361.567 232.538 361.516 232.48 361.472 232.417ZM430.249 219.001C426.866 219.64 423.372 219.885 419.957 219.358C420.353 221.563 420.6 223.781 420.471 226.02C425.576 227.494 427.697 229.95 431.945 225.04C431.74 224.728 431.621 224.344 431.483 223.974C430.896 222.369 430.411 220.708 430.249 219.001ZM368.115 211.77C368.067 211.877 367.98 211.964 367.855 212.003C367.81 212.2 367.764 212.398 367.715 212.594C367.632 213.61 367.248 214.617 366.852 215.554L366.771 215.749C366.509 216.528 366.235 217.306 365.965 218.085C365.76 218.894 365.579 219.709 365.39 220.522C365.354 221.073 365.276 221.62 365.155 222.16C365.15 222.186 365.142 222.209 365.134 222.231C365.323 222.315 365.506 222.413 365.678 222.512C370.857 226.402 369.963 223.801 374.936 221.623C374.907 221.414 375.012 221.225 375.097 221.008L375.108 220.98C375.114 220.966 375.119 220.952 375.124 220.939C375.116 220.856 375.121 220.767 375.142 220.673C375.646 218.613 376.348 216.59 377.004 214.574C377.109 214.271 377.231 213.974 377.355 213.678C374.202 213.638 371.083 212.798 368.115 211.77ZM366.751 212.77C366.69 213.04 366.624 213.305 366.563 213.562L366.474 213.944C366.601 213.557 366.701 213.165 366.751 212.77ZM396.747 46.6182C395.65 46.8852 394.525 46.9942 393.421 47.2156C385.814 48.1224 379.982 53.515 374.958 58.8693C365.442 68.8614 359.905 81.1562 360.314 95.052C363.712 95.6709 367.075 96.5768 370.538 96.7747C370.035 96.0128 370.878 95.0597 371.168 94.3301C376.176 84.6572 380.043 73.9791 383.183 63.7954L383.098 64.2399C382.112 69.351 380.963 74.4403 379.21 79.3498C379.718 78.8508 388.06 72.2187 387.408 74.4116C384.859 76.4029 381.981 77.9809 379.31 79.8083C382.485 90.4113 377.895 101.154 377.023 111.762C376.804 114.12 376.823 116.495 376.528 118.845C376.416 119.111 376.534 119.651 376.369 119.904C376.491 120.527 376.748 121.096 377.278 121.582C377.501 121.787 377.745 121.965 378.001 122.123C378.64 122.22 379.283 122.466 379.803 122.694C380.962 123.201 381.981 123.949 383.017 124.663L383.045 124.682C384.714 125.539 386.382 126.514 388.057 127.53L388.131 127.569C388.754 127.896 389.391 128.19 389.933 128.643C389.958 128.664 389.975 128.688 389.985 128.712L391.002 129.34C399.148 134.365 407.546 139.334 417.096 135.748C419.779 134.667 423.68 132.478 423.179 129.094C423.08 128.769 422.93 128.464 422.76 128.167C422.713 128.104 422.664 128.041 422.615 127.979C422.245 127.512 421.831 127.083 421.51 126.578C421.379 126.372 421.262 126.161 421.159 125.943C421.087 125.921 421.022 125.87 420.982 125.782C420.522 124.78 420.072 123.776 419.652 122.756C414.569 105.04 420.739 86.005 422.485 68.1365C422.606 67.1133 422.784 66.0797 422.784 65.049C422.784 65.0007 422.854 65.0023 422.858 65.049C423.473 69.6097 423.006 74.2127 422.421 78.7527C421.671 84.4323 420.687 90.0883 420.01 95.7782C421.809 101.513 426.846 105.658 432.135 108.143C433.035 108.57 433.955 108.951 434.893 109.286L434.956 109.308C435.987 109.669 437.15 110.226 438.145 109.496C440.053 108.201 441.4 106.225 442.637 104.322C442.137 104.268 441.636 104.221 441.135 104.187C439.903 105.594 438.395 106.789 436.803 107.766C436.154 108.138 435.418 107.98 435.118 107.253C434.835 106.566 435.181 105.765 435.432 105.103L435.468 105.006C436.739 101.582 438.945 98.4433 441.923 96.2988C439.676 95.8497 437.342 95.8634 435.186 94.9758C435.304 95.0993 435.15 95.2374 435.075 95.342C435.102 95.545 434.954 95.6934 434.773 95.7477C433.014 98.0448 431.681 100.765 431.403 103.679C431.477 104.671 430.588 105.817 429.733 104.775C429.064 101.875 431.696 97.3423 434.01 95.5527C431.689 93.9606 432.365 91.6631 430.909 91.6525C430.532 92.3748 430.041 93.0663 429.422 93.6028C429.142 93.8303 428.802 94.0017 428.502 94.2035C428.186 94.4158 427.857 93.9488 428.107 93.6925L428.173 93.6132C429.123 92.4771 430.252 91.3604 430.448 89.8235C430.732 87.9308 429.881 86.0133 429.228 84.2843C427.978 80.9698 427.148 77.521 426.744 74.0017C426.286 70.8484 426.843 67.5777 425.763 64.5263C425.548 63.6766 425.24 62.9026 424.861 62.1843C424.852 62.1768 424.843 62.1692 424.835 62.1598C424.386 61.6404 424.027 61.0626 423.608 60.5186C423.17 59.9495 422.695 59.4079 422.192 58.8954C421.352 58.0391 420.424 57.3246 419.456 56.6366C419.438 56.6302 419.42 56.6218 419.402 56.6111C419.221 56.504 419.047 56.374 418.879 56.2312L418.863 56.2198C418.3 55.829 417.726 55.4048 417.287 54.8742C416.856 54.3532 416.549 53.7456 416.197 53.1718C415.716 52.5852 415.258 51.9568 414.677 51.4681C414.349 51.2808 414.008 51.1044 413.715 50.8702C413.667 50.8502 413.618 50.8311 413.569 50.8132C413.694 51.3218 413.882 51.7898 414.052 52.3064C414.299 52.2024 414.636 52.3177 414.678 52.6972L414.693 52.8388C414.94 55.1628 415.066 57.975 413.698 59.9872C410.688 64.3507 406.19 60.6252 403.916 57.557C401.875 55.1099 400.159 52.388 398.892 49.4627L398.871 49.424C398.635 48.9763 398.123 47.6112 397.979 46.9553C397.614 46.763 397.169 46.6698 396.747 46.6182ZM387.108 127.946C387.099 127.957 387.088 127.967 387.077 127.976C387.504 128.582 387.911 129.209 388.33 129.818C387.986 129.256 387.663 128.69 387.377 128.118C387.288 128.06 387.198 128.003 387.108 127.946ZM363.209 104.395C364.841 113.25 367.174 122.567 373.672 129.188C371.65 126.341 370.077 123.017 369.619 119.535C369.6 118.601 369.941 117.614 370.975 117.476C371.152 117.452 371.286 117.61 371.349 117.751L371.355 117.765C371.762 118.736 372.291 119.659 372.917 120.505L372.979 120.585C373.452 121.196 375.458 123.687 375.738 122.496C375.533 116.477 369.31 113.996 368.291 105.707C366.547 105.522 364.892 104.86 363.209 104.395ZM376.589 121.96C376.595 122.055 376.599 122.148 376.597 122.24C376.69 122.202 376.785 122.171 376.882 122.148C376.783 122.087 376.686 122.024 376.589 121.96ZM376.496 121.312C376.531 121.485 376.56 121.659 376.577 121.832C376.755 121.888 376.931 121.95 377.105 122.014C376.999 121.919 376.899 121.818 376.804 121.711C376.694 121.586 376.591 121.452 376.496 121.312ZM378.902 80.2281C377.627 83.7837 376.199 87.2846 374.605 90.7092C373.535 92.7132 372.82 95.0483 371.339 96.7873C371.325 96.8013 371.31 96.8142 371.295 96.8262L371.32 96.8272C371.761 96.8467 374.159 97.0826 372.928 97.6246C372.45 99.5069 371.824 101.346 371.301 103.216L371.289 103.27C371.097 104.175 370.855 105.996 369.57 105.388C369.43 105.495 369.263 105.57 369.083 105.62C369.661 110.688 372.868 113.987 375.403 118.125C374.836 115.941 375.002 113.661 375.199 111.431L375.248 110.883C376.296 100.659 380.14 90.6064 378.902 80.2281ZM389.549 112.724C387.482 110.15 377.319 84.6635 384.501 100.104C387.054 105.479 389.155 111.234 393.367 115.589C393.658 115.902 393.274 116.452 392.896 116.199C391.536 115.292 390.436 114.089 389.549 112.724ZM382.193 81.9201C382.184 81.8788 382.237 81.856 382.261 81.8915C385.022 87.3397 386.994 93.1945 390.114 98.4778C391.997 101.749 394.257 104.799 396.845 107.549C397.04 107.755 396.747 108.04 396.537 107.857C389.149 101.046 385.557 91.1444 382.193 81.9201ZM436.645 104.35L436.64 104.351L436.572 104.527C436.549 104.586 436.526 104.646 436.502 104.706C436.513 104.701 436.525 104.696 436.536 104.692C436.56 104.667 436.584 104.642 436.609 104.617C436.603 104.527 436.614 104.437 436.645 104.35ZM359.263 94.2825C358.888 94.4297 358.427 94.4574 358.013 94.4933C358.477 96.679 358.878 98.8813 359.298 101.073C359.492 101.745 359.949 101.982 360.581 102.195L361.089 102.357C363.461 103.117 365.846 103.897 368.292 104.363C368.464 104.251 368.708 104.256 368.822 104.435C368.941 104.446 369.063 104.453 369.184 104.464C369.837 102.053 370.955 99.7163 372.452 97.7161C368.269 97.8508 364.057 96.7486 360.078 95.5163C359.917 95.5945 359.705 95.5456 359.637 95.3606L359.576 95.3431C358.908 95.145 358.022 94.6586 359.426 94.9057C359.341 94.7082 359.294 94.4958 359.263 94.2825ZM455.429 92.4981C452.656 92.0403 450.538 94.2848 448.172 95.3151C446.755 95.9223 442.981 97.8056 441.608 97.1791C439.727 98.9889 438.138 101.103 437.028 103.476C437.33 103.458 437.633 103.444 437.936 103.435C438.485 103.259 439.07 103.25 439.64 103.419C445.345 103.482 451.053 104.59 456.735 103.186L456.866 103.161C458.033 102.94 462.018 102.098 462.245 101.274C462.185 100.915 461.114 101.294 460.908 101.334C459.27 101.657 457.606 101.811 455.947 101.972C455.485 102.017 455.491 101.299 455.947 101.254C457.944 101.055 459.837 100.306 461.67 99.5262C461.864 99.4398 462.381 99.261 462.738 99.029C461.044 99.3167 459.299 99.3667 457.586 99.3056C456.996 99.2293 456.954 98.3339 457.586 98.3516C458.743 98.4794 459.848 97.9088 460.792 97.3064L460.998 97.1731C462.572 96.1478 462.462 96.1033 460.472 96.4844C457.549 97.0163 454.591 96.9966 451.639 96.7936C451.218 96.7866 450.927 96.22 451.275 95.9166C452.635 94.7438 454.092 93.6978 455.429 92.4981ZM442.029 96.7698L441.997 96.8002C441.929 96.8653 441.873 96.9228 441.842 96.9534L441.83 96.9656C441.788 97.0048 441.747 97.0454 441.706 97.085C441.887 97.1458 442.087 97.1492 442.293 97.1173C442.169 97.0395 442.076 96.9124 442.029 96.7698ZM389.941 87.3816L389.956 87.3983C391.74 89.3266 393.547 92.4537 395.024 94.9197C395.219 96.941 390.851 88.5547 389.948 87.39L389.941 87.3816ZM434.821 94.842C434.838 94.8634 434.854 94.8855 434.871 94.908L434.894 94.942L434.933 94.9184C434.947 94.9099 434.962 94.9047 434.977 94.9009C434.925 94.8817 434.873 94.8616 434.821 94.842ZM426.662 88.2594C428.266 88.5111 424.985 90.5031 424.552 90.7885C424.275 90.8938 421.638 93.069 421.798 92.363L421.873 92.2676C423.101 90.706 424.774 88.9203 426.662 88.2594ZM363.897 84.0848C364.49 83.1298 367.72 84.3871 368.741 84.5377C369.315 84.6891 369.882 84.8682 370.462 84.9953C370.916 85.1596 373.029 85.0004 372.253 85.8957C371.444 86.3304 370.387 85.9944 369.559 85.7636C367.909 85.3135 366.255 84.7883 364.566 84.5385C364.515 84.5132 364.512 84.5303 364.557 84.59C364.92 85.3966 365.684 86.1534 366.544 86.4133C366.604 86.4305 366.579 86.5213 366.519 86.506C365.579 86.3197 363.392 85.2784 363.897 84.0848Z" fill="black"/>
</g>
<path fill-rule="evenodd" clip-rule="evenodd" d="M420.829 12.0092C420.798 10.9271 419.206 10.4778 418.746 11.5495C418.718 11.5782 418.687 11.6058 418.658 11.6305C418.802 11.5084 418.501 11.7104 418.452 11.7354C418.41 11.7567 418.367 11.776 418.324 11.7959C418.028 9.05442 417.024 6.09899 414.43 4.7229C410.811 2.98754 406.63 2.64881 402.66 2.82121C400.649 2.93922 398.327 3.25722 396.54 2.25108C395.983 1.9376 395.537 1.44413 394.908 1.25037C392.922 0.719068 392.021 2.73587 392.291 4.3944C391.444 4.40101 390.604 4.8648 390.238 5.62841C390.024 6.08035 390.027 6.56803 389.842 7.0216C389.274 8.17181 388.462 8.99859 388.921 10.3931C388.113 11.3025 388.574 12.6793 389.226 13.5499C389.548 14.0028 389.931 14.4375 390.167 14.9444C390.396 15.4297 390.051 16.0053 389.858 16.4654C388.436 19.8001 388.517 23.4725 389.283 26.9508C387.747 27.6097 387.286 29.6694 388.288 30.9663C388.632 31.4248 389.052 31.5949 389.529 31.877C390.132 32.2053 389.64 33.5204 389.833 34.1555C390.095 35.706 391.523 36.6608 392.934 35.6539C393.83 35.5199 394.552 38.0972 395.203 38.744C395.604 39.2653 396.049 39.7333 396.532 40.1653C397.974 43.8326 405.359 45.6924 409.01 45.48C412.834 45.0841 415.414 41.8728 417.561 39.0227C418.664 37.5041 419.382 35.8043 419.643 33.9505C419.905 32.0874 419.79 30.2209 419.613 28.3555C419.241 24.3921 418.654 18.6822 418.275 14.676C419.645 14.5644 420.87 13.4108 420.829 12.0092Z" fill="white"/>
<path fill-rule="evenodd" clip-rule="evenodd" d="M390.961 9.62635C390.96 9.63218 390.962 9.6366 390.963 9.64281C390.963 9.64102 390.964 9.64008 390.964 9.63792C390.963 9.63322 390.962 9.63011 390.961 9.62635Z" fill="#4F66AF"/>
<path fill-rule="evenodd" clip-rule="evenodd" d="M390.962 9.68453C390.956 9.67908 390.949 9.67503 390.941 9.66958C390.941 9.66977 390.941 9.66996 390.941 9.67014C390.948 9.67466 390.955 9.67983 390.962 9.68453Z" fill="#4F66AF"/>
<path fill-rule="evenodd" clip-rule="evenodd" d="M420.611 12.5213C421.061 12.1516 421.77 12.492 421.617 13.1008C421.451 13.7638 420.733 14.2168 420.139 14.4892C419.529 14.7695 418.934 14.8235 418.268 14.7929L418.26 14.7911C418.445 15.5244 418.55 16.2866 418.691 17.0244C418.871 17.9603 419.047 18.8966 419.221 19.8334C419.39 20.739 419.602 21.6456 419.732 22.5557C419.862 23.4743 419.987 24.3936 420.115 25.3125C420.329 26.8472 420.502 28.389 420.684 29.9281L420.77 30.6566C420.953 32.1987 421.099 33.7426 420.754 35.2771C420.43 36.7153 419.701 38.0568 418.855 39.2573C418.027 40.4329 417.102 41.5632 416.086 42.5857C414.127 44.5577 411.711 46.1371 408.879 46.4301C407.659 46.5562 406.356 46.4159 405.209 45.9774L405.133 45.948C403.973 45.4948 402.551 44.7188 402.249 43.4453C402.063 42.6642 402.877 42.0543 403.591 42.425C403.922 42.5968 404.17 42.793 404.442 43.0391L404.49 43.0831C404.712 43.2868 404.797 43.3494 405.053 43.5088C405.578 43.8354 405.972 43.9899 406.568 44.1383C407.667 44.4118 408.854 44.3686 409.97 44.0451C412.339 43.3584 414.178 41.5666 415.752 39.77C416.607 38.7943 417.419 37.7709 418.045 36.6338C418.702 35.4408 419.005 34.1883 418.987 32.8308C418.966 31.2992 418.752 29.7615 418.612 28.2371C418.468 26.683 418.336 25.1295 418.22 23.5732C418.11 22.1138 418.1 20.6478 418.062 19.1838L418.054 18.9093C418.032 18.1321 418.016 17.3547 417.998 16.5773C417.981 15.8022 417.919 15.0172 417.999 14.2454C418.005 14.1892 418.082 14.175 418.1 14.2318C418.148 14.3764 418.19 14.5233 418.229 14.671C418.235 14.6665 418.242 14.6624 418.25 14.6596C418.772 14.4822 419.253 14.1281 419.644 13.7462C420.018 13.3818 420.213 12.8479 420.611 12.5213ZM392.053 1.662C392.381 0.330251 393.856 0.0327888 394.947 0.674137C395.472 0.982549 395.892 1.42734 396.382 1.78082C396.87 2.13231 397.408 2.41456 397.977 2.61393C399.106 3.00994 400.297 3.15392 401.49 3.15908C404.395 3.17166 407.24 2.36443 410.149 2.45447C412.399 2.52416 414.788 3.18197 416.421 4.791C417.301 5.65777 417.867 6.77215 418.171 7.95521C418.313 8.50813 418.419 9.07446 418.503 9.63948L418.523 9.7807C418.57 10.1109 418.645 10.4605 418.652 10.7943C418.658 11.094 418.582 11.4076 418.54 11.7043C418.452 12.3296 417.473 12.2584 417.332 11.7043C417.012 10.4427 417.146 9.14062 416.754 7.88335C416.407 6.76844 415.734 5.79361 414.759 5.12692C410.645 2.31429 405.369 4.66964 400.836 4.45082C399.728 4.39734 398.604 4.22802 397.559 3.85074C397.02 3.65617 396.489 3.41889 396.001 3.12044C395.553 2.84716 395.165 2.50382 394.751 2.18786L394.568 2.05046C394.284 1.8391 393.8 1.50865 393.514 1.78824C393.389 1.90994 393.381 2.18512 393.384 2.39525L393.385 2.49022C393.398 3.38233 393.582 4.27282 393.244 5.1347C393.09 5.52783 392.662 5.77569 392.255 5.55306L392.234 5.54112C391.373 5.03457 390.242 6.05243 390.903 6.89482L390.924 6.92029C391.296 7.36754 391.098 8.15514 390.432 8.15317L390.408 8.15276C389.221 8.11612 388.694 9.58278 389.717 10.2236L389.749 10.2428C390.579 10.7343 389.851 11.9159 389 11.5102C389.072 11.5446 388.946 11.5441 388.875 11.6393C388.806 11.7307 388.801 11.8098 388.817 11.9253C388.867 12.2751 389.178 12.57 389.43 12.7913C390.002 13.2942 390.712 13.6415 391.443 13.8529C394.372 14.6997 397.378 13.6638 400.232 13.0382C403.207 12.386 406.568 12.1233 409.162 13.974C409.193 13.9959 409.166 14.0449 409.132 14.0253C407.27 12.9559 404.989 13.0508 402.954 13.4892C400.284 14.0643 397.638 15.1346 394.904 15.4165C395.672 16.7564 395.993 18.3389 395.788 19.8715C395.647 20.9265 395.222 21.8416 394.721 22.7689L394.625 22.9457C394.178 23.778 393.832 24.5644 393.826 25.5287C393.821 26.4868 392.381 26.6888 392.137 25.7549C391.582 23.6342 393.602 21.9637 394.425 20.2148C395.13 18.7198 395.151 16.9768 394.581 15.446C393.938 15.4972 393.29 15.5025 392.636 15.4448C392.074 15.3951 391.496 15.2949 390.932 15.1364L390.706 16.0739C390.408 17.3227 390.131 18.5706 390.047 19.8677C389.985 20.8208 389.988 21.7786 390.082 22.7294C390.164 23.5505 390.335 24.3425 390.51 25.1442C390.659 25.3395 390.736 25.6384 390.694 25.8765C391.666 26.1532 392.43 26.9116 392.709 27.916C392.726 27.9772 392.64 28.0116 392.607 27.9585C391.945 26.8713 390.238 26.4712 389.159 27.1895C388.128 27.8753 387.722 29.2599 388.305 30.356C388.612 30.9323 389.067 31.3373 389.654 31.6162L389.772 31.671C390.079 31.8149 390.361 31.9717 390.559 32.2606C390.816 32.6355 390.824 33.0317 390.8 33.46L390.79 33.6336C390.773 33.9207 390.77 34.2163 390.856 34.4925L390.876 34.5538C390.899 34.6228 390.923 34.6835 390.964 34.7493C390.977 34.7688 391.094 34.8821 391.132 34.9231L391.18 34.9374L391.233 34.9396C391.293 34.9405 391.371 34.915 391.345 34.9327L391.352 34.9287C391.375 34.9148 391.395 34.9001 391.413 34.8871L391.446 34.8614C391.524 34.7504 391.621 34.6586 391.741 34.5887L391.855 34.5384C392.151 34.2289 392.659 34.3916 392.872 34.6999C393.024 34.9216 393.107 35.147 393.113 35.3694C393.137 35.3315 393.19 35.3107 393.224 35.3532L393.426 35.6071C394.197 36.581 394.954 37.5611 395.83 38.449C396.312 38.9382 396.832 39.3979 397.374 39.8213C397.837 40.1829 398.716 40.5307 398.729 41.1893C398.734 41.403 398.58 41.5544 398.392 41.627C397.781 41.8631 397.026 41.06 396.585 40.6693L396.549 40.6377C396.008 40.1698 395.515 39.6561 395.06 39.1068C394.177 38.0397 393.438 36.8116 393.112 35.4606C393.097 35.6963 392.994 35.9274 392.795 36.1454C392.53 36.4355 392.167 36.639 391.78 36.7228C390.902 36.9125 390.044 36.6 389.522 35.8765C389.08 35.2648 388.95 34.4572 389.007 33.7182L389.014 33.6295C389.022 33.511 389.033 33.2935 389.064 33.201L388.787 33.0509C388.448 32.8725 388.134 32.6386 387.852 32.3816C386.719 31.3485 386.15 29.6695 386.669 28.2003C386.993 27.2813 387.673 26.4815 388.545 26.0659C388.4 25.7328 388.351 25.3373 388.296 24.9873L388.287 24.9294C388.193 24.3553 388.115 23.774 388.086 23.193C388.03 22.1079 388.098 21.0128 388.27 19.9403C388.55 18.1983 389.13 16.3509 390.192 14.8896C389.382 14.5712 388.636 14.1103 388.06 13.4703C387.458 12.8016 387.074 11.8441 387.539 10.9948C387.658 10.7783 387.813 10.5963 387.99 10.4518C387.682 9.87663 387.583 9.19682 387.773 8.54705C388 7.77023 388.616 7.16436 389.361 6.88147C389.18 6.14546 389.328 5.3538 389.881 4.74041C390.429 4.13191 391.281 3.91029 392.069 4.04938C392.112 3.26659 391.863 2.43402 392.053 1.662ZM389.842 29.1457C390.565 28.7961 391.421 28.8516 392.143 29.183L392.192 29.206C392.98 29.5839 394.023 30.4667 393.773 31.4057C393.626 31.9548 393.009 32.1423 392.531 31.9053C392.131 31.7072 392.04 31.3531 391.84 30.9974C391.698 30.7458 391.523 30.5492 391.317 30.3469C390.883 29.9208 390.396 29.6042 389.842 29.3509C389.763 29.3143 389.765 29.1831 389.842 29.1457ZM408.048 10.166C407.981 10.1354 408.03 10.0305 408.098 10.0497C409.914 10.5625 411.607 11.7134 412.618 13.3109C412.68 13.4084 412.689 13.5688 412.618 13.6653L412.585 13.7091C412.539 13.769 412.493 13.8132 412.406 13.8266C412.242 13.8517 412.099 13.8095 412.005 13.6653C411.009 12.1426 409.732 10.9274 408.048 10.166ZM420.203 10.4675C420.357 10.2099 420.765 10.2617 420.846 10.5506L420.858 10.5757C420.902 10.6742 420.882 10.6944 420.8 10.6386C421.002 10.8035 421.094 11.0491 421.032 11.3132C420.698 12.7394 419.064 13.7579 417.64 13.6177C417.516 13.6055 417.499 13.4544 417.612 13.4094C418.16 13.19 418.646 12.8337 419.037 12.3965C419.417 11.9716 419.577 11.4853 419.781 10.9721C419.858 10.7794 419.977 10.6407 420.145 10.565C420.168 10.5346 420.187 10.5022 420.203 10.4675ZM412.105 9.55097L412.115 9.55158C412.846 9.64506 413.479 10.0022 413.993 10.5254C414.488 11.0293 415.113 11.8608 415.059 12.6002C415.024 13.0904 414.319 13.3707 414.056 12.869C413.899 12.5696 413.863 12.2415 413.753 11.9249C413.653 11.6348 413.513 11.3593 413.347 11.101C413.003 10.5687 412.531 10.1177 412.048 9.71086C411.991 9.66324 412.031 9.55122 412.105 9.55097ZM393.338 9.33373C393.176 9.18097 393.344 8.92052 393.551 8.97211C394.639 9.24459 395.717 9.57599 396.848 9.60893C397.413 9.62531 397.975 9.58124 398.535 9.50893L398.819 9.47171C399.255 9.41536 399.699 9.37111 400.131 9.45979C400.419 9.51889 400.475 9.8854 400.295 10.0766C399.449 10.9797 397.816 10.8933 396.693 10.7411C395.474 10.5757 394.244 10.1875 393.338 9.33373ZM412.991 6.5189C412.916 6.41673 413.042 6.25547 413.16 6.30081C414.242 6.71419 415.375 7.79047 415.673 8.91651C415.752 9.21398 415.373 9.43859 415.15 9.21778C414.735 8.80629 414.442 8.32023 414.091 7.85771C413.741 7.39663 413.332 6.98713 412.991 6.5189ZM395.27 7.02179C395.183 6.93609 395.27 6.76541 395.395 6.80903C396.099 7.05564 396.809 7.26903 397.548 7.38097C398.306 7.49554 399.071 7.40848 399.832 7.45491C400.141 7.47364 400.35 7.94766 400.008 8.09517C398.486 8.75045 396.419 8.15625 395.27 7.02179ZM397.214 5.55198C397.093 5.46348 397.162 5.22059 397.326 5.28837C397.997 5.56447 398.675 5.63235 399.395 5.60393C399.661 5.59334 399.717 6.00646 399.458 6.0622C398.662 6.23333 397.864 6.02727 397.214 5.55198Z" fill="black"/>
<path fill-rule="evenodd" clip-rule="evenodd" d="M402.3 29.3599C403.912 29.167 405.475 29.6536 407.051 29.8989C407.883 30.0283 408.716 30.1249 409.558 30.1609C409.728 30.1682 409.897 30.1724 410.066 30.1758C410.082 30.0288 410.166 29.8937 410.347 29.8128C410.718 29.6471 411.014 29.5723 411.422 29.5883C411.794 29.6028 412.168 29.6406 412.535 29.7068C413.202 29.8273 413.871 30.1006 414.359 30.5756C415.487 31.6745 415.315 33.4397 414.443 34.6366C412.642 37.11 409.355 37.2248 406.54 37.1925L406.28 37.1892C403.716 37.153 400.049 37.5298 398.884 34.6545C398.456 33.5971 398.515 32.3715 399.04 31.3574C399.665 30.1477 400.982 29.5177 402.3 29.3599ZM410.308 33.4781L410.285 33.479C409.103 33.5239 407.921 33.5555 406.739 33.5761C406.774 33.8755 406.81 34.175 406.851 34.4738C406.884 34.7089 406.918 34.9437 406.955 35.1782C406.97 35.2776 407.026 35.4317 407.01 35.5301L407.004 35.569C407.065 35.5961 407.12 35.6397 407.161 35.703C407.176 35.7249 407.186 35.7469 407.196 35.7689C408.114 35.776 409.102 35.7585 410.038 35.594L410.04 35.5739C410.057 35.456 410.107 35.3767 410.173 35.3223C410.239 34.9464 410.233 34.5458 410.258 34.1729C410.274 33.9412 410.291 33.7097 410.308 33.4781ZM405.835 33.592C404.983 33.6063 404.131 33.6173 403.28 33.607L402.893 33.6012C402.974 34.033 403.063 34.4634 403.137 34.8982C403.214 35.3513 402.81 35.6393 402.46 35.6277C402.499 35.634 402.538 35.6406 402.577 35.6461C403.671 35.7986 404.807 35.7581 405.917 35.7569C405.858 35.4132 405.882 35.0255 405.873 34.7386L405.871 34.6942C405.854 34.3266 405.842 33.9593 405.835 33.592ZM400.049 33.5127C400.078 33.7373 400.136 33.9571 400.222 34.1617C400.586 35.0262 401.419 35.4296 402.301 35.5995C402.148 35.5474 402.027 35.4222 401.996 35.2078C401.92 34.6747 401.892 34.1327 401.89 33.5914C401.275 33.5857 400.656 33.5728 400.049 33.5127ZM413.514 33.3282C413.076 33.43 412.567 33.3833 412.138 33.4025C411.736 33.4205 411.333 33.4363 410.931 33.4523C410.95 33.7231 410.968 33.9938 410.988 34.2643C411.014 34.6141 411.017 34.9837 411.085 35.332C411.894 35.0595 412.62 34.6227 413.164 33.9241C413.3 33.7501 413.421 33.5458 413.514 33.3282ZM402.115 30.7783C401.387 30.9484 400.697 31.3077 400.327 31.9649C400.107 32.355 400.01 32.8172 400.028 33.2727C400.644 33.2021 401.271 33.1753 401.894 33.1531C401.896 33.0424 401.899 32.9319 401.902 32.8216L401.912 32.5388C401.929 31.9996 401.937 31.3224 402.115 30.7783ZM405.886 30.8441L405.566 30.8086C404.675 30.7085 403.784 30.6035 402.894 30.6637C402.765 30.6725 402.634 30.6863 402.502 30.7053C402.66 31.2654 402.647 31.9234 402.712 32.4779C402.738 32.6923 402.77 32.905 402.806 33.1168L402.96 33.1097C403.916 33.0586 404.873 33.0272 405.83 32.9898C405.83 32.8127 405.831 32.6355 405.833 32.4582L405.837 32.281C405.848 31.8282 405.818 31.3182 405.886 30.8441ZM410.36 30.7722C409.427 30.9207 408.463 30.9523 407.546 30.9534C407.18 30.9538 406.814 30.9317 406.448 30.8997C406.472 31.0917 406.485 31.2859 406.503 31.4751C406.539 31.8577 406.58 32.2396 406.625 32.6212L406.665 32.9551C407.841 32.9025 409.016 32.8457 410.192 32.7868L410.358 32.7781L410.405 32.1364C410.436 31.7085 410.471 31.2807 410.52 30.8548L410.483 30.8417C410.44 30.8241 410.399 30.7999 410.36 30.7722ZM410.765 30.9315C410.817 31.5365 410.845 32.144 410.883 32.75L411.658 32.7092C411.787 32.7022 411.916 32.6951 412.045 32.6878C412.548 32.6593 413.193 32.5093 413.689 32.6492C413.727 32.2042 413.598 31.7707 413.191 31.4717C412.476 30.9466 411.565 31.1336 410.765 30.9315ZM408.117 25.5232C409.271 24.8716 412.167 24.2057 412.35 26.2532C412.435 27.1955 411.724 27.9762 410.894 28.3246L410.863 28.3374C410.085 28.6528 408.706 29.009 408.032 28.3251C407.472 27.7558 408.215 26.7352 408.912 27.2015C409.27 27.4411 410.023 27.2646 410.422 27.1506L410.447 27.1434C410.878 27.0185 411.453 26.6188 411.275 26.0956C411.117 25.6328 410.446 25.5482 410.026 25.5332C409.398 25.5111 408.788 25.6547 408.166 25.7014C408.068 25.7088 408.037 25.5683 408.117 25.5232ZM412.898 22.2307C414.464 22.1584 415.439 23.8445 415.078 25.226C415.016 25.4644 414.746 25.6984 414.485 25.6716L414.419 25.6656C414.385 25.6624 414.352 25.6583 414.321 25.6499C414.073 25.5822 413.851 25.328 413.869 25.0645L413.874 24.9877C413.91 24.3351 413.838 23.5832 413.052 23.4251C412.385 23.2911 412.012 23.9242 412.004 24.507C412.003 24.6105 411.885 24.6827 411.792 24.6271C411.31 24.3377 411.226 23.7621 411.41 23.2663C411.644 22.6382 412.228 22.2616 412.898 22.2307ZM401.274 22.5923C402.414 22.2174 403.644 22.8164 404.196 23.8099C404.389 23.8652 404.582 24.0123 404.556 24.2376C404.517 24.5618 404.458 24.7661 404.23 25.0119C403.874 25.3964 403.206 25.1998 403.058 24.7265L403.051 24.7051C402.883 24.0933 402.2 23.6896 401.578 23.9038C400.851 24.1539 400.872 24.9108 400.362 25.3518C400.302 25.4036 400.23 25.4118 400.158 25.3776C399.617 25.1196 399.714 24.343 399.907 23.8986C400.16 23.3153 400.653 22.7966 401.274 22.5923ZM399.721 19.1798C400.645 18.2507 403.054 17.3515 403.686 19.0674C403.806 19.3942 403.55 19.8348 403.205 19.9026C402.639 20.0135 402.138 19.7716 401.577 19.815C401.122 19.8503 400.648 20.0001 400.285 20.2776C399.278 21.0464 399.057 22.3467 398.356 23.3252C398.321 23.3729 398.255 23.3528 398.249 23.2967C398.089 21.8721 398.71 20.1974 399.721 19.1798ZM411.768 18.2651C412.381 18.0517 413.075 18.07 413.691 18.2593C414.312 18.4501 414.882 18.8124 415.321 19.2858C415.52 19.5007 415.704 19.7379 415.852 19.9903C415.93 20.1241 416.013 20.4005 416.102 20.5651C416.585 20.8399 416.792 21.4662 416.359 21.9117L416.34 21.9313L416.282 21.9878C416.05 22.2146 415.699 22.3129 415.382 22.2223C414.672 22.0198 414.586 21.4686 414.34 20.8836C414.178 20.4972 413.9 20.1553 413.563 19.9041C412.766 19.3108 411.459 19.1217 410.5 19.4013C410.449 19.4163 410.389 19.3521 410.425 19.3056C410.607 19.0734 410.712 18.8829 410.955 18.6956C411.202 18.5055 411.472 18.3682 411.768 18.2651Z" fill="black"/>
<path d="M218.717 450.221V299.353H342.295V239.359H472.935V336.409H599.408V450.221" stroke="black" stroke-width="5"/>
<path d="M395.337 281.165L405.561 287.06L415.784 283.523L419.181 269.768L411.459 261.122H402.022L395.337 269.768V281.165Z" fill="#E0BA31"/>
<path d="M401.235 280.379L396.91 278.021V270.947L401.235 264.266H409.1L411.852 268.589" stroke="#4F4F4F" stroke-width="1.5"/>
<path d="M410.574 262.006L415.293 270.456L413.326 281.263L402.612 284.997" stroke="#4F4F4F" stroke-width="1.5"/>
<path d="M415.047 270.406H418.88" stroke="#4F4F4F"/>
<path d="M413.326 266.329H415.587" stroke="#4F4F4F"/>
<path d="M413.326 281.263L415.391 283.228" stroke="#4F4F4F"/>
<path d="M415.587 273.501L418.045 274.091" stroke="#4F4F4F"/>
<path d="M414.211 277.604L416.767 279.2" stroke="#4F4F4F"/>
<path d="M409.198 283.621L409.886 285.488" stroke="#4F4F4F"/>
<path d="M410.457 311.067V336.267H403.329V316.575H398.649V311.067H410.457Z" fill="black"/>
<path d="M527.339 375.745L537.562 381.64L547.785 378.103L551.183 364.348L543.46 355.702H534.023L527.339 364.348V375.745Z" fill="#CD7F32"/>
<path d="M533.237 374.959L528.911 372.601V365.527L533.237 358.846H541.101L543.853 363.169" stroke="#4F4F4F" stroke-width="1.5"/>
<path d="M542.575 356.586L547.294 365.036L545.328 375.843L534.613 379.577" stroke="#4F4F4F" stroke-width="1.5"/>
<path d="M547.048 364.987H550.882" stroke="#4F4F4F"/>
<path d="M545.328 360.909H547.589" stroke="#4F4F4F"/>
<path d="M545.328 375.844L547.392 377.809" stroke="#4F4F4F"/>
<path d="M547.589 368.082L550.046 368.671" stroke="#4F4F4F"/>
<path d="M546.212 372.185L548.768 373.78" stroke="#4F4F4F"/>
<path d="M541.199 378.202L541.887 380.068" stroke="#4F4F4F"/>
<path d="M542.49 410.768C544.578 411.2 546.174 412.064 547.278 413.36C548.406 414.632 548.97 416.18 548.97 418.004C548.97 419.492 548.562 420.872 547.746 422.144C546.954 423.416 545.73 424.448 544.074 425.24C542.442 426.008 540.414 426.392 537.99 426.392C536.214 426.392 534.45 426.176 532.698 425.744C530.97 425.312 529.47 424.7 528.198 423.908L530.79 418.544C531.774 419.216 532.878 419.732 534.102 420.092C535.35 420.452 536.574 420.632 537.774 420.632C538.998 420.632 539.97 420.404 540.69 419.948C541.41 419.492 541.77 418.844 541.77 418.004C541.77 416.372 540.486 415.556 537.918 415.556H534.93V411.056L539.43 406.196H529.494V400.688H547.71V405.152L542.49 410.768Z" fill="black"/>
<path d="M270.904 338.366L281.127 344.261L291.351 340.724L294.748 326.968L287.025 318.322H277.589L270.904 326.968V338.366Z" fill="#CFCECE"/>
<path d="M276.802 337.58L272.477 335.222V328.147L276.802 321.466H284.666L287.419 325.789" stroke="#4F4F4F" stroke-width="1.5"/>
<path d="M286.141 319.206L290.859 327.656L288.893 338.464L278.178 342.197" stroke="#4F4F4F" stroke-width="1.5"/>
<path d="M290.613 327.607H294.447" stroke="#4F4F4F"/>
<path d="M288.893 323.529H291.154" stroke="#4F4F4F"/>
<path d="M288.893 338.464L290.957 340.429" stroke="#4F4F4F"/>
<path d="M291.154 330.702L293.612 331.291" stroke="#4F4F4F"/>
<path d="M289.778 334.805L292.334 336.401" stroke="#4F4F4F"/>
<path d="M284.764 340.822L285.453 342.689" stroke="#4F4F4F"/>
<path d="M290.692 382.228V387.88H271.072V383.416L280.504 374.596C281.416 373.732 282.028 373 282.34 372.4C282.652 371.776 282.808 371.152 282.808 370.528C282.808 369.712 282.532 369.076 281.98 368.62C281.428 368.164 280.624 367.936 279.568 367.936C278.632 367.936 277.768 368.152 276.976 368.584C276.208 368.992 275.572 369.592 275.068 370.384L269.776 367.432C270.76 365.8 272.14 364.516 273.916 363.58C275.692 362.644 277.792 362.176 280.216 362.176C282.136 362.176 283.828 362.488 285.292 363.112C286.78 363.736 287.932 364.636 288.748 365.812C289.588 366.964 290.008 368.308 290.008 369.844C290.008 371.212 289.708 372.508 289.108 373.732C288.532 374.932 287.404 376.3 285.724 377.836L280.972 382.228H290.692Z" fill="black"/>
<defs>
<clipPath id="clip0_87_457">
<rect width="129.852" height="197.197" fill="white" transform="translate(347.17 43.4863)"/>
</clipPath>
</defs>
</svg>
