<svg width="438" height="472" viewBox="0 0 438 472" fill="none" xmlns="http://www.w3.org/2000/svg">
<g clip-path="url(#clip0_184_430)">
<path fill-rule="evenodd" clip-rule="evenodd" d="M398.226 369.823C396.543 365.187 399 360.562 400.363 356.076C405.204 340.52 410.489 324.963 417.967 310.456C420.8 305.603 416.14 299.649 410.74 301.018C401.495 302.318 391.962 301.283 382.702 300.709C379.315 291.913 370.276 288.265 363.162 283.199C355.089 278.141 347.236 272.332 338.84 267.897C338.373 263.707 333.312 262.669 330.217 265.666C321.717 260.358 311.524 261.344 302.412 257.866C295.488 246.632 294.969 234.818 293.135 223.98C292.336 219.256 293.185 214.698 289.969 210.485C279.167 195.233 236.483 188.62 220.745 197.659C212.274 192.355 212.07 201.96 210.724 207.889C209.229 210.855 208.42 214.214 208.67 217.753C199.57 236.832 178.752 245.457 160.108 252.445C157.769 250.185 154.427 250.471 152.201 252.34C136.041 255.867 120.357 262.066 106.818 271.746C91.4355 276.262 80.6022 288.821 72.7686 302.287C71.9054 303.707 71.702 305.155 71.9542 306.484C47.8647 341.931 36.3675 384.368 34.7525 427.228C19.2614 436.561 42.1155 520.402 47.4358 537.808C47.4412 537.806 47.4465 537.804 47.4519 537.801C50.9034 543.935 54.8224 561.439 63.4603 560.085C69.3856 566.81 78.8283 565.488 86.8692 566.005C85.5595 571.048 86.2031 576.818 87.7618 581.801C89.6053 587.733 98.6523 587.934 99.9353 581.467C180.009 597.084 262.168 584.623 343.142 586.967C366.554 587.134 389.964 587.861 413.32 589.535C416.609 589.771 419.943 586.397 419.719 583.111C414.698 529.481 409.982 458.932 404.367 405.828C403.035 393.717 401.982 381.473 398.226 369.823Z" fill="white"/>
<path fill-rule="evenodd" clip-rule="evenodd" d="M212.045 200.969C212.275 200.34 213.211 200.423 213.228 201.129C213.597 216.208 209.858 234.635 197.838 244.82C191.668 250.049 183.51 252.442 176.019 255.191L175.174 255.504L161.938 260.453C158.428 261.766 154.641 263.786 151.54 261.931C154.049 268.177 156.156 274.595 159.212 280.615C163.016 288.108 167.615 294.964 173.243 301.2C195.543 325.904 230.834 333.439 262.505 326.201C278.813 322.473 294.682 315.409 305.808 302.525C314.264 292.731 319.122 279.587 320.267 266.621C319.933 266.675 319.582 266.673 319.221 266.594C315.214 265.716 311.169 263.56 307.643 261.445L307.303 261.241C303.911 259.191 300.375 256.841 297.94 253.656C296.328 251.547 294.676 247.053 292.984 240.174C292.293 236.296 291.644 228.57 291.755 224.65C291.766 224.28 293.4 224.062 293.575 224.446C295.085 227.774 295.574 235.086 296.74 238.55L296.975 239.241C298.22 242.858 299.288 247.262 301.869 250.186C306.715 255.677 314.028 258.001 320.554 260.755C321.023 254.549 330.896 254.694 330.771 261.166C330.764 261.517 330.749 261.867 330.736 262.217C331.515 262.646 332.264 263.138 332.964 263.612L333.647 264.077C336.232 265.843 338.837 267.52 341.59 269.018C346.919 271.918 352.561 274.217 358.022 276.849C363.546 279.512 368.713 282.685 373.537 286.483C375.802 288.266 377.975 290.165 380.035 292.183L380.595 292.737C382.556 294.698 385.108 296.89 386.225 299.467C386.472 300.035 387.706 301.357 388.375 301.401C398.75 302.084 409.103 303.048 419.413 304.493C422.082 304.867 423.137 306.248 422.15 308.482C418.76 316.156 405.487 346.806 401.957 355.032C402.369 361.075 401.812 368.189 402.184 374.233C402.727 383.054 403.439 391.871 404.292 400.667C407.344 432.132 411.971 463.443 416.152 494.77C418.244 510.448 420.152 526.15 422.035 541.854C422.986 549.791 423.793 557.735 424.414 565.706C424.673 569.027 424.908 572.35 425.115 575.675L425.293 578.624C425.539 582.335 426.105 585.879 423.817 589.065C422.78 590.509 420.411 591.323 419.047 589.682C417.333 587.618 416.696 586.076 416.532 583.366C416.407 581.291 416.377 579.206 416.282 577.129C416.079 572.627 415.823 568.127 415.523 563.63C414.925 554.639 414.242 545.65 413.451 536.675C410.679 505.202 405.411 473.965 401.905 442.57C400.138 426.742 398.883 410.885 398.219 394.969C397.886 387.022 397.766 379.074 397.844 371.12C397.874 368.148 398.014 365.191 398.217 362.24C392.965 374.216 387.444 386.077 381.672 397.78L380.304 400.552C376.646 407.949 372.889 415.374 368.493 422.348L367.737 423.537C365.956 426.369 363.523 430.836 360.275 431.73C358.013 432.353 355.248 431.914 352.929 431.869C350.627 431.825 348.322 431.816 346.022 431.722C343.442 431.618 340.98 431.277 338.486 430.602C338.072 430.491 337.68 430.369 337.322 430.214C334.81 434.341 330.541 437.485 326.177 439.316C322.681 440.783 319.017 441.788 315.347 442.719L314.052 443.045C310.117 444.03 305.616 444.497 303.397 448.311L302.882 449.195C301.232 452.009 299.649 454.48 296.919 456.497C293.98 458.669 290.498 460.035 287.029 461.098C283.477 462.186 279.843 463.019 276.237 463.912L275.254 464.157C272.873 464.755 270.471 465.304 268.105 465.955C267.095 466.232 266.068 466.518 265.077 466.86C263.917 467.26 263.075 467.885 262.159 468.564C261.337 471.448 257.822 473.015 254.931 472.814C253.413 472.708 252.052 472.191 250.813 471.433C248.65 473.281 246.269 474.937 244.064 476.649C240.977 479.046 237.878 481.427 234.762 483.785C228.337 488.647 221.862 493.445 215.321 498.147C203.709 506.495 191.847 514.46 179.782 522.131C174.751 525.329 169.687 528.522 164.573 531.638L165.118 531.841L166.201 532.252C168.76 533.211 171.611 534.761 172.107 537.757C172.5 540.134 171.178 541.773 168.84 542.063C166.061 542.407 163.899 540.437 162.169 538.556C161.406 537.726 160.551 536.955 159.82 536.101C159.521 535.752 159.292 535.35 159.09 534.929C154.043 537.914 148.943 540.8 143.761 543.497L142.464 544.168C129.615 550.764 117.108 557.99 104.15 564.398C100.769 566.07 96.6479 567.878 92.352 569.112C93.492 573.548 93.4743 578.418 93.5032 582.92C93.5305 587.307 86.5852 587.286 86.7319 582.92L86.8025 580.811C86.929 577.265 87.1356 573.585 87.9736 570.135C75.3162 572.242 62.6717 567.662 60.3175 566.287C57.7189 564.77 55.3603 562.343 53.3973 560.091C49.1967 555.271 46.2817 549.494 43.6954 543.682C38.1556 531.235 34.2308 517.931 31.3613 504.625C20.7824 455.568 25.3326 403.062 42.5126 356.037C46.8048 344.287 51.8723 332.797 57.6793 321.722L58.4004 320.353C64.1951 309.402 70.6354 298.492 78.8163 289.172C87.3375 279.465 97.8489 271.916 109.294 266.055C114.879 263.196 120.626 260.717 126.5 258.521C127.443 258.168 128.393 257.851 129.345 257.55C135.467 253.632 142.895 249.885 150.327 250.032C150.832 250.041 151.241 250.234 151.546 250.523C151.904 250.586 152.263 250.663 152.621 250.767C153.413 250.998 154.25 251.869 154.136 252.764L154.098 253.062C154.077 253.208 154.05 253.348 154.005 253.485C154.271 253.525 154.531 253.588 154.787 253.676C161.897 251.66 168.893 248.578 175.831 246.091L177.411 245.531C183.222 243.487 189.184 241.483 193.951 237.437C198.694 233.412 202.26 228.199 204.838 222.563C208.014 215.619 209.437 208.097 212.045 200.969ZM354.4 567.19C355.807 566.139 357.472 567.359 357.999 568.66C359.729 572.931 358.874 579.567 356.436 583.343C353.91 587.255 347.863 585.711 347.717 580.972C347.564 576.031 350.426 570.16 354.4 567.19ZM368.942 449.266C369.068 448.71 369.927 448.716 370.055 449.266C371.227 454.277 371.2 459.673 371.544 464.811L371.584 465.381C371.997 471.047 372.344 476.729 372.591 482.404C373.077 493.571 373.657 504.739 374.308 515.897C374.631 521.43 374.977 526.963 375.346 532.494C376.501 531.847 377.691 531.28 378.925 530.779C380.774 530.029 382.573 529.943 384.559 529.963C386.978 529.988 388.799 532.123 388.479 534.502C388.13 537.092 385.858 538.202 383.498 537.832C380.885 537.422 378.261 536.786 375.623 536.522C375.917 540.799 376.221 545.074 376.542 549.347C376.969 555.004 377.526 560.655 377.916 566.314C377.954 566.854 377.994 567.395 378.035 567.937C379.608 567.116 381.279 566.695 383.172 566.178L383.665 566.039C386.414 565.247 389.355 564.151 391.899 566.006C393.609 567.254 393.951 569.307 392.534 570.953C390.386 573.449 387.208 572.965 384.24 572.838L382.644 572.779C381.139 572.72 379.751 572.623 378.361 572.242C378.616 575.929 378.751 579.63 378.3 583.263C378.057 585.226 375.482 585.742 374.8 583.738C373.02 578.503 372.652 572.858 372 567.374C371.392 562.253 371.022 557.095 370.623 551.951L370.503 550.408C369.606 539.091 368.889 527.768 368.366 516.428C367.841 505.09 367.526 493.754 367.401 482.404C367.344 477.251 367.429 472.079 367.63 466.926L367.694 465.381C367.925 460.082 367.764 454.458 368.942 449.266ZM133.651 568.025C133.72 567.301 134.298 566.402 135.157 566.514C135.949 566.617 136.765 566.568 137.548 566.699C138.582 566.871 139.414 567.484 140.376 567.87C141.939 568.497 143.643 568.822 145.247 569.335C148.255 570.299 149.895 573.478 148.649 576.447C147.339 579.569 144.046 580.277 141.201 578.967C138.959 577.935 137.287 576.285 135.78 574.375L135.352 573.831C134.703 573.01 133.965 572.095 133.693 571.101C133.427 570.132 133.558 569.011 133.651 568.025ZM279.828 553.351C283.576 552.822 286.777 554.108 290.244 555.32L290.526 555.418C294.055 556.641 299.205 557.488 301.013 561.114C302.105 563.3 301.257 566.204 298.689 566.851C294.622 567.875 290.975 564.891 287.612 562.882L287.435 562.777C284.19 560.869 280.839 559.264 278.767 555.972C278.213 555.093 278.693 553.512 279.828 553.351ZM149.007 254.173C147.506 254.511 146.004 254.809 144.504 255.096C138.799 258.166 133.262 261.351 127.371 264.086C121.121 266.988 114.895 269.985 108.958 273.496C96.9644 280.588 87.0772 289.81 78.9073 301.113C64.7949 320.639 54.2974 343.156 46.7845 366.003C44.8542 371.873 43.1268 377.809 41.5986 383.794C44.3005 381.286 47.4993 379.744 51.0863 378.423C52.6064 377.863 54.4987 378.81 55.2692 380.132C55.6157 380.725 55.8111 381.312 55.7752 382.008C55.6955 383.544 54.6995 385.29 53.0557 385.594C49.2234 386.303 45.4972 387.683 41.8021 388.898C41.242 389.082 40.7606 389.013 40.3762 388.795C36.7078 404.394 34.4128 420.313 33.6 436.328C32.9125 449.886 33.3366 463.551 34.8326 477.091C35.9822 476.572 37.1067 476.085 38.3672 475.791C40.0019 475.409 41.6098 474.945 43.2044 474.42C47.8061 472.905 49.9051 480.531 45.2017 481.693C43.4513 482.126 41.6902 482.485 39.9066 482.748C38.3522 482.977 36.9771 482.876 35.5116 482.636C36.6312 491.083 38.1605 499.469 40.1084 507.735L40.5383 509.544C43.0686 520.103 46.0178 530.759 50.2826 540.737C52.3746 545.632 55.1445 550.28 58.5644 554.361C60.2447 556.367 62.1096 558.087 64.1433 559.717C65.8364 561.074 71.5916 564.017 78.4077 564.017C85.2238 564.017 87.069 563.37 90.5079 562.182C97.3087 559.832 103.766 556.081 110.144 552.739L110.803 552.395C113.623 550.93 116.433 549.445 119.235 547.945C118.881 545.077 119.5 542.669 120.989 540.02C122.598 537.155 126.585 538.582 126.881 541.512L126.891 541.624C126.936 542.285 127.046 542.958 127.183 543.63C145.919 533.327 164.258 522.303 182.306 510.815C193.931 503.414 205.433 495.793 216.766 487.949C222.432 484.028 228.048 480.037 233.609 475.967C236.521 473.834 239.421 471.685 242.307 469.518C243.509 468.614 244.688 467.666 245.893 466.758C245.6 466.391 245.315 466.024 245.038 465.66C240.539 459.748 237.621 452.7 236.166 445.429C235.288 441.041 234.864 436.487 234.735 432.014L234.678 430.069C234.59 426.792 234.566 423.362 235.168 420.187C234.349 420.639 233.513 421.082 232.679 421.556C229.687 423.257 226.693 424.955 223.694 426.644C217.689 430.026 211.665 433.368 205.565 436.576C194.67 442.307 183.667 447.757 172.368 452.642L166.87 455.021C157.327 459.142 147.707 463.188 137.786 466.25C132.19 467.977 126.551 469.453 120.875 470.771L123.17 473.47C124.727 475.301 124.754 477.926 122.765 479.467C120.81 480.983 118.186 480.352 116.883 478.34L114.508 474.673C114.001 473.89 113.713 473.155 113.549 472.382C110.935 472.931 108.313 473.459 105.684 473.968L100.715 474.921C93.6191 476.296 86.7392 479.018 80.3965 482.502C78.1915 483.713 77.5772 481.36 79.9134 479.72C86.7445 474.927 94.7126 472.214 102.934 469.937L103.338 469.826C106.354 468.997 109.365 468.132 112.369 467.237C112.039 466.037 111.848 464.792 111.886 463.419C111.971 460.361 112.24 457.293 112.402 454.237C112.741 447.823 113.175 441.43 113.682 435.028C113.877 432.562 114.096 430.089 114.346 427.618C112.735 426.751 111.345 425.6 109.549 425.034L109.246 424.945C107.324 424.425 107.973 421.94 109.679 421.727C111.225 421.535 112.763 421.624 114.287 421.952C114.523 422.004 114.747 422.061 114.96 422.126C115.24 419.837 115.55 417.555 115.903 415.285C116.837 409.287 117.497 402.968 119.439 397.205C119.583 396.779 120.215 396.626 120.449 397.073C123.275 402.47 123.373 409.09 123.692 415.1L123.731 415.818C124.106 422.375 124.128 428.996 124.007 435.561C123.883 442.328 123.652 449.077 123.349 455.837C123.228 458.559 123.233 461.383 122.77 463.986C139.588 458.498 156.108 451.929 171.943 444.151C183.113 438.665 194.187 432.958 205.134 427.038C210.619 424.072 216.13 421.153 221.61 418.176C223.529 417.133 225.448 416.086 227.365 415.037L230.241 413.463C232.932 411.989 235.179 410.522 238.313 410.419C239.247 410.387 240.085 410.827 240.68 411.492C242.365 410.293 244.312 409.556 246.355 409.574C249.431 405.309 252.553 401.079 255.8 396.941L258.199 393.878C262.351 388.593 266.749 383.227 272.043 379.204C274.406 377.409 277.005 376.063 279.716 374.95C279.078 374.794 278.454 374.479 277.897 373.961C275.309 371.551 274.952 367.075 274.426 363.713C273.88 360.226 274.091 357.105 274.63 353.629C274.839 352.279 277.068 351.997 277.612 353.238C278.758 355.854 279.972 358.361 281.016 361.006L281.323 361.804C282.443 364.782 284.828 367.914 284.67 371.145C284.628 372.03 284.332 372.802 283.876 373.422C286.151 372.663 288.459 371.987 290.731 371.282C297.883 369.064 305.063 366.908 312.352 365.187C314.293 364.729 316.243 364.303 318.201 363.913C319.227 359.024 320.722 354.225 322.485 349.513C320.816 348.654 319.735 347.215 318.298 345.935C316.953 344.737 316.029 343.277 314.881 341.901C313.836 340.649 314.423 338.388 316.301 338.461L316.832 338.483C318.777 338.574 320.661 338.776 322.425 339.687L323.053 340.012C323.915 340.461 324.858 340.976 325.698 341.584C326.796 339.047 327.938 336.535 329.092 334.048L330.59 330.832C334.473 322.462 338.346 313.773 343.221 305.979C345.388 302.514 348.273 300.351 352.413 300.016C356.676 299.671 361.109 300.116 365.378 300.27C370.327 300.447 375.275 300.658 380.219 300.919C378.952 299.586 377.795 298.103 376.522 296.824C374.41 294.704 372.177 292.693 369.831 290.835C365.187 287.158 360.081 284.128 354.777 281.519C349.472 278.909 344.012 276.634 339.032 273.41C335.881 271.37 333.065 268.803 330.495 266.025C328.877 283.543 320.451 299.817 307.792 312.045C294.643 324.744 276.473 331.721 258.698 334.688C240.568 337.716 221.646 336.605 204.302 330.279C195.359 327.016 186.782 322.356 179.133 316.511C179.049 317.019 178.948 317.522 178.749 317.994C178.483 318.629 178.157 319.17 177.783 319.728L177.116 320.706C176.695 321.321 176.267 321.931 175.789 322.502C174.633 323.884 172.995 324.49 171.231 324.483C167.853 324.472 165.295 321.147 166.204 317.858C166.775 315.791 167.997 314.548 169.906 313.739C170.509 313.483 171.124 313.269 171.742 313.058L172.206 312.9C172.831 312.685 173.451 312.48 174.094 312.362C170.472 309.153 167.112 305.663 164.103 301.897C154.664 290.087 145.355 273.547 148.51 257.863C148.565 257.594 148.806 257.425 149.067 257.382C149.25 256.281 149.833 255.216 150.633 254.5C150.095 254.358 149.552 254.248 149.007 254.173ZM247.016 525.348C248.885 524.304 250.816 526.784 249.297 528.315L247.029 530.593C244.924 532.717 242.875 534.863 241.073 537.283L240.637 537.874C238.205 541.196 235.611 545.044 231.626 546.286C226.806 547.787 222.174 541.893 224.965 537.587C227.404 533.825 232.099 532.405 236.147 530.85C239.977 529.378 243.436 527.346 247.016 525.348ZM91.5198 507.984C92.618 506.541 95.4816 507.301 94.7315 509.344C92.2946 515.976 91.3014 525.019 85.1469 529.425C83.1614 530.846 80.0424 530.192 78.4077 528.552C76.5502 526.687 76.4758 524.062 77.5381 521.787C78.8337 519.012 82.0204 517 84.2542 514.886L84.4545 514.694C86.8577 512.351 89.4567 510.696 91.5198 507.984ZM348.744 515.617C350.704 514.769 355.813 513.12 357.327 515.072C357.398 515.143 357.459 515.221 357.507 515.307C357.878 515.956 357.934 516.869 357.507 517.512C355.743 520.173 353.906 522.16 351.397 524.054L351.116 524.264C348.385 526.28 345.819 528.647 342.492 529.556C337.88 530.816 334.659 525.019 337.898 521.634C340.507 518.908 344.491 517.492 347.949 515.972L348.744 515.617ZM163.54 477.723C162.768 476.324 164.345 474.606 165.772 475.482C169.844 477.98 174.588 479.854 179.162 481.201C181.013 481.746 182.683 483.629 182.545 485.662L182.524 485.97C182.469 486.688 182.371 487.4 181.916 487.997C180.323 490.089 178.044 490.894 175.611 489.657C170.187 486.898 166.475 483.047 163.54 477.723ZM282.559 473.484C282.46 472.895 282.889 472.441 283.485 472.555C286.926 473.209 290.104 474.878 293.06 476.796C294.645 477.824 296.173 478.954 297.754 479.993C299.708 481.276 300.439 482.335 300.728 484.69C300.918 486.243 299.473 487.662 298.148 488.091C294.536 489.26 290.398 485.424 287.951 482.931L287.841 482.819C285.279 480.198 283.166 477.098 282.559 473.484ZM385.918 469.412C385.133 467.286 387.837 465.523 389.605 466.567C391.27 467.55 393.076 468.366 394.646 469.492C396.089 470.528 397.405 471.755 398.789 472.878L399.473 473.421C402.011 475.47 406.2 480.535 402.571 483.474C399.117 486.27 394.538 482.699 392.22 480.087L392.058 479.902C390.725 478.356 389.08 476.676 388.113 474.869C387.202 473.169 386.584 471.217 385.918 469.412ZM351.857 304.799C347.531 305.642 345.768 311.002 343.947 314.496C339.647 322.742 335.694 331.138 331.723 339.545C330.5 342.131 329.31 344.737 328.109 347.338C328.036 347.542 327.941 347.743 327.831 347.941C325.37 353.258 322.836 358.541 319.875 363.589C322.585 363.079 325.31 362.645 328.044 362.303C327.906 359.719 329.669 356.259 330.541 354.084L330.614 353.9C331.701 351.112 332.841 346.719 335.641 345.272C336.573 344.79 337.571 345.394 337.643 346.425C337.855 349.494 334.864 353.007 333.402 355.612C332.518 357.188 331.657 358.771 330.817 360.371C330.502 360.97 330.24 361.558 329.917 362.086C331.327 361.933 332.739 361.796 334.155 361.697L335.077 361.634C340.326 361.286 345.9 361.187 350.642 363.785C355.042 366.195 357.291 371.34 354.874 376.024C351.863 381.86 345.232 382.633 339.401 383.106C332.117 383.696 324.818 384.761 317.586 385.799C310.105 386.873 303.062 389.641 295.693 391.064C295.007 391.196 294.581 390.297 295.209 389.912C301.022 386.361 308.088 384.406 314.587 382.415L315.112 382.254C318.637 381.167 322.082 379.925 325.729 379.309C329.269 378.71 332.831 378.226 336.401 377.857L336.748 377.825C340.679 377.494 350.707 377.607 350.284 371.764C350.003 367.897 343.741 367.23 340.883 367.183C327.779 366.973 314.58 370.464 302.126 374.206L299.345 375.042C294.246 376.583 289.139 378.167 284.135 379.973C278.464 382.019 273.997 385.209 269.867 389.575C265.288 394.417 260.853 399.367 256.102 404.045C253.108 406.995 250.074 409.891 247.016 412.764C246.326 413.662 245.773 414.639 245.39 415.906C244.743 418.046 244.892 420.035 245.136 422.234C245.752 427.786 245.888 433.395 246.66 438.93C247.375 444.057 248.375 449.373 250.496 454.129C251.336 456.013 252.429 457.863 253.674 459.518L254.678 460.829C255.116 461.398 255.606 462.022 256.121 462.608C256.876 461.683 257.968 461.082 259.237 461.232C261.936 461.551 264.057 461.475 266.703 460.852C268.752 460.371 270.784 459.807 272.824 459.285C276.829 458.26 280.871 457.327 284.835 456.149L285.516 455.943C288.47 455.033 291.425 453.894 293.884 451.979C296.741 449.755 297.619 446.545 299.735 443.77C304.253 437.844 314.017 437.968 320.628 436.345C326.246 434.966 331.652 432.789 335.54 428.697L335.767 428.454C335.595 427.723 335.874 426.899 336.55 426.521L336.697 426.439C336.961 426.291 337.244 426.23 337.523 426.236C337.884 425.703 338.232 425.154 338.548 424.569C338.808 424.087 339.459 424.442 339.374 424.918C339.323 425.202 339.252 425.48 339.185 425.758C342.951 424.785 347.087 424.971 350.911 424.973L355.873 424.956C356.732 424.945 358.012 424.902 358.126 424.85L358.243 424.798C358.552 424.664 358.113 424.886 358.329 424.598C358.567 424.281 358.801 423.959 359.031 423.635C359.853 422.48 360.631 421.29 361.394 420.089C353.084 422.214 344.476 423.536 335.991 424.639C326.889 425.823 317.666 426.644 308.482 426.653C305.95 426.655 305.973 422.819 308.482 422.722C318.207 422.35 327.881 421.833 337.54 420.582C342.536 419.934 347.51 419.122 352.456 418.172C354.366 417.806 356.271 417.417 358.172 417.006L359.596 416.694C360.49 416.495 363.015 416.21 364.247 415.38C364.489 414.963 364.731 414.546 364.971 414.129C364.853 412.664 361.143 412.861 360.274 412.858C357.808 412.854 355.341 412.873 352.875 412.88C347.943 412.894 343.012 412.851 338.079 412.812C328.225 412.731 318.333 412.386 308.486 412.808C306.096 412.911 304.84 409.062 307.203 408.05C317.632 403.58 329.21 402.609 340.346 401.235C346.202 400.513 352.062 399.678 357.787 398.216L359.202 397.855C362.799 396.929 366.77 395.801 369.799 393.595C365.247 391.747 359.589 391.959 354.87 391.697L354.509 391.676C347.902 391.268 341.284 391.06 334.664 391.05C321.121 391.031 307.573 391.513 294.044 392.158C293.705 392.174 293.634 391.636 293.964 391.564C307.869 388.518 322.002 387.051 336.232 386.825C342.859 386.72 349.489 386.813 356.111 387.108L358.541 387.22C364.187 387.465 370.451 387.531 375.175 390.953C375.895 391.474 376.274 392.14 376.334 392.845C382.669 380.169 388.52 367.227 394.394 354.372C398.961 344.377 403.358 334.297 408.091 324.379L409.623 321.171C411.675 316.89 413.777 312.608 416.112 308.482C407.383 307.31 398.606 306.497 389.824 305.875C381.821 305.307 355.71 304.049 351.857 304.799ZM347.992 442.186C348.988 441.631 350.513 442.083 350.758 443.315C350.94 444.233 351.252 445.251 351.252 446.19C351.252 447.314 350.852 448.536 350.638 449.636C350.147 452.165 349.542 454.221 348.261 456.474C347.459 457.884 345.841 458.841 344.214 458.804C342.926 458.774 341.784 458.427 340.9 457.426C339.841 456.227 339.114 454.463 339.695 452.849C341.217 448.618 344.014 444.404 347.992 442.186ZM136.865 437.966C139.194 433.87 144.715 430.21 149.533 430.573C156.768 431.116 158.244 440.895 151.24 443.228C147.053 444.623 141.293 443.191 137.631 440.896C136.643 440.277 136.281 438.992 136.865 437.966ZM62.5126 423.974C61.9836 423.202 62.858 422.32 63.6462 422.494C65.3944 422.879 67.2792 423.048 68.9916 423.571C70.7452 424.107 72.4426 424.995 74.1796 425.606C77.8185 426.885 81.7054 427.527 85.227 429.072C86.6347 429.69 87.7421 431.736 87.6119 433.245L87.5788 433.598C87.5008 434.347 87.3716 435 86.9544 435.684C85.8337 437.521 83.6132 438.471 81.5174 437.905C77.6295 436.857 73.8305 434.164 70.5155 431.926L69.9029 431.517C68.4546 430.559 66.8972 429.558 65.7302 428.325C64.512 427.038 63.5107 425.432 62.5126 423.974ZM196.16 409.08C195.713 407.462 197.718 406.393 198.887 407.486C201.222 409.671 203.665 411.696 205.952 413.936L206.106 414.089C207.744 415.741 210.127 418.925 207.996 421.063C205.267 423.804 201.465 419.738 200.001 417.619C198.143 414.931 197.029 412.223 196.16 409.08ZM374.897 395.703C371.432 399.387 366.093 401.081 361.393 402.484C355.82 404.147 350.078 405.14 344.33 405.957C338.776 406.746 333.264 407.452 327.798 408.358C331.933 408.409 336.067 408.44 340.192 408.514C344.95 408.601 349.705 408.704 354.461 408.843C357.925 408.944 361.989 408.467 365.28 409.759C365.873 409.991 366.427 410.314 366.912 410.706C369.679 405.767 372.331 400.759 374.897 395.703ZM161.176 361.251C164.792 360.098 168.193 358.568 172.027 358.965C173.046 359.07 173.776 360.066 173.219 361.05C171.402 364.26 168.448 366.071 165.54 368.218L165.283 368.408C162.1 370.785 158.682 372.951 155.221 374.902C149.26 378.259 143.919 368.65 149.938 365.83C153.56 364.133 157.365 362.467 161.176 361.251ZM226.287 352.909C231.82 353.274 237.349 353.523 242.889 353.747C249.306 354.008 247.148 363.92 241.788 361.914C236.492 359.932 231.196 357.975 225.853 356.126C224.226 355.563 224.357 352.882 226.184 352.905L226.287 352.909ZM84.3777 335.274C85.8116 335.173 87.2579 335.488 88.694 335.627L90.2221 335.776C93.3721 336.091 96.3256 336.479 99.3297 337.766C104.873 340.14 101.896 349.085 96.3311 348.88C92.2183 348.728 88.7015 346.955 85.2285 344.891C82.1925 343.087 80.3313 340.829 78.281 337.996C77.6021 337.057 78.5482 336.005 79.473 335.911C81.1018 335.744 82.7483 335.389 84.3777 335.274ZM362.233 317.007C361.316 322.753 359.039 328.138 355.609 332.826C353.884 335.182 350.858 335.271 349.149 332.826C346.732 329.367 348.222 325.404 350.043 322.082L350.582 321.109C351.397 319.65 352.65 317.523 354.08 316.053L354.105 315.903C354.871 309.888 363.178 311.088 362.233 317.007ZM138.449 280.135C139.829 278.888 142.369 279.263 142.816 281.292C143.443 284.135 143.824 287.337 143.414 290.222C143.192 291.786 143.108 293.542 142.496 294.999C141.837 296.566 140.57 297.771 139.377 298.95C136.994 301.302 131.971 300.524 131.333 296.818L131.252 296.363C130.931 294.61 130.52 292.735 130.995 290.997C131.354 289.686 132.156 288.348 132.819 287.131L132.959 286.873C134.288 284.388 136.36 282.023 138.449 280.135ZM332.332 286.182L332.831 286.187C336.681 286.264 343.719 287.205 343.757 291.98C343.766 293.106 342.935 294.272 341.822 294.531C339.521 295.067 338.033 293.702 336.393 292.323C335.052 291.195 333.488 290.295 331.864 289.646C330.11 288.946 330.225 286.179 332.332 286.182Z" fill="black"/>
</g>
<path fill-rule="evenodd" clip-rule="evenodd" d="M164.472 47.4979C166.873 44.9166 169.944 42.9935 173.301 42.3789C170.232 43.9147 167.233 45.5155 164.472 47.4979ZM159.769 69.7551C159.344 67.7879 159.059 65.8017 158.969 63.816C159.506 64.6333 160.363 65.1792 161.325 65.4613C160.703 66.856 160.175 68.293 159.769 69.7551ZM320.44 100.598C317.668 89.04 304.737 66.8093 301.681 62.5305C298.362 51.9358 316.463 43.4393 306.619 35.1546C302.162 31.4164 296.272 30.0936 290.746 28.7679C252.488 19.5633 211.384 24.2055 175.901 41.1317C170.504 39.9939 164.881 42.2175 160.956 46.1231C142.517 64.6899 167.646 98.1897 173.141 119.121C182.569 142.46 163.148 146.386 165.231 166.134C166.849 176.335 177.164 179.032 185.868 180.574C187.263 180.901 189.127 180.95 189.578 182.427C190.988 191.05 195.823 199.268 202.313 204.846C201.746 206.53 202.179 208.575 204.181 210.055C222.315 223.556 245.182 230.313 267.8 229.098C294.755 227.651 308.695 212.173 312.059 208.188C330.657 183.026 328.435 149.826 324.641 119.839C321.998 98.9496 325.349 121.072 320.44 100.598Z" fill="white"/>
<path fill-rule="evenodd" clip-rule="evenodd" d="M237.325 4.42578C238.172 1.77258 240.57 0.176957 243.316 0.506287C245.747 0.793871 248.349 3.2105 248.052 5.87761C247.997 6.39248 247.923 6.87488 247.835 7.32944L247.846 7.3335L247.858 7.33408L247.798 7.51034C247.617 8.35918 247.367 9.11989 246.997 9.83885C246.524 11.2165 246.071 12.5987 245.621 13.9856C246.27 13.9578 246.932 13.9949 247.603 14.1201C248.298 12.339 248.997 10.5624 249.691 8.77664C250.437 6.87024 250.96 4.42114 252.432 2.94611C254.317 1.0629 257.585 0.673271 259.882 2.01842C262.308 3.43779 263.174 5.9611 262.646 8.66532C262.378 10.0447 261.458 11.0046 260.32 11.6078L260.197 11.671L259.322 13.7491C259.59 13.6331 259.868 13.5264 260.169 13.4383C260.641 13.2991 261.104 13.211 261.558 13.1739C262.808 10.9057 264.183 8.70242 265.605 6.54091C267.239 4.0547 270.434 2.99713 273.115 4.56957C275.513 5.97502 276.8 9.66722 275.082 12.0931C273.777 13.9346 272.54 15.8132 271.323 17.7103C271.531 17.7474 271.739 17.7938 271.939 17.8541C272.031 17.7288 272.128 17.6036 272.23 17.4784C273.559 15.8271 275.105 14.5886 276.694 13.2156C278.18 11.9261 278.865 9.89915 280.819 8.92043C283.277 7.69124 286.241 8.28033 287.704 10.7294C290.843 15.9755 285.574 19.8069 282.203 22.9842C285.134 21.152 288.185 19.4775 291.315 18.0303C293.075 17.2186 294.862 16.4347 296.677 15.7575C299.367 14.7556 301.543 15.0761 303.751 16.9403C304.738 17.7752 305.228 19.5986 304.775 20.8134C303.895 23.1419 302.506 24.5566 300.071 25.2292C298.357 25.7023 296.603 26.0224 294.89 26.5187C292.019 27.3443 289.232 28.3509 286.528 29.6079C286.722 29.7285 286.907 29.8584 287.079 30.0068C289.097 29.3528 291.153 28.7869 293.218 28.3045C296.643 27.5 300.129 26.9565 303.63 26.6165L304.793 26.508C308.99 26.1045 314.037 25.3598 316.614 29.3853C317.461 30.7119 317.553 32.9012 316.614 34.2139C314.817 36.7372 313.03 37.2382 310.057 37.2845C312.984 37.5953 315.905 37.9803 318.813 38.4302C320.817 38.7364 322.821 39.0834 324.817 39.4684L325.813 39.6641C328.244 40.1511 330.957 40.434 333.046 41.8441C337.601 44.9241 335.462 50.9216 330.416 51.5617C327.976 51.8678 325.267 50.8334 322.873 50.3511C320.549 49.8826 318.216 49.4697 315.873 49.1079C314.66 48.9178 313.447 48.7508 312.229 48.5977C314.706 48.9549 317.165 49.4605 319.558 50.1748L320.223 50.3758C324.851 51.7887 331.097 54.039 332.541 58.9925C333.416 62.0028 331.022 64.6282 328.124 64.8045C325.429 64.9668 323.184 63.3573 320.896 62.1698C319.23 61.3071 317.535 60.6623 315.739 60.1103C313.882 59.5398 311.988 59.0667 310.081 58.6817C311.693 59.5714 313.263 60.5493 314.77 61.6433L315.463 62.156C319.468 65.1461 325.576 69.7753 324.165 75.3801C323.721 77.1474 321.753 78.8358 319.864 78.6549C314.947 78.1957 312.234 72.9496 308.525 70.1387C307.557 69.4058 306.497 68.6822 305.386 67.9771C311.007 74.6936 315.479 82.4584 318.882 90.4783C326.361 108.122 328.656 124.461 328.711 143.432L328.712 144.02C328.721 154.484 328.485 165.139 327.466 175.557C326.522 185.181 324.79 194.681 320.433 203.397C313.132 218.012 298.904 229.395 283.213 233.727C265.753 238.551 246.237 234.78 231.935 223.648C228.287 220.809 233.125 214.645 236.852 217.266C251.738 227.725 270.989 231.037 288.074 223.959C301.626 218.346 312.539 206.272 317.165 192.371C320.109 183.527 320.966 174.097 322.016 164.881L322.086 164.267C323.197 154.628 323.841 144.924 323.832 135.221C323.818 117.2 321.234 102.367 313.322 86.0207C309.599 78.3209 304.77 71.2013 299.001 64.9529C297.251 65.31 295.39 64.8091 293.621 64.6189C292.718 64.5215 291.815 64.4287 290.912 64.3452C291.835 64.9427 292.739 65.5639 293.628 66.1995L294.794 67.042C298.444 69.6602 303.073 72.6423 302.136 77.704C301.881 79.0723 300.52 80.3293 299.2 80.6401C294.417 81.7812 291.13 77.1242 287.898 74.3597C285.088 71.9569 282.148 69.8047 279.152 67.6478C278.471 67.1608 277.786 66.6738 277.096 66.1914C277.745 66.9483 278.375 67.7172 278.99 68.4932L279.899 69.6478C282.651 73.0966 286.617 77.5794 284.166 82.0502C283.472 83.3119 281.99 84.1514 280.555 84.1236C275.619 84.0215 273.656 78.409 271.341 74.8652C269.35 71.8271 267.188 68.9651 264.952 66.1032C264.336 65.3193 263.716 64.5354 263.086 63.7515C252.719 64.2896 242.39 65.6626 232.241 67.8566C225.268 69.3641 218.411 71.3173 211.605 73.4552L211.039 73.6354C207.356 74.8235 203.56 76.3441 200.905 78.9517C200.526 80.7483 200.817 82.643 201.179 84.4372L201.462 85.8105C202.627 91.5532 203.42 97.1896 202.826 103.086C202.21 109.167 200.382 114.635 198.15 120.285C197.094 122.947 196.002 122.465 195.627 125.322C195.339 127.499 195.517 129.745 195.713 131.94L195.877 133.8C196.289 138.674 196.495 143.988 193.307 148.009C192.811 148.626 191.751 148.38 191.399 147.763C191.26 147.517 191.112 147.281 190.95 147.053C189.413 144.822 187.056 143.551 184.362 143.06C184.019 142.999 184.153 142.54 184.44 142.503C186.718 142.234 188.876 142.805 190.709 143.983C189.84 140.971 183.109 142.436 180.896 143.021L180.82 143.041C178.06 143.783 175.449 144.989 173.148 146.696C168.518 150.129 165.842 155.481 165.976 161.247C166.11 166.915 169.032 172.152 174.051 174.866C176.472 176.174 179.227 176.804 181.968 176.777C184.829 176.749 187.376 175.492 190.242 175.668C191.899 175.77 193.168 177.551 192.21 179.105C191.571 180.144 190.737 180.96 189.774 181.587C192.122 187.009 195.117 192.181 198.571 196.954C200.483 199.602 202.65 202.047 205.035 204.278C206.896 206.022 210.929 208.04 210.702 210.948C210.623 211.996 210.081 212.636 209.128 213.026C206.162 214.241 202.557 210.059 200.573 208.043L200.414 207.882C197.942 205.414 195.687 202.687 193.724 199.793C190.242 194.653 188.08 188.86 187.186 182.774C182.431 184.207 176.134 182.862 172.254 181.104C160.059 175.585 156.072 159.132 163.485 148.176C164.92 146.056 166.717 144.243 168.763 142.777C168.314 142.531 167.893 142.215 167.518 141.817C165.443 139.609 163.976 136.728 162.521 134.072L162.346 133.755C161.054 131.417 159.835 129.043 158.692 126.632L158.267 125.726C155.716 120.229 153.479 117.827 151.66 112.047C149.91 106.472 148.53 100.79 147.636 95.01L147.399 93.4802C146.882 90.1266 146.393 86.5405 146.771 83.1356C144.173 83.9844 141.562 84.5086 138.992 83.233C137.298 82.3934 136.362 79.9443 136.941 78.1864C137.362 76.8923 138.066 75.8764 138.96 75.0786C138.427 74.8096 137.927 74.4663 137.487 74.086L137.103 73.7525C135.547 72.3976 135.436 69.8233 136.381 68.1256C136.473 67.9632 136.566 67.7962 136.654 67.6339C137.552 66.0244 139.409 64.9714 141.242 64.9993C141.539 65.0039 141.835 65.0039 142.136 64.9993C141.279 64.8091 140.441 64.5169 139.645 64.0252C136.052 61.8127 136.506 55.8151 140.853 54.7576C142.678 54.3169 144.692 54.4978 146.701 54.9709C146.627 54.9292 146.553 54.8875 146.479 54.8411C144.96 53.9087 143.687 52.0858 143.83 50.2165C143.988 48.1478 144.655 46.6728 146.479 45.5874C148.062 44.6504 150.303 44.5623 151.877 45.5874C153.243 46.4826 154.581 47.4706 155.869 48.5328C154.577 46.9418 153.456 45.2116 153.003 43.3748C152.442 41.0881 153.378 38.5972 155.433 37.3912C157.072 36.4311 158.804 36.5378 160.35 37.2799C160.267 36.0785 160.559 34.854 161.355 33.7686C162.985 31.5426 165.948 30.2619 168.527 31.8854C168.865 32.0988 169.319 32.4652 169.759 32.9151C168.902 30.1831 169.675 27.3165 172.597 26.0827C174.379 25.3266 176.792 25.707 178.338 27.0104C177.356 21.6901 185.195 17.7799 188.242 23.2764C188.933 24.5216 189.617 25.8327 190.229 27.174L190.455 27.6783L190.478 27.669L190.322 27.3003L190.163 26.9315C189.316 24.9602 188.237 22.91 187.941 20.7717C187.505 17.6082 188.913 14.6072 192.348 14.1433C194.122 13.9021 196.094 14.7092 197.284 16.1198C196.641 11.2118 202.113 7.64486 206.053 11.3092C207.919 13.044 208.915 15.5812 210.1 17.8077C210.771 19.0647 211.457 20.3171 212.128 21.5788C212.299 21.3747 212.484 21.1706 212.679 20.9711C211.683 17.984 210.91 14.9226 210.257 11.8427C209.637 8.93899 211.086 5.92399 214.077 5.10345C216.795 4.35156 220.198 6.03114 220.805 8.93017C221.231 10.9706 221.735 12.9888 222.291 14.9968C222.67 14.904 223.046 14.8391 223.416 14.7927C223.447 14.4154 223.482 14.0361 223.521 13.6589L223.667 12.3171C223.99 9.25135 224.317 5.75164 225.916 3.14556C228.643 -1.30735 235.635 0.538756 235.709 5.80339C235.75 8.52616 234.644 11.2257 234.259 13.9207C234.093 15.0942 233.996 16.2816 233.94 17.4691C234.685 13.5264 235.709 9.63475 236.894 5.80339C237.033 5.34419 237.181 4.88498 237.325 4.42578ZM177.005 156.465C183.139 155.514 188.746 158.942 192.381 163.743C193.043 164.619 192.608 165.858 192.01 166.595C191.58 167.138 191.001 167.203 190.348 167.286C189.598 167.384 188.649 166.776 188.32 166.122C185.982 161.447 181.811 158.492 177.005 156.674C176.917 156.641 176.889 156.484 177.005 156.465ZM185.509 72.6925L185.695 72.4927C186.936 71.2027 184.974 69.2323 183.73 70.525C182.42 71.886 181.55 73.5391 180.713 75.2145C179.915 76.812 182.311 78.223 183.112 76.6195L183.476 75.8907C184.049 74.7574 184.659 73.6378 185.509 72.6925ZM168.28 70.045C170.04 69.7481 169.294 67.0657 167.542 67.3616C165.272 67.7448 163.011 68.1803 160.741 68.5639C158.982 68.8608 159.728 71.5432 161.48 71.2477C163.75 70.8641 166.011 70.4286 168.28 70.045ZM273.089 51.7319C271.389 51.1637 270.66 53.8508 272.351 54.4157C274.686 55.1964 277.003 55.9965 279.219 57.0805C280.82 57.8635 282.23 55.464 280.621 54.6773C278.189 53.4876 275.653 52.5891 273.089 51.7319ZM167.88 48.1251C166.22 47.4599 165.499 50.1507 167.142 50.8089L173.142 53.213C174.802 53.8781 175.523 51.1878 173.881 50.5296L167.88 48.1251ZM294.042 41.5906L293.823 41.4522C292.318 40.4753 290.924 42.8836 292.42 43.8554C293.299 44.4255 294.367 44.8122 295.171 45.4914L295.34 45.6416C296.639 46.8708 298.607 44.9069 297.304 43.6735C296.351 42.7721 295.144 42.2702 294.042 41.5906Z" fill="black"/>
<path fill-rule="evenodd" clip-rule="evenodd" d="M295.809 176.125L296.254 176.103C299.294 175.938 302.245 175.514 304.96 177.14C308.569 179.301 308.586 184.215 304.96 186.372C302.108 188.07 299.009 187.513 295.809 187.433C293.173 187.368 290.538 187.322 287.902 187.296C282.634 187.243 277.369 187.231 272.101 187.256C267.348 187.278 262.591 187.225 257.839 187.116L255.803 187.066C250.929 186.938 245.826 187.099 241.025 186.193L240.819 186.159L240.825 186.149C239.993 185.882 239.553 184.616 240.547 184.176C245.311 182.067 250.757 181.183 255.873 180.181C261.053 179.166 266.321 178.434 271.575 177.859C276.821 177.287 282.106 176.883 287.376 176.562C290.185 176.39 292.996 176.248 295.809 176.125ZM279.867 111.334L280.214 111.112C284.03 108.706 289.512 106.39 293.909 108.216C294.157 108.319 294.367 108.454 294.549 108.609C295.628 108.629 296.714 108.714 297.804 108.871C306.41 110.109 314.362 115.502 318.25 122.925C322.669 131.363 320.57 140.255 312.75 145.994C308.908 148.814 304.392 150.844 299.532 151.301C297.942 151.451 296.258 151.48 294.733 151.021C295.455 152.488 296.005 154.022 296.287 155.641C297.255 161.181 294.954 165.749 289.549 168.141C284.799 170.244 278.225 171.05 273.528 168.396C269.557 166.153 270.858 158.728 276.082 159.393C279.609 159.842 282.789 160.966 286.274 159.53C289.115 158.361 287.392 154.414 286.535 152.337C285.103 148.867 282.996 145.6 281.286 142.231L280.971 141.598C279.896 139.401 278.561 137.08 277.539 134.713C276.977 137.493 275.968 140.222 274.779 142.748C271.958 148.743 266.498 152.411 259.992 154.129C253.303 155.894 245.452 156.303 238.556 156.086C231.542 155.866 224.158 154.112 219.026 149.258C209.625 140.367 212.325 124.81 222.218 117.378C228.617 112.57 237.634 109.275 245.914 110.129C250.062 109.238 254.701 109.744 258.851 110.642C264.466 111.856 269.826 114.456 273.497 118.597C273.769 117.946 274.083 117.322 274.443 116.726C274.281 116.655 274.18 116.426 274.34 116.289C274.633 116.038 274.933 115.797 275.234 115.556C276.429 113.955 277.974 112.561 279.867 111.334ZM211.843 153.007C211.505 152.549 212.166 151.955 212.64 152.246C216.523 154.637 220.589 156.811 225.041 158.077C229.391 159.315 233.913 159.187 238.282 160.244C239.924 160.642 239.663 162.68 238.282 163.179C233.473 164.919 228.048 163.459 223.48 161.613C218.845 159.74 214.765 156.954 211.843 153.007ZM237.906 114.816L238.022 114.682L237.739 114.772C232.297 116.521 227.816 119.405 224.173 123.615C217.966 130.789 217.892 142.197 227.174 147.045C232.178 149.658 238.086 149.782 243.642 149.505L244.766 149.447C249.644 149.191 254.622 148.81 259.329 147.55C264.463 146.176 268.03 143.214 269.995 138.44L270.158 138.038C272.117 133.124 273.137 127.66 269.5 123.212C263.337 115.679 249.098 114.174 240.297 117.775C238.19 118.637 236.498 116.533 237.906 114.816ZM294.385 112.794C294.239 112.93 294.082 113.055 293.909 113.155C292.142 114.167 290.155 114.177 288.196 114.641C286.392 115.068 284.627 115.59 282.966 116.396C280.358 117.661 277.668 119.175 275.203 120.826C275.731 121.632 276.204 122.483 276.609 123.383C277.729 125.873 278.106 128.495 277.988 131.127C279.707 132.546 281.143 134.312 282.664 135.907L284.005 137.315C285.569 138.963 287.123 140.629 288.579 142.358C289.444 143.385 290.322 144.438 291.166 145.521C291.276 145.198 291.432 144.882 291.651 144.581C292.473 143.449 293.742 142.878 295.193 143.205C296.462 143.493 297.311 144.041 298.637 144.049C300.261 144.06 301.827 143.726 303.364 143.247C306.386 142.306 309.347 140.615 311.557 138.425C316.545 133.48 313.913 126.512 310.022 121.801C306.081 117.03 300.422 113.931 294.385 112.794ZM249.964 124.671C251.566 124.23 253.948 124.926 254.652 126.493L255.157 127.633C255.142 127.599 255.129 127.573 255.115 127.542C255.293 127.946 255.464 128.336 255.602 128.75L256.075 129.101C256.479 129.529 256.853 129.981 257.197 130.458C258.008 131.782 258.244 133.478 257.828 134.963C257.142 137.415 254.783 138.99 252.166 139.005C244.506 139.048 242.629 126.694 249.964 124.671ZM296.176 122.452C299.716 122.301 302.073 125.285 302.355 128.351C302.516 130.096 302.146 132.004 301.622 133.672C300.841 136.162 298.355 137.722 295.676 137.379C293.543 137.105 291.659 135.557 291.127 133.567C290.427 131.926 290.031 130.121 289.997 128.351C289.932 125.045 292.88 122.592 296.176 122.452ZM249.469 94.8646C253.058 94.3122 256.488 95.9778 257.01 99.6611C257.536 103.376 254.67 105.831 251.075 106.196C244.299 106.884 237.38 107.047 230.571 107.331C227.731 107.449 224.887 107.499 222.045 107.523L220.623 107.533C217.98 107.548 214.532 108.046 212.143 106.804C211.987 106.724 211.993 106.541 212.092 106.425C213.771 104.452 217.242 103.611 219.723 102.741L219.934 102.667C223.075 101.535 226.251 100.476 229.469 99.5596L231.104 99.0964C237.117 97.4057 243.304 95.8151 249.469 94.8646ZM272.255 93.0576C274.473 92.2614 276.663 92.7577 278.172 94.1043C283.217 95.4455 288.41 96.4732 293.488 97.6474L294.87 97.9716C301.236 99.4883 308.232 100.657 314.153 103.437C314.781 103.733 314.386 104.499 313.833 104.563C307.238 105.328 300.133 104.112 293.576 103.38C286.858 102.63 280.106 101.394 273.369 100.909C268.533 100.561 267.83 94.6465 272.255 93.0576Z" fill="black"/>
<defs>
<clipPath id="clip0_184_430">
<rect width="438" height="394" fill="white" transform="translate(0 211.294)"/>
</clipPath>
</defs>
</svg>
