<svg width="384" height="454" viewBox="0 0 384 454" fill="none" xmlns="http://www.w3.org/2000/svg">
<g clip-path="url(#clip0_184_429)">
<path fill-rule="evenodd" clip-rule="evenodd" d="M198.945 211.493C187.356 202.646 158.264 198.668 145.896 207.186C133.68 215.741 132.349 229.574 126.656 242.3C121.286 239.761 112.416 243.398 110.859 248.394C108.928 250.751 108.841 257.372 107.509 260.54C49.5609 269.788 40.7632 315.085 33.7883 366.509C24.5611 418.692 3.61429 470.76 12.7078 524.457C11.5229 526.176 10.5887 527.847 9.72498 529.831C7.65521 533.362 10.3212 538.36 14.4959 538.166C19.8996 537.691 25.2497 537.041 30.6788 536.838C45.7288 536.314 60.7926 536.377 75.8484 536.568L77.9014 536.595C153.778 537.542 229.65 539.409 305.53 539.903C308.283 539.907 309.631 537.432 309.263 534.99C308.523 530.074 307.836 525.156 307.119 520.237C325.067 524.99 344.147 526.186 362.044 520.737C363.296 519.458 359.126 520.152 358.465 519.957C374.936 508.673 370.017 484.901 368.558 467.779C359.486 409.11 356.287 344.196 321.235 294.132C306.071 273.702 283.839 257.526 258.292 253.886L257.583 253.789C250.114 252.79 241.789 252.468 235.258 248.394C227.912 242.515 224.782 231.652 217.055 231.55C214.503 231.516 211.032 234.753 207.296 236.95C207.017 232.116 204.419 228.037 203.845 224.289L203.799 223.968C203.2 219.598 204.02 215.667 198.945 211.493ZM74.4082 368.059C90.6933 356.716 132.761 362.415 133.724 363.051C135.844 364.449 136.758 364.573 137.904 366.388C139.037 366.539 140.168 366.695 141.298 366.856C143.566 367.599 141.886 370.396 139.266 369.398C140.842 376.211 136.205 381.055 134.359 387.79C133.76 389.977 134.338 393.91 134.359 396.145C134.18 398.994 131.039 402.359 131.562 405.217C133.424 415.378 143.525 425.29 139.266 435.145C136.445 440.71 127.959 443.548 122.318 445.441C110.629 449.938 90.263 445.271 83.4716 435.145C79.8492 429.743 75.6525 416.119 73.4926 411.893L73.0139 405.189C71.8333 388.524 70.7831 370.584 74.4082 368.059Z" fill="white"/>
<path fill-rule="evenodd" clip-rule="evenodd" d="M219.892 230.567C218.768 229.569 217.104 230.823 217.818 232.172C219.424 235.202 221.071 238.074 223.225 240.753C224.532 242.377 225.931 243.914 227.349 245.433C223.71 248.59 220.589 252.509 217.641 256.182C213.872 260.88 210.308 265.777 206.077 270.075C201.905 274.315 197.291 277.278 191.712 279.254L190.585 279.647C184.981 281.619 178.991 284.283 175.832 289.603C175.209 290.652 176.464 291.949 177.518 291.294C183.007 287.886 189.457 287.201 195.432 284.949C201.204 282.774 206.235 279.427 210.681 275.155C215.119 270.889 218.845 266.037 222.732 261.287C226.576 256.59 230.714 252.579 235.261 248.605C242.277 253.337 250.285 255.396 258.429 257.419L259.318 257.639C267.471 259.663 275.58 262.014 283.229 265.538C289.973 268.645 296.607 272.355 302.1 277.411C307.931 282.777 312.47 289.63 316.624 296.331C325.916 311.325 332.449 327.751 338.2 344.377C344.181 361.671 349.185 379.31 353.224 397.159C355.278 406.239 356.946 415.382 358.317 424.59C358.977 429.025 359.564 433.469 360.079 437.923C360.628 442.679 360.755 447.572 362.21 452.145C362.834 454.105 364.307 454.918 365.781 454.849L366.081 458.604C366.478 463.611 366.848 468.62 366.973 473.658C367.181 482.035 367.087 490.387 366.486 498.747L366.401 499.887C365.928 505.987 364.873 512.842 360.298 517.309C355.559 521.936 348.272 523.391 341.885 523.474C327.01 523.669 312.691 516.622 299.528 510.439C285.972 504.073 272.786 497.006 259.916 489.341C253.361 485.438 246.878 481.405 240.477 477.254C237.336 475.216 234.217 473.145 231.122 471.039C229.349 469.833 227.669 468.511 225.864 467.441C226.748 466.616 227.143 465.318 226.402 464.184C231.62 459.643 233.792 451.54 234.046 444.983C234.251 439.69 233.474 434.413 232.861 429.17C232.551 426.526 232.169 423.887 231.773 421.255C231.616 420.216 231.496 419.103 231.313 418.006C245.402 425.769 259.886 432.682 274.754 438.823C282.375 441.972 290.093 444.802 297.918 447.396L299.504 447.919C306.918 450.353 314.51 452.651 322.175 454.043C322.585 454.117 322.918 453.51 322.48 453.317C315.01 450.012 307.282 447.225 299.7 444.182L298.454 443.673C298.597 443.665 298.746 443.645 298.901 443.608C303.347 442.532 307.759 440.874 312.12 439.478C316.168 438.182 320.715 437.368 324.498 435.412C324.789 435.261 324.626 434.856 324.343 434.836C320.091 434.541 315.475 435.783 311.306 436.514L309.739 436.789C307.116 437.253 304.434 437.752 301.823 438.402C301.729 437.525 301.24 436.645 300.545 436.128C292.894 430.448 293.671 418.975 292.853 410.515L292.246 404.234C291.179 393.241 290.05 382.25 288.335 371.339C288.243 370.757 287.344 370.924 287.34 371.474C287.252 384.999 288.27 398.461 288.781 411.964L288.86 414.179C289.142 422.512 289.363 431.163 294.597 437.575C293.865 437.146 292.875 437.146 292.283 437.853C291.554 438.722 291.133 439.698 291.147 440.656C286.417 438.668 281.708 436.628 277.022 434.547C261.956 427.855 247.207 420.366 232.847 412.263C231.302 411.391 229.833 412.076 229.069 413.226L228.958 413.21C228.94 413.208 228.921 413.206 228.902 413.205L228.793 413.201C228.788 413.201 228.784 413.201 228.78 413.201C226.759 412.088 224.005 412.881 222.271 414.505C222.219 414.554 222.176 414.607 222.13 414.658C219.934 413.67 217.884 412.336 216.023 410.645C212.215 407.184 208.989 402.905 206.177 398.615C200.999 390.712 196.6 381.924 189.605 375.419C183.922 370.134 176.876 366.844 169.483 364.778C169.514 364.561 169.432 364.331 169.282 364.177C168.903 363.787 168.632 363.652 168.141 363.889C168.102 363.908 168.079 363.934 168.063 363.963L167.341 362.727C166.948 362.056 166.543 361.381 166.403 361.204C165.564 360.144 164.7 359.093 163.823 358.063C162.337 356.32 160.642 354.601 158.681 353.392C154.385 350.746 149.87 352.244 145.454 353.689C142.785 354.563 140.126 355.466 137.462 356.353L137.188 356.443C135.202 357.083 132.877 357.642 131.989 359.752C131.638 360.587 131.583 361.454 131.747 362.294C112.883 357.484 91.9312 359.694 73.5232 365.34C72.8167 365.557 72.1111 366.14 71.9622 366.905C69.8531 377.75 68.9137 388.871 69.8681 399.901C70.6915 409.421 72.7955 418.751 76.7604 427.468L76.9858 427.96C80.712 436.038 86.6177 445.995 95.637 448.527C101.083 450.056 107.106 449.155 112.661 448.875C118.059 448.602 123.576 448.563 128.923 447.712C133.685 446.954 137.858 444.814 140.801 440.932C143.339 437.582 144.676 433.535 145.772 429.508C146.273 429.668 146.771 429.838 147.261 430.03C149.33 430.84 151.083 432.148 152.668 433.687C156.014 436.936 158.61 440.883 162.112 443.983C165.281 446.79 168.893 448.973 172.767 450.652C180.795 454.13 189.408 455.52 197.899 457.363L198.492 457.492C204.885 458.898 211.41 460.625 217.052 463.962C217.163 464.945 217.609 465.869 218.325 466.474C217.329 467.411 216.908 468.895 217.782 470.288C220.225 474.175 224.433 476.386 228.211 478.872L228.456 479.035C232.172 481.505 235.921 483.926 239.7 486.297C247.382 491.12 255.225 495.677 263.179 500.033C275.971 507.04 289.039 513.65 302.343 519.645C301.544 523.584 301.836 527.645 301.236 531.611L301.144 532.176C300.887 533.648 301.234 534.879 302.245 535.84L302.352 535.939L302.35 535.926L302.444 536.013L302.476 536.039L302.466 536.031C302.582 536.138 302.702 536.238 302.825 536.323L302.981 536.424C303.955 537.017 305.208 537.01 306.205 536.486L306.319 536.424L306.511 536.313C307.828 535.554 308.736 533.672 308.19 532.176C306.847 528.501 306.339 524.579 305.099 520.88L306.083 521.321L307.38 521.888C321.406 527.968 336.986 533.089 352.268 528.944C359.02 527.111 365.331 523.236 368.71 516.919C372.034 510.703 372.504 503.486 372.681 496.572C372.899 488.038 372.442 479.374 371.32 470.914C370.566 465.235 369.655 459.449 368.25 453.828C368.973 453.189 369.504 452.271 369.645 451.135C370.308 445.767 369.147 440.187 368.436 434.846C367.742 429.632 366.975 424.429 366.107 419.241C364.356 408.764 362.321 398.31 359.952 387.956C355.735 369.529 350.167 351.429 343.463 333.762L342.876 332.223C336.682 316.075 329.51 300.271 319.523 286.085C314.745 279.298 309.695 273.145 302.944 268.254C296.62 263.672 289.487 260.372 282.125 257.851C274.755 255.327 267.18 253.636 259.472 252.584C251.643 251.515 243.379 250.86 236.076 247.641C237 245.98 236.207 243.738 234.653 242.709C229.42 239.243 224.582 234.734 219.892 230.567ZM52.3939 381.285C52.1747 380.952 51.6541 381.163 51.7503 381.557C54.2951 392.01 56.6841 402.485 58.244 413.137C61.06 432.364 60.542 451.842 60.3118 471.211L60.3002 472.212C60.1819 482.645 60.0176 493.079 59.6735 503.508C59.4998 508.778 59.1562 514.1 59.343 519.374C59.4449 522.235 60.2053 524.94 60.4748 527.767C60.7109 530.238 60.5006 532.748 60.3828 535.223C60.3039 536.868 62.7262 536.798 62.891 535.223L63.1017 533.185C63.3754 530.606 63.7137 528.044 64.5565 525.575C65.5701 522.607 66.0564 519.691 66.408 516.575C66.9466 511.799 67.1861 506.975 67.394 502.165L67.5361 498.839C68.4041 478.739 68.3736 458.545 66.9684 438.467L66.8657 437.033C65.4743 418.053 63.06 397.547 52.3939 381.285ZM106.64 261.666C107.304 261.393 107.072 260.385 106.336 260.56L104.997 260.881C95.1882 263.236 85.5576 265.788 76.4023 270.171C67.2412 274.557 59.4852 281.105 53.3224 289.156C41.3423 304.806 36.364 323.826 32.4338 342.828C28.0662 363.942 24.0896 385.134 19.6839 406.242L18.8658 410.174C14.7892 429.834 10.9403 449.504 8.10428 469.397L7.90057 470.84C5.04068 491.296 3.32043 512.46 6.44107 532.969C7.05838 537.027 13.7929 536.016 13.5296 532.008C12.7691 520.418 12.2245 508.89 12.7508 497.275C13.2775 485.657 14.3643 474.09 15.9843 462.575C17.3476 452.883 19.3799 443.313 21.1783 433.699L21.4603 432.18C22.9662 424.003 24.5187 415.834 26.0678 407.664L28.3828 395.433C31.8524 377.118 35.3899 358.786 39.3871 340.586L39.6244 339.515C43.5361 322.005 49.3031 303.664 61.0367 289.759C72.9439 275.648 89.9897 268.542 106.64 261.666ZM149.906 447.391C149.62 446.752 148.618 446.822 148.31 447.391C147.104 449.623 146.97 452.472 146.742 454.992L146.718 455.252C146.427 458.327 146.171 461.412 146.013 464.497C145.715 470.351 145.573 476.198 145.591 482.061C145.61 488.068 145.73 494.069 146.053 500.067L146.141 501.675C146.436 506.888 146.93 512.702 149.401 517.26C150.299 518.917 152.741 518.43 153.261 516.754C154.966 511.268 154.091 504.763 153.653 499.144L153.314 494.76C152.978 490.375 152.658 485.989 152.403 481.599C152.055 475.593 151.768 469.581 151.491 463.572C151.401 461.621 151.304 459.668 151.202 457.717L151.044 454.79C150.909 452.341 150.92 449.655 149.906 447.391ZM341.506 455.166L340.752 454.436C338.436 452.164 335.51 448.664 332.087 448.881C330.721 448.968 329.852 450.104 330.135 451.451C330.739 454.329 333.668 455.823 335.776 457.581C338.086 459.505 340.263 461.562 342.435 463.64C344.363 465.481 346.216 467.375 348.025 469.328L348.702 470.064C349.35 470.773 353.968 474.961 353.469 476.048L353.442 476.096C353.303 476.304 353.534 476.59 353.765 476.517C355.759 475.886 355.634 474.172 354.881 472.436C353.432 469.1 350.895 466.014 348.68 463.165C346.47 460.323 344.079 457.676 341.506 455.166ZM142.68 371.504C144.222 367.849 149.903 367.926 153.128 368.145C161.249 368.695 170.036 370.755 177.262 374.561C184.754 378.506 189.8 384.828 194.316 391.819L194.527 392.147C198.928 399.006 203.166 407.126 210.058 411.842C213.568 414.245 217.666 416.438 221.925 417.389C222.218 417.904 222.691 418.312 223.312 418.46L223.601 418.527C224.814 418.795 226.698 419.092 228.326 418.915C228.315 419.713 228.324 420.505 228.303 421.261C228.246 423.429 228.222 425.606 228.222 427.775C228.221 432.319 228.464 436.872 228.275 441.416C228.108 445.435 227.541 449.634 225.617 453.227C224.205 455.863 222.342 457.607 220.093 459.272C214.56 455.891 208.304 453.831 201.954 452.281C194.275 450.408 186.413 449.157 178.908 446.616C175.296 445.393 171.824 443.792 168.678 441.618C165.339 439.31 162.788 436.186 160.164 433.131L159.754 432.657C157.076 429.577 154.154 426.63 150.369 424.961C147.109 423.523 142.814 423.266 139.964 421.041C138.474 419.877 138.349 418.187 138.192 416.457C140.017 416.719 141.949 416.299 143.768 416.085L144.711 415.975C146.431 415.77 148.112 415.544 149.805 415.106C150.119 415.024 150.119 414.549 149.805 414.467C147.804 413.949 145.82 413.728 143.768 413.487L143.286 413.427C141.43 413.183 139.479 412.815 137.658 413.224C137.332 411.978 136.86 410.788 136.198 409.596C135.269 407.922 133.511 406.024 133.273 404.068C133.202 403.484 133.338 402.796 133.613 402.279L133.707 402.103C133.823 401.896 133.959 401.686 134.16 401.557C134.182 401.583 134.229 401.612 134.33 401.644C135.732 402.087 136.954 401.399 137.603 400.339C140.357 400.682 143.363 400.567 145.946 400.681L148.557 400.808C151.348 400.936 154.265 400.992 156.887 400.427C157.253 400.348 157.364 399.737 156.997 399.58C153.774 398.198 149.863 397.757 146.412 397.226C144.484 396.929 142.543 396.703 140.61 396.442C139.322 396.268 137.956 395.98 136.623 395.911C133.279 391.737 135.081 385.154 139.734 383.357C141.429 384.104 142.953 383.669 144.805 383.51C146.654 383.35 148.507 383.243 150.364 383.251C154.083 383.267 158.024 384.248 161.708 383.826C162.307 383.757 162.863 382.957 162.268 382.47C159.448 380.163 155.408 379.411 151.829 378.919L151.087 378.82C149.887 378.662 148.428 378.432 146.915 378.295C146.572 377.626 145.958 377.12 145.036 376.994C144.762 376.956 144.486 376.934 144.211 376.911L144.215 376.883C141.966 376.775 142.063 372.966 142.68 371.504ZM296.688 442.775C296.728 442.836 296.771 442.895 296.818 442.951L296.889 443.034L296.519 442.883L296.688 442.775ZM103.425 363.338C112.893 362.318 122.376 362.533 131.872 362.807C132.632 365.298 135.276 367.421 137.838 367.501C135.831 370.562 135.624 374.706 137.031 377.953C134.044 379.146 131.471 381.287 129.908 384.337C127.742 388.565 128.025 393.27 130.166 397.177C128.339 398.836 127.261 401.53 127.369 404.068C127.489 406.899 129.172 409.318 130.571 411.662C132.082 414.197 132.132 416.429 132.597 419.268C133.276 423.423 136.071 425.943 139.667 427.517L139.476 428.271C138.549 431.889 137.395 435.707 134.745 438.353C131.336 441.757 126.048 441.726 121.544 441.941L121.326 441.952C117.202 442.159 113.08 442.401 108.957 442.635L105.865 442.809C101.118 443.07 96.559 443.102 92.6837 439.955C86.3571 434.819 82.02 426.32 79.2747 418.795C73.5128 403.001 73.4438 385.669 76.0887 369.22C84.9587 366.354 94.162 364.336 103.425 363.338ZM182.168 389.541L182.098 389.546C180.149 389.769 178.809 391.352 178.332 393.229C177.64 395.958 177.979 398.426 176.312 400.889C174.598 403.422 173.543 405.45 173.294 408.58C173.192 409.868 173.239 411.152 172.953 412.412L172.745 413.296C172.525 414.237 172.345 415.144 172.455 416.155C172.555 417.077 173.002 417.796 173.925 418.091C176.931 419.055 179.252 416.834 180.028 414.026C180.699 411.6 179.803 408.709 180.75 406.431C181.274 405.168 182.241 404.112 182.787 402.841C183.329 401.581 183.6 400.265 183.687 398.895C183.852 396.304 181.567 393.192 182.842 390.845C183.113 390.344 182.806 389.526 182.168 389.541ZM222.095 362.808C220.059 362.393 217.75 361.443 215.743 362.233C214.711 362.639 214.201 363.901 215.073 364.778C216.587 366.299 218.786 366.384 220.825 366.742L221.004 366.775C223.415 367.222 225.83 367.646 228.248 368.048C232.797 368.803 237.357 369.471 241.933 370.039C246.633 370.622 251.346 371.141 256.066 371.532L257.893 371.682C261.88 372.002 266.029 372.243 269.94 371.631C270.509 371.542 270.417 370.712 269.94 370.566C265.655 369.266 260.954 368.917 256.523 368.367C251.813 367.781 247.111 367.162 242.421 366.428C237.738 365.694 233.061 364.907 228.402 364.038C226.296 363.645 224.194 363.235 222.095 362.808ZM148.649 358.632C150.435 357.998 152.4 357.059 154.336 357.373C157.674 357.916 160.644 361.176 163.286 363.323L161.96 363.065C155.172 361.757 146.183 360.347 140.485 364.674C140.471 364.649 140.459 364.624 140.443 364.6C139.983 363.899 139.45 363.353 138.868 362.754C138.813 362.701 138.759 362.647 138.706 362.592L138.392 362.257L139.11 362.007C140.647 361.462 142.469 360.759 142.757 360.656L142.776 360.649C144.736 359.984 146.699 359.326 148.649 358.632ZM204.419 215.985C204.699 212.383 199.107 212.413 198.83 215.985C198.226 223.784 199.976 231.509 203.744 238.346C203.772 238.396 203.802 238.44 203.831 238.488C201.475 239.717 199.092 240.896 196.655 241.951C193.539 243.3 190.363 244.528 187.131 245.57C184.208 246.513 180.606 246.886 178.148 248.848C172.964 252.986 174.912 261.574 175.909 267.141L176.064 268.02C176.561 270.884 176.92 273.823 175.715 276.572C174.429 279.509 171.828 281.687 169.508 283.788L169.039 284.214C166.983 286.092 164.634 288.373 163.126 290.919C161.75 288.065 159.874 285.734 157.89 283.109C156.475 281.236 157.482 280.618 158.499 278.788C159.478 277.027 159.955 275.149 159.649 273.14C159.085 269.429 156.127 266.749 153.182 264.735C149.705 262.357 145.824 260.596 142.23 258.385C134.844 253.841 127.651 248.646 121.17 242.876C120.991 242.716 120.681 242.925 120.825 243.143C125.944 250.95 131.946 257.696 139.324 263.422C142.315 265.744 145.457 267.67 148.621 269.695L149.53 270.28C150.8 271.105 152.385 272.207 152.959 273.612C153.537 275.024 152.305 276.091 151.641 277.261C149.535 280.976 150.551 284.443 153.048 287.594L153.165 287.74C155.646 290.806 157.527 293.657 158.426 297.574C160.359 305.988 157.667 314.752 154.849 322.651L154.738 322.963C153.213 327.22 151.593 331.447 150.269 335.773L149.905 336.969C148.705 340.949 147.722 344.875 149.068 348.967C149.526 350.358 151.419 350.687 152.205 349.378C154.979 344.758 155.671 339.2 157.41 334.121C159.104 329.172 161.05 324.312 162.687 319.342C164.795 312.943 166.206 306.055 165.44 299.344C165.462 299.304 165.487 299.268 165.506 299.226L166.043 298.05C167.506 294.863 168.919 292.081 171.58 289.541C174.355 286.892 177.367 284.546 179.551 281.339C184.295 274.373 181.361 266.623 180.788 259.006L180.723 258.072C180.618 256.49 180.561 254.341 181.592 253.246C182.751 252.014 185.469 251.7 187.007 251.154C190.981 249.744 194.898 248.101 198.628 246.128C202.179 244.25 205.618 242.175 208.821 239.745L210.444 238.52C213.005 236.583 215.661 234.467 217.377 231.83C217.575 231.526 217.239 231.036 216.88 231.182C214.014 232.348 211.396 234.202 208.715 235.816C208.674 235.717 208.625 235.618 208.57 235.518C205.253 229.499 203.889 222.831 204.419 215.985ZM112.887 257.223C111.745 254.084 106.542 254.326 106.749 258.056C106.908 260.921 108.122 263.507 109.231 266.109L109.349 266.387C110.495 269.098 111.818 271.643 113.401 274.127C116.425 278.876 119.968 283.284 123.752 287.443C127.183 291.214 131.686 293.52 136.874 293.136C139.061 292.975 141.267 292.417 143.183 291.323C145.459 290.022 147.93 286.116 150.833 287.062C151.113 287.153 151.375 286.741 151.133 286.545C147.781 283.839 143.977 288.035 140.769 289.046C135.934 290.568 130.973 288.885 127.861 284.966C124.612 280.875 121.621 276.294 118.891 271.839C117.504 269.577 116.239 267.229 115.146 264.809C114.043 262.367 113.793 259.713 112.887 257.223ZM120.68 237.905C120.821 237.472 120.284 237.059 119.904 237.307C117.702 238.744 115.793 240.644 113.762 242.308C111.508 244.155 109.238 245.964 106.933 247.746C103.572 250.344 107.47 255.126 110.428 252.288C114.477 248.406 118.911 243.331 120.68 237.905ZM132.77 222.712C131.876 219.253 126.584 220.68 127.355 224.098L127.381 224.202C128.841 229.849 126.761 235.597 122.321 239.258L122.157 239.391C119.348 241.645 123.328 245.585 126.109 243.353C132.182 238.481 134.708 230.204 132.77 222.712Z" fill="black"/>
</g>
<g clip-path="url(#clip1_184_429)">
<path fill-rule="evenodd" clip-rule="evenodd" d="M94.6264 78.8881C96.3733 68.3415 90.64 66.1532 94.6264 56.1277C103.486 37.5514 127.63 38.3518 145.347 36.9235C165.108 36.1677 185.11 38.7712 203.327 46.6752C207.679 48.5629 211.864 50.783 215.876 53.3054C219.345 55.4868 218.869 59.6343 216.681 61.8967C232.455 84.1881 223.433 114.11 236.019 137.574C238.344 141.768 241.42 145.529 243.441 149.893C246.513 156.527 246.709 166.032 239.743 170.438C229.931 175.694 224.456 165.288 219.635 180.372C195.557 232.967 147.147 235.929 101.191 208.508C97.2152 206.301 93.1574 203.807 90.155 200.339C83.3401 192.686 84.1427 181.923 83.992 172.365C83.9079 166.764 83.8938 161.163 83.9486 155.561C84.163 132.869 91.6992 101.393 94.6264 78.8881Z" fill="white"/>
<path fill-rule="evenodd" clip-rule="evenodd" d="M192.509 15.8074C164.761 3.2467 133.29 -1.51662 103.022 1.60776C88.0826 3.14746 73.3398 6.45079 59.3095 11.8167L58.0797 12.291C54.6162 13.6212 50.8828 14.9417 48.2509 17.6495C45.1875 20.7965 44.3283 25.5553 46.5181 29.4427C48.2192 32.4632 51.2776 34.6299 54.5397 35.7862C53.3905 36.7254 52.3002 37.7728 51.2776 38.9422C49.5539 40.9017 49.4227 43.6961 51.2776 45.6289C54.8519 49.3538 59.4893 52.0488 64.4841 53.3405C63.9231 56.045 64.2262 59.0384 65.4297 61.7339C68.8831 69.4712 78.6109 70.3933 86.0968 69.9339L86.323 69.9196L86.7392 74.6739C86.9609 77.2068 88.4811 79.1708 91.0599 79.5591C91.1504 79.5726 91.2414 79.5816 91.3314 79.5902C87.2505 94.3186 84.7847 109.502 82.509 124.596C81.32 132.475 80.2556 140.373 79.2366 148.275L78.8986 150.909C77.8127 159.429 76.4554 168.035 75.9849 176.618C75.5642 184.406 77.0527 191.842 81.862 198.127C86.1782 203.762 92.0643 207.983 98.3938 211.117C112.695 218.2 127.748 223.474 143.565 225.922L144.619 226.084C150.725 227.013 157.015 227.797 163.055 226.111C168.362 224.63 173.927 220.811 172.728 214.675C172.326 212.602 169.421 212.512 168.426 214.115L168.196 214.482C167.002 216.372 165.694 218.128 163.611 219.103C161.173 220.251 158.346 220.571 155.681 220.603C148.238 220.689 140.488 218.838 133.322 216.982C119.939 213.515 106.194 207.862 95.2313 199.297C90.5668 195.658 86.8207 191.106 85.4996 185.25C83.8663 178.031 85.3683 170.139 86.1103 162.883C87.6373 147.912 89.4545 132.968 91.3719 118.041L91.7567 115.056C93.3714 102.576 95.068 90.0925 95.8738 77.5409C96.2086 77.0849 96.4348 76.5656 96.5253 75.9967L96.6515 75.1795C96.7606 74.4797 96.7787 73.8386 96.7018 73.2471C96.6972 70.9806 96.6339 68.7276 96.5027 66.4606C96.4805 66.0547 96.462 65.6484 96.4484 65.2466C98.8101 65.7658 101.19 66.1857 103.579 66.5424C120.373 69.0662 137.43 69.6983 154.36 68.4432C162.806 67.8151 171.19 66.7365 179.546 65.3865C183.8 64.7002 188.039 63.9417 192.264 63.0929C195.318 62.4834 198.309 61.6571 201.313 60.8806C204.412 65.382 206.086 70.9219 205.76 76.3625C205.394 82.5706 201.25 88.2008 202.412 94.5443C203.504 100.481 208.6 102.322 213.632 103.792L215.772 104.409C217.419 104.889 218.614 105.352 218.912 107.326C219.424 110.717 218.795 114.532 218.664 117.941C218.505 121.973 218.298 126.005 218.202 130.037C218.152 132.123 218.071 134.218 218.075 136.303C218.08 137.784 218.302 138.796 218.876 139.752C218.433 140.308 218.035 140.909 217.682 141.545C217.569 141.753 217.849 141.974 218.016 141.803C218.465 141.338 218.94 140.918 219.442 140.543C219.695 140.855 219.989 141.171 220.334 141.509L220.36 141.473C221.437 142.543 223.147 142.647 224.482 141.509L224.833 141.206C225.81 140.352 226.481 139.64 226.753 138.227C226.767 138.155 226.781 138.082 226.789 138.01C229.273 137.924 231.798 138.511 234.033 139.744C237.575 141.699 240.068 144.485 241.543 147.925C240.955 148.611 240.267 149.225 239.466 149.74C239.353 149.817 239.453 149.984 239.575 149.925C240.394 149.541 241.127 149.067 241.783 148.512C242.312 149.867 242.683 151.32 242.909 152.86C243.706 158.296 242.285 164.938 237.363 168.035C235.232 169.376 232.798 170.103 230.273 170.112C229.043 170.116 227.979 169.909 226.785 169.615C225.975 169.416 225.17 169.127 224.324 169.127C223.6 169.127 222.93 169.308 222.31 169.669L222.482 169.684C222.9 169.723 222.82 169.741 222.238 169.741C220.428 169.818 219.393 171.651 220.225 173.245L220.334 173.491C220.357 173.541 220.376 173.582 220.391 173.615L220.457 174.038C220.464 174.078 220.471 174.119 220.478 174.162L220.503 174.247C220.508 174.261 220.513 174.275 220.519 174.288L217.804 178.419C214.477 183.471 211.075 188.505 207.204 193.12C204.489 196.357 201.612 199.531 198.571 202.471C195.838 205.112 192.563 206.385 189.468 208.462C187.816 209.564 187.333 211.871 188.834 213.356C193.242 217.722 199.481 214.255 203.095 210.706C206.516 207.342 209.47 203.297 212.017 199.247C216.537 192.046 220.134 184.388 221.709 176.076C222.365 176.677 223.202 177.051 224.048 177.345C225.744 177.932 227.613 178.176 229.404 178.239C232.838 178.352 236.277 177.521 239.367 176.049C251.94 170.067 253.786 152.151 246.099 141.586C247.136 138.586 247.714 135.332 248.343 132.556L248.63 131.316C251.808 117.458 253.942 102.868 248.307 89.2889C247.583 87.5371 246.769 85.8304 245.805 84.196C245.031 82.8821 243.701 81.4825 243.335 79.988C242.52 76.7056 247.547 73.2561 249.013 70.651C250.736 67.5943 250.981 63.9869 248.633 61.1916C248.334 60.8399 248.009 60.5144 247.655 60.2304C249.881 56.203 249.985 51.1372 247.054 47.164C245.126 44.5453 242.186 42.7122 238.973 42.1569C237.01 41.8183 234.648 41.9447 232.49 42.5497C220.673 31.6008 207.19 22.4535 192.509 15.8074ZM237.888 152.806C234.734 150.029 231.25 148.575 226.952 148.941C222.631 149.311 217.428 151.095 214.891 154.792C212.886 157.714 216.971 161.998 219.912 159.804C222.591 157.804 224.378 155.546 227.703 154.472C230.689 153.51 234.386 152.892 237.512 153.442C237.856 153.501 238.199 153.077 237.888 152.806Z" fill="black"/>
<path fill-rule="evenodd" clip-rule="evenodd" d="M138.425 189.108C134.659 188.584 130.609 186.451 127.011 188.185C125.33 188.995 124.531 191.766 125.668 193.306C127.405 195.659 129.198 196.048 132.016 196.274C134.13 196.443 136.254 196.456 138.362 196.212L138.898 196.146C142.659 195.661 146.568 194.611 149.481 192.084C150.077 191.567 149.772 190.449 149.007 190.288C145.547 189.56 141.927 189.596 138.425 189.108ZM142.858 180.435C142.859 180.405 142.813 180.405 142.812 180.435C142.72 182.588 142.116 184.584 140.997 186.425C140.982 186.452 141.022 186.475 141.038 186.449C142.156 184.606 142.767 182.59 142.858 180.435ZM130.986 136.008C127.223 138.295 121.49 143.628 125.538 149.299C130.302 154.298 137.162 148.566 140.543 145.973C143.677 143.964 147.199 149.132 144.291 151.478C119.864 169.564 109.951 136.606 129.083 133.319C131.189 132.957 131.972 135.3 130.986 136.008ZM111.728 110.412C110.844 110.412 109.999 110.712 109.23 111.267C108.472 111.813 107.786 112.61 107.215 113.605C106.135 115.486 105.459 118.084 105.459 120.956C105.459 123.828 106.135 126.426 107.215 128.308C107.786 129.302 108.472 130.099 109.23 130.645C109.999 131.2 110.844 131.5 111.728 131.5C112.611 131.5 113.456 131.2 114.226 130.645C114.983 130.099 115.669 129.302 116.24 128.308C117.321 126.426 117.996 123.828 117.996 120.956C117.996 118.084 117.321 115.486 116.24 113.605C115.669 112.61 114.983 111.813 114.226 111.267C113.456 110.712 112.611 110.412 111.728 110.412ZM152.644 113.342L152.312 113.279C150.371 112.926 149.39 113.045 147.7 114.367C146.43 115.362 146.794 117.319 147.7 118.365C149.279 120.187 150.822 119.864 152.984 119.933L153.136 119.939C154.938 120.012 156.742 120.063 158.546 120.091C159.039 120.099 159.533 120.097 160.026 120.1C159.974 124.665 162.606 128.14 166.072 130.783C168.312 132.491 171.146 130.52 171.945 128.393C172.606 126.633 172.748 124.469 172.405 122.542C172.278 121.832 172.014 121.061 171.609 120.404L171.495 120.227L171.513 119.975C171.518 119.913 171.513 119.853 171.515 119.79C174.733 119.595 177.932 119.272 181.13 118.867L182.196 118.729C184.925 118.367 188.934 118.251 191.143 116.476C191.212 116.419 191.188 116.295 191.114 116.255C189.899 115.601 188.668 115.638 187.31 115.578L187.115 115.569C185.638 115.493 184.164 115.429 182.688 115.378L181.211 115.332C177.433 115.224 173.652 115.041 169.877 114.84C169.221 114.805 168.565 114.764 167.908 114.723C167.221 114.435 166.49 114.263 165.769 114.231C165.171 114.204 164.596 114.287 164.055 114.459C162.677 114.352 161.299 114.236 159.922 114.111L158.546 113.984C156.604 113.799 154.562 113.718 152.644 113.342ZM128.793 79.129C124.641 77.0885 119.592 77.0387 115.316 78.7274L115.033 78.8421C110.714 80.6345 105.51 84.7744 106.637 89.931C107.668 94.6509 115.07 93.8511 115.446 89.3899C117.836 86.0782 123.196 85.3517 126.565 87.4575C128.608 88.7351 130.011 90.8863 130.97 93.0558C131.787 94.9035 131.941 97.1852 133.196 98.7947C133.237 98.847 133.319 98.8565 133.378 98.8425C137.121 97.9765 137.208 92.0283 136.569 89.1432C135.642 84.9486 132.666 81.0335 128.793 79.129Z" fill="black"/>
</g>
<defs>
<clipPath id="clip0_184_429">
<rect width="384" height="345" fill="white" transform="matrix(-1 0 0 1 384 210)"/>
</clipPath>
<clipPath id="clip1_184_429">
<rect width="214" height="256" fill="white" transform="matrix(-1 0 0 1 269 0.678711)"/>
</clipPath>
</defs>
</svg>
