<svg width="628" height="206" viewBox="0 0 628 206" fill="none" xmlns="http://www.w3.org/2000/svg">
<path d="M232.66 67.28V56.96L257.78 22H274.18L249.78 56.96L242.26 54.72H286.02V67.28H232.66ZM262.26 78V67.28L262.74 54.72V45.2H277.7V78H262.26ZM313.956 79.12C309.156 79.12 304.889 77.9733 301.156 75.68C297.476 73.3867 294.569 70.08 292.436 65.76C290.302 61.44 289.236 56.1867 289.236 50C289.236 43.8133 290.302 38.56 292.436 34.24C294.569 29.92 297.476 26.6133 301.156 24.32C304.889 22.0267 309.156 20.88 313.956 20.88C318.702 20.88 322.916 22.0267 326.596 24.32C330.329 26.6133 333.262 29.92 335.396 34.24C337.529 38.56 338.596 43.8133 338.596 50C338.596 56.1867 337.529 61.44 335.396 65.76C333.262 70.08 330.329 73.3867 326.596 75.68C322.916 77.9733 318.702 79.12 313.956 79.12ZM313.956 66.16C315.662 66.16 317.156 65.6267 318.436 64.56C319.769 63.4933 320.809 61.7867 321.556 59.44C322.302 57.04 322.676 53.8933 322.676 50C322.676 46.0533 322.302 42.9067 321.556 40.56C320.809 38.2133 319.769 36.5067 318.436 35.44C317.156 34.3733 315.662 33.84 313.956 33.84C312.249 33.84 310.729 34.3733 309.396 35.44C308.116 36.5067 307.076 38.2133 306.276 40.56C305.529 42.9067 305.156 46.0533 305.156 50C305.156 53.8933 305.529 57.04 306.276 59.44C307.076 61.7867 308.116 63.4933 309.396 64.56C310.729 65.6267 312.249 66.16 313.956 66.16ZM343.441 67.28V56.96L368.561 22H384.961L360.561 56.96L353.041 54.72H396.801V67.28H343.441ZM373.041 78V67.28L373.521 54.72V45.2H388.481V78H373.041Z" fill="black"/>
<path d="M228.66 71.28V60.96L253.78 26H270.18L245.78 60.96L238.26 58.72H282.02V71.28H228.66ZM258.26 82V71.28L258.74 58.72V49.2H273.7V82H258.26ZM309.956 83.12C305.156 83.12 300.889 81.9733 297.156 79.68C293.476 77.3867 290.569 74.08 288.436 69.76C286.302 65.44 285.236 60.1867 285.236 54C285.236 47.8133 286.302 42.56 288.436 38.24C290.569 33.92 293.476 30.6133 297.156 28.32C300.889 26.0267 305.156 24.88 309.956 24.88C314.702 24.88 318.916 26.0267 322.596 28.32C326.329 30.6133 329.262 33.92 331.396 38.24C333.529 42.56 334.596 47.8133 334.596 54C334.596 60.1867 333.529 65.44 331.396 69.76C329.262 74.08 326.329 77.3867 322.596 79.68C318.916 81.9733 314.702 83.12 309.956 83.12ZM309.956 70.16C311.662 70.16 313.156 69.6267 314.436 68.56C315.769 67.4933 316.809 65.7867 317.556 63.44C318.302 61.04 318.676 57.8933 318.676 54C318.676 50.0533 318.302 46.9067 317.556 44.56C316.809 42.2133 315.769 40.5067 314.436 39.44C313.156 38.3733 311.662 37.84 309.956 37.84C308.249 37.84 306.729 38.3733 305.396 39.44C304.116 40.5067 303.076 42.2133 302.276 44.56C301.529 46.9067 301.156 50.0533 301.156 54C301.156 57.8933 301.529 61.04 302.276 63.44C303.076 65.7867 304.116 67.4933 305.396 68.56C306.729 69.6267 308.249 70.16 309.956 70.16ZM339.441 71.28V60.96L364.561 26H380.961L356.561 60.96L349.041 58.72H392.801V71.28H339.441ZM369.041 82V71.28L369.521 58.72V49.2H384.481V82H369.041Z" fill="#28D0E7"/>
<path d="M176.894 133.438C175.582 133.438 174.374 133.222 173.27 132.79C172.166 132.358 171.206 131.758 170.39 130.99C169.574 130.206 168.942 129.294 168.494 128.254C168.046 127.198 167.822 126.046 167.822 124.798C167.822 123.55 168.046 122.406 168.494 121.366C168.942 120.31 169.574 119.398 170.39 118.63C171.206 117.846 172.166 117.238 173.27 116.806C174.374 116.374 175.574 116.158 176.87 116.158C178.182 116.158 179.382 116.374 180.47 116.806C181.574 117.238 182.534 117.846 183.35 118.63C184.166 119.398 184.798 120.31 185.246 121.366C185.694 122.406 185.918 123.55 185.918 124.798C185.918 126.046 185.694 127.198 185.246 128.254C184.798 129.31 184.166 130.222 183.35 130.99C182.534 131.758 181.574 132.358 180.47 132.79C179.382 133.222 178.19 133.438 176.894 133.438ZM176.87 130.702C177.718 130.702 178.502 130.558 179.222 130.27C179.942 129.982 180.566 129.574 181.094 129.046C181.622 128.502 182.03 127.878 182.318 127.174C182.622 126.454 182.774 125.662 182.774 124.798C182.774 123.934 182.622 123.15 182.318 122.446C182.03 121.726 181.622 121.102 181.094 120.574C180.566 120.03 179.942 119.614 179.222 119.326C178.502 119.038 177.718 118.894 176.87 118.894C176.022 118.894 175.238 119.038 174.518 119.326C173.814 119.614 173.19 120.03 172.646 120.574C172.118 121.102 171.702 121.726 171.398 122.446C171.11 123.15 170.966 123.934 170.966 124.798C170.966 125.646 171.11 126.43 171.398 127.15C171.702 127.87 172.118 128.502 172.646 129.046C173.174 129.574 173.798 129.982 174.518 130.27C175.238 130.558 176.022 130.702 176.87 130.702ZM196.209 120.238C197.233 120.238 198.145 120.438 198.945 120.838C199.761 121.238 200.401 121.854 200.865 122.686C201.329 123.502 201.561 124.558 201.561 125.854V133.198H198.561V126.238C198.561 125.102 198.289 124.254 197.745 123.694C197.217 123.134 196.473 122.854 195.513 122.854C194.809 122.854 194.185 122.998 193.641 123.286C193.097 123.574 192.673 124.006 192.369 124.582C192.081 125.142 191.937 125.854 191.937 126.718V133.198H188.937V115.39H191.937V123.838L191.289 122.782C191.737 121.966 192.385 121.342 193.233 120.91C194.097 120.462 195.089 120.238 196.209 120.238ZM217.423 133.366C216.191 133.366 215.079 133.094 214.087 132.55C213.111 131.99 212.343 131.222 211.783 130.246C211.223 129.27 210.943 128.118 210.943 126.79C210.943 125.462 211.223 124.31 211.783 123.334C212.343 122.358 213.111 121.598 214.087 121.054C215.079 120.51 216.191 120.238 217.423 120.238C218.495 120.238 219.455 120.478 220.303 120.958C221.151 121.422 221.823 122.134 222.319 123.094C222.815 124.054 223.063 125.286 223.063 126.79C223.063 128.278 222.823 129.51 222.343 130.486C221.863 131.446 221.199 132.166 220.351 132.646C219.503 133.126 218.527 133.366 217.423 133.366ZM217.783 130.798C218.503 130.798 219.143 130.638 219.703 130.318C220.279 129.998 220.735 129.534 221.071 128.926C221.423 128.318 221.599 127.606 221.599 126.79C221.599 125.958 221.423 125.246 221.071 124.654C220.735 124.046 220.279 123.582 219.703 123.262C219.143 122.942 218.503 122.782 217.783 122.782C217.063 122.782 216.415 122.942 215.839 123.262C215.279 123.582 214.823 124.046 214.471 124.654C214.135 125.246 213.967 125.958 213.967 126.79C213.967 127.606 214.135 128.318 214.471 128.926C214.823 129.534 215.279 129.998 215.839 130.318C216.415 130.638 217.063 130.798 217.783 130.798ZM221.671 133.198V130.174L221.791 126.766L221.551 123.358V115.39H224.527V133.198H221.671ZM234.5 133.366C233.076 133.366 231.828 133.086 230.756 132.526C229.7 131.95 228.876 131.166 228.284 130.174C227.708 129.182 227.42 128.054 227.42 126.79C227.42 125.51 227.7 124.382 228.26 123.406C228.836 122.414 229.62 121.638 230.612 121.078C231.62 120.518 232.764 120.238 234.044 120.238C235.292 120.238 236.404 120.51 237.38 121.054C238.356 121.598 239.124 122.366 239.684 123.358C240.244 124.35 240.524 125.518 240.524 126.862C240.524 126.99 240.516 127.134 240.5 127.294C240.5 127.454 240.492 127.606 240.476 127.75H229.796V125.758H238.892L237.716 126.382C237.732 125.646 237.58 124.998 237.26 124.438C236.94 123.878 236.5 123.438 235.94 123.118C235.396 122.798 234.764 122.638 234.044 122.638C233.308 122.638 232.66 122.798 232.1 123.118C231.556 123.438 231.124 123.886 230.804 124.462C230.5 125.022 230.348 125.686 230.348 126.454V126.934C230.348 127.702 230.524 128.382 230.876 128.974C231.228 129.566 231.724 130.022 232.364 130.342C233.004 130.662 233.74 130.822 234.572 130.822C235.292 130.822 235.94 130.71 236.516 130.486C237.092 130.262 237.604 129.91 238.052 129.43L239.66 131.278C239.084 131.95 238.356 132.47 237.476 132.838C236.612 133.19 235.62 133.366 234.5 133.366ZM250.95 133.198V130.606L250.782 130.054V125.518C250.782 124.638 250.518 123.958 249.99 123.478C249.462 122.982 248.662 122.734 247.59 122.734C246.87 122.734 246.158 122.846 245.454 123.07C244.766 123.294 244.182 123.606 243.702 124.006L242.526 121.822C243.214 121.294 244.03 120.902 244.974 120.646C245.934 120.374 246.926 120.238 247.95 120.238C249.806 120.238 251.238 120.686 252.246 121.582C253.27 122.462 253.782 123.83 253.782 125.686V133.198H250.95ZM246.918 133.366C245.958 133.366 245.118 133.206 244.398 132.886C243.678 132.55 243.118 132.094 242.718 131.518C242.334 130.926 242.142 130.262 242.142 129.526C242.142 128.806 242.31 128.158 242.646 127.582C242.998 127.006 243.566 126.55 244.35 126.214C245.134 125.878 246.174 125.71 247.47 125.71H251.19V127.702H247.686C246.662 127.702 245.974 127.87 245.622 128.206C245.27 128.526 245.094 128.926 245.094 129.406C245.094 129.95 245.31 130.382 245.742 130.702C246.174 131.022 246.774 131.182 247.542 131.182C248.278 131.182 248.934 131.014 249.51 130.678C250.102 130.342 250.526 129.846 250.782 129.19L251.286 130.99C250.998 131.742 250.478 132.326 249.726 132.742C248.99 133.158 248.054 133.366 246.918 133.366ZM257.632 133.198V120.382H260.488V123.91L260.152 122.878C260.536 122.014 261.136 121.358 261.952 120.91C262.784 120.462 263.816 120.238 265.048 120.238V123.094C264.92 123.062 264.8 123.046 264.688 123.046C264.576 123.03 264.464 123.022 264.352 123.022C263.216 123.022 262.312 123.358 261.64 124.03C260.968 124.686 260.632 125.67 260.632 126.982V133.198H257.632ZM267.902 127.63L267.326 116.398H270.878L270.278 127.63H267.902ZM269.102 133.366C268.542 133.366 268.078 133.182 267.71 132.814C267.342 132.446 267.158 132.006 267.158 131.494C267.158 130.982 267.342 130.55 267.71 130.198C268.078 129.83 268.542 129.646 269.102 129.646C269.662 129.646 270.118 129.83 270.47 130.198C270.822 130.55 270.998 130.982 270.998 131.494C270.998 132.006 270.822 132.446 270.47 132.814C270.118 133.182 269.662 133.366 269.102 133.366ZM285.439 133.198V126.55L286.135 128.47L278.839 116.398H282.175L288.031 126.118H286.159L292.063 116.398H295.135L287.839 128.47L288.559 126.55V133.198H285.439ZM301.22 133.366C299.908 133.366 298.74 133.086 297.716 132.526C296.692 131.95 295.884 131.166 295.292 130.174C294.7 129.182 294.404 128.054 294.404 126.79C294.404 125.51 294.7 124.382 295.292 123.406C295.884 122.414 296.692 121.638 297.716 121.078C298.74 120.518 299.908 120.238 301.22 120.238C302.548 120.238 303.724 120.518 304.748 121.078C305.788 121.638 306.596 122.406 307.172 123.382C307.764 124.358 308.06 125.494 308.06 126.79C308.06 128.054 307.764 129.182 307.172 130.174C306.596 131.166 305.788 131.95 304.748 132.526C303.724 133.086 302.548 133.366 301.22 133.366ZM301.22 130.798C301.956 130.798 302.612 130.638 303.188 130.318C303.764 129.998 304.212 129.534 304.532 128.926C304.868 128.318 305.036 127.606 305.036 126.79C305.036 125.958 304.868 125.246 304.532 124.654C304.212 124.046 303.764 123.582 303.188 123.262C302.612 122.942 301.964 122.782 301.244 122.782C300.508 122.782 299.852 122.942 299.276 123.262C298.716 123.582 298.268 124.046 297.932 124.654C297.596 125.246 297.428 125.958 297.428 126.79C297.428 127.606 297.596 128.318 297.932 128.926C298.268 129.534 298.716 129.998 299.276 130.318C299.852 130.638 300.5 130.798 301.22 130.798ZM316.353 133.366C315.265 133.366 314.305 133.166 313.473 132.766C312.641 132.35 311.993 131.726 311.529 130.894C311.065 130.046 310.833 128.982 310.833 127.702V120.382H313.833V127.294C313.833 128.446 314.089 129.31 314.601 129.886C315.129 130.446 315.873 130.726 316.833 130.726C317.537 130.726 318.145 130.582 318.657 130.294C319.185 130.006 319.593 129.574 319.881 128.998C320.185 128.422 320.337 127.71 320.337 126.862V120.382H323.337V133.198H320.481V129.742L320.985 130.798C320.553 131.63 319.921 132.27 319.089 132.718C318.257 133.15 317.345 133.366 316.353 133.366ZM339.778 133.366C338.434 133.366 337.234 133.086 336.178 132.526C335.138 131.95 334.322 131.166 333.73 130.174C333.138 129.182 332.842 128.054 332.842 126.79C332.842 125.51 333.138 124.382 333.73 123.406C334.322 122.414 335.138 121.638 336.178 121.078C337.234 120.518 338.434 120.238 339.778 120.238C341.026 120.238 342.122 120.494 343.066 121.006C344.026 121.502 344.754 122.238 345.25 123.214L342.946 124.558C342.562 123.95 342.09 123.502 341.53 123.214C340.986 122.926 340.394 122.782 339.754 122.782C339.018 122.782 338.354 122.942 337.762 123.262C337.17 123.582 336.706 124.046 336.37 124.654C336.034 125.246 335.866 125.958 335.866 126.79C335.866 127.622 336.034 128.342 336.37 128.95C336.706 129.542 337.17 129.998 337.762 130.318C338.354 130.638 339.018 130.798 339.754 130.798C340.394 130.798 340.986 130.654 341.53 130.366C342.09 130.078 342.562 129.63 342.946 129.022L345.25 130.366C344.754 131.326 344.026 132.07 343.066 132.598C342.122 133.11 341.026 133.366 339.778 133.366ZM355.739 133.198V130.606L355.571 130.054V125.518C355.571 124.638 355.307 123.958 354.779 123.478C354.251 122.982 353.451 122.734 352.379 122.734C351.659 122.734 350.947 122.846 350.243 123.07C349.555 123.294 348.971 123.606 348.491 124.006L347.315 121.822C348.003 121.294 348.819 120.902 349.763 120.646C350.723 120.374 351.715 120.238 352.739 120.238C354.595 120.238 356.027 120.686 357.035 121.582C358.059 122.462 358.571 123.83 358.571 125.686V133.198H355.739ZM351.707 133.366C350.747 133.366 349.907 133.206 349.187 132.886C348.467 132.55 347.907 132.094 347.507 131.518C347.123 130.926 346.931 130.262 346.931 129.526C346.931 128.806 347.099 128.158 347.435 127.582C347.787 127.006 348.355 126.55 349.139 126.214C349.923 125.878 350.963 125.71 352.259 125.71H355.979V127.702H352.475C351.451 127.702 350.763 127.87 350.411 128.206C350.059 128.526 349.883 128.926 349.883 129.406C349.883 129.95 350.099 130.382 350.531 130.702C350.963 131.022 351.563 131.182 352.331 131.182C353.067 131.182 353.723 131.014 354.299 130.678C354.891 130.342 355.315 129.846 355.571 129.19L356.075 130.99C355.787 131.742 355.267 132.326 354.515 132.742C353.779 133.158 352.843 133.366 351.707 133.366ZM367.845 133.366C366.757 133.366 365.797 133.166 364.965 132.766C364.133 132.35 363.485 131.726 363.021 130.894C362.557 130.046 362.325 128.982 362.325 127.702V120.382H365.325V127.294C365.325 128.446 365.581 129.31 366.093 129.886C366.621 130.446 367.365 130.726 368.325 130.726C369.029 130.726 369.637 130.582 370.149 130.294C370.677 130.006 371.085 129.574 371.373 128.998C371.677 128.422 371.829 127.71 371.829 126.862V120.382H374.829V133.198H371.973V129.742L372.477 130.798C372.045 131.63 371.413 132.27 370.581 132.718C369.749 133.15 368.837 133.366 367.845 133.366ZM384.565 138.022C383.381 138.022 382.221 137.862 381.085 137.542C379.965 137.238 379.045 136.79 378.325 136.198L379.669 133.942C380.229 134.406 380.933 134.774 381.781 135.046C382.645 135.334 383.517 135.478 384.397 135.478C385.805 135.478 386.837 135.15 387.493 134.494C388.149 133.854 388.477 132.886 388.477 131.59V129.31L388.717 126.406L388.621 123.502V120.382H391.477V131.254C391.477 133.574 390.885 135.278 389.701 136.366C388.517 137.47 386.805 138.022 384.565 138.022ZM384.181 132.622C382.965 132.622 381.861 132.366 380.869 131.854C379.893 131.326 379.117 130.598 378.541 129.67C377.981 128.742 377.701 127.654 377.701 126.406C377.701 125.174 377.981 124.094 378.541 123.166C379.117 122.238 379.893 121.518 380.869 121.006C381.861 120.494 382.965 120.238 384.181 120.238C385.269 120.238 386.245 120.454 387.109 120.886C387.973 121.318 388.661 121.99 389.173 122.902C389.701 123.814 389.965 124.982 389.965 126.406C389.965 127.83 389.701 129.006 389.173 129.934C388.661 130.846 387.973 131.526 387.109 131.974C386.245 132.406 385.269 132.622 384.181 132.622ZM384.637 130.078C385.389 130.078 386.061 129.926 386.653 129.622C387.245 129.302 387.701 128.87 388.021 128.326C388.357 127.766 388.525 127.126 388.525 126.406C388.525 125.686 388.357 125.054 388.021 124.51C387.701 123.95 387.245 123.526 386.653 123.238C386.061 122.934 385.389 122.782 384.637 122.782C383.885 122.782 383.205 122.934 382.597 123.238C382.005 123.526 381.541 123.95 381.205 124.51C380.885 125.054 380.725 125.686 380.725 126.406C380.725 127.126 380.885 127.766 381.205 128.326C381.541 128.87 382.005 129.302 382.597 129.622C383.205 129.926 383.885 130.078 384.637 130.078ZM402.693 120.238C403.717 120.238 404.629 120.438 405.429 120.838C406.245 121.238 406.885 121.854 407.349 122.686C407.813 123.502 408.045 124.558 408.045 125.854V133.198H405.045V126.238C405.045 125.102 404.773 124.254 404.229 123.694C403.701 123.134 402.957 122.854 401.997 122.854C401.293 122.854 400.669 122.998 400.125 123.286C399.581 123.574 399.157 124.006 398.853 124.582C398.565 125.142 398.421 125.854 398.421 126.718V133.198H395.421V115.39H398.421V123.838L397.773 122.782C398.221 121.966 398.869 121.342 399.717 120.91C400.581 120.462 401.573 120.238 402.693 120.238ZM416.675 133.366C415.267 133.366 414.179 133.006 413.411 132.286C412.643 131.55 412.259 130.47 412.259 129.046V117.55H415.259V128.974C415.259 129.582 415.411 130.054 415.715 130.39C416.035 130.726 416.475 130.894 417.035 130.894C417.707 130.894 418.267 130.718 418.715 130.366L419.555 132.502C419.203 132.79 418.771 133.006 418.259 133.15C417.747 133.294 417.219 133.366 416.675 133.366ZM410.147 122.878V120.478H418.691V122.878H410.147ZM434.08 133.366C432.992 133.366 432.032 133.166 431.2 132.766C430.368 132.35 429.72 131.726 429.256 130.894C428.792 130.046 428.56 128.982 428.56 127.702V120.382H431.56V127.294C431.56 128.446 431.816 129.31 432.328 129.886C432.856 130.446 433.6 130.726 434.56 130.726C435.264 130.726 435.872 130.582 436.384 130.294C436.912 130.006 437.32 129.574 437.608 128.998C437.912 128.422 438.064 127.71 438.064 126.862V120.382H441.064V133.198H438.208V129.742L438.712 130.798C438.28 131.63 437.648 132.27 436.816 132.718C435.984 133.15 435.072 133.366 434.08 133.366ZM448.951 133.366C447.879 133.366 446.847 133.23 445.855 132.958C444.879 132.67 444.103 132.326 443.527 131.926L444.679 129.646C445.255 130.014 445.943 130.318 446.743 130.558C447.543 130.798 448.343 130.918 449.143 130.918C450.087 130.918 450.767 130.79 451.183 130.534C451.615 130.278 451.831 129.934 451.831 129.502C451.831 129.15 451.687 128.886 451.399 128.71C451.111 128.518 450.735 128.374 450.271 128.278C449.807 128.182 449.287 128.094 448.711 128.014C448.151 127.934 447.583 127.83 447.007 127.702C446.447 127.558 445.935 127.358 445.471 127.102C445.007 126.83 444.631 126.47 444.343 126.022C444.055 125.574 443.911 124.982 443.911 124.246C443.911 123.43 444.143 122.726 444.607 122.134C445.071 121.526 445.719 121.062 446.551 120.742C447.399 120.406 448.399 120.238 449.551 120.238C450.415 120.238 451.287 120.334 452.167 120.526C453.047 120.718 453.775 120.99 454.351 121.342L453.199 123.622C452.591 123.254 451.975 123.006 451.351 122.878C450.743 122.734 450.135 122.662 449.527 122.662C448.615 122.662 447.935 122.798 447.487 123.07C447.055 123.342 446.839 123.686 446.839 124.102C446.839 124.486 446.983 124.774 447.271 124.966C447.559 125.158 447.935 125.31 448.399 125.422C448.863 125.534 449.375 125.63 449.935 125.71C450.511 125.774 451.079 125.878 451.639 126.022C452.199 126.166 452.711 126.366 453.175 126.622C453.655 126.862 454.039 127.206 454.327 127.654C454.615 128.102 454.759 128.686 454.759 129.406C454.759 130.206 454.519 130.902 454.039 131.494C453.575 132.086 452.911 132.55 452.047 132.886C451.183 133.206 450.151 133.366 448.951 133.366ZM458.303 133.366C457.759 133.366 457.295 133.182 456.911 132.814C456.527 132.43 456.335 131.95 456.335 131.374C456.335 130.766 456.527 130.286 456.911 129.934C457.295 129.566 457.759 129.382 458.303 129.382C458.847 129.382 459.311 129.566 459.695 129.934C460.079 130.286 460.271 130.766 460.271 131.374C460.271 131.95 460.079 132.43 459.695 132.814C459.311 133.182 458.847 133.366 458.303 133.366ZM29.3684 162.198L23.8004 145.398H27.0404L32.0084 160.59H30.4004L35.5604 145.398H38.4404L43.4564 160.59H41.8964L46.9844 145.398H49.9604L44.3924 162.198H41.0804L36.4964 148.494H37.3604L32.7044 162.198H29.3684ZM57.2772 162.366C55.8532 162.366 54.6052 162.086 53.5332 161.526C52.4772 160.95 51.6532 160.166 51.0612 159.174C50.4852 158.182 50.1972 157.054 50.1972 155.79C50.1972 154.51 50.4772 153.382 51.0372 152.406C51.6132 151.414 52.3972 150.638 53.3892 150.078C54.3972 149.518 55.5412 149.238 56.8212 149.238C58.0692 149.238 59.1812 149.51 60.1572 150.054C61.1332 150.598 61.9012 151.366 62.4612 152.358C63.0212 153.35 63.3012 154.518 63.3012 155.862C63.3012 155.99 63.2932 156.134 63.2772 156.294C63.2772 156.454 63.2692 156.606 63.2532 156.75H52.5732V154.758H61.6692L60.4932 155.382C60.5092 154.646 60.3572 153.998 60.0372 153.438C59.7172 152.878 59.2772 152.438 58.7172 152.118C58.1732 151.798 57.5412 151.638 56.8212 151.638C56.0852 151.638 55.4372 151.798 54.8772 152.118C54.3332 152.438 53.9012 152.886 53.5812 153.462C53.2772 154.022 53.1252 154.686 53.1252 155.454V155.934C53.1252 156.702 53.3012 157.382 53.6532 157.974C54.0052 158.566 54.5012 159.022 55.1412 159.342C55.7812 159.662 56.5172 159.822 57.3492 159.822C58.0692 159.822 58.7172 159.71 59.2932 159.486C59.8692 159.262 60.3812 158.91 60.8292 158.43L62.4372 160.278C61.8612 160.95 61.1332 161.47 60.2532 161.838C59.3892 162.19 58.3972 162.366 57.2772 162.366ZM80.7117 162.198V159.606L80.5437 159.054V154.518C80.5437 153.638 80.2797 152.958 79.7517 152.478C79.2237 151.982 78.4237 151.734 77.3517 151.734C76.6317 151.734 75.9197 151.846 75.2157 152.07C74.5277 152.294 73.9437 152.606 73.4637 153.006L72.2877 150.822C72.9757 150.294 73.7917 149.902 74.7357 149.646C75.6957 149.374 76.6877 149.238 77.7117 149.238C79.5677 149.238 80.9997 149.686 82.0077 150.582C83.0317 151.462 83.5437 152.83 83.5437 154.686V162.198H80.7117ZM76.6797 162.366C75.7197 162.366 74.8797 162.206 74.1597 161.886C73.4397 161.55 72.8797 161.094 72.4797 160.518C72.0957 159.926 71.9037 159.262 71.9037 158.526C71.9037 157.806 72.0717 157.158 72.4077 156.582C72.7597 156.006 73.3277 155.55 74.1117 155.214C74.8957 154.878 75.9357 154.71 77.2317 154.71H80.9517V156.702H77.4477C76.4237 156.702 75.7357 156.87 75.3837 157.206C75.0317 157.526 74.8557 157.926 74.8557 158.406C74.8557 158.95 75.0717 159.382 75.5037 159.702C75.9357 160.022 76.5357 160.182 77.3037 160.182C78.0397 160.182 78.6957 160.014 79.2717 159.678C79.8637 159.342 80.2877 158.846 80.5437 158.19L81.0477 159.99C80.7597 160.742 80.2397 161.326 79.4877 161.742C78.7517 162.158 77.8157 162.366 76.6797 162.366ZM87.3938 162.198V149.382H90.2498V152.91L89.9138 151.878C90.2978 151.014 90.8978 150.358 91.7138 149.91C92.5458 149.462 93.5778 149.238 94.8098 149.238V152.094C94.6818 152.062 94.5618 152.046 94.4498 152.046C94.3378 152.03 94.2258 152.022 94.1138 152.022C92.9778 152.022 92.0738 152.358 91.4018 153.03C90.7298 153.686 90.3938 154.67 90.3938 155.982V162.198H87.3938ZM103.262 162.366C101.838 162.366 100.59 162.086 99.5176 161.526C98.4616 160.95 97.6376 160.166 97.0456 159.174C96.4696 158.182 96.1816 157.054 96.1816 155.79C96.1816 154.51 96.4616 153.382 97.0216 152.406C97.5976 151.414 98.3816 150.638 99.3736 150.078C100.382 149.518 101.526 149.238 102.806 149.238C104.054 149.238 105.166 149.51 106.142 150.054C107.118 150.598 107.886 151.366 108.446 152.358C109.006 153.35 109.286 154.518 109.286 155.862C109.286 155.99 109.278 156.134 109.262 156.294C109.262 156.454 109.254 156.606 109.238 156.75H98.5576V154.758H107.654L106.478 155.382C106.494 154.646 106.342 153.998 106.022 153.438C105.702 152.878 105.262 152.438 104.702 152.118C104.158 151.798 103.526 151.638 102.806 151.638C102.07 151.638 101.422 151.798 100.862 152.118C100.318 152.438 99.8856 152.886 99.5656 153.462C99.2616 154.022 99.1096 154.686 99.1096 155.454V155.934C99.1096 156.702 99.2856 157.382 99.6376 157.974C99.9896 158.566 100.486 159.022 101.126 159.342C101.766 159.662 102.502 159.822 103.334 159.822C104.054 159.822 104.702 159.71 105.278 159.486C105.854 159.262 106.366 158.91 106.814 158.43L108.422 160.278C107.846 160.95 107.118 161.47 106.238 161.838C105.374 162.19 104.382 162.366 103.262 162.366ZM121.632 162.198L116.928 149.382H119.76L123.792 160.686H122.448L126.672 149.382H129.192L133.296 160.686H131.976L136.128 149.382H138.792L134.064 162.198H131.184L127.44 152.19H128.328L124.512 162.198H121.632ZM146.263 162.366C144.951 162.366 143.783 162.086 142.759 161.526C141.735 160.95 140.927 160.166 140.335 159.174C139.743 158.182 139.447 157.054 139.447 155.79C139.447 154.51 139.743 153.382 140.335 152.406C140.927 151.414 141.735 150.638 142.759 150.078C143.783 149.518 144.951 149.238 146.263 149.238C147.591 149.238 148.767 149.518 149.791 150.078C150.831 150.638 151.639 151.406 152.215 152.382C152.807 153.358 153.103 154.494 153.103 155.79C153.103 157.054 152.807 158.182 152.215 159.174C151.639 160.166 150.831 160.95 149.791 161.526C148.767 162.086 147.591 162.366 146.263 162.366ZM146.263 159.798C146.999 159.798 147.655 159.638 148.231 159.318C148.807 158.998 149.255 158.534 149.575 157.926C149.911 157.318 150.079 156.606 150.079 155.79C150.079 154.958 149.911 154.246 149.575 153.654C149.255 153.046 148.807 152.582 148.231 152.262C147.655 151.942 147.007 151.782 146.287 151.782C145.551 151.782 144.895 151.942 144.319 152.262C143.759 152.582 143.311 153.046 142.975 153.654C142.639 154.246 142.471 154.958 142.471 155.79C142.471 156.606 142.639 157.318 142.975 157.926C143.311 158.534 143.759 158.998 144.319 159.318C144.895 159.638 145.543 159.798 146.263 159.798ZM155.972 162.198V149.382H158.828V152.91L158.492 151.878C158.876 151.014 159.476 150.358 160.292 149.91C161.124 149.462 162.156 149.238 163.388 149.238V152.094C163.26 152.062 163.14 152.046 163.028 152.046C162.916 152.03 162.804 152.022 162.692 152.022C161.556 152.022 160.652 152.358 159.98 153.03C159.308 153.686 158.972 154.67 158.972 155.982V162.198H155.972ZM168.381 159.342L168.453 155.574L175.149 149.382H178.749L173.061 155.094L171.477 156.414L168.381 159.342ZM165.933 162.198V144.39H168.933V162.198H165.933ZM175.605 162.198L170.925 156.414L172.821 154.014L179.253 162.198H175.605ZM181.191 162.198V149.382H184.191V162.198H181.191ZM182.703 147.27C182.143 147.27 181.679 147.094 181.311 146.742C180.959 146.39 180.783 145.966 180.783 145.47C180.783 144.958 180.959 144.534 181.311 144.198C181.679 143.846 182.143 143.67 182.703 143.67C183.263 143.67 183.719 143.838 184.071 144.174C184.439 144.494 184.623 144.902 184.623 145.398C184.623 145.926 184.447 146.374 184.095 146.742C183.743 147.094 183.279 147.27 182.703 147.27ZM195.4 149.238C196.424 149.238 197.336 149.438 198.136 149.838C198.952 150.238 199.592 150.854 200.056 151.686C200.52 152.502 200.752 153.558 200.752 154.854V162.198H197.752V155.238C197.752 154.102 197.48 153.254 196.936 152.694C196.408 152.134 195.664 151.854 194.704 151.854C194 151.854 193.376 151.998 192.832 152.286C192.288 152.574 191.864 153.006 191.56 153.582C191.272 154.142 191.128 154.854 191.128 155.718V162.198H188.128V149.382H190.984V152.838L190.48 151.782C190.928 150.966 191.576 150.342 192.424 149.91C193.288 149.462 194.28 149.238 195.4 149.238ZM210.389 167.022C209.205 167.022 208.045 166.862 206.909 166.542C205.789 166.238 204.869 165.79 204.149 165.198L205.493 162.942C206.053 163.406 206.757 163.774 207.605 164.046C208.469 164.334 209.341 164.478 210.221 164.478C211.629 164.478 212.661 164.15 213.317 163.494C213.973 162.854 214.301 161.886 214.301 160.59V158.31L214.541 155.406L214.445 152.502V149.382H217.301V160.254C217.301 162.574 216.709 164.278 215.525 165.366C214.341 166.47 212.629 167.022 210.389 167.022ZM210.005 161.622C208.789 161.622 207.685 161.366 206.693 160.854C205.717 160.326 204.941 159.598 204.365 158.67C203.805 157.742 203.525 156.654 203.525 155.406C203.525 154.174 203.805 153.094 204.365 152.166C204.941 151.238 205.717 150.518 206.693 150.006C207.685 149.494 208.789 149.238 210.005 149.238C211.093 149.238 212.069 149.454 212.933 149.886C213.797 150.318 214.485 150.99 214.997 151.902C215.525 152.814 215.789 153.982 215.789 155.406C215.789 156.83 215.525 158.006 214.997 158.934C214.485 159.846 213.797 160.526 212.933 160.974C212.069 161.406 211.093 161.622 210.005 161.622ZM210.461 159.078C211.213 159.078 211.885 158.926 212.477 158.622C213.069 158.302 213.525 157.87 213.845 157.326C214.181 156.766 214.349 156.126 214.349 155.406C214.349 154.686 214.181 154.054 213.845 153.51C213.525 152.95 213.069 152.526 212.477 152.238C211.885 151.934 211.213 151.782 210.461 151.782C209.709 151.782 209.029 151.934 208.421 152.238C207.829 152.526 207.365 152.95 207.029 153.51C206.709 154.054 206.549 154.686 206.549 155.406C206.549 156.126 206.709 156.766 207.029 157.326C207.365 157.87 207.829 158.302 208.421 158.622C209.029 158.926 209.709 159.078 210.461 159.078ZM233.638 162.366C232.326 162.366 231.158 162.086 230.134 161.526C229.11 160.95 228.302 160.166 227.71 159.174C227.118 158.182 226.822 157.054 226.822 155.79C226.822 154.51 227.118 153.382 227.71 152.406C228.302 151.414 229.11 150.638 230.134 150.078C231.158 149.518 232.326 149.238 233.638 149.238C234.966 149.238 236.142 149.518 237.166 150.078C238.206 150.638 239.014 151.406 239.59 152.382C240.182 153.358 240.478 154.494 240.478 155.79C240.478 157.054 240.182 158.182 239.59 159.174C239.014 160.166 238.206 160.95 237.166 161.526C236.142 162.086 234.966 162.366 233.638 162.366ZM233.638 159.798C234.374 159.798 235.03 159.638 235.606 159.318C236.182 158.998 236.63 158.534 236.95 157.926C237.286 157.318 237.454 156.606 237.454 155.79C237.454 154.958 237.286 154.246 236.95 153.654C236.63 153.046 236.182 152.582 235.606 152.262C235.03 151.942 234.382 151.782 233.662 151.782C232.926 151.782 232.27 151.942 231.694 152.262C231.134 152.582 230.686 153.046 230.35 153.654C230.014 154.246 229.846 154.958 229.846 155.79C229.846 156.606 230.014 157.318 230.35 157.926C230.686 158.534 231.134 158.998 231.694 159.318C232.27 159.638 232.918 159.798 233.638 159.798ZM250.619 149.238C251.643 149.238 252.555 149.438 253.355 149.838C254.171 150.238 254.811 150.854 255.275 151.686C255.739 152.502 255.971 153.558 255.971 154.854V162.198H252.971V155.238C252.971 154.102 252.699 153.254 252.155 152.694C251.627 152.134 250.883 151.854 249.923 151.854C249.219 151.854 248.595 151.998 248.051 152.286C247.507 152.574 247.083 153.006 246.779 153.582C246.491 154.142 246.347 154.854 246.347 155.718V162.198H243.347V149.382H246.203V152.838L245.699 151.782C246.147 150.966 246.795 150.342 247.643 149.91C248.507 149.462 249.499 149.238 250.619 149.238ZM274.305 162.198V159.606L274.137 159.054V154.518C274.137 153.638 273.873 152.958 273.345 152.478C272.817 151.982 272.017 151.734 270.945 151.734C270.225 151.734 269.513 151.846 268.809 152.07C268.121 152.294 267.537 152.606 267.057 153.006L265.881 150.822C266.569 150.294 267.385 149.902 268.329 149.646C269.289 149.374 270.281 149.238 271.305 149.238C273.161 149.238 274.593 149.686 275.601 150.582C276.625 151.462 277.137 152.83 277.137 154.686V162.198H274.305ZM270.273 162.366C269.313 162.366 268.473 162.206 267.753 161.886C267.033 161.55 266.473 161.094 266.073 160.518C265.689 159.926 265.497 159.262 265.497 158.526C265.497 157.806 265.665 157.158 266.001 156.582C266.353 156.006 266.921 155.55 267.705 155.214C268.489 154.878 269.529 154.71 270.825 154.71H274.545V156.702H271.041C270.017 156.702 269.329 156.87 268.977 157.206C268.625 157.526 268.449 157.926 268.449 158.406C268.449 158.95 268.665 159.382 269.097 159.702C269.529 160.022 270.129 160.182 270.897 160.182C271.633 160.182 272.289 160.014 272.865 159.678C273.457 159.342 273.881 158.846 274.137 158.19L274.641 159.99C274.353 160.742 273.833 161.326 273.081 161.742C272.345 162.158 271.409 162.366 270.273 162.366ZM291.724 162.39C290.62 162.39 289.556 162.262 288.532 162.006C287.524 161.734 286.724 161.398 286.132 160.998L287.38 158.31C287.972 158.678 288.668 158.982 289.468 159.222C290.284 159.446 291.084 159.558 291.868 159.558C292.732 159.558 293.34 159.454 293.692 159.246C294.06 159.038 294.244 158.75 294.244 158.382C294.244 158.078 294.1 157.854 293.812 157.71C293.54 157.55 293.172 157.43 292.708 157.35C292.244 157.27 291.732 157.19 291.172 157.11C290.628 157.03 290.076 156.926 289.516 156.798C288.956 156.654 288.444 156.446 287.98 156.174C287.516 155.902 287.14 155.534 286.852 155.07C286.58 154.606 286.444 154.006 286.444 153.27C286.444 152.454 286.676 151.734 287.14 151.11C287.62 150.486 288.308 149.998 289.204 149.646C290.1 149.278 291.172 149.094 292.42 149.094C293.3 149.094 294.196 149.19 295.108 149.382C296.02 149.574 296.78 149.854 297.388 150.222L296.14 152.886C295.516 152.518 294.884 152.27 294.244 152.142C293.62 151.998 293.012 151.926 292.42 151.926C291.588 151.926 290.98 152.038 290.596 152.262C290.212 152.486 290.02 152.774 290.02 153.126C290.02 153.446 290.156 153.686 290.428 153.846C290.716 154.006 291.092 154.134 291.556 154.23C292.02 154.326 292.524 154.414 293.068 154.494C293.628 154.558 294.188 154.662 294.748 154.806C295.308 154.95 295.812 155.158 296.26 155.43C296.724 155.686 297.1 156.046 297.388 156.51C297.676 156.958 297.82 157.55 297.82 158.286C297.82 159.086 297.58 159.798 297.1 160.422C296.62 161.03 295.924 161.51 295.012 161.862C294.116 162.214 293.02 162.39 291.724 162.39ZM305.578 162.39C304.506 162.39 303.546 162.182 302.698 161.766C301.866 161.35 301.218 160.718 300.754 159.87C300.29 159.006 300.058 157.91 300.058 156.582V149.286H303.802V156.03C303.802 157.102 304.026 157.894 304.474 158.406C304.938 158.902 305.586 159.15 306.418 159.15C306.994 159.15 307.506 159.03 307.954 158.79C308.402 158.534 308.754 158.15 309.01 157.638C309.266 157.11 309.394 156.454 309.394 155.67V149.286H313.138V162.198H309.586V158.646L310.234 159.678C309.802 160.574 309.162 161.254 308.314 161.718C307.482 162.166 306.57 162.39 305.578 162.39ZM324.239 162.39C323.151 162.39 322.199 162.15 321.383 161.67C320.567 161.19 319.927 160.462 319.463 159.486C319.015 158.494 318.791 157.246 318.791 155.742C318.791 154.222 319.007 152.974 319.439 151.998C319.871 151.022 320.495 150.294 321.311 149.814C322.127 149.334 323.103 149.094 324.239 149.094C325.455 149.094 326.543 149.374 327.503 149.934C328.479 150.478 329.247 151.246 329.807 152.238C330.383 153.23 330.671 154.398 330.671 155.742C330.671 157.102 330.383 158.278 329.807 159.27C329.247 160.262 328.479 161.03 327.503 161.574C326.543 162.118 325.455 162.39 324.239 162.39ZM316.607 166.854V149.286H320.183V151.926L320.111 155.766L320.351 159.582V166.854H316.607ZM323.591 159.318C324.215 159.318 324.767 159.174 325.247 158.886C325.743 158.598 326.135 158.19 326.423 157.662C326.727 157.118 326.879 156.478 326.879 155.742C326.879 154.99 326.727 154.35 326.423 153.822C326.135 153.294 325.743 152.886 325.247 152.598C324.767 152.31 324.215 152.166 323.591 152.166C322.967 152.166 322.407 152.31 321.911 152.598C321.415 152.886 321.023 153.294 320.735 153.822C320.447 154.35 320.303 154.99 320.303 155.742C320.303 156.478 320.447 157.118 320.735 157.662C321.023 158.19 321.415 158.598 321.911 158.886C322.407 159.174 322.967 159.318 323.591 159.318ZM339.585 162.39C338.113 162.39 336.817 162.102 335.697 161.526C334.593 160.95 333.737 160.166 333.129 159.174C332.521 158.166 332.217 157.022 332.217 155.742C332.217 154.446 332.513 153.302 333.105 152.31C333.713 151.302 334.537 150.518 335.577 149.958C336.617 149.382 337.793 149.094 339.105 149.094C340.369 149.094 341.505 149.366 342.513 149.91C343.537 150.438 344.345 151.206 344.937 152.214C345.529 153.206 345.825 154.398 345.825 155.79C345.825 155.934 345.817 156.102 345.801 156.294C345.785 156.47 345.769 156.638 345.753 156.798H335.265V154.614H343.785L342.345 155.262C342.345 154.59 342.209 154.006 341.937 153.51C341.665 153.014 341.289 152.63 340.809 152.358C340.329 152.07 339.769 151.926 339.129 151.926C338.489 151.926 337.921 152.07 337.425 152.358C336.945 152.63 336.569 153.022 336.297 153.534C336.025 154.03 335.889 154.622 335.889 155.31V155.886C335.889 156.59 336.041 157.214 336.345 157.758C336.665 158.286 337.105 158.694 337.665 158.982C338.241 159.254 338.913 159.39 339.681 159.39C340.369 159.39 340.969 159.286 341.481 159.078C342.009 158.87 342.489 158.558 342.921 158.142L344.913 160.302C344.321 160.974 343.577 161.494 342.681 161.862C341.785 162.214 340.753 162.39 339.585 162.39ZM348.318 162.198V149.286H351.894V152.934L351.39 151.878C351.774 150.966 352.39 150.278 353.238 149.814C354.086 149.334 355.118 149.094 356.334 149.094V152.55C356.174 152.534 356.03 152.526 355.902 152.526C355.774 152.51 355.638 152.502 355.494 152.502C354.47 152.502 353.638 152.798 352.998 153.39C352.374 153.966 352.062 154.87 352.062 156.102V162.198H348.318ZM369.795 162.39C368.691 162.39 367.627 162.262 366.603 162.006C365.595 161.734 364.795 161.398 364.203 160.998L365.451 158.31C366.043 158.678 366.739 158.982 367.539 159.222C368.355 159.446 369.155 159.558 369.939 159.558C370.803 159.558 371.411 159.454 371.763 159.246C372.131 159.038 372.315 158.75 372.315 158.382C372.315 158.078 372.171 157.854 371.883 157.71C371.611 157.55 371.243 157.43 370.779 157.35C370.315 157.27 369.803 157.19 369.243 157.11C368.699 157.03 368.147 156.926 367.587 156.798C367.027 156.654 366.515 156.446 366.051 156.174C365.587 155.902 365.211 155.534 364.923 155.07C364.651 154.606 364.515 154.006 364.515 153.27C364.515 152.454 364.747 151.734 365.211 151.11C365.691 150.486 366.379 149.998 367.275 149.646C368.171 149.278 369.243 149.094 370.491 149.094C371.371 149.094 372.267 149.19 373.179 149.382C374.091 149.574 374.851 149.854 375.459 150.222L374.211 152.886C373.587 152.518 372.955 152.27 372.315 152.142C371.691 151.998 371.083 151.926 370.491 151.926C369.659 151.926 369.051 152.038 368.667 152.262C368.283 152.486 368.091 152.774 368.091 153.126C368.091 153.446 368.227 153.686 368.499 153.846C368.787 154.006 369.163 154.134 369.627 154.23C370.091 154.326 370.595 154.414 371.139 154.494C371.699 154.558 372.259 154.662 372.819 154.806C373.379 154.95 373.883 155.158 374.331 155.43C374.795 155.686 375.171 156.046 375.459 156.51C375.747 156.958 375.891 157.55 375.891 158.286C375.891 159.086 375.651 159.798 375.171 160.422C374.691 161.03 373.995 161.51 373.083 161.862C372.187 162.214 371.091 162.39 369.795 162.39ZM384.609 162.39C383.137 162.39 381.841 162.102 380.721 161.526C379.617 160.95 378.761 160.166 378.153 159.174C377.545 158.166 377.241 157.022 377.241 155.742C377.241 154.446 377.537 153.302 378.129 152.31C378.737 151.302 379.561 150.518 380.601 149.958C381.641 149.382 382.817 149.094 384.129 149.094C385.393 149.094 386.529 149.366 387.537 149.91C388.561 150.438 389.369 151.206 389.961 152.214C390.553 153.206 390.849 154.398 390.849 155.79C390.849 155.934 390.841 156.102 390.825 156.294C390.809 156.47 390.793 156.638 390.777 156.798H380.289V154.614H388.809L387.369 155.262C387.369 154.59 387.233 154.006 386.961 153.51C386.689 153.014 386.313 152.63 385.833 152.358C385.353 152.07 384.793 151.926 384.153 151.926C383.513 151.926 382.945 152.07 382.449 152.358C381.969 152.63 381.593 153.022 381.321 153.534C381.049 154.03 380.913 154.622 380.913 155.31V155.886C380.913 156.59 381.065 157.214 381.369 157.758C381.689 158.286 382.129 158.694 382.689 158.982C383.265 159.254 383.937 159.39 384.705 159.39C385.393 159.39 385.993 159.286 386.505 159.078C387.033 158.87 387.513 158.558 387.945 158.142L389.937 160.302C389.345 160.974 388.601 161.494 387.705 161.862C386.809 162.214 385.777 162.39 384.609 162.39ZM399.581 162.39C398.189 162.39 396.949 162.11 395.861 161.55C394.773 160.974 393.917 160.182 393.293 159.174C392.685 158.166 392.381 157.022 392.381 155.742C392.381 154.446 392.685 153.302 393.293 152.31C393.917 151.302 394.773 150.518 395.861 149.958C396.949 149.382 398.189 149.094 399.581 149.094C400.941 149.094 402.125 149.382 403.133 149.958C404.141 150.518 404.885 151.326 405.365 152.382L402.461 153.942C402.125 153.334 401.701 152.886 401.189 152.598C400.693 152.31 400.149 152.166 399.557 152.166C398.917 152.166 398.341 152.31 397.829 152.598C397.317 152.886 396.909 153.294 396.605 153.822C396.317 154.35 396.173 154.99 396.173 155.742C396.173 156.494 396.317 157.134 396.605 157.662C396.909 158.19 397.317 158.598 397.829 158.886C398.341 159.174 398.917 159.318 399.557 159.318C400.149 159.318 400.693 159.182 401.189 158.91C401.701 158.622 402.125 158.166 402.461 157.542L405.365 159.126C404.885 160.166 404.141 160.974 403.133 161.55C402.125 162.11 400.941 162.39 399.581 162.39ZM407.521 162.198V149.286H411.097V152.934L410.593 151.878C410.977 150.966 411.593 150.278 412.441 149.814C413.289 149.334 414.321 149.094 415.537 149.094V152.55C415.377 152.534 415.233 152.526 415.105 152.526C414.977 152.51 414.841 152.502 414.697 152.502C413.673 152.502 412.841 152.798 412.201 153.39C411.577 153.966 411.265 154.87 411.265 156.102V162.198H407.521ZM424.077 162.39C422.605 162.39 421.309 162.102 420.189 161.526C419.085 160.95 418.229 160.166 417.621 159.174C417.013 158.166 416.709 157.022 416.709 155.742C416.709 154.446 417.005 153.302 417.597 152.31C418.205 151.302 419.029 150.518 420.069 149.958C421.109 149.382 422.285 149.094 423.597 149.094C424.861 149.094 425.997 149.366 427.005 149.91C428.029 150.438 428.837 151.206 429.429 152.214C430.021 153.206 430.317 154.398 430.317 155.79C430.317 155.934 430.309 156.102 430.293 156.294C430.277 156.47 430.261 156.638 430.245 156.798H419.757V154.614H428.277L426.837 155.262C426.837 154.59 426.701 154.006 426.429 153.51C426.157 153.014 425.781 152.63 425.301 152.358C424.821 152.07 424.261 151.926 423.621 151.926C422.981 151.926 422.413 152.07 421.917 152.358C421.437 152.63 421.061 153.022 420.789 153.534C420.517 154.03 420.381 154.622 420.381 155.31V155.886C420.381 156.59 420.533 157.214 420.837 157.758C421.157 158.286 421.597 158.694 422.157 158.982C422.733 159.254 423.405 159.39 424.173 159.39C424.861 159.39 425.461 159.286 425.973 159.078C426.501 158.87 426.981 158.558 427.413 158.142L429.405 160.302C428.813 160.974 428.069 161.494 427.173 161.862C426.277 162.214 425.245 162.39 424.077 162.39ZM438.09 162.39C436.57 162.39 435.386 162.006 434.538 161.238C433.69 160.454 433.266 159.294 433.266 157.758V146.43H437.01V157.71C437.01 158.254 437.154 158.678 437.442 158.982C437.73 159.27 438.122 159.414 438.618 159.414C439.21 159.414 439.714 159.254 440.13 158.934L441.138 161.574C440.754 161.846 440.29 162.054 439.746 162.198C439.218 162.326 438.666 162.39 438.09 162.39ZM431.274 152.454V149.574H440.226V152.454H431.274ZM457.217 162.366C456.177 162.366 455.225 162.126 454.361 161.646C453.513 161.166 452.833 160.446 452.321 159.486C451.825 158.51 451.577 157.278 451.577 155.79C451.577 154.286 451.817 153.054 452.297 152.094C452.793 151.134 453.465 150.422 454.313 149.958C455.161 149.478 456.129 149.238 457.217 149.238C458.481 149.238 459.593 149.51 460.553 150.054C461.529 150.598 462.297 151.358 462.857 152.334C463.433 153.31 463.721 154.462 463.721 155.79C463.721 157.118 463.433 158.278 462.857 159.27C462.297 160.246 461.529 161.006 460.553 161.55C459.593 162.094 458.481 162.366 457.217 162.366ZM450.113 166.854V149.382H452.969V152.406L452.873 155.814L453.113 159.222V166.854H450.113ZM456.881 159.798C457.601 159.798 458.241 159.638 458.801 159.318C459.377 158.998 459.833 158.534 460.169 157.926C460.505 157.318 460.673 156.606 460.673 155.79C460.673 154.958 460.505 154.246 460.169 153.654C459.833 153.046 459.377 152.582 458.801 152.262C458.241 151.942 457.601 151.782 456.881 151.782C456.161 151.782 455.513 151.942 454.937 152.262C454.361 152.582 453.905 153.046 453.569 153.654C453.233 154.246 453.065 154.958 453.065 155.79C453.065 156.606 453.233 157.318 453.569 157.926C453.905 158.534 454.361 158.998 454.937 159.318C455.513 159.638 456.161 159.798 456.881 159.798ZM466.566 162.198V149.382H469.422V152.91L469.086 151.878C469.47 151.014 470.07 150.358 470.886 149.91C471.718 149.462 472.75 149.238 473.982 149.238V152.094C473.854 152.062 473.734 152.046 473.622 152.046C473.51 152.03 473.398 152.022 473.286 152.022C472.15 152.022 471.246 152.358 470.574 153.03C469.902 153.686 469.566 154.67 469.566 155.982V162.198H466.566ZM482.169 162.366C480.857 162.366 479.689 162.086 478.665 161.526C477.641 160.95 476.833 160.166 476.241 159.174C475.649 158.182 475.353 157.054 475.353 155.79C475.353 154.51 475.649 153.382 476.241 152.406C476.833 151.414 477.641 150.638 478.665 150.078C479.689 149.518 480.857 149.238 482.169 149.238C483.497 149.238 484.673 149.518 485.697 150.078C486.737 150.638 487.545 151.406 488.121 152.382C488.713 153.358 489.009 154.494 489.009 155.79C489.009 157.054 488.713 158.182 488.121 159.174C487.545 160.166 486.737 160.95 485.697 161.526C484.673 162.086 483.497 162.366 482.169 162.366ZM482.169 159.798C482.905 159.798 483.561 159.638 484.137 159.318C484.713 158.998 485.161 158.534 485.481 157.926C485.817 157.318 485.985 156.606 485.985 155.79C485.985 154.958 485.817 154.246 485.481 153.654C485.161 153.046 484.713 152.582 484.137 152.262C483.561 151.942 482.913 151.782 482.193 151.782C481.457 151.782 480.801 151.942 480.225 152.262C479.665 152.582 479.217 153.046 478.881 153.654C478.545 154.246 478.377 154.958 478.377 155.79C478.377 156.606 478.545 157.318 478.881 157.926C479.217 158.534 479.665 158.998 480.225 159.318C480.801 159.638 481.449 159.798 482.169 159.798ZM490.558 167.022C489.998 167.022 489.47 166.958 488.974 166.83C488.462 166.718 488.03 166.534 487.678 166.278L488.542 164.046C489.006 164.382 489.59 164.55 490.294 164.55C490.838 164.55 491.262 164.374 491.566 164.022C491.87 163.686 492.022 163.182 492.022 162.51V149.382H495.022V162.438C495.022 163.846 494.63 164.958 493.846 165.774C493.078 166.606 491.982 167.022 490.558 167.022ZM493.51 147.27C492.95 147.27 492.486 147.094 492.118 146.742C491.766 146.39 491.59 145.966 491.59 145.47C491.59 144.958 491.766 144.534 492.118 144.198C492.486 143.846 492.95 143.67 493.51 143.67C494.07 143.67 494.526 143.838 494.878 144.174C495.246 144.494 495.43 144.902 495.43 145.398C495.43 145.926 495.254 146.374 494.902 146.742C494.55 147.094 494.086 147.27 493.51 147.27ZM504.98 162.366C503.556 162.366 502.308 162.086 501.236 161.526C500.18 160.95 499.356 160.166 498.764 159.174C498.188 158.182 497.9 157.054 497.9 155.79C497.9 154.51 498.18 153.382 498.74 152.406C499.316 151.414 500.1 150.638 501.092 150.078C502.1 149.518 503.244 149.238 504.524 149.238C505.772 149.238 506.884 149.51 507.86 150.054C508.836 150.598 509.604 151.366 510.164 152.358C510.724 153.35 511.004 154.518 511.004 155.862C511.004 155.99 510.996 156.134 510.98 156.294C510.98 156.454 510.972 156.606 510.956 156.75H500.276V154.758H509.372L508.196 155.382C508.212 154.646 508.06 153.998 507.74 153.438C507.42 152.878 506.98 152.438 506.42 152.118C505.876 151.798 505.244 151.638 504.524 151.638C503.788 151.638 503.14 151.798 502.58 152.118C502.036 152.438 501.604 152.886 501.284 153.462C500.98 154.022 500.828 154.686 500.828 155.454V155.934C500.828 156.702 501.004 157.382 501.356 157.974C501.708 158.566 502.204 159.022 502.844 159.342C503.484 159.662 504.22 159.822 505.052 159.822C505.772 159.822 506.42 159.71 506.996 159.486C507.572 159.262 508.084 158.91 508.532 158.43L510.14 160.278C509.564 160.95 508.836 161.47 507.956 161.838C507.092 162.19 506.1 162.366 504.98 162.366ZM519.766 162.366C518.422 162.366 517.222 162.086 516.166 161.526C515.126 160.95 514.31 160.166 513.718 159.174C513.126 158.182 512.83 157.054 512.83 155.79C512.83 154.51 513.126 153.382 513.718 152.406C514.31 151.414 515.126 150.638 516.166 150.078C517.222 149.518 518.422 149.238 519.766 149.238C521.014 149.238 522.11 149.494 523.054 150.006C524.014 150.502 524.742 151.238 525.238 152.214L522.934 153.558C522.55 152.95 522.078 152.502 521.518 152.214C520.974 151.926 520.382 151.782 519.742 151.782C519.006 151.782 518.342 151.942 517.75 152.262C517.158 152.582 516.694 153.046 516.358 153.654C516.022 154.246 515.854 154.958 515.854 155.79C515.854 156.622 516.022 157.342 516.358 157.95C516.694 158.542 517.158 158.998 517.75 159.318C518.342 159.638 519.006 159.798 519.742 159.798C520.382 159.798 520.974 159.654 521.518 159.366C522.078 159.078 522.55 158.63 522.934 158.022L525.238 159.366C524.742 160.326 524.014 161.07 523.054 161.598C522.11 162.11 521.014 162.366 519.766 162.366ZM532.819 162.366C531.411 162.366 530.323 162.006 529.555 161.286C528.787 160.55 528.403 159.47 528.403 158.046V146.55H531.403V157.974C531.403 158.582 531.555 159.054 531.859 159.39C532.179 159.726 532.619 159.894 533.179 159.894C533.851 159.894 534.411 159.718 534.859 159.366L535.699 161.502C535.347 161.79 534.915 162.006 534.403 162.15C533.891 162.294 533.363 162.366 532.819 162.366ZM526.291 151.878V149.478H534.835V151.878H526.291ZM552.072 149.238C553.096 149.238 554.008 149.438 554.808 149.838C555.624 150.238 556.264 150.854 556.728 151.686C557.192 152.502 557.424 153.558 557.424 154.854V162.198H554.424V155.238C554.424 154.102 554.152 153.254 553.608 152.694C553.08 152.134 552.336 151.854 551.376 151.854C550.672 151.854 550.048 151.998 549.504 152.286C548.96 152.574 548.536 153.006 548.232 153.582C547.944 154.142 547.8 154.854 547.8 155.718V162.198H544.8V144.39H547.8V152.838L547.152 151.782C547.6 150.966 548.248 150.342 549.096 149.91C549.96 149.462 550.952 149.238 552.072 149.238ZM567.277 162.366C565.853 162.366 564.605 162.086 563.533 161.526C562.477 160.95 561.653 160.166 561.061 159.174C560.485 158.182 560.197 157.054 560.197 155.79C560.197 154.51 560.477 153.382 561.037 152.406C561.613 151.414 562.397 150.638 563.389 150.078C564.397 149.518 565.541 149.238 566.821 149.238C568.069 149.238 569.181 149.51 570.157 150.054C571.133 150.598 571.901 151.366 572.461 152.358C573.021 153.35 573.301 154.518 573.301 155.862C573.301 155.99 573.293 156.134 573.277 156.294C573.277 156.454 573.269 156.606 573.253 156.75H562.573V154.758H571.669L570.493 155.382C570.509 154.646 570.357 153.998 570.037 153.438C569.717 152.878 569.277 152.438 568.717 152.118C568.173 151.798 567.541 151.638 566.821 151.638C566.085 151.638 565.437 151.798 564.877 152.118C564.333 152.438 563.901 152.886 563.581 153.462C563.277 154.022 563.125 154.686 563.125 155.454V155.934C563.125 156.702 563.301 157.382 563.653 157.974C564.005 158.566 564.501 159.022 565.141 159.342C565.781 159.662 566.517 159.822 567.349 159.822C568.069 159.822 568.717 159.71 569.293 159.486C569.869 159.262 570.381 158.91 570.829 158.43L572.437 160.278C571.861 160.95 571.133 161.47 570.253 161.838C569.389 162.19 568.397 162.366 567.277 162.366ZM576.183 162.198V149.382H579.039V152.91L578.703 151.878C579.087 151.014 579.687 150.358 580.503 149.91C581.335 149.462 582.367 149.238 583.599 149.238V152.094C583.471 152.062 583.351 152.046 583.239 152.046C583.127 152.03 583.015 152.022 582.903 152.022C581.767 152.022 580.863 152.358 580.191 153.03C579.519 153.686 579.183 154.67 579.183 155.982V162.198H576.183ZM592.051 162.366C590.627 162.366 589.379 162.086 588.307 161.526C587.251 160.95 586.427 160.166 585.835 159.174C585.259 158.182 584.971 157.054 584.971 155.79C584.971 154.51 585.251 153.382 585.811 152.406C586.387 151.414 587.171 150.638 588.163 150.078C589.171 149.518 590.315 149.238 591.595 149.238C592.843 149.238 593.955 149.51 594.931 150.054C595.907 150.598 596.675 151.366 597.235 152.358C597.795 153.35 598.075 154.518 598.075 155.862C598.075 155.99 598.067 156.134 598.051 156.294C598.051 156.454 598.043 156.606 598.027 156.75H587.347V154.758H596.443L595.267 155.382C595.283 154.646 595.131 153.998 594.811 153.438C594.491 152.878 594.051 152.438 593.491 152.118C592.947 151.798 592.315 151.638 591.595 151.638C590.859 151.638 590.211 151.798 589.651 152.118C589.107 152.438 588.675 152.886 588.355 153.462C588.051 154.022 587.899 154.686 587.899 155.454V155.934C587.899 156.702 588.075 157.382 588.427 157.974C588.779 158.566 589.275 159.022 589.915 159.342C590.555 159.662 591.291 159.822 592.123 159.822C592.843 159.822 593.491 159.71 594.067 159.486C594.643 159.262 595.155 158.91 595.603 158.43L597.211 160.278C596.635 160.95 595.907 161.47 595.027 161.838C594.163 162.19 593.171 162.366 592.051 162.366ZM601.916 162.366C601.372 162.366 600.908 162.182 600.524 161.814C600.14 161.43 599.948 160.95 599.948 160.374C599.948 159.766 600.14 159.286 600.524 158.934C600.908 158.566 601.372 158.382 601.916 158.382C602.46 158.382 602.924 158.566 603.308 158.934C603.692 159.286 603.884 159.766 603.884 160.374C603.884 160.95 603.692 161.43 603.308 161.814C602.924 162.182 602.46 162.366 601.916 162.366ZM208.01 191.198V174.398H215.354C217.178 174.398 218.778 174.75 220.154 175.454C221.53 176.158 222.602 177.134 223.37 178.382C224.138 179.63 224.522 181.102 224.522 182.798C224.522 184.478 224.138 185.95 223.37 187.214C222.602 188.462 221.53 189.438 220.154 190.142C218.778 190.846 217.178 191.198 215.354 191.198H208.01ZM211.13 188.558H215.21C216.474 188.558 217.562 188.318 218.474 187.838C219.402 187.358 220.114 186.686 220.61 185.822C221.122 184.958 221.378 183.95 221.378 182.798C221.378 181.63 221.122 180.622 220.61 179.774C220.114 178.91 219.402 178.238 218.474 177.758C217.562 177.278 216.474 177.038 215.21 177.038H211.13V188.558ZM233.31 191.366C231.998 191.366 230.83 191.086 229.806 190.526C228.782 189.95 227.974 189.166 227.382 188.174C226.79 187.182 226.494 186.054 226.494 184.79C226.494 183.51 226.79 182.382 227.382 181.406C227.974 180.414 228.782 179.638 229.806 179.078C230.83 178.518 231.998 178.238 233.31 178.238C234.638 178.238 235.814 178.518 236.838 179.078C237.878 179.638 238.686 180.406 239.262 181.382C239.854 182.358 240.15 183.494 240.15 184.79C240.15 186.054 239.854 187.182 239.262 188.174C238.686 189.166 237.878 189.95 236.838 190.526C235.814 191.086 234.638 191.366 233.31 191.366ZM233.31 188.798C234.046 188.798 234.702 188.638 235.278 188.318C235.854 187.998 236.302 187.534 236.622 186.926C236.958 186.318 237.126 185.606 237.126 184.79C237.126 183.958 236.958 183.246 236.622 182.654C236.302 182.046 235.854 181.582 235.278 181.262C234.702 180.942 234.054 180.782 233.334 180.782C232.598 180.782 231.942 180.942 231.366 181.262C230.806 181.582 230.358 182.046 230.022 182.654C229.686 183.246 229.518 183.958 229.518 184.79C229.518 185.606 229.686 186.318 230.022 186.926C230.358 187.534 230.806 187.998 231.366 188.318C231.942 188.638 232.59 188.798 233.31 188.798ZM250.291 178.238C251.315 178.238 252.227 178.438 253.027 178.838C253.843 179.238 254.483 179.854 254.947 180.686C255.411 181.502 255.643 182.558 255.643 183.854V191.198H252.643V184.238C252.643 183.102 252.371 182.254 251.827 181.694C251.299 181.134 250.555 180.854 249.595 180.854C248.891 180.854 248.267 180.998 247.723 181.286C247.179 181.574 246.755 182.006 246.451 182.582C246.163 183.142 246.019 183.854 246.019 184.718V191.198H243.019V178.382H245.875V181.838L245.371 180.782C245.819 179.966 246.467 179.342 247.315 178.91C248.179 178.462 249.171 178.238 250.291 178.238ZM258.539 180.662L259.931 175.334L260.339 177.134C259.779 177.134 259.307 176.958 258.923 176.606C258.555 176.254 258.371 175.782 258.371 175.19C258.371 174.598 258.555 174.126 258.923 173.774C259.307 173.406 259.771 173.222 260.315 173.222C260.875 173.222 261.339 173.406 261.707 173.774C262.075 174.142 262.259 174.614 262.259 175.19C262.259 175.366 262.243 175.55 262.211 175.742C262.195 175.918 262.147 176.126 262.067 176.366C262.003 176.59 261.891 176.886 261.731 177.254L260.483 180.662H258.539ZM270.038 191.366C268.63 191.366 267.542 191.006 266.774 190.286C266.006 189.55 265.622 188.47 265.622 187.046V175.55H268.622V186.974C268.622 187.582 268.774 188.054 269.078 188.39C269.398 188.726 269.838 188.894 270.398 188.894C271.07 188.894 271.63 188.718 272.078 188.366L272.918 190.502C272.566 190.79 272.134 191.006 271.622 191.15C271.11 191.294 270.582 191.366 270.038 191.366ZM263.51 180.878V178.478H272.054V180.878H263.51ZM286.843 191.366C285.435 191.366 284.347 191.006 283.579 190.286C282.811 189.55 282.427 188.47 282.427 187.046V175.55H285.427V186.974C285.427 187.582 285.579 188.054 285.883 188.39C286.203 188.726 286.643 188.894 287.203 188.894C287.875 188.894 288.435 188.718 288.883 188.366L289.723 190.502C289.371 190.79 288.939 191.006 288.427 191.15C287.915 191.294 287.387 191.366 286.843 191.366ZM280.315 180.878V178.478H288.859V180.878H280.315ZM297.793 191.366C296.369 191.366 295.121 191.086 294.049 190.526C292.993 189.95 292.169 189.166 291.577 188.174C291.001 187.182 290.713 186.054 290.713 184.79C290.713 183.51 290.993 182.382 291.553 181.406C292.129 180.414 292.913 179.638 293.905 179.078C294.913 178.518 296.057 178.238 297.337 178.238C298.585 178.238 299.697 178.51 300.673 179.054C301.649 179.598 302.417 180.366 302.977 181.358C303.537 182.35 303.817 183.518 303.817 184.862C303.817 184.99 303.809 185.134 303.793 185.294C303.793 185.454 303.785 185.606 303.769 185.75H293.089V183.758H302.185L301.009 184.382C301.025 183.646 300.873 182.998 300.553 182.438C300.233 181.878 299.793 181.438 299.233 181.118C298.689 180.798 298.057 180.638 297.337 180.638C296.601 180.638 295.953 180.798 295.393 181.118C294.849 181.438 294.417 181.886 294.097 182.462C293.793 183.022 293.641 183.686 293.641 184.454V184.934C293.641 185.702 293.817 186.382 294.169 186.974C294.521 187.566 295.017 188.022 295.657 188.342C296.297 188.662 297.033 188.822 297.865 188.822C298.585 188.822 299.233 188.71 299.809 188.486C300.385 188.262 300.897 187.91 301.345 187.43L302.953 189.278C302.377 189.95 301.649 190.47 300.769 190.838C299.905 191.19 298.913 191.366 297.793 191.366ZM306.699 191.198V173.39H309.699V191.198H306.699ZM313.636 191.198V173.39H316.636V191.198H313.636ZM335.102 191.198V188.606L334.934 188.054V183.518C334.934 182.638 334.67 181.958 334.142 181.478C333.614 180.982 332.814 180.734 331.742 180.734C331.022 180.734 330.31 180.846 329.606 181.07C328.918 181.294 328.334 181.606 327.854 182.006L326.678 179.822C327.366 179.294 328.182 178.902 329.126 178.646C330.086 178.374 331.078 178.238 332.102 178.238C333.958 178.238 335.39 178.686 336.398 179.582C337.422 180.462 337.934 181.83 337.934 183.686V191.198H335.102ZM331.07 191.366C330.11 191.366 329.27 191.206 328.55 190.886C327.83 190.55 327.27 190.094 326.87 189.518C326.486 188.926 326.294 188.262 326.294 187.526C326.294 186.806 326.462 186.158 326.798 185.582C327.15 185.006 327.718 184.55 328.502 184.214C329.286 183.878 330.326 183.71 331.622 183.71H335.342V185.702H331.838C330.814 185.702 330.126 185.87 329.774 186.206C329.422 186.526 329.246 186.926 329.246 187.406C329.246 187.95 329.462 188.382 329.894 188.702C330.326 189.022 330.926 189.182 331.694 189.182C332.43 189.182 333.086 189.014 333.662 188.678C334.254 188.342 334.678 187.846 334.934 187.19L335.438 188.99C335.15 189.742 334.63 190.326 333.878 190.742C333.142 191.158 332.206 191.366 331.07 191.366ZM349.056 178.238C350.08 178.238 350.992 178.438 351.792 178.838C352.608 179.238 353.248 179.854 353.712 180.686C354.176 181.502 354.408 182.558 354.408 183.854V191.198H351.408V184.238C351.408 183.102 351.136 182.254 350.592 181.694C350.064 181.134 349.32 180.854 348.36 180.854C347.656 180.854 347.032 180.998 346.488 181.286C345.944 181.574 345.52 182.006 345.216 182.582C344.928 183.142 344.784 183.854 344.784 184.718V191.198H341.784V178.382H344.64V181.838L344.136 180.782C344.584 179.966 345.232 179.342 346.08 178.91C346.944 178.462 347.936 178.238 349.056 178.238ZM359.036 196.022C358.412 196.022 357.788 195.918 357.164 195.71C356.54 195.502 356.02 195.214 355.604 194.846L356.804 192.638C357.108 192.91 357.452 193.126 357.836 193.286C358.22 193.446 358.612 193.526 359.012 193.526C359.556 193.526 359.996 193.39 360.332 193.118C360.668 192.846 360.98 192.39 361.268 191.75L362.012 190.07L362.252 189.71L367.1 178.382H369.98L363.98 192.23C363.58 193.19 363.132 193.95 362.636 194.51C362.156 195.07 361.612 195.462 361.004 195.686C360.412 195.91 359.756 196.022 359.036 196.022ZM361.676 191.654L355.892 178.382H359.012L363.716 189.446L361.676 191.654ZM377.263 191.366C375.951 191.366 374.783 191.086 373.759 190.526C372.735 189.95 371.927 189.166 371.335 188.174C370.743 187.182 370.447 186.054 370.447 184.79C370.447 183.51 370.743 182.382 371.335 181.406C371.927 180.414 372.735 179.638 373.759 179.078C374.783 178.518 375.951 178.238 377.263 178.238C378.591 178.238 379.767 178.518 380.791 179.078C381.831 179.638 382.639 180.406 383.215 181.382C383.807 182.358 384.103 183.494 384.103 184.79C384.103 186.054 383.807 187.182 383.215 188.174C382.639 189.166 381.831 189.95 380.791 190.526C379.767 191.086 378.591 191.366 377.263 191.366ZM377.263 188.798C377.999 188.798 378.655 188.638 379.231 188.318C379.807 187.998 380.255 187.534 380.575 186.926C380.911 186.318 381.079 185.606 381.079 184.79C381.079 183.958 380.911 183.246 380.575 182.654C380.255 182.046 379.807 181.582 379.231 181.262C378.655 180.942 378.007 180.782 377.287 180.782C376.551 180.782 375.895 180.942 375.319 181.262C374.759 181.582 374.311 182.046 373.975 182.654C373.639 183.246 373.471 183.958 373.471 184.79C373.471 185.606 373.639 186.318 373.975 186.926C374.311 187.534 374.759 187.998 375.319 188.318C375.895 188.638 376.543 188.798 377.263 188.798ZM394.244 178.238C395.268 178.238 396.18 178.438 396.98 178.838C397.796 179.238 398.436 179.854 398.9 180.686C399.364 181.502 399.596 182.558 399.596 183.854V191.198H396.596V184.238C396.596 183.102 396.324 182.254 395.78 181.694C395.252 181.134 394.508 180.854 393.548 180.854C392.844 180.854 392.22 180.998 391.676 181.286C391.132 181.574 390.708 182.006 390.404 182.582C390.116 183.142 389.972 183.854 389.972 184.718V191.198H386.972V178.382H389.828V181.838L389.324 180.782C389.772 179.966 390.42 179.342 391.268 178.91C392.132 178.462 393.124 178.238 394.244 178.238ZM409.449 191.366C408.025 191.366 406.777 191.086 405.705 190.526C404.649 189.95 403.825 189.166 403.233 188.174C402.657 187.182 402.369 186.054 402.369 184.79C402.369 183.51 402.649 182.382 403.209 181.406C403.785 180.414 404.569 179.638 405.561 179.078C406.569 178.518 407.713 178.238 408.993 178.238C410.241 178.238 411.353 178.51 412.329 179.054C413.305 179.598 414.073 180.366 414.633 181.358C415.193 182.35 415.473 183.518 415.473 184.862C415.473 184.99 415.465 185.134 415.449 185.294C415.449 185.454 415.441 185.606 415.425 185.75H404.745V183.758H413.841L412.665 184.382C412.681 183.646 412.529 182.998 412.209 182.438C411.889 181.878 411.449 181.438 410.889 181.118C410.345 180.798 409.713 180.638 408.993 180.638C408.257 180.638 407.609 180.798 407.049 181.118C406.505 181.438 406.073 181.886 405.753 182.462C405.449 183.022 405.297 183.686 405.297 184.454V184.934C405.297 185.702 405.473 186.382 405.825 186.974C406.177 187.566 406.673 188.022 407.313 188.342C407.953 188.662 408.689 188.822 409.521 188.822C410.241 188.822 410.889 188.71 411.465 188.486C412.041 188.262 412.553 187.91 413.001 187.43L414.609 189.278C414.033 189.95 413.305 190.47 412.425 190.838C411.561 191.19 410.569 191.366 409.449 191.366ZM419.315 191.366C418.771 191.366 418.307 191.182 417.923 190.814C417.539 190.43 417.347 189.95 417.347 189.374C417.347 188.766 417.539 188.286 417.923 187.934C418.307 187.566 418.771 187.382 419.315 187.382C419.859 187.382 420.323 187.566 420.707 187.934C421.091 188.286 421.283 188.766 421.283 189.374C421.283 189.95 421.091 190.43 420.707 190.814C420.323 191.182 419.859 191.366 419.315 191.366Z" fill="black"/>
</svg>
