<svg width="718" height="542" viewBox="0 0 718 542" fill="none" xmlns="http://www.w3.org/2000/svg">
<path d="M30.9264 52.4927L40.8144 30.0927H47.0544L56.9744 52.4927H50.3824L42.6384 33.1967H45.1344L37.3904 52.4927H30.9264ZM36.3344 48.1407L37.9664 43.4687H48.9104L50.5424 48.1407H36.3344ZM58.4826 52.4927V35.1487H64.2746V40.2047L63.4106 38.7647C63.9226 37.4633 64.7546 36.4927 65.9066 35.8527C67.0586 35.1913 68.4559 34.8607 70.0986 34.8607V40.3327C69.8213 40.29 69.5759 40.2687 69.3626 40.2687C69.1706 40.2473 68.9573 40.2367 68.7226 40.2367C67.4853 40.2367 66.4826 40.578 65.7146 41.2607C64.9466 41.922 64.5626 43.01 64.5626 44.5247V52.4927H58.4826ZM81.5394 52.7807C79.4914 52.7807 77.6994 52.3967 76.1634 51.6287C74.6487 50.8393 73.4647 49.7727 72.6114 48.4287C71.7794 47.0633 71.3634 45.5167 71.3634 43.7887C71.3634 42.0607 71.7687 40.5247 72.5794 39.1807C73.4114 37.8153 74.5527 36.7593 76.0034 36.0127C77.454 35.2447 79.086 34.8607 80.8994 34.8607C82.606 34.8607 84.1634 35.2127 85.5714 35.9167C86.9794 36.5993 88.0994 37.6127 88.9314 38.9567C89.7634 40.3007 90.1794 41.9327 90.1794 43.8527C90.1794 44.066 90.1687 44.3113 90.1474 44.5887C90.126 44.866 90.1047 45.122 90.0834 45.3567H76.3554V42.1567H86.8514L84.5474 43.0527C84.5687 42.2633 84.4194 41.5807 84.0994 41.0047C83.8007 40.4287 83.374 39.9807 82.8194 39.6607C82.286 39.3407 81.6567 39.1807 80.9314 39.1807C80.206 39.1807 79.566 39.3407 79.0114 39.6607C78.478 39.9807 78.062 40.4393 77.7634 41.0367C77.4647 41.6127 77.3154 42.2953 77.3154 43.0847V44.0127C77.3154 44.866 77.486 45.602 77.8274 46.2207C78.19 46.8393 78.702 47.3193 79.3634 47.6607C80.0247 47.9807 80.814 48.1407 81.7314 48.1407C82.5847 48.1407 83.31 48.0233 83.9074 47.7887C84.526 47.5327 85.134 47.1487 85.7314 46.6367L88.9314 49.9647C88.0994 50.882 87.0754 51.586 85.8594 52.0767C84.6434 52.546 83.2034 52.7807 81.5394 52.7807ZM103.106 52.4927V49.2607L102.69 48.4607V42.5087C102.69 41.5487 102.391 40.8127 101.794 40.3007C101.218 39.7673 100.29 39.5007 99.0099 39.5007C98.1779 39.5007 97.3352 39.6393 96.4819 39.9167C95.6285 40.1727 94.9032 40.5353 94.3059 41.0047L92.2579 36.8767C93.2392 36.2367 94.4125 35.746 95.7779 35.4047C97.1645 35.042 98.5405 34.8607 99.9059 34.8607C102.722 34.8607 104.898 35.5113 106.434 36.8127C107.991 38.0927 108.77 40.1087 108.77 42.8607V52.4927H103.106ZM97.9859 52.7807C96.5992 52.7807 95.4259 52.546 94.4659 52.0767C93.5059 51.6073 92.7699 50.9673 92.2579 50.1567C91.7672 49.346 91.5219 48.4393 91.5219 47.4367C91.5219 46.37 91.7885 45.4527 92.3219 44.6847C92.8765 43.8953 93.7192 43.298 94.8499 42.8927C95.9805 42.466 97.4419 42.2527 99.2339 42.2527H103.33V45.4207H100.066C99.0845 45.4207 98.3912 45.5807 97.9859 45.9007C97.6019 46.2207 97.4099 46.6473 97.4099 47.1807C97.4099 47.714 97.6125 48.1407 98.0179 48.4607C98.4232 48.7807 98.9779 48.9407 99.6819 48.9407C100.343 48.9407 100.941 48.7807 101.474 48.4607C102.029 48.1193 102.434 47.6073 102.69 46.9247L103.522 49.1647C103.202 50.3593 102.573 51.266 101.634 51.8847C100.717 52.482 99.5005 52.7807 97.9859 52.7807ZM121.824 39.5647V34.9247H137.6V39.5647H121.824ZM121.824 47.6607V43.0207H137.6V47.6607H121.824ZM197.583 52.4927V30.0927H209.039C211.983 30.0927 214.18 30.6367 215.631 31.7247C217.082 32.7913 217.807 34.1993 217.807 35.9487C217.807 37.1007 217.498 38.114 216.879 38.9887C216.282 39.842 215.428 40.5247 214.319 41.0367C213.231 41.5273 211.93 41.7727 210.415 41.7727L211.055 40.2367C212.634 40.2367 214.01 40.482 215.183 40.9727C216.356 41.442 217.263 42.1353 217.903 43.0527C218.564 43.9487 218.895 45.0473 218.895 46.3487C218.895 48.29 218.106 49.8047 216.527 50.8927C214.97 51.9593 212.687 52.4927 209.679 52.4927H197.583ZM203.855 47.9167H209.167C210.255 47.9167 211.076 47.7353 211.631 47.3727C212.207 46.9887 212.495 46.4127 212.495 45.6447C212.495 44.8767 212.207 44.3113 211.631 43.9487C211.076 43.5647 210.255 43.3727 209.167 43.3727H203.407V38.9887H208.207C209.274 38.9887 210.074 38.8073 210.607 38.4447C211.14 38.082 211.407 37.538 211.407 36.8127C211.407 36.0873 211.14 35.554 210.607 35.2127C210.074 34.85 209.274 34.6687 208.207 34.6687H203.855V47.9167ZM232.481 52.4927V49.2607L232.065 48.4607V42.5087C232.065 41.5487 231.766 40.8127 231.169 40.3007C230.593 39.7673 229.665 39.5007 228.385 39.5007C227.553 39.5007 226.71 39.6393 225.857 39.9167C225.004 40.1727 224.278 40.5353 223.681 41.0047L221.633 36.8767C222.614 36.2367 223.788 35.746 225.153 35.4047C226.54 35.042 227.916 34.8607 229.281 34.8607C232.097 34.8607 234.273 35.5113 235.809 36.8127C237.366 38.0927 238.145 40.1087 238.145 42.8607V52.4927H232.481ZM227.361 52.7807C225.974 52.7807 224.801 52.546 223.841 52.0767C222.881 51.6073 222.145 50.9673 221.633 50.1567C221.142 49.346 220.897 48.4393 220.897 47.4367C220.897 46.37 221.164 45.4527 221.697 44.6847C222.252 43.8953 223.094 43.298 224.225 42.8927C225.356 42.466 226.817 42.2527 228.609 42.2527H232.705V45.4207H229.441C228.46 45.4207 227.766 45.5807 227.361 45.9007C226.977 46.2207 226.785 46.6473 226.785 47.1807C226.785 47.714 226.988 48.1407 227.393 48.4607C227.798 48.7807 228.353 48.9407 229.057 48.9407C229.718 48.9407 230.316 48.7807 230.849 48.4607C231.404 48.1193 231.809 47.6073 232.065 46.9247L232.897 49.1647C232.577 50.3593 231.948 51.266 231.009 51.8847C230.092 52.482 228.876 52.7807 227.361 52.7807ZM248.287 52.7807C246.815 52.7807 245.375 52.61 243.967 52.2687C242.58 51.9273 241.46 51.5007 240.607 50.9887L242.431 46.8287C243.241 47.3193 244.191 47.714 245.279 48.0127C246.367 48.29 247.433 48.4287 248.479 48.4287C249.503 48.4287 250.207 48.322 250.591 48.1087C250.996 47.8953 251.199 47.6073 251.199 47.2447C251.199 46.9033 251.007 46.658 250.623 46.5087C250.26 46.338 249.769 46.21 249.151 46.1247C248.553 46.0393 247.892 45.9433 247.167 45.8367C246.441 45.73 245.705 45.5913 244.959 45.4207C244.233 45.2287 243.561 44.9513 242.943 44.5887C242.345 44.2047 241.865 43.6927 241.503 43.0527C241.14 42.4127 240.959 41.602 240.959 40.6207C240.959 39.5113 241.279 38.53 241.919 37.6767C242.58 36.802 243.54 36.1193 244.799 35.6287C246.057 35.1167 247.593 34.8607 249.407 34.8607C250.623 34.8607 251.849 34.9887 253.087 35.2447C254.345 35.4793 255.401 35.842 256.255 36.3327L254.431 40.4607C253.577 39.97 252.724 39.6393 251.871 39.4687C251.017 39.2767 250.207 39.1807 249.439 39.1807C248.415 39.1807 247.689 39.298 247.263 39.5327C246.857 39.7673 246.655 40.0553 246.655 40.3967C246.655 40.738 246.836 41.0047 247.199 41.1967C247.561 41.3673 248.041 41.506 248.639 41.6127C249.257 41.698 249.929 41.794 250.655 41.9007C251.38 41.986 252.105 42.1247 252.831 42.3167C253.577 42.5087 254.249 42.7967 254.847 43.1807C255.465 43.5433 255.956 44.0447 256.319 44.6847C256.681 45.3033 256.863 46.1033 256.863 47.0847C256.863 48.1513 256.532 49.1113 255.871 49.9647C255.231 50.818 254.271 51.5007 252.991 52.0127C251.732 52.5247 250.164 52.7807 248.287 52.7807ZM268.571 52.7807C266.523 52.7807 264.731 52.3967 263.195 51.6287C261.68 50.8393 260.496 49.7727 259.643 48.4287C258.811 47.0633 258.395 45.5167 258.395 43.7887C258.395 42.0607 258.8 40.5247 259.611 39.1807C260.443 37.8153 261.584 36.7593 263.035 36.0127C264.485 35.2447 266.117 34.8607 267.931 34.8607C269.637 34.8607 271.195 35.2127 272.603 35.9167C274.011 36.5993 275.131 37.6127 275.963 38.9567C276.795 40.3007 277.211 41.9327 277.211 43.8527C277.211 44.066 277.2 44.3113 277.179 44.5887C277.157 44.866 277.136 45.122 277.115 45.3567H263.387V42.1567H273.883L271.579 43.0527C271.6 42.2633 271.451 41.5807 271.131 41.0047C270.832 40.4287 270.405 39.9807 269.851 39.6607C269.317 39.3407 268.688 39.1807 267.963 39.1807C267.237 39.1807 266.597 39.3407 266.043 39.6607C265.509 39.9807 265.093 40.4393 264.795 41.0367C264.496 41.6127 264.347 42.2953 264.347 43.0847V44.0127C264.347 44.866 264.517 45.602 264.859 46.2207C265.221 46.8393 265.733 47.3193 266.395 47.6607C267.056 47.9807 267.845 48.1407 268.763 48.1407C269.616 48.1407 270.341 48.0233 270.939 47.7887C271.557 47.5327 272.165 47.1487 272.763 46.6367L275.963 49.9647C275.131 50.882 274.107 51.586 272.891 52.0767C271.675 52.546 270.235 52.7807 268.571 52.7807ZM287.31 52.4927L295.278 42.0287L295.15 45.4847L287.502 35.1487H294.35L298.638 41.2607L296.078 41.3887L300.622 35.1487H307.054L299.406 45.2607V41.9327L307.278 52.4927H300.334L295.854 45.9647L298.414 46.3167L293.902 52.4927H287.31ZM318.739 52.4927V30.0927H328.979C331.027 30.0927 332.787 30.4233 334.259 31.0847C335.753 31.746 336.905 32.706 337.715 33.9647C338.526 35.202 338.931 36.674 338.931 38.3807C338.931 40.066 338.526 41.5273 337.715 42.7647C336.905 44.002 335.753 44.962 334.259 45.6447C332.787 46.306 331.027 46.6367 328.979 46.6367H322.259L325.075 43.8847V52.4927H318.739ZM325.075 44.5567L322.259 41.6447H328.595C329.918 41.6447 330.899 41.3567 331.539 40.7807C332.201 40.2047 332.531 39.4047 332.531 38.3807C332.531 37.3353 332.201 36.5247 331.539 35.9487C330.899 35.3727 329.918 35.0847 328.595 35.0847H322.259L325.075 32.1727V44.5567ZM350.789 52.7807C348.741 52.7807 346.949 52.3967 345.413 51.6287C343.899 50.8393 342.715 49.7727 341.861 48.4287C341.029 47.0633 340.613 45.5167 340.613 43.7887C340.613 42.0607 341.019 40.5247 341.829 39.1807C342.661 37.8153 343.803 36.7593 345.253 36.0127C346.704 35.2447 348.336 34.8607 350.149 34.8607C351.856 34.8607 353.413 35.2127 354.821 35.9167C356.229 36.5993 357.349 37.6127 358.181 38.9567C359.013 40.3007 359.429 41.9327 359.429 43.8527C359.429 44.066 359.419 44.3113 359.397 44.5887C359.376 44.866 359.355 45.122 359.333 45.3567H345.605V42.1567H356.101L353.797 43.0527C353.819 42.2633 353.669 41.5807 353.349 41.0047C353.051 40.4287 352.624 39.9807 352.069 39.6607C351.536 39.3407 350.907 39.1807 350.181 39.1807C349.456 39.1807 348.816 39.3407 348.261 39.6607C347.728 39.9807 347.312 40.4393 347.013 41.0367C346.715 41.6127 346.565 42.2953 346.565 43.0847V44.0127C346.565 44.866 346.736 45.602 347.077 46.2207C347.44 46.8393 347.952 47.3193 348.613 47.6607C349.275 47.9807 350.064 48.1407 350.981 48.1407C351.835 48.1407 352.56 48.0233 353.157 47.7887C353.776 47.5327 354.384 47.1487 354.981 46.6367L358.181 49.9647C357.349 50.882 356.325 51.586 355.109 52.0767C353.893 52.546 352.453 52.7807 350.789 52.7807ZM362.233 52.4927V35.1487H368.025V40.2047L367.161 38.7647C367.673 37.4633 368.505 36.4927 369.657 35.8527C370.809 35.1913 372.206 34.8607 373.849 34.8607V40.3327C373.571 40.29 373.326 40.2687 373.113 40.2687C372.921 40.2473 372.707 40.2367 372.473 40.2367C371.235 40.2367 370.233 40.578 369.465 41.2607C368.697 41.922 368.313 43.01 368.313 44.5247V52.4927H362.233ZM387.27 52.7807C385.798 52.7807 384.539 52.4607 383.494 51.8207C382.448 51.1593 381.648 50.178 381.094 48.8767C380.56 47.554 380.294 45.8687 380.294 43.8207C380.294 41.7513 380.55 40.066 381.062 38.7647C381.574 37.442 382.342 36.4607 383.366 35.8207C384.411 35.1807 385.712 34.8607 387.27 34.8607C388.848 34.8607 390.278 35.234 391.558 35.9807C392.859 36.706 393.883 37.7407 394.63 39.0847C395.398 40.4073 395.782 41.986 395.782 43.8207C395.782 45.6553 395.398 47.2447 394.63 48.5887C393.883 49.9327 392.859 50.9673 391.558 51.6927C390.278 52.418 388.848 52.7807 387.27 52.7807ZM376.358 58.7007V35.1487H382.15V38.0927L382.118 43.8207L382.438 49.5807V58.7007H376.358ZM385.99 47.9487C386.672 47.9487 387.28 47.7887 387.814 47.4687C388.368 47.1487 388.806 46.6793 389.126 46.0607C389.467 45.442 389.638 44.6953 389.638 43.8207C389.638 42.946 389.467 42.1993 389.126 41.5807C388.806 40.962 388.368 40.4927 387.814 40.1727C387.28 39.8527 386.672 39.6927 385.99 39.6927C385.307 39.6927 384.688 39.8527 384.134 40.1727C383.6 40.4927 383.163 40.962 382.822 41.5807C382.502 42.1993 382.342 42.946 382.342 43.8207C382.342 44.6953 382.502 45.442 382.822 46.0607C383.163 46.6793 383.6 47.1487 384.134 47.4687C384.688 47.7887 385.307 47.9487 385.99 47.9487ZM407.696 52.7807C405.648 52.7807 403.856 52.3967 402.32 51.6287C400.805 50.8393 399.621 49.7727 398.768 48.4287C397.936 47.0633 397.52 45.5167 397.52 43.7887C397.52 42.0607 397.925 40.5247 398.736 39.1807C399.568 37.8153 400.709 36.7593 402.16 36.0127C403.61 35.2447 405.242 34.8607 407.056 34.8607C408.762 34.8607 410.32 35.2127 411.728 35.9167C413.136 36.5993 414.256 37.6127 415.088 38.9567C415.92 40.3007 416.336 41.9327 416.336 43.8527C416.336 44.066 416.325 44.3113 416.304 44.5887C416.282 44.866 416.261 45.122 416.24 45.3567H402.512V42.1567H413.008L410.704 43.0527C410.725 42.2633 410.576 41.5807 410.256 41.0047C409.957 40.4287 409.53 39.9807 408.976 39.6607C408.442 39.3407 407.813 39.1807 407.088 39.1807C406.362 39.1807 405.722 39.3407 405.168 39.6607C404.634 39.9807 404.218 40.4393 403.92 41.0367C403.621 41.6127 403.472 42.2953 403.472 43.0847V44.0127C403.472 44.866 403.642 45.602 403.984 46.2207C404.346 46.8393 404.858 47.3193 405.52 47.6607C406.181 47.9807 406.97 48.1407 407.888 48.1407C408.741 48.1407 409.466 48.0233 410.064 47.7887C410.682 47.5327 411.29 47.1487 411.888 46.6367L415.088 49.9647C414.256 50.882 413.232 51.586 412.016 52.0767C410.8 52.546 409.36 52.7807 407.696 52.7807ZM430.435 34.8607C431.779 34.8607 432.995 35.138 434.083 35.6927C435.171 36.226 436.024 37.058 436.643 38.1887C437.283 39.3193 437.603 40.7807 437.603 42.5727V52.4927H431.523V43.5647C431.523 42.3273 431.267 41.4313 430.755 40.8767C430.264 40.3007 429.571 40.0127 428.675 40.0127C428.035 40.0127 427.448 40.162 426.915 40.4607C426.382 40.738 425.966 41.1753 425.667 41.7727C425.368 42.37 425.219 43.1487 425.219 44.1087V52.4927H419.139V35.1487H424.931V40.0767L423.811 38.6367C424.472 37.378 425.379 36.4393 426.531 35.8207C427.683 35.1807 428.984 34.8607 430.435 34.8607ZM449.191 52.7807C447.612 52.7807 446.172 52.418 444.871 51.6927C443.591 50.946 442.567 49.9113 441.799 48.5887C441.031 47.2447 440.647 45.6447 440.647 43.7887C440.647 41.954 441.031 40.3753 441.799 39.0527C442.567 37.7087 443.591 36.674 444.871 35.9487C446.172 35.2233 447.612 34.8607 449.191 34.8607C450.684 34.8607 451.943 35.1807 452.967 35.8207C454.012 36.4607 454.802 37.442 455.335 38.7647C455.868 40.0873 456.135 41.762 456.135 43.7887C456.135 45.858 455.879 47.554 455.367 48.8767C454.855 50.1993 454.087 51.1807 453.063 51.8207C452.039 52.4607 450.748 52.7807 449.191 52.7807ZM450.471 47.9487C451.154 47.9487 451.762 47.7887 452.295 47.4687C452.85 47.1487 453.287 46.6793 453.607 46.0607C453.927 45.4207 454.087 44.6633 454.087 43.7887C454.087 42.914 453.927 42.178 453.607 41.5807C453.287 40.962 452.85 40.4927 452.295 40.1727C451.762 39.8527 451.154 39.6927 450.471 39.6927C449.767 39.6927 449.138 39.8527 448.583 40.1727C448.05 40.4927 447.623 40.962 447.303 41.5807C446.983 42.178 446.823 42.914 446.823 43.7887C446.823 44.6633 446.983 45.4207 447.303 46.0607C447.623 46.6793 448.05 47.1487 448.583 47.4687C449.138 47.7887 449.767 47.9487 450.471 47.9487ZM454.279 52.4927V49.5167L454.311 43.7887L453.991 38.0607V28.7487H460.071V52.4927H454.279ZM463.983 52.4927V35.1487H470.063V52.4927H463.983ZM467.023 33.2287C465.913 33.2287 465.017 32.9193 464.335 32.3007C463.652 31.682 463.311 30.914 463.311 29.9967C463.311 29.0793 463.652 28.3113 464.335 27.6927C465.017 27.074 465.913 26.7647 467.023 26.7647C468.132 26.7647 469.028 27.0633 469.711 27.6607C470.393 28.2367 470.735 28.9833 470.735 29.9007C470.735 30.8607 470.393 31.6607 469.711 32.3007C469.049 32.9193 468.153 33.2287 467.023 33.2287ZM482.878 52.7807C480.958 52.7807 479.241 52.3967 477.726 51.6287C476.233 50.8607 475.059 49.8047 474.206 48.4607C473.353 47.0953 472.926 45.538 472.926 43.7887C472.926 42.0393 473.353 40.4927 474.206 39.1487C475.059 37.8047 476.233 36.7593 477.726 36.0127C479.241 35.2447 480.958 34.8607 482.878 34.8607C484.841 34.8607 486.537 35.2767 487.966 36.1087C489.395 36.9407 490.409 38.114 491.006 39.6287L486.302 42.0287C485.897 41.218 485.395 40.6313 484.798 40.2687C484.201 39.8847 483.55 39.6927 482.846 39.6927C482.142 39.6927 481.502 39.8527 480.926 40.1727C480.35 40.4927 479.891 40.962 479.55 41.5807C479.23 42.178 479.07 42.914 479.07 43.7887C479.07 44.6847 479.23 45.442 479.55 46.0607C479.891 46.6793 480.35 47.1487 480.926 47.4687C481.502 47.7887 482.142 47.9487 482.846 47.9487C483.55 47.9487 484.201 47.7673 484.798 47.4047C485.395 47.0207 485.897 46.4233 486.302 45.6127L491.006 48.0127C490.409 49.5273 489.395 50.7007 487.966 51.5327C486.537 52.3647 484.841 52.7807 482.878 52.7807ZM500.591 52.7807C499.183 52.7807 497.914 52.5033 496.783 51.9487C495.674 51.394 494.799 50.53 494.159 49.3567C493.54 48.162 493.231 46.658 493.231 44.8447V35.1487H499.311V43.8527C499.311 45.1967 499.556 46.1567 500.047 46.7327C500.559 47.3087 501.274 47.5967 502.191 47.5967C502.788 47.5967 503.332 47.458 503.823 47.1807C504.314 46.9033 504.708 46.466 505.007 45.8687C505.306 45.25 505.455 44.4607 505.455 43.5007V35.1487H511.535V52.4927H505.743V47.5967L506.863 48.9727C506.266 50.2527 505.402 51.2127 504.271 51.8527C503.14 52.4713 501.914 52.7807 500.591 52.7807ZM515.451 52.4927V28.7487H521.531V52.4927H515.451ZM536.075 52.4927V49.2607L535.659 48.4607V42.5087C535.659 41.5487 535.36 40.8127 534.763 40.3007C534.187 39.7673 533.259 39.5007 531.979 39.5007C531.147 39.5007 530.304 39.6393 529.451 39.9167C528.597 40.1727 527.872 40.5353 527.275 41.0047L525.227 36.8767C526.208 36.2367 527.381 35.746 528.747 35.4047C530.133 35.042 531.509 34.8607 532.875 34.8607C535.691 34.8607 537.867 35.5113 539.403 36.8127C540.96 38.0927 541.739 40.1087 541.739 42.8607V52.4927H536.075ZM530.955 52.7807C529.568 52.7807 528.395 52.546 527.435 52.0767C526.475 51.6073 525.739 50.9673 525.227 50.1567C524.736 49.346 524.491 48.4393 524.491 47.4367C524.491 46.37 524.757 45.4527 525.291 44.6847C525.845 43.8953 526.688 43.298 527.819 42.8927C528.949 42.466 530.411 42.2527 532.203 42.2527H536.299V45.4207H533.035C532.053 45.4207 531.36 45.5807 530.955 45.9007C530.571 46.2207 530.379 46.6473 530.379 47.1807C530.379 47.714 530.581 48.1407 530.987 48.4607C531.392 48.7807 531.947 48.9407 532.651 48.9407C533.312 48.9407 533.909 48.7807 534.443 48.4607C534.997 48.1193 535.403 47.6073 535.659 46.9247L536.491 49.1647C536.171 50.3593 535.541 51.266 534.603 51.8847C533.685 52.482 532.469 52.7807 530.955 52.7807ZM545.576 52.4927V35.1487H551.368V40.2047L550.504 38.7647C551.016 37.4633 551.848 36.4927 553 35.8527C554.152 35.1913 555.55 34.8607 557.192 34.8607V40.3327C556.915 40.29 556.67 40.2687 556.456 40.2687C556.264 40.2473 556.051 40.2367 555.816 40.2367C554.579 40.2367 553.576 40.578 552.808 41.2607C552.04 41.922 551.656 43.01 551.656 44.5247V52.4927H545.576ZM584.34 30.0927H590.676V52.4927H584.34V30.0927ZM575.7 52.4927H569.364V30.0927H575.7V52.4927ZM584.788 43.7567H575.252V38.5087H584.788V43.7567ZM603.946 52.7807C601.898 52.7807 600.106 52.3967 598.57 51.6287C597.055 50.8393 595.871 49.7727 595.018 48.4287C594.186 47.0633 593.77 45.5167 593.77 43.7887C593.77 42.0607 594.175 40.5247 594.986 39.1807C595.818 37.8153 596.959 36.7593 598.41 36.0127C599.86 35.2447 601.492 34.8607 603.306 34.8607C605.012 34.8607 606.57 35.2127 607.978 35.9167C609.386 36.5993 610.506 37.6127 611.338 38.9567C612.17 40.3007 612.586 41.9327 612.586 43.8527C612.586 44.066 612.575 44.3113 612.554 44.5887C612.532 44.866 612.511 45.122 612.49 45.3567H598.762V42.1567H609.258L606.954 43.0527C606.975 42.2633 606.826 41.5807 606.506 41.0047C606.207 40.4287 605.78 39.9807 605.226 39.6607C604.692 39.3407 604.063 39.1807 603.338 39.1807C602.612 39.1807 601.972 39.3407 601.418 39.6607C600.884 39.9807 600.468 40.4393 600.17 41.0367C599.871 41.6127 599.722 42.2953 599.722 43.0847V44.0127C599.722 44.866 599.892 45.602 600.234 46.2207C600.596 46.8393 601.108 47.3193 601.77 47.6607C602.431 47.9807 603.22 48.1407 604.138 48.1407C604.991 48.1407 605.716 48.0233 606.314 47.7887C606.932 47.5327 607.54 47.1487 608.138 46.6367L611.338 49.9647C610.506 50.882 609.482 51.586 608.266 52.0767C607.05 52.546 605.61 52.7807 603.946 52.7807ZM615.389 52.4927V35.1487H621.469V52.4927H615.389ZM618.429 33.2287C617.32 33.2287 616.424 32.9193 615.741 32.3007C615.058 31.682 614.717 30.914 614.717 29.9967C614.717 29.0793 615.058 28.3113 615.741 27.6927C616.424 27.074 617.32 26.7647 618.429 26.7647C619.538 26.7647 620.434 27.0633 621.117 27.6607C621.8 28.2367 622.141 28.9833 622.141 29.9007C622.141 30.8607 621.8 31.6607 621.117 32.3007C620.456 32.9193 619.56 33.2287 618.429 33.2287ZM633.9 58.9887C632.236 58.9887 630.647 58.7967 629.132 58.4127C627.639 58.0287 626.359 57.4633 625.292 56.7167L627.5 52.4607C628.225 53.0367 629.121 53.4847 630.188 53.8047C631.276 54.146 632.332 54.3167 633.356 54.3167C634.999 54.3167 636.183 53.954 636.908 53.2287C637.633 52.5247 637.996 51.49 637.996 50.1247V48.0767L638.316 43.2127L638.284 38.3167V35.1487H644.076V49.3247C644.076 52.61 643.191 55.042 641.42 56.6207C639.649 58.1993 637.143 58.9887 633.9 58.9887ZM632.844 51.5967C631.308 51.5967 629.889 51.2553 628.588 50.5727C627.308 49.8687 626.273 48.898 625.484 47.6607C624.716 46.402 624.332 44.9193 624.332 43.2127C624.332 41.506 624.716 40.034 625.484 38.7967C626.273 37.538 627.308 36.5673 628.588 35.8847C629.889 35.202 631.308 34.8607 632.844 34.8607C634.316 34.8607 635.575 35.1593 636.62 35.7567C637.665 36.3327 638.455 37.2393 638.988 38.4767C639.543 39.714 639.82 41.2927 639.82 43.2127C639.82 45.1327 639.543 46.7113 638.988 47.9487C638.455 49.186 637.665 50.1033 636.62 50.7007C635.575 51.298 634.316 51.5967 632.844 51.5967ZM634.284 46.7647C635.009 46.7647 635.649 46.6153 636.204 46.3167C636.78 46.018 637.228 45.602 637.548 45.0687C637.889 44.5353 638.06 43.9167 638.06 43.2127C638.06 42.5087 637.889 41.89 637.548 41.3567C637.228 40.8233 636.78 40.418 636.204 40.1407C635.649 39.842 635.009 39.6927 634.284 39.6927C633.559 39.6927 632.908 39.842 632.332 40.1407C631.756 40.418 631.297 40.8233 630.956 41.3567C630.636 41.89 630.476 42.5087 630.476 43.2127C630.476 43.9167 630.636 44.5353 630.956 45.0687C631.297 45.602 631.756 46.018 632.332 46.3167C632.908 46.6153 633.559 46.7647 634.284 46.7647ZM659.279 34.8607C660.623 34.8607 661.839 35.138 662.927 35.6927C664.015 36.226 664.868 37.058 665.487 38.1887C666.127 39.3193 666.447 40.7807 666.447 42.5727V52.4927H660.367V43.5647C660.367 42.3273 660.111 41.4313 659.599 40.8767C659.108 40.3007 658.415 40.0127 657.519 40.0127C656.879 40.0127 656.292 40.162 655.759 40.4607C655.225 40.738 654.809 41.1753 654.511 41.7727C654.212 42.37 654.063 43.1487 654.063 44.1087V52.4927H647.983V28.7487H654.063V40.0767L652.655 38.6367C653.316 37.378 654.223 36.4393 655.375 35.8207C656.527 35.1807 657.828 34.8607 659.279 34.8607ZM678.008 52.7807C675.789 52.7807 674.061 52.2367 672.824 51.1487C671.587 50.0393 670.968 48.3753 670.968 46.1567V31.2767H677.048V46.0927C677.048 46.7113 677.219 47.202 677.56 47.5647C677.901 47.906 678.339 48.0767 678.872 48.0767C679.597 48.0767 680.216 47.8953 680.728 47.5327L682.232 51.7887C681.72 52.13 681.091 52.3753 680.344 52.5247C679.597 52.6953 678.819 52.7807 678.008 52.7807ZM668.44 40.3327V35.7887H681.016V40.3327H668.44Z" fill="black"/>
<path d="M165.368 31V10.872L168.088 13.496H161.208V8.6H171.704V31H165.368Z" fill="black"/>
<path d="M158.382 81V77.032L166.766 69.192C167.363 68.6373 167.801 68.1467 168.078 67.72C168.377 67.2933 168.569 66.9093 168.654 66.568C168.761 66.2053 168.814 65.8747 168.814 65.576C168.814 64.8507 168.569 64.2853 168.078 63.88C167.609 63.4747 166.894 63.272 165.934 63.272C165.123 63.272 164.366 63.4533 163.662 63.816C162.958 64.1787 162.382 64.7227 161.934 65.448L157.23 62.824C158.062 61.416 159.267 60.2853 160.846 59.432C162.425 58.5787 164.313 58.152 166.51 58.152C168.238 58.152 169.753 58.4293 171.054 58.984C172.355 59.5387 173.369 60.328 174.094 61.352C174.841 62.376 175.214 63.5813 175.214 64.968C175.214 65.6933 175.118 66.4187 174.926 67.144C174.734 67.848 174.361 68.6053 173.806 69.416C173.273 70.2053 172.473 71.0907 171.406 72.072L164.75 78.216L163.694 75.976H175.822V81H158.382Z" fill="black"/>
<path d="M159 46.328V43H175V46.328H159Z" fill="black"/>
<path d="M440.829 454.399V437.599H449.421C451.629 437.599 453.277 438.007 454.365 438.823C455.453 439.623 455.997 440.679 455.997 441.991C455.997 442.855 455.765 443.615 455.301 444.271C454.853 444.911 454.213 445.423 453.381 445.807C452.565 446.175 451.589 446.359 450.453 446.359L450.933 445.207C452.117 445.207 453.149 445.391 454.029 445.759C454.909 446.111 455.589 446.631 456.069 447.319C456.565 447.991 456.813 448.815 456.813 449.791C456.813 451.247 456.221 452.383 455.037 453.199C453.869 453.999 452.157 454.399 449.901 454.399H440.829ZM445.533 450.967H449.517C450.333 450.967 450.949 450.831 451.365 450.559C451.797 450.271 452.013 449.839 452.013 449.263C452.013 448.687 451.797 448.263 451.365 447.991C450.949 447.703 450.333 447.559 449.517 447.559H445.197V444.271H448.797C449.597 444.271 450.197 444.135 450.597 443.863C450.997 443.591 451.197 443.183 451.197 442.639C451.197 442.095 450.997 441.695 450.597 441.439C450.197 441.167 449.597 441.031 448.797 441.031H445.533V450.967ZM467.002 454.399V451.975L466.69 451.375V446.911C466.69 446.191 466.466 445.639 466.018 445.255C465.586 444.855 464.89 444.655 463.93 444.655C463.306 444.655 462.674 444.759 462.034 444.967C461.394 445.159 460.85 445.431 460.402 445.783L458.866 442.687C459.602 442.207 460.482 441.839 461.506 441.583C462.546 441.311 463.578 441.175 464.602 441.175C466.714 441.175 468.346 441.663 469.498 442.639C470.666 443.599 471.25 445.111 471.25 447.175V454.399H467.002ZM463.162 454.615C462.122 454.615 461.242 454.439 460.522 454.087C459.802 453.735 459.25 453.255 458.866 452.647C458.498 452.039 458.314 451.359 458.314 450.607C458.314 449.807 458.514 449.119 458.914 448.543C459.33 447.951 459.962 447.503 460.81 447.199C461.658 446.879 462.754 446.719 464.098 446.719H467.17V449.095H464.722C463.986 449.095 463.466 449.215 463.162 449.455C462.874 449.695 462.73 450.015 462.73 450.415C462.73 450.815 462.882 451.135 463.186 451.375C463.49 451.615 463.906 451.735 464.434 451.735C464.93 451.735 465.378 451.615 465.778 451.375C466.194 451.119 466.498 450.735 466.69 450.223L467.314 451.903C467.074 452.799 466.602 453.479 465.898 453.943C465.21 454.391 464.298 454.615 463.162 454.615ZM478.856 454.615C477.752 454.615 476.672 454.487 475.616 454.231C474.576 453.975 473.736 453.655 473.096 453.271L474.464 450.151C475.072 450.519 475.784 450.815 476.6 451.039C477.416 451.247 478.216 451.351 479 451.351C479.768 451.351 480.296 451.271 480.584 451.111C480.888 450.951 481.04 450.735 481.04 450.463C481.04 450.207 480.896 450.023 480.608 449.911C480.336 449.783 479.968 449.687 479.504 449.623C479.056 449.559 478.56 449.487 478.016 449.407C477.472 449.327 476.92 449.223 476.36 449.095C475.816 448.951 475.312 448.743 474.848 448.471C474.4 448.183 474.04 447.799 473.768 447.319C473.496 446.839 473.36 446.231 473.36 445.495C473.36 444.663 473.6 443.927 474.08 443.287C474.576 442.631 475.296 442.119 476.24 441.751C477.184 441.367 478.336 441.175 479.696 441.175C480.608 441.175 481.528 441.271 482.456 441.463C483.4 441.639 484.192 441.911 484.832 442.279L483.464 445.375C482.824 445.007 482.184 444.759 481.544 444.631C480.904 444.487 480.296 444.415 479.72 444.415C478.952 444.415 478.408 444.503 478.088 444.679C477.784 444.855 477.632 445.071 477.632 445.327C477.632 445.583 477.768 445.783 478.04 445.927C478.312 446.055 478.672 446.159 479.12 446.239C479.584 446.303 480.088 446.375 480.632 446.455C481.176 446.519 481.72 446.623 482.264 446.767C482.824 446.911 483.328 447.127 483.776 447.415C484.24 447.687 484.608 448.063 484.88 448.543C485.152 449.007 485.288 449.607 485.288 450.343C485.288 451.143 485.04 451.863 484.544 452.503C484.064 453.143 483.344 453.655 482.384 454.039C481.44 454.423 480.264 454.615 478.856 454.615ZM494.069 454.615C492.533 454.615 491.189 454.327 490.037 453.751C488.901 453.159 488.013 452.359 487.373 451.351C486.749 450.327 486.437 449.167 486.437 447.871C486.437 446.575 486.741 445.423 487.349 444.415C487.973 443.391 488.829 442.599 489.917 442.039C491.005 441.463 492.229 441.175 493.589 441.175C494.869 441.175 496.037 441.439 497.093 441.967C498.149 442.479 498.989 443.239 499.613 444.247C500.237 445.255 500.549 446.479 500.549 447.919C500.549 448.079 500.541 448.263 500.525 448.471C500.509 448.679 500.493 448.871 500.477 449.047H490.181V446.647H498.053L496.325 447.319C496.341 446.727 496.229 446.215 495.989 445.783C495.765 445.351 495.445 445.015 495.029 444.775C494.629 444.535 494.157 444.415 493.613 444.415C493.069 444.415 492.589 444.535 492.173 444.775C491.773 445.015 491.461 445.359 491.237 445.807C491.013 446.239 490.901 446.751 490.901 447.343V448.039C490.901 448.679 491.029 449.231 491.285 449.695C491.557 450.159 491.941 450.519 492.437 450.775C492.933 451.015 493.525 451.135 494.213 451.135C494.853 451.135 495.397 451.047 495.845 450.871C496.309 450.679 496.765 450.391 497.213 450.007L499.613 452.503C498.989 453.191 498.221 453.719 497.309 454.087C496.397 454.439 495.317 454.615 494.069 454.615Z" fill="black"/>
<path d="M480.11 354.945V350.193H496.91V354.945H480.11ZM496.91 361.425V366.177H480.11V361.425H496.91ZM490.358 354.609V361.761H486.422V354.609H490.358ZM497.126 340.241C497.126 341.777 496.838 343.121 496.262 344.273C495.67 345.409 494.87 346.297 493.862 346.937C492.838 347.561 491.678 347.873 490.382 347.873C489.086 347.873 487.934 347.569 486.926 346.961C485.902 346.337 485.11 345.481 484.55 344.393C483.974 343.305 483.686 342.081 483.686 340.721C483.686 339.441 483.95 338.273 484.478 337.217C484.99 336.161 485.75 335.321 486.758 334.697C487.766 334.073 488.99 333.761 490.43 333.761C490.59 333.761 490.774 333.769 490.982 333.785C491.19 333.801 491.382 333.817 491.558 333.833V344.129H489.158V336.257L489.83 337.985C489.238 337.969 488.726 338.081 488.294 338.321C487.862 338.545 487.526 338.865 487.286 339.281C487.046 339.681 486.926 340.153 486.926 340.697C486.926 341.241 487.046 341.721 487.286 342.137C487.526 342.537 487.87 342.849 488.318 343.073C488.75 343.297 489.262 343.409 489.854 343.409H490.55C491.19 343.409 491.742 343.281 492.206 343.025C492.67 342.753 493.03 342.369 493.286 341.873C493.526 341.377 493.646 340.785 493.646 340.097C493.646 339.457 493.558 338.913 493.382 338.465C493.19 338.001 492.902 337.545 492.518 337.097L495.014 334.697C495.702 335.321 496.23 336.089 496.598 337.001C496.95 337.913 497.126 338.993 497.126 340.241ZM496.91 331.659H483.902V327.099H496.91V331.659ZM482.462 329.379C482.462 330.211 482.23 330.883 481.766 331.395C481.302 331.907 480.726 332.163 480.038 332.163C479.35 332.163 478.774 331.907 478.31 331.395C477.846 330.883 477.614 330.211 477.614 329.379C477.614 328.547 477.838 327.875 478.286 327.363C478.718 326.851 479.278 326.595 479.966 326.595C480.686 326.595 481.286 326.851 481.766 327.363C482.23 327.859 482.462 328.531 482.462 329.379ZM501.782 317.775C501.782 319.023 501.638 320.215 501.35 321.351C501.062 322.471 500.638 323.431 500.078 324.231L496.886 322.575C497.318 322.031 497.654 321.359 497.894 320.559C498.15 319.743 498.278 318.951 498.278 318.183C498.278 316.951 498.006 316.063 497.462 315.519C496.934 314.975 496.158 314.703 495.134 314.703H493.598L489.95 314.463L486.278 314.487H483.902V310.143H494.534C496.998 310.143 498.822 310.807 500.006 312.135C501.19 313.463 501.782 315.343 501.782 317.775ZM496.238 318.567C496.238 319.719 495.982 320.783 495.47 321.759C494.942 322.719 494.214 323.495 493.286 324.087C492.342 324.663 491.23 324.951 489.95 324.951C488.67 324.951 487.566 324.663 486.638 324.087C485.694 323.495 484.966 322.719 484.454 321.759C483.942 320.783 483.686 319.719 483.686 318.567C483.686 317.463 483.91 316.519 484.358 315.735C484.79 314.951 485.47 314.359 486.398 313.959C487.326 313.543 488.51 313.335 489.95 313.335C491.39 313.335 492.574 313.543 493.502 313.959C494.43 314.359 495.118 314.951 495.566 315.735C496.014 316.519 496.238 317.463 496.238 318.567ZM492.614 317.487C492.614 316.943 492.502 316.463 492.278 316.047C492.054 315.615 491.742 315.279 491.342 315.039C490.942 314.783 490.478 314.655 489.95 314.655C489.422 314.655 488.958 314.783 488.558 315.039C488.158 315.279 487.854 315.615 487.646 316.047C487.422 316.463 487.31 316.943 487.31 317.487C487.31 318.031 487.422 318.519 487.646 318.951C487.854 319.383 488.158 319.727 488.558 319.983C488.958 320.223 489.422 320.343 489.95 320.343C490.478 320.343 490.942 320.223 491.342 319.983C491.742 319.727 492.054 319.383 492.278 318.951C492.502 318.519 492.614 318.031 492.614 317.487ZM483.686 298.742C483.686 297.734 483.894 296.822 484.31 296.006C484.71 295.19 485.334 294.55 486.182 294.086C487.03 293.606 488.126 293.366 489.47 293.366H496.91V297.926H490.214C489.286 297.926 488.614 298.118 488.198 298.502C487.766 298.87 487.55 299.39 487.55 300.062C487.55 300.542 487.662 300.982 487.886 301.382C488.094 301.782 488.422 302.094 488.87 302.318C489.318 302.542 489.902 302.654 490.622 302.654H496.91V307.214H479.102V302.654H487.598L486.518 303.71C485.574 303.214 484.87 302.534 484.406 301.67C483.926 300.806 483.686 299.83 483.686 298.742ZM497.126 284.695C497.126 286.359 496.718 287.655 495.902 288.583C495.07 289.511 493.822 289.975 492.158 289.975H480.998V285.415H492.11C492.574 285.415 492.942 285.287 493.214 285.031C493.47 284.775 493.598 284.447 493.598 284.047C493.598 283.503 493.462 283.039 493.19 282.655L496.382 281.527C496.638 281.911 496.822 282.383 496.934 282.943C497.062 283.503 497.126 284.087 497.126 284.695ZM487.79 291.871H484.382V282.439H487.79V291.871Z" fill="black"/>
<path d="M1 425.23L509 176.464L713 425.23H1Z" stroke="#5FD5E6" stroke-width="4"/>
<path d="M509.581 176.464V200.384" stroke="#5FD5E6" stroke-width="4"/>
<path d="M509.581 216.464V240.384" stroke="#5FD5E6" stroke-width="4"/>
<path d="M509.581 256.464V280.384" stroke="#5FD5E6" stroke-width="4"/>
<path d="M509.581 296.464V320.384" stroke="#5FD5E6" stroke-width="4"/>
<path d="M509.581 336.464V360.384" stroke="#5FD5E6" stroke-width="4"/>
<path d="M509.581 376.464V400.384" stroke="#5FD5E6" stroke-width="4"/>
<path d="M509.581 416.464V425.23" stroke="#5FD5E6" stroke-width="4"/>
<path d="M538.285 425.23V399.716H510.379" stroke="#5FD5E6" stroke-width="4"/>
<path d="M713.707 447.15C714.098 446.76 714.098 446.127 713.707 445.736L707.343 439.372C706.953 438.982 706.319 438.982 705.929 439.372C705.538 439.763 705.538 440.396 705.929 440.787L711.586 446.443L705.929 452.1C705.538 452.491 705.538 453.124 705.929 453.514C706.319 453.905 706.953 453.905 707.343 453.514L713.707 447.15ZM517.655 447.443H713V445.443H517.655V447.443Z" fill="black"/>
<path d="M0.292893 445.736C-0.0976311 446.127 -0.0976311 446.76 0.292893 447.15L6.65685 453.514C7.04738 453.905 7.68054 453.905 8.07107 453.514C8.46159 453.124 8.46159 452.491 8.07107 452.1L2.41421 446.443L8.07107 440.787C8.46159 440.396 8.46159 439.763 8.07107 439.372C7.68054 438.982 7.04738 438.982 6.65685 439.372L0.292893 445.736ZM425.178 445.443H1V447.443H425.178V445.443Z" fill="black"/>
<path d="M329.58 528.722H336.04V531.782H329.58V528.722ZM329.86 536.582H325.9V522.582H336.88V525.642H329.86V536.582ZM338.552 536.582V525.742H342.352V536.582H338.552ZM340.452 524.542C339.759 524.542 339.199 524.349 338.772 523.962C338.345 523.575 338.132 523.095 338.132 522.522C338.132 521.949 338.345 521.469 338.772 521.082C339.199 520.695 339.759 520.502 340.452 520.502C341.145 520.502 341.705 520.689 342.132 521.062C342.559 521.422 342.772 521.889 342.772 522.462C342.772 523.062 342.559 523.562 342.132 523.962C341.719 524.349 341.159 524.542 340.452 524.542ZM350.122 540.642C349.082 540.642 348.088 540.522 347.142 540.282C346.208 540.042 345.408 539.689 344.742 539.222L346.122 536.562C346.575 536.922 347.135 537.202 347.802 537.402C348.482 537.615 349.142 537.722 349.782 537.722C350.808 537.722 351.548 537.495 352.002 537.042C352.455 536.602 352.682 535.955 352.682 535.102V533.822L352.882 530.782L352.862 527.722V525.742H356.482V534.602C356.482 536.655 355.928 538.175 354.822 539.162C353.715 540.149 352.148 540.642 350.122 540.642ZM349.462 536.022C348.502 536.022 347.615 535.809 346.802 535.382C346.002 534.942 345.355 534.335 344.862 533.562C344.382 532.775 344.142 531.849 344.142 530.782C344.142 529.715 344.382 528.795 344.862 528.022C345.355 527.235 346.002 526.629 346.802 526.202C347.615 525.775 348.502 525.562 349.462 525.562C350.382 525.562 351.168 525.749 351.822 526.122C352.475 526.482 352.968 527.049 353.302 527.822C353.648 528.595 353.822 529.582 353.822 530.782C353.822 531.982 353.648 532.969 353.302 533.742C352.968 534.515 352.475 535.089 351.822 535.462C351.168 535.835 350.382 536.022 349.462 536.022ZM350.362 533.002C350.815 533.002 351.215 532.909 351.562 532.722C351.922 532.535 352.202 532.275 352.402 531.942C352.615 531.609 352.722 531.222 352.722 530.782C352.722 530.342 352.615 529.955 352.402 529.622C352.202 529.289 351.922 529.035 351.562 528.862C351.215 528.675 350.815 528.582 350.362 528.582C349.908 528.582 349.502 528.675 349.142 528.862C348.782 529.035 348.495 529.289 348.282 529.622C348.082 529.955 347.982 530.342 347.982 530.782C347.982 531.222 348.082 531.609 348.282 531.942C348.495 532.275 348.782 532.535 349.142 532.722C349.502 532.909 349.908 533.002 350.362 533.002ZM364.123 536.582V534.102L369.363 529.202C369.737 528.855 370.01 528.549 370.183 528.282C370.37 528.015 370.49 527.775 370.543 527.562C370.61 527.335 370.643 527.129 370.643 526.942C370.643 526.489 370.49 526.135 370.183 525.882C369.89 525.629 369.443 525.502 368.843 525.502C368.337 525.502 367.863 525.615 367.423 525.842C366.983 526.069 366.623 526.409 366.343 526.862L363.403 525.222C363.923 524.342 364.677 523.635 365.663 523.102C366.65 522.569 367.83 522.302 369.203 522.302C370.283 522.302 371.23 522.475 372.043 522.822C372.857 523.169 373.49 523.662 373.943 524.302C374.41 524.942 374.643 525.695 374.643 526.562C374.643 527.015 374.583 527.469 374.463 527.922C374.343 528.362 374.11 528.835 373.763 529.342C373.43 529.835 372.93 530.389 372.263 531.002L368.103 534.842L367.443 533.442H375.023V536.582H364.123ZM378.511 536.762C377.871 536.762 377.331 536.549 376.891 536.122C376.451 535.695 376.231 535.155 376.231 534.502C376.231 533.822 376.451 533.282 376.891 532.882C377.331 532.469 377.871 532.262 378.511 532.262C379.151 532.262 379.691 532.469 380.131 532.882C380.571 533.282 380.791 533.822 380.791 534.502C380.791 535.155 380.571 535.695 380.131 536.122C379.691 536.549 379.151 536.762 378.511 536.762ZM383.724 536.582V524.002L385.424 525.642H381.124V522.582H387.684V536.582H383.724Z" fill="black"/>
</svg>
