<svg width="674" height="642" viewBox="0 0 674 642" fill="none" xmlns="http://www.w3.org/2000/svg">
<path d="M184.567 52.4927L194.455 30.0927H200.695L210.615 52.4927H204.023L196.279 33.1967H198.775L191.031 52.4927H184.567ZM189.975 48.1407L191.607 43.4687H202.551L204.183 48.1407H189.975ZM212.123 52.4927V35.1487H217.915V40.2047L217.051 38.7647C217.563 37.4633 218.395 36.4927 219.547 35.8527C220.699 35.1913 222.097 34.8607 223.739 34.8607V40.3327C223.462 40.29 223.217 40.2687 223.003 40.2687C222.811 40.2473 222.598 40.2367 222.363 40.2367C221.126 40.2367 220.123 40.578 219.355 41.2607C218.587 41.922 218.203 43.01 218.203 44.5247V52.4927H212.123ZM235.18 52.7807C233.132 52.7807 231.34 52.3967 229.804 51.6287C228.289 50.8393 227.105 49.7727 226.252 48.4287C225.42 47.0633 225.004 45.5167 225.004 43.7887C225.004 42.0607 225.409 40.5247 226.22 39.1807C227.052 37.8153 228.193 36.7593 229.644 36.0127C231.095 35.2447 232.727 34.8607 234.54 34.8607C236.247 34.8607 237.804 35.2127 239.212 35.9167C240.62 36.5993 241.74 37.6127 242.572 38.9567C243.404 40.3007 243.82 41.9327 243.82 43.8527C243.82 44.066 243.809 44.3113 243.788 44.5887C243.767 44.866 243.745 45.122 243.724 45.3567H229.996V42.1567H240.492L238.188 43.0527C238.209 42.2633 238.06 41.5807 237.74 41.0047C237.441 40.4287 237.015 39.9807 236.46 39.6607C235.927 39.3407 235.297 39.1807 234.572 39.1807C233.847 39.1807 233.207 39.3407 232.652 39.6607C232.119 39.9807 231.703 40.4393 231.404 41.0367C231.105 41.6127 230.956 42.2953 230.956 43.0847V44.0127C230.956 44.866 231.127 45.602 231.468 46.2207C231.831 46.8393 232.343 47.3193 233.004 47.6607C233.665 47.9807 234.455 48.1407 235.372 48.1407C236.225 48.1407 236.951 48.0233 237.548 47.7887C238.167 47.5327 238.775 47.1487 239.372 46.6367L242.572 49.9647C241.74 50.882 240.716 51.586 239.5 52.0767C238.284 52.546 236.844 52.7807 235.18 52.7807ZM256.746 52.4927V49.2607L256.33 48.4607V42.5087C256.33 41.5487 256.032 40.8127 255.434 40.3007C254.858 39.7673 253.93 39.5007 252.65 39.5007C251.818 39.5007 250.976 39.6393 250.122 39.9167C249.269 40.1727 248.544 40.5353 247.946 41.0047L245.898 36.8767C246.88 36.2367 248.053 35.746 249.418 35.4047C250.805 35.042 252.181 34.8607 253.546 34.8607C256.362 34.8607 258.538 35.5113 260.074 36.8127C261.632 38.0927 262.41 40.1087 262.41 42.8607V52.4927H256.746ZM251.626 52.7807C250.24 52.7807 249.066 52.546 248.106 52.0767C247.146 51.6073 246.41 50.9673 245.898 50.1567C245.408 49.346 245.162 48.4393 245.162 47.4367C245.162 46.37 245.429 45.4527 245.962 44.6847C246.517 43.8953 247.36 43.298 248.49 42.8927C249.621 42.466 251.082 42.2527 252.874 42.2527H256.97V45.4207H253.706C252.725 45.4207 252.032 45.5807 251.626 45.9007C251.242 46.2207 251.05 46.6473 251.05 47.1807C251.05 47.714 251.253 48.1407 251.658 48.4607C252.064 48.7807 252.618 48.9407 253.322 48.9407C253.984 48.9407 254.581 48.7807 255.114 48.4607C255.669 48.1193 256.074 47.6073 256.33 46.9247L257.162 49.1647C256.842 50.3593 256.213 51.266 255.274 51.8847C254.357 52.482 253.141 52.7807 251.626 52.7807ZM275.465 39.5647V34.9247H291.241V39.5647H275.465ZM275.465 47.6607V43.0207H291.241V47.6607H275.465ZM386.17 52.4927L394.138 42.0287L394.01 45.4847L386.362 35.1487H393.21L397.498 41.2607L394.938 41.3887L399.482 35.1487H405.914L398.266 45.2607V41.9327L406.138 52.4927H399.194L394.714 45.9647L397.274 46.3167L392.762 52.4927H386.17ZM425.471 52.9407C423.636 52.9407 421.865 52.7167 420.159 52.2687C418.473 51.7993 417.097 51.202 416.031 50.4767L418.111 45.8047C419.113 46.4447 420.265 46.978 421.567 47.4047C422.889 47.81 424.201 48.0127 425.503 48.0127C426.377 48.0127 427.081 47.938 427.615 47.7887C428.148 47.618 428.532 47.4047 428.767 47.1487C429.023 46.8713 429.151 46.5513 429.151 46.1887C429.151 45.6767 428.916 45.2713 428.447 44.9727C427.977 44.674 427.369 44.4287 426.623 44.2367C425.876 44.0447 425.044 43.8527 424.127 43.6607C423.231 43.4687 422.324 43.2233 421.407 42.9247C420.511 42.626 419.689 42.242 418.943 41.7727C418.196 41.282 417.588 40.6527 417.119 39.8847C416.649 39.0953 416.415 38.1033 416.415 36.9087C416.415 35.5647 416.777 34.3487 417.503 33.2607C418.249 32.1727 419.359 31.298 420.831 30.6367C422.303 29.9753 424.137 29.6447 426.335 29.6447C427.807 29.6447 429.247 29.8153 430.655 30.1567C432.084 30.4767 433.353 30.9567 434.463 31.5967L432.511 36.3007C431.444 35.7247 430.388 35.298 429.343 35.0207C428.297 34.722 427.284 34.5727 426.303 34.5727C425.428 34.5727 424.724 34.6687 424.191 34.8607C423.657 35.0313 423.273 35.266 423.039 35.5647C422.804 35.8633 422.687 36.2047 422.687 36.5887C422.687 37.0793 422.911 37.474 423.359 37.7727C423.828 38.05 424.436 38.2847 425.183 38.4767C425.951 38.6473 426.783 38.8287 427.679 39.0207C428.596 39.2127 429.503 39.458 430.399 39.7567C431.316 40.034 432.148 40.418 432.895 40.9087C433.641 41.378 434.239 42.0073 434.687 42.7967C435.156 43.5647 435.391 44.5353 435.391 45.7087C435.391 47.01 435.017 48.2153 434.271 49.3247C433.545 50.4127 432.447 51.2873 430.975 51.9487C429.524 52.61 427.689 52.9407 425.471 52.9407ZM438.029 52.4927V35.1487H444.109V52.4927H438.029ZM441.069 33.2287C439.96 33.2287 439.064 32.9193 438.381 32.3007C437.699 31.682 437.357 30.914 437.357 29.9967C437.357 29.0793 437.699 28.3113 438.381 27.6927C439.064 27.074 439.96 26.7647 441.069 26.7647C442.179 26.7647 443.075 27.0633 443.757 27.6607C444.44 28.2367 444.781 28.9833 444.781 29.9007C444.781 30.8607 444.44 31.6607 443.757 32.3007C443.096 32.9193 442.2 33.2287 441.069 33.2287ZM455.613 52.7807C454.034 52.7807 452.594 52.418 451.293 51.6927C450.013 50.946 448.989 49.9113 448.221 48.5887C447.453 47.2447 447.069 45.6447 447.069 43.7887C447.069 41.954 447.453 40.3753 448.221 39.0527C448.989 37.7087 450.013 36.674 451.293 35.9487C452.594 35.2233 454.034 34.8607 455.613 34.8607C457.106 34.8607 458.365 35.1807 459.389 35.8207C460.434 36.4607 461.223 37.442 461.757 38.7647C462.29 40.0873 462.557 41.762 462.557 43.7887C462.557 45.858 462.301 47.554 461.789 48.8767C461.277 50.1993 460.509 51.1807 459.485 51.8207C458.461 52.4607 457.17 52.7807 455.613 52.7807ZM456.893 47.9487C457.575 47.9487 458.183 47.7887 458.717 47.4687C459.271 47.1487 459.709 46.6793 460.029 46.0607C460.349 45.4207 460.509 44.6633 460.509 43.7887C460.509 42.914 460.349 42.178 460.029 41.5807C459.709 40.962 459.271 40.4927 458.717 40.1727C458.183 39.8527 457.575 39.6927 456.893 39.6927C456.189 39.6927 455.559 39.8527 455.005 40.1727C454.471 40.4927 454.045 40.962 453.725 41.5807C453.405 42.178 453.245 42.914 453.245 43.7887C453.245 44.6633 453.405 45.4207 453.725 46.0607C454.045 46.6793 454.471 47.1487 455.005 47.4687C455.559 47.7887 456.189 47.9487 456.893 47.9487ZM460.701 52.4927V49.5167L460.733 43.7887L460.413 38.0607V28.7487H466.493V52.4927H460.701ZM479.492 52.7807C477.444 52.7807 475.652 52.3967 474.116 51.6287C472.602 50.8393 471.418 49.7727 470.564 48.4287C469.732 47.0633 469.316 45.5167 469.316 43.7887C469.316 42.0607 469.722 40.5247 470.532 39.1807C471.364 37.8153 472.506 36.7593 473.956 36.0127C475.407 35.2447 477.039 34.8607 478.852 34.8607C480.559 34.8607 482.116 35.2127 483.524 35.9167C484.932 36.5993 486.052 37.6127 486.884 38.9567C487.716 40.3007 488.132 41.9327 488.132 43.8527C488.132 44.066 488.122 44.3113 488.1 44.5887C488.079 44.866 488.058 45.122 488.036 45.3567H474.308V42.1567H484.804L482.5 43.0527C482.522 42.2633 482.372 41.5807 482.052 41.0047C481.754 40.4287 481.327 39.9807 480.772 39.6607C480.239 39.3407 479.61 39.1807 478.884 39.1807C478.159 39.1807 477.519 39.3407 476.964 39.6607C476.431 39.9807 476.015 40.4393 475.716 41.0367C475.418 41.6127 475.268 42.2953 475.268 43.0847V44.0127C475.268 44.866 475.439 45.602 475.78 46.2207C476.143 46.8393 476.655 47.3193 477.316 47.6607C477.978 47.9807 478.767 48.1407 479.684 48.1407C480.538 48.1407 481.263 48.0233 481.86 47.7887C482.479 47.5327 483.087 47.1487 483.684 46.6367L486.884 49.9647C486.052 50.882 485.028 51.586 483.812 52.0767C482.596 52.546 481.156 52.7807 479.492 52.7807Z" fill="black"/>
<path d="M313.314 37.208C311.991 35.288 310.967 33.048 310.242 30.488C309.538 27.9067 309.186 25.1547 309.186 22.232C309.186 19.3093 309.538 16.568 310.242 14.008C310.967 11.4267 311.991 9.176 313.314 7.256H319.138C317.751 9.73067 316.738 12.184 316.098 14.616C315.458 17.048 315.138 19.5867 315.138 22.232C315.138 24.8773 315.458 27.416 316.098 29.848C316.738 32.28 317.751 34.7333 319.138 37.208H313.314ZM340.454 7.256H346.086L336.486 37.208H330.182L325.158 22.104H320.934V17.464H329.638L333.926 31.576H332.742L340.454 7.256ZM354.217 31.448C352.659 31.448 351.102 31.256 349.545 30.872C348.009 30.488 346.665 29.944 345.513 29.24L347.817 24.472C348.713 25.0693 349.705 25.528 350.793 25.848C351.902 26.168 352.979 26.328 354.025 26.328C355.113 26.328 355.977 26.1253 356.617 25.72C357.257 25.3147 357.577 24.7387 357.577 23.992C357.577 23.3307 357.31 22.808 356.777 22.424C356.243 22.0187 355.369 21.816 354.153 21.816H351.497V17.816L357.513 11.32L358.121 13.496H346.665V8.6H362.857V12.568L356.841 19.064L353.737 17.304H355.465C358.259 17.304 360.371 17.9333 361.801 19.192C363.251 20.4293 363.977 22.0293 363.977 23.992C363.977 25.272 363.625 26.4773 362.921 27.608C362.238 28.7387 361.182 29.6667 359.753 30.392C358.323 31.096 356.478 31.448 354.217 31.448ZM370.682 37.208H364.858C366.266 34.7333 367.279 32.28 367.898 29.848C368.538 27.416 368.858 24.8773 368.858 22.232C368.858 19.5867 368.538 17.048 367.898 14.616C367.279 12.184 366.266 9.73067 364.858 7.256H370.682C372.026 9.176 373.05 11.4267 373.754 14.008C374.458 16.568 374.81 19.3093 374.81 22.232C374.81 25.1547 374.458 27.9067 373.754 30.488C373.05 33.048 372.026 35.288 370.682 37.208Z" fill="black"/>
<path d="M332.161 76.712V72.584L342.209 58.6H348.769L339.009 72.584L336.001 71.688H353.505V76.712H332.161ZM344.001 81V76.712L344.193 71.688V67.88H350.177V81H344.001Z" fill="black"/>
<path d="M334 46.328V43H350V46.328H334Z" fill="black"/>
<path d="M144 537.621H530" stroke="#5FD5E6" stroke-width="4"/>
<path d="M144.5 538.763L337.5 204.477" stroke="#5FD5E6" stroke-width="4"/>
<path d="M528 538.906L335 204.62" stroke="#5FD5E6" stroke-width="4"/>
<path d="M340.873 565V562.576L340.561 561.976V557.512C340.561 556.792 340.337 556.24 339.889 555.856C339.457 555.456 338.761 555.256 337.801 555.256C337.177 555.256 336.545 555.36 335.905 555.568C335.265 555.76 334.721 556.032 334.273 556.384L332.737 553.288C333.473 552.808 334.353 552.44 335.377 552.184C336.417 551.912 337.449 551.776 338.473 551.776C340.585 551.776 342.217 552.264 343.369 553.24C344.537 554.2 345.121 555.712 345.121 557.776V565H340.873ZM337.033 565.216C335.993 565.216 335.113 565.04 334.393 564.688C333.673 564.336 333.121 563.856 332.737 563.248C332.369 562.64 332.185 561.96 332.185 561.208C332.185 560.408 332.385 559.72 332.785 559.144C333.201 558.552 333.833 558.104 334.681 557.8C335.529 557.48 336.625 557.32 337.969 557.32H341.041V559.696H338.593C337.857 559.696 337.337 559.816 337.033 560.056C336.745 560.296 336.601 560.616 336.601 561.016C336.601 561.416 336.753 561.736 337.057 561.976C337.361 562.216 337.777 562.336 338.305 562.336C338.801 562.336 339.249 562.216 339.649 561.976C340.065 561.72 340.369 561.336 340.561 560.824L341.185 562.504C340.945 563.4 340.473 564.08 339.769 564.544C339.081 564.992 338.169 565.216 337.033 565.216Z" fill="black"/>
<path d="M450.873 365V362.576L450.561 361.976V357.512C450.561 356.792 450.337 356.24 449.889 355.856C449.457 355.456 448.761 355.256 447.801 355.256C447.177 355.256 446.545 355.36 445.905 355.568C445.265 355.76 444.721 356.032 444.273 356.384L442.737 353.288C443.473 352.808 444.353 352.44 445.377 352.184C446.417 351.912 447.449 351.776 448.473 351.776C450.585 351.776 452.217 352.264 453.369 353.24C454.537 354.2 455.121 355.712 455.121 357.776V365H450.873ZM447.033 365.216C445.993 365.216 445.113 365.04 444.393 364.688C443.673 364.336 443.121 363.856 442.737 363.248C442.369 362.64 442.185 361.96 442.185 361.208C442.185 360.408 442.385 359.72 442.785 359.144C443.201 358.552 443.833 358.104 444.681 357.8C445.529 357.48 446.625 357.32 447.969 357.32H451.041V359.696H448.593C447.857 359.696 447.337 359.816 447.033 360.056C446.745 360.296 446.601 360.616 446.601 361.016C446.601 361.416 446.753 361.736 447.057 361.976C447.361 362.216 447.777 362.336 448.305 362.336C448.801 362.336 449.249 362.216 449.649 361.976C450.065 361.72 450.369 361.336 450.561 360.824L451.185 362.504C450.945 363.4 450.473 364.08 449.769 364.544C449.081 364.992 448.169 365.216 447.033 365.216Z" fill="black"/>
<path d="M217.873 365V362.576L217.561 361.976V357.512C217.561 356.792 217.337 356.24 216.889 355.856C216.457 355.456 215.761 355.256 214.801 355.256C214.177 355.256 213.545 355.36 212.905 355.568C212.265 355.76 211.721 356.032 211.273 356.384L209.737 353.288C210.473 352.808 211.353 352.44 212.377 352.184C213.417 351.912 214.449 351.776 215.473 351.776C217.585 351.776 219.217 352.264 220.369 353.24C221.537 354.2 222.121 355.712 222.121 357.776V365H217.873ZM214.033 365.216C212.993 365.216 212.113 365.04 211.393 364.688C210.673 364.336 210.121 363.856 209.737 363.248C209.369 362.64 209.185 361.96 209.185 361.208C209.185 360.408 209.385 359.72 209.785 359.144C210.201 358.552 210.833 358.104 211.681 357.8C212.529 357.48 213.625 357.32 214.969 357.32H218.041V359.696H215.593C214.857 359.696 214.337 359.816 214.033 360.056C213.745 360.296 213.601 360.616 213.601 361.016C213.601 361.416 213.753 361.736 214.057 361.976C214.361 362.216 214.777 362.336 215.305 362.336C215.801 362.336 216.249 362.216 216.649 361.976C217.065 361.72 217.369 361.336 217.561 360.824L218.185 362.504C217.945 363.4 217.473 364.08 216.769 364.544C216.081 364.992 215.169 365.216 214.033 365.216Z" fill="black"/>
<path d="M309.58 628.722H316.04V631.782H309.58V628.722ZM309.86 636.582H305.9V622.582H316.88V625.642H309.86V636.582ZM318.552 636.582V625.742H322.352V636.582H318.552ZM320.452 624.542C319.759 624.542 319.199 624.349 318.772 623.962C318.345 623.575 318.132 623.095 318.132 622.522C318.132 621.949 318.345 621.469 318.772 621.082C319.199 620.695 319.759 620.502 320.452 620.502C321.145 620.502 321.705 620.689 322.132 621.062C322.559 621.422 322.772 621.889 322.772 622.462C322.772 623.062 322.559 623.562 322.132 623.962C321.719 624.349 321.159 624.542 320.452 624.542ZM330.122 640.642C329.082 640.642 328.088 640.522 327.142 640.282C326.208 640.042 325.408 639.689 324.742 639.222L326.122 636.562C326.575 636.922 327.135 637.202 327.802 637.402C328.482 637.615 329.142 637.722 329.782 637.722C330.808 637.722 331.548 637.495 332.002 637.042C332.455 636.602 332.682 635.955 332.682 635.102V633.822L332.882 630.782L332.862 627.722V625.742H336.482V634.602C336.482 636.655 335.928 638.175 334.822 639.162C333.715 640.149 332.148 640.642 330.122 640.642ZM329.462 636.022C328.502 636.022 327.615 635.809 326.802 635.382C326.002 634.942 325.355 634.335 324.862 633.562C324.382 632.775 324.142 631.849 324.142 630.782C324.142 629.715 324.382 628.795 324.862 628.022C325.355 627.235 326.002 626.629 326.802 626.202C327.615 625.775 328.502 625.562 329.462 625.562C330.382 625.562 331.168 625.749 331.822 626.122C332.475 626.482 332.968 627.049 333.302 627.822C333.648 628.595 333.822 629.582 333.822 630.782C333.822 631.982 333.648 632.969 333.302 633.742C332.968 634.515 332.475 635.089 331.822 635.462C331.168 635.835 330.382 636.022 329.462 636.022ZM330.362 633.002C330.815 633.002 331.215 632.909 331.562 632.722C331.922 632.535 332.202 632.275 332.402 631.942C332.615 631.609 332.722 631.222 332.722 630.782C332.722 630.342 332.615 629.955 332.402 629.622C332.202 629.289 331.922 629.035 331.562 628.862C331.215 628.675 330.815 628.582 330.362 628.582C329.908 628.582 329.502 628.675 329.142 628.862C328.782 629.035 328.495 629.289 328.282 629.622C328.082 629.955 327.982 630.342 327.982 630.782C327.982 631.222 328.082 631.609 328.282 631.942C328.495 632.275 328.782 632.535 329.142 632.722C329.502 632.909 329.908 633.002 330.362 633.002ZM344.123 636.582V634.102L349.363 629.202C349.737 628.855 350.01 628.549 350.183 628.282C350.37 628.015 350.49 627.775 350.543 627.562C350.61 627.335 350.643 627.129 350.643 626.942C350.643 626.489 350.49 626.135 350.183 625.882C349.89 625.629 349.443 625.502 348.843 625.502C348.337 625.502 347.863 625.615 347.423 625.842C346.983 626.069 346.623 626.409 346.343 626.862L343.403 625.222C343.923 624.342 344.677 623.635 345.663 623.102C346.65 622.569 347.83 622.302 349.203 622.302C350.283 622.302 351.23 622.475 352.043 622.822C352.857 623.169 353.49 623.662 353.943 624.302C354.41 624.942 354.643 625.695 354.643 626.562C354.643 627.015 354.583 627.469 354.463 627.922C354.343 628.362 354.11 628.835 353.763 629.342C353.43 629.835 352.93 630.389 352.263 631.002L348.103 634.842L347.443 633.442H355.023V636.582H344.123ZM358.511 636.762C357.871 636.762 357.331 636.549 356.891 636.122C356.451 635.695 356.231 635.155 356.231 634.502C356.231 633.822 356.451 633.282 356.891 632.882C357.331 632.469 357.871 632.262 358.511 632.262C359.151 632.262 359.691 632.469 360.131 632.882C360.571 633.282 360.791 633.822 360.791 634.502C360.791 635.155 360.571 635.695 360.131 636.122C359.691 636.549 359.151 636.762 358.511 636.762ZM362.151 636.582V634.102L367.391 629.202C367.764 628.855 368.037 628.549 368.211 628.282C368.397 628.015 368.517 627.775 368.571 627.562C368.637 627.335 368.671 627.129 368.671 626.942C368.671 626.489 368.517 626.135 368.211 625.882C367.917 625.629 367.471 625.502 366.871 625.502C366.364 625.502 365.891 625.615 365.451 625.842C365.011 626.069 364.651 626.409 364.371 626.862L361.431 625.222C361.951 624.342 362.704 623.635 363.691 623.102C364.677 622.569 365.857 622.302 367.231 622.302C368.311 622.302 369.257 622.475 370.071 622.822C370.884 623.169 371.517 623.662 371.971 624.302C372.437 624.942 372.671 625.695 372.671 626.562C372.671 627.015 372.611 627.469 372.491 627.922C372.371 628.362 372.137 628.835 371.791 629.342C371.457 629.835 370.957 630.389 370.291 631.002L366.131 634.842L365.471 633.442H373.051V636.582H362.151Z" fill="black"/>
</svg>
