<svg width="674" height="532" viewBox="0 0 674 532" fill="none" xmlns="http://www.w3.org/2000/svg">
<path d="M113.286 52.4927L123.174 30.0927H129.414L139.334 52.4927H132.742L124.998 33.1967H127.494L119.75 52.4927H113.286ZM118.694 48.1407L120.326 43.4687H131.27L132.902 48.1407H118.694ZM140.842 52.4927V35.1487H146.634V40.2047L145.77 38.7647C146.282 37.4633 147.114 36.4927 148.266 35.8527C149.418 35.1913 150.815 34.8607 152.458 34.8607V40.3327C152.181 40.29 151.935 40.2687 151.722 40.2687C151.53 40.2473 151.317 40.2367 151.082 40.2367C149.845 40.2367 148.842 40.578 148.074 41.2607C147.306 41.922 146.922 43.01 146.922 44.5247V52.4927H140.842ZM163.899 52.7807C161.851 52.7807 160.059 52.3967 158.523 51.6287C157.008 50.8393 155.824 49.7727 154.971 48.4287C154.139 47.0633 153.723 45.5167 153.723 43.7887C153.723 42.0607 154.128 40.5247 154.939 39.1807C155.771 37.8153 156.912 36.7593 158.363 36.0127C159.813 35.2447 161.445 34.8607 163.259 34.8607C164.965 34.8607 166.523 35.2127 167.931 35.9167C169.339 36.5993 170.459 37.6127 171.291 38.9567C172.123 40.3007 172.539 41.9327 172.539 43.8527C172.539 44.066 172.528 44.3113 172.507 44.5887C172.485 44.866 172.464 45.122 172.443 45.3567H158.715V42.1567H169.211L166.907 43.0527C166.928 42.2633 166.779 41.5807 166.459 41.0047C166.16 40.4287 165.733 39.9807 165.179 39.6607C164.645 39.3407 164.016 39.1807 163.291 39.1807C162.565 39.1807 161.925 39.3407 161.371 39.6607C160.837 39.9807 160.421 40.4393 160.123 41.0367C159.824 41.6127 159.675 42.2953 159.675 43.0847V44.0127C159.675 44.866 159.845 45.602 160.187 46.2207C160.549 46.8393 161.061 47.3193 161.723 47.6607C162.384 47.9807 163.173 48.1407 164.091 48.1407C164.944 48.1407 165.669 48.0233 166.267 47.7887C166.885 47.5327 167.493 47.1487 168.091 46.6367L171.291 49.9647C170.459 50.882 169.435 51.586 168.219 52.0767C167.003 52.546 165.563 52.7807 163.899 52.7807ZM185.465 52.4927V49.2607L185.049 48.4607V42.5087C185.049 41.5487 184.751 40.8127 184.153 40.3007C183.577 39.7673 182.649 39.5007 181.369 39.5007C180.537 39.5007 179.695 39.6393 178.841 39.9167C177.988 40.1727 177.263 40.5353 176.665 41.0047L174.617 36.8767C175.599 36.2367 176.772 35.746 178.137 35.4047C179.524 35.042 180.9 34.8607 182.265 34.8607C185.081 34.8607 187.257 35.5113 188.793 36.8127C190.351 38.0927 191.129 40.1087 191.129 42.8607V52.4927H185.465ZM180.345 52.7807C178.959 52.7807 177.785 52.546 176.825 52.0767C175.865 51.6073 175.129 50.9673 174.617 50.1567C174.127 49.346 173.881 48.4393 173.881 47.4367C173.881 46.37 174.148 45.4527 174.681 44.6847C175.236 43.8953 176.079 43.298 177.209 42.8927C178.34 42.466 179.801 42.2527 181.593 42.2527H185.689V45.4207H182.425C181.444 45.4207 180.751 45.5807 180.345 45.9007C179.961 46.2207 179.769 46.6473 179.769 47.1807C179.769 47.714 179.972 48.1407 180.377 48.4607C180.783 48.7807 181.337 48.9407 182.041 48.9407C182.703 48.9407 183.3 48.7807 183.833 48.4607C184.388 48.1193 184.793 47.6073 185.049 46.9247L185.881 49.1647C185.561 50.3593 184.932 51.266 183.993 51.8847C183.076 52.482 181.86 52.7807 180.345 52.7807ZM204.183 39.5647V34.9247H219.959V39.5647H204.183ZM204.183 47.6607V43.0207H219.959V47.6607H204.183ZM286.951 52.4927L294.919 42.0287L294.791 45.4847L287.143 35.1487H293.991L298.279 41.2607L295.719 41.3887L300.263 35.1487H306.695L299.047 45.2607V41.9327L306.919 52.4927H299.975L295.495 45.9647L298.055 46.3167L293.543 52.4927H286.951ZM329.004 52.7807C327.447 52.7807 326.145 52.4607 325.1 51.8207C324.076 51.1807 323.308 50.1993 322.796 48.8767C322.284 47.554 322.028 45.858 322.028 43.7887C322.028 41.762 322.295 40.0873 322.828 38.7647C323.383 37.442 324.183 36.4607 325.228 35.8207C326.273 35.1807 327.532 34.8607 329.004 34.8607C330.583 34.8607 332.012 35.2233 333.292 35.9487C334.593 36.674 335.617 37.7087 336.364 39.0527C337.132 40.3753 337.516 41.954 337.516 43.7887C337.516 45.6447 337.132 47.2447 336.364 48.5887C335.617 49.9113 334.593 50.946 333.292 51.6927C332.012 52.418 330.583 52.7807 329.004 52.7807ZM318.092 52.4927V28.7487H324.172V38.0607L323.852 43.7887L323.884 49.5167V52.4927H318.092ZM327.724 47.9487C328.407 47.9487 329.015 47.7887 329.548 47.4687C330.103 47.1487 330.54 46.6793 330.86 46.0607C331.201 45.4207 331.372 44.6633 331.372 43.7887C331.372 42.914 331.201 42.178 330.86 41.5807C330.54 40.962 330.103 40.4927 329.548 40.1727C329.015 39.8527 328.407 39.6927 327.724 39.6927C327.041 39.6927 326.423 39.8527 325.868 40.1727C325.335 40.4927 324.897 40.962 324.556 41.5807C324.236 42.178 324.076 42.914 324.076 43.7887C324.076 44.6633 324.236 45.4207 324.556 46.0607C324.897 46.6793 325.335 47.1487 325.868 47.4687C326.423 47.7887 327.041 47.9487 327.724 47.9487ZM347.638 52.4927L355.606 42.0287L355.478 45.4847L347.83 35.1487H354.678L358.966 41.2607L356.406 41.3887L360.95 35.1487H367.382L359.734 45.2607V41.9327L367.606 52.4927H360.662L356.182 45.9647L358.742 46.3167L354.23 52.4927H347.638ZM398.203 28.7487H403.835L394.235 58.7007H387.931L382.907 43.5967H378.683V38.9567H387.387L391.675 53.0687H390.491L398.203 28.7487ZM409.438 58.7007C408.115 56.7807 407.091 54.5407 406.366 51.9807C405.662 49.3993 405.31 46.6473 405.31 43.7247C405.31 40.802 405.662 38.0607 406.366 35.5007C407.091 32.9193 408.115 30.6687 409.438 28.7487H415.262C413.875 31.2233 412.862 33.6767 412.222 36.1087C411.582 38.5407 411.262 41.0793 411.262 43.7247C411.262 46.37 411.582 48.9087 412.222 51.3407C412.862 53.7727 413.875 56.226 415.262 58.7007H409.438ZM415.441 48.2047V44.0767L425.489 30.0927H432.049L422.289 44.0767L419.281 43.1807H436.785V48.2047H415.441ZM427.281 52.4927V48.2047L427.473 43.1807V39.3727H433.457V52.4927H427.281ZM450.371 52.4927V49.2607L449.955 48.4607V42.5087C449.955 41.5487 449.657 40.8127 449.059 40.3007C448.483 39.7673 447.555 39.5007 446.275 39.5007C445.443 39.5007 444.601 39.6393 443.747 39.9167C442.894 40.1727 442.169 40.5353 441.571 41.0047L439.523 36.8767C440.505 36.2367 441.678 35.746 443.043 35.4047C444.43 35.042 445.806 34.8607 447.171 34.8607C449.987 34.8607 452.163 35.5113 453.699 36.8127C455.257 38.0927 456.035 40.1087 456.035 42.8607V52.4927H450.371ZM445.251 52.7807C443.865 52.7807 442.691 52.546 441.731 52.0767C440.771 51.6073 440.035 50.9673 439.523 50.1567C439.033 49.346 438.787 48.4393 438.787 47.4367C438.787 46.37 439.054 45.4527 439.587 44.6847C440.142 43.8953 440.985 43.298 442.115 42.8927C443.246 42.466 444.707 42.2527 446.499 42.2527H450.595V45.4207H447.331C446.35 45.4207 445.657 45.5807 445.251 45.9007C444.867 46.2207 444.675 46.6473 444.675 47.1807C444.675 47.714 444.878 48.1407 445.283 48.4607C445.689 48.7807 446.243 48.9407 446.947 48.9407C447.609 48.9407 448.206 48.7807 448.739 48.4607C449.294 48.1193 449.699 47.6073 449.955 46.9247L450.787 49.1647C450.467 50.3593 449.838 51.266 448.899 51.8847C447.982 52.482 446.766 52.7807 445.251 52.7807ZM487.395 45.7087V41.0367H496.739V45.7087H487.395ZM520.441 52.7807C518.884 52.7807 517.583 52.4607 516.537 51.8207C515.513 51.1807 514.745 50.1993 514.233 48.8767C513.721 47.554 513.465 45.858 513.465 43.7887C513.465 41.762 513.732 40.0873 514.265 38.7647C514.82 37.442 515.62 36.4607 516.665 35.8207C517.711 35.1807 518.969 34.8607 520.441 34.8607C522.02 34.8607 523.449 35.2233 524.729 35.9487C526.031 36.674 527.055 37.7087 527.801 39.0527C528.569 40.3753 528.953 41.954 528.953 43.7887C528.953 45.6447 528.569 47.2447 527.801 48.5887C527.055 49.9113 526.031 50.946 524.729 51.6927C523.449 52.418 522.02 52.7807 520.441 52.7807ZM509.529 52.4927V28.7487H515.609V38.0607L515.289 43.7887L515.321 49.5167V52.4927H509.529ZM519.161 47.9487C519.844 47.9487 520.452 47.7887 520.985 47.4687C521.54 47.1487 521.977 46.6793 522.297 46.0607C522.639 45.4207 522.809 44.6633 522.809 43.7887C522.809 42.914 522.639 42.178 522.297 41.5807C521.977 40.962 521.54 40.4927 520.985 40.1727C520.452 39.8527 519.844 39.6927 519.161 39.6927C518.479 39.6927 517.86 39.8527 517.305 40.1727C516.772 40.4927 516.335 40.962 515.993 41.5807C515.673 42.178 515.513 42.914 515.513 43.7887C515.513 44.6633 515.673 45.4207 515.993 46.0607C516.335 46.6793 516.772 47.1487 517.305 47.4687C517.86 47.7887 518.479 47.9487 519.161 47.9487ZM554.213 58.7007H548.389C549.797 56.226 550.81 53.7727 551.429 51.3407C552.069 48.9087 552.389 46.37 552.389 43.7247C552.389 41.0793 552.069 38.5407 551.429 36.1087C550.81 33.6767 549.797 31.2233 548.389 28.7487H554.213C555.557 30.6687 556.581 32.9193 557.285 35.5007C557.989 38.0607 558.341 40.802 558.341 43.7247C558.341 46.6473 557.989 49.3993 557.285 51.9807C556.581 54.5407 555.557 56.7807 554.213 58.7007Z" fill="black"/>
<path d="M255.368 31V10.872L258.088 13.496H251.208V8.6H261.704V31H255.368Z" fill="black"/>
<path d="M247.161 76.712V72.584L257.209 58.6H263.769L254.009 72.584L251.001 71.688H268.505V76.712H247.161ZM259.001 81V76.712L259.193 71.688V67.88H265.177V81H259.001Z" fill="black"/>
<path d="M249 46.328V43H265V46.328H249Z" fill="black"/>
<path d="M461.536 38V35.024L467.824 29.144C468.272 28.728 468.6 28.36 468.808 28.04C469.032 27.72 469.176 27.432 469.24 27.176C469.32 26.904 469.36 26.656 469.36 26.432C469.36 25.888 469.176 25.464 468.808 25.16C468.456 24.856 467.92 24.704 467.2 24.704C466.592 24.704 466.024 24.84 465.496 25.112C464.968 25.384 464.536 25.792 464.2 26.336L460.672 24.368C461.296 23.312 462.2 22.464 463.384 21.824C464.568 21.184 465.984 20.864 467.632 20.864C468.928 20.864 470.064 21.072 471.04 21.488C472.016 21.904 472.776 22.496 473.32 23.264C473.88 24.032 474.16 24.936 474.16 25.976C474.16 26.52 474.088 27.064 473.944 27.608C473.8 28.136 473.52 28.704 473.104 29.312C472.704 29.904 472.104 30.568 471.304 31.304L466.312 35.912L465.52 34.232H474.616V38H461.536Z" fill="black"/>
<path d="M531.536 38V35.024L537.824 29.144C538.272 28.728 538.6 28.36 538.808 28.04C539.032 27.72 539.176 27.432 539.24 27.176C539.32 26.904 539.36 26.656 539.36 26.432C539.36 25.888 539.176 25.464 538.808 25.16C538.456 24.856 537.92 24.704 537.2 24.704C536.592 24.704 536.024 24.84 535.496 25.112C534.968 25.384 534.536 25.792 534.2 26.336L530.672 24.368C531.296 23.312 532.2 22.464 533.384 21.824C534.568 21.184 535.984 20.864 537.632 20.864C538.928 20.864 540.064 21.072 541.04 21.488C542.016 21.904 542.776 22.496 543.32 23.264C543.88 24.032 544.16 24.936 544.16 25.976C544.16 26.52 544.088 27.064 543.944 27.608C543.8 28.136 543.52 28.704 543.104 29.312C542.704 29.904 542.104 30.568 541.304 31.304L536.312 35.912L535.52 34.232H544.616V38H531.536Z" fill="black"/>
<path d="M467.654 272.752V270.328L467.342 269.728V265.264C467.342 264.544 467.118 263.992 466.67 263.608C466.238 263.208 465.542 263.008 464.582 263.008C463.958 263.008 463.326 263.112 462.686 263.32C462.046 263.512 461.502 263.784 461.054 264.136L459.518 261.04C460.254 260.56 461.134 260.192 462.158 259.936C463.198 259.664 464.23 259.528 465.254 259.528C467.366 259.528 468.998 260.016 470.15 260.992C471.318 261.952 471.902 263.464 471.902 265.528V272.752H467.654ZM463.814 272.968C462.774 272.968 461.894 272.792 461.174 272.44C460.454 272.088 459.902 271.608 459.518 271C459.15 270.392 458.966 269.712 458.966 268.96C458.966 268.16 459.166 267.472 459.566 266.896C459.982 266.304 460.614 265.856 461.462 265.552C462.31 265.232 463.406 265.072 464.75 265.072H467.822V267.448H465.374C464.638 267.448 464.118 267.568 463.814 267.808C463.526 268.048 463.382 268.368 463.382 268.768C463.382 269.168 463.534 269.488 463.838 269.728C464.142 269.968 464.558 270.088 465.086 270.088C465.582 270.088 466.03 269.968 466.43 269.728C466.846 269.472 467.15 269.088 467.342 268.576L467.966 270.256C467.726 271.152 467.254 271.832 466.55 272.296C465.862 272.744 464.95 272.968 463.814 272.968Z" fill="black"/>
<path d="M201.873 272.752V270.328L201.561 269.728V265.264C201.561 264.544 201.337 263.992 200.889 263.608C200.457 263.208 199.761 263.008 198.801 263.008C198.177 263.008 197.545 263.112 196.905 263.32C196.265 263.512 195.721 263.784 195.273 264.136L193.737 261.04C194.473 260.56 195.353 260.192 196.377 259.936C197.417 259.664 198.449 259.528 199.473 259.528C201.585 259.528 203.217 260.016 204.369 260.992C205.537 261.952 206.121 263.464 206.121 265.528V272.752H201.873ZM198.033 272.968C196.993 272.968 196.113 272.792 195.393 272.44C194.673 272.088 194.121 271.608 193.737 271C193.369 270.392 193.185 269.712 193.185 268.96C193.185 268.16 193.385 267.472 193.785 266.896C194.201 266.304 194.833 265.856 195.681 265.552C196.529 265.232 197.625 265.072 198.969 265.072H202.041V267.448H199.593C198.857 267.448 198.337 267.568 198.033 267.808C197.745 268.048 197.601 268.368 197.601 268.768C197.601 269.168 197.753 269.488 198.057 269.728C198.361 269.968 198.777 270.088 199.305 270.088C199.801 270.088 200.249 269.968 200.649 269.728C201.065 269.472 201.369 269.088 201.561 268.576L202.185 270.256C201.945 271.152 201.473 271.832 200.769 272.296C200.081 272.744 199.169 272.968 198.033 272.968Z" fill="black"/>
<path d="M338.304 456.353C337.136 456.353 336.16 456.113 335.376 455.633C334.608 455.153 334.032 454.417 333.648 453.425C333.264 452.433 333.072 451.161 333.072 449.609C333.072 448.089 333.272 446.833 333.672 445.841C334.088 444.849 334.688 444.113 335.472 443.633C336.256 443.153 337.2 442.913 338.304 442.913C339.488 442.913 340.56 443.185 341.52 443.729C342.496 444.273 343.264 445.049 343.824 446.057C344.4 447.049 344.688 448.233 344.688 449.609C344.688 451.001 344.4 452.201 343.824 453.209C343.264 454.201 342.496 454.977 341.52 455.537C340.56 456.081 339.488 456.353 338.304 456.353ZM330.12 456.137V438.329H334.68V445.313L334.44 449.609L334.464 453.905V456.137H330.12ZM337.344 452.729C337.856 452.729 338.312 452.609 338.712 452.369C339.128 452.129 339.456 451.777 339.696 451.313C339.952 450.833 340.08 450.265 340.08 449.609C340.08 448.953 339.952 448.401 339.696 447.953C339.456 447.489 339.128 447.137 338.712 446.897C338.312 446.657 337.856 446.537 337.344 446.537C336.832 446.537 336.368 446.657 335.952 446.897C335.552 447.137 335.224 447.489 334.968 447.953C334.728 448.401 334.608 448.953 334.608 449.609C334.608 450.265 334.728 450.833 334.968 451.313C335.224 451.777 335.552 452.129 335.952 452.369C336.368 452.609 336.832 452.729 337.344 452.729Z" fill="black"/>
<path d="M93 419.504H581" stroke="#5FD5E6" stroke-width="4"/>
<path d="M90.1807 419.504L336.325 173.359" stroke="#5FD5E6" stroke-width="4"/>
<path d="M581 419.504L334.564 173.068" stroke="#5FD5E6" stroke-width="4"/>
<path d="M309.58 518.722H316.04V521.782H309.58V518.722ZM309.86 526.582H305.9V512.582H316.88V515.642H309.86V526.582ZM318.552 526.582V515.742H322.352V526.582H318.552ZM320.452 514.542C319.759 514.542 319.199 514.349 318.772 513.962C318.345 513.575 318.132 513.095 318.132 512.522C318.132 511.949 318.345 511.469 318.772 511.082C319.199 510.695 319.759 510.502 320.452 510.502C321.145 510.502 321.705 510.689 322.132 511.062C322.559 511.422 322.772 511.889 322.772 512.462C322.772 513.062 322.559 513.562 322.132 513.962C321.719 514.349 321.159 514.542 320.452 514.542ZM330.122 530.642C329.082 530.642 328.088 530.522 327.142 530.282C326.208 530.042 325.408 529.689 324.742 529.222L326.122 526.562C326.575 526.922 327.135 527.202 327.802 527.402C328.482 527.615 329.142 527.722 329.782 527.722C330.808 527.722 331.548 527.495 332.002 527.042C332.455 526.602 332.682 525.955 332.682 525.102V523.822L332.882 520.782L332.862 517.722V515.742H336.482V524.602C336.482 526.655 335.928 528.175 334.822 529.162C333.715 530.149 332.148 530.642 330.122 530.642ZM329.462 526.022C328.502 526.022 327.615 525.809 326.802 525.382C326.002 524.942 325.355 524.335 324.862 523.562C324.382 522.775 324.142 521.849 324.142 520.782C324.142 519.715 324.382 518.795 324.862 518.022C325.355 517.235 326.002 516.629 326.802 516.202C327.615 515.775 328.502 515.562 329.462 515.562C330.382 515.562 331.168 515.749 331.822 516.122C332.475 516.482 332.968 517.049 333.302 517.822C333.648 518.595 333.822 519.582 333.822 520.782C333.822 521.982 333.648 522.969 333.302 523.742C332.968 524.515 332.475 525.089 331.822 525.462C331.168 525.835 330.382 526.022 329.462 526.022ZM330.362 523.002C330.815 523.002 331.215 522.909 331.562 522.722C331.922 522.535 332.202 522.275 332.402 521.942C332.615 521.609 332.722 521.222 332.722 520.782C332.722 520.342 332.615 519.955 332.402 519.622C332.202 519.289 331.922 519.035 331.562 518.862C331.215 518.675 330.815 518.582 330.362 518.582C329.908 518.582 329.502 518.675 329.142 518.862C328.782 519.035 328.495 519.289 328.282 519.622C328.082 519.955 327.982 520.342 327.982 520.782C327.982 521.222 328.082 521.609 328.282 521.942C328.495 522.275 328.782 522.535 329.142 522.722C329.502 522.909 329.908 523.002 330.362 523.002ZM344.123 526.582V524.102L349.363 519.202C349.737 518.855 350.01 518.549 350.183 518.282C350.37 518.015 350.49 517.775 350.543 517.562C350.61 517.335 350.643 517.129 350.643 516.942C350.643 516.489 350.49 516.135 350.183 515.882C349.89 515.629 349.443 515.502 348.843 515.502C348.337 515.502 347.863 515.615 347.423 515.842C346.983 516.069 346.623 516.409 346.343 516.862L343.403 515.222C343.923 514.342 344.677 513.635 345.663 513.102C346.65 512.569 347.83 512.302 349.203 512.302C350.283 512.302 351.23 512.475 352.043 512.822C352.857 513.169 353.49 513.662 353.943 514.302C354.41 514.942 354.643 515.695 354.643 516.562C354.643 517.015 354.583 517.469 354.463 517.922C354.343 518.362 354.11 518.835 353.763 519.342C353.43 519.835 352.93 520.389 352.263 521.002L348.103 524.842L347.443 523.442H355.023V526.582H344.123ZM358.511 526.762C357.871 526.762 357.331 526.549 356.891 526.122C356.451 525.695 356.231 525.155 356.231 524.502C356.231 523.822 356.451 523.282 356.891 522.882C357.331 522.469 357.871 522.262 358.511 522.262C359.151 522.262 359.691 522.469 360.131 522.882C360.571 523.282 360.791 523.822 360.791 524.502C360.791 525.155 360.571 525.695 360.131 526.122C359.691 526.549 359.151 526.762 358.511 526.762ZM366.911 526.862C365.937 526.862 364.964 526.742 363.991 526.502C363.031 526.262 362.191 525.922 361.471 525.482L362.911 522.502C363.471 522.875 364.091 523.162 364.771 523.362C365.464 523.562 366.137 523.662 366.791 523.662C367.471 523.662 368.011 523.535 368.411 523.282C368.811 523.029 369.011 522.669 369.011 522.202C369.011 521.789 368.844 521.462 368.511 521.222C368.177 520.969 367.631 520.842 366.871 520.842H365.211V518.342L368.971 514.282L369.351 515.642H362.191V512.582H372.311V515.062L368.551 519.122L366.611 518.022H367.691C369.437 518.022 370.757 518.415 371.651 519.202C372.557 519.975 373.011 520.975 373.011 522.202C373.011 523.002 372.791 523.755 372.351 524.462C371.924 525.169 371.264 525.749 370.371 526.202C369.477 526.642 368.324 526.862 366.911 526.862Z" fill="black"/>
</svg>
