<svg width="494" height="441" viewBox="0 0 494 441" fill="none" xmlns="http://www.w3.org/2000/svg">
<path d="M54.9275 31.4927L64.8155 9.09267H71.0555L80.9755 31.4927H74.3836L66.6396 12.1967H69.1355L61.3915 31.4927H54.9275ZM60.3355 27.1407L61.9675 22.4687H72.9116L74.5436 27.1407H60.3355ZM82.4838 31.4927V14.1487H88.2758V19.2047L87.4118 17.7647C87.9238 16.4633 88.7558 15.4927 89.9078 14.8527C91.0598 14.1913 92.4571 13.8607 94.0998 13.8607V19.3327C93.8225 19.29 93.5771 19.2687 93.3638 19.2687C93.1718 19.2473 92.9585 19.2367 92.7238 19.2367C91.4865 19.2367 90.4838 19.578 89.7158 20.2607C88.9478 20.922 88.5638 22.01 88.5638 23.5247V31.4927H82.4838ZM105.541 31.7807C103.493 31.7807 101.701 31.3967 100.165 30.6287C98.6499 29.8393 97.4659 28.7727 96.6125 27.4287C95.7805 26.0633 95.3645 24.5167 95.3645 22.7887C95.3645 21.0607 95.7699 19.5247 96.5805 18.1807C97.4125 16.8153 98.5539 15.7593 100.005 15.0127C101.455 14.2447 103.087 13.8607 104.901 13.8607C106.607 13.8607 108.165 14.2127 109.573 14.9167C110.981 15.5993 112.101 16.6127 112.933 17.9567C113.765 19.3007 114.181 20.9327 114.181 22.8527C114.181 23.066 114.17 23.3113 114.149 23.5887C114.127 23.866 114.106 24.122 114.085 24.3567H100.357V21.1567H110.853L108.549 22.0527C108.57 21.2633 108.421 20.5807 108.101 20.0047C107.802 19.4287 107.375 18.9807 106.821 18.6607C106.287 18.3407 105.658 18.1807 104.933 18.1807C104.207 18.1807 103.567 18.3407 103.013 18.6607C102.479 18.9807 102.063 19.4393 101.765 20.0367C101.466 20.6127 101.317 21.2953 101.317 22.0847V23.0127C101.317 23.866 101.487 24.602 101.829 25.2207C102.191 25.8393 102.703 26.3193 103.365 26.6607C104.026 26.9807 104.815 27.1407 105.733 27.1407C106.586 27.1407 107.311 27.0233 107.909 26.7887C108.527 26.5327 109.135 26.1487 109.733 25.6367L112.933 28.9647C112.101 29.882 111.077 30.586 109.861 31.0767C108.645 31.546 107.205 31.7807 105.541 31.7807ZM127.107 31.4927V28.2607L126.691 27.4607V21.5087C126.691 20.5487 126.392 19.8127 125.795 19.3007C125.219 18.7673 124.291 18.5007 123.011 18.5007C122.179 18.5007 121.336 18.6393 120.483 18.9167C119.63 19.1727 118.904 19.5353 118.307 20.0047L116.259 15.8767C117.24 15.2367 118.414 14.746 119.779 14.4047C121.166 14.042 122.542 13.8607 123.907 13.8607C126.723 13.8607 128.899 14.5113 130.435 15.8127C131.992 17.0927 132.771 19.1087 132.771 21.8607V31.4927H127.107ZM121.987 31.7807C120.6 31.7807 119.427 31.546 118.467 31.0767C117.507 30.6073 116.771 29.9673 116.259 29.1567C115.768 28.346 115.523 27.4393 115.523 26.4367C115.523 25.37 115.79 24.4527 116.323 23.6847C116.878 22.8953 117.72 22.298 118.851 21.8927C119.982 21.466 121.443 21.2527 123.235 21.2527H127.331V24.4207H124.067C123.086 24.4207 122.392 24.5807 121.987 24.9007C121.603 25.2207 121.411 25.6473 121.411 26.1807C121.411 26.714 121.614 27.1407 122.019 27.4607C122.424 27.7807 122.979 27.9407 123.683 27.9407C124.344 27.9407 124.942 27.7807 125.475 27.4607C126.03 27.1193 126.435 26.6073 126.691 25.9247L127.523 28.1647C127.203 29.3593 126.574 30.266 125.635 30.8847C124.718 31.482 123.502 31.7807 121.987 31.7807ZM145.825 18.5647V13.9247H161.601V18.5647H145.825ZM145.825 26.6607V22.0207H161.601V26.6607H145.825ZM194.158 7.74867H199.79L190.19 37.7007H183.886L178.862 22.5967H174.638V17.9567H183.342L187.63 32.0687H186.446L194.158 7.74867ZM207.6 31.7807C206.128 31.7807 204.688 31.61 203.28 31.2687C201.894 30.9273 200.774 30.5007 199.92 29.9887L201.744 25.8287C202.555 26.3193 203.504 26.714 204.592 27.0127C205.68 27.29 206.747 27.4287 207.792 27.4287C208.816 27.4287 209.52 27.322 209.904 27.1087C210.31 26.8953 210.512 26.6073 210.512 26.2447C210.512 25.9033 210.32 25.658 209.936 25.5087C209.574 25.338 209.083 25.21 208.464 25.1247C207.867 25.0393 207.206 24.9433 206.48 24.8367C205.755 24.73 205.019 24.5913 204.272 24.4207C203.547 24.2287 202.875 23.9513 202.256 23.5887C201.659 23.2047 201.179 22.6927 200.816 22.0527C200.454 21.4127 200.272 20.602 200.272 19.6207C200.272 18.5113 200.592 17.53 201.232 16.6767C201.894 15.802 202.854 15.1193 204.112 14.6287C205.371 14.1167 206.907 13.8607 208.72 13.8607C209.936 13.8607 211.163 13.9887 212.4 14.2447C213.659 14.4793 214.715 14.842 215.568 15.3327L213.744 19.4607C212.891 18.97 212.038 18.6393 211.184 18.4687C210.331 18.2767 209.52 18.1807 208.752 18.1807C207.728 18.1807 207.003 18.298 206.576 18.5327C206.171 18.7673 205.968 19.0553 205.968 19.3967C205.968 19.738 206.15 20.0047 206.512 20.1967C206.875 20.3673 207.355 20.506 207.952 20.6127C208.571 20.698 209.243 20.794 209.968 20.9007C210.694 20.986 211.419 21.1247 212.144 21.3167C212.891 21.5087 213.563 21.7967 214.16 22.1807C214.779 22.5433 215.27 23.0447 215.632 23.6847C215.995 24.3033 216.176 25.1033 216.176 26.0847C216.176 27.1513 215.846 28.1113 215.184 28.9647C214.544 29.818 213.584 30.5007 212.304 31.0127C211.046 31.5247 209.478 31.7807 207.6 31.7807ZM222.892 37.7007C221.57 35.7807 220.546 33.5407 219.82 30.9807C219.116 28.3993 218.764 25.6473 218.764 22.7247C218.764 19.802 219.116 17.0607 219.82 14.5007C220.546 11.9193 221.57 9.66868 222.892 7.74867H228.716C227.33 10.2233 226.316 12.6767 225.676 15.1087C225.036 17.5407 224.716 20.0793 224.716 22.7247C224.716 25.37 225.036 27.9087 225.676 30.3407C226.316 32.7727 227.33 35.226 228.716 37.7007H222.892ZM236.913 31.7807C235.441 31.7807 234.001 31.61 232.593 31.2687C231.206 30.9273 230.086 30.5007 229.233 29.9887L231.057 25.8287C231.867 26.3193 232.817 26.714 233.905 27.0127C234.993 27.29 236.059 27.4287 237.105 27.4287C238.129 27.4287 238.833 27.322 239.217 27.1087C239.622 26.8953 239.825 26.6073 239.825 26.2447C239.825 25.9033 239.633 25.658 239.249 25.5087C238.886 25.338 238.395 25.21 237.777 25.1247C237.179 25.0393 236.518 24.9433 235.793 24.8367C235.067 24.73 234.331 24.5913 233.585 24.4207C232.859 24.2287 232.187 23.9513 231.569 23.5887C230.971 23.2047 230.491 22.6927 230.129 22.0527C229.766 21.4127 229.585 20.602 229.585 19.6207C229.585 18.5113 229.905 17.53 230.545 16.6767C231.206 15.802 232.166 15.1193 233.425 14.6287C234.683 14.1167 236.219 13.8607 238.033 13.8607C239.249 13.8607 240.475 13.9887 241.713 14.2447C242.971 14.4793 244.027 14.842 244.881 15.3327L243.057 19.4607C242.203 18.97 241.35 18.6393 240.497 18.4687C239.643 18.2767 238.833 18.1807 238.065 18.1807C237.041 18.1807 236.315 18.298 235.889 18.5327C235.483 18.7673 235.281 19.0553 235.281 19.3967C235.281 19.738 235.462 20.0047 235.825 20.1967C236.187 20.3673 236.667 20.506 237.265 20.6127C237.883 20.698 238.555 20.794 239.281 20.9007C240.006 20.986 240.731 21.1247 241.457 21.3167C242.203 21.5087 242.875 21.7967 243.473 22.1807C244.091 22.5433 244.582 23.0447 244.945 23.6847C245.307 24.3033 245.489 25.1033 245.489 26.0847C245.489 27.1513 245.158 28.1113 244.497 28.9647C243.857 29.818 242.897 30.5007 241.617 31.0127C240.358 31.5247 238.79 31.7807 236.913 31.7807ZM247.693 24.7087V20.0367H257.037V24.7087H247.693ZM271.107 31.4927V28.2607L270.691 27.4607V21.5087C270.691 20.5487 270.392 19.8127 269.795 19.3007C269.219 18.7673 268.291 18.5007 267.011 18.5007C266.179 18.5007 265.336 18.6393 264.483 18.9167C263.63 19.1727 262.904 19.5353 262.307 20.0047L260.259 15.8767C261.24 15.2367 262.414 14.746 263.779 14.4047C265.166 14.042 266.542 13.8607 267.907 13.8607C270.723 13.8607 272.899 14.5113 274.435 15.8127C275.992 17.0927 276.771 19.1087 276.771 21.8607V31.4927H271.107ZM265.987 31.7807C264.6 31.7807 263.427 31.546 262.467 31.0767C261.507 30.6073 260.771 29.9673 260.259 29.1567C259.768 28.346 259.523 27.4393 259.523 26.4367C259.523 25.37 259.79 24.4527 260.323 23.6847C260.878 22.8953 261.72 22.298 262.851 21.8927C263.982 21.466 265.443 21.2527 267.235 21.2527H271.331V24.4207H268.067C267.086 24.4207 266.392 24.5807 265.987 24.9007C265.603 25.2207 265.411 25.6473 265.411 26.1807C265.411 26.714 265.614 27.1407 266.019 27.4607C266.424 27.7807 266.979 27.9407 267.683 27.9407C268.344 27.9407 268.942 27.7807 269.475 27.4607C270.03 27.1193 270.435 26.6073 270.691 25.9247L271.523 28.1647C271.203 29.3593 270.574 30.266 269.635 30.8847C268.718 31.482 267.502 31.7807 265.987 31.7807ZM284.417 37.7007H278.593C280.001 35.226 281.014 32.7727 281.633 30.3407C282.273 27.9087 282.593 25.37 282.593 22.7247C282.593 20.0793 282.273 17.5407 281.633 15.1087C281.014 12.6767 280.001 10.2233 278.593 7.74867H284.417C285.761 9.66868 286.785 11.9193 287.489 14.5007C288.193 17.0607 288.545 19.802 288.545 22.7247C288.545 25.6473 288.193 28.3993 287.489 30.9807C286.785 33.5407 285.761 35.7807 284.417 37.7007ZM296.517 37.7007C295.195 35.7807 294.171 33.5407 293.445 30.9807C292.741 28.3993 292.389 25.6473 292.389 22.7247C292.389 19.802 292.741 17.0607 293.445 14.5007C294.171 11.9193 295.195 9.66868 296.517 7.74867H302.341C300.955 10.2233 299.941 12.6767 299.301 15.1087C298.661 17.5407 298.341 20.0793 298.341 22.7247C298.341 25.37 298.661 27.9087 299.301 30.3407C299.941 32.7727 300.955 35.226 302.341 37.7007H296.517ZM310.538 31.7807C309.066 31.7807 307.626 31.61 306.218 31.2687C304.831 30.9273 303.711 30.5007 302.858 29.9887L304.682 25.8287C305.492 26.3193 306.442 26.714 307.53 27.0127C308.618 27.29 309.684 27.4287 310.73 27.4287C311.754 27.4287 312.458 27.322 312.842 27.1087C313.247 26.8953 313.45 26.6073 313.45 26.2447C313.45 25.9033 313.258 25.658 312.874 25.5087C312.511 25.338 312.02 25.21 311.402 25.1247C310.804 25.0393 310.143 24.9433 309.418 24.8367C308.692 24.73 307.956 24.5913 307.21 24.4207C306.484 24.2287 305.812 23.9513 305.194 23.5887C304.596 23.2047 304.116 22.6927 303.754 22.0527C303.391 21.4127 303.21 20.602 303.21 19.6207C303.21 18.5113 303.53 17.53 304.17 16.6767C304.831 15.802 305.791 15.1193 307.05 14.6287C308.308 14.1167 309.844 13.8607 311.658 13.8607C312.874 13.8607 314.1 13.9887 315.338 14.2447C316.596 14.4793 317.652 14.842 318.506 15.3327L316.682 19.4607C315.828 18.97 314.975 18.6393 314.122 18.4687C313.268 18.2767 312.458 18.1807 311.69 18.1807C310.666 18.1807 309.94 18.298 309.514 18.5327C309.108 18.7673 308.906 19.0553 308.906 19.3967C308.906 19.738 309.087 20.0047 309.45 20.1967C309.812 20.3673 310.292 20.506 310.89 20.6127C311.508 20.698 312.18 20.794 312.906 20.9007C313.631 20.986 314.356 21.1247 315.082 21.3167C315.828 21.5087 316.5 21.7967 317.098 22.1807C317.716 22.5433 318.207 23.0447 318.57 23.6847C318.932 24.3033 319.114 25.1033 319.114 26.0847C319.114 27.1513 318.783 28.1113 318.122 28.9647C317.482 29.818 316.522 30.5007 315.242 31.0127C313.983 31.5247 312.415 31.7807 310.538 31.7807ZM321.318 24.7087V20.0367H330.662V24.7087H321.318ZM345.052 31.7807C343.495 31.7807 342.193 31.4607 341.148 30.8207C340.124 30.1807 339.356 29.1993 338.844 27.8767C338.332 26.554 338.076 24.858 338.076 22.7887C338.076 20.762 338.343 19.0873 338.876 17.7647C339.431 16.442 340.231 15.4607 341.276 14.8207C342.321 14.1807 343.58 13.8607 345.052 13.8607C346.631 13.8607 348.06 14.2233 349.34 14.9487C350.641 15.674 351.665 16.7087 352.412 18.0527C353.18 19.3753 353.564 20.954 353.564 22.7887C353.564 24.6447 353.18 26.2447 352.412 27.5887C351.665 28.9113 350.641 29.946 349.34 30.6927C348.06 31.418 346.631 31.7807 345.052 31.7807ZM334.14 31.4927V7.74867H340.22V17.0607L339.9 22.7887L339.932 28.5167V31.4927H334.14ZM343.772 26.9487C344.455 26.9487 345.063 26.7887 345.596 26.4687C346.151 26.1487 346.588 25.6793 346.908 25.0607C347.249 24.4207 347.42 23.6633 347.42 22.7887C347.42 21.914 347.249 21.178 346.908 20.5807C346.588 19.962 346.151 19.4927 345.596 19.1727C345.063 18.8527 344.455 18.6927 343.772 18.6927C343.089 18.6927 342.471 18.8527 341.916 19.1727C341.383 19.4927 340.945 19.962 340.604 20.5807C340.284 21.178 340.124 21.914 340.124 22.7887C340.124 23.6633 340.284 24.4207 340.604 25.0607C340.945 25.6793 341.383 26.1487 341.916 26.4687C342.471 26.7887 343.089 26.9487 343.772 26.9487ZM360.198 37.7007H354.374C355.782 35.226 356.795 32.7727 357.414 30.3407C358.054 27.9087 358.374 25.37 358.374 22.7247C358.374 20.0793 358.054 17.5407 357.414 15.1087C356.795 12.6767 355.782 10.2233 354.374 7.74867H360.198C361.542 9.66868 362.566 11.9193 363.27 14.5007C363.974 17.0607 364.326 19.802 364.326 22.7247C364.326 25.6473 363.974 28.3993 363.27 30.9807C362.566 33.5407 361.542 35.7807 360.198 37.7007ZM372.299 37.7007C370.976 35.7807 369.952 33.5407 369.227 30.9807C368.523 28.3993 368.171 25.6473 368.171 22.7247C368.171 19.802 368.523 17.0607 369.227 14.5007C369.952 11.9193 370.976 9.66868 372.299 7.74867H378.123C376.736 10.2233 375.723 12.6767 375.083 15.1087C374.443 17.5407 374.123 20.0793 374.123 22.7247C374.123 25.37 374.443 27.9087 375.083 30.3407C375.723 32.7727 376.736 35.226 378.123 37.7007H372.299ZM386.319 31.7807C384.847 31.7807 383.407 31.61 381.999 31.2687C380.612 30.9273 379.492 30.5007 378.639 29.9887L380.463 25.8287C381.274 26.3193 382.223 26.714 383.311 27.0127C384.399 27.29 385.466 27.4287 386.511 27.4287C387.535 27.4287 388.239 27.322 388.623 27.1087C389.028 26.8953 389.231 26.6073 389.231 26.2447C389.231 25.9033 389.039 25.658 388.655 25.5087C388.292 25.338 387.802 25.21 387.183 25.1247C386.586 25.0393 385.924 24.9433 385.199 24.8367C384.474 24.73 383.738 24.5913 382.991 24.4207C382.266 24.2287 381.594 23.9513 380.975 23.5887C380.378 23.2047 379.898 22.6927 379.535 22.0527C379.172 21.4127 378.991 20.602 378.991 19.6207C378.991 18.5113 379.311 17.53 379.951 16.6767C380.612 15.802 381.572 15.1193 382.831 14.6287C384.09 14.1167 385.626 13.8607 387.439 13.8607C388.655 13.8607 389.882 13.9887 391.119 14.2447C392.378 14.4793 393.434 14.842 394.287 15.3327L392.463 19.4607C391.61 18.97 390.756 18.6393 389.903 18.4687C389.05 18.2767 388.239 18.1807 387.471 18.1807C386.447 18.1807 385.722 18.298 385.295 18.5327C384.89 18.7673 384.687 19.0553 384.687 19.3967C384.687 19.738 384.868 20.0047 385.231 20.1967C385.594 20.3673 386.074 20.506 386.671 20.6127C387.29 20.698 387.962 20.794 388.687 20.9007C389.412 20.986 390.138 21.1247 390.863 21.3167C391.61 21.5087 392.282 21.7967 392.879 22.1807C393.498 22.5433 393.988 23.0447 394.351 23.6847C394.714 24.3033 394.895 25.1033 394.895 26.0847C394.895 27.1513 394.564 28.1113 393.903 28.9647C393.263 29.818 392.303 30.5007 391.023 31.0127C389.764 31.5247 388.196 31.7807 386.319 31.7807ZM397.099 24.7087V20.0367H406.443V24.7087H397.099ZM419.098 31.7807C417.178 31.7807 415.46 31.3967 413.946 30.6287C412.452 29.8607 411.279 28.8047 410.426 27.4607C409.572 26.0953 409.146 24.538 409.146 22.7887C409.146 21.0393 409.572 19.4927 410.426 18.1487C411.279 16.8047 412.452 15.7593 413.946 15.0127C415.46 14.2447 417.178 13.8607 419.098 13.8607C421.06 13.8607 422.756 14.2767 424.186 15.1087C425.615 15.9407 426.628 17.114 427.226 18.6287L422.522 21.0287C422.116 20.218 421.615 19.6313 421.018 19.2687C420.42 18.8847 419.77 18.6927 419.066 18.6927C418.362 18.6927 417.722 18.8527 417.146 19.1727C416.57 19.4927 416.111 19.962 415.77 20.5807C415.45 21.178 415.29 21.914 415.29 22.7887C415.29 23.6847 415.45 24.442 415.77 25.0607C416.111 25.6793 416.57 26.1487 417.146 26.4687C417.722 26.7887 418.362 26.9487 419.066 26.9487C419.77 26.9487 420.42 26.7673 421.018 26.4047C421.615 26.0207 422.116 25.4233 422.522 24.6127L427.226 27.0127C426.628 28.5273 425.615 29.7007 424.186 30.5327C422.756 31.3647 421.06 31.7807 419.098 31.7807ZM432.573 37.7007H426.749C428.157 35.226 429.17 32.7727 429.789 30.3407C430.429 27.9087 430.749 25.37 430.749 22.7247C430.749 20.0793 430.429 17.5407 429.789 15.1087C429.17 12.6767 428.157 10.2233 426.749 7.74867H432.573C433.917 9.66868 434.941 11.9193 435.645 14.5007C436.349 17.0607 436.701 19.802 436.701 22.7247C436.701 25.6473 436.349 28.3993 435.645 30.9807C434.941 33.5407 433.917 35.7807 432.573 37.7007Z" fill="black"/>
<path d="M314.48 213.252V210.828L314.168 210.228V205.764C314.168 205.044 313.944 204.492 313.496 204.108C313.064 203.708 312.368 203.508 311.408 203.508C310.784 203.508 310.152 203.612 309.512 203.82C308.872 204.012 308.328 204.284 307.88 204.636L306.344 201.54C307.08 201.06 307.96 200.692 308.984 200.436C310.024 200.164 311.056 200.028 312.08 200.028C314.192 200.028 315.824 200.516 316.976 201.492C318.144 202.452 318.728 203.964 318.728 206.028V213.252H314.48ZM310.64 213.468C309.6 213.468 308.72 213.292 308 212.94C307.28 212.588 306.728 212.108 306.344 211.5C305.976 210.892 305.792 210.212 305.792 209.46C305.792 208.66 305.992 207.972 306.392 207.396C306.808 206.804 307.44 206.356 308.288 206.052C309.136 205.732 310.232 205.572 311.576 205.572H314.648V207.948H312.2C311.464 207.948 310.944 208.068 310.64 208.308C310.352 208.548 310.208 208.868 310.208 209.268C310.208 209.668 310.36 209.988 310.664 210.228C310.968 210.468 311.384 210.588 311.912 210.588C312.408 210.588 312.856 210.468 313.256 210.228C313.672 209.972 313.976 209.588 314.168 209.076L314.792 210.756C314.552 211.652 314.08 212.332 313.376 212.796C312.688 213.244 311.776 213.468 310.64 213.468Z" fill="black"/>
<path d="M72.7907 221.968C71.3507 221.968 70.0627 221.68 68.9267 221.104C67.8067 220.528 66.9267 219.736 66.2867 218.728C65.6467 217.704 65.3267 216.536 65.3267 215.224C65.3267 213.912 65.6467 212.752 66.2867 211.744C66.9267 210.736 67.8067 209.952 68.9267 209.392C70.0627 208.816 71.3507 208.528 72.7907 208.528C74.2627 208.528 75.5347 208.84 76.6067 209.464C77.6787 210.088 78.4387 210.968 78.8867 212.104L75.3587 213.904C75.0547 213.296 74.6787 212.856 74.2307 212.584C73.7827 212.296 73.2947 212.152 72.7667 212.152C72.2387 212.152 71.7587 212.272 71.3267 212.512C70.8947 212.752 70.5507 213.104 70.2947 213.568C70.0547 214.016 69.9347 214.568 69.9347 215.224C69.9347 215.896 70.0547 216.464 70.2947 216.928C70.5507 217.392 70.8947 217.744 71.3267 217.984C71.7587 218.224 72.2387 218.344 72.7667 218.344C73.2947 218.344 73.7827 218.208 74.2307 217.936C74.6787 217.648 75.0547 217.2 75.3587 216.592L78.8867 218.392C78.4387 219.528 77.6787 220.408 76.6067 221.032C75.5347 221.656 74.2627 221.968 72.7907 221.968Z" fill="black"/>
<path d="M249.713 365.353C248.545 365.353 247.569 365.113 246.785 364.633C246.017 364.153 245.441 363.417 245.057 362.425C244.673 361.433 244.481 360.161 244.481 358.609C244.481 357.089 244.681 355.833 245.081 354.841C245.497 353.849 246.097 353.113 246.881 352.633C247.665 352.153 248.609 351.913 249.713 351.913C250.897 351.913 251.969 352.185 252.929 352.729C253.905 353.273 254.673 354.049 255.233 355.057C255.809 356.049 256.097 357.233 256.097 358.609C256.097 360.001 255.809 361.201 255.233 362.209C254.673 363.201 253.905 363.977 252.929 364.537C251.969 365.081 250.897 365.353 249.713 365.353ZM241.529 365.137V347.329H246.089V354.313L245.849 358.609L245.873 362.905V365.137H241.529ZM248.753 361.729C249.265 361.729 249.721 361.609 250.121 361.369C250.537 361.129 250.865 360.777 251.105 360.313C251.361 359.833 251.489 359.265 251.489 358.609C251.489 357.953 251.361 357.401 251.105 356.953C250.865 356.489 250.537 356.137 250.121 355.897C249.721 355.657 249.265 355.537 248.753 355.537C248.241 355.537 247.777 355.657 247.361 355.897C246.961 356.137 246.633 356.489 246.377 356.953C246.137 357.401 246.017 357.953 246.017 358.609C246.017 359.265 246.137 359.833 246.377 360.313C246.633 360.777 246.961 361.129 247.361 361.369C247.777 361.609 248.241 361.729 248.753 361.729Z" fill="black"/>
<path d="M4.40918 328.504H492.409" stroke="#5FD5E6" stroke-width="4"/>
<path d="M1.58984 328.504L162.59 149.643" stroke="#5FD5E6" stroke-width="4"/>
<path d="M492.409 328.504L162.59 149.644" stroke="#5FD5E6" stroke-width="4"/>
<path d="M219.58 427.722H226.04V430.782H219.58V427.722ZM219.86 435.582H215.9V421.582H226.88V424.642H219.86V435.582ZM228.552 435.582V424.742H232.352V435.582H228.552ZM230.452 423.542C229.759 423.542 229.199 423.349 228.772 422.962C228.345 422.575 228.132 422.095 228.132 421.522C228.132 420.949 228.345 420.469 228.772 420.082C229.199 419.695 229.759 419.502 230.452 419.502C231.145 419.502 231.705 419.689 232.132 420.062C232.559 420.422 232.772 420.889 232.772 421.462C232.772 422.062 232.559 422.562 232.132 422.962C231.719 423.349 231.159 423.542 230.452 423.542ZM240.122 439.642C239.082 439.642 238.088 439.522 237.142 439.282C236.208 439.042 235.408 438.689 234.742 438.222L236.122 435.562C236.575 435.922 237.135 436.202 237.802 436.402C238.482 436.615 239.142 436.722 239.782 436.722C240.808 436.722 241.548 436.495 242.002 436.042C242.455 435.602 242.682 434.955 242.682 434.102V432.822L242.882 429.782L242.862 426.722V424.742H246.482V433.602C246.482 435.655 245.928 437.175 244.822 438.162C243.715 439.149 242.148 439.642 240.122 439.642ZM239.462 435.022C238.502 435.022 237.615 434.809 236.802 434.382C236.002 433.942 235.355 433.335 234.862 432.562C234.382 431.775 234.142 430.849 234.142 429.782C234.142 428.715 234.382 427.795 234.862 427.022C235.355 426.235 236.002 425.629 236.802 425.202C237.615 424.775 238.502 424.562 239.462 424.562C240.382 424.562 241.168 424.749 241.822 425.122C242.475 425.482 242.968 426.049 243.302 426.822C243.648 427.595 243.822 428.582 243.822 429.782C243.822 430.982 243.648 431.969 243.302 432.742C242.968 433.515 242.475 434.089 241.822 434.462C241.168 434.835 240.382 435.022 239.462 435.022ZM240.362 432.002C240.815 432.002 241.215 431.909 241.562 431.722C241.922 431.535 242.202 431.275 242.402 430.942C242.615 430.609 242.722 430.222 242.722 429.782C242.722 429.342 242.615 428.955 242.402 428.622C242.202 428.289 241.922 428.035 241.562 427.862C241.215 427.675 240.815 427.582 240.362 427.582C239.908 427.582 239.502 427.675 239.142 427.862C238.782 428.035 238.495 428.289 238.282 428.622C238.082 428.955 237.982 429.342 237.982 429.782C237.982 430.222 238.082 430.609 238.282 430.942C238.495 431.275 238.782 431.535 239.142 431.722C239.502 431.909 239.908 432.002 240.362 432.002ZM254.123 435.582V433.102L259.363 428.202C259.737 427.855 260.01 427.549 260.183 427.282C260.37 427.015 260.49 426.775 260.543 426.562C260.61 426.335 260.643 426.129 260.643 425.942C260.643 425.489 260.49 425.135 260.183 424.882C259.89 424.629 259.443 424.502 258.843 424.502C258.337 424.502 257.863 424.615 257.423 424.842C256.983 425.069 256.623 425.409 256.343 425.862L253.403 424.222C253.923 423.342 254.677 422.635 255.663 422.102C256.65 421.569 257.83 421.302 259.203 421.302C260.283 421.302 261.23 421.475 262.043 421.822C262.857 422.169 263.49 422.662 263.943 423.302C264.41 423.942 264.643 424.695 264.643 425.562C264.643 426.015 264.583 426.469 264.463 426.922C264.343 427.362 264.11 427.835 263.763 428.342C263.43 428.835 262.93 429.389 262.263 430.002L258.103 433.842L257.443 432.442H265.023V435.582H254.123ZM268.511 435.762C267.871 435.762 267.331 435.549 266.891 435.122C266.451 434.695 266.231 434.155 266.231 433.502C266.231 432.822 266.451 432.282 266.891 431.882C267.331 431.469 267.871 431.262 268.511 431.262C269.151 431.262 269.691 431.469 270.131 431.882C270.571 432.282 270.791 432.822 270.791 433.502C270.791 434.155 270.571 434.695 270.131 435.122C269.691 435.549 269.151 435.762 268.511 435.762ZM271.993 432.902V430.322L278.273 421.582H282.373L276.273 430.322L274.393 429.762H285.333V432.902H271.993ZM279.393 435.582V432.902L279.513 429.762V427.382H283.253V435.582H279.393Z" fill="black"/>
</svg>
