<svg width="858" height="526" viewBox="0 0 858 526" fill="none" xmlns="http://www.w3.org/2000/svg">
<path d="M268.473 324.641L248.702 320.047" stroke="#FA6C32" stroke-width="4"/>
<path d="M268.473 324.641L267.586 345.273" stroke="#FA6C32" stroke-width="4"/>
<path d="M261.851 292.483L242.08 287.888" stroke="#FA6C32" stroke-width="4"/>
<path d="M261.851 292.483L260.964 313.115" stroke="#FA6C32" stroke-width="4"/>
<path d="M253.993 262.825L234.222 258.23" stroke="#FA6C32" stroke-width="4"/>
<path d="M253.993 262.825L253.106 283.457" stroke="#FA6C32" stroke-width="4"/>
<path d="M379 0V416" stroke="#FA6C32" stroke-width="4"/>
<path d="M379 214L196 398" stroke="#FA6C32" stroke-width="4"/>
<path d="M379 177L196 358" stroke="#FA6C32" stroke-width="4"/>
<path d="M379 141L196 323" stroke="#FA6C32" stroke-width="4"/>
<rect x="379" width="407" height="416" fill="#FEDCCE"/>
<path d="M379 143L596 110" stroke="#FA6C32" stroke-width="4"/>
<path d="M379 180L595 147" stroke="#FA6C32" stroke-width="4"/>
<path d="M379 217L593 180" stroke="#FA6C32" stroke-width="4"/>
<path d="M489.337 197.84L473.486 185.162" stroke="#FA6C32" stroke-width="4"/>
<path d="M489.337 197.84L479.631 216.068" stroke="#FA6C32" stroke-width="4"/>
<path d="M465.705 166.934L449.854 154.255" stroke="#FA6C32" stroke-width="4"/>
<path d="M465.705 166.934L455.998 185.162" stroke="#FA6C32" stroke-width="4"/>
<path d="M484.528 126.178L468.677 113.499" stroke="#FA6C32" stroke-width="4"/>
<path d="M484.528 126.178L474.821 144.406" stroke="#FA6C32" stroke-width="4"/>
<path d="M379 219H399" stroke="#FA6C32" stroke-width="2"/>
<path d="M409 219H429" stroke="#FA6C32" stroke-width="2"/>
<path d="M439 219H459" stroke="#FA6C32" stroke-width="2"/>
<path d="M469 219H489" stroke="#FA6C32" stroke-width="2"/>
<path d="M499 219H519" stroke="#FA6C32" stroke-width="2"/>
<path d="M529 219H549" stroke="#FA6C32" stroke-width="2"/>
<path d="M559 219H579" stroke="#FA6C32" stroke-width="2"/>
<path d="M589 219H609" stroke="#FA6C32" stroke-width="2"/>
<path d="M619 219H639" stroke="#FA6C32" stroke-width="2"/>
<path d="M296.918 139.997C297.468 140.042 297.951 139.632 297.997 139.082L298.735 130.112C298.781 129.562 298.371 129.079 297.821 129.034C297.27 128.988 296.787 129.398 296.742 129.948L296.085 137.921L288.112 137.265C287.562 137.219 287.079 137.629 287.034 138.179C286.988 138.73 287.398 139.213 287.948 139.258L296.918 139.997ZM258 93L258.763 92.3533L258.463 92H258V93ZM297.763 138.353L258.763 92.3533L257.237 93.6467L296.237 139.647L297.763 138.353ZM258 92H206V94H258V92Z" fill="black"/>
<path d="M244.869 351.505C244.596 351.025 243.985 350.858 243.505 351.131L235.684 355.583C235.204 355.856 235.036 356.467 235.309 356.947C235.583 357.427 236.193 357.595 236.673 357.321L243.626 353.364L247.583 360.316C247.856 360.796 248.467 360.964 248.947 360.691C249.427 360.417 249.595 359.807 249.321 359.327L244.869 351.505ZM230 403L230.358 403.934L230.83 403.752L230.964 403.265L230 403ZM243.036 351.735L229.036 402.735L230.964 403.265L244.964 352.265L243.036 351.735ZM229.642 402.066L143.642 435.066L144.358 436.934L230.358 403.934L229.642 402.066Z" fill="black"/>
<path d="M552.257 368.034C551.723 367.892 551.176 368.209 551.034 368.743L548.72 377.44C548.578 377.974 548.895 378.522 549.429 378.664C549.963 378.806 550.51 378.488 550.652 377.955L552.709 370.223L560.44 372.28C560.974 372.422 561.522 372.105 561.664 371.571C561.806 371.037 561.488 370.49 560.955 370.348L552.257 368.034ZM592 438L591.135 438.502L591.424 439H592V438ZM551.135 369.502L591.135 438.502L592.865 437.498L552.865 368.498L551.135 369.502ZM592 439H624V437H592V439Z" fill="black"/>
<path d="M568 220C567.448 220 567 220.448 567 221V230C567 230.552 567.448 231 568 231C568.552 231 569 230.552 569 230V222H577C577.552 222 578 221.552 578 221C578 220.448 577.552 220 577 220H568ZM594 247L593.293 247.707L593.586 248H594V247ZM567.293 221.707L593.293 247.707L594.707 246.293L568.707 220.293L567.293 221.707ZM594 248H643V246H594V248Z" fill="black"/>
<path d="M537.086 118.406C537.31 118.911 537.901 119.138 538.406 118.914L546.63 115.259C547.135 115.034 547.362 114.443 547.138 113.939C546.914 113.434 546.323 113.207 545.818 113.431L538.508 116.68L535.259 109.37C535.034 108.865 534.443 108.638 533.939 108.862C533.434 109.086 533.207 109.677 533.431 110.182L537.086 118.406ZM558 66L557.76 65.0292L557.254 65.1543L557.067 65.641L558 66ZM538.933 118.359L558.933 66.359L557.067 65.641L537.067 117.641L538.933 118.359ZM558.24 66.9708L643.24 45.9708L642.76 44.0292L557.76 65.0292L558.24 66.9708Z" fill="black"/>
<path d="M52.6898 100V86H58.1498C59.3765 86 60.4232 86.1933 61.2898 86.58C62.1565 86.9667 62.8232 87.5267 63.2898 88.26C63.7565 88.9933 63.9898 89.8667 63.9898 90.88C63.9898 91.8933 63.7565 92.7667 63.2898 93.5C62.8232 94.22 62.1565 94.7733 61.2898 95.16C60.4232 95.5467 59.3765 95.74 58.1498 95.74H53.7898L54.6898 94.82V100H52.6898ZM62.0498 100L58.4898 94.92H60.6298L64.2298 100H62.0498ZM54.6898 95.02L53.7898 94.04H58.0898C59.3698 94.04 60.3365 93.7667 60.9898 93.22C61.6565 92.66 61.9898 91.88 61.9898 90.88C61.9898 89.88 61.6565 89.1067 60.9898 88.56C60.3365 88.0133 59.3698 87.74 58.0898 87.74H53.7898L54.6898 86.74V95.02ZM73.4234 100V97.76L73.3234 97.34V93.52C73.3234 92.7067 73.0834 92.08 72.6034 91.64C72.1368 91.1867 71.4301 90.96 70.4834 90.96C69.8568 90.96 69.2434 91.0667 68.6434 91.28C68.0434 91.48 67.5368 91.7533 67.1234 92.1L66.3234 90.66C66.8701 90.22 67.5234 89.8867 68.2834 89.66C69.0568 89.42 69.8634 89.3 70.7034 89.3C72.1568 89.3 73.2768 89.6533 74.0634 90.36C74.8501 91.0667 75.2434 92.1467 75.2434 93.6V100H73.4234ZM69.9434 100.12C69.1568 100.12 68.4634 99.9867 67.8634 99.72C67.2768 99.4533 66.8234 99.0867 66.5034 98.62C66.1834 98.14 66.0234 97.6 66.0234 97C66.0234 96.4267 66.1568 95.9067 66.4234 95.44C66.7034 94.9733 67.1501 94.6 67.7634 94.32C68.3901 94.04 69.2301 93.9 70.2834 93.9H73.6434V95.28H70.3634C69.4034 95.28 68.7568 95.44 68.4234 95.76C68.0901 96.08 67.9234 96.4667 67.9234 96.92C67.9234 97.44 68.1301 97.86 68.5434 98.18C68.9568 98.4867 69.5301 98.64 70.2634 98.64C70.9834 98.64 71.6101 98.48 72.1434 98.16C72.6901 97.84 73.0834 97.3733 73.3234 96.76L73.7034 98.08C73.4501 98.7067 73.0034 99.2067 72.3634 99.58C71.7234 99.94 70.9168 100.12 69.9434 100.12ZM78.7966 100V89.4H80.6366V92.28L80.4566 91.56C80.7499 90.8267 81.2432 90.2667 81.9366 89.88C82.6299 89.4933 83.4832 89.3 84.4966 89.3V91.16C84.4166 91.1467 84.3366 91.14 84.2566 91.14C84.1899 91.14 84.1232 91.14 84.0566 91.14C83.0299 91.14 82.2166 91.4467 81.6166 92.06C81.0166 92.6733 80.7166 93.56 80.7166 94.72V100H78.7966ZM91.4853 100.12C90.352 100.12 89.352 99.8867 88.4853 99.42C87.632 98.9533 86.9653 98.3133 86.4853 97.5C86.0186 96.6867 85.7853 95.7533 85.7853 94.7C85.7853 93.6467 86.012 92.7133 86.4653 91.9C86.932 91.0867 87.5653 90.4533 88.3653 90C89.1786 89.5333 90.092 89.3 91.1053 89.3C92.132 89.3 93.0386 89.5267 93.8253 89.98C94.612 90.4333 95.2253 91.0733 95.6653 91.9C96.1186 92.7133 96.3453 93.6667 96.3453 94.76C96.3453 94.84 96.3386 94.9333 96.3253 95.04C96.3253 95.1467 96.3186 95.2467 96.3053 95.34H87.2853V93.96H95.3053L94.5253 94.44C94.5386 93.76 94.3986 93.1533 94.1053 92.62C93.812 92.0867 93.4053 91.6733 92.8853 91.38C92.3786 91.0733 91.7853 90.92 91.1053 90.92C90.4386 90.92 89.8453 91.0733 89.3253 91.38C88.8053 91.6733 88.3986 92.0933 88.1053 92.64C87.812 93.1733 87.6653 93.7867 87.6653 94.48V94.8C87.6653 95.5067 87.8253 96.14 88.1453 96.7C88.4786 97.2467 88.9386 97.6733 89.5253 97.98C90.112 98.2867 90.7853 98.44 91.5453 98.44C92.172 98.44 92.7386 98.3333 93.2453 98.12C93.7653 97.9067 94.2186 97.5867 94.6053 97.16L95.6653 98.4C95.1853 98.96 94.5853 99.3867 93.8653 99.68C93.1586 99.9733 92.3653 100.12 91.4853 100.12ZM99.0114 100V89.4H100.851V92.28L100.671 91.56C100.965 90.8267 101.458 90.2667 102.151 89.88C102.845 89.4933 103.698 89.3 104.711 89.3V91.16C104.631 91.1467 104.551 91.14 104.471 91.14C104.405 91.14 104.338 91.14 104.271 91.14C103.245 91.14 102.431 91.4467 101.831 92.06C101.231 92.6733 100.931 93.56 100.931 94.72V100H99.0114ZM112.866 100V86H114.506L120.786 96.58H119.906L126.106 86H127.746L127.766 100H125.846L125.826 89.02H126.286L120.766 98.3H119.846L114.286 89.02H114.786V100H112.866ZM136.407 100.12C135.274 100.12 134.274 99.8867 133.407 99.42C132.554 98.9533 131.887 98.3133 131.407 97.5C130.941 96.6867 130.707 95.7533 130.707 94.7C130.707 93.6467 130.934 92.7133 131.387 91.9C131.854 91.0867 132.487 90.4533 133.287 90C134.101 89.5333 135.014 89.3 136.027 89.3C137.054 89.3 137.961 89.5267 138.747 89.98C139.534 90.4333 140.147 91.0733 140.587 91.9C141.041 92.7133 141.267 93.6667 141.267 94.76C141.267 94.84 141.261 94.9333 141.247 95.04C141.247 95.1467 141.241 95.2467 141.227 95.34H132.207V93.96H140.227L139.447 94.44C139.461 93.76 139.321 93.1533 139.027 92.62C138.734 92.0867 138.327 91.6733 137.807 91.38C137.301 91.0733 136.707 90.92 136.027 90.92C135.361 90.92 134.767 91.0733 134.247 91.38C133.727 91.6733 133.321 92.0933 133.027 92.64C132.734 93.1733 132.587 93.7867 132.587 94.48V94.8C132.587 95.5067 132.747 96.14 133.067 96.7C133.401 97.2467 133.861 97.6733 134.447 97.98C135.034 98.2867 135.707 98.44 136.467 98.44C137.094 98.44 137.661 98.3333 138.167 98.12C138.687 97.9067 139.141 97.5867 139.527 97.16L140.587 98.4C140.107 98.96 139.507 99.3867 138.787 99.68C138.081 99.9733 137.287 100.12 136.407 100.12ZM148.313 100.12C147.287 100.12 146.367 99.8933 145.553 99.44C144.753 98.9867 144.12 98.3533 143.653 97.54C143.187 96.7267 142.953 95.78 142.953 94.7C142.953 93.62 143.187 92.68 143.653 91.88C144.12 91.0667 144.753 90.4333 145.553 89.98C146.367 89.5267 147.287 89.3 148.313 89.3C149.207 89.3 150.013 89.5 150.733 89.9C151.453 90.3 152.027 90.9 152.453 91.7C152.893 92.5 153.113 93.5 153.113 94.7C153.113 95.9 152.9 96.9 152.473 97.7C152.06 98.5 151.493 99.1067 150.773 99.52C150.053 99.92 149.233 100.12 148.313 100.12ZM148.473 98.44C149.14 98.44 149.74 98.2867 150.273 97.98C150.82 97.6733 151.247 97.24 151.553 96.68C151.873 96.1067 152.033 95.4467 152.033 94.7C152.033 93.94 151.873 93.2867 151.553 92.74C151.247 92.18 150.82 91.7467 150.273 91.44C149.74 91.1333 149.14 90.98 148.473 90.98C147.793 90.98 147.187 91.1333 146.653 91.44C146.12 91.7467 145.693 92.18 145.373 92.74C145.053 93.2867 144.893 93.94 144.893 94.7C144.893 95.4467 145.053 96.1067 145.373 96.68C145.693 97.24 146.12 97.6733 146.653 97.98C147.187 98.2867 147.793 98.44 148.473 98.44ZM152.093 100V97.14L152.213 94.68L152.013 92.22V85.16H153.933V100H152.093ZM157.566 100V89.4H159.486V100H157.566ZM158.526 87.36C158.153 87.36 157.839 87.24 157.586 87C157.346 86.76 157.226 86.4667 157.226 86.12C157.226 85.76 157.346 85.46 157.586 85.22C157.839 84.98 158.153 84.86 158.526 84.86C158.899 84.86 159.206 84.98 159.446 85.22C159.699 85.4467 159.826 85.7333 159.826 86.08C159.826 86.44 159.706 86.7467 159.466 87C159.226 87.24 158.913 87.36 158.526 87.36ZM167.612 100.12C166.705 100.12 165.905 99.9533 165.212 99.62C164.532 99.2867 163.999 98.78 163.612 98.1C163.239 97.4067 163.052 96.54 163.052 95.5V89.4H164.972V95.28C164.972 96.32 165.219 97.1 165.712 97.62C166.219 98.14 166.925 98.4 167.832 98.4C168.499 98.4 169.079 98.2667 169.572 98C170.065 97.72 170.445 97.32 170.712 96.8C170.979 96.2667 171.112 95.6267 171.112 94.88V89.4H173.032V100H171.212V97.14L171.512 97.9C171.165 98.6067 170.645 99.1533 169.952 99.54C169.259 99.9267 168.479 100.12 167.612 100.12ZM189.947 89.3C190.801 89.3 191.554 89.4667 192.207 89.8C192.861 90.1333 193.367 90.64 193.727 91.32C194.101 92 194.287 92.86 194.287 93.9V100H192.367V94.12C192.367 93.0933 192.127 92.32 191.647 91.8C191.167 91.28 190.494 91.02 189.627 91.02C188.987 91.02 188.427 91.1533 187.947 91.42C187.467 91.6867 187.094 92.08 186.827 92.6C186.574 93.12 186.447 93.7667 186.447 94.54V100H184.527V94.12C184.527 93.0933 184.287 92.32 183.807 91.8C183.341 91.28 182.667 91.02 181.787 91.02C181.161 91.02 180.607 91.1533 180.127 91.42C179.647 91.6867 179.274 92.08 179.007 92.6C178.741 93.12 178.607 93.7667 178.607 94.54V100H176.687V89.4H178.527V92.22L178.227 91.5C178.561 90.8067 179.074 90.2667 179.767 89.88C180.461 89.4933 181.267 89.3 182.187 89.3C183.201 89.3 184.074 89.5533 184.807 90.06C185.541 90.5533 186.021 91.3067 186.247 92.32L185.467 92C185.787 91.1867 186.347 90.5333 187.147 90.04C187.947 89.5467 188.881 89.3 189.947 89.3Z" fill="black"/>
<path d="M2.68984 440V426H4.68984V440H2.68984ZM14.2613 429.3C15.1279 429.3 15.8879 429.467 16.5413 429.8C17.2079 430.133 17.7279 430.64 18.1013 431.32C18.4746 432 18.6613 432.86 18.6613 433.9V440H16.7413V434.12C16.7413 433.093 16.4879 432.32 15.9813 431.8C15.4879 431.28 14.7879 431.02 13.8813 431.02C13.2013 431.02 12.6079 431.153 12.1013 431.42C11.5946 431.687 11.2013 432.08 10.9213 432.6C10.6546 433.12 10.5213 433.767 10.5213 434.54V440H8.60125V429.4H10.4413V432.26L10.1413 431.5C10.4879 430.807 11.0213 430.267 11.7413 429.88C12.4613 429.493 13.3013 429.3 14.2613 429.3ZM26.8345 440.12C25.7545 440.12 24.7879 439.887 23.9345 439.42C23.0945 438.953 22.4345 438.313 21.9545 437.5C21.4745 436.687 21.2345 435.753 21.2345 434.7C21.2345 433.647 21.4745 432.713 21.9545 431.9C22.4345 431.087 23.0945 430.453 23.9345 430C24.7879 429.533 25.7545 429.3 26.8345 429.3C27.7945 429.3 28.6479 429.493 29.3945 429.88C30.1545 430.253 30.7412 430.813 31.1545 431.56L29.6945 432.5C29.3479 431.98 28.9212 431.6 28.4145 431.36C27.9212 431.107 27.3879 430.98 26.8145 430.98C26.1212 430.98 25.5012 431.133 24.9545 431.44C24.4079 431.747 23.9745 432.18 23.6545 432.74C23.3345 433.287 23.1745 433.94 23.1745 434.7C23.1745 435.46 23.3345 436.12 23.6545 436.68C23.9745 437.24 24.4079 437.673 24.9545 437.98C25.5012 438.287 26.1212 438.44 26.8145 438.44C27.3879 438.44 27.9212 438.32 28.4145 438.08C28.9212 437.827 29.3479 437.44 29.6945 436.92L31.1545 437.84C30.7412 438.573 30.1545 439.14 29.3945 439.54C28.6479 439.927 27.7945 440.12 26.8345 440.12ZM33.5036 440V429.4H35.4236V440H33.5036ZM34.4636 427.36C34.0903 427.36 33.7769 427.24 33.5236 427C33.2836 426.76 33.1636 426.467 33.1636 426.12C33.1636 425.76 33.2836 425.46 33.5236 425.22C33.7769 424.98 34.0903 424.86 34.4636 424.86C34.8369 424.86 35.1436 424.98 35.3836 425.22C35.6369 425.447 35.7636 425.733 35.7636 426.08C35.7636 426.44 35.6436 426.747 35.4036 427C35.1636 427.24 34.8503 427.36 34.4636 427.36ZM43.4695 440.12C42.4429 440.12 41.5229 439.893 40.7095 439.44C39.9095 438.987 39.2762 438.353 38.8095 437.54C38.3429 436.727 38.1095 435.78 38.1095 434.7C38.1095 433.62 38.3429 432.68 38.8095 431.88C39.2762 431.067 39.9095 430.433 40.7095 429.98C41.5229 429.527 42.4429 429.3 43.4695 429.3C44.3629 429.3 45.1695 429.5 45.8895 429.9C46.6095 430.3 47.1829 430.9 47.6095 431.7C48.0495 432.5 48.2695 433.5 48.2695 434.7C48.2695 435.9 48.0562 436.9 47.6295 437.7C47.2162 438.5 46.6495 439.107 45.9295 439.52C45.2095 439.92 44.3895 440.12 43.4695 440.12ZM43.6295 438.44C44.2962 438.44 44.8962 438.287 45.4295 437.98C45.9762 437.673 46.4029 437.24 46.7095 436.68C47.0295 436.107 47.1895 435.447 47.1895 434.7C47.1895 433.94 47.0295 433.287 46.7095 432.74C46.4029 432.18 45.9762 431.747 45.4295 431.44C44.8962 431.133 44.2962 430.98 43.6295 430.98C42.9495 430.98 42.3429 431.133 41.8095 431.44C41.2762 431.747 40.8495 432.18 40.5295 432.74C40.2095 433.287 40.0495 433.94 40.0495 434.7C40.0495 435.447 40.2095 436.107 40.5295 436.68C40.8495 437.24 41.2762 437.673 41.8095 437.98C42.3429 438.287 42.9495 438.44 43.6295 438.44ZM47.2495 440V437.14L47.3695 434.68L47.1695 432.22V425.16H49.0895V440H47.2495ZM57.4423 440.12C56.309 440.12 55.309 439.887 54.4423 439.42C53.589 438.953 52.9223 438.313 52.4423 437.5C51.9757 436.687 51.7423 435.753 51.7423 434.7C51.7423 433.647 51.969 432.713 52.4223 431.9C52.889 431.087 53.5223 430.453 54.3223 430C55.1357 429.533 56.049 429.3 57.0623 429.3C58.089 429.3 58.9957 429.527 59.7823 429.98C60.569 430.433 61.1823 431.073 61.6223 431.9C62.0757 432.713 62.3023 433.667 62.3023 434.76C62.3023 434.84 62.2957 434.933 62.2823 435.04C62.2823 435.147 62.2757 435.247 62.2623 435.34H53.2423V433.96H61.2623L60.4823 434.44C60.4957 433.76 60.3557 433.153 60.0623 432.62C59.769 432.087 59.3623 431.673 58.8423 431.38C58.3357 431.073 57.7423 430.92 57.0623 430.92C56.3957 430.92 55.8023 431.073 55.2823 431.38C54.7623 431.673 54.3557 432.093 54.0623 432.64C53.769 433.173 53.6223 433.787 53.6223 434.48V434.8C53.6223 435.507 53.7823 436.14 54.1023 436.7C54.4357 437.247 54.8957 437.673 55.4823 437.98C56.069 438.287 56.7423 438.44 57.5023 438.44C58.129 438.44 58.6957 438.333 59.2023 438.12C59.7223 437.907 60.1757 437.587 60.5623 437.16L61.6223 438.4C61.1423 438.96 60.5423 439.387 59.8223 439.68C59.1157 439.973 58.3223 440.12 57.4423 440.12ZM70.6284 429.3C71.4951 429.3 72.2551 429.467 72.9084 429.8C73.5751 430.133 74.0951 430.64 74.4684 431.32C74.8418 432 75.0284 432.86 75.0284 433.9V440H73.1084V434.12C73.1084 433.093 72.8551 432.32 72.3484 431.8C71.8551 431.28 71.1551 431.02 70.2484 431.02C69.5684 431.02 68.9751 431.153 68.4684 431.42C67.9618 431.687 67.5684 432.08 67.2884 432.6C67.0218 433.12 66.8884 433.767 66.8884 434.54V440H64.9684V429.4H66.8084V432.26L66.5084 431.5C66.8551 430.807 67.3884 430.267 68.1084 429.88C68.8284 429.493 69.6684 429.3 70.6284 429.3ZM82.2217 440.12C81.1551 440.12 80.3284 439.833 79.7417 439.26C79.1551 438.687 78.8617 437.867 78.8617 436.8V427.08H80.7817V436.72C80.7817 437.293 80.9217 437.733 81.2017 438.04C81.4951 438.347 81.9084 438.5 82.4417 438.5C83.0417 438.5 83.5417 438.333 83.9417 438L84.5417 439.38C84.2484 439.633 83.8951 439.82 83.4817 439.94C83.0817 440.06 82.6617 440.12 82.2217 440.12ZM77.0617 430.98V429.4H83.8217V430.98H77.0617ZM92.5141 440V426H97.9741C99.2007 426 100.247 426.193 101.114 426.58C101.981 426.967 102.647 427.527 103.114 428.26C103.581 428.993 103.814 429.867 103.814 430.88C103.814 431.893 103.581 432.767 103.114 433.5C102.647 434.22 101.981 434.773 101.114 435.16C100.247 435.547 99.2007 435.74 97.9741 435.74H93.6141L94.5141 434.82V440H92.5141ZM101.874 440L98.3141 434.92H100.454L104.054 440H101.874ZM94.5141 435.02L93.6141 434.04H97.9141C99.1941 434.04 100.161 433.767 100.814 433.22C101.481 432.66 101.814 431.88 101.814 430.88C101.814 429.88 101.481 429.107 100.814 428.56C100.161 428.013 99.1941 427.74 97.9141 427.74H93.6141L94.5141 426.74V435.02ZM113.248 440V437.76L113.148 437.34V433.52C113.148 432.707 112.908 432.08 112.428 431.64C111.961 431.187 111.254 430.96 110.308 430.96C109.681 430.96 109.068 431.067 108.468 431.28C107.868 431.48 107.361 431.753 106.948 432.1L106.148 430.66C106.694 430.22 107.348 429.887 108.108 429.66C108.881 429.42 109.688 429.3 110.528 429.3C111.981 429.3 113.101 429.653 113.888 430.36C114.674 431.067 115.068 432.147 115.068 433.6V440H113.248ZM109.768 440.12C108.981 440.12 108.288 439.987 107.688 439.72C107.101 439.453 106.648 439.087 106.328 438.62C106.008 438.14 105.848 437.6 105.848 437C105.848 436.427 105.981 435.907 106.248 435.44C106.528 434.973 106.974 434.6 107.588 434.32C108.214 434.04 109.054 433.9 110.108 433.9H113.468V435.28H110.188C109.228 435.28 108.581 435.44 108.248 435.76C107.914 436.08 107.748 436.467 107.748 436.92C107.748 437.44 107.954 437.86 108.368 438.18C108.781 438.487 109.354 438.64 110.088 438.64C110.808 438.64 111.434 438.48 111.968 438.16C112.514 437.84 112.908 437.373 113.148 436.76L113.528 438.08C113.274 438.707 112.828 439.207 112.188 439.58C111.548 439.94 110.741 440.12 109.768 440.12ZM118.885 444C118.379 444 117.885 443.913 117.405 443.74C116.925 443.58 116.512 443.34 116.165 443.02L116.985 441.58C117.252 441.833 117.545 442.027 117.865 442.16C118.185 442.293 118.525 442.36 118.885 442.36C119.352 442.36 119.739 442.24 120.045 442C120.352 441.76 120.639 441.333 120.905 440.72L121.565 439.26L121.765 439.02L125.925 429.4H127.805L122.665 441.06C122.359 441.807 122.012 442.393 121.625 442.82C121.252 443.247 120.839 443.547 120.385 443.72C119.932 443.907 119.432 444 118.885 444ZM121.405 440.34L116.565 429.4H118.565L122.685 438.84L121.405 440.34ZM132.501 440.12C131.621 440.12 130.781 440 129.981 439.76C129.194 439.52 128.574 439.227 128.121 438.88L128.921 437.36C129.374 437.667 129.934 437.927 130.601 438.14C131.267 438.353 131.947 438.46 132.641 438.46C133.534 438.46 134.174 438.333 134.561 438.08C134.961 437.827 135.161 437.473 135.161 437.02C135.161 436.687 135.041 436.427 134.801 436.24C134.561 436.053 134.241 435.913 133.841 435.82C133.454 435.727 133.021 435.647 132.541 435.58C132.061 435.5 131.581 435.407 131.101 435.3C130.621 435.18 130.181 435.02 129.781 434.82C129.381 434.607 129.061 434.32 128.821 433.96C128.581 433.587 128.461 433.093 128.461 432.48C128.461 431.84 128.641 431.28 129.001 430.8C129.361 430.32 129.867 429.953 130.521 429.7C131.187 429.433 131.974 429.3 132.881 429.3C133.574 429.3 134.274 429.387 134.981 429.56C135.701 429.72 136.287 429.953 136.741 430.26L135.921 431.78C135.441 431.46 134.941 431.24 134.421 431.12C133.901 431 133.381 430.94 132.861 430.94C132.021 430.94 131.394 431.08 130.981 431.36C130.567 431.627 130.361 431.973 130.361 432.4C130.361 432.76 130.481 433.04 130.721 433.24C130.974 433.427 131.294 433.573 131.681 433.68C132.081 433.787 132.521 433.88 133.001 433.96C133.481 434.027 133.961 434.12 134.441 434.24C134.921 434.347 135.354 434.5 135.741 434.7C136.141 434.9 136.461 435.18 136.701 435.54C136.954 435.9 137.081 436.38 137.081 436.98C137.081 437.62 136.894 438.173 136.521 438.64C136.147 439.107 135.621 439.473 134.941 439.74C134.261 439.993 133.447 440.12 132.501 440.12Z" fill="black"/>
<path d="M629.365 444V430H635.265C636.758 430 638.071 430.293 639.205 430.88C640.351 431.467 641.238 432.287 641.865 433.34C642.505 434.393 642.825 435.613 642.825 437C642.825 438.387 642.505 439.607 641.865 440.66C641.238 441.713 640.351 442.533 639.205 443.12C638.071 443.707 636.758 444 635.265 444H629.365ZM631.365 442.26H635.145C636.305 442.26 637.305 442.04 638.145 441.6C638.998 441.16 639.658 440.547 640.125 439.76C640.591 438.96 640.825 438.04 640.825 437C640.825 435.947 640.591 435.027 640.125 434.24C639.658 433.453 638.998 432.84 638.145 432.4C637.305 431.96 636.305 431.74 635.145 431.74H631.365V442.26ZM650.328 444.12C649.195 444.12 648.195 443.887 647.328 443.42C646.475 442.953 645.808 442.313 645.328 441.5C644.861 440.687 644.628 439.753 644.628 438.7C644.628 437.647 644.855 436.713 645.308 435.9C645.775 435.087 646.408 434.453 647.208 434C648.021 433.533 648.935 433.3 649.948 433.3C650.975 433.3 651.881 433.527 652.668 433.98C653.455 434.433 654.068 435.073 654.508 435.9C654.961 436.713 655.188 437.667 655.188 438.76C655.188 438.84 655.181 438.933 655.168 439.04C655.168 439.147 655.161 439.247 655.148 439.34H646.128V437.96H654.148L653.368 438.44C653.381 437.76 653.241 437.153 652.948 436.62C652.655 436.087 652.248 435.673 651.728 435.38C651.221 435.073 650.628 434.92 649.948 434.92C649.281 434.92 648.688 435.073 648.168 435.38C647.648 435.673 647.241 436.093 646.948 436.64C646.655 437.173 646.508 437.787 646.508 438.48V438.8C646.508 439.507 646.668 440.14 646.988 440.7C647.321 441.247 647.781 441.673 648.368 441.98C648.955 442.287 649.628 442.44 650.388 442.44C651.015 442.44 651.581 442.333 652.088 442.12C652.608 441.907 653.061 441.587 653.448 441.16L654.508 442.4C654.028 442.96 653.428 443.387 652.708 443.68C652.001 443.973 651.208 444.12 650.328 444.12ZM663.514 433.3C664.381 433.3 665.141 433.467 665.794 433.8C666.461 434.133 666.981 434.64 667.354 435.32C667.728 436 667.914 436.86 667.914 437.9V444H665.994V438.12C665.994 437.093 665.741 436.32 665.234 435.8C664.741 435.28 664.041 435.02 663.134 435.02C662.454 435.02 661.861 435.153 661.354 435.42C660.848 435.687 660.454 436.08 660.174 436.6C659.908 437.12 659.774 437.767 659.774 438.54V444H657.854V433.4H659.694V436.26L659.394 435.5C659.741 434.807 660.274 434.267 660.994 433.88C661.714 433.493 662.554 433.3 663.514 433.3ZM674.507 444.12C673.627 444.12 672.787 444 671.987 443.76C671.201 443.52 670.581 443.227 670.127 442.88L670.927 441.36C671.381 441.667 671.941 441.927 672.607 442.14C673.274 442.353 673.954 442.46 674.647 442.46C675.541 442.46 676.181 442.333 676.567 442.08C676.967 441.827 677.167 441.473 677.167 441.02C677.167 440.687 677.047 440.427 676.807 440.24C676.567 440.053 676.247 439.913 675.847 439.82C675.461 439.727 675.027 439.647 674.547 439.58C674.067 439.5 673.587 439.407 673.107 439.3C672.627 439.18 672.187 439.02 671.787 438.82C671.387 438.607 671.067 438.32 670.827 437.96C670.587 437.587 670.467 437.093 670.467 436.48C670.467 435.84 670.647 435.28 671.007 434.8C671.367 434.32 671.874 433.953 672.527 433.7C673.194 433.433 673.981 433.3 674.887 433.3C675.581 433.3 676.281 433.387 676.987 433.56C677.707 433.72 678.294 433.953 678.747 434.26L677.927 435.78C677.447 435.46 676.947 435.24 676.427 435.12C675.907 435 675.387 434.94 674.867 434.94C674.027 434.94 673.401 435.08 672.987 435.36C672.574 435.627 672.367 435.973 672.367 436.4C672.367 436.76 672.487 437.04 672.727 437.24C672.981 437.427 673.301 437.573 673.687 437.68C674.087 437.787 674.527 437.88 675.007 437.96C675.487 438.027 675.967 438.12 676.447 438.24C676.927 438.347 677.361 438.5 677.747 438.7C678.147 438.9 678.467 439.18 678.707 439.54C678.961 439.9 679.087 440.38 679.087 440.98C679.087 441.62 678.901 442.173 678.527 442.64C678.154 443.107 677.627 443.473 676.947 443.74C676.267 443.993 675.454 444.12 674.507 444.12ZM686.207 444.12C685.074 444.12 684.074 443.887 683.207 443.42C682.354 442.953 681.687 442.313 681.207 441.5C680.74 440.687 680.507 439.753 680.507 438.7C680.507 437.647 680.734 436.713 681.187 435.9C681.654 435.087 682.287 434.453 683.087 434C683.9 433.533 684.814 433.3 685.827 433.3C686.854 433.3 687.76 433.527 688.547 433.98C689.334 434.433 689.947 435.073 690.387 435.9C690.84 436.713 691.067 437.667 691.067 438.76C691.067 438.84 691.06 438.933 691.047 439.04C691.047 439.147 691.04 439.247 691.027 439.34H682.007V437.96H690.027L689.247 438.44C689.26 437.76 689.12 437.153 688.827 436.62C688.534 436.087 688.127 435.673 687.607 435.38C687.1 435.073 686.507 434.92 685.827 434.92C685.16 434.92 684.567 435.073 684.047 435.38C683.527 435.673 683.12 436.093 682.827 436.64C682.534 437.173 682.387 437.787 682.387 438.48V438.8C682.387 439.507 682.547 440.14 682.867 440.7C683.2 441.247 683.66 441.673 684.247 441.98C684.834 442.287 685.507 442.44 686.267 442.44C686.894 442.44 687.46 442.333 687.967 442.12C688.487 441.907 688.94 441.587 689.327 441.16L690.387 442.4C689.907 442.96 689.307 443.387 688.587 443.68C687.88 443.973 687.087 444.12 686.207 444.12ZM693.733 444V433.4H695.573V436.28L695.393 435.56C695.686 434.827 696.18 434.267 696.873 433.88C697.566 433.493 698.42 433.3 699.433 433.3V435.16C699.353 435.147 699.273 435.14 699.193 435.14C699.126 435.14 699.06 435.14 698.993 435.14C697.966 435.14 697.153 435.447 696.553 436.06C695.953 436.673 695.653 437.56 695.653 438.72V444H693.733ZM707.587 444V430H709.227L715.507 440.58H714.627L720.827 430H722.467L722.487 444H720.567L720.547 433.02H721.007L715.487 442.3H714.567L709.007 433.02H709.507V444H707.587ZM731.129 444.12C729.996 444.12 728.996 443.887 728.129 443.42C727.276 442.953 726.609 442.313 726.129 441.5C725.662 440.687 725.429 439.753 725.429 438.7C725.429 437.647 725.656 436.713 726.109 435.9C726.576 435.087 727.209 434.453 728.009 434C728.822 433.533 729.736 433.3 730.749 433.3C731.776 433.3 732.682 433.527 733.469 433.98C734.256 434.433 734.869 435.073 735.309 435.9C735.762 436.713 735.989 437.667 735.989 438.76C735.989 438.84 735.982 438.933 735.969 439.04C735.969 439.147 735.962 439.247 735.949 439.34H726.929V437.96H734.949L734.169 438.44C734.182 437.76 734.042 437.153 733.749 436.62C733.456 436.087 733.049 435.673 732.529 435.38C732.022 435.073 731.429 434.92 730.749 434.92C730.082 434.92 729.489 435.073 728.969 435.38C728.449 435.673 728.042 436.093 727.749 436.64C727.456 437.173 727.309 437.787 727.309 438.48V438.8C727.309 439.507 727.469 440.14 727.789 440.7C728.122 441.247 728.582 441.673 729.169 441.98C729.756 442.287 730.429 442.44 731.189 442.44C731.816 442.44 732.382 442.333 732.889 442.12C733.409 441.907 733.862 441.587 734.249 441.16L735.309 442.4C734.829 442.96 734.229 443.387 733.509 443.68C732.802 443.973 732.009 444.12 731.129 444.12ZM743.035 444.12C742.008 444.12 741.088 443.893 740.275 443.44C739.475 442.987 738.842 442.353 738.375 441.54C737.908 440.727 737.675 439.78 737.675 438.7C737.675 437.62 737.908 436.68 738.375 435.88C738.842 435.067 739.475 434.433 740.275 433.98C741.088 433.527 742.008 433.3 743.035 433.3C743.928 433.3 744.735 433.5 745.455 433.9C746.175 434.3 746.748 434.9 747.175 435.7C747.615 436.5 747.835 437.5 747.835 438.7C747.835 439.9 747.622 440.9 747.195 441.7C746.782 442.5 746.215 443.107 745.495 443.52C744.775 443.92 743.955 444.12 743.035 444.12ZM743.195 442.44C743.862 442.44 744.462 442.287 744.995 441.98C745.542 441.673 745.968 441.24 746.275 440.68C746.595 440.107 746.755 439.447 746.755 438.7C746.755 437.94 746.595 437.287 746.275 436.74C745.968 436.18 745.542 435.747 744.995 435.44C744.462 435.133 743.862 434.98 743.195 434.98C742.515 434.98 741.908 435.133 741.375 435.44C740.842 435.747 740.415 436.18 740.095 436.74C739.775 437.287 739.615 437.94 739.615 438.7C739.615 439.447 739.775 440.107 740.095 440.68C740.415 441.24 740.842 441.673 741.375 441.98C741.908 442.287 742.515 442.44 743.195 442.44ZM746.815 444V441.14L746.935 438.68L746.735 436.22V429.16H748.655V444H746.815ZM752.288 444V433.4H754.208V444H752.288ZM753.248 431.36C752.874 431.36 752.561 431.24 752.308 431C752.068 430.76 751.948 430.467 751.948 430.12C751.948 429.76 752.068 429.46 752.308 429.22C752.561 428.98 752.874 428.86 753.248 428.86C753.621 428.86 753.928 428.98 754.168 429.22C754.421 429.447 754.548 429.733 754.548 430.08C754.548 430.44 754.428 430.747 754.188 431C753.948 431.24 753.634 431.36 753.248 431.36ZM762.334 444.12C761.427 444.12 760.627 443.953 759.934 443.62C759.254 443.287 758.72 442.78 758.334 442.1C757.96 441.407 757.774 440.54 757.774 439.5V433.4H759.694V439.28C759.694 440.32 759.94 441.1 760.434 441.62C760.94 442.14 761.647 442.4 762.554 442.4C763.22 442.4 763.8 442.267 764.294 442C764.787 441.72 765.167 441.32 765.434 440.8C765.7 440.267 765.834 439.627 765.834 438.88V433.4H767.754V444H765.934V441.14L766.234 441.9C765.887 442.607 765.367 443.153 764.674 443.54C763.98 443.927 763.2 444.12 762.334 444.12ZM784.669 433.3C785.522 433.3 786.276 433.467 786.929 433.8C787.582 434.133 788.089 434.64 788.449 435.32C788.822 436 789.009 436.86 789.009 437.9V444H787.089V438.12C787.089 437.093 786.849 436.32 786.369 435.8C785.889 435.28 785.216 435.02 784.349 435.02C783.709 435.02 783.149 435.153 782.669 435.42C782.189 435.687 781.816 436.08 781.549 436.6C781.296 437.12 781.169 437.767 781.169 438.54V444H779.249V438.12C779.249 437.093 779.009 436.32 778.529 435.8C778.062 435.28 777.389 435.02 776.509 435.02C775.882 435.02 775.329 435.153 774.849 435.42C774.369 435.687 773.996 436.08 773.729 436.6C773.462 437.12 773.329 437.767 773.329 438.54V444H771.409V433.4H773.249V436.22L772.949 435.5C773.282 434.807 773.796 434.267 774.489 433.88C775.182 433.493 775.989 433.3 776.909 433.3C777.922 433.3 778.796 433.553 779.529 434.06C780.262 434.553 780.742 435.307 780.969 436.32L780.189 436C780.509 435.187 781.069 434.533 781.869 434.04C782.669 433.547 783.602 433.3 784.669 433.3Z" fill="black"/>
<path d="M653.365 251V237H655.005L664.265 248.5H663.405V237H665.405V251H663.765L654.505 239.5H655.365V251H653.365ZM673.855 251.12C672.788 251.12 671.842 250.887 671.015 250.42C670.188 249.953 669.535 249.313 669.055 248.5C668.575 247.673 668.335 246.74 668.335 245.7C668.335 244.647 668.575 243.713 669.055 242.9C669.535 242.087 670.188 241.453 671.015 241C671.842 240.533 672.788 240.3 673.855 240.3C674.908 240.3 675.848 240.533 676.675 241C677.515 241.453 678.168 242.087 678.635 242.9C679.115 243.7 679.355 244.633 679.355 245.7C679.355 246.753 679.115 247.687 678.635 248.5C678.168 249.313 677.515 249.953 676.675 250.42C675.848 250.887 674.908 251.12 673.855 251.12ZM673.855 249.44C674.535 249.44 675.142 249.287 675.675 248.98C676.222 248.673 676.648 248.24 676.955 247.68C677.262 247.107 677.415 246.447 677.415 245.7C677.415 244.94 677.262 244.287 676.955 243.74C676.648 243.18 676.222 242.747 675.675 242.44C675.142 242.133 674.535 241.98 673.855 241.98C673.175 241.98 672.568 242.133 672.035 242.44C671.502 242.747 671.075 243.18 670.755 243.74C670.435 244.287 670.275 244.94 670.275 245.7C670.275 246.447 670.435 247.107 670.755 247.68C671.075 248.24 671.502 248.673 672.035 248.98C672.568 249.287 673.175 249.44 673.855 249.44ZM682.01 251V240.4H683.85V243.28L683.67 242.56C683.964 241.827 684.457 241.267 685.15 240.88C685.844 240.493 686.697 240.3 687.71 240.3V242.16C687.63 242.147 687.55 242.14 687.47 242.14C687.404 242.14 687.337 242.14 687.27 242.14C686.244 242.14 685.43 242.447 684.83 243.06C684.23 243.673 683.93 244.56 683.93 245.72V251H682.01ZM703.337 240.3C704.19 240.3 704.944 240.467 705.597 240.8C706.25 241.133 706.757 241.64 707.117 242.32C707.49 243 707.677 243.86 707.677 244.9V251H705.757V245.12C705.757 244.093 705.517 243.32 705.037 242.8C704.557 242.28 703.884 242.02 703.017 242.02C702.377 242.02 701.817 242.153 701.337 242.42C700.857 242.687 700.484 243.08 700.217 243.6C699.964 244.12 699.837 244.767 699.837 245.54V251H697.917V245.12C697.917 244.093 697.677 243.32 697.197 242.8C696.73 242.28 696.057 242.02 695.177 242.02C694.55 242.02 693.997 242.153 693.517 242.42C693.037 242.687 692.664 243.08 692.397 243.6C692.13 244.12 691.997 244.767 691.997 245.54V251H690.077V240.4H691.917V243.22L691.617 242.5C691.95 241.807 692.464 241.267 693.157 240.88C693.85 240.493 694.657 240.3 695.577 240.3C696.59 240.3 697.464 240.553 698.197 241.06C698.93 241.553 699.41 242.307 699.637 243.32L698.857 243C699.177 242.187 699.737 241.533 700.537 241.04C701.337 240.547 702.27 240.3 703.337 240.3ZM717.79 251V248.76L717.69 248.34V244.52C717.69 243.707 717.45 243.08 716.97 242.64C716.503 242.187 715.796 241.96 714.85 241.96C714.223 241.96 713.61 242.067 713.01 242.28C712.41 242.48 711.903 242.753 711.49 243.1L710.69 241.66C711.236 241.22 711.89 240.887 712.65 240.66C713.423 240.42 714.23 240.3 715.07 240.3C716.523 240.3 717.643 240.653 718.43 241.36C719.216 242.067 719.61 243.147 719.61 244.6V251H717.79ZM714.31 251.12C713.523 251.12 712.83 250.987 712.23 250.72C711.643 250.453 711.19 250.087 710.87 249.62C710.55 249.14 710.39 248.6 710.39 248C710.39 247.427 710.523 246.907 710.79 246.44C711.07 245.973 711.516 245.6 712.13 245.32C712.756 245.04 713.596 244.9 714.65 244.9H718.01V246.28H714.73C713.77 246.28 713.123 246.44 712.79 246.76C712.456 247.08 712.29 247.467 712.29 247.92C712.29 248.44 712.496 248.86 712.91 249.18C713.323 249.487 713.896 249.64 714.63 249.64C715.35 249.64 715.976 249.48 716.51 249.16C717.056 248.84 717.45 248.373 717.69 247.76L718.07 249.08C717.816 249.707 717.37 250.207 716.73 250.58C716.09 250.94 715.283 251.12 714.31 251.12ZM723.163 251V236.16H725.083V251H723.163ZM737.76 251.12C736.693 251.12 735.866 250.833 735.28 250.26C734.693 249.687 734.4 248.867 734.4 247.8V238.08H736.32V247.72C736.32 248.293 736.46 248.733 736.74 249.04C737.033 249.347 737.446 249.5 737.98 249.5C738.58 249.5 739.08 249.333 739.48 249L740.08 250.38C739.786 250.633 739.433 250.82 739.02 250.94C738.62 251.06 738.2 251.12 737.76 251.12ZM732.6 241.98V240.4H739.36V241.98H732.6ZM746.589 251.12C745.523 251.12 744.576 250.887 743.749 250.42C742.923 249.953 742.269 249.313 741.789 248.5C741.309 247.673 741.069 246.74 741.069 245.7C741.069 244.647 741.309 243.713 741.789 242.9C742.269 242.087 742.923 241.453 743.749 241C744.576 240.533 745.523 240.3 746.589 240.3C747.643 240.3 748.583 240.533 749.409 241C750.249 241.453 750.903 242.087 751.369 242.9C751.849 243.7 752.089 244.633 752.089 245.7C752.089 246.753 751.849 247.687 751.369 248.5C750.903 249.313 750.249 249.953 749.409 250.42C748.583 250.887 747.643 251.12 746.589 251.12ZM746.589 249.44C747.269 249.44 747.876 249.287 748.409 248.98C748.956 248.673 749.383 248.24 749.689 247.68C749.996 247.107 750.149 246.447 750.149 245.7C750.149 244.94 749.996 244.287 749.689 243.74C749.383 243.18 748.956 242.747 748.409 242.44C747.876 242.133 747.269 241.98 746.589 241.98C745.909 241.98 745.303 242.133 744.769 242.44C744.236 242.747 743.809 243.18 743.489 243.74C743.169 244.287 743.009 244.94 743.009 245.7C743.009 246.447 743.169 247.107 743.489 247.68C743.809 248.24 744.236 248.673 744.769 248.98C745.303 249.287 745.909 249.44 746.589 249.44ZM765.736 251.12C764.829 251.12 764.009 250.92 763.276 250.52C762.556 250.107 761.983 249.5 761.556 248.7C761.143 247.9 760.936 246.9 760.936 245.7C760.936 244.5 761.149 243.5 761.576 242.7C762.016 241.9 762.596 241.3 763.316 240.9C764.049 240.5 764.856 240.3 765.736 240.3C766.776 240.3 767.696 240.527 768.496 240.98C769.296 241.433 769.929 242.067 770.396 242.88C770.863 243.68 771.096 244.62 771.096 245.7C771.096 246.78 770.863 247.727 770.396 248.54C769.929 249.353 769.296 249.987 768.496 250.44C767.696 250.893 766.776 251.12 765.736 251.12ZM760.116 251V236.16H762.036V243.22L761.836 245.68L761.956 248.14V251H760.116ZM765.576 249.44C766.256 249.44 766.863 249.287 767.396 248.98C767.943 248.673 768.369 248.24 768.676 247.68C768.996 247.107 769.156 246.447 769.156 245.7C769.156 244.94 768.996 244.287 768.676 243.74C768.369 243.18 767.943 242.747 767.396 242.44C766.863 242.133 766.256 241.98 765.576 241.98C764.909 241.98 764.303 242.133 763.756 242.44C763.223 242.747 762.796 243.18 762.476 243.74C762.169 244.287 762.016 244.94 762.016 245.7C762.016 246.447 762.169 247.107 762.476 247.68C762.796 248.24 763.223 248.673 763.756 248.98C764.303 249.287 764.909 249.44 765.576 249.44ZM778.289 251.12C777.222 251.12 776.275 250.887 775.449 250.42C774.622 249.953 773.969 249.313 773.489 248.5C773.009 247.673 772.769 246.74 772.769 245.7C772.769 244.647 773.009 243.713 773.489 242.9C773.969 242.087 774.622 241.453 775.449 241C776.275 240.533 777.222 240.3 778.289 240.3C779.342 240.3 780.282 240.533 781.109 241C781.949 241.453 782.602 242.087 783.069 242.9C783.549 243.7 783.789 244.633 783.789 245.7C783.789 246.753 783.549 247.687 783.069 248.5C782.602 249.313 781.949 249.953 781.109 250.42C780.282 250.887 779.342 251.12 778.289 251.12ZM778.289 249.44C778.969 249.44 779.575 249.287 780.109 248.98C780.655 248.673 781.082 248.24 781.389 247.68C781.695 247.107 781.849 246.447 781.849 245.7C781.849 244.94 781.695 244.287 781.389 243.74C781.082 243.18 780.655 242.747 780.109 242.44C779.575 242.133 778.969 241.98 778.289 241.98C777.609 241.98 777.002 242.133 776.469 242.44C775.935 242.747 775.509 243.18 775.189 243.74C774.869 244.287 774.709 244.94 774.709 245.7C774.709 246.447 774.869 247.107 775.189 247.68C775.509 248.24 775.935 248.673 776.469 248.98C777.002 249.287 777.609 249.44 778.289 249.44ZM790.904 251.12C789.997 251.12 789.197 250.953 788.504 250.62C787.824 250.287 787.291 249.78 786.904 249.1C786.531 248.407 786.344 247.54 786.344 246.5V240.4H788.264V246.28C788.264 247.32 788.511 248.1 789.004 248.62C789.511 249.14 790.217 249.4 791.124 249.4C791.791 249.4 792.371 249.267 792.864 249C793.357 248.72 793.737 248.32 794.004 247.8C794.271 247.267 794.404 246.627 794.404 245.88V240.4H796.324V251H794.504V248.14L794.804 248.9C794.457 249.607 793.937 250.153 793.244 250.54C792.551 250.927 791.771 251.12 790.904 251.12ZM805.639 240.3C806.506 240.3 807.266 240.467 807.919 240.8C808.586 241.133 809.106 241.64 809.479 242.32C809.853 243 810.039 243.86 810.039 244.9V251H808.119V245.12C808.119 244.093 807.866 243.32 807.359 242.8C806.866 242.28 806.166 242.02 805.259 242.02C804.579 242.02 803.986 242.153 803.479 242.42C802.973 242.687 802.579 243.08 802.299 243.6C802.033 244.12 801.899 244.767 801.899 245.54V251H799.979V240.4H801.819V243.26L801.519 242.5C801.866 241.807 802.399 241.267 803.119 240.88C803.839 240.493 804.679 240.3 805.639 240.3ZM817.972 251.12C816.946 251.12 816.026 250.893 815.212 250.44C814.412 249.987 813.779 249.353 813.312 248.54C812.846 247.727 812.612 246.78 812.612 245.7C812.612 244.62 812.846 243.68 813.312 242.88C813.779 242.067 814.412 241.433 815.212 240.98C816.026 240.527 816.946 240.3 817.972 240.3C818.866 240.3 819.672 240.5 820.392 240.9C821.112 241.3 821.686 241.9 822.112 242.7C822.552 243.5 822.772 244.5 822.772 245.7C822.772 246.9 822.559 247.9 822.132 248.7C821.719 249.5 821.152 250.107 820.432 250.52C819.712 250.92 818.892 251.12 817.972 251.12ZM818.132 249.44C818.799 249.44 819.399 249.287 819.932 248.98C820.479 248.673 820.906 248.24 821.212 247.68C821.532 247.107 821.692 246.447 821.692 245.7C821.692 244.94 821.532 244.287 821.212 243.74C820.906 243.18 820.479 242.747 819.932 242.44C819.399 242.133 818.799 241.98 818.132 241.98C817.452 241.98 816.846 242.133 816.312 242.44C815.779 242.747 815.352 243.18 815.032 243.74C814.712 244.287 814.552 244.94 814.552 245.7C814.552 246.447 814.712 247.107 815.032 247.68C815.352 248.24 815.779 248.673 816.312 248.98C816.846 249.287 817.452 249.44 818.132 249.44ZM821.752 251V248.14L821.872 245.68L821.672 243.22V236.16H823.592V251H821.752ZM833.805 251V248.76L833.705 248.34V244.52C833.705 243.707 833.465 243.08 832.985 242.64C832.519 242.187 831.812 241.96 830.865 241.96C830.239 241.96 829.625 242.067 829.025 242.28C828.425 242.48 827.919 242.753 827.505 243.1L826.705 241.66C827.252 241.22 827.905 240.887 828.665 240.66C829.439 240.42 830.245 240.3 831.085 240.3C832.539 240.3 833.659 240.653 834.445 241.36C835.232 242.067 835.625 243.147 835.625 244.6V251H833.805ZM830.325 251.12C829.539 251.12 828.845 250.987 828.245 250.72C827.659 250.453 827.205 250.087 826.885 249.62C826.565 249.14 826.405 248.6 826.405 248C826.405 247.427 826.539 246.907 826.805 246.44C827.085 245.973 827.532 245.6 828.145 245.32C828.772 245.04 829.612 244.9 830.665 244.9H834.025V246.28H830.745C829.785 246.28 829.139 246.44 828.805 246.76C828.472 247.08 828.305 247.467 828.305 247.92C828.305 248.44 828.512 248.86 828.925 249.18C829.339 249.487 829.912 249.64 830.645 249.64C831.365 249.64 831.992 249.48 832.525 249.16C833.072 248.84 833.465 248.373 833.705 247.76L834.085 249.08C833.832 249.707 833.385 250.207 832.745 250.58C832.105 250.94 831.299 251.12 830.325 251.12ZM839.178 251V240.4H841.018V243.28L840.838 242.56C841.132 241.827 841.625 241.267 842.318 240.88C843.012 240.493 843.865 240.3 844.878 240.3V242.16C844.798 242.147 844.718 242.14 844.638 242.14C844.572 242.14 844.505 242.14 844.438 242.14C843.412 242.14 842.598 242.447 841.998 243.06C841.398 243.673 841.098 244.56 841.098 245.72V251H839.178ZM848.134 255C847.628 255 847.134 254.913 846.654 254.74C846.174 254.58 845.761 254.34 845.414 254.02L846.234 252.58C846.501 252.833 846.794 253.027 847.114 253.16C847.434 253.293 847.774 253.36 848.134 253.36C848.601 253.36 848.988 253.24 849.294 253C849.601 252.76 849.888 252.333 850.154 251.72L850.814 250.26L851.014 250.02L855.174 240.4H857.054L851.914 252.06C851.608 252.807 851.261 253.393 850.874 253.82C850.501 254.247 850.088 254.547 849.634 254.72C849.181 254.907 848.681 255 848.134 255ZM850.654 251.34L845.814 240.4H847.814L851.934 249.84L850.654 251.34Z" fill="black"/>
<path d="M653.365 51V37H658.825C660.051 37 661.098 37.1933 661.965 37.58C662.831 37.9667 663.498 38.5267 663.965 39.26C664.431 39.9933 664.665 40.8667 664.665 41.88C664.665 42.8933 664.431 43.7667 663.965 44.5C663.498 45.22 662.831 45.7733 661.965 46.16C661.098 46.5467 660.051 46.74 658.825 46.74H654.465L655.365 45.82V51H653.365ZM662.725 51L659.165 45.92H661.305L664.905 51H662.725ZM655.365 46.02L654.465 45.04H658.765C660.045 45.04 661.011 44.7667 661.665 44.22C662.331 43.66 662.665 42.88 662.665 41.88C662.665 40.88 662.331 40.1067 661.665 39.56C661.011 39.0133 660.045 38.74 658.765 38.74H654.465L655.365 37.74V46.02ZM672.336 51.12C671.203 51.12 670.203 50.8867 669.336 50.42C668.483 49.9533 667.816 49.3133 667.336 48.5C666.869 47.6867 666.636 46.7533 666.636 45.7C666.636 44.6467 666.863 43.7133 667.316 42.9C667.783 42.0867 668.416 41.4533 669.216 41C670.029 40.5333 670.943 40.3 671.956 40.3C672.983 40.3 673.889 40.5267 674.676 40.98C675.463 41.4333 676.076 42.0733 676.516 42.9C676.969 43.7133 677.196 44.6667 677.196 45.76C677.196 45.84 677.189 45.9333 677.176 46.04C677.176 46.1467 677.169 46.2467 677.156 46.34H668.136V44.96H676.156L675.376 45.44C675.389 44.76 675.249 44.1533 674.956 43.62C674.663 43.0867 674.256 42.6733 673.736 42.38C673.229 42.0733 672.636 41.92 671.956 41.92C671.289 41.92 670.696 42.0733 670.176 42.38C669.656 42.6733 669.249 43.0933 668.956 43.64C668.663 44.1733 668.516 44.7867 668.516 45.48V45.8C668.516 46.5067 668.676 47.14 668.996 47.7C669.329 48.2467 669.789 48.6733 670.376 48.98C670.963 49.2867 671.636 49.44 672.396 49.44C673.023 49.44 673.589 49.3333 674.096 49.12C674.616 48.9067 675.069 48.5867 675.456 48.16L676.516 49.4C676.036 49.96 675.436 50.3867 674.716 50.68C674.009 50.9733 673.216 51.12 672.336 51.12ZM680.142 51V39.46C680.142 38.42 680.442 37.5933 681.042 36.98C681.655 36.3533 682.522 36.04 683.642 36.04C684.055 36.04 684.449 36.0933 684.822 36.2C685.209 36.2933 685.535 36.4467 685.802 36.66L685.222 38.12C685.022 37.96 684.795 37.84 684.542 37.76C684.289 37.6667 684.022 37.62 683.742 37.62C683.182 37.62 682.755 37.78 682.462 38.1C682.169 38.4067 682.022 38.8667 682.022 39.48V40.9L682.062 41.78V51H680.142ZM678.342 41.98V40.4H685.102V41.98H678.342ZM686.913 51V40.4H688.753V43.28L688.573 42.56C688.866 41.8267 689.359 41.2667 690.053 40.88C690.746 40.4933 691.599 40.3 692.613 40.3V42.16C692.533 42.1467 692.453 42.14 692.373 42.14C692.306 42.14 692.239 42.14 692.173 42.14C691.146 42.14 690.333 42.4467 689.733 43.06C689.133 43.6733 688.833 44.56 688.833 45.72V51H686.913ZM700.778 51V48.76L700.678 48.34V44.52C700.678 43.7067 700.438 43.08 699.958 42.64C699.491 42.1867 698.785 41.96 697.838 41.96C697.211 41.96 696.598 42.0667 695.998 42.28C695.398 42.48 694.891 42.7533 694.478 43.1L693.678 41.66C694.225 41.22 694.878 40.8867 695.638 40.66C696.411 40.42 697.218 40.3 698.058 40.3C699.511 40.3 700.631 40.6533 701.418 41.36C702.205 42.0667 702.598 43.1467 702.598 44.6V51H700.778ZM697.298 51.12C696.511 51.12 695.818 50.9867 695.218 50.72C694.631 50.4533 694.178 50.0867 693.858 49.62C693.538 49.14 693.378 48.6 693.378 48C693.378 47.4267 693.511 46.9067 693.778 46.44C694.058 45.9733 694.505 45.6 695.118 45.32C695.745 45.04 696.585 44.9 697.638 44.9H700.998V46.28H697.718C696.758 46.28 696.111 46.44 695.778 46.76C695.445 47.08 695.278 47.4667 695.278 47.92C695.278 48.44 695.485 48.86 695.898 49.18C696.311 49.4867 696.885 49.64 697.618 49.64C698.338 49.64 698.965 49.48 699.498 49.16C700.045 48.84 700.438 48.3733 700.678 47.76L701.058 49.08C700.805 49.7067 700.358 50.2067 699.718 50.58C699.078 50.94 698.271 51.12 697.298 51.12ZM710.771 51.12C709.691 51.12 708.724 50.8867 707.871 50.42C707.031 49.9533 706.371 49.3133 705.891 48.5C705.411 47.6867 705.171 46.7533 705.171 45.7C705.171 44.6467 705.411 43.7133 705.891 42.9C706.371 42.0867 707.031 41.4533 707.871 41C708.724 40.5333 709.691 40.3 710.771 40.3C711.731 40.3 712.584 40.4933 713.331 40.88C714.091 41.2533 714.678 41.8133 715.091 42.56L713.631 43.5C713.284 42.98 712.858 42.6 712.351 42.36C711.858 42.1067 711.324 41.98 710.751 41.98C710.058 41.98 709.438 42.1333 708.891 42.44C708.344 42.7467 707.911 43.18 707.591 43.74C707.271 44.2867 707.111 44.94 707.111 45.7C707.111 46.46 707.271 47.12 707.591 47.68C707.911 48.24 708.344 48.6733 708.891 48.98C709.438 49.2867 710.058 49.44 710.751 49.44C711.324 49.44 711.858 49.32 712.351 49.08C712.858 48.8267 713.284 48.44 713.631 47.92L715.091 48.84C714.678 49.5733 714.091 50.14 713.331 50.54C712.584 50.9267 711.731 51.12 710.771 51.12ZM721.354 51.12C720.287 51.12 719.46 50.8333 718.874 50.26C718.287 49.6867 717.994 48.8667 717.994 47.8V38.08H719.914V47.72C719.914 48.2933 720.054 48.7333 720.334 49.04C720.627 49.3467 721.04 49.5 721.574 49.5C722.174 49.5 722.674 49.3333 723.074 49L723.674 50.38C723.38 50.6333 723.027 50.82 722.614 50.94C722.214 51.06 721.794 51.12 721.354 51.12ZM716.194 41.98V40.4H722.954V41.98H716.194ZM730.363 51.12C729.23 51.12 728.23 50.8867 727.363 50.42C726.51 49.9533 725.843 49.3133 725.363 48.5C724.897 47.6867 724.663 46.7533 724.663 45.7C724.663 44.6467 724.89 43.7133 725.343 42.9C725.81 42.0867 726.443 41.4533 727.243 41C728.057 40.5333 728.97 40.3 729.983 40.3C731.01 40.3 731.917 40.5267 732.703 40.98C733.49 41.4333 734.103 42.0733 734.543 42.9C734.997 43.7133 735.223 44.6667 735.223 45.76C735.223 45.84 735.217 45.9333 735.203 46.04C735.203 46.1467 735.197 46.2467 735.183 46.34H726.163V44.96H734.183L733.403 45.44C733.417 44.76 733.277 44.1533 732.983 43.62C732.69 43.0867 732.283 42.6733 731.763 42.38C731.257 42.0733 730.663 41.92 729.983 41.92C729.317 41.92 728.723 42.0733 728.203 42.38C727.683 42.6733 727.277 43.0933 726.983 43.64C726.69 44.1733 726.543 44.7867 726.543 45.48V45.8C726.543 46.5067 726.703 47.14 727.023 47.7C727.357 48.2467 727.817 48.6733 728.403 48.98C728.99 49.2867 729.663 49.44 730.423 49.44C731.05 49.44 731.617 49.3333 732.123 49.12C732.643 48.9067 733.097 48.5867 733.483 48.16L734.543 49.4C734.063 49.96 733.463 50.3867 732.743 50.68C732.037 50.9733 731.243 51.12 730.363 51.12ZM742.269 51.12C741.243 51.12 740.323 50.8933 739.509 50.44C738.709 49.9867 738.076 49.3533 737.609 48.54C737.143 47.7267 736.909 46.78 736.909 45.7C736.909 44.62 737.143 43.68 737.609 42.88C738.076 42.0667 738.709 41.4333 739.509 40.98C740.323 40.5267 741.243 40.3 742.269 40.3C743.163 40.3 743.969 40.5 744.689 40.9C745.409 41.3 745.983 41.9 746.409 42.7C746.849 43.5 747.069 44.5 747.069 45.7C747.069 46.9 746.856 47.9 746.429 48.7C746.016 49.5 745.449 50.1067 744.729 50.52C744.009 50.92 743.189 51.12 742.269 51.12ZM742.429 49.44C743.096 49.44 743.696 49.2867 744.229 48.98C744.776 48.6733 745.203 48.24 745.509 47.68C745.829 47.1067 745.989 46.4467 745.989 45.7C745.989 44.94 745.829 44.2867 745.509 43.74C745.203 43.18 744.776 42.7467 744.229 42.44C743.696 42.1333 743.096 41.98 742.429 41.98C741.749 41.98 741.143 42.1333 740.609 42.44C740.076 42.7467 739.649 43.18 739.329 43.74C739.009 44.2867 738.849 44.94 738.849 45.7C738.849 46.4467 739.009 47.1067 739.329 47.68C739.649 48.24 740.076 48.6733 740.609 48.98C741.143 49.2867 741.749 49.44 742.429 49.44ZM746.049 51V48.14L746.169 45.68L745.969 43.22V36.16H747.889V51H746.049ZM757.173 51V37H762.633C763.86 37 764.907 37.1933 765.773 37.58C766.64 37.9667 767.307 38.5267 767.773 39.26C768.24 39.9933 768.473 40.8667 768.473 41.88C768.473 42.8933 768.24 43.7667 767.773 44.5C767.307 45.22 766.64 45.7733 765.773 46.16C764.907 46.5467 763.86 46.74 762.633 46.74H758.273L759.173 45.82V51H757.173ZM766.533 51L762.973 45.92H765.113L768.713 51H766.533ZM759.173 46.02L758.273 45.04H762.573C763.853 45.04 764.82 44.7667 765.473 44.22C766.14 43.66 766.473 42.88 766.473 41.88C766.473 40.88 766.14 40.1067 765.473 39.56C764.82 39.0133 763.853 38.74 762.573 38.74H758.273L759.173 37.74V46.02ZM777.907 51V48.76L777.807 48.34V44.52C777.807 43.7067 777.567 43.08 777.087 42.64C776.62 42.1867 775.914 41.96 774.967 41.96C774.34 41.96 773.727 42.0667 773.127 42.28C772.527 42.48 772.02 42.7533 771.607 43.1L770.807 41.66C771.354 41.22 772.007 40.8867 772.767 40.66C773.54 40.42 774.347 40.3 775.187 40.3C776.64 40.3 777.76 40.6533 778.547 41.36C779.334 42.0667 779.727 43.1467 779.727 44.6V51H777.907ZM774.427 51.12C773.64 51.12 772.947 50.9867 772.347 50.72C771.76 50.4533 771.307 50.0867 770.987 49.62C770.667 49.14 770.507 48.6 770.507 48C770.507 47.4267 770.64 46.9067 770.907 46.44C771.187 45.9733 771.634 45.6 772.247 45.32C772.874 45.04 773.714 44.9 774.767 44.9H778.127V46.28H774.847C773.887 46.28 773.24 46.44 772.907 46.76C772.574 47.08 772.407 47.4667 772.407 47.92C772.407 48.44 772.614 48.86 773.027 49.18C773.44 49.4867 774.014 49.64 774.747 49.64C775.467 49.64 776.094 49.48 776.627 49.16C777.174 48.84 777.567 48.3733 777.807 47.76L778.187 49.08C777.934 49.7067 777.487 50.2067 776.847 50.58C776.207 50.94 775.4 51.12 774.427 51.12ZM783.545 55C783.038 55 782.545 54.9133 782.065 54.74C781.585 54.58 781.171 54.34 780.825 54.02L781.645 52.58C781.911 52.8333 782.205 53.0267 782.525 53.16C782.845 53.2933 783.185 53.36 783.545 53.36C784.011 53.36 784.398 53.24 784.705 53C785.011 52.76 785.298 52.3333 785.565 51.72L786.225 50.26L786.425 50.02L790.585 40.4H792.465L787.325 52.06C787.018 52.8067 786.671 53.3933 786.285 53.82C785.911 54.2467 785.498 54.5467 785.045 54.72C784.591 54.9067 784.091 55 783.545 55ZM786.065 51.34L781.225 40.4H783.225L787.345 49.84L786.065 51.34ZM797.16 51.12C796.28 51.12 795.44 51 794.64 50.76C793.853 50.52 793.233 50.2267 792.78 49.88L793.58 48.36C794.033 48.6667 794.593 48.9267 795.26 49.14C795.926 49.3533 796.606 49.46 797.3 49.46C798.193 49.46 798.833 49.3333 799.22 49.08C799.62 48.8267 799.82 48.4733 799.82 48.02C799.82 47.6867 799.7 47.4267 799.46 47.24C799.22 47.0533 798.9 46.9133 798.5 46.82C798.113 46.7267 797.68 46.6467 797.2 46.58C796.72 46.5 796.24 46.4067 795.76 46.3C795.28 46.18 794.84 46.02 794.44 45.82C794.04 45.6067 793.72 45.32 793.48 44.96C793.24 44.5867 793.12 44.0933 793.12 43.48C793.12 42.84 793.3 42.28 793.66 41.8C794.02 41.32 794.526 40.9533 795.18 40.7C795.846 40.4333 796.633 40.3 797.54 40.3C798.233 40.3 798.933 40.3867 799.64 40.56C800.36 40.72 800.946 40.9533 801.4 41.26L800.58 42.78C800.1 42.46 799.6 42.24 799.08 42.12C798.56 42 798.04 41.94 797.52 41.94C796.68 41.94 796.053 42.08 795.64 42.36C795.226 42.6267 795.02 42.9733 795.02 43.4C795.02 43.76 795.14 44.04 795.38 44.24C795.633 44.4267 795.953 44.5733 796.34 44.68C796.74 44.7867 797.18 44.88 797.66 44.96C798.14 45.0267 798.62 45.12 799.1 45.24C799.58 45.3467 800.013 45.5 800.4 45.7C800.8 45.9 801.12 46.18 801.36 46.54C801.613 46.9 801.74 47.38 801.74 47.98C801.74 48.62 801.553 49.1733 801.18 49.64C800.806 50.1067 800.28 50.4733 799.6 50.74C798.92 50.9933 798.106 51.12 797.16 51.12Z" fill="black"/>
<path d="M361.58 513.14H368.04V516.2H361.58V513.14ZM361.86 521H357.9V507H368.88V510.06H361.86V521ZM370.552 521V510.16H374.352V521H370.552ZM372.452 508.96C371.759 508.96 371.199 508.767 370.772 508.38C370.345 507.993 370.132 507.513 370.132 506.94C370.132 506.367 370.345 505.887 370.772 505.5C371.199 505.113 371.759 504.92 372.452 504.92C373.145 504.92 373.705 505.107 374.132 505.48C374.559 505.84 374.772 506.307 374.772 506.88C374.772 507.48 374.559 507.98 374.132 508.38C373.719 508.767 373.159 508.96 372.452 508.96ZM382.122 525.06C381.082 525.06 380.088 524.94 379.142 524.7C378.208 524.46 377.408 524.107 376.742 523.64L378.122 520.98C378.575 521.34 379.135 521.62 379.802 521.82C380.482 522.033 381.142 522.14 381.782 522.14C382.808 522.14 383.548 521.913 384.002 521.46C384.455 521.02 384.682 520.373 384.682 519.52V518.24L384.882 515.2L384.862 512.14V510.16H388.482V519.02C388.482 521.073 387.928 522.593 386.822 523.58C385.715 524.567 384.148 525.06 382.122 525.06ZM381.462 520.44C380.502 520.44 379.615 520.227 378.802 519.8C378.002 519.36 377.355 518.753 376.862 517.98C376.382 517.193 376.142 516.267 376.142 515.2C376.142 514.133 376.382 513.213 376.862 512.44C377.355 511.653 378.002 511.047 378.802 510.62C379.615 510.193 380.502 509.98 381.462 509.98C382.382 509.98 383.168 510.167 383.822 510.54C384.475 510.9 384.968 511.467 385.302 512.24C385.648 513.013 385.822 514 385.822 515.2C385.822 516.4 385.648 517.387 385.302 518.16C384.968 518.933 384.475 519.507 383.822 519.88C383.168 520.253 382.382 520.44 381.462 520.44ZM382.362 517.42C382.815 517.42 383.215 517.327 383.562 517.14C383.922 516.953 384.202 516.693 384.402 516.36C384.615 516.027 384.722 515.64 384.722 515.2C384.722 514.76 384.615 514.373 384.402 514.04C384.202 513.707 383.922 513.453 383.562 513.28C383.215 513.093 382.815 513 382.362 513C381.908 513 381.502 513.093 381.142 513.28C380.782 513.453 380.495 513.707 380.282 514.04C380.082 514.373 379.982 514.76 379.982 515.2C379.982 515.64 380.082 516.027 380.282 516.36C380.495 516.693 380.782 516.953 381.142 517.14C381.502 517.327 381.908 517.42 382.362 517.42ZM396.123 521V518.52L401.363 513.62C401.737 513.273 402.01 512.967 402.183 512.7C402.37 512.433 402.49 512.193 402.543 511.98C402.61 511.753 402.643 511.547 402.643 511.36C402.643 510.907 402.49 510.553 402.183 510.3C401.89 510.047 401.443 509.92 400.843 509.92C400.337 509.92 399.863 510.033 399.423 510.26C398.983 510.487 398.623 510.827 398.343 511.28L395.403 509.64C395.923 508.76 396.677 508.053 397.663 507.52C398.65 506.987 399.83 506.72 401.203 506.72C402.283 506.72 403.23 506.893 404.043 507.24C404.857 507.587 405.49 508.08 405.943 508.72C406.41 509.36 406.643 510.113 406.643 510.98C406.643 511.433 406.583 511.887 406.463 512.34C406.343 512.78 406.11 513.253 405.763 513.76C405.43 514.253 404.93 514.807 404.263 515.42L400.103 519.26L399.443 517.86H407.023V521H396.123ZM410.511 521.18C409.871 521.18 409.331 520.967 408.891 520.54C408.451 520.113 408.231 519.573 408.231 518.92C408.231 518.24 408.451 517.7 408.891 517.3C409.331 516.887 409.871 516.68 410.511 516.68C411.151 516.68 411.691 516.887 412.131 517.3C412.571 517.7 412.791 518.24 412.791 518.92C412.791 519.573 412.571 520.113 412.131 520.54C411.691 520.967 411.151 521.18 410.511 521.18ZM415.724 521V508.42L417.424 510.06H413.124V507H419.684V521H415.724Z" fill="black"/>
</svg>
