<svg width="387" height="355" viewBox="0 0 387 355" fill="none" xmlns="http://www.w3.org/2000/svg">
<rect x="1" y="1.21973" width="192.231" height="50.6237" fill="#FA6C32" stroke="#FA6C32" stroke-width="2"/>
<path d="M54.5157 33.5312V19.5312H57.7757L63.5757 29.0512H61.8557L67.4957 19.5312H70.7557L70.7957 33.5312H67.1557L67.1157 25.0712H67.7357L63.5157 32.1512H61.7557L57.4157 25.0712H58.1757V33.5312H54.5157ZM80.0378 33.5312V31.5112L79.7778 31.0112V27.2912C79.7778 26.6912 79.5911 26.2312 79.2178 25.9112C78.8578 25.5779 78.2778 25.4112 77.4778 25.4112C76.9578 25.4112 76.4311 25.4979 75.8978 25.6712C75.3644 25.8312 74.9111 26.0579 74.5378 26.3512L73.2578 23.7712C73.8711 23.3712 74.6044 23.0646 75.4578 22.8512C76.3244 22.6246 77.1844 22.5113 78.0378 22.5113C79.7978 22.5113 81.1578 22.9179 82.1178 23.7312C83.0911 24.5312 83.5778 25.7912 83.5778 27.5112V33.5312H80.0378ZM76.8378 33.7113C75.9711 33.7113 75.2378 33.5646 74.6378 33.2712C74.0378 32.9779 73.5778 32.5779 73.2578 32.0712C72.9511 31.5646 72.7978 30.9979 72.7978 30.3712C72.7978 29.7046 72.9644 29.1312 73.2978 28.6512C73.6444 28.1579 74.1711 27.7846 74.8778 27.5312C75.5844 27.2646 76.4978 27.1312 77.6178 27.1312H80.1778V29.1112H78.1378C77.5244 29.1112 77.0911 29.2112 76.8378 29.4112C76.5978 29.6112 76.4778 29.8779 76.4778 30.2112C76.4778 30.5446 76.6044 30.8112 76.8578 31.0112C77.1111 31.2112 77.4578 31.3112 77.8978 31.3112C78.3111 31.3112 78.6844 31.2112 79.0178 31.0112C79.3644 30.7979 79.6178 30.4779 79.7778 30.0512L80.2978 31.4512C80.0978 32.1979 79.7044 32.7646 79.1178 33.1512C78.5444 33.5246 77.7844 33.7113 76.8378 33.7113ZM90.8163 33.7113C89.4297 33.7113 88.3497 33.3712 87.5763 32.6912C86.803 31.9979 86.4163 30.9579 86.4163 29.5712V20.2712H90.2163V29.5312C90.2163 29.9179 90.323 30.2246 90.5363 30.4512C90.7497 30.6646 91.023 30.7712 91.3563 30.7712C91.8097 30.7712 92.1963 30.6579 92.5163 30.4312L93.4563 33.0912C93.1363 33.3046 92.743 33.4579 92.2763 33.5513C91.8097 33.6579 91.323 33.7113 90.8163 33.7113ZM84.8363 25.9312V23.0912H92.6963V25.9312H84.8363ZM100.289 33.7113C99.0092 33.7113 97.8892 33.4713 96.9292 32.9912C95.9825 32.4979 95.2425 31.8312 94.7092 30.9912C94.1892 30.1379 93.9292 29.1712 93.9292 28.0912C93.9292 27.0112 94.1825 26.0512 94.6892 25.2112C95.2092 24.3579 95.9225 23.6979 96.8292 23.2312C97.7358 22.7512 98.7558 22.5113 99.8892 22.5113C100.956 22.5113 101.929 22.7312 102.809 23.1712C103.689 23.5979 104.389 24.2312 104.909 25.0712C105.429 25.9112 105.689 26.9312 105.689 28.1312C105.689 28.2646 105.682 28.4179 105.669 28.5912C105.656 28.7646 105.642 28.9246 105.629 29.0712H97.0492V27.0712H103.609L102.169 27.6312C102.182 27.1379 102.089 26.7112 101.889 26.3512C101.702 25.9912 101.436 25.7112 101.089 25.5112C100.756 25.3112 100.362 25.2112 99.9092 25.2112C99.4558 25.2112 99.0558 25.3112 98.7092 25.5112C98.3758 25.7112 98.1158 25.9979 97.9292 26.3712C97.7425 26.7312 97.6492 27.1579 97.6492 27.6513V28.2312C97.6492 28.7646 97.7558 29.2246 97.9692 29.6112C98.1958 29.9979 98.5158 30.2979 98.9292 30.5112C99.3425 30.7112 99.8358 30.8112 100.409 30.8112C100.942 30.8112 101.396 30.7379 101.769 30.5913C102.156 30.4312 102.536 30.1912 102.909 29.8712L104.909 31.9512C104.389 32.5246 103.749 32.9646 102.989 33.2712C102.229 33.5646 101.329 33.7113 100.289 33.7113ZM107.441 33.5312V22.6912H111.061V25.8512L110.521 24.9512C110.841 24.1379 111.361 23.5312 112.081 23.1312C112.801 22.7179 113.675 22.5113 114.701 22.5113V25.9312C114.528 25.9046 114.375 25.8912 114.241 25.8912C114.121 25.8779 113.988 25.8712 113.841 25.8712C113.068 25.8712 112.441 26.0846 111.961 26.5112C111.481 26.9246 111.241 27.6046 111.241 28.5512V33.5312H107.441ZM116.269 33.5312V22.6912H120.069V33.5312H116.269ZM118.169 21.4912C117.476 21.4912 116.916 21.2979 116.489 20.9112C116.063 20.5246 115.849 20.0446 115.849 19.4712C115.849 18.8979 116.063 18.4179 116.489 18.0312C116.916 17.6446 117.476 17.4512 118.169 17.4512C118.863 17.4512 119.423 17.6379 119.849 18.0112C120.276 18.3712 120.489 18.8379 120.489 19.4112C120.489 20.0112 120.276 20.5112 119.849 20.9112C119.436 21.2979 118.876 21.4912 118.169 21.4912ZM129.159 33.5312V31.5112L128.899 31.0112V27.2912C128.899 26.6912 128.712 26.2312 128.339 25.9112C127.979 25.5779 127.399 25.4112 126.599 25.4112C126.079 25.4112 125.552 25.4979 125.019 25.6712C124.486 25.8312 124.032 26.0579 123.659 26.3512L122.379 23.7712C122.992 23.3712 123.726 23.0646 124.579 22.8512C125.446 22.6246 126.306 22.5113 127.159 22.5113C128.919 22.5113 130.279 22.9179 131.239 23.7312C132.212 24.5312 132.699 25.7912 132.699 27.5112V33.5312H129.159ZM125.959 33.7113C125.092 33.7113 124.359 33.5646 123.759 33.2712C123.159 32.9779 122.699 32.5779 122.379 32.0712C122.072 31.5646 121.919 30.9979 121.919 30.3712C121.919 29.7046 122.086 29.1312 122.419 28.6512C122.766 28.1579 123.292 27.7846 123.999 27.5312C124.706 27.2646 125.619 27.1312 126.739 27.1312H129.299V29.1112H127.259C126.646 29.1112 126.212 29.2112 125.959 29.4112C125.719 29.6112 125.599 29.8779 125.599 30.2112C125.599 30.5446 125.726 30.8112 125.979 31.0112C126.232 31.2112 126.579 31.3112 127.019 31.3112C127.432 31.3112 127.806 31.2112 128.139 31.0112C128.486 30.7979 128.739 30.4779 128.899 30.0512L129.419 31.4512C129.219 32.1979 128.826 32.7646 128.239 33.1512C127.666 33.5246 126.906 33.7113 125.959 33.7113ZM135.097 33.5312V18.6912H138.897V33.5312H135.097Z" fill="white"/>
<rect x="1" y="53.2197" width="192.231" height="50.6237" stroke="#FA6C32" stroke-width="2"/>
<path d="M60.8924 85.5312L54.7324 71.5312H56.8924L62.5524 84.4512H61.3124L67.0124 71.5312H69.0124L62.8724 85.5312H60.8924ZM76.297 85.5312V83.2912L76.197 82.8712V79.0512C76.197 78.2379 75.957 77.6112 75.477 77.1712C75.0103 76.7179 74.3036 76.4912 73.357 76.4912C72.7303 76.4912 72.117 76.5979 71.517 76.8112C70.917 77.0112 70.4103 77.2846 69.997 77.6312L69.197 76.1912C69.7436 75.7512 70.397 75.4179 71.157 75.1912C71.9303 74.9512 72.737 74.8312 73.577 74.8312C75.0303 74.8312 76.1503 75.1846 76.937 75.8912C77.7236 76.5979 78.117 77.6779 78.117 79.1312V85.5312H76.297ZM72.817 85.6513C72.0303 85.6513 71.337 85.5179 70.737 85.2512C70.1503 84.9846 69.697 84.6179 69.377 84.1512C69.057 83.6712 68.897 83.1312 68.897 82.5312C68.897 81.9579 69.0303 81.4379 69.297 80.9712C69.577 80.5046 70.0236 80.1312 70.637 79.8512C71.2636 79.5712 72.1036 79.4312 73.157 79.4312H76.517V80.8112H73.237C72.277 80.8112 71.6303 80.9712 71.297 81.2912C70.9636 81.6112 70.797 81.9979 70.797 82.4512C70.797 82.9712 71.0036 83.3912 71.417 83.7112C71.8303 84.0179 72.4036 84.1712 73.137 84.1712C73.857 84.1712 74.4836 84.0112 75.017 83.6912C75.5636 83.3712 75.957 82.9046 76.197 82.2912L76.577 83.6112C76.3236 84.2379 75.877 84.7379 75.237 85.1112C74.597 85.4712 73.7903 85.6513 72.817 85.6513ZM86.2901 85.6513C85.2101 85.6513 84.2434 85.4179 83.3901 84.9512C82.5501 84.4846 81.8901 83.8446 81.4101 83.0312C80.9301 82.2179 80.6901 81.2846 80.6901 80.2312C80.6901 79.1779 80.9301 78.2446 81.4101 77.4312C81.8901 76.6179 82.5501 75.9846 83.3901 75.5312C84.2434 75.0646 85.2101 74.8312 86.2901 74.8312C87.2501 74.8312 88.1034 75.0246 88.8501 75.4112C89.6101 75.7846 90.1968 76.3446 90.6101 77.0912L89.1501 78.0312C88.8034 77.5112 88.3768 77.1312 87.8701 76.8912C87.3768 76.6379 86.8434 76.5112 86.2701 76.5112C85.5768 76.5112 84.9568 76.6646 84.4101 76.9712C83.8634 77.2779 83.4301 77.7112 83.1101 78.2712C82.7901 78.8179 82.6301 79.4712 82.6301 80.2312C82.6301 80.9912 82.7901 81.6512 83.1101 82.2112C83.4301 82.7712 83.8634 83.2046 84.4101 83.5112C84.9568 83.8179 85.5768 83.9712 86.2701 83.9712C86.8434 83.9712 87.3768 83.8512 87.8701 83.6112C88.3768 83.3579 88.8034 82.9712 89.1501 82.4512L90.6101 83.3712C90.1968 84.1046 89.6101 84.6712 88.8501 85.0712C88.1034 85.4579 87.2501 85.6513 86.2901 85.6513ZM97.5559 85.6513C96.6492 85.6513 95.8492 85.4846 95.1559 85.1512C94.4759 84.8179 93.9425 84.3112 93.5559 83.6312C93.1825 82.9379 92.9959 82.0712 92.9959 81.0312V74.9312H94.9159V80.8112C94.9159 81.8512 95.1625 82.6312 95.6559 83.1512C96.1625 83.6712 96.8692 83.9312 97.7759 83.9312C98.4425 83.9312 99.0225 83.7979 99.5159 83.5312C100.009 83.2512 100.389 82.8512 100.656 82.3312C100.923 81.7979 101.056 81.1579 101.056 80.4112V74.9312H102.976V85.5312H101.156V82.6712L101.456 83.4312C101.109 84.1379 100.589 84.6846 99.8959 85.0712C99.2025 85.4579 98.4225 85.6513 97.5559 85.6513ZM111.091 85.6513C110.184 85.6513 109.384 85.4846 108.691 85.1512C108.011 84.8179 107.478 84.3112 107.091 83.6312C106.718 82.9379 106.531 82.0712 106.531 81.0312V74.9312H108.451V80.8112C108.451 81.8512 108.698 82.6312 109.191 83.1512C109.698 83.6712 110.404 83.9312 111.311 83.9312C111.978 83.9312 112.558 83.7979 113.051 83.5312C113.544 83.2512 113.924 82.8512 114.191 82.3312C114.458 81.7979 114.591 81.1579 114.591 80.4112V74.9312H116.511V85.5312H114.691V82.6712L114.991 83.4312C114.644 84.1379 114.124 84.6846 113.431 85.0712C112.738 85.4579 111.958 85.6513 111.091 85.6513ZM133.426 74.8312C134.28 74.8312 135.033 74.9979 135.686 75.3312C136.34 75.6646 136.846 76.1712 137.206 76.8512C137.58 77.5312 137.766 78.3912 137.766 79.4312V85.5312H135.846V79.6513C135.846 78.6246 135.606 77.8512 135.126 77.3312C134.646 76.8112 133.973 76.5512 133.106 76.5512C132.466 76.5512 131.906 76.6846 131.426 76.9512C130.946 77.2179 130.573 77.6112 130.306 78.1312C130.053 78.6512 129.926 79.2979 129.926 80.0712V85.5312H128.006V79.6513C128.006 78.6246 127.766 77.8512 127.286 77.3312C126.82 76.8112 126.146 76.5512 125.266 76.5512C124.64 76.5512 124.086 76.6846 123.606 76.9512C123.126 77.2179 122.753 77.6112 122.486 78.1312C122.22 78.6512 122.086 79.2979 122.086 80.0712V85.5312H120.166V74.9312H122.006V77.7512L121.706 77.0312C122.04 76.3379 122.553 75.7979 123.246 75.4112C123.94 75.0246 124.746 74.8312 125.666 74.8312C126.68 74.8312 127.553 75.0846 128.286 75.5912C129.02 76.0846 129.5 76.8379 129.726 77.8512L128.946 77.5312C129.266 76.7179 129.826 76.0646 130.626 75.5712C131.426 75.0779 132.36 74.8312 133.426 74.8312Z" fill="black"/>
<rect x="1" y="103.22" width="192.231" height="50.6237" stroke="#FA6C32" stroke-width="2"/>
<path d="M82.877 135.531L89.217 121.531H91.197L97.557 135.531H95.457L89.797 122.651H90.597L84.937 135.531H82.877ZM85.577 132.031L86.117 130.431H93.997L94.577 132.031H85.577ZM99.3654 135.531V124.931H101.285V135.531H99.3654ZM100.325 122.891C99.9521 122.891 99.6387 122.771 99.3854 122.531C99.1454 122.291 99.0254 121.998 99.0254 121.651C99.0254 121.291 99.1454 120.991 99.3854 120.751C99.6387 120.511 99.9521 120.391 100.325 120.391C100.699 120.391 101.005 120.511 101.245 120.751C101.499 120.978 101.625 121.265 101.625 121.611C101.625 121.971 101.505 122.278 101.265 122.531C101.025 122.771 100.712 122.891 100.325 122.891ZM104.951 135.531V124.931H106.791V127.811L106.611 127.091C106.905 126.358 107.398 125.798 108.091 125.411C108.785 125.025 109.638 124.831 110.651 124.831V126.691C110.571 126.678 110.491 126.671 110.411 126.671C110.345 126.671 110.278 126.671 110.211 126.671C109.185 126.671 108.371 126.978 107.771 127.591C107.171 128.205 106.871 129.091 106.871 130.251V135.531H104.951Z" fill="black"/>
<rect x="1" y="153.22" width="192.231" height="50.6237" stroke="#FA6C32" stroke-width="2"/>
<path d="M71.0568 185.531L66.3768 171.531H68.4368L72.7368 184.451H71.6968L76.1568 171.531H77.9968L82.3568 184.451H81.3568L85.7168 171.531H87.6168L82.9368 185.531H80.8368L76.7568 173.551H77.2968L73.1968 185.531H71.0568ZM95.5626 185.531V183.291L95.4626 182.871V179.051C95.4626 178.238 95.2226 177.611 94.7426 177.171C94.2759 176.718 93.5693 176.491 92.6226 176.491C91.9959 176.491 91.3826 176.598 90.7826 176.811C90.1826 177.011 89.6759 177.285 89.2626 177.631L88.4626 176.191C89.0093 175.751 89.6626 175.418 90.4226 175.191C91.1959 174.951 92.0026 174.831 92.8426 174.831C94.2959 174.831 95.4159 175.185 96.2026 175.891C96.9893 176.598 97.3826 177.678 97.3826 179.131V185.531H95.5626ZM92.0826 185.651C91.2959 185.651 90.6026 185.518 90.0026 185.251C89.4159 184.985 88.9626 184.618 88.6426 184.151C88.3226 183.671 88.1626 183.131 88.1626 182.531C88.1626 181.958 88.2959 181.438 88.5626 180.971C88.8426 180.505 89.2893 180.131 89.9026 179.851C90.5293 179.571 91.3693 179.431 92.4226 179.431H95.7826V180.811H92.5026C91.5426 180.811 90.8959 180.971 90.5626 181.291C90.2293 181.611 90.0626 181.998 90.0626 182.451C90.0626 182.971 90.2693 183.391 90.6826 183.711C91.0959 184.018 91.6693 184.171 92.4026 184.171C93.1226 184.171 93.7493 184.011 94.2826 183.691C94.8293 183.371 95.2226 182.905 95.4626 182.291L95.8426 183.611C95.5893 184.238 95.1426 184.738 94.5026 185.111C93.8626 185.471 93.0559 185.651 92.0826 185.651ZM104.576 185.651C103.509 185.651 102.682 185.365 102.096 184.791C101.509 184.218 101.216 183.398 101.216 182.331V172.611H103.136V182.251C103.136 182.825 103.276 183.265 103.556 183.571C103.849 183.878 104.262 184.031 104.796 184.031C105.396 184.031 105.896 183.865 106.296 183.531L106.896 184.911C106.602 185.165 106.249 185.351 105.836 185.471C105.436 185.591 105.016 185.651 104.576 185.651ZM99.4157 176.511V174.931H106.176V176.511H99.4157ZM113.585 185.651C112.452 185.651 111.452 185.418 110.585 184.951C109.732 184.485 109.065 183.845 108.585 183.031C108.119 182.218 107.885 181.285 107.885 180.231C107.885 179.178 108.112 178.245 108.565 177.431C109.032 176.618 109.665 175.985 110.465 175.531C111.279 175.065 112.192 174.831 113.205 174.831C114.232 174.831 115.139 175.058 115.925 175.511C116.712 175.965 117.325 176.605 117.765 177.431C118.219 178.245 118.445 179.198 118.445 180.291C118.445 180.371 118.439 180.465 118.425 180.571C118.425 180.678 118.419 180.778 118.405 180.871H109.385V179.491H117.405L116.625 179.971C116.639 179.291 116.499 178.685 116.205 178.151C115.912 177.618 115.505 177.205 114.985 176.911C114.479 176.605 113.885 176.451 113.205 176.451C112.539 176.451 111.945 176.605 111.425 176.911C110.905 177.205 110.499 177.625 110.205 178.171C109.912 178.705 109.765 179.318 109.765 180.011V180.331C109.765 181.038 109.925 181.671 110.245 182.231C110.579 182.778 111.039 183.205 111.625 183.511C112.212 183.818 112.885 183.971 113.645 183.971C114.272 183.971 114.839 183.865 115.345 183.651C115.865 183.438 116.319 183.118 116.705 182.691L117.765 183.931C117.285 184.491 116.685 184.918 115.965 185.211C115.259 185.505 114.465 185.651 113.585 185.651ZM121.112 185.531V174.931H122.952V177.811L122.772 177.091C123.065 176.358 123.558 175.798 124.252 175.411C124.945 175.025 125.798 174.831 126.812 174.831V176.691C126.732 176.678 126.652 176.671 126.572 176.671C126.505 176.671 126.438 176.671 126.372 176.671C125.345 176.671 124.532 176.978 123.932 177.591C123.332 178.205 123.032 179.091 123.032 180.251V185.531H121.112Z" fill="black"/>
<rect x="1" y="203.22" width="192.231" height="50.6237" stroke="#FA6C32" stroke-width="2"/>
<path d="M33.9928 227.571H41.1928V229.271H33.9928V227.571ZM34.1728 233.791H42.3328V235.531H32.1728V221.531H42.0528V223.271H34.1728V233.791ZM48.6968 235.651C47.6301 235.651 46.8035 235.365 46.2168 234.791C45.6301 234.218 45.3368 233.398 45.3368 232.331V222.611H47.2568V232.251C47.2568 232.825 47.3968 233.265 47.6768 233.571C47.9702 233.878 48.3835 234.031 48.9168 234.031C49.5168 234.031 50.0168 233.865 50.4168 233.531L51.0168 234.911C50.7235 235.165 50.3702 235.351 49.9568 235.471C49.5568 235.591 49.1368 235.651 48.6968 235.651ZM43.5368 226.511V224.931H50.2968V226.511H43.5368ZM58.9981 224.831C59.8647 224.831 60.6247 224.998 61.2781 225.331C61.9447 225.665 62.4647 226.171 62.8381 226.851C63.2114 227.531 63.3981 228.391 63.3981 229.431V235.531H61.4781V229.651C61.4781 228.625 61.2247 227.851 60.7181 227.331C60.2247 226.811 59.5247 226.551 58.6181 226.551C57.9381 226.551 57.3447 226.685 56.8381 226.951C56.3314 227.218 55.9381 227.611 55.6581 228.131C55.3914 228.651 55.2581 229.298 55.2581 230.071V235.531H53.3381V220.691H55.2581V227.791L54.8781 227.031C55.2247 226.338 55.7581 225.798 56.4781 225.411C57.1981 225.025 58.0381 224.831 58.9981 224.831ZM67.216 239.531C66.7094 239.531 66.216 239.445 65.736 239.271C65.256 239.111 64.8427 238.871 64.496 238.551L65.316 237.111C65.5827 237.365 65.876 237.558 66.196 237.691C66.516 237.825 66.856 237.891 67.216 237.891C67.6827 237.891 68.0694 237.771 68.376 237.531C68.6827 237.291 68.9694 236.865 69.236 236.251L69.896 234.791L70.096 234.551L74.256 224.931H76.136L70.996 236.591C70.6894 237.338 70.3427 237.925 69.956 238.351C69.5827 238.778 69.1694 239.078 68.716 239.251C68.2627 239.438 67.7627 239.531 67.216 239.531ZM69.736 235.871L64.896 224.931H66.896L71.016 234.371L69.736 235.871ZM77.9279 235.531V220.691H79.8479V235.531H77.9279ZM87.0449 235.531L93.3849 221.531H95.3649L101.725 235.531H99.6249L93.9649 222.651H94.7649L89.1049 235.531H87.0449ZM89.7449 232.031L90.2849 230.431H98.1649L98.7449 232.031H89.7449ZM103.533 235.531V220.691H105.453V235.531H103.533ZM113.739 235.651C112.659 235.651 111.693 235.418 110.839 234.951C109.999 234.485 109.339 233.845 108.859 233.031C108.379 232.218 108.139 231.285 108.139 230.231C108.139 229.178 108.379 228.245 108.859 227.431C109.339 226.618 109.999 225.985 110.839 225.531C111.693 225.065 112.659 224.831 113.739 224.831C114.699 224.831 115.553 225.025 116.299 225.411C117.059 225.785 117.646 226.345 118.059 227.091L116.599 228.031C116.253 227.511 115.826 227.131 115.319 226.891C114.826 226.638 114.293 226.511 113.719 226.511C113.026 226.511 112.406 226.665 111.859 226.971C111.313 227.278 110.879 227.711 110.559 228.271C110.239 228.818 110.079 229.471 110.079 230.231C110.079 230.991 110.239 231.651 110.559 232.211C110.879 232.771 111.313 233.205 111.859 233.511C112.406 233.818 113.026 233.971 113.719 233.971C114.293 233.971 114.826 233.851 115.319 233.611C115.826 233.358 116.253 232.971 116.599 232.451L118.059 233.371C117.646 234.105 117.059 234.671 116.299 235.071C115.553 235.458 114.699 235.651 113.739 235.651ZM124.929 235.651C123.862 235.651 122.916 235.418 122.089 234.951C121.262 234.485 120.609 233.845 120.129 233.031C119.649 232.205 119.409 231.271 119.409 230.231C119.409 229.178 119.649 228.245 120.129 227.431C120.609 226.618 121.262 225.985 122.089 225.531C122.916 225.065 123.862 224.831 124.929 224.831C125.982 224.831 126.922 225.065 127.749 225.531C128.589 225.985 129.242 226.618 129.709 227.431C130.189 228.231 130.429 229.165 130.429 230.231C130.429 231.285 130.189 232.218 129.709 233.031C129.242 233.845 128.589 234.485 127.749 234.951C126.922 235.418 125.982 235.651 124.929 235.651ZM124.929 233.971C125.609 233.971 126.216 233.818 126.749 233.511C127.296 233.205 127.722 232.771 128.029 232.211C128.336 231.638 128.489 230.978 128.489 230.231C128.489 229.471 128.336 228.818 128.029 228.271C127.722 227.711 127.296 227.278 126.749 226.971C126.216 226.665 125.609 226.511 124.929 226.511C124.249 226.511 123.642 226.665 123.109 226.971C122.576 227.278 122.149 227.711 121.829 228.271C121.509 228.818 121.349 229.471 121.349 230.231C121.349 230.978 121.509 231.638 121.829 232.211C122.149 232.771 122.576 233.205 123.109 233.511C123.642 233.818 124.249 233.971 124.929 233.971ZM138.744 224.831C139.611 224.831 140.371 224.998 141.024 225.331C141.691 225.665 142.211 226.171 142.584 226.851C142.957 227.531 143.144 228.391 143.144 229.431V235.531H141.224V229.651C141.224 228.625 140.971 227.851 140.464 227.331C139.971 226.811 139.271 226.551 138.364 226.551C137.684 226.551 137.091 226.685 136.584 226.951C136.077 227.218 135.684 227.611 135.404 228.131C135.137 228.651 135.004 229.298 135.004 230.071V235.531H133.084V220.691H135.004V227.791L134.624 227.031C134.971 226.338 135.504 225.798 136.224 225.411C136.944 225.025 137.784 224.831 138.744 224.831ZM151.237 235.651C150.171 235.651 149.224 235.418 148.397 234.951C147.571 234.485 146.917 233.845 146.437 233.031C145.957 232.205 145.717 231.271 145.717 230.231C145.717 229.178 145.957 228.245 146.437 227.431C146.917 226.618 147.571 225.985 148.397 225.531C149.224 225.065 150.171 224.831 151.237 224.831C152.291 224.831 153.231 225.065 154.057 225.531C154.897 225.985 155.551 226.618 156.017 227.431C156.497 228.231 156.737 229.165 156.737 230.231C156.737 231.285 156.497 232.218 156.017 233.031C155.551 233.845 154.897 234.485 154.057 234.951C153.231 235.418 152.291 235.651 151.237 235.651ZM151.237 233.971C151.917 233.971 152.524 233.818 153.057 233.511C153.604 233.205 154.031 232.771 154.337 232.211C154.644 231.638 154.797 230.978 154.797 230.231C154.797 229.471 154.644 228.818 154.337 228.271C154.031 227.711 153.604 227.278 153.057 226.971C152.524 226.665 151.917 226.511 151.237 226.511C150.557 226.511 149.951 226.665 149.417 226.971C148.884 227.278 148.457 227.711 148.137 228.271C147.817 228.818 147.657 229.471 147.657 230.231C147.657 230.978 147.817 231.638 148.137 232.211C148.457 232.771 148.884 233.205 149.417 233.511C149.951 233.818 150.557 233.971 151.237 233.971ZM159.393 235.531V220.691H161.313V235.531H159.393Z" fill="black"/>
<rect x="1" y="253.22" width="192.231" height="50.6237" stroke="#FA6C32" stroke-width="2"/>
<path d="M58.065 285.691C56.985 285.691 55.9917 285.518 55.085 285.171C54.1784 284.811 53.3917 284.311 52.725 283.671C52.0584 283.018 51.5384 282.258 51.165 281.391C50.7917 280.525 50.605 279.571 50.605 278.531C50.605 277.491 50.7917 276.538 51.165 275.671C51.5384 274.805 52.0584 274.051 52.725 273.411C53.405 272.758 54.1984 272.258 55.105 271.911C56.0117 271.551 57.0117 271.371 58.105 271.371C59.2117 271.371 60.225 271.551 61.145 271.911C62.065 272.271 62.845 272.811 63.485 273.531L62.245 274.771C61.6717 274.211 61.045 273.805 60.365 273.551C59.6984 273.285 58.9717 273.151 58.185 273.151C57.385 273.151 56.6384 273.285 55.945 273.551C55.265 273.818 54.6717 274.191 54.165 274.671C53.6717 275.151 53.285 275.725 53.005 276.391C52.7384 277.045 52.605 277.758 52.605 278.531C52.605 279.291 52.7384 280.005 53.005 280.671C53.285 281.325 53.6717 281.898 54.165 282.391C54.6717 282.871 55.265 283.245 55.945 283.511C56.625 283.778 57.365 283.911 58.165 283.911C58.9117 283.911 59.625 283.798 60.305 283.571C60.9984 283.331 61.6384 282.938 62.225 282.391L63.365 283.911C62.6717 284.498 61.8584 284.945 60.925 285.251C60.005 285.545 59.0517 285.691 58.065 285.691ZM61.445 283.651V278.451H63.365V283.911L61.445 283.651ZM66.9142 285.531V270.691H68.8342V285.531H66.9142ZM72.9602 289.531C72.4535 289.531 71.9602 289.445 71.4802 289.271C71.0002 289.111 70.5868 288.871 70.2402 288.551L71.0602 287.111C71.3268 287.365 71.6202 287.558 71.9402 287.691C72.2602 287.825 72.6002 287.891 72.9602 287.891C73.4268 287.891 73.8135 287.771 74.1202 287.531C74.4268 287.291 74.7135 286.865 74.9802 286.251L75.6402 284.791L75.8402 284.551L80.0002 274.931H81.8802L76.7402 286.591C76.4335 287.338 76.0868 287.925 75.7002 288.351C75.3268 288.778 74.9135 289.078 74.4602 289.251C74.0068 289.438 73.5068 289.531 72.9602 289.531ZM75.4802 285.871L70.6402 274.931H72.6402L76.7602 284.371L75.4802 285.871ZM87.9991 285.651C86.9191 285.651 85.9524 285.418 85.0991 284.951C84.2591 284.485 83.5991 283.845 83.1191 283.031C82.6391 282.218 82.3991 281.285 82.3991 280.231C82.3991 279.178 82.6391 278.245 83.1191 277.431C83.5991 276.618 84.2591 275.985 85.0991 275.531C85.9524 275.065 86.9191 274.831 87.9991 274.831C88.9591 274.831 89.8124 275.025 90.5591 275.411C91.3191 275.785 91.9057 276.345 92.3191 277.091L90.8591 278.031C90.5124 277.511 90.0857 277.131 89.5791 276.891C89.0857 276.638 88.5524 276.511 87.9791 276.511C87.2857 276.511 86.6657 276.665 86.1191 276.971C85.5724 277.278 85.1391 277.711 84.8191 278.271C84.4991 278.818 84.3391 279.471 84.3391 280.231C84.3391 280.991 84.4991 281.651 84.8191 282.211C85.1391 282.771 85.5724 283.205 86.1191 283.511C86.6657 283.818 87.2857 283.971 87.9791 283.971C88.5524 283.971 89.0857 283.851 89.5791 283.611C90.0857 283.358 90.5124 282.971 90.8591 282.451L92.3191 283.371C91.9057 284.105 91.3191 284.671 90.5591 285.071C89.8124 285.458 88.9591 285.651 87.9991 285.651ZM99.3686 285.651C98.2353 285.651 97.2353 285.418 96.3686 284.951C95.5153 284.485 94.8486 283.845 94.3686 283.031C93.9019 282.218 93.6686 281.285 93.6686 280.231C93.6686 279.178 93.8953 278.245 94.3486 277.431C94.8153 276.618 95.4486 275.985 96.2486 275.531C97.0619 275.065 97.9753 274.831 98.9886 274.831C100.015 274.831 100.922 275.058 101.709 275.511C102.495 275.965 103.109 276.605 103.549 277.431C104.002 278.245 104.229 279.198 104.229 280.291C104.229 280.371 104.222 280.465 104.209 280.571C104.209 280.678 104.202 280.778 104.189 280.871H95.1686V279.491H103.189L102.409 279.971C102.422 279.291 102.282 278.685 101.989 278.151C101.695 277.618 101.289 277.205 100.769 276.911C100.262 276.605 99.6686 276.451 98.9886 276.451C98.3219 276.451 97.7286 276.605 97.2086 276.911C96.6886 277.205 96.2819 277.625 95.9886 278.171C95.6953 278.705 95.5486 279.318 95.5486 280.011V280.331C95.5486 281.038 95.7086 281.671 96.0286 282.231C96.3619 282.778 96.8219 283.205 97.4086 283.511C97.9953 283.818 98.6686 283.971 99.4286 283.971C100.055 283.971 100.622 283.865 101.129 283.651C101.649 283.438 102.102 283.118 102.489 282.691L103.549 283.931C103.069 284.491 102.469 284.918 101.749 285.211C101.042 285.505 100.249 285.651 99.3686 285.651ZM106.895 285.531V274.931H108.735V277.811L108.555 277.091C108.848 276.358 109.341 275.798 110.035 275.411C110.728 275.025 111.581 274.831 112.595 274.831V276.691C112.515 276.678 112.435 276.671 112.355 276.671C112.288 276.671 112.221 276.671 112.155 276.671C111.128 276.671 110.315 276.978 109.715 277.591C109.115 278.205 108.815 279.091 108.815 280.251V285.531H106.895ZM114.961 285.531V274.931H116.881V285.531H114.961ZM115.921 272.891C115.548 272.891 115.234 272.771 114.981 272.531C114.741 272.291 114.621 271.998 114.621 271.651C114.621 271.291 114.741 270.991 114.981 270.751C115.234 270.511 115.548 270.391 115.921 270.391C116.294 270.391 116.601 270.511 116.841 270.751C117.094 270.978 117.221 271.265 117.221 271.611C117.221 271.971 117.101 272.278 116.861 272.531C116.621 272.771 116.308 272.891 115.921 272.891ZM126.207 274.831C127.074 274.831 127.834 274.998 128.487 275.331C129.154 275.665 129.674 276.171 130.047 276.851C130.42 277.531 130.607 278.391 130.607 279.431V285.531H128.687V279.651C128.687 278.625 128.434 277.851 127.927 277.331C127.434 276.811 126.734 276.551 125.827 276.551C125.147 276.551 124.554 276.685 124.047 276.951C123.54 277.218 123.147 277.611 122.867 278.131C122.6 278.651 122.467 279.298 122.467 280.071V285.531H120.547V274.931H122.387V277.791L122.087 277.031C122.434 276.338 122.967 275.798 123.687 275.411C124.407 275.025 125.247 274.831 126.207 274.831ZM138.88 285.651C137.747 285.651 136.747 285.418 135.88 284.951C135.027 284.485 134.36 283.845 133.88 283.031C133.414 282.218 133.18 281.285 133.18 280.231C133.18 279.178 133.407 278.245 133.86 277.431C134.327 276.618 134.96 275.985 135.76 275.531C136.574 275.065 137.487 274.831 138.5 274.831C139.527 274.831 140.434 275.058 141.22 275.511C142.007 275.965 142.62 276.605 143.06 277.431C143.514 278.245 143.74 279.198 143.74 280.291C143.74 280.371 143.734 280.465 143.72 280.571C143.72 280.678 143.714 280.778 143.7 280.871H134.68V279.491H142.7L141.92 279.971C141.934 279.291 141.794 278.685 141.5 278.151C141.207 277.618 140.8 277.205 140.28 276.911C139.774 276.605 139.18 276.451 138.5 276.451C137.834 276.451 137.24 276.605 136.72 276.911C136.2 277.205 135.794 277.625 135.5 278.171C135.207 278.705 135.06 279.318 135.06 280.011V280.331C135.06 281.038 135.22 281.671 135.54 282.231C135.874 282.778 136.334 283.205 136.92 283.511C137.507 283.818 138.18 283.971 138.94 283.971C139.567 283.971 140.134 283.865 140.64 283.651C141.16 283.438 141.614 283.118 142 282.691L143.06 283.931C142.58 284.491 141.98 284.918 141.26 285.211C140.554 285.505 139.76 285.651 138.88 285.651Z" fill="black"/>
<rect x="1" y="303.22" width="192.231" height="50.6237" stroke="#FA6C32" stroke-width="2"/>
<path d="M83.8622 335.531V321.531H85.8622V335.531H83.8622ZM94.3936 335.651C93.3136 335.651 92.3469 335.418 91.4936 334.951C90.6536 334.485 89.9936 333.845 89.5136 333.031C89.0336 332.218 88.7936 331.285 88.7936 330.231C88.7936 329.178 89.0336 328.245 89.5136 327.431C89.9936 326.618 90.6536 325.985 91.4936 325.531C92.3469 325.065 93.3136 324.831 94.3936 324.831C95.3536 324.831 96.2069 325.025 96.9536 325.411C97.7136 325.785 98.3003 326.345 98.7136 327.091L97.2536 328.031C96.9069 327.511 96.4803 327.131 95.9736 326.891C95.4803 326.638 94.9469 326.511 94.3736 326.511C93.6803 326.511 93.0603 326.665 92.5136 326.971C91.9669 327.278 91.5336 327.711 91.2136 328.271C90.8936 328.818 90.7336 329.471 90.7336 330.231C90.7336 330.991 90.8936 331.651 91.2136 332.211C91.5336 332.771 91.9669 333.205 92.5136 333.511C93.0603 333.818 93.6803 333.971 94.3736 333.971C94.9469 333.971 95.4803 333.851 95.9736 333.611C96.4803 333.358 96.9069 332.971 97.2536 332.451L98.7136 333.371C98.3003 334.105 97.7136 334.671 96.9536 335.071C96.2069 335.458 95.3536 335.651 94.3936 335.651ZM105.763 335.651C104.63 335.651 103.63 335.418 102.763 334.951C101.91 334.485 101.243 333.845 100.763 333.031C100.296 332.218 100.063 331.285 100.063 330.231C100.063 329.178 100.29 328.245 100.743 327.431C101.21 326.618 101.843 325.985 102.643 325.531C103.456 325.065 104.37 324.831 105.383 324.831C106.41 324.831 107.316 325.058 108.103 325.511C108.89 325.965 109.503 326.605 109.943 327.431C110.396 328.245 110.623 329.198 110.623 330.291C110.623 330.371 110.616 330.465 110.603 330.571C110.603 330.678 110.596 330.778 110.583 330.871H101.563V329.491H109.583L108.803 329.971C108.816 329.291 108.676 328.685 108.383 328.151C108.09 327.618 107.683 327.205 107.163 326.911C106.656 326.605 106.063 326.451 105.383 326.451C104.716 326.451 104.123 326.605 103.603 326.911C103.083 327.205 102.676 327.625 102.383 328.171C102.09 328.705 101.943 329.318 101.943 330.011V330.331C101.943 331.038 102.103 331.671 102.423 332.231C102.756 332.778 103.216 333.205 103.803 333.511C104.39 333.818 105.063 333.971 105.823 333.971C106.45 333.971 107.016 333.865 107.523 333.651C108.043 333.438 108.496 333.118 108.883 332.691L109.943 333.931C109.463 334.491 108.863 334.918 108.143 335.211C107.436 335.505 106.643 335.651 105.763 335.651Z" fill="black"/>
<rect x="193" y="1.21973" width="192.231" height="50.6237" fill="#FA6C32" stroke="#FA6C32" stroke-width="2"/>
<path d="M290.433 22.5113C291.273 22.5113 292.033 22.6846 292.713 23.0312C293.393 23.3646 293.926 23.8846 294.313 24.5912C294.713 25.2979 294.913 26.2112 294.913 27.3312V33.5312H291.113V27.9512C291.113 27.1779 290.953 26.6179 290.633 26.2712C290.326 25.9112 289.893 25.7312 289.333 25.7312C288.933 25.7312 288.566 25.8246 288.233 26.0112C287.899 26.1846 287.639 26.4579 287.453 26.8312C287.266 27.2046 287.173 27.6912 287.173 28.2912V33.5312H283.373V22.6912H286.993V25.7712L286.293 24.8712C286.706 24.0846 287.273 23.4979 287.993 23.1112C288.713 22.7112 289.526 22.5113 290.433 22.5113Z" fill="white"/>
<rect x="193" y="53.2197" width="192.231" height="50.6237" stroke="#FA6C32" stroke-width="2"/>
<path d="M266.076 85.5312V72.3312L266.936 73.2712H262.916V71.5312H268.056V85.5312H266.076ZM272.439 85.6513C272.065 85.6513 271.745 85.5246 271.479 85.2712C271.212 85.0046 271.079 84.6712 271.079 84.2712C271.079 83.8712 271.212 83.5446 271.479 83.2912C271.745 83.0379 272.065 82.9112 272.439 82.9112C272.799 82.9112 273.105 83.0379 273.359 83.2912C273.625 83.5446 273.759 83.8712 273.759 84.2712C273.759 84.6712 273.625 85.0046 273.359 85.2712C273.105 85.5246 272.799 85.6513 272.439 85.6513ZM281.136 85.6913C280.042 85.6913 279.062 85.4112 278.196 84.8512C277.342 84.2912 276.662 83.4779 276.156 82.4112C275.662 81.3446 275.416 80.0512 275.416 78.5312C275.416 77.0112 275.662 75.7179 276.156 74.6512C276.662 73.5846 277.342 72.7712 278.196 72.2112C279.062 71.6512 280.042 71.3712 281.136 71.3712C282.216 71.3712 283.189 71.6512 284.056 72.2112C284.922 72.7712 285.602 73.5846 286.096 74.6512C286.589 75.7179 286.836 77.0112 286.836 78.5312C286.836 80.0512 286.589 81.3446 286.096 82.4112C285.602 83.4779 284.922 84.2912 284.056 84.8512C283.189 85.4112 282.216 85.6913 281.136 85.6913ZM281.136 83.9112C281.869 83.9112 282.509 83.7112 283.056 83.3112C283.616 82.9112 284.049 82.3112 284.356 81.5112C284.676 80.7112 284.836 79.7179 284.836 78.5312C284.836 77.3446 284.676 76.3512 284.356 75.5512C284.049 74.7512 283.616 74.1512 283.056 73.7512C282.509 73.3512 281.869 73.1512 281.136 73.1512C280.402 73.1512 279.756 73.3512 279.196 73.7512C278.636 74.1512 278.196 74.7512 277.876 75.5512C277.569 76.3512 277.416 77.3446 277.416 78.5312C277.416 79.7179 277.569 80.7112 277.876 81.5112C278.196 82.3112 278.636 82.9112 279.196 83.3112C279.756 83.7112 280.402 83.9112 281.136 83.9112ZM294.475 85.6913C293.382 85.6913 292.402 85.4112 291.535 84.8512C290.682 84.2912 290.002 83.4779 289.495 82.4112C289.002 81.3446 288.755 80.0512 288.755 78.5312C288.755 77.0112 289.002 75.7179 289.495 74.6512C290.002 73.5846 290.682 72.7712 291.535 72.2112C292.402 71.6512 293.382 71.3712 294.475 71.3712C295.555 71.3712 296.529 71.6512 297.395 72.2112C298.262 72.7712 298.942 73.5846 299.435 74.6512C299.929 75.7179 300.175 77.0112 300.175 78.5312C300.175 80.0512 299.929 81.3446 299.435 82.4112C298.942 83.4779 298.262 84.2912 297.395 84.8512C296.529 85.4112 295.555 85.6913 294.475 85.6913ZM294.475 83.9112C295.209 83.9112 295.849 83.7112 296.395 83.3112C296.955 82.9112 297.389 82.3112 297.695 81.5112C298.015 80.7112 298.175 79.7179 298.175 78.5312C298.175 77.3446 298.015 76.3512 297.695 75.5512C297.389 74.7512 296.955 74.1512 296.395 73.7512C295.849 73.3512 295.209 73.1512 294.475 73.1512C293.742 73.1512 293.095 73.3512 292.535 73.7512C291.975 74.1512 291.535 74.7512 291.215 75.5512C290.909 76.3512 290.755 77.3446 290.755 78.5312C290.755 79.7179 290.909 80.7112 291.215 81.5112C291.535 82.3112 291.975 82.9112 292.535 83.3112C293.095 83.7112 293.742 83.9112 294.475 83.9112ZM307.815 85.6913C306.722 85.6913 305.742 85.4112 304.875 84.8512C304.022 84.2912 303.342 83.4779 302.835 82.4112C302.342 81.3446 302.095 80.0512 302.095 78.5312C302.095 77.0112 302.342 75.7179 302.835 74.6512C303.342 73.5846 304.022 72.7712 304.875 72.2112C305.742 71.6512 306.722 71.3712 307.815 71.3712C308.895 71.3712 309.869 71.6512 310.735 72.2112C311.602 72.7712 312.282 73.5846 312.775 74.6512C313.269 75.7179 313.515 77.0112 313.515 78.5312C313.515 80.0512 313.269 81.3446 312.775 82.4112C312.282 83.4779 311.602 84.2912 310.735 84.8512C309.869 85.4112 308.895 85.6913 307.815 85.6913ZM307.815 83.9112C308.549 83.9112 309.189 83.7112 309.735 83.3112C310.295 82.9112 310.729 82.3112 311.035 81.5112C311.355 80.7112 311.515 79.7179 311.515 78.5312C311.515 77.3446 311.355 76.3512 311.035 75.5512C310.729 74.7512 310.295 74.1512 309.735 73.7512C309.189 73.3512 308.549 73.1512 307.815 73.1512C307.082 73.1512 306.435 73.3512 305.875 73.7512C305.315 74.1512 304.875 74.7512 304.555 75.5512C304.249 76.3512 304.095 77.3446 304.095 78.5312C304.095 79.7179 304.249 80.7112 304.555 81.5112C304.875 82.3112 305.315 82.9112 305.875 83.3112C306.435 83.7112 307.082 83.9112 307.815 83.9112Z" fill="black"/>
<rect x="193" y="103.22" width="192.231" height="50.6237" stroke="#FA6C32" stroke-width="2"/>
<path d="M248.391 135.531V122.331L249.251 123.271H245.231V121.531H250.371V135.531H248.391ZM254.753 135.651C254.38 135.651 254.06 135.525 253.793 135.271C253.526 135.005 253.393 134.671 253.393 134.271C253.393 133.871 253.526 133.545 253.793 133.291C254.06 133.038 254.38 132.911 254.753 132.911C255.113 132.911 255.42 133.038 255.673 133.291C255.94 133.545 256.073 133.871 256.073 134.271C256.073 134.671 255.94 135.005 255.673 135.271C255.42 135.525 255.113 135.651 254.753 135.651ZM263.45 135.691C262.357 135.691 261.377 135.411 260.51 134.851C259.657 134.291 258.977 133.478 258.47 132.411C257.977 131.345 257.73 130.051 257.73 128.531C257.73 127.011 257.977 125.718 258.47 124.651C258.977 123.585 259.657 122.771 260.51 122.211C261.377 121.651 262.357 121.371 263.45 121.371C264.53 121.371 265.503 121.651 266.37 122.211C267.237 122.771 267.917 123.585 268.41 124.651C268.903 125.718 269.15 127.011 269.15 128.531C269.15 130.051 268.903 131.345 268.41 132.411C267.917 133.478 267.237 134.291 266.37 134.851C265.503 135.411 264.53 135.691 263.45 135.691ZM263.45 133.911C264.183 133.911 264.823 133.711 265.37 133.311C265.93 132.911 266.363 132.311 266.67 131.511C266.99 130.711 267.15 129.718 267.15 128.531C267.15 127.345 266.99 126.351 266.67 125.551C266.363 124.751 265.93 124.151 265.37 123.751C264.823 123.351 264.183 123.151 263.45 123.151C262.717 123.151 262.07 123.351 261.51 123.751C260.95 124.151 260.51 124.751 260.19 125.551C259.883 126.351 259.73 127.345 259.73 128.531C259.73 129.718 259.883 130.711 260.19 131.511C260.51 132.311 260.95 132.911 261.51 133.311C262.07 133.711 262.717 133.911 263.45 133.911ZM276.79 135.691C275.697 135.691 274.717 135.411 273.85 134.851C272.997 134.291 272.317 133.478 271.81 132.411C271.317 131.345 271.07 130.051 271.07 128.531C271.07 127.011 271.317 125.718 271.81 124.651C272.317 123.585 272.997 122.771 273.85 122.211C274.717 121.651 275.697 121.371 276.79 121.371C277.87 121.371 278.843 121.651 279.71 122.211C280.577 122.771 281.257 123.585 281.75 124.651C282.243 125.718 282.49 127.011 282.49 128.531C282.49 130.051 282.243 131.345 281.75 132.411C281.257 133.478 280.577 134.291 279.71 134.851C278.843 135.411 277.87 135.691 276.79 135.691ZM276.79 133.911C277.523 133.911 278.163 133.711 278.71 133.311C279.27 132.911 279.703 132.311 280.01 131.511C280.33 130.711 280.49 129.718 280.49 128.531C280.49 127.345 280.33 126.351 280.01 125.551C279.703 124.751 279.27 124.151 278.71 123.751C278.163 123.351 277.523 123.151 276.79 123.151C276.057 123.151 275.41 123.351 274.85 123.751C274.29 124.151 273.85 124.751 273.53 125.551C273.223 126.351 273.07 127.345 273.07 128.531C273.07 129.718 273.223 130.711 273.53 131.511C273.85 132.311 274.29 132.911 274.85 133.311C275.41 133.711 276.057 133.911 276.79 133.911ZM290.13 135.691C289.036 135.691 288.056 135.411 287.19 134.851C286.336 134.291 285.656 133.478 285.15 132.411C284.656 131.345 284.41 130.051 284.41 128.531C284.41 127.011 284.656 125.718 285.15 124.651C285.656 123.585 286.336 122.771 287.19 122.211C288.056 121.651 289.036 121.371 290.13 121.371C291.21 121.371 292.183 121.651 293.05 122.211C293.916 122.771 294.596 123.585 295.09 124.651C295.583 125.718 295.83 127.011 295.83 128.531C295.83 130.051 295.583 131.345 295.09 132.411C294.596 133.478 293.916 134.291 293.05 134.851C292.183 135.411 291.21 135.691 290.13 135.691ZM290.13 133.911C290.863 133.911 291.503 133.711 292.05 133.311C292.61 132.911 293.043 132.311 293.35 131.511C293.67 130.711 293.83 129.718 293.83 128.531C293.83 127.345 293.67 126.351 293.35 125.551C293.043 124.751 292.61 124.151 292.05 123.751C291.503 123.351 290.863 123.151 290.13 123.151C289.396 123.151 288.75 123.351 288.19 123.751C287.63 124.151 287.19 124.751 286.87 125.551C286.563 126.351 286.41 127.345 286.41 128.531C286.41 129.718 286.563 130.711 286.87 131.511C287.19 132.311 287.63 132.911 288.19 133.311C288.75 133.711 289.396 133.911 290.13 133.911ZM297.53 135.531V134.171L303.23 128.671C303.736 128.191 304.11 127.771 304.35 127.411C304.603 127.038 304.77 126.698 304.85 126.391C304.943 126.071 304.99 125.765 304.99 125.471C304.99 124.751 304.736 124.185 304.23 123.771C303.723 123.358 302.983 123.151 302.01 123.151C301.263 123.151 300.59 123.278 299.99 123.531C299.39 123.771 298.87 124.151 298.43 124.671L297.07 123.491C297.603 122.811 298.316 122.291 299.21 121.931C300.116 121.558 301.11 121.371 302.19 121.371C303.163 121.371 304.01 121.531 304.73 121.851C305.45 122.158 306.003 122.605 306.39 123.191C306.79 123.778 306.99 124.471 306.99 125.271C306.99 125.725 306.93 126.171 306.81 126.611C306.69 127.051 306.463 127.518 306.13 128.011C305.796 128.505 305.316 129.058 304.69 129.671L299.61 134.571L299.13 133.791H307.59V135.531H297.53ZM311.634 135.531L317.574 122.371L318.094 123.271H309.774L310.774 122.291V125.771H308.854V121.531H319.414V122.891L313.754 135.531H311.634ZM323.588 135.531L329.528 122.371L330.048 123.271H321.728L322.728 122.291V125.771H320.808V121.531H331.368V122.891L325.708 135.531H323.588Z" fill="black"/>
<rect x="193" y="153.22" width="192.231" height="50.6237" stroke="#FA6C32" stroke-width="2"/>
<path d="M269.301 185.531V172.331L270.161 173.271H266.141V171.531H271.281V185.531H269.301ZM275.663 185.651C275.29 185.651 274.97 185.525 274.703 185.271C274.437 185.005 274.303 184.671 274.303 184.271C274.303 183.871 274.437 183.545 274.703 183.291C274.97 183.038 275.29 182.911 275.663 182.911C276.023 182.911 276.33 183.038 276.583 183.291C276.85 183.545 276.983 183.871 276.983 184.271C276.983 184.671 276.85 185.005 276.583 185.271C276.33 185.525 276.023 185.651 275.663 185.651ZM283.35 185.691C282.363 185.691 281.403 185.538 280.47 185.231C279.55 184.925 278.797 184.511 278.21 183.991L279.13 182.411C279.597 182.851 280.203 183.211 280.95 183.491C281.697 183.771 282.497 183.911 283.35 183.911C284.39 183.911 285.197 183.691 285.77 183.251C286.357 182.798 286.65 182.191 286.65 181.431C286.65 180.698 286.37 180.111 285.81 179.671C285.263 179.218 284.39 178.991 283.19 178.991H282.07V177.591L286.23 172.471L286.51 173.271H278.85V171.531H288.09V172.891L283.95 177.991L282.91 177.371H283.57C285.263 177.371 286.53 177.751 287.37 178.511C288.223 179.271 288.65 180.238 288.65 181.411C288.65 182.198 288.457 182.918 288.07 183.571C287.683 184.225 287.097 184.745 286.31 185.131C285.537 185.505 284.55 185.691 283.35 185.691ZM294.698 185.691C293.711 185.691 292.751 185.538 291.818 185.231C290.898 184.925 290.144 184.511 289.558 183.991L290.478 182.411C290.944 182.851 291.551 183.211 292.298 183.491C293.044 183.771 293.844 183.911 294.698 183.911C295.738 183.911 296.544 183.691 297.118 183.251C297.704 182.798 297.998 182.191 297.998 181.431C297.998 180.698 297.718 180.111 297.158 179.671C296.611 179.218 295.738 178.991 294.538 178.991H293.418V177.591L297.578 172.471L297.858 173.271H290.198V171.531H299.438V172.891L295.298 177.991L294.258 177.371H294.918C296.611 177.371 297.878 177.751 298.718 178.511C299.571 179.271 299.998 180.238 299.998 181.411C299.998 182.198 299.804 182.918 299.418 183.571C299.031 184.225 298.444 184.745 297.658 185.131C296.884 185.505 295.898 185.691 294.698 185.691ZM306.045 185.691C305.059 185.691 304.099 185.538 303.165 185.231C302.245 184.925 301.492 184.511 300.905 183.991L301.825 182.411C302.292 182.851 302.899 183.211 303.645 183.491C304.392 183.771 305.192 183.911 306.045 183.911C307.085 183.911 307.892 183.691 308.465 183.251C309.052 182.798 309.345 182.191 309.345 181.431C309.345 180.698 309.065 180.111 308.505 179.671C307.959 179.218 307.085 178.991 305.885 178.991H304.765V177.591L308.925 172.471L309.205 173.271H301.545V171.531H310.785V172.891L306.645 177.991L305.605 177.371H306.265C307.959 177.371 309.225 177.751 310.065 178.511C310.919 179.271 311.345 180.238 311.345 181.411C311.345 182.198 311.152 182.918 310.765 183.571C310.379 184.225 309.792 184.745 309.005 185.131C308.232 185.505 307.245 185.691 306.045 185.691Z" fill="black"/>
<rect x="193" y="203.22" width="192.231" height="50.6237" stroke="#FA6C32" stroke-width="2"/>
<path d="M268.235 235.531V222.331L269.095 223.271H265.075V221.531H270.215V235.531H268.235ZM274.597 235.651C274.224 235.651 273.904 235.525 273.637 235.271C273.37 235.005 273.237 234.671 273.237 234.271C273.237 233.871 273.37 233.545 273.637 233.291C273.904 233.038 274.224 232.911 274.597 232.911C274.957 232.911 275.264 233.038 275.517 233.291C275.784 233.545 275.917 233.871 275.917 234.271C275.917 234.671 275.784 235.005 275.517 235.271C275.264 235.525 274.957 235.651 274.597 235.651ZM282.283 235.691C281.297 235.691 280.337 235.538 279.403 235.231C278.483 234.925 277.73 234.511 277.143 233.991L278.063 232.411C278.53 232.851 279.137 233.211 279.883 233.491C280.63 233.771 281.43 233.911 282.283 233.911C283.323 233.911 284.13 233.691 284.703 233.251C285.29 232.798 285.583 232.191 285.583 231.431C285.583 230.698 285.303 230.111 284.743 229.671C284.197 229.218 283.323 228.991 282.123 228.991H281.003V227.591L285.163 222.471L285.443 223.271H277.783V221.531H287.023V222.891L282.883 227.991L281.843 227.371H282.503C284.197 227.371 285.463 227.751 286.303 228.511C287.157 229.271 287.583 230.238 287.583 231.411C287.583 232.198 287.39 232.918 287.003 233.571C286.617 234.225 286.03 234.745 285.243 235.131C284.47 235.505 283.483 235.691 282.283 235.691ZM295.329 235.691C294.089 235.691 293.029 235.418 292.149 234.871C291.269 234.325 290.595 233.538 290.129 232.511C289.675 231.471 289.449 230.205 289.449 228.711C289.449 227.125 289.729 225.785 290.289 224.691C290.849 223.598 291.629 222.771 292.629 222.211C293.629 221.651 294.775 221.371 296.069 221.371C296.735 221.371 297.369 221.438 297.969 221.571C298.582 221.705 299.109 221.911 299.549 222.191L298.789 223.751C298.429 223.498 298.015 223.325 297.549 223.231C297.095 223.138 296.615 223.091 296.109 223.091C294.682 223.091 293.549 223.538 292.709 224.431C291.869 225.311 291.449 226.625 291.449 228.371C291.449 228.651 291.462 228.985 291.489 229.371C291.515 229.758 291.582 230.138 291.689 230.511L291.009 229.831C291.209 229.218 291.522 228.705 291.949 228.291C292.389 227.865 292.909 227.551 293.509 227.351C294.122 227.138 294.782 227.031 295.489 227.031C296.422 227.031 297.249 227.205 297.969 227.551C298.689 227.898 299.255 228.391 299.669 229.031C300.082 229.658 300.289 230.405 300.289 231.271C300.289 232.165 300.069 232.945 299.629 233.611C299.189 234.278 298.595 234.791 297.849 235.151C297.102 235.511 296.262 235.691 295.329 235.691ZM295.249 234.071C295.862 234.071 296.395 233.958 296.849 233.731C297.315 233.505 297.682 233.191 297.949 232.791C298.215 232.378 298.349 231.898 298.349 231.351C298.349 230.525 298.062 229.871 297.489 229.391C296.915 228.898 296.135 228.651 295.149 228.651C294.509 228.651 293.949 228.771 293.469 229.011C292.989 229.251 292.609 229.578 292.329 229.991C292.062 230.391 291.929 230.851 291.929 231.371C291.929 231.851 292.055 232.298 292.309 232.711C292.562 233.111 292.935 233.438 293.429 233.691C293.922 233.945 294.529 234.071 295.249 234.071ZM301.573 235.531V234.171L307.273 228.671C307.779 228.191 308.153 227.771 308.393 227.411C308.646 227.038 308.813 226.698 308.893 226.391C308.986 226.071 309.033 225.765 309.033 225.471C309.033 224.751 308.779 224.185 308.273 223.771C307.766 223.358 307.026 223.151 306.053 223.151C305.306 223.151 304.633 223.278 304.033 223.531C303.433 223.771 302.913 224.151 302.473 224.671L301.113 223.491C301.646 222.811 302.359 222.291 303.253 221.931C304.159 221.558 305.153 221.371 306.233 221.371C307.206 221.371 308.053 221.531 308.773 221.851C309.493 222.158 310.046 222.605 310.433 223.191C310.833 223.778 311.033 224.471 311.033 225.271C311.033 225.725 310.973 226.171 310.853 226.611C310.733 227.051 310.506 227.518 310.173 228.011C309.839 228.505 309.359 229.058 308.733 229.671L303.653 234.571L303.173 233.791H311.633V235.531H301.573Z" fill="black"/>
<rect x="193" y="253.22" width="192.231" height="50.6237" stroke="#FA6C32" stroke-width="2"/>
<path d="M268.215 285.531V272.331L269.075 273.271H265.055V271.531H270.195V285.531H268.215ZM274.577 285.651C274.204 285.651 273.884 285.525 273.617 285.271C273.351 285.005 273.217 284.671 273.217 284.271C273.217 283.871 273.351 283.545 273.617 283.291C273.884 283.038 274.204 282.911 274.577 282.911C274.937 282.911 275.244 283.038 275.497 283.291C275.764 283.545 275.897 283.871 275.897 284.271C275.897 284.671 275.764 285.005 275.497 285.271C275.244 285.525 274.937 285.651 274.577 285.651ZM277.413 282.091V280.691L284.573 271.531H286.733L279.633 280.691L278.613 280.371H289.793V282.091H277.413ZM285.193 285.531V282.091L285.253 280.371V277.331H287.133V285.531H285.193ZM292.474 285.531L298.414 272.371L298.934 273.271H290.614L291.614 272.291V275.771H289.694V271.531H300.254V272.891L294.594 285.531H292.474ZM306.131 285.691C305.144 285.691 304.184 285.538 303.251 285.231C302.331 284.925 301.578 284.511 300.991 283.991L301.911 282.411C302.378 282.851 302.984 283.211 303.731 283.491C304.478 283.771 305.278 283.911 306.131 283.911C307.171 283.911 307.978 283.691 308.551 283.251C309.138 282.798 309.431 282.191 309.431 281.431C309.431 280.698 309.151 280.111 308.591 279.671C308.044 279.218 307.171 278.991 305.971 278.991H304.851V277.591L309.011 272.471L309.291 273.271H301.631V271.531H310.871V272.891L306.731 277.991L305.691 277.371H306.351C308.044 277.371 309.311 277.751 310.151 278.511C311.004 279.271 311.431 280.238 311.431 281.411C311.431 282.198 311.238 282.918 310.851 283.571C310.464 284.225 309.878 284.745 309.091 285.131C308.318 285.505 307.331 285.691 306.131 285.691Z" fill="black"/>
<rect x="193" y="303.22" width="192.231" height="50.6237" stroke="#FA6C32" stroke-width="2"/>
<path d="M276.947 335.531V322.331L277.807 323.271H273.787V321.531H278.927V335.531H276.947ZM283.31 335.651C282.936 335.651 282.616 335.525 282.35 335.271C282.083 335.005 281.95 334.671 281.95 334.271C281.95 333.871 282.083 333.545 282.35 333.291C282.616 333.038 282.936 332.911 283.31 332.911C283.67 332.911 283.976 333.038 284.23 333.291C284.496 333.545 284.63 333.871 284.63 334.271C284.63 334.671 284.496 335.005 284.23 335.271C283.976 335.525 283.67 335.651 283.31 335.651ZM290.996 335.691C290.01 335.691 289.05 335.538 288.116 335.231C287.196 334.925 286.443 334.511 285.856 333.991L286.776 332.411C287.243 332.851 287.85 333.211 288.596 333.491C289.343 333.771 290.143 333.911 290.996 333.911C292.036 333.911 292.843 333.691 293.416 333.251C294.003 332.798 294.296 332.191 294.296 331.431C294.296 330.698 294.016 330.111 293.456 329.671C292.91 329.218 292.036 328.991 290.836 328.991H289.716V327.591L293.876 322.471L294.156 323.271H286.496V321.531H295.736V322.891L291.596 327.991L290.556 327.371H291.216C292.91 327.371 294.176 327.751 295.016 328.511C295.87 329.271 296.296 330.238 296.296 331.411C296.296 332.198 296.103 332.918 295.716 333.571C295.33 334.225 294.743 334.745 293.956 335.131C293.183 335.505 292.196 335.691 290.996 335.691ZM300.522 335.531V322.331L301.382 323.271H297.362V321.531H302.502V335.531H300.522Z" fill="black"/>
</svg>
