<svg width="135" height="151" viewBox="0 0 135 151" fill="none" xmlns="http://www.w3.org/2000/svg">
<path d="M28.032 95.16C28.032 96.2267 28.1387 97.0373 28.352 97.592C28.5653 98.104 29.056 98.36 29.824 98.36C30.1653 98.36 30.6987 98.2533 31.424 98.04V99H20.544V98.04C21.2693 98.2533 21.8027 98.36 22.144 98.36C22.8267 98.36 23.2533 98.104 23.424 97.592C23.6373 97.08 23.744 96.2693 23.744 95.16V78.008C23.744 75.064 23.1253 72.76 21.888 71.096C20.6933 69.432 19.1147 68.6 17.152 68.6C15.2747 68.6 13.76 69.3467 12.608 70.84C11.4987 72.2907 10.7093 74.0187 10.24 76.024C9.81333 78.0293 9.6 79.9493 9.6 81.784V95.16C9.6 96.2693 9.68533 97.08 9.856 97.592C10.0693 98.104 10.5173 98.36 11.2 98.36C11.5413 98.36 12.0747 98.2533 12.8 98.04V99H1.92V98.04C2.64533 98.2533 3.17867 98.36 3.52 98.36C4.288 98.36 4.77867 98.104 4.992 97.592C5.20533 97.0373 5.312 96.2267 5.312 95.16V72.44C4.672 72.6533 3.98933 72.76 3.264 72.76C2.96533 72.76 2.51733 72.7173 1.92 72.632V70.904H2.496C2.496 71.2027 2.64533 71.4587 2.944 71.672C3.28533 71.8853 3.66933 71.992 4.096 71.992C4.69333 71.992 5.22667 71.7573 5.696 71.288C6.16533 70.8187 6.74133 70.0933 7.424 69.112H8.576L8.64 74.296H9.536C10.304 72.376 11.3493 70.8187 12.672 69.624C14.0373 68.3867 15.7227 67.768 17.728 67.768C19.3493 67.768 20.9493 68.1947 22.528 69.048C24.1493 69.8587 25.472 71.0533 26.496 72.632C27.52 74.168 28.032 75.96 28.032 78.008V95.16ZM51.9175 73.848H77.5175V75.768H51.9175V73.848ZM51.9175 83.256H77.5175V85.176H51.9175V83.256Z" fill="#FA6C32"/>
<path d="M121.111 67.9921C117.954 67.9921 115.351 67.2454 113.303 65.7521C111.298 64.2587 109.826 62.3174 108.887 59.9281C107.991 57.4961 107.543 54.8721 107.543 52.0561C107.543 49.3254 108.013 46.7654 108.951 44.376C109.89 41.944 111.298 39.9814 113.175 38.488C115.095 36.952 117.378 36.184 120.023 36.184C122.455 36.184 124.717 36.7387 126.807 37.848C128.941 38.9574 130.157 40.3654 130.455 42.0721C130.541 42.6694 130.583 43.0747 130.583 43.288C130.583 44.2267 130.349 44.9947 129.879 45.5921C129.41 46.1467 128.749 46.424 127.895 46.424C126.402 46.424 125.655 45.9547 125.655 45.0161C125.655 44.6321 125.762 44.0774 125.975 43.352C126.231 42.4987 126.359 41.7947 126.359 41.24C126.359 40.3867 126.039 39.64 125.399 39C124.759 38.3174 123.991 37.8054 123.095 37.4641C122.199 37.1227 121.389 36.952 120.663 36.952C117.975 36.952 115.863 38.296 114.327 40.984C112.791 43.6294 112.023 47.512 112.023 52.6321C112.023 56.7707 112.77 60.1627 114.263 62.8081C115.799 65.4534 118.146 66.7761 121.303 66.7761C123.479 66.7761 125.271 66.1147 126.679 64.7921C128.087 63.4694 129.026 61.8481 129.495 59.9281H130.903C130.306 62.1467 129.111 64.0454 127.319 65.6241C125.527 67.2027 123.458 67.9921 121.111 67.9921Z" fill="#FA6C32"/>
<path d="M107.848 79.7921H130.248V82.3521H107.848V79.7921Z" fill="#FA6C32"/>
<path d="M134.928 98.112V99.072C134.459 98.9013 133.99 98.816 133.52 98.816C132.496 98.816 131.622 99.1573 130.896 99.84C130.214 100.48 129.766 101.141 129.552 101.824L121.296 128H117.712L109.904 102.336C109.392 100.032 108.326 98.88 106.704 98.88C106.235 98.88 105.766 98.944 105.296 99.072V98.112H116.496V99.072C115.856 98.944 115.323 98.88 114.896 98.88C114.342 98.88 113.915 98.9867 113.616 99.2C113.36 99.4133 113.232 99.6907 113.232 100.032C113.232 100.16 113.275 100.352 113.36 100.608L120.784 126.208L128.528 101.824C128.656 101.355 128.72 100.928 128.72 100.544C128.72 99.3493 128.102 98.752 126.864 98.752C126.31 98.752 125.734 98.8587 125.136 99.072V98.112H134.928Z" fill="#FA6C32"/>
</svg>
