<svg width="416" height="183" viewBox="0 0 416 183" fill="none" xmlns="http://www.w3.org/2000/svg">
<path d="M91.032 70.16C91.032 71.2267 91.1387 72.0373 91.352 72.592C91.5653 73.104 92.056 73.36 92.824 73.36C93.1653 73.36 93.6987 73.2533 94.424 73.04V74H83.544V73.04C84.2693 73.2533 84.8027 73.36 85.144 73.36C85.8267 73.36 86.2533 73.104 86.424 72.592C86.6373 72.08 86.744 71.2693 86.744 70.16V53.008C86.744 50.064 86.1253 47.76 84.888 46.096C83.6933 44.432 82.1147 43.6 80.152 43.6C78.2747 43.6 76.76 44.3467 75.608 45.84C74.4987 47.2907 73.7093 49.0187 73.24 51.024C72.8133 53.0293 72.6 54.9493 72.6 56.784V70.16C72.6 71.2693 72.6853 72.08 72.856 72.592C73.0693 73.104 73.5173 73.36 74.2 73.36C74.5413 73.36 75.0747 73.2533 75.8 73.04V74H64.92V73.04C65.6453 73.2533 66.1787 73.36 66.52 73.36C67.288 73.36 67.7787 73.104 67.992 72.592C68.2053 72.0373 68.312 71.2267 68.312 70.16V47.44C67.672 47.6533 66.9893 47.76 66.264 47.76C65.9653 47.76 65.5173 47.7173 64.92 47.632V45.904H65.496C65.496 46.2027 65.6453 46.4587 65.944 46.672C66.2853 46.8853 66.6693 46.992 67.096 46.992C67.6933 46.992 68.2267 46.7573 68.696 46.288C69.1653 45.8187 69.7413 45.0933 70.424 44.112H71.576L71.64 49.296H72.536C73.304 47.376 74.3493 45.8187 75.672 44.624C77.0373 43.3867 78.7227 42.768 80.728 42.768C82.3493 42.768 83.9493 43.1947 85.528 44.048C87.1493 44.8587 88.472 46.0533 89.496 47.632C90.52 49.168 91.032 50.96 91.032 53.008V70.16Z" fill="#FA6C32"/>
<path d="M91.032 130.16C91.032 131.227 91.1387 132.037 91.352 132.592C91.5653 133.104 92.056 133.36 92.824 133.36C93.1653 133.36 93.6987 133.253 94.424 133.04V134H83.544V133.04C84.2693 133.253 84.8027 133.36 85.144 133.36C85.8267 133.36 86.2533 133.104 86.424 132.592C86.6373 132.08 86.744 131.269 86.744 130.16V113.008C86.744 110.064 86.1253 107.76 84.888 106.096C83.6933 104.432 82.1147 103.6 80.152 103.6C78.2747 103.6 76.76 104.347 75.608 105.84C74.4987 107.291 73.7093 109.019 73.24 111.024C72.8133 113.029 72.6 114.949 72.6 116.784V130.16C72.6 131.269 72.6853 132.08 72.856 132.592C73.0693 133.104 73.5173 133.36 74.2 133.36C74.5413 133.36 75.0747 133.253 75.8 133.04V134H64.92V133.04C65.6453 133.253 66.1787 133.36 66.52 133.36C67.288 133.36 67.7787 133.104 67.992 132.592C68.2053 132.037 68.312 131.227 68.312 130.16V107.44C67.672 107.653 66.9893 107.76 66.264 107.76C65.9653 107.76 65.5173 107.717 64.92 107.632V105.904H65.496C65.496 106.203 65.6453 106.459 65.944 106.672C66.2853 106.885 66.6693 106.992 67.096 106.992C67.6933 106.992 68.2267 106.757 68.696 106.288C69.1653 105.819 69.7413 105.093 70.424 104.112H71.576L71.64 109.296H72.536C73.304 107.376 74.3493 105.819 75.672 104.624C77.0373 103.387 78.7227 102.768 80.728 102.768C82.3493 102.768 83.9493 103.195 85.528 104.048C87.1493 104.859 88.472 106.053 89.496 107.632C90.52 109.168 91.032 110.96 91.032 113.008V130.16Z" fill="#FA6C32"/>
<path d="M98.32 146.688C99.0667 145.771 100.197 144.576 101.712 143.104C103.291 141.547 104.549 140.203 105.488 139.072C106.448 137.92 107.259 136.576 107.92 135.04C108.603 133.483 108.944 131.765 108.944 129.888C108.944 128.224 108.592 126.891 107.888 125.888C107.205 124.864 106.267 124.352 105.072 124.352C104.432 124.352 103.824 124.533 103.248 124.896C102.672 125.237 102.213 125.707 101.872 126.304C101.531 126.901 101.36 127.541 101.36 128.224C101.36 128.821 101.435 129.237 101.584 129.472C101.755 129.685 102 129.856 102.32 129.984C102.555 130.069 102.725 130.176 102.832 130.304C102.939 130.411 102.992 130.624 102.992 130.944C102.992 131.307 102.864 131.627 102.608 131.904C102.352 132.181 102.011 132.32 101.584 132.32C101.072 132.32 100.613 132.096 100.208 131.648C99.8027 131.2 99.6 130.635 99.6 129.952C99.6 128.587 99.9093 127.445 100.528 126.528C101.147 125.589 101.904 124.896 102.8 124.448C103.696 124 104.549 123.776 105.36 123.776C106.427 123.776 107.387 124.032 108.24 124.544C109.115 125.056 109.797 125.803 110.288 126.784C110.8 127.744 111.056 128.885 111.056 130.208C111.056 132.064 110.683 133.739 109.936 135.232C109.211 136.704 108.336 137.963 107.312 139.008C106.309 140.053 105.04 141.205 103.504 142.464C102.715 143.104 102.075 143.637 101.584 144.064C101.115 144.491 100.72 144.917 100.4 145.344C100.336 145.429 100.304 145.536 100.304 145.664C100.304 145.856 100.411 145.952 100.624 145.952L105.648 145.984C106.907 145.984 107.867 145.877 108.528 145.664C109.211 145.451 109.723 144.981 110.064 144.256C110.427 143.531 110.608 142.389 110.608 140.832H111.216V148H98.32V146.688Z" fill="#FA6C32"/>
<path d="M375.32 76.688C376.067 75.7707 377.197 74.576 378.712 73.104C380.291 71.5467 381.549 70.2027 382.488 69.072C383.448 67.92 384.259 66.576 384.92 65.04C385.603 63.4827 385.944 61.7653 385.944 59.888C385.944 58.224 385.592 56.8907 384.888 55.888C384.205 54.864 383.267 54.352 382.072 54.352C381.432 54.352 380.824 54.5333 380.248 54.896C379.672 55.2373 379.213 55.7067 378.872 56.304C378.531 56.9013 378.36 57.5413 378.36 58.224C378.36 58.8213 378.435 59.2373 378.584 59.472C378.755 59.6853 379 59.856 379.32 59.984C379.555 60.0693 379.725 60.176 379.832 60.304C379.939 60.4107 379.992 60.624 379.992 60.944C379.992 61.3067 379.864 61.6267 379.608 61.904C379.352 62.1813 379.011 62.32 378.584 62.32C378.072 62.32 377.613 62.096 377.208 61.648C376.803 61.2 376.6 60.6347 376.6 59.952C376.6 58.5867 376.909 57.4453 377.528 56.528C378.147 55.5893 378.904 54.896 379.8 54.448C380.696 54 381.549 53.776 382.36 53.776C383.427 53.776 384.387 54.032 385.24 54.544C386.115 55.056 386.797 55.8027 387.288 56.784C387.8 57.744 388.056 58.8853 388.056 60.208C388.056 62.064 387.683 63.7387 386.936 65.232C386.211 66.704 385.336 67.9627 384.312 69.008C383.309 70.0533 382.04 71.2053 380.504 72.464C379.715 73.104 379.075 73.6373 378.584 74.064C378.115 74.4907 377.72 74.9173 377.4 75.344C377.336 75.4293 377.304 75.536 377.304 75.664C377.304 75.856 377.411 75.952 377.624 75.952L382.648 75.984C383.907 75.984 384.867 75.8773 385.528 75.664C386.211 75.4507 386.723 74.9813 387.064 74.256C387.427 73.5307 387.608 72.3893 387.608 70.832H388.216V78H375.32V76.688Z" fill="#FA6C32"/>
<path d="M105.2 78.08C105.2 78.5067 105.307 78.8373 105.52 79.072C105.755 79.2853 106.075 79.392 106.48 79.392C106.821 79.392 107.195 79.328 107.6 79.2V80H100.4V79.2C100.827 79.328 101.2 79.392 101.52 79.392C101.925 79.392 102.235 79.2853 102.448 79.072C102.683 78.8373 102.8 78.5067 102.8 78.08V61.216C102.8 61.088 102.757 61.0027 102.672 60.96C102.608 60.9173 102.533 60.96 102.448 61.088C101.637 62.1973 100.581 62.6667 99.28 62.496V61.504C99.6 61.6107 99.8987 61.664 100.176 61.664C100.88 61.664 101.541 61.3973 102.16 60.864C102.779 60.3093 103.269 59.616 103.632 58.784C104.016 57.952 104.208 57.1307 104.208 56.32H105.2V78.08Z" fill="#FA6C32"/>
<path d="M380.2 170.08C380.2 170.507 380.307 170.837 380.52 171.072C380.755 171.285 381.075 171.392 381.48 171.392C381.821 171.392 382.195 171.328 382.6 171.2V172H375.4V171.2C375.827 171.328 376.2 171.392 376.52 171.392C376.925 171.392 377.235 171.285 377.448 171.072C377.683 170.837 377.8 170.507 377.8 170.08V153.216C377.8 153.088 377.757 153.003 377.672 152.96C377.608 152.917 377.533 152.96 377.448 153.088C376.637 154.197 375.581 154.667 374.28 154.496V153.504C374.6 153.611 374.899 153.664 375.176 153.664C375.88 153.664 376.541 153.397 377.16 152.864C377.779 152.309 378.269 151.616 378.632 150.784C379.016 149.952 379.208 149.131 379.208 148.32H380.2V170.08Z" fill="#FA6C32"/>
<path d="M195.196 83.848H220.796V85.768H195.196V83.848ZM195.196 93.256H220.796V95.176H195.196V93.256Z" fill="#FA6C32"/>
<path d="M253.06 88.44H275.46V91H253.06V88.44ZM280.56 88.44H302.96V91H280.56V88.44ZM308.06 88.44H330.46V91H308.06V88.44ZM335.56 88.44H357.96V91H335.56V88.44ZM363.06 88.44H385.46V91H363.06V88.44ZM390.56 88.44H412.96V91H390.56V88.44Z" fill="#FA6C32"/>
<path d="M243.06 88.44H265.46V91H243.06V88.44ZM270.56 88.44H292.96V91H270.56V88.44ZM298.06 88.44H320.46V91H298.06V88.44ZM325.56 88.44H347.96V91H325.56V88.44ZM353.06 88.44H375.46V91H353.06V88.44ZM380.56 88.44H402.96V91H380.56V88.44Z" fill="#FA6C32"/>
<path d="M13.06 88.44H35.46V91H13.06V88.44ZM40.56 88.44H62.96V91H40.56V88.44ZM68.06 88.44H90.46V91H68.06V88.44ZM95.56 88.44H117.96V91H95.56V88.44ZM123.06 88.44H145.46V91H123.06V88.44ZM150.56 88.44H172.96V91H150.56V88.44Z" fill="#FA6C32"/>
<path d="M3.06 88.44H25.46V91H3.06V88.44ZM30.56 88.44H52.96V91H30.56V88.44ZM58.06 88.44H80.46V91H58.06V88.44ZM85.56 88.44H107.96V91H85.56V88.44ZM113.06 88.44H135.46V91H113.06V88.44ZM140.56 88.44H162.96V91H140.56V88.44Z" fill="#FA6C32"/>
<path d="M277.16 67.9921C273.619 67.9921 270.909 66.6267 269.032 63.8961L268.456 67.3521H267.624V55.8961H268.776C268.776 59.5654 269.373 62.2961 270.568 64.0881C271.763 65.8374 273.576 66.7121 276.008 66.7121C278.013 66.7121 279.507 66.0294 280.488 64.6641C281.469 63.2561 281.96 61.4641 281.96 59.2881C281.96 57.5387 281.341 56.1521 280.104 55.128C278.909 54.1041 277.139 53.0374 274.792 51.9281C273.171 51.1601 271.891 50.4774 270.952 49.8801C270.013 49.2827 269.203 48.5361 268.52 47.64C267.88 46.744 267.56 45.656 267.56 44.376C267.56 41.7734 268.371 39.768 269.992 38.3601C271.656 36.9094 273.747 36.184 276.264 36.184C277.757 36.184 279.165 36.5467 280.488 37.272C281.853 37.9547 282.643 38.68 282.856 39.448L283.304 36.184H284.136V44.5681H283.176C283.176 42.6907 282.6 41.0054 281.448 39.512C280.296 38.0187 278.781 37.272 276.904 37.272C273.448 37.272 271.72 39.1707 271.72 42.9681C271.72 44.2907 272.211 45.3574 273.192 46.168C274.173 46.9787 275.731 47.9387 277.864 49.048C279.656 49.9867 281.107 50.8401 282.216 51.6081C283.325 52.3334 284.264 53.2934 285.032 54.4881C285.843 55.6827 286.248 57.1334 286.248 58.8401C286.248 60.2907 285.864 61.7201 285.096 63.1281C284.328 64.5361 283.24 65.7094 281.832 66.6481C280.467 67.5441 278.909 67.9921 277.16 67.9921ZM297.005 33.3041C296.237 33.3041 295.597 33.0694 295.085 32.6C294.573 32.1307 294.317 31.5334 294.317 30.808C294.317 30.0827 294.573 29.4854 295.085 29.016C295.597 28.5467 296.237 28.312 297.005 28.312C297.773 28.312 298.413 28.568 298.925 29.08C299.479 29.5494 299.757 30.1254 299.757 30.808C299.757 31.5334 299.501 32.1307 298.989 32.6C298.477 33.0694 297.815 33.3041 297.005 33.3041ZM291.373 66.3921C292.098 66.6054 292.631 66.7121 292.973 66.7121C293.741 66.7121 294.231 66.4561 294.445 65.9441C294.658 65.3894 294.765 64.5787 294.765 63.5121V40.7281C294.125 40.9414 293.442 41.048 292.717 41.048C292.418 41.048 291.97 41.0054 291.373 40.92V39.192H291.949C291.949 39.4907 292.098 39.7467 292.397 39.96C292.738 40.1734 293.122 40.2801 293.549 40.2801C294.146 40.2801 294.679 40.0454 295.149 39.576C295.618 39.1067 296.194 38.3814 296.877 37.4H298.733V63.5121C298.733 64.6214 298.818 65.4321 298.989 65.9441C299.202 66.4561 299.65 66.7121 300.333 66.7121C300.674 66.7121 301.207 66.6054 301.933 66.3921V67.3521H291.373V66.3921ZM331.907 63.5121C331.907 64.5787 332.014 65.3894 332.227 65.9441C332.44 66.4561 332.931 66.7121 333.699 66.7121C334.04 66.7121 334.574 66.6054 335.299 66.3921V67.3521H324.419V66.3921C325.144 66.6054 325.678 66.7121 326.019 66.7121C326.702 66.7121 327.128 66.4561 327.299 65.9441C327.512 65.4321 327.619 64.6214 327.619 63.5121V46.3601C327.619 43.416 327 41.112 325.763 39.448C324.568 37.784 322.99 36.952 321.027 36.952C319.15 36.952 317.635 37.6987 316.483 39.192C315.374 40.6427 314.584 42.3707 314.115 44.376C313.688 46.3814 313.475 48.3014 313.475 50.136V63.5121C313.475 64.6214 313.56 65.4321 313.731 65.9441C313.944 66.4561 314.392 66.7121 315.075 66.7121C315.416 66.7121 315.95 66.6054 316.675 66.3921V67.3521H305.795V66.3921C306.52 66.6054 307.054 66.7121 307.395 66.7121C308.163 66.7121 308.654 66.4561 308.867 65.9441C309.08 65.3894 309.187 64.5787 309.187 63.5121V40.792C308.547 41.0054 307.864 41.112 307.139 41.112C306.84 41.112 306.392 41.0694 305.795 40.984V39.2561H306.371C306.371 39.5547 306.52 39.8107 306.819 40.024C307.16 40.2374 307.544 40.344 307.971 40.344C308.568 40.344 309.102 40.1094 309.571 39.64C310.04 39.1707 310.616 38.4454 311.299 37.4641H312.451L312.515 42.6481H313.411C314.179 40.728 315.224 39.1707 316.547 37.976C317.912 36.7387 319.598 36.12 321.603 36.12C323.224 36.12 324.824 36.5467 326.403 37.4C328.024 38.2107 329.347 39.4054 330.371 40.984C331.395 42.52 331.907 44.312 331.907 46.3601V63.5121ZM354.163 19.9921C357.32 19.9921 360.029 21.016 362.291 23.064C364.595 25.112 366.344 27.928 367.539 31.5121C368.733 35.0534 369.331 39.064 369.331 43.5441C369.331 48.024 368.733 52.12 367.539 55.8321C366.344 59.5441 364.595 62.5094 362.291 64.7281C360.029 66.9041 357.32 67.9921 354.163 67.9921C350.877 67.9921 348.104 66.9041 345.843 64.7281C343.581 62.5521 341.896 59.6294 340.786 55.9601C339.677 52.2481 339.123 48.1094 339.123 43.5441C339.123 36.5467 340.403 30.872 342.963 26.5201C345.523 22.1681 349.256 19.9921 354.163 19.9921ZM354.163 21.272C351.304 21.272 349.171 22.1894 347.763 24.024C346.355 25.816 345.459 28.1627 345.075 31.064C344.691 33.9654 344.499 37.784 344.499 42.5201H363.955C363.912 37.9974 363.656 34.2427 363.187 31.2561C362.76 28.2267 361.821 25.816 360.371 24.024C358.963 22.1894 356.893 21.272 354.163 21.272ZM354.163 66.7121C356.936 66.7121 359.027 65.7307 360.435 63.7681C361.885 61.7627 362.824 59.1601 363.251 55.9601C363.72 52.76 363.955 48.8347 363.955 44.184H344.499C344.499 49.0907 344.691 53.0801 345.075 56.1521C345.459 59.2241 346.333 61.7627 347.699 63.7681C349.107 65.7307 351.261 66.7121 354.163 66.7121Z" fill="#FA6C32"/>
<path d="M277.535 156.64C273.994 156.64 271.284 155.275 269.407 152.544L268.831 156H267.999V144.544H269.151C269.151 148.213 269.748 150.944 270.943 152.736C272.138 154.485 273.951 155.36 276.383 155.36C278.388 155.36 279.882 154.677 280.863 153.312C281.844 151.904 282.335 150.112 282.335 147.936C282.335 146.187 281.716 144.8 280.479 143.776C279.284 142.752 277.514 141.685 275.167 140.576C273.546 139.808 272.266 139.125 271.327 138.528C270.388 137.931 269.578 137.184 268.895 136.288C268.255 135.392 267.935 134.304 267.935 133.024C267.935 130.421 268.746 128.416 270.367 127.008C272.031 125.557 274.122 124.832 276.639 124.832C278.132 124.832 279.54 125.195 280.863 125.92C282.228 126.603 283.018 127.328 283.231 128.096L283.679 124.832H284.511V133.216H283.551C283.551 131.339 282.975 129.653 281.823 128.16C280.671 126.667 279.156 125.92 277.279 125.92C273.823 125.92 272.095 127.819 272.095 131.616C272.095 132.939 272.586 134.005 273.567 134.816C274.548 135.627 276.106 136.587 278.239 137.696C280.031 138.635 281.482 139.488 282.591 140.256C283.7 140.981 284.639 141.941 285.407 143.136C286.218 144.331 286.623 145.781 286.623 147.488C286.623 148.939 286.239 150.368 285.471 151.776C284.703 153.184 283.615 154.357 282.207 155.296C280.842 156.192 279.284 156.64 277.535 156.64ZM297.38 121.952C296.612 121.952 295.972 121.717 295.46 121.248C294.948 120.779 294.692 120.181 294.692 119.456C294.692 118.731 294.948 118.133 295.46 117.664C295.972 117.195 296.612 116.96 297.38 116.96C298.148 116.96 298.788 117.216 299.3 117.728C299.854 118.197 300.132 118.773 300.132 119.456C300.132 120.181 299.876 120.779 299.364 121.248C298.852 121.717 298.19 121.952 297.38 121.952ZM291.748 155.04C292.473 155.253 293.006 155.36 293.348 155.36C294.116 155.36 294.606 155.104 294.82 154.592C295.033 154.037 295.14 153.227 295.14 152.16V129.376C294.5 129.589 293.817 129.696 293.092 129.696C292.793 129.696 292.345 129.653 291.748 129.568V127.84H292.324C292.324 128.139 292.473 128.395 292.772 128.608C293.113 128.821 293.497 128.928 293.924 128.928C294.521 128.928 295.054 128.693 295.524 128.224C295.993 127.755 296.569 127.029 297.252 126.048H299.108V152.16C299.108 153.269 299.193 154.08 299.364 154.592C299.577 155.104 300.025 155.36 300.708 155.36C301.049 155.36 301.582 155.253 302.308 155.04V156H291.748V155.04ZM332.282 152.16C332.282 153.227 332.389 154.037 332.602 154.592C332.815 155.104 333.306 155.36 334.074 155.36C334.415 155.36 334.949 155.253 335.674 155.04V156H324.794V155.04C325.519 155.253 326.053 155.36 326.394 155.36C327.077 155.36 327.503 155.104 327.674 154.592C327.887 154.08 327.994 153.269 327.994 152.16V135.008C327.994 132.064 327.375 129.76 326.138 128.096C324.943 126.432 323.365 125.6 321.402 125.6C319.525 125.6 318.01 126.347 316.858 127.84C315.749 129.291 314.959 131.019 314.49 133.024C314.063 135.029 313.85 136.949 313.85 138.784V152.16C313.85 153.269 313.935 154.08 314.106 154.592C314.319 155.104 314.767 155.36 315.45 155.36C315.791 155.36 316.325 155.253 317.05 155.04V156H306.17V155.04C306.895 155.253 307.429 155.36 307.77 155.36C308.538 155.36 309.029 155.104 309.242 154.592C309.455 154.037 309.562 153.227 309.562 152.16V129.44C308.922 129.653 308.239 129.76 307.514 129.76C307.215 129.76 306.767 129.717 306.17 129.632V127.904H306.746C306.746 128.203 306.895 128.459 307.194 128.672C307.535 128.885 307.919 128.992 308.346 128.992C308.943 128.992 309.477 128.757 309.946 128.288C310.415 127.819 310.991 127.093 311.674 126.112H312.826L312.89 131.296H313.786C314.554 129.376 315.599 127.819 316.922 126.624C318.287 125.387 319.973 124.768 321.978 124.768C323.599 124.768 325.199 125.195 326.778 126.048C328.399 126.859 329.722 128.053 330.746 129.632C331.77 131.168 332.282 132.96 332.282 135.008V152.16ZM354.538 108.64C357.695 108.64 360.404 109.664 362.666 111.712C364.97 113.76 366.719 116.576 367.914 120.16C369.108 123.701 369.706 127.712 369.706 132.192C369.706 136.672 369.108 140.768 367.914 144.48C366.719 148.192 364.97 151.157 362.666 153.376C360.404 155.552 357.695 156.64 354.538 156.64C351.252 156.64 348.479 155.552 346.218 153.376C343.956 151.2 342.271 148.277 341.161 144.608C340.052 140.896 339.498 136.757 339.498 132.192C339.498 125.195 340.778 119.52 343.338 115.168C345.898 110.816 349.631 108.64 354.538 108.64ZM354.538 109.92C351.679 109.92 349.546 110.837 348.138 112.672C346.73 114.464 345.834 116.811 345.45 119.712C345.066 122.613 344.874 126.432 344.874 131.168H364.33C364.287 126.645 364.031 122.891 363.562 119.904C363.135 116.875 362.196 114.464 360.746 112.672C359.338 110.837 357.268 109.92 354.538 109.92ZM354.538 155.36C357.311 155.36 359.402 154.379 360.81 152.416C362.26 150.411 363.199 147.808 363.626 144.608C364.095 141.408 364.33 137.483 364.33 132.832H344.874C344.874 137.739 345.066 141.728 345.45 144.8C345.834 147.872 346.708 150.411 348.074 152.416C349.482 154.379 351.636 155.36 354.538 155.36Z" fill="#FA6C32"/>
</svg>
