<svg width="746" height="378" viewBox="0 0 746 378" fill="none" xmlns="http://www.w3.org/2000/svg">
<rect y="147.043" width="590" height="178.601" fill="#FEDCCE"/>
<path d="M305 148.638L102 311.293" stroke="#FA6C32" stroke-width="4"/>
<path d="M509.386 311.074C509.508 312.172 508.716 313.16 507.618 313.281L489.726 315.255C488.628 315.376 487.64 314.584 487.519 313.486C487.398 312.388 488.19 311.4 489.288 311.279L505.191 309.524L503.436 293.621C503.315 292.523 504.107 291.535 505.205 291.414C506.303 291.292 507.291 292.084 507.412 293.182L509.386 311.074ZM305.649 147.077L508.649 309.732L506.148 312.854L303.148 150.199L305.649 147.077Z" fill="#FA6C32"/>
<path d="M304.398 325.645L305 0.335449" stroke="#FA6C32" stroke-width="2"/>
<path d="M47.8784 190.164C48.7451 190.164 49.5051 190.331 50.1584 190.664C50.8251 190.998 51.3451 191.504 51.7184 192.184C52.0918 192.864 52.2784 193.724 52.2784 194.764V200.864H50.3584V194.984C50.3584 193.958 50.1051 193.184 49.5984 192.664C49.1051 192.144 48.4051 191.884 47.4984 191.884C46.8184 191.884 46.2251 192.018 45.7184 192.284C45.2118 192.551 44.8184 192.944 44.5384 193.464C44.2718 193.984 44.1384 194.631 44.1384 195.404V200.864H42.2184V190.264H44.0584V193.124L43.7584 192.364C44.1051 191.671 44.6384 191.131 45.3584 190.744C46.0784 190.358 46.9184 190.164 47.8784 190.164ZM56.8825 200.864V187.664L57.7425 188.604H53.7225V186.864H58.8625V200.864H56.8825Z" fill="black"/>
<path d="M43.8784 108.039C44.7451 108.039 45.5051 108.206 46.1584 108.539C46.8251 108.873 47.3451 109.379 47.7184 110.059C48.0918 110.739 48.2784 111.599 48.2784 112.639V118.739H46.3584V112.859C46.3584 111.833 46.1051 111.059 45.5984 110.539C45.1051 110.019 44.4051 109.759 43.4984 109.759C42.8184 109.759 42.2251 109.893 41.7184 110.159C41.2118 110.426 40.8184 110.819 40.5384 111.339C40.2718 111.859 40.1384 112.506 40.1384 113.279V118.739H38.2184V108.139H40.0584V110.999L39.7584 110.239C40.1051 109.546 40.6384 109.006 41.3584 108.619C42.0784 108.233 42.9184 108.039 43.8784 108.039ZM50.6541 118.739V117.379L56.3541 111.879C56.8607 111.399 57.2341 110.979 57.4741 110.619C57.7274 110.246 57.8941 109.906 57.9741 109.599C58.0674 109.279 58.1141 108.973 58.1141 108.679C58.1141 107.959 57.8607 107.393 57.3541 106.979C56.8474 106.566 56.1074 106.359 55.1341 106.359C54.3874 106.359 53.7141 106.486 53.1141 106.739C52.5141 106.979 51.9941 107.359 51.5541 107.879L50.1941 106.699C50.7274 106.019 51.4407 105.499 52.3341 105.139C53.2407 104.766 54.2341 104.579 55.3141 104.579C56.2874 104.579 57.1341 104.739 57.8541 105.059C58.5741 105.366 59.1274 105.813 59.5141 106.399C59.9141 106.986 60.1141 107.679 60.1141 108.479C60.1141 108.933 60.0541 109.379 59.9341 109.819C59.8141 110.259 59.5874 110.726 59.2541 111.219C58.9207 111.713 58.4407 112.266 57.8141 112.879L52.7341 117.779L52.2541 116.999H60.7141V118.739H50.6541Z" fill="black"/>
<path d="M496.449 73.5137V59.5137H501.909C503.136 59.5137 504.182 59.707 505.049 60.0937C505.916 60.4803 506.582 61.0403 507.049 61.7737C507.516 62.507 507.749 63.3803 507.749 64.3937C507.749 65.407 507.516 66.2803 507.049 67.0137C506.582 67.7337 505.916 68.287 505.049 68.6737C504.182 69.0603 503.136 69.2537 501.909 69.2537H497.549L498.449 68.3337V73.5137H496.449ZM505.809 73.5137L502.249 68.4337H504.389L507.989 73.5137H505.809ZM498.449 68.5337L497.549 67.5537H501.849C503.129 67.5537 504.096 67.2803 504.749 66.7337C505.416 66.1737 505.749 65.3937 505.749 64.3937C505.749 63.3937 505.416 62.6203 504.749 62.0737C504.096 61.527 503.129 61.2537 501.849 61.2537H497.549L498.449 60.2537V68.5337ZM517.183 73.5137V71.2737L517.083 70.8537V67.0337C517.083 66.2203 516.843 65.5937 516.363 65.1537C515.896 64.7003 515.189 64.4737 514.243 64.4737C513.616 64.4737 513.003 64.5803 512.403 64.7937C511.803 64.9937 511.296 65.267 510.883 65.6137L510.083 64.1737C510.629 63.7337 511.283 63.4003 512.043 63.1737C512.816 62.9337 513.623 62.8137 514.463 62.8137C515.916 62.8137 517.036 63.167 517.823 63.8737C518.609 64.5803 519.003 65.6603 519.003 67.1137V73.5137H517.183ZM513.703 73.6337C512.916 73.6337 512.223 73.5003 511.623 73.2337C511.036 72.967 510.583 72.6003 510.263 72.1337C509.943 71.6537 509.783 71.1137 509.783 70.5137C509.783 69.9403 509.916 69.4203 510.183 68.9537C510.463 68.487 510.909 68.1137 511.523 67.8337C512.149 67.5537 512.989 67.4137 514.043 67.4137H517.403V68.7937H514.123C513.163 68.7937 512.516 68.9537 512.183 69.2737C511.849 69.5937 511.683 69.9803 511.683 70.4337C511.683 70.9537 511.889 71.3737 512.303 71.6937C512.716 72.0003 513.289 72.1537 514.023 72.1537C514.743 72.1537 515.369 71.9937 515.903 71.6737C516.449 71.3537 516.843 70.887 517.083 70.2737L517.463 71.5937C517.209 72.2203 516.763 72.7203 516.123 73.0937C515.483 73.4537 514.676 73.6337 513.703 73.6337ZM522.556 73.5137V62.9137H524.396V65.7937L524.216 65.0737C524.509 64.3403 525.003 63.7803 525.696 63.3937C526.389 63.007 527.243 62.8137 528.256 62.8137V64.6737C528.176 64.6603 528.096 64.6537 528.016 64.6537C527.949 64.6537 527.883 64.6537 527.816 64.6537C526.789 64.6537 525.976 64.9603 525.376 65.5737C524.776 66.187 524.476 67.0737 524.476 68.2337V73.5137H522.556ZM535.245 73.6337C534.111 73.6337 533.111 73.4003 532.245 72.9337C531.391 72.467 530.725 71.827 530.245 71.0137C529.778 70.2003 529.545 69.267 529.545 68.2137C529.545 67.1603 529.771 66.227 530.225 65.4137C530.691 64.6003 531.325 63.967 532.125 63.5137C532.938 63.047 533.851 62.8137 534.865 62.8137C535.891 62.8137 536.798 63.0403 537.585 63.4937C538.371 63.947 538.985 64.587 539.425 65.4137C539.878 66.227 540.105 67.1803 540.105 68.2737C540.105 68.3537 540.098 68.447 540.085 68.5537C540.085 68.6603 540.078 68.7603 540.065 68.8537H531.045V67.4737H539.065L538.285 67.9537C538.298 67.2737 538.158 66.667 537.865 66.1337C537.571 65.6003 537.165 65.187 536.645 64.8937C536.138 64.587 535.545 64.4337 534.865 64.4337C534.198 64.4337 533.605 64.587 533.085 64.8937C532.565 65.187 532.158 65.607 531.865 66.1537C531.571 66.687 531.425 67.3003 531.425 67.9937V68.3137C531.425 69.0203 531.585 69.6537 531.905 70.2137C532.238 70.7603 532.698 71.187 533.285 71.4937C533.871 71.8003 534.545 71.9537 535.305 71.9537C535.931 71.9537 536.498 71.847 537.005 71.6337C537.525 71.4203 537.978 71.1003 538.365 70.6737L539.425 71.9137C538.945 72.4737 538.345 72.9003 537.625 73.1937C536.918 73.487 536.125 73.6337 535.245 73.6337ZM542.771 73.5137V62.9137H544.611V65.7937L544.431 65.0737C544.724 64.3403 545.217 63.7803 545.911 63.3937C546.604 63.007 547.457 62.8137 548.471 62.8137V64.6737C548.391 64.6603 548.311 64.6537 548.231 64.6537C548.164 64.6537 548.097 64.6537 548.031 64.6537C547.004 64.6537 546.191 64.9603 545.591 65.5737C544.991 66.187 544.691 67.0737 544.691 68.2337V73.5137H542.771ZM556.625 73.5137V59.5137H558.265L564.545 70.0937H563.665L569.865 59.5137H571.505L571.525 73.5137H569.605L569.585 62.5337H570.045L564.525 71.8137H563.605L558.045 62.5337H558.545V73.5137H556.625ZM580.166 73.6337C579.033 73.6337 578.033 73.4003 577.166 72.9337C576.313 72.467 575.646 71.827 575.166 71.0137C574.7 70.2003 574.466 69.267 574.466 68.2137C574.466 67.1603 574.693 66.227 575.146 65.4137C575.613 64.6003 576.246 63.967 577.046 63.5137C577.86 63.047 578.773 62.8137 579.786 62.8137C580.813 62.8137 581.72 63.0403 582.506 63.4937C583.293 63.947 583.906 64.587 584.346 65.4137C584.8 66.227 585.026 67.1803 585.026 68.2737C585.026 68.3537 585.02 68.447 585.006 68.5537C585.006 68.6603 585 68.7603 584.986 68.8537H575.966V67.4737H583.986L583.206 67.9537C583.22 67.2737 583.08 66.667 582.786 66.1337C582.493 65.6003 582.086 65.187 581.566 64.8937C581.06 64.587 580.466 64.4337 579.786 64.4337C579.12 64.4337 578.526 64.587 578.006 64.8937C577.486 65.187 577.08 65.607 576.786 66.1537C576.493 66.687 576.346 67.3003 576.346 67.9937V68.3137C576.346 69.0203 576.506 69.6537 576.826 70.2137C577.16 70.7603 577.62 71.187 578.206 71.4937C578.793 71.8003 579.466 71.9537 580.226 71.9537C580.853 71.9537 581.42 71.847 581.926 71.6337C582.446 71.4203 582.9 71.1003 583.286 70.6737L584.346 71.9137C583.866 72.4737 583.266 72.9003 582.546 73.1937C581.84 73.487 581.046 73.6337 580.166 73.6337ZM592.073 73.6337C591.046 73.6337 590.126 73.407 589.313 72.9537C588.513 72.5003 587.879 71.867 587.413 71.0537C586.946 70.2403 586.713 69.2937 586.713 68.2137C586.713 67.1337 586.946 66.1937 587.413 65.3937C587.879 64.5803 588.513 63.947 589.313 63.4937C590.126 63.0403 591.046 62.8137 592.073 62.8137C592.966 62.8137 593.773 63.0137 594.493 63.4137C595.213 63.8137 595.786 64.4137 596.213 65.2137C596.653 66.0137 596.873 67.0137 596.873 68.2137C596.873 69.4137 596.659 70.4137 596.233 71.2137C595.819 72.0137 595.253 72.6203 594.533 73.0337C593.813 73.4337 592.993 73.6337 592.073 73.6337ZM592.233 71.9537C592.899 71.9537 593.499 71.8003 594.033 71.4937C594.579 71.187 595.006 70.7537 595.313 70.1937C595.633 69.6203 595.793 68.9603 595.793 68.2137C595.793 67.4537 595.633 66.8003 595.313 66.2537C595.006 65.6937 594.579 65.2603 594.033 64.9537C593.499 64.647 592.899 64.4937 592.233 64.4937C591.553 64.4937 590.946 64.647 590.413 64.9537C589.879 65.2603 589.453 65.6937 589.133 66.2537C588.813 66.8003 588.653 67.4537 588.653 68.2137C588.653 68.9603 588.813 69.6203 589.133 70.1937C589.453 70.7537 589.879 71.187 590.413 71.4937C590.946 71.8003 591.553 71.9537 592.233 71.9537ZM595.853 73.5137V70.6537L595.973 68.1937L595.773 65.7337V58.6737H597.693V73.5137H595.853ZM601.325 73.5137V62.9137H603.245V73.5137H601.325ZM602.285 60.8737C601.912 60.8737 601.599 60.7537 601.345 60.5137C601.105 60.2737 600.985 59.9803 600.985 59.6337C600.985 59.2737 601.105 58.9737 601.345 58.7337C601.599 58.4937 601.912 58.3737 602.285 58.3737C602.659 58.3737 602.965 58.4937 603.205 58.7337C603.459 58.9603 603.585 59.247 603.585 59.5937C603.585 59.9537 603.465 60.2603 603.225 60.5137C602.985 60.7537 602.672 60.8737 602.285 60.8737ZM611.371 73.6337C610.465 73.6337 609.665 73.467 608.971 73.1337C608.291 72.8003 607.758 72.2937 607.371 71.6137C606.998 70.9203 606.811 70.0537 606.811 69.0137V62.9137H608.731V68.7937C608.731 69.8337 608.978 70.6137 609.471 71.1337C609.978 71.6537 610.685 71.9137 611.591 71.9137C612.258 71.9137 612.838 71.7803 613.331 71.5137C613.825 71.2337 614.205 70.8337 614.471 70.3137C614.738 69.7803 614.871 69.1403 614.871 68.3937V62.9137H616.791V73.5137H614.971V70.6537L615.271 71.4137C614.925 72.1203 614.405 72.667 613.711 73.0537C613.018 73.4403 612.238 73.6337 611.371 73.6337ZM633.706 62.8137C634.56 62.8137 635.313 62.9803 635.966 63.3137C636.62 63.647 637.126 64.1537 637.486 64.8337C637.86 65.5137 638.046 66.3737 638.046 67.4137V73.5137H636.126V67.6337C636.126 66.607 635.886 65.8337 635.406 65.3137C634.926 64.7937 634.253 64.5337 633.386 64.5337C632.746 64.5337 632.186 64.667 631.706 64.9337C631.226 65.2003 630.853 65.5937 630.586 66.1137C630.333 66.6337 630.206 67.2803 630.206 68.0537V73.5137H628.286V67.6337C628.286 66.607 628.046 65.8337 627.566 65.3137C627.1 64.7937 626.426 64.5337 625.546 64.5337C624.92 64.5337 624.366 64.667 623.886 64.9337C623.406 65.2003 623.033 65.5937 622.766 66.1137C622.5 66.6337 622.366 67.2803 622.366 68.0537V73.5137H620.446V62.9137H622.286V65.7337L621.986 65.0137C622.32 64.3203 622.833 63.7803 623.526 63.3937C624.22 63.007 625.026 62.8137 625.946 62.8137C626.96 62.8137 627.833 63.067 628.566 63.5737C629.3 64.067 629.78 64.8203 630.006 65.8337L629.226 65.5137C629.546 64.7003 630.106 64.047 630.906 63.5537C631.706 63.0603 632.64 62.8137 633.706 62.8137ZM649.41 77.3937C648.65 76.1803 648.064 74.7803 647.65 73.1937C647.237 71.5937 647.03 69.8737 647.03 68.0337C647.03 66.1937 647.237 64.4737 647.65 62.8737C648.064 61.2603 648.65 59.8603 649.41 58.6737H651.23C650.43 60.087 649.844 61.567 649.47 63.1137C649.097 64.647 648.91 66.287 648.91 68.0337C648.91 69.7803 649.097 71.427 649.47 72.9737C649.844 74.507 650.43 75.9803 651.23 77.3937H649.41ZM651.849 73.5137L658.189 59.5137H660.169L666.529 73.5137H664.429L658.769 60.6337H659.569L653.909 73.5137H651.849ZM654.549 70.0137L655.089 68.4137H662.969L663.549 70.0137H654.549ZM668.337 73.5137V62.9137H670.257V73.5137H668.337ZM669.297 60.8737C668.924 60.8737 668.61 60.7537 668.357 60.5137C668.117 60.2737 667.997 59.9803 667.997 59.6337C667.997 59.2737 668.117 58.9737 668.357 58.7337C668.61 58.4937 668.924 58.3737 669.297 58.3737C669.67 58.3737 669.977 58.4937 670.217 58.7337C670.47 58.9603 670.597 59.247 670.597 59.5937C670.597 59.9537 670.477 60.2603 670.237 60.5137C669.997 60.7537 669.684 60.8737 669.297 60.8737ZM673.923 73.5137V62.9137H675.763V65.7937L675.583 65.0737C675.876 64.3403 676.37 63.7803 677.063 63.3937C677.756 63.007 678.61 62.8137 679.623 62.8137V64.6737C679.543 64.6603 679.463 64.6537 679.383 64.6537C679.316 64.6537 679.25 64.6537 679.183 64.6537C678.156 64.6537 677.343 64.9603 676.743 65.5737C676.143 66.187 675.843 67.0737 675.843 68.2337V73.5137H673.923ZM682.59 77.3937H680.77C681.584 75.9803 682.177 74.507 682.55 72.9737C682.924 71.427 683.11 69.7803 683.11 68.0337C683.11 66.287 682.924 64.647 682.55 63.1137C682.177 61.567 681.584 60.087 680.77 58.6737H682.59C683.377 59.8603 683.97 61.2603 684.37 62.8737C684.784 64.4737 684.99 66.1937 684.99 68.0337C684.99 69.8737 684.784 71.5937 684.37 73.1937C683.97 74.7803 683.377 76.1803 682.59 77.3937Z" fill="black"/>
<path d="M503.558 372.89V358.89H509.458C510.951 358.89 512.265 359.183 513.398 359.77C514.545 360.356 515.431 361.176 516.058 362.23C516.698 363.283 517.018 364.503 517.018 365.89C517.018 367.276 516.698 368.496 516.058 369.55C515.431 370.603 514.545 371.423 513.398 372.01C512.265 372.596 510.951 372.89 509.458 372.89H503.558ZM505.558 371.15H509.338C510.498 371.15 511.498 370.93 512.338 370.49C513.191 370.05 513.851 369.436 514.318 368.65C514.785 367.85 515.018 366.93 515.018 365.89C515.018 364.836 514.785 363.916 514.318 363.13C513.851 362.343 513.191 361.73 512.338 361.29C511.498 360.85 510.498 360.63 509.338 360.63H505.558V371.15ZM524.521 373.01C523.388 373.01 522.388 372.776 521.521 372.31C520.668 371.843 520.001 371.203 519.521 370.39C519.055 369.576 518.821 368.643 518.821 367.59C518.821 366.536 519.048 365.603 519.501 364.79C519.968 363.976 520.601 363.343 521.401 362.89C522.215 362.423 523.128 362.19 524.141 362.19C525.168 362.19 526.075 362.416 526.861 362.87C527.648 363.323 528.261 363.963 528.701 364.79C529.155 365.603 529.381 366.556 529.381 367.65C529.381 367.73 529.375 367.823 529.361 367.93C529.361 368.036 529.355 368.136 529.341 368.23H520.321V366.85H528.341L527.561 367.33C527.575 366.65 527.435 366.043 527.141 365.51C526.848 364.976 526.441 364.563 525.921 364.27C525.415 363.963 524.821 363.81 524.141 363.81C523.475 363.81 522.881 363.963 522.361 364.27C521.841 364.563 521.435 364.983 521.141 365.53C520.848 366.063 520.701 366.676 520.701 367.37V367.69C520.701 368.396 520.861 369.03 521.181 369.59C521.515 370.136 521.975 370.563 522.561 370.87C523.148 371.176 523.821 371.33 524.581 371.33C525.208 371.33 525.775 371.223 526.281 371.01C526.801 370.796 527.255 370.476 527.641 370.05L528.701 371.29C528.221 371.85 527.621 372.276 526.901 372.57C526.195 372.863 525.401 373.01 524.521 373.01ZM537.708 362.19C538.574 362.19 539.334 362.356 539.988 362.69C540.654 363.023 541.174 363.53 541.548 364.21C541.921 364.89 542.108 365.75 542.108 366.79V372.89H540.188V367.01C540.188 365.983 539.934 365.21 539.428 364.69C538.934 364.17 538.234 363.91 537.328 363.91C536.648 363.91 536.054 364.043 535.548 364.31C535.041 364.576 534.648 364.97 534.368 365.49C534.101 366.01 533.968 366.656 533.968 367.43V372.89H532.048V362.29H533.888V365.15L533.588 364.39C533.934 363.696 534.468 363.156 535.188 362.77C535.908 362.383 536.748 362.19 537.708 362.19ZM548.701 373.01C547.821 373.01 546.981 372.89 546.181 372.65C545.394 372.41 544.774 372.116 544.321 371.77L545.121 370.25C545.574 370.556 546.134 370.816 546.801 371.03C547.467 371.243 548.147 371.35 548.841 371.35C549.734 371.35 550.374 371.223 550.761 370.97C551.161 370.716 551.361 370.363 551.361 369.91C551.361 369.576 551.241 369.316 551.001 369.13C550.761 368.943 550.441 368.803 550.041 368.71C549.654 368.616 549.221 368.536 548.741 368.47C548.261 368.39 547.781 368.296 547.301 368.19C546.821 368.07 546.381 367.91 545.981 367.71C545.581 367.496 545.261 367.21 545.021 366.85C544.781 366.476 544.661 365.983 544.661 365.37C544.661 364.73 544.841 364.17 545.201 363.69C545.561 363.21 546.067 362.843 546.721 362.59C547.387 362.323 548.174 362.19 549.081 362.19C549.774 362.19 550.474 362.276 551.181 362.45C551.901 362.61 552.487 362.843 552.941 363.15L552.121 364.67C551.641 364.35 551.141 364.13 550.621 364.01C550.101 363.89 549.581 363.83 549.061 363.83C548.221 363.83 547.594 363.97 547.181 364.25C546.767 364.516 546.561 364.863 546.561 365.29C546.561 365.65 546.681 365.93 546.921 366.13C547.174 366.316 547.494 366.463 547.881 366.57C548.281 366.676 548.721 366.77 549.201 366.85C549.681 366.916 550.161 367.01 550.641 367.13C551.121 367.236 551.554 367.39 551.941 367.59C552.341 367.79 552.661 368.07 552.901 368.43C553.154 368.79 553.281 369.27 553.281 369.87C553.281 370.51 553.094 371.063 552.721 371.53C552.347 371.996 551.821 372.363 551.141 372.63C550.461 372.883 549.647 373.01 548.701 373.01ZM560.4 373.01C559.267 373.01 558.267 372.776 557.4 372.31C556.547 371.843 555.88 371.203 555.4 370.39C554.934 369.576 554.7 368.643 554.7 367.59C554.7 366.536 554.927 365.603 555.38 364.79C555.847 363.976 556.48 363.343 557.28 362.89C558.094 362.423 559.007 362.19 560.02 362.19C561.047 362.19 561.954 362.416 562.74 362.87C563.527 363.323 564.14 363.963 564.58 364.79C565.034 365.603 565.26 366.556 565.26 367.65C565.26 367.73 565.254 367.823 565.24 367.93C565.24 368.036 565.234 368.136 565.22 368.23H556.2V366.85H564.22L563.44 367.33C563.454 366.65 563.314 366.043 563.02 365.51C562.727 364.976 562.32 364.563 561.8 364.27C561.294 363.963 560.7 363.81 560.02 363.81C559.354 363.81 558.76 363.963 558.24 364.27C557.72 364.563 557.314 364.983 557.02 365.53C556.727 366.063 556.58 366.676 556.58 367.37V367.69C556.58 368.396 556.74 369.03 557.06 369.59C557.394 370.136 557.854 370.563 558.44 370.87C559.027 371.176 559.7 371.33 560.46 371.33C561.087 371.33 561.654 371.223 562.16 371.01C562.68 370.796 563.134 370.476 563.52 370.05L564.58 371.29C564.1 371.85 563.5 372.276 562.78 372.57C562.074 372.863 561.28 373.01 560.4 373.01ZM567.926 372.89V362.29H569.766V365.17L569.586 364.45C569.88 363.716 570.373 363.156 571.066 362.77C571.76 362.383 572.613 362.19 573.626 362.19V364.05C573.546 364.036 573.466 364.03 573.386 364.03C573.32 364.03 573.253 364.03 573.186 364.03C572.16 364.03 571.346 364.336 570.746 364.95C570.146 365.563 569.846 366.45 569.846 367.61V372.89H567.926ZM581.781 372.89V358.89H583.421L589.701 369.47H588.821L595.021 358.89H596.661L596.681 372.89H594.761L594.741 361.91H595.201L589.681 371.19H588.761L583.201 361.91H583.701V372.89H581.781ZM605.322 373.01C604.189 373.01 603.189 372.776 602.322 372.31C601.469 371.843 600.802 371.203 600.322 370.39C599.856 369.576 599.622 368.643 599.622 367.59C599.622 366.536 599.849 365.603 600.302 364.79C600.769 363.976 601.402 363.343 602.202 362.89C603.016 362.423 603.929 362.19 604.942 362.19C605.969 362.19 606.876 362.416 607.662 362.87C608.449 363.323 609.062 363.963 609.502 364.79C609.956 365.603 610.182 366.556 610.182 367.65C610.182 367.73 610.176 367.823 610.162 367.93C610.162 368.036 610.156 368.136 610.142 368.23H601.122V366.85H609.142L608.362 367.33C608.376 366.65 608.236 366.043 607.942 365.51C607.649 364.976 607.242 364.563 606.722 364.27C606.216 363.963 605.622 363.81 604.942 363.81C604.276 363.81 603.682 363.963 603.162 364.27C602.642 364.563 602.236 364.983 601.942 365.53C601.649 366.063 601.502 366.676 601.502 367.37V367.69C601.502 368.396 601.662 369.03 601.982 369.59C602.316 370.136 602.776 370.563 603.362 370.87C603.949 371.176 604.622 371.33 605.382 371.33C606.009 371.33 606.576 371.223 607.082 371.01C607.602 370.796 608.056 370.476 608.442 370.05L609.502 371.29C609.022 371.85 608.422 372.276 607.702 372.57C606.996 372.863 606.202 373.01 605.322 373.01ZM617.228 373.01C616.202 373.01 615.282 372.783 614.468 372.33C613.668 371.876 613.035 371.243 612.568 370.43C612.102 369.616 611.868 368.67 611.868 367.59C611.868 366.51 612.102 365.57 612.568 364.77C613.035 363.956 613.668 363.323 614.468 362.87C615.282 362.416 616.202 362.19 617.228 362.19C618.122 362.19 618.928 362.39 619.648 362.79C620.368 363.19 620.942 363.79 621.368 364.59C621.808 365.39 622.028 366.39 622.028 367.59C622.028 368.79 621.815 369.79 621.388 370.59C620.975 371.39 620.408 371.996 619.688 372.41C618.968 372.81 618.148 373.01 617.228 373.01ZM617.388 371.33C618.055 371.33 618.655 371.176 619.188 370.87C619.735 370.563 620.162 370.13 620.468 369.57C620.788 368.996 620.948 368.336 620.948 367.59C620.948 366.83 620.788 366.176 620.468 365.63C620.162 365.07 619.735 364.636 619.188 364.33C618.655 364.023 618.055 363.87 617.388 363.87C616.708 363.87 616.102 364.023 615.568 364.33C615.035 364.636 614.608 365.07 614.288 365.63C613.968 366.176 613.808 366.83 613.808 367.59C613.808 368.336 613.968 368.996 614.288 369.57C614.608 370.13 615.035 370.563 615.568 370.87C616.102 371.176 616.708 371.33 617.388 371.33ZM621.008 372.89V370.03L621.128 367.57L620.928 365.11V358.05H622.848V372.89H621.008ZM626.481 372.89V362.29H628.401V372.89H626.481ZM627.441 360.25C627.068 360.25 626.754 360.13 626.501 359.89C626.261 359.65 626.141 359.356 626.141 359.01C626.141 358.65 626.261 358.35 626.501 358.11C626.754 357.87 627.068 357.75 627.441 357.75C627.814 357.75 628.121 357.87 628.361 358.11C628.614 358.336 628.741 358.623 628.741 358.97C628.741 359.33 628.621 359.636 628.381 359.89C628.141 360.13 627.828 360.25 627.441 360.25ZM636.527 373.01C635.62 373.01 634.82 372.843 634.127 372.51C633.447 372.176 632.914 371.67 632.527 370.99C632.154 370.296 631.967 369.43 631.967 368.39V362.29H633.887V368.17C633.887 369.21 634.134 369.99 634.627 370.51C635.134 371.03 635.84 371.29 636.747 371.29C637.414 371.29 637.994 371.156 638.487 370.89C638.98 370.61 639.36 370.21 639.627 369.69C639.894 369.156 640.027 368.516 640.027 367.77V362.29H641.947V372.89H640.127V370.03L640.427 370.79C640.08 371.496 639.56 372.043 638.867 372.43C638.174 372.816 637.394 373.01 636.527 373.01ZM658.862 362.19C659.716 362.19 660.469 362.356 661.122 362.69C661.776 363.023 662.282 363.53 662.642 364.21C663.016 364.89 663.202 365.75 663.202 366.79V372.89H661.282V367.01C661.282 365.983 661.042 365.21 660.562 364.69C660.082 364.17 659.409 363.91 658.542 363.91C657.902 363.91 657.342 364.043 656.862 364.31C656.382 364.576 656.009 364.97 655.742 365.49C655.489 366.01 655.362 366.656 655.362 367.43V372.89H653.442V367.01C653.442 365.983 653.202 365.21 652.722 364.69C652.256 364.17 651.582 363.91 650.702 363.91C650.076 363.91 649.522 364.043 649.042 364.31C648.562 364.576 648.189 364.97 647.922 365.49C647.656 366.01 647.522 366.656 647.522 367.43V372.89H645.602V362.29H647.442V365.11L647.142 364.39C647.476 363.696 647.989 363.156 648.682 362.77C649.376 362.383 650.182 362.19 651.102 362.19C652.116 362.19 652.989 362.443 653.722 362.95C654.456 363.443 654.936 364.196 655.162 365.21L654.382 364.89C654.702 364.076 655.262 363.423 656.062 362.93C656.862 362.436 657.796 362.19 658.862 362.19ZM674.566 376.77C673.806 375.556 673.219 374.156 672.806 372.57C672.393 370.97 672.186 369.25 672.186 367.41C672.186 365.57 672.393 363.85 672.806 362.25C673.219 360.636 673.806 359.236 674.566 358.05H676.386C675.586 359.463 674.999 360.943 674.626 362.49C674.253 364.023 674.066 365.663 674.066 367.41C674.066 369.156 674.253 370.803 674.626 372.35C674.999 373.883 675.586 375.356 676.386 376.77H674.566ZM682.344 372.89L677.664 358.89H679.724L684.024 371.81H682.984L687.444 358.89H689.284L693.644 371.81H692.644L697.004 358.89H698.904L694.224 372.89H692.124L688.044 360.91H688.584L684.484 372.89H682.344ZM706.85 372.89V370.65L706.75 370.23V366.41C706.75 365.596 706.51 364.97 706.03 364.53C705.564 364.076 704.857 363.85 703.91 363.85C703.284 363.85 702.67 363.956 702.07 364.17C701.47 364.37 700.964 364.643 700.55 364.99L699.75 363.55C700.297 363.11 700.95 362.776 701.71 362.55C702.484 362.31 703.29 362.19 704.13 362.19C705.584 362.19 706.704 362.543 707.49 363.25C708.277 363.956 708.67 365.036 708.67 366.49V372.89H706.85ZM703.37 373.01C702.584 373.01 701.89 372.876 701.29 372.61C700.704 372.343 700.25 371.976 699.93 371.51C699.61 371.03 699.45 370.49 699.45 369.89C699.45 369.316 699.584 368.796 699.85 368.33C700.13 367.863 700.577 367.49 701.19 367.21C701.817 366.93 702.657 366.79 703.71 366.79H707.07V368.17H703.79C702.83 368.17 702.184 368.33 701.85 368.65C701.517 368.97 701.35 369.356 701.35 369.81C701.35 370.33 701.557 370.75 701.97 371.07C702.384 371.376 702.957 371.53 703.69 371.53C704.41 371.53 705.037 371.37 705.57 371.05C706.117 370.73 706.51 370.263 706.75 369.65L707.13 370.97C706.877 371.596 706.43 372.096 705.79 372.47C705.15 372.83 704.344 373.01 703.37 373.01ZM715.863 373.01C714.797 373.01 713.97 372.723 713.383 372.15C712.797 371.576 712.503 370.756 712.503 369.69V359.97H714.423V369.61C714.423 370.183 714.563 370.623 714.843 370.93C715.137 371.236 715.55 371.39 716.083 371.39C716.683 371.39 717.183 371.223 717.583 370.89L718.183 372.27C717.89 372.523 717.537 372.71 717.123 372.83C716.723 372.95 716.303 373.01 715.863 373.01ZM710.703 363.87V362.29H717.463V363.87H710.703ZM724.873 373.01C723.74 373.01 722.74 372.776 721.873 372.31C721.02 371.843 720.353 371.203 719.873 370.39C719.406 369.576 719.173 368.643 719.173 367.59C719.173 366.536 719.4 365.603 719.853 364.79C720.32 363.976 720.953 363.343 721.753 362.89C722.566 362.423 723.48 362.19 724.493 362.19C725.52 362.19 726.426 362.416 727.213 362.87C728 363.323 728.613 363.963 729.053 364.79C729.506 365.603 729.733 366.556 729.733 367.65C729.733 367.73 729.726 367.823 729.713 367.93C729.713 368.036 729.706 368.136 729.693 368.23H720.673V366.85H728.693L727.913 367.33C727.926 366.65 727.786 366.043 727.493 365.51C727.2 364.976 726.793 364.563 726.273 364.27C725.766 363.963 725.173 363.81 724.493 363.81C723.826 363.81 723.233 363.963 722.713 364.27C722.193 364.563 721.786 364.983 721.493 365.53C721.2 366.063 721.053 366.676 721.053 367.37V367.69C721.053 368.396 721.213 369.03 721.533 369.59C721.866 370.136 722.326 370.563 722.913 370.87C723.5 371.176 724.173 371.33 724.933 371.33C725.56 371.33 726.126 371.223 726.633 371.01C727.153 370.796 727.606 370.476 727.993 370.05L729.053 371.29C728.573 371.85 727.973 372.276 727.253 372.57C726.546 372.863 725.753 373.01 724.873 373.01ZM732.399 372.89V362.29H734.239V365.17L734.059 364.45C734.352 363.716 734.846 363.156 735.539 362.77C736.232 362.383 737.086 362.19 738.099 362.19V364.05C738.019 364.036 737.939 364.03 737.859 364.03C737.792 364.03 737.726 364.03 737.659 364.03C736.632 364.03 735.819 364.336 735.219 364.95C734.619 365.563 734.319 366.45 734.319 367.61V372.89H732.399ZM741.066 376.77H739.246C740.06 375.356 740.653 373.883 741.026 372.35C741.4 370.803 741.586 369.156 741.586 367.41C741.586 365.663 741.4 364.023 741.026 362.49C740.653 360.943 740.06 359.463 739.246 358.05H741.066C741.853 359.236 742.446 360.636 742.846 362.25C743.26 363.85 743.466 365.57 743.466 367.41C743.466 369.25 743.26 370.97 742.846 372.57C742.446 374.156 741.853 375.556 741.066 376.77Z" fill="black"/>
<path d="M258.138 185.315C268.636 202.686 278.677 206.34 305 203.654C331.325 205.098 339.237 199.223 349.831 185.315" stroke="#FA6C32" stroke-width="2"/>
<path d="M375.788 310.775C375.293 310.53 374.694 310.733 374.449 311.228L370.459 319.296C370.215 319.791 370.417 320.39 370.913 320.635C371.408 320.88 372.007 320.677 372.252 320.182L375.798 313.011L382.969 316.557C383.464 316.802 384.064 316.599 384.309 316.104C384.554 315.609 384.351 315.009 383.856 314.764L375.788 310.775ZM393.684 365.89L392.736 366.21L392.966 366.89H393.684V365.89ZM374.398 311.992L392.736 366.21L394.631 365.569L376.292 311.351L374.398 311.992ZM393.684 366.89H494.944V364.89H393.684V366.89Z" fill="black"/>
<path d="M406.001 99.1543C405.974 99.7059 406.399 100.175 406.95 100.203L415.939 100.651C416.491 100.678 416.96 100.253 416.988 99.7016C417.015 99.15 416.59 98.6806 416.039 98.6531L408.049 98.2551L408.447 90.265C408.474 89.7134 408.049 89.244 407.498 89.2165C406.946 89.189 406.477 89.6139 406.449 90.1655L406.001 99.1543ZM443.118 66.5137V65.5137H442.733L442.447 65.7723L443.118 66.5137ZM407.671 99.9455L443.789 67.2551L442.447 65.7723L406.329 98.4627L407.671 99.9455ZM443.118 67.5137H488V65.5137H443.118V67.5137Z" fill="black"/>
<path d="M136.147 265.048H159.27V284.981" stroke="#FA6C32" stroke-width="4"/>
</svg>
